<svg width="1376" height="673" viewBox="0 0 1376 673" fill="none" xmlns="http://www.w3.org/2000/svg">
<g clip-path="url(#clip0_606_265)">
<rect width="1376" height="673" rx="32" fill="url(#paint0_linear_606_265)"/>
<g opacity="0.8" filter="url(#filter0_f_606_265)">
<ellipse cx="824.5" cy="860" rx="419" ry="726.5" transform="rotate(90 824.5 860)" fill="#F9FAFF"/>
</g>
<path d="M1274.5 -359.542C1304.38 -405.78 1380.33 -385.43 1383.09 -330.446L1483.47 1670.67C1485.34 1708.04 1448.76 1735.46 1410.65 1725.25L222.789 1406.96C184.682 1396.75 166.709 1354.71 187.016 1323.29L1274.5 -359.542Z" fill="url(#paint1_radial_606_265)" fill-opacity="0.5"/>
<path d="M1690 -276.234C1730.83 -313.163 1798.92 -273.848 1787.36 -220.024L1366.39 1738.89C1358.52 1775.47 1316.09 1792.48 1281.93 1772.76L216.915 1157.87C182.75 1138.15 176.27 1092.89 204.017 1067.79L1690 -276.234Z" fill="url(#paint2_radial_606_265)" fill-opacity="0.5"/>
<path d="M1858.4 27.3538C1895.7 3.93087 1943.89 44.3714 1927.3 85.1731L1323.52 1570.13C1312.25 1597.86 1276.45 1605.37 1252.27 1585.08L498.494 952.591C474.313 932.301 475.492 895.741 500.842 879.823L1858.4 27.3538Z" fill="url(#paint3_radial_606_265)" fill-opacity="0.5"/>
<path d="M1846.98 356.368C1879.66 343.086 1912.05 381.687 1893.29 411.558L1210.75 1498.68C1198 1518.98 1168.73 1519.92 1152.47 1500.56L645.887 896.829C629.636 877.461 635.647 848.792 657.851 839.766L1846.98 356.368Z" fill="url(#paint4_radial_606_265)" fill-opacity="0.5"/>
<g opacity="0.2" filter="url(#filter1_f_606_265)">
<path d="M1666.39 634.089C1683.43 780.84 1411.73 932.95 1059.52 973.837C707.322 1014.72 407.996 928.904 390.96 782.153C635.336 723.582 645.629 483.292 997.831 442.406C1350.03 401.519 1649.36 487.339 1666.39 634.089Z" fill="url(#paint5_linear_606_265)"/>
</g>
<g filter="url(#filter2_f_606_265)">
<ellipse cx="23.5516" cy="1314.62" rx="711.5" ry="1286.5" transform="rotate(-39.8448 23.5516 1314.62)" fill="#FFB7D3"/>
</g>
</g>
<defs>
<filter id="filter0_f_606_265" x="-266" y="77" width="2181" height="1566" filterUnits="userSpaceOnUse" color-interpolation-filters="sRGB">
<feFlood flood-opacity="0" result="BackgroundImageFix"/>
<feBlend mode="normal" in="SourceGraphic" in2="BackgroundImageFix" result="shape"/>
<feGaussianBlur stdDeviation="182" result="effect1_foregroundBlur_606_265"/>
</filter>
<filter id="filter1_f_606_265" x="276.959" y="318.215" width="1504.19" height="779.812" filterUnits="userSpaceOnUse" color-interpolation-filters="sRGB">
<feFlood flood-opacity="0" result="BackgroundImageFix"/>
<feBlend mode="normal" in="SourceGraphic" in2="BackgroundImageFix" result="shape"/>
<feGaussianBlur stdDeviation="57" result="effect1_foregroundBlur_606_265"/>
</filter>
<filter id="filter2_f_606_265" x="-1329.42" y="-137.519" width="2705.94" height="2904.27" filterUnits="userSpaceOnUse" color-interpolation-filters="sRGB">
<feFlood flood-opacity="0" result="BackgroundImageFix"/>
<feBlend mode="normal" in="SourceGraphic" in2="BackgroundImageFix" result="shape"/>
<feGaussianBlur stdDeviation="182" result="effect1_foregroundBlur_606_265"/>
</filter>
<linearGradient id="paint0_linear_606_265" x1="688" y1="0" x2="688" y2="673" gradientUnits="userSpaceOnUse">
<stop stop-color="#9396FF"/>
<stop offset="1" stop-color="#6E3AFF"/>
</linearGradient>
<radialGradient id="paint1_radial_606_265" cx="0" cy="0" r="1" gradientTransform="matrix(986.678 -1.73123 -188.988 1533.94 1051.41 691.131)" gradientUnits="userSpaceOnUse">
<stop stop-color="white" stop-opacity="0.2"/>
<stop offset="1" stop-color="white" stop-opacity="0.6"/>
</radialGradient>
<radialGradient id="paint2_radial_606_265" cx="0" cy="0" r="1" gradientTransform="matrix(953.506 253.699 -579.563 1432.76 1202.57 680.897)" gradientUnits="userSpaceOnUse">
<stop stop-color="white" stop-opacity="0.2"/>
<stop offset="1" stop-color="white" stop-opacity="0.6"/>
</radialGradient>
<radialGradient id="paint3_radial_606_265" cx="0" cy="0" r="1" gradientTransform="matrix(716.08 332.41 -655.666 1048.36 1341.39 713.756)" gradientUnits="userSpaceOnUse">
<stop stop-color="white" stop-opacity="0.2"/>
<stop offset="1" stop-color="white" stop-opacity="0.6"/>
</radialGradient>
<radialGradient id="paint4_radial_606_265" cx="0" cy="0" r="1" gradientTransform="matrix(518.559 361.814 -662.791 735.566 1343.85 825.766)" gradientUnits="userSpaceOnUse">
<stop stop-color="white" stop-opacity="0.2"/>
<stop offset="1" stop-color="white" stop-opacity="0.6"/>
</radialGradient>
<linearGradient id="paint5_linear_606_265" x1="767.901" y1="286.379" x2="900.125" y2="1012.31" gradientUnits="userSpaceOnUse">
<stop stop-color="white" stop-opacity="0"/>
<stop offset="1" stop-color="white"/>
</linearGradient>
<clipPath id="clip0_606_265">
<rect width="1376" height="673" rx="32" fill="white"/>
</clipPath>
</defs>
</svg>
