<svg xmlns="http://www.w3.org/2000/svg" width="1376" height="673" fill="none" viewBox="0 0 1376 673"><g clip-path="url(#a)"><rect width="1376" height="673" fill="url(#b)" rx="32"/><g filter="url(#c)" opacity=".8"><ellipse cx="824.5" cy="860" fill="#f9faff" rx="419" ry="726.5" transform="rotate(90 824.5 860)"/></g><path fill="url(#d)" fill-opacity=".5" d="M1274.5-359.542c29.88-46.238 105.83-25.888 108.59 29.096l100.38 2001.116c1.87 37.37-34.71 64.79-72.82 54.58L222.789 1406.96c-38.107-10.21-56.08-52.25-35.773-83.67z"/><path fill="url(#e)" fill-opacity=".5" d="M1690-276.234c40.83-36.929 108.92 2.386 97.36 56.21L1366.39 1738.89c-7.87 36.58-50.3 53.59-84.46 33.87L216.915 1157.87c-34.165-19.72-40.645-64.98-12.898-90.08z"/><path fill="url(#f)" fill-opacity=".5" d="M1858.4 27.354c37.3-23.423 85.49 17.017 68.9 57.82L1323.52 1570.13c-11.27 27.73-47.07 35.24-71.25 14.95L498.494 952.591c-24.181-20.29-23.002-56.85 2.348-72.768z"/><path fill="url(#g)" fill-opacity=".5" d="M1846.98 356.368c32.68-13.282 65.07 25.319 46.31 55.19L1210.75 1498.68c-12.75 20.3-42.02 21.24-58.28 1.88L645.887 896.829c-16.251-19.368-10.24-48.037 11.964-57.063z"/><g filter="url(#h)" opacity=".2"><path fill="url(#i)" d="M1666.39 634.089c17.04 146.751-254.66 298.861-606.87 339.748-352.198 40.883-651.524-44.933-668.56-191.684 244.376-58.571 254.669-298.861 606.871-339.747 352.199-40.887 651.529 44.933 668.559 191.683"/></g><g filter="url(#j)"><ellipse cx="23.552" cy="1314.62" fill="#ffb7d3" rx="711.5" ry="1286.5" transform="rotate(-39.845 23.552 1314.62)"/></g></g><defs><radialGradient id="d" cx="0" cy="0" r="1" gradientTransform="matrix(986.678 -1.73123 -188.988 1533.94 1051.41 691.131)" gradientUnits="userSpaceOnUse"><stop stop-color="#fff" stop-opacity=".2"/><stop offset="1" stop-color="#fff" stop-opacity=".6"/></radialGradient><radialGradient id="e" cx="0" cy="0" r="1" gradientTransform="matrix(953.506 253.699 -579.563 1432.76 1202.57 680.897)" gradientUnits="userSpaceOnUse"><stop stop-color="#fff" stop-opacity=".2"/><stop offset="1" stop-color="#fff" stop-opacity=".6"/></radialGradient><radialGradient id="f" cx="0" cy="0" r="1" gradientTransform="matrix(716.08 332.41 -655.666 1048.36 1341.39 713.756)" gradientUnits="userSpaceOnUse"><stop stop-color="#fff" stop-opacity=".2"/><stop offset="1" stop-color="#fff" stop-opacity=".6"/></radialGradient><radialGradient id="g" cx="0" cy="0" r="1" gradientTransform="matrix(518.559 361.814 -662.791 735.566 1343.85 825.766)" gradientUnits="userSpaceOnUse"><stop stop-color="#fff" stop-opacity=".2"/><stop offset="1" stop-color="#fff" stop-opacity=".6"/></radialGradient><filter id="c" width="2181" height="1566" x="-266" y="77" color-interpolation-filters="sRGB" filterUnits="userSpaceOnUse"><feFlood flood-opacity="0" result="BackgroundImageFix"/><feBlend in="SourceGraphic" in2="BackgroundImageFix" result="shape"/><feGaussianBlur result="effect1_foregroundBlur_606_265" stdDeviation="182"/></filter><filter id="h" width="1504.19" height="779.812" x="276.959" y="318.215" color-interpolation-filters="sRGB" filterUnits="userSpaceOnUse"><feFlood flood-opacity="0" result="BackgroundImageFix"/><feBlend in="SourceGraphic" in2="BackgroundImageFix" result="shape"/><feGaussianBlur result="effect1_foregroundBlur_606_265" stdDeviation="57"/></filter><filter id="j" width="2705.94" height="2904.27" x="-1329.42" y="-137.519" color-interpolation-filters="sRGB" filterUnits="userSpaceOnUse"><feFlood flood-opacity="0" result="BackgroundImageFix"/><feBlend in="SourceGraphic" in2="BackgroundImageFix" result="shape"/><feGaussianBlur result="effect1_foregroundBlur_606_265" stdDeviation="182"/></filter><linearGradient id="b" x1="688" x2="688" y1="0" y2="673" gradientUnits="userSpaceOnUse"><stop stop-color="#9396ff"/><stop offset="1" stop-color="#6e3aff"/></linearGradient><linearGradient id="i" x1="767.901" x2="900.125" y1="286.379" y2="1012.31" gradientUnits="userSpaceOnUse"><stop stop-color="#fff" stop-opacity="0"/><stop offset="1" stop-color="#fff"/></linearGradient><clipPath id="a"><rect width="1376" height="673" fill="#fff" rx="32"/></clipPath></defs></svg>