<svg xmlns="http://www.w3.org/2000/svg" width="810" height="1044" fill="none" viewBox="0 0 810 1044"><g clip-path="url(#a)"><rect width="810" height="1044" fill="url(#b)" rx="32"/><g clip-path="url(#c)"><path fill="url(#d)" fill-opacity=".5" d="M1240.2-14.823c45.81-30.534 107.39 18.353 88.05 69.896L624.206 1930.94c-13.146 35.03-57.618 45.63-88.517 21.1l-963.183-764.6c-30.899-24.52-30.664-70.24.468-90.99z"/><path fill="url(#e)" fill-opacity=".5" d="M1588.25 226.91c52.15-17.637 98.98 45.523 66.96 90.303L489.649 1946.94c-21.765 30.44-67.465 29.17-90.963-2.52l-732.471-987.839c-23.497-31.689-11.438-75.788 24.004-87.774z"/><path fill="url(#f)" fill-opacity=".5" d="M1621.97 572.434c43.54-6.65 71.67 49.626 40.21 80.46L517.462 1775.07c-21.375 20.95-57.207 13.6-71.32-14.64L6.222 880.268c-14.113-28.235 1.514-61.307 31.103-65.826z"/><path fill="url(#g)" fill-opacity=".5" d="M1480.6 869.747c35.26.813 49.62 49.114 20.53 69.058L442.423 1664.65c-19.77 13.55-47.004 2.77-54.209-21.47L163.632 887.748c-7.204-24.234 9.716-48.145 33.678-47.592z"/><g filter="url(#h)" opacity=".8"><ellipse cx="541.5" cy="680" fill="#f9faff" rx="419" ry="726.5" transform="rotate(90 541.5 680)"/></g><g filter="url(#i)" opacity=".2"><path fill="url(#j)" d="M1666.39 634.089c17.04 146.751-254.66 298.861-606.87 339.748-352.198 40.883-651.524-44.933-668.56-191.684 244.376-58.571 254.669-298.861 606.871-339.747 352.199-40.887 651.529 44.933 668.559 191.683"/></g><g filter="url(#k)"><ellipse cx="-259.448" cy="1314.62" fill="#ffb7d3" rx="711.5" ry="1286.5" transform="rotate(-39.845 -259.448 1314.62)"/></g></g></g><defs><radialGradient id="d" cx="0" cy="0" r="1" gradientTransform="matrix(905.92 390.954 -783.656 1332.14 617.517 860.365)" gradientUnits="userSpaceOnUse"><stop stop-color="#fff" stop-opacity=".2"/><stop offset="1" stop-color="#fff" stop-opacity=".6"/></radialGradient><radialGradient id="e" cx="0" cy="0" r="1" gradientTransform="matrix(773.865 612.102 -1101.74 1083.92 760.273 911.115)" gradientUnits="userSpaceOnUse"><stop stop-color="#fff" stop-opacity=".2"/><stop offset="1" stop-color="#fff" stop-opacity=".6"/></radialGradient><radialGradient id="f" cx="0" cy="0" r="1" gradientTransform="matrix(524.723 589.858 -1018.62 700.968 874.561 996.489)" gradientUnits="userSpaceOnUse"><stop stop-color="#fff" stop-opacity=".2"/><stop offset="1" stop-color="#fff" stop-opacity=".6"/></radialGradient><radialGradient id="g" cx="0" cy="0" r="1" gradientTransform="matrix(331.809 538.253 -900.72 411.161 832.251 1100.23)" gradientUnits="userSpaceOnUse"><stop stop-color="#fff" stop-opacity=".2"/><stop offset="1" stop-color="#fff" stop-opacity=".6"/></radialGradient><filter id="h" width="2181" height="1566" x="-549" y="-103" color-interpolation-filters="sRGB" filterUnits="userSpaceOnUse"><feFlood flood-opacity="0" result="BackgroundImageFix"/><feBlend in="SourceGraphic" in2="BackgroundImageFix" result="shape"/><feGaussianBlur result="effect1_foregroundBlur_757_1799" stdDeviation="182"/></filter><filter id="i" width="1504.19" height="779.812" x="276.96" y="318.215" color-interpolation-filters="sRGB" filterUnits="userSpaceOnUse"><feFlood flood-opacity="0" result="BackgroundImageFix"/><feBlend in="SourceGraphic" in2="BackgroundImageFix" result="shape"/><feGaussianBlur result="effect1_foregroundBlur_757_1799" stdDeviation="57"/></filter><filter id="k" width="2705.94" height="2904.27" x="-1612.42" y="-137.519" color-interpolation-filters="sRGB" filterUnits="userSpaceOnUse"><feFlood flood-opacity="0" result="BackgroundImageFix"/><feBlend in="SourceGraphic" in2="BackgroundImageFix" result="shape"/><feGaussianBlur result="effect1_foregroundBlur_757_1799" stdDeviation="182"/></filter><linearGradient id="b" x1="405" x2="405" y1="0" y2="1044" gradientUnits="userSpaceOnUse"><stop stop-color="#9396ff"/><stop offset="1" stop-color="#6e3aff"/></linearGradient><linearGradient id="j" x1="767.901" x2="900.125" y1="286.379" y2="1012.31" gradientUnits="userSpaceOnUse"><stop stop-color="#fff" stop-opacity="0"/><stop offset="1" stop-color="#fff"/></linearGradient><clipPath id="a"><rect width="810" height="1044" fill="#fff" rx="32"/></clipPath><clipPath id="c"><path fill="#fff" d="M0 0h810v1044H0z"/></clipPath></defs></svg>