<svg xmlns="http://www.w3.org/2000/svg" width="20" height="20" fill="none" viewBox="0 0 20 20"><g clip-path="url(#a)"><path stroke="#fff" stroke-linecap="round" stroke-linejoin="round" stroke-width="2" d="M8.333 18.335v-12.5A.833.833 0 0 0 7.499 5H3.333a1.667 1.667 0 0 0-1.667 1.667v10a1.667 1.667 0 0 0 1.667 1.667h10a1.667 1.667 0 0 0 1.666-1.667v-4.167a.833.833 0 0 0-.833-.833h-12.5m10.833-10h5c.46 0 .834.373.834.833v5c0 .46-.373.834-.834.834h-5a.833.833 0 0 1-.833-.834v-5c0-.46.373-.833.833-.833"/></g><defs><clipPath id="a"><path fill="#fff" d="M0 0h20v20H0z"/></clipPath></defs></svg>