<svg width="20" height="20" viewBox="0 0 20 20" fill="none" xmlns="http://www.w3.org/2000/svg">
<g clip-path="url(#clip0_433_1894)">
<path d="M18.1669 8.33357C18.5474 10.2013 18.2762 12.1431 17.3984 13.8351C16.5206 15.527 15.0893 16.8669 13.3431 17.6313C11.597 18.3957 9.64154 18.5384 7.80293 18.0355C5.96433 17.5327 4.35368 16.4147 3.23958 14.8681C2.12548 13.3214 1.57529 11.4396 1.68074 9.53639C1.78619 7.63318 2.54092 5.82364 3.81906 4.40954C5.0972 2.99545 6.8215 2.06226 8.7044 1.76561C10.5873 1.46897 12.515 1.82679 14.166 2.7794" stroke="white" stroke-width="2.5" stroke-linecap="round" stroke-linejoin="round"/>
<path d="M7.5 9.16536L10 11.6654L18.3333 3.33203" stroke="white" stroke-width="2.5" stroke-linecap="round" stroke-linejoin="round"/>
</g>
<defs>
<clipPath id="clip0_433_1894">
<rect width="20" height="20" fill="white"/>
</clipPath>
</defs>
</svg>
