<svg width="397" height="668" viewBox="0 0 397 668" fill="none" xmlns="http://www.w3.org/2000/svg">
<g filter="url(#filter0_dddd_2001_1240)">
<path d="M47 465.688C47 461.269 50.5817 457.688 55 457.688H182C186.418 457.688 190 461.269 190 465.688V499.688C190 504.106 186.418 507.688 182 507.688H55C50.5817 507.688 47 504.106 47 499.688V465.688Z" fill="white"/>
<path d="M182 456.688C186.971 456.688 191 460.717 191 465.688V499.688C191 504.658 186.971 508.688 182 508.688H55C50.0294 508.687 46 504.658 46 499.688V465.688C46 460.717 50.0294 456.688 55 456.688H182Z" stroke="#F8F8F8" stroke-width="2"/>
<rect x="61" y="471.688" width="22" height="22" rx="11" fill="#F5F5F7"/>
<g clip-path="url(#clip0_2001_1240)">
<path d="M74.5001 480.195L69.9168 484.779L67.8335 482.695" stroke="black" stroke-linecap="round" stroke-linejoin="round"/>
<path d="M76.167 481.852L73.042 484.977L72.417 484.352" stroke="black" stroke-linecap="round" stroke-linejoin="round"/>
</g>
<path d="M98.4453 480.604V479.188H92.9814V480.604H92.083V478.372H99.3438V480.604H98.4453ZM93.5918 472.078H98.4307V479.188H97.4541V472.894H94.4219L94.2754 475.975C94.2396 476.753 94.1712 477.324 94.0703 477.688C93.9694 478.05 93.8457 478.328 93.6992 478.523H92.6689C92.874 478.315 93.0319 478.027 93.1426 477.659C93.2533 477.291 93.3298 476.73 93.3721 475.975L93.5918 472.078ZM99.9053 476.634V476.478C99.9053 475.687 100.136 475.04 100.599 474.539C101.064 474.035 101.684 473.782 102.459 473.782C103.237 473.782 103.857 474.035 104.319 474.539C104.785 475.04 105.018 475.687 105.018 476.478V476.634C105.018 477.428 104.785 478.077 104.319 478.582C103.857 479.083 103.237 479.334 102.459 479.334C101.684 479.334 101.064 479.083 100.599 478.582C100.136 478.077 99.9053 477.428 99.9053 476.634ZM100.877 476.478V476.634C100.877 477.171 101.009 477.625 101.272 477.996C101.539 478.364 101.935 478.548 102.459 478.548C102.986 478.548 103.383 478.364 103.65 477.996C103.917 477.625 104.051 477.171 104.051 476.634V476.478C104.051 475.947 103.917 475.498 103.65 475.13C103.383 474.759 102.986 474.573 102.459 474.573C101.935 474.573 101.539 474.759 101.272 475.13C101.009 475.498 100.877 475.947 100.877 476.478ZM109.578 479.188L107.518 476.751L108.113 476.136L110.765 479.188H109.578ZM106.634 476.146H107.586L109.432 473.929H110.521L108.011 476.897H106.634V476.146ZM107.107 473.929V479.188H106.16V473.929H107.107ZM111.028 481.219V480.408C111.116 480.434 111.214 480.455 111.321 480.472C111.432 480.488 111.538 480.496 111.639 480.496C111.88 480.496 112.081 480.426 112.244 480.286C112.41 480.146 112.601 479.769 112.815 479.153V479.148L110.809 473.929H111.746L113.016 477.356C113.064 477.49 113.108 477.618 113.147 477.742C113.19 477.866 113.222 477.988 113.245 478.108H113.274C113.3 477.988 113.333 477.866 113.372 477.742C113.414 477.618 113.46 477.49 113.509 477.356L114.7 473.929H115.599L113.406 479.871C113.237 480.327 113.011 480.682 112.728 480.936C112.448 481.189 112.103 481.316 111.692 481.316C111.556 481.316 111.434 481.308 111.326 481.292C111.222 481.276 111.123 481.251 111.028 481.219ZM116.316 479.188V473.929H117.649L119.109 477.557C119.188 477.749 119.238 477.882 119.261 477.957C119.287 478.032 119.308 478.108 119.324 478.187H119.373C119.393 478.108 119.412 478.032 119.432 477.957C119.454 477.882 119.505 477.752 119.583 477.566L121.053 473.929H122.361V479.188H121.443V475.608C121.443 475.413 121.445 475.273 121.448 475.188C121.455 475.104 121.461 475.027 121.468 474.959H121.424C121.408 475.027 121.386 475.104 121.36 475.188C121.338 475.273 121.289 475.408 121.214 475.594L119.759 479.188H118.89L117.435 475.579C117.366 475.41 117.319 475.281 117.293 475.193C117.267 475.105 117.246 475.027 117.229 474.959H117.181C117.187 475.027 117.192 475.104 117.195 475.188C117.202 475.27 117.205 475.398 117.205 475.574V479.188H116.316ZM123.499 476.634V476.478C123.499 475.687 123.724 475.04 124.173 474.539C124.622 474.035 125.215 473.782 125.95 473.782C126.692 473.782 127.262 474.018 127.659 474.49C128.056 474.959 128.255 475.592 128.255 476.39V476.79H124.085V476.028H127.298V475.999C127.298 475.592 127.192 475.252 126.98 474.979C126.772 474.702 126.434 474.563 125.965 474.563C125.47 474.563 125.096 474.749 124.842 475.12C124.588 475.488 124.461 475.94 124.461 476.478V476.634C124.461 477.171 124.594 477.625 124.861 477.996C125.128 478.367 125.542 478.553 126.102 478.553C126.447 478.553 126.743 478.481 126.99 478.338C127.241 478.195 127.443 478.024 127.596 477.825L128.206 478.333C128.037 478.58 127.771 478.81 127.41 479.021C127.052 479.23 126.616 479.334 126.102 479.334C125.262 479.334 124.617 479.083 124.168 478.582C123.722 478.077 123.499 477.428 123.499 476.634ZM129.285 473.929H130.232V476.141H132.688V473.929H133.636V479.188H132.688V476.897H130.232V479.188H129.285V473.929ZM134.544 474.686V473.929H138.841V474.686H137.166V479.188H136.219V474.686H134.544ZM142.186 473.929H143.133V476.141H145.589V473.929H146.536V479.188H145.589V476.897H143.133V479.188H142.186V473.929ZM147.703 477.64C147.703 477.106 147.921 476.691 148.357 476.395C148.797 476.098 149.352 475.95 150.022 475.95H151.268V475.55C151.268 475.254 151.181 475.013 151.009 474.827C150.84 474.638 150.545 474.544 150.125 474.544C149.708 474.544 149.41 474.625 149.231 474.788C149.052 474.951 148.963 475.14 148.963 475.354V475.379H148.016V475.354C148.016 474.935 148.208 474.568 148.592 474.256C148.976 473.94 149.497 473.782 150.154 473.782C150.805 473.782 151.312 473.93 151.673 474.227C152.034 474.523 152.215 474.964 152.215 475.55V478.016C152.215 478.227 152.231 478.427 152.264 478.616C152.299 478.802 152.347 478.966 152.405 479.109V479.188H151.487C151.442 479.103 151.399 478.994 151.36 478.86C151.321 478.727 151.297 478.593 151.287 478.46C151.157 478.675 150.949 478.867 150.662 479.036C150.376 479.202 150.006 479.285 149.554 479.285C149.039 479.285 148.602 479.145 148.24 478.865C147.882 478.582 147.703 478.174 147.703 477.64ZM148.65 477.591C148.65 477.884 148.74 478.113 148.919 478.279C149.101 478.445 149.384 478.528 149.769 478.528C150.149 478.528 150.494 478.405 150.804 478.157C151.113 477.907 151.268 477.643 151.268 477.366V476.629H150.125C149.64 476.629 149.272 476.717 149.021 476.893C148.774 477.065 148.65 477.298 148.65 477.591ZM153.65 479.188V473.929H154.593V477.205C154.593 477.306 154.591 477.42 154.588 477.547C154.588 477.671 154.586 477.783 154.583 477.884H154.627C154.673 477.799 154.723 477.708 154.778 477.61C154.837 477.513 154.899 477.412 154.964 477.308L157.107 473.929H158.069V479.188H157.127V475.916C157.127 475.815 157.127 475.701 157.127 475.574C157.13 475.447 157.135 475.335 157.142 475.237H157.088C157.046 475.319 156.995 475.41 156.937 475.511C156.881 475.612 156.821 475.714 156.756 475.818L154.612 479.188H153.65ZM155.862 472.298C156.113 472.298 156.316 472.233 156.473 472.103C156.629 471.969 156.762 471.744 156.873 471.429L157.591 471.854C157.422 472.267 157.187 472.568 156.888 472.757C156.588 472.946 156.246 473.04 155.862 473.04C155.478 473.04 155.136 472.947 154.837 472.762C154.541 472.573 154.306 472.27 154.134 471.854L154.856 471.424C154.97 471.749 155.104 471.977 155.257 472.107C155.413 472.234 155.615 472.298 155.862 472.298ZM163.582 480.506V479.188H159.72V480.506H158.846V478.431H164.461V480.506H163.582ZM160.711 474.686L160.643 476.292C160.613 476.989 160.574 477.482 160.525 477.771C160.48 478.061 160.411 478.302 160.32 478.494H159.349C159.476 478.322 159.57 478.087 159.632 477.791C159.697 477.495 159.746 476.961 159.778 476.189L159.876 473.929H163.704V479.188H162.752V474.686H160.711ZM164.974 476.634V476.478C164.974 475.687 165.198 475.04 165.647 474.539C166.097 474.035 166.689 473.782 167.425 473.782C168.167 473.782 168.737 474.018 169.134 474.49C169.531 474.959 169.729 475.592 169.729 476.39V476.79H165.56V476.028H168.772V475.999C168.772 475.592 168.667 475.252 168.455 474.979C168.247 474.702 167.908 474.563 167.439 474.563C166.945 474.563 166.57 474.749 166.316 475.12C166.062 475.488 165.936 475.94 165.936 476.478V476.634C165.936 477.171 166.069 477.625 166.336 477.996C166.603 478.367 167.016 478.553 167.576 478.553C167.921 478.553 168.217 478.481 168.465 478.338C168.715 478.195 168.917 478.024 169.07 477.825L169.681 478.333C169.511 478.58 169.246 478.81 168.885 479.021C168.527 479.23 168.09 479.334 167.576 479.334C166.736 479.334 166.092 479.083 165.643 478.582C165.197 478.077 164.974 477.428 164.974 476.634ZM170.76 473.929H171.707V476.141H174.163V473.929H175.11V479.188H174.163V476.897H171.707V479.188H170.76V473.929Z" fill="black"/>
<path d="M92.2414 489.092C92.2414 488.503 92.4405 488.026 92.8387 487.66C93.237 487.292 93.7402 487.108 94.3485 487.108C94.9567 487.108 95.4804 487.315 95.9196 487.73C96.3587 488.144 96.5783 488.815 96.5783 489.743V489.865C96.5783 490.896 96.2782 491.727 95.6782 492.357C95.0781 492.987 94.2244 493.302 93.117 493.302H93.031V492.598H93.117C93.9325 492.598 94.5749 492.383 95.044 491.952C95.5159 491.518 95.7518 490.836 95.7518 489.906V489.702C95.7518 489.012 95.6182 488.523 95.3509 488.237C95.0863 487.948 94.7522 487.803 94.3485 487.803C93.9421 487.803 93.627 487.916 93.4034 488.143C93.1824 488.369 93.0719 488.686 93.0719 489.092C93.0719 489.498 93.1824 489.813 93.4034 490.037C93.627 490.261 93.9421 490.373 94.3485 490.373C94.7221 490.373 95.0536 490.261 95.3427 490.037C95.6318 489.813 95.7764 489.498 95.7764 489.092H96.0832C96.0832 489.684 95.9087 490.161 95.5595 490.524C95.2131 490.887 94.7508 491.068 94.1725 491.068C93.597 491.068 93.1306 490.887 92.7733 490.524C92.4187 490.161 92.2414 489.684 92.2414 489.092ZM97.1511 491.612V491.571H97.9653V491.612C97.9653 491.931 98.0798 492.178 98.3089 492.353C98.5408 492.527 98.849 492.615 99.2336 492.615C99.6155 492.615 99.921 492.527 100.15 492.353C100.379 492.178 100.494 491.904 100.494 491.53C100.494 491.165 100.364 490.889 100.105 490.704C99.8487 490.519 99.505 490.426 99.074 490.426H98.5544V489.743H99.029C99.4273 489.743 99.7355 489.655 99.9537 489.481C100.172 489.303 100.281 489.058 100.281 488.744C100.281 488.428 100.186 488.192 99.9946 488.036C99.8064 487.881 99.5527 487.803 99.2336 487.803C98.9145 487.803 98.6513 487.881 98.444 488.036C98.2394 488.192 98.1371 488.416 98.1371 488.707V488.748H97.3229V488.707C97.3229 488.266 97.5016 487.889 97.8589 487.578C98.2189 487.265 98.6772 487.108 99.2336 487.108C99.7873 487.108 100.24 487.256 100.592 487.554C100.944 487.848 101.12 488.229 101.12 488.695C101.12 488.968 101.041 489.228 100.882 489.477C100.727 489.722 100.484 489.914 100.154 490.053V490.07C100.511 490.157 100.798 490.33 101.013 490.589C101.232 490.846 101.341 491.162 101.341 491.539C101.341 492.09 101.142 492.523 100.743 492.84C100.345 493.153 99.8419 493.31 99.2336 493.31C98.6226 493.31 98.1221 493.152 97.7321 492.836C97.3447 492.517 97.1511 492.109 97.1511 491.612ZM104.831 493.188V491.559V491.346V488.433H104.782L102.875 491.105H105.019H105.346H106.492V491.801H101.922V491.211L104.843 487.23H105.624V493.188H104.831ZM106.872 489.092C106.872 488.503 107.071 488.026 107.47 487.66C107.868 487.292 108.371 487.108 108.979 487.108C109.588 487.108 110.111 487.315 110.55 487.73C110.99 488.144 111.209 488.815 111.209 489.743V489.865C111.209 490.896 110.909 491.727 110.309 492.357C109.709 492.987 108.855 493.302 107.748 493.302H107.662V492.598H107.748C108.563 492.598 109.206 492.383 109.675 491.952C110.147 491.518 110.383 490.836 110.383 489.906V489.702C110.383 489.012 110.249 488.523 109.982 488.237C109.717 487.948 109.383 487.803 108.979 487.803C108.573 487.803 108.258 487.916 108.034 488.143C107.813 488.369 107.703 488.686 107.703 489.092C107.703 489.498 107.813 489.813 108.034 490.037C108.258 490.261 108.573 490.373 108.979 490.373C109.353 490.373 109.684 490.261 109.974 490.037C110.263 489.813 110.407 489.498 110.407 489.092H110.714C110.714 489.684 110.54 490.161 110.19 490.524C109.844 490.887 109.382 491.068 108.803 491.068C108.228 491.068 107.761 490.887 107.404 490.524C107.05 490.161 106.872 489.684 106.872 489.092ZM112.203 493.188V487.23H116.111V487.926H113.038V489.91H115.693V490.606H113.038V493.188H112.203ZM115.333 491.469V491.428H116.168V491.469C116.168 491.835 116.272 492.113 116.479 492.304C116.689 492.495 116.974 492.59 117.334 492.59C117.697 492.59 117.982 492.485 118.189 492.275C118.396 492.062 118.5 491.76 118.5 491.367V487.23H119.335V491.367C119.335 491.967 119.149 492.442 118.778 492.791C118.41 493.137 117.929 493.31 117.334 493.31C116.739 493.31 116.257 493.147 115.886 492.819C115.517 492.492 115.333 492.042 115.333 491.469ZM120.685 493.188V487.23H121.519V493.188H120.685ZM122.931 493.188V487.23H124.813C125.62 487.23 126.293 487.485 126.83 487.996C127.367 488.503 127.636 489.185 127.636 490.041V490.377C127.636 491.233 127.367 491.916 126.83 492.426C126.293 492.934 125.62 493.188 124.813 493.188H122.931ZM123.766 492.492H124.813C125.416 492.492 125.896 492.305 126.253 491.931C126.611 491.558 126.789 491.04 126.789 490.377V490.041C126.789 489.378 126.611 488.86 126.253 488.486C125.896 488.113 125.416 487.926 124.813 487.926H123.766V492.492ZM128.581 490.377V490.041C128.581 489.119 128.829 488.401 129.326 487.885C129.825 487.367 130.465 487.108 131.245 487.108C132.022 487.108 132.659 487.367 133.155 487.885C133.655 488.401 133.904 489.119 133.904 490.041V490.377C133.904 491.299 133.655 492.019 133.155 492.537C132.659 493.052 132.022 493.31 131.245 493.31C130.465 493.31 129.825 493.052 129.326 492.537C128.829 492.019 128.581 491.299 128.581 490.377ZM129.424 490.377C129.424 491.067 129.59 491.608 129.923 492.001C130.256 492.391 130.697 492.586 131.245 492.586C131.79 492.586 132.229 492.391 132.562 492.001C132.895 491.608 133.061 491.067 133.061 490.377V490.041C133.061 489.351 132.895 488.811 132.562 488.421C132.229 488.028 131.79 487.832 131.245 487.832C130.697 487.832 130.256 488.028 129.923 488.421C129.59 488.811 129.424 489.351 129.424 490.041V490.377ZM134.6 492.733C134.6 492.581 134.647 492.451 134.743 492.345C134.841 492.238 134.98 492.185 135.16 492.185C135.34 492.185 135.478 492.238 135.573 492.345C135.672 492.451 135.721 492.581 135.721 492.733C135.721 492.883 135.672 493.012 135.573 493.118C135.478 493.224 135.34 493.278 135.16 493.278C134.98 493.278 134.841 493.224 134.743 493.118C134.647 493.012 134.6 492.883 134.6 492.733ZM136.981 494.89V488.74H137.713L137.75 489.321H137.771C137.891 489.138 138.073 488.983 138.319 488.855C138.567 488.724 138.855 488.658 139.182 488.658C139.769 488.658 140.238 488.87 140.59 489.292C140.941 489.715 141.117 490.25 141.117 490.896V491.027C141.117 491.676 140.941 492.212 140.59 492.635C140.238 493.058 139.769 493.269 139.182 493.269C138.855 493.269 138.575 493.215 138.343 493.106C138.112 492.994 137.926 492.845 137.787 492.66V494.89H136.981ZM137.787 491.837C137.88 492.034 138.03 492.21 138.237 492.365C138.447 492.518 138.702 492.594 139.002 492.594C139.447 492.594 139.773 492.444 139.98 492.144C140.187 491.841 140.291 491.469 140.291 491.027V490.896C140.291 490.457 140.187 490.088 139.98 489.788C139.773 489.485 139.447 489.333 139.002 489.333C138.702 489.333 138.447 489.411 138.237 489.567C138.03 489.719 137.88 489.894 137.787 490.09V491.837ZM141.813 491.027V490.896C141.813 490.25 141.989 489.715 142.341 489.292C142.693 488.87 143.162 488.658 143.748 488.658C144.075 488.658 144.355 488.714 144.587 488.826C144.819 488.935 145.004 489.082 145.143 489.268V486.903H145.949V493.188H145.217L145.18 492.607H145.16C145.04 492.789 144.855 492.946 144.607 493.077C144.362 493.205 144.075 493.269 143.748 493.269C143.162 493.269 142.693 493.058 142.341 492.635C141.989 492.212 141.813 491.676 141.813 491.027ZM142.639 491.027C142.639 491.469 142.743 491.841 142.95 492.144C143.158 492.444 143.484 492.594 143.928 492.594C144.228 492.594 144.482 492.518 144.689 492.365C144.899 492.21 145.051 492.034 145.143 491.837V490.09C145.051 489.894 144.899 489.719 144.689 489.567C144.482 489.411 144.228 489.333 143.928 489.333C143.484 489.333 143.158 489.485 142.95 489.788C142.743 490.088 142.639 490.457 142.639 490.896V491.027ZM147.414 493.188V488.347C147.414 487.848 147.553 487.469 147.831 487.21C148.11 486.951 148.489 486.821 148.969 486.821C149.059 486.821 149.151 486.827 149.247 486.838C149.342 486.849 149.434 486.865 149.521 486.887L149.476 487.545C149.413 487.535 149.345 487.525 149.271 487.517C149.201 487.509 149.128 487.505 149.055 487.505C148.79 487.505 148.585 487.575 148.441 487.717C148.296 487.856 148.224 488.066 148.224 488.347V489.014V489.104V493.188H147.414ZM146.657 489.374V488.74H147.717H147.921H149.226V489.374H146.657Z" fill="#BCBCCF"/>
</g>
<path d="M118 457.687C118 364.912 283 435.798 283 339.688" stroke="#E4E4E4"/>
<g filter="url(#filter1_dddd_2001_1240)">
<path d="M128.343 13.3443C131.467 10.2202 136.533 10.2202 139.657 13.3444L202.343 76.0306C205.467 79.1548 205.467 84.2202 202.343 87.3444L139.657 150.031C136.533 153.155 131.467 153.155 128.343 150.031L65.6568 87.3444C62.5327 84.2202 62.5327 79.1548 65.6569 76.0306L128.343 13.3443Z" fill="white"/>
<path d="M127.636 12.6377C131.15 9.12298 136.85 9.12298 140.364 12.6377L203.05 75.3232C206.565 78.838 206.565 84.537 203.05 88.0518L140.364 150.737C136.85 154.252 131.15 154.252 127.636 150.737L64.9502 88.0518C61.4355 84.537 61.4355 78.838 64.9502 75.3232L127.636 12.6377Z" stroke="#F8F8F8" stroke-width="2"/>
</g>
<g filter="url(#filter2_dddd_2001_1240)">
<rect x="216" y="227.688" width="134" height="103.43" rx="8" fill="white"/>
<rect x="215" y="226.688" width="136" height="105.43" rx="9" stroke="#F8F8F8" stroke-width="2"/>
<rect x="230" y="241.688" width="17.4297" height="17.4297" rx="8.71484" fill="#F5F5F7"/>
<g clip-path="url(#clip1_2001_1240)">
<path d="M241.79 253.48L240.307 251.997M241.107 250.062C241.107 251.572 239.883 252.796 238.373 252.796C236.863 252.796 235.639 251.572 235.639 250.062C235.639 248.552 236.863 247.328 238.373 247.328C239.883 247.328 241.107 248.552 241.107 250.062Z" stroke="black" stroke-width="0.717693" stroke-linecap="round" stroke-linejoin="round"/>
</g>
<path d="M292.657 252.392C292.723 252.412 292.797 252.429 292.878 252.442C292.96 252.454 293.057 252.461 293.169 252.461C293.426 252.461 293.617 252.39 293.741 252.247C293.869 252.104 293.991 251.907 294.108 251.655L292.057 247.58H292.951L294.284 250.341C294.327 250.43 294.367 250.521 294.402 250.612C294.438 250.702 294.473 250.788 294.509 250.872H294.547C294.583 250.788 294.619 250.702 294.654 250.612C294.69 250.521 294.728 250.43 294.769 250.341L296.041 247.58H296.885L294.834 251.792C294.617 252.238 294.391 252.587 294.154 252.839C293.92 253.091 293.585 253.217 293.15 253.217C293.02 253.217 292.92 253.209 292.852 253.194C292.785 253.181 292.721 253.164 292.657 253.141V252.392ZM297.266 251.12V250.998C297.266 250.372 297.445 249.86 297.801 249.463C298.16 249.066 298.653 248.867 299.279 248.867C299.86 248.867 300.3 249.016 300.601 249.314C300.903 249.612 301.055 249.944 301.055 250.311V250.33H300.318V250.311C300.318 250.097 300.235 249.908 300.07 249.745C299.907 249.58 299.643 249.497 299.279 249.497C298.854 249.497 298.541 249.642 298.34 249.933C298.141 250.223 298.042 250.578 298.042 250.998V251.12C298.042 251.543 298.141 251.899 298.34 252.19C298.541 252.48 298.854 252.625 299.279 252.625C299.643 252.625 299.907 252.544 300.07 252.381C300.235 252.215 300.318 252.025 300.318 251.812V251.792H301.055V251.812C301.055 252.178 300.903 252.51 300.601 252.808C300.3 253.106 299.86 253.255 299.279 253.255C298.653 253.255 298.16 253.057 297.801 252.659C297.445 252.262 297.266 251.749 297.266 251.12ZM301.754 248.982H305.214V253.141H304.458V249.593H302.51V253.141H301.754V248.982ZM306.104 251.12V250.998C306.104 250.372 306.283 249.86 306.642 249.463C307.004 249.066 307.48 248.867 308.071 248.867C308.666 248.867 309.123 249.053 309.442 249.425C309.762 249.796 309.923 250.298 309.923 250.929V251.25H306.574V250.643H309.155V250.654C309.155 250.321 309.072 250.045 308.907 249.826C308.744 249.604 308.465 249.493 308.071 249.493C307.681 249.493 307.383 249.639 307.177 249.929C306.973 250.219 306.871 250.575 306.871 250.998V251.12C306.871 251.543 306.978 251.901 307.192 252.193C307.409 252.484 307.742 252.629 308.193 252.629C308.47 252.629 308.708 252.573 308.907 252.461C309.108 252.349 309.27 252.215 309.392 252.06L309.881 252.472C309.746 252.666 309.533 252.845 309.243 253.011C308.955 253.174 308.605 253.255 308.193 253.255C307.518 253.255 307.001 253.057 306.642 252.659C306.283 252.262 306.104 251.749 306.104 251.12ZM310.698 253.141V248.982H311.454V252.53H313.284V248.982H314.04V252.53H315.869V248.982H316.625V253.141H310.698ZM317.756 248.982H318.512V250.731H320.498V248.982H321.254V253.141H320.498V251.342H318.512V253.141H317.756V248.982ZM322.144 251.12V250.998C322.144 250.372 322.33 249.86 322.701 249.463C323.076 249.066 323.573 248.867 324.195 248.867C324.818 248.867 325.316 249.066 325.688 249.463C326.062 249.86 326.249 250.372 326.249 250.998V251.12C326.249 251.749 326.062 252.262 325.688 252.659C325.316 253.057 324.818 253.255 324.195 253.255C323.573 253.255 323.076 253.057 322.701 252.659C322.33 252.262 322.144 251.749 322.144 251.12ZM322.919 250.998V251.12C322.919 251.54 323.026 251.896 323.24 252.186C323.454 252.476 323.772 252.621 324.195 252.621C324.62 252.621 324.939 252.476 325.153 252.186C325.367 251.896 325.474 251.54 325.474 251.12V250.998C325.474 250.581 325.367 250.227 325.153 249.936C324.939 249.646 324.62 249.501 324.195 249.501C323.772 249.501 323.454 249.646 323.24 249.936C323.026 250.227 322.919 250.581 322.919 250.998Z" fill="#48B925"/>
<circle cx="332.741" cy="250.4" r="3.25893" fill="#48B925"/>
<g clip-path="url(#clip2_2001_1240)">
<path d="M334.045 249.422L332.252 251.214L331.438 250.4" stroke="white" stroke-width="0.651786" stroke-linecap="round" stroke-linejoin="round"/>
</g>
<path d="M230.83 290.117V283.008H236.421V290.117H235.439V283.823H231.812V290.117H230.83ZM237.671 287.563V287.407C237.671 286.616 237.902 285.97 238.364 285.469C238.83 284.964 239.45 284.712 240.225 284.712C241.003 284.712 241.623 284.964 242.085 285.469C242.55 285.97 242.783 286.616 242.783 287.407V287.563C242.783 288.358 242.55 289.007 242.085 289.512C241.623 290.013 241.003 290.264 240.225 290.264C239.45 290.264 238.83 290.013 238.364 289.512C237.902 289.007 237.671 288.358 237.671 287.563ZM238.643 287.407V287.563C238.643 288.101 238.774 288.555 239.038 288.926C239.305 289.294 239.701 289.478 240.225 289.478C240.752 289.478 241.149 289.294 241.416 288.926C241.683 288.555 241.816 288.101 241.816 287.563V287.407C241.816 286.877 241.683 286.427 241.416 286.06C241.149 285.688 240.752 285.503 240.225 285.503C239.701 285.503 239.305 285.688 239.038 286.06C238.774 286.427 238.643 286.877 238.643 287.407ZM243.926 290.117V284.858H244.868V288.135C244.868 288.236 244.867 288.35 244.863 288.477C244.863 288.6 244.862 288.713 244.858 288.813H244.902C244.948 288.729 244.998 288.638 245.054 288.54C245.112 288.442 245.174 288.341 245.239 288.237L247.383 284.858H248.345V290.117H247.402V286.846C247.402 286.745 247.402 286.631 247.402 286.504C247.406 286.377 247.41 286.265 247.417 286.167H247.363C247.321 286.248 247.271 286.34 247.212 286.44C247.157 286.541 247.096 286.644 247.031 286.748L244.888 290.117H243.926ZM249.487 287.563V287.407C249.487 286.616 249.71 285.97 250.156 285.469C250.602 284.964 251.214 284.712 251.992 284.712C252.715 284.712 253.263 284.901 253.638 285.278C254.015 285.656 254.204 286.077 254.204 286.543V286.567H253.281V286.543C253.281 286.266 253.179 286.024 252.974 285.815C252.772 285.604 252.445 285.498 251.992 285.498C251.465 285.498 251.077 285.684 250.83 286.055C250.583 286.423 250.459 286.873 250.459 287.407V287.563C250.459 288.101 250.583 288.555 250.83 288.926C251.077 289.294 251.465 289.478 251.992 289.478C252.445 289.478 252.772 289.373 252.974 289.165C253.179 288.953 253.281 288.711 253.281 288.438V288.413H254.204V288.438C254.204 288.9 254.015 289.32 253.638 289.697C253.263 290.075 252.715 290.264 251.992 290.264C251.214 290.264 250.602 290.013 250.156 289.512C249.71 289.007 249.487 288.358 249.487 287.563ZM258.574 290.117L256.514 287.681L257.109 287.065L259.761 290.117H258.574ZM255.63 287.075H256.582L258.428 284.858H259.517L257.007 287.827H255.63V287.075ZM256.104 284.858V290.117H255.156V284.858H256.104ZM266.982 291.436V290.117H263.12V291.436H262.246V289.36H267.861V291.436H266.982ZM264.111 285.615L264.043 287.222C264.014 287.918 263.975 288.411 263.926 288.701C263.88 288.991 263.812 289.232 263.721 289.424H262.749C262.876 289.251 262.97 289.017 263.032 288.721C263.097 288.424 263.146 287.891 263.179 287.119L263.276 284.858H267.104V290.117H266.152V285.615H264.111ZM268.374 287.563V287.407C268.374 286.616 268.605 285.97 269.067 285.469C269.533 284.964 270.153 284.712 270.928 284.712C271.706 284.712 272.326 284.964 272.788 285.469C273.254 285.97 273.486 286.616 273.486 287.407V287.563C273.486 288.358 273.254 289.007 272.788 289.512C272.326 290.013 271.706 290.264 270.928 290.264C270.153 290.264 269.533 290.013 269.067 289.512C268.605 289.007 268.374 288.358 268.374 287.563ZM269.346 287.407V287.563C269.346 288.101 269.478 288.555 269.741 288.926C270.008 289.294 270.404 289.478 270.928 289.478C271.455 289.478 271.852 289.294 272.119 288.926C272.386 288.555 272.52 288.101 272.52 287.563V287.407C272.52 286.877 272.386 286.427 272.119 286.06C271.852 285.688 271.455 285.503 270.928 285.503C270.404 285.503 270.008 285.688 269.741 286.06C269.478 286.427 269.346 286.877 269.346 287.407ZM278.047 290.117L275.986 287.681L276.582 287.065L279.233 290.117H278.047ZM275.103 287.075H276.055L277.9 284.858H278.989L276.479 287.827H275.103V287.075ZM275.576 284.858V290.117H274.629V284.858H275.576ZM279.497 292.148V291.338C279.585 291.364 279.683 291.385 279.79 291.401C279.901 291.418 280.007 291.426 280.107 291.426C280.348 291.426 280.55 291.356 280.713 291.216C280.879 291.076 281.069 290.698 281.284 290.083V290.078L279.277 284.858H280.215L281.484 288.286C281.533 288.42 281.577 288.548 281.616 288.672C281.659 288.796 281.691 288.918 281.714 289.038H281.743C281.769 288.918 281.802 288.796 281.841 288.672C281.883 288.548 281.929 288.42 281.978 288.286L283.169 284.858H284.067L281.875 290.801C281.706 291.257 281.479 291.611 281.196 291.865C280.916 292.119 280.571 292.246 280.161 292.246C280.024 292.246 279.902 292.238 279.795 292.222C279.691 292.205 279.591 292.181 279.497 292.148ZM284.785 290.117V284.858H286.118L287.578 288.486C287.656 288.678 287.707 288.812 287.729 288.887C287.756 288.962 287.777 289.038 287.793 289.116H287.842C287.861 289.038 287.881 288.962 287.9 288.887C287.923 288.812 287.974 288.682 288.052 288.496L289.521 284.858H290.83V290.117H289.912V286.538C289.912 286.343 289.914 286.203 289.917 286.118C289.924 286.034 289.93 285.957 289.937 285.889H289.893C289.876 285.957 289.855 286.034 289.829 286.118C289.806 286.203 289.757 286.338 289.683 286.523L288.228 290.117H287.358L285.903 286.509C285.835 286.34 285.788 286.211 285.762 286.123C285.736 286.035 285.715 285.957 285.698 285.889H285.649C285.656 285.957 285.661 286.034 285.664 286.118C285.671 286.2 285.674 286.328 285.674 286.504V290.117H284.785ZM291.968 287.563V287.407C291.968 286.616 292.192 285.97 292.642 285.469C293.091 284.964 293.683 284.712 294.419 284.712C295.161 284.712 295.731 284.948 296.128 285.42C296.525 285.889 296.724 286.522 296.724 287.319V287.72H292.554V286.958H295.767V286.929C295.767 286.522 295.661 286.182 295.449 285.908C295.241 285.632 294.902 285.493 294.434 285.493C293.939 285.493 293.564 285.679 293.311 286.05C293.057 286.418 292.93 286.87 292.93 287.407V287.563C292.93 288.101 293.063 288.555 293.33 288.926C293.597 289.297 294.01 289.482 294.57 289.482C294.915 289.482 295.212 289.411 295.459 289.268C295.71 289.124 295.911 288.953 296.064 288.755L296.675 289.263C296.506 289.51 296.24 289.74 295.879 289.951C295.521 290.16 295.085 290.264 294.57 290.264C293.73 290.264 293.086 290.013 292.637 289.512C292.191 289.007 291.968 288.358 291.968 287.563ZM297.754 284.858H298.701V287.07H301.157V284.858H302.104V290.117H301.157V287.827H298.701V290.117H297.754V284.858ZM303.013 285.615V284.858H307.31V285.615H305.635V290.117H304.688V285.615H303.013ZM307.93 288.569C307.93 288.035 308.148 287.62 308.584 287.324C309.023 287.028 309.578 286.88 310.249 286.88H311.494V286.479C311.494 286.183 311.408 285.942 311.235 285.757C311.066 285.568 310.771 285.474 310.352 285.474C309.935 285.474 309.637 285.555 309.458 285.718C309.279 285.881 309.189 286.069 309.189 286.284V286.309H308.242V286.284C308.242 285.864 308.434 285.498 308.818 285.186C309.202 284.87 309.723 284.712 310.381 284.712C311.032 284.712 311.538 284.86 311.899 285.156C312.261 285.452 312.441 285.894 312.441 286.479V288.945C312.441 289.157 312.458 289.357 312.49 289.546C312.526 289.731 312.573 289.896 312.632 290.039V290.117H311.714C311.668 290.033 311.626 289.924 311.587 289.79C311.548 289.657 311.523 289.523 311.514 289.39C311.383 289.604 311.175 289.797 310.889 289.966C310.602 290.132 310.233 290.215 309.78 290.215C309.266 290.215 308.828 290.075 308.467 289.795C308.109 289.512 307.93 289.103 307.93 288.569ZM308.877 288.521C308.877 288.813 308.966 289.043 309.146 289.209C309.328 289.375 309.611 289.458 309.995 289.458C310.376 289.458 310.721 289.334 311.03 289.087C311.34 288.836 311.494 288.573 311.494 288.296V287.559H310.352C309.867 287.559 309.499 287.646 309.248 287.822C309.001 287.995 308.877 288.228 308.877 288.521Z" fill="black"/>
<path d="M230.696 305.117V299.16H235.458V305.117H234.619V299.86H231.53V305.117H230.696ZM236.522 303.812C236.522 303.359 236.709 303.007 237.082 302.756C237.459 302.503 237.935 302.376 238.51 302.376H239.578V302.028C239.578 301.783 239.504 301.584 239.357 301.431C239.21 301.275 238.956 301.198 238.596 301.198C238.236 301.198 237.978 301.267 237.823 301.406C237.67 301.543 237.594 301.701 237.594 301.881V301.901H236.788V301.881C236.788 301.526 236.953 301.215 237.283 300.948C237.613 300.681 238.057 300.547 238.616 300.547C239.176 300.547 239.609 300.671 239.918 300.919C240.229 301.168 240.384 301.537 240.384 302.028V304.135C240.384 304.313 240.398 304.48 240.425 304.638C240.455 304.794 240.496 304.932 240.548 305.052V305.117H239.766C239.725 305.046 239.688 304.954 239.656 304.839C239.623 304.724 239.603 304.611 239.594 304.499C239.483 304.682 239.302 304.844 239.054 304.986C238.809 305.128 238.491 305.199 238.101 305.199C237.665 305.199 237.292 305.08 236.984 304.843C236.676 304.603 236.522 304.259 236.522 303.812ZM237.328 303.771C237.328 304.017 237.405 304.209 237.561 304.348C237.719 304.484 237.962 304.553 238.289 304.553C238.616 304.553 238.912 304.449 239.177 304.242C239.444 304.032 239.578 303.811 239.578 303.579V302.961H238.596C238.179 302.961 237.862 303.035 237.647 303.182C237.434 303.327 237.328 303.523 237.328 303.771ZM241.595 306.819V300.67H242.327L242.364 301.251H242.385C242.505 301.068 242.687 300.913 242.933 300.784C243.181 300.653 243.469 300.588 243.796 300.588C244.383 300.588 244.852 300.799 245.204 301.222C245.556 301.645 245.731 302.18 245.731 302.826V302.957C245.731 303.606 245.556 304.142 245.204 304.565C244.852 304.988 244.383 305.199 243.796 305.199C243.469 305.199 243.189 305.144 242.957 305.035C242.726 304.924 242.54 304.775 242.401 304.589V306.819H241.595ZM242.401 303.767C242.494 303.963 242.644 304.139 242.851 304.295C243.061 304.448 243.316 304.524 243.616 304.524C244.061 304.524 244.387 304.374 244.594 304.074C244.801 303.771 244.905 303.399 244.905 302.957V302.826C244.905 302.387 244.801 302.017 244.594 301.717C244.387 301.414 244.061 301.263 243.616 301.263C243.316 301.263 243.061 301.341 242.851 301.496C242.644 301.649 242.494 301.824 242.401 302.02V303.767ZM246.447 303.812C246.447 303.359 246.634 303.007 247.008 302.756C247.384 302.503 247.86 302.376 248.436 302.376H249.504V302.028C249.504 301.783 249.43 301.584 249.283 301.431C249.136 301.275 248.882 301.198 248.522 301.198C248.162 301.198 247.904 301.267 247.749 301.406C247.596 301.543 247.519 301.701 247.519 301.881V301.901H246.713V301.881C246.713 301.526 246.878 301.215 247.208 300.948C247.538 300.681 247.983 300.547 248.542 300.547C249.101 300.547 249.535 300.671 249.843 300.919C250.154 301.168 250.31 301.537 250.31 302.028V304.135C250.31 304.313 250.323 304.48 250.351 304.638C250.381 304.794 250.422 304.932 250.473 305.052V305.117H249.692C249.651 305.046 249.614 304.954 249.581 304.839C249.549 304.724 249.528 304.611 249.52 304.499C249.408 304.682 249.228 304.844 248.98 304.986C248.735 305.128 248.417 305.199 248.027 305.199C247.59 305.199 247.218 305.08 246.91 304.843C246.602 304.603 246.447 304.259 246.447 303.812ZM247.253 303.771C247.253 304.017 247.331 304.209 247.487 304.348C247.645 304.484 247.888 304.553 248.215 304.553C248.542 304.553 248.838 304.449 249.103 304.242C249.37 304.032 249.504 303.811 249.504 303.579V302.961H248.522C248.104 302.961 247.788 303.035 247.573 303.182C247.36 303.327 247.253 303.523 247.253 303.771ZM251.521 305.117V300.67H252.67L253.886 303.738C253.951 303.902 253.993 304.015 254.012 304.078C254.034 304.141 254.052 304.205 254.066 304.27H254.107C254.123 304.205 254.139 304.141 254.156 304.078C254.175 304.015 254.218 303.905 254.287 303.747L255.506 300.67H256.631V305.117H255.845V302.094C255.845 301.927 255.847 301.809 255.849 301.738C255.855 301.664 255.86 301.599 255.866 301.541H255.829C255.815 301.599 255.798 301.664 255.776 301.738C255.754 301.809 255.712 301.923 255.649 302.081L254.442 305.117H253.685L252.478 302.069C252.421 301.925 252.38 301.815 252.355 301.742C252.334 301.665 252.316 301.599 252.302 301.541H252.261C252.267 301.599 252.272 301.663 252.278 301.734C252.283 301.805 252.285 301.915 252.282 302.065V305.117H251.521ZM257.588 302.957V302.826C257.588 302.158 257.781 301.611 258.165 301.185C258.55 300.76 259.057 300.547 259.687 300.547C260.32 300.547 260.807 300.746 261.148 301.144C261.489 301.543 261.659 302.079 261.659 302.752V303.096H258.087V302.445H260.841V302.454C260.841 302.099 260.752 301.805 260.575 301.57C260.401 301.335 260.105 301.218 259.687 301.218C259.27 301.218 258.952 301.374 258.734 301.684C258.516 301.993 258.407 302.373 258.407 302.826V302.957C258.407 303.41 258.521 303.793 258.75 304.107C258.979 304.418 259.334 304.573 259.814 304.573C260.111 304.573 260.366 304.513 260.579 304.393C260.792 304.273 260.964 304.13 261.095 303.963L261.614 304.401C261.472 304.608 261.247 304.801 260.939 304.978C260.631 305.153 260.256 305.24 259.814 305.24C259.097 305.24 258.546 305.029 258.161 304.606C257.779 304.18 257.588 303.631 257.588 302.957ZM262.048 301.32V300.67H265.71V301.32H264.282V305.117H263.476V301.32H262.048ZM266.479 306.819V300.67H267.211L267.248 301.251H267.269C267.389 301.068 267.571 300.913 267.817 300.784C268.065 300.653 268.353 300.588 268.68 300.588C269.267 300.588 269.736 300.799 270.088 301.222C270.439 301.645 270.615 302.18 270.615 302.826V302.957C270.615 303.606 270.439 304.142 270.088 304.565C269.736 304.988 269.267 305.199 268.68 305.199C268.353 305.199 268.073 305.144 267.841 305.035C267.61 304.924 267.424 304.775 267.285 304.589V306.819H266.479ZM267.285 303.767C267.378 303.963 267.528 304.139 267.735 304.295C267.945 304.448 268.2 304.524 268.5 304.524C268.945 304.524 269.271 304.374 269.478 304.074C269.685 303.771 269.789 303.399 269.789 302.957V302.826C269.789 302.387 269.685 302.017 269.478 301.717C269.271 301.414 268.945 301.263 268.5 301.263C268.2 301.263 267.945 301.341 267.735 301.496C267.528 301.649 267.378 301.824 267.285 302.02V303.767ZM271.683 304.688C271.683 304.546 271.73 304.424 271.822 304.323C271.915 304.22 272.047 304.168 272.219 304.168C272.388 304.168 272.519 304.22 272.612 304.323C272.705 304.424 272.751 304.546 272.751 304.688C272.751 304.829 272.705 304.952 272.612 305.056C272.519 305.157 272.388 305.207 272.219 305.207C272.047 305.207 271.915 305.157 271.822 305.056C271.73 304.952 271.683 304.829 271.683 304.688ZM271.683 301.12C271.683 300.975 271.73 300.853 271.822 300.752C271.915 300.648 272.047 300.596 272.219 300.596C272.388 300.596 272.519 300.648 272.612 300.752C272.705 300.853 272.751 300.975 272.751 301.12C272.751 301.262 272.705 301.383 272.612 301.484C272.519 301.585 272.388 301.635 272.219 301.635C272.047 301.635 271.915 301.585 271.822 301.484C271.73 301.383 271.683 301.262 271.683 301.12ZM281.003 306.304V305.117H276.372V306.304H275.599V304.418H281.777V306.304H281.003ZM276.879 299.16H281.003V305.117H280.169V299.86H277.579L277.473 302.429C277.445 303.108 277.387 303.595 277.297 303.89C277.207 304.184 277.088 304.411 276.941 304.569H276.069C276.266 304.4 276.413 304.168 276.511 303.873C276.609 303.576 276.676 303.092 276.712 302.421L276.879 299.16ZM282.251 302.957V302.826C282.251 302.158 282.45 301.611 282.849 301.185C283.247 300.76 283.776 300.547 284.436 300.547C285.102 300.547 285.634 300.76 286.032 301.185C286.43 301.611 286.629 302.158 286.629 302.826V302.957C286.629 303.631 286.43 304.18 286.032 304.606C285.634 305.029 285.102 305.24 284.436 305.24C283.776 305.24 283.247 305.029 282.849 304.606C282.45 304.18 282.251 303.631 282.251 302.957ZM283.078 302.826V302.957C283.078 303.407 283.191 303.787 283.417 304.098C283.647 304.409 283.986 304.565 284.436 304.565C284.889 304.565 285.23 304.409 285.459 304.098C285.688 303.787 285.803 303.407 285.803 302.957V302.826C285.803 302.379 285.688 302 285.459 301.689C285.23 301.378 284.889 301.222 284.436 301.222C283.986 301.222 283.647 301.378 283.417 301.689C283.191 302 283.078 302.379 283.078 302.826ZM287.582 300.67H290.397V301.32H288.388V305.117H287.582V300.67ZM290.909 302.957V302.826C290.909 302.158 291.108 301.611 291.506 301.185C291.904 300.76 292.433 300.547 293.094 300.547C293.759 300.547 294.291 300.76 294.689 301.185C295.087 301.611 295.287 302.158 295.287 302.826V302.957C295.287 303.631 295.087 304.18 294.689 304.606C294.291 305.029 293.759 305.24 293.094 305.24C292.433 305.24 291.904 305.029 291.506 304.606C291.108 304.18 290.909 303.631 290.909 302.957ZM291.735 302.826V302.957C291.735 303.407 291.848 303.787 292.075 304.098C292.304 304.409 292.644 304.565 293.094 304.565C293.546 304.565 293.887 304.409 294.116 304.098C294.346 303.787 294.46 303.407 294.46 302.957V302.826C294.46 302.379 294.346 302 294.116 301.689C293.887 301.378 293.546 301.222 293.094 301.222C292.644 301.222 292.304 301.378 292.075 301.689C291.848 302 291.735 302.379 291.735 302.826ZM296.24 305.117V300.67H298.159C298.652 300.67 299.044 300.769 299.333 300.969C299.622 301.165 299.767 301.462 299.767 301.86C299.767 302.111 299.693 302.32 299.546 302.486C299.398 302.653 299.199 302.763 298.948 302.818V302.83C299.257 302.876 299.495 302.987 299.664 303.161C299.836 303.333 299.922 303.554 299.922 303.824C299.922 304.231 299.771 304.548 299.468 304.778C299.168 305.004 298.774 305.117 298.286 305.117H296.24ZM297.046 302.54H298.159C298.44 302.54 298.642 302.484 298.764 302.372C298.89 302.26 298.952 302.103 298.952 301.901C298.952 301.705 298.89 301.562 298.764 301.472C298.642 301.382 298.44 301.331 298.159 301.32H297.046V302.54ZM297.046 304.467H298.286C298.569 304.467 298.778 304.411 298.912 304.299C299.045 304.187 299.112 304.029 299.112 303.824C299.112 303.625 299.047 303.468 298.916 303.354C298.785 303.239 298.575 303.182 298.286 303.182H297.046V304.467ZM300.605 302.957V302.826C300.605 302.158 300.804 301.611 301.203 301.185C301.601 300.76 302.13 300.547 302.79 300.547C303.456 300.547 303.988 300.76 304.386 301.185C304.784 301.611 304.983 302.158 304.983 302.826V302.957C304.983 303.631 304.784 304.18 304.386 304.606C303.988 305.029 303.456 305.24 302.79 305.24C302.13 305.24 301.601 305.029 301.203 304.606C300.804 304.18 300.605 303.631 300.605 302.957ZM301.432 302.826V302.957C301.432 303.407 301.545 303.787 301.771 304.098C302.001 304.409 302.34 304.565 302.79 304.565C303.243 304.565 303.584 304.409 303.813 304.098C304.042 303.787 304.157 303.407 304.157 302.957V302.826C304.157 302.379 304.042 302 303.813 301.689C303.584 301.378 303.243 301.222 302.79 301.222C302.34 301.222 302.001 301.378 301.771 301.689C301.545 302 301.432 302.379 301.432 302.826ZM305.936 306.819V300.67H306.669L306.706 301.251H306.726C306.846 301.068 307.029 300.913 307.274 300.784C307.523 300.653 307.81 300.588 308.138 300.588C308.724 300.588 309.193 300.799 309.545 301.222C309.897 301.645 310.073 302.18 310.073 302.826V302.957C310.073 303.606 309.897 304.142 309.545 304.565C309.193 304.988 308.724 305.199 308.138 305.199C307.81 305.199 307.531 305.144 307.299 305.035C307.067 304.924 306.882 304.775 306.742 304.589V306.819H305.936ZM306.742 303.767C306.835 303.963 306.985 304.139 307.193 304.295C307.403 304.448 307.658 304.524 307.958 304.524C308.402 304.524 308.728 304.374 308.935 304.074C309.143 303.771 309.246 303.399 309.246 302.957V302.826C309.246 302.387 309.143 302.017 308.935 301.717C308.728 301.414 308.402 301.263 307.958 301.263C307.658 301.263 307.403 301.341 307.193 301.496C306.985 301.649 306.835 301.824 306.742 302.02V303.767ZM230.348 314.957V314.826C230.348 314.158 230.539 313.611 230.921 313.185C231.302 312.76 231.826 312.547 232.492 312.547C233.111 312.547 233.581 312.707 233.903 313.026C234.225 313.345 234.386 313.701 234.386 314.094V314.114H233.6V314.094C233.6 313.865 233.513 313.663 233.339 313.488C233.164 313.311 232.882 313.222 232.492 313.222C232.039 313.222 231.706 313.378 231.493 313.689C231.281 313.997 231.174 314.376 231.174 314.826V314.957C231.174 315.41 231.281 315.792 231.493 316.103C231.706 316.413 232.039 316.569 232.492 316.569C232.882 316.569 233.164 316.482 233.339 316.307C233.513 316.13 233.6 315.927 233.6 315.697V315.677H234.386V315.697C234.386 316.088 234.225 316.442 233.903 316.761C233.581 317.08 233.111 317.24 232.492 317.24C231.826 317.24 231.302 317.029 230.921 316.606C230.539 316.18 230.348 315.631 230.348 314.957ZM242.151 317.117H241.313V312.862C241.313 312.78 241.315 312.689 241.321 312.588C241.326 312.484 241.332 312.392 241.337 312.31H241.296C241.264 312.378 241.223 312.453 241.174 312.535C241.125 312.617 241.073 312.698 241.018 312.78L238.142 317.117H237.283V311.16H238.117V315.333C238.117 315.415 238.115 315.527 238.109 315.669C238.104 315.808 238.098 315.918 238.093 316H238.134C238.166 315.932 238.21 315.847 238.265 315.747C238.319 315.646 238.374 315.554 238.428 315.472L241.292 311.16H242.151V317.117ZM243.543 317.117V311.16H248.305V317.117H247.466V311.86H244.377V317.117H243.543ZM251.288 313.022C251.288 312.433 251.487 311.955 251.885 311.59C252.283 311.221 252.786 311.037 253.395 311.037C254.003 311.037 254.527 311.245 254.966 311.659C255.405 312.074 255.624 312.745 255.624 313.672V313.795C255.624 314.826 255.324 315.657 254.724 316.287C254.124 316.917 253.271 317.232 252.163 317.232H252.077V316.528H252.163C252.979 316.528 253.621 316.313 254.09 315.882C254.562 315.448 254.798 314.766 254.798 313.836V313.631C254.798 312.941 254.664 312.453 254.397 312.167C254.132 311.877 253.798 311.733 253.395 311.733C252.988 311.733 252.673 311.846 252.45 312.072C252.229 312.299 252.118 312.615 252.118 313.022C252.118 313.428 252.229 313.743 252.45 313.967C252.673 314.19 252.988 314.302 253.395 314.302C253.768 314.302 254.1 314.19 254.389 313.967C254.678 313.743 254.823 313.428 254.823 313.022H255.129C255.129 313.614 254.955 314.091 254.606 314.454C254.259 314.816 253.797 314.998 253.219 314.998C252.643 314.998 252.177 314.816 251.819 314.454C251.465 314.091 251.288 313.614 251.288 313.022ZM259 317.117V315.489V315.276V312.363H258.951L257.044 315.035H259.188H259.515H260.661V315.73H256.091V315.141L259.012 311.16H259.794V317.117H259ZM261.156 315.603V315.562H261.962V315.603C261.962 315.895 262.074 316.126 262.298 316.295C262.524 316.461 262.827 316.544 263.206 316.544C263.58 316.544 263.886 316.428 264.126 316.197C264.369 315.962 264.491 315.635 264.491 315.215C264.491 314.795 264.369 314.474 264.126 314.253C263.886 314.032 263.58 313.922 263.206 313.922C262.949 313.922 262.722 313.967 262.523 314.057C262.326 314.147 262.145 314.274 261.978 314.437L261.373 314.147L261.676 311.16H264.994V311.917H262.359L262.183 313.554C262.325 313.466 262.495 313.39 262.694 313.324C262.894 313.256 263.112 313.222 263.349 313.222C263.897 313.222 264.362 313.398 264.744 313.75C265.129 314.099 265.321 314.587 265.321 315.215C265.321 315.842 265.121 316.337 264.72 316.7C264.319 317.06 263.814 317.24 263.206 317.24C262.592 317.24 262.097 317.084 261.721 316.774C261.344 316.463 261.156 316.073 261.156 315.603ZM266.049 315.538C266.049 315.183 266.152 314.882 266.356 314.634C266.561 314.383 266.823 314.197 267.142 314.077V314.061C266.896 313.944 266.685 313.765 266.508 313.525C266.333 313.282 266.246 312.997 266.246 312.67C266.246 312.179 266.427 311.785 266.79 311.487C267.153 311.187 267.595 311.037 268.116 311.037C268.634 311.037 269.074 311.187 269.437 311.487C269.8 311.785 269.981 312.179 269.981 312.67C269.981 312.997 269.893 313.282 269.715 313.525C269.541 313.765 269.331 313.944 269.085 314.061V314.077C269.404 314.197 269.666 314.383 269.871 314.634C270.078 314.882 270.182 315.183 270.182 315.538C270.182 316.078 269.981 316.497 269.58 316.794C269.179 317.091 268.691 317.24 268.116 317.24C267.537 317.24 267.048 317.091 266.647 316.794C266.248 316.497 266.049 316.078 266.049 315.538ZM266.872 315.489C266.872 315.802 266.985 316.058 267.211 316.254C267.44 316.45 267.742 316.548 268.116 316.548C268.486 316.548 268.787 316.45 269.016 316.254C269.245 316.058 269.359 315.802 269.359 315.489C269.359 315.17 269.245 314.912 269.016 314.716C268.787 314.516 268.486 314.417 268.116 314.417C267.742 314.417 267.44 314.516 267.211 314.716C266.985 314.912 266.872 315.17 266.872 315.489ZM267.052 312.719C267.052 313.011 267.15 313.251 267.346 313.439C267.543 313.627 267.799 313.721 268.116 313.721C268.429 313.721 268.684 313.627 268.881 313.439C269.08 313.251 269.179 313.011 269.179 312.719C269.179 312.433 269.08 312.197 268.881 312.011C268.684 311.823 268.429 311.729 268.116 311.729C267.799 311.729 267.543 311.823 267.346 312.011C267.15 312.197 267.052 312.433 267.052 312.719ZM270.955 317.117V316.479L273.23 314.225C273.513 313.944 273.734 313.69 273.893 313.464C274.054 313.234 274.134 312.989 274.134 312.727C274.134 312.46 274.034 312.229 273.835 312.036C273.639 311.839 273.368 311.741 273.021 311.741C272.664 311.741 272.368 311.847 272.133 312.06C271.899 312.27 271.781 312.558 271.781 312.923V312.964H270.951V312.923C270.951 312.378 271.147 311.928 271.54 311.573C271.936 311.216 272.429 311.037 273.021 311.037C273.602 311.037 274.07 311.202 274.424 311.532C274.782 311.86 274.96 312.244 274.96 312.686C274.96 313.074 274.847 313.424 274.621 313.738C274.394 314.051 274.116 314.369 273.786 314.691L272.019 316.409H275.124V317.117H270.955ZM275.672 313.022C275.672 312.433 275.871 311.955 276.27 311.59C276.668 311.221 277.171 311.037 277.779 311.037C278.388 311.037 278.911 311.245 279.351 311.659C279.79 312.074 280.009 312.745 280.009 313.672V313.795C280.009 314.826 279.709 315.657 279.109 316.287C278.509 316.917 277.655 317.232 276.548 317.232H276.462V316.528H276.548C277.363 316.528 278.006 316.313 278.475 315.882C278.947 315.448 279.183 314.766 279.183 313.836V313.631C279.183 312.941 279.049 312.453 278.782 312.167C278.517 311.877 278.183 311.733 277.779 311.733C277.373 311.733 277.058 311.846 276.834 312.072C276.613 312.299 276.503 312.615 276.503 313.022C276.503 313.428 276.613 313.743 276.834 313.967C277.058 314.19 277.373 314.302 277.779 314.302C278.153 314.302 278.485 314.19 278.774 313.967C279.063 313.743 279.207 313.428 279.207 313.022H279.514C279.514 313.614 279.34 314.091 278.99 314.454C278.644 314.816 278.182 314.998 277.604 314.998C277.028 314.998 276.562 314.816 276.204 314.454C275.85 314.091 275.672 313.614 275.672 313.022ZM283.385 317.117V315.489V315.276V312.363H283.336L281.429 315.035H283.573H283.9H285.046V315.73H280.476V315.141L283.397 311.16H284.178V317.117H283.385ZM285.541 315.603V315.562H286.347V315.603C286.347 315.895 286.459 316.126 286.682 316.295C286.909 316.461 287.211 316.544 287.591 316.544C287.964 316.544 288.271 316.428 288.511 316.197C288.754 315.962 288.875 315.635 288.875 315.215C288.875 314.795 288.754 314.474 288.511 314.253C288.271 314.032 287.964 313.922 287.591 313.922C287.334 313.922 287.106 313.967 286.907 314.057C286.711 314.147 286.53 314.274 286.363 314.437L285.758 314.147L286.06 311.16H289.379V311.917H286.744L286.568 313.554C286.71 313.466 286.88 313.39 287.079 313.324C287.278 313.256 287.497 313.222 287.734 313.222C288.282 313.222 288.747 313.398 289.129 313.75C289.514 314.099 289.706 314.587 289.706 315.215C289.706 315.842 289.505 316.337 289.104 316.7C288.703 317.06 288.199 317.24 287.591 317.24C286.977 317.24 286.482 317.084 286.105 316.774C285.729 316.463 285.541 316.073 285.541 315.603ZM291.293 317.117L293.666 311.876H290.352V311.16H294.546V311.659L292.157 317.117H291.293ZM297.201 317.117V312.064L295.614 312.703V311.897L297.86 311.078H298.04V317.117H297.201Z" fill="#BCBCCF"/>
<circle cx="6" cy="6" r="5.25" transform="matrix(-1 0 0 1 289 219.688)" fill="white" stroke="#E4E4E4" stroke-width="1.5"/>
<circle cx="6" cy="6" r="5.25" transform="matrix(-1 0 0 1 289 327.688)" fill="white" stroke="#E4E4E4" stroke-width="1.5"/>
</g>
<path d="M134 159.688C134 204.797 283 169.427 283 220.688" stroke="#E4E4E4"/>
<path d="M111.266 69.0469V61.9375H116.856V69.0469H115.875V62.7529H112.247V69.0469H111.266ZM118.414 71.0781V63.7881H119.273L119.317 64.4766H119.342C119.482 64.2585 119.695 64.0729 119.981 63.9199C120.268 63.7669 120.602 63.6904 120.982 63.6904C121.669 63.6904 122.218 63.9411 122.628 64.4424C123.041 64.9404 123.248 65.5719 123.248 66.3369V66.4932C123.248 67.2614 123.041 67.8962 122.628 68.3975C122.218 68.8955 121.669 69.1445 120.982 69.1445C120.602 69.1445 120.276 69.0794 120.006 68.9492C119.736 68.819 119.521 68.6449 119.361 68.4268V71.0781H118.414ZM119.361 67.46C119.469 67.6943 119.643 67.9027 119.884 68.085C120.128 68.2673 120.424 68.3584 120.772 68.3584C121.29 68.3584 121.669 68.1794 121.91 67.8213C122.154 67.4632 122.276 67.0205 122.276 66.4932V66.3369C122.276 65.8161 122.154 65.3766 121.91 65.0186C121.669 64.6605 121.29 64.4814 120.772 64.4814C120.424 64.4814 120.128 64.5726 119.884 64.7549C119.643 64.9372 119.469 65.1439 119.361 65.375V67.46ZM124.083 66.4932V66.3369C124.083 65.5459 124.314 64.8997 124.776 64.3984C125.242 63.8939 125.862 63.6416 126.637 63.6416C127.415 63.6416 128.035 63.8939 128.497 64.3984C128.963 64.8997 129.195 65.5459 129.195 66.3369V66.4932C129.195 67.2874 128.963 67.9368 128.497 68.4414C128.035 68.9427 127.415 69.1934 126.637 69.1934C125.862 69.1934 125.242 68.9427 124.776 68.4414C124.314 67.9368 124.083 67.2874 124.083 66.4932ZM125.055 66.3369V66.4932C125.055 67.0303 125.187 67.4844 125.45 67.8555C125.717 68.2233 126.113 68.4072 126.637 68.4072C127.164 68.4072 127.561 68.2233 127.828 67.8555C128.095 67.4844 128.229 67.0303 128.229 66.4932V66.3369C128.229 65.8063 128.095 65.3571 127.828 64.9893C127.561 64.6182 127.164 64.4326 126.637 64.4326C126.113 64.4326 125.717 64.6182 125.45 64.9893C125.187 65.3571 125.055 65.8063 125.055 66.3369ZM130.338 69.0469V63.7881H132.608C133.191 63.7881 133.652 63.9053 133.99 64.1396C134.332 64.374 134.503 64.7256 134.503 65.1943C134.503 65.4906 134.415 65.738 134.239 65.9365C134.063 66.1351 133.827 66.2653 133.531 66.3271V66.3418C133.896 66.3971 134.179 66.5273 134.381 66.7324C134.583 66.9375 134.684 67.1995 134.684 67.5186C134.684 68.0003 134.506 68.3763 134.151 68.6465C133.797 68.9134 133.331 69.0469 132.755 69.0469H130.338ZM131.285 66H132.608C132.94 66 133.18 65.9333 133.326 65.7998C133.473 65.6663 133.546 65.4808 133.546 65.2432C133.546 65.012 133.473 64.8411 133.326 64.7305C133.18 64.6165 132.94 64.5547 132.608 64.5449H131.285V66ZM131.285 68.29H132.755C133.09 68.29 133.338 68.2217 133.497 68.085C133.657 67.9482 133.736 67.7594 133.736 67.5186C133.736 67.2809 133.658 67.0938 133.502 66.957C133.346 66.8203 133.097 66.752 132.755 66.752H131.285V68.29ZM135.538 66.4932V66.3369C135.538 65.5459 135.763 64.8997 136.212 64.3984C136.661 63.8939 137.254 63.6416 137.989 63.6416C138.731 63.6416 139.301 63.8776 139.698 64.3496C140.095 64.8184 140.294 65.4515 140.294 66.249V66.6494H136.124V65.8877H139.337V65.8584C139.337 65.4515 139.231 65.1113 139.02 64.8379C138.811 64.5612 138.473 64.4229 138.004 64.4229C137.509 64.4229 137.135 64.6084 136.881 64.9795C136.627 65.3473 136.5 65.7998 136.5 66.3369V66.4932C136.5 67.0303 136.633 67.4844 136.9 67.8555C137.167 68.2266 137.581 68.4121 138.141 68.4121C138.486 68.4121 138.782 68.3405 139.029 68.1973C139.28 68.054 139.482 67.8831 139.635 67.6846L140.245 68.1924C140.076 68.4398 139.811 68.6693 139.449 68.8809C139.091 69.0892 138.655 69.1934 138.141 69.1934C137.301 69.1934 136.656 68.9427 136.207 68.4414C135.761 67.9368 135.538 67.2874 135.538 66.4932ZM141.324 71.0781V63.7881H142.184L142.228 64.4766H142.252C142.392 64.2585 142.605 64.0729 142.892 63.9199C143.178 63.7669 143.512 63.6904 143.893 63.6904C144.579 63.6904 145.128 63.9411 145.538 64.4424C145.951 64.9404 146.158 65.5719 146.158 66.3369V66.4932C146.158 67.2614 145.951 67.8962 145.538 68.3975C145.128 68.8955 144.579 69.1445 143.893 69.1445C143.512 69.1445 143.186 69.0794 142.916 68.9492C142.646 68.819 142.431 68.6449 142.271 68.4268V71.0781H141.324ZM142.271 67.46C142.379 67.6943 142.553 67.9027 142.794 68.085C143.038 68.2673 143.334 68.3584 143.683 68.3584C144.2 68.3584 144.579 68.1794 144.82 67.8213C145.064 67.4632 145.187 67.0205 145.187 66.4932V66.3369C145.187 65.8161 145.064 65.3766 144.82 65.0186C144.579 64.6605 144.2 64.4814 143.683 64.4814C143.334 64.4814 143.038 64.5726 142.794 64.7549C142.553 64.9372 142.379 65.1439 142.271 65.375V67.46ZM150.719 69.0469L148.658 66.6104L149.254 65.9951L151.905 69.0469H150.719ZM147.774 66.0049H148.727L150.572 63.7881H151.661L149.151 66.7568H147.774V66.0049ZM148.248 63.7881V69.0469H147.301V63.7881H148.248ZM152.34 67.499C152.34 66.9652 152.558 66.5501 152.994 66.2539C153.434 65.9577 153.989 65.8096 154.659 65.8096H155.904V65.4092C155.904 65.113 155.818 64.8721 155.646 64.6865C155.476 64.4977 155.182 64.4033 154.762 64.4033C154.345 64.4033 154.047 64.4847 153.868 64.6475C153.689 64.8102 153.6 64.999 153.6 65.2139V65.2383H152.652V65.2139C152.652 64.7939 152.844 64.4277 153.229 64.1152C153.613 63.7995 154.133 63.6416 154.791 63.6416C155.442 63.6416 155.948 63.7897 156.31 64.0859C156.671 64.3822 156.852 64.8232 156.852 65.4092V67.875C156.852 68.0866 156.868 68.2868 156.9 68.4756C156.936 68.6611 156.983 68.8255 157.042 68.9688V69.0469H156.124C156.078 68.9622 156.036 68.8532 155.997 68.7197C155.958 68.5863 155.934 68.4528 155.924 68.3193C155.794 68.5342 155.585 68.7262 155.299 68.8955C155.012 69.0615 154.643 69.1445 154.19 69.1445C153.676 69.1445 153.238 69.0046 152.877 68.7246C152.519 68.4414 152.34 68.0329 152.34 67.499ZM153.287 67.4502C153.287 67.7432 153.377 67.9727 153.556 68.1387C153.738 68.3047 154.021 68.3877 154.405 68.3877C154.786 68.3877 155.131 68.264 155.44 68.0166C155.75 67.766 155.904 67.5023 155.904 67.2256V66.4883H154.762C154.277 66.4883 153.909 66.5762 153.658 66.752C153.411 66.9245 153.287 67.1572 153.287 67.4502ZM114.923 81.0781V80.2676C115.011 80.2936 115.108 80.3148 115.216 80.3311C115.326 80.3473 115.432 80.3555 115.533 80.3555C115.774 80.3555 115.976 80.2855 116.139 80.1455C116.305 80.0055 116.495 79.6279 116.71 79.0127V79.0078L114.703 73.7881H115.641L116.91 77.2158C116.959 77.3493 117.003 77.4779 117.042 77.6016C117.084 77.7253 117.117 77.8473 117.14 77.9678H117.169C117.195 77.8473 117.228 77.7253 117.267 77.6016C117.309 77.4779 117.354 77.3493 117.403 77.2158L118.595 73.7881H119.493L117.301 79.7305C117.132 80.1862 116.905 80.541 116.622 80.7949C116.342 81.0488 115.997 81.1758 115.587 81.1758C115.45 81.1758 115.328 81.1676 115.221 81.1514C115.117 81.1351 115.017 81.1107 114.923 81.0781ZM119.903 76.4932V76.3369C119.903 75.5459 120.126 74.8997 120.572 74.3984C121.018 73.8939 121.63 73.6416 122.408 73.6416C123.131 73.6416 123.679 73.8304 124.054 74.208C124.431 74.5856 124.62 75.0072 124.62 75.4727V75.4971H123.697V75.4727C123.697 75.196 123.595 74.9535 123.39 74.7451C123.188 74.5335 122.861 74.4277 122.408 74.4277C121.881 74.4277 121.493 74.6133 121.246 74.9844C120.999 75.3522 120.875 75.8031 120.875 76.3369V76.4932C120.875 77.0303 120.999 77.4844 121.246 77.8555C121.493 78.2233 121.881 78.4072 122.408 78.4072C122.861 78.4072 123.188 78.3031 123.39 78.0947C123.595 77.8831 123.697 77.6406 123.697 77.3672V77.3428H124.62V77.3672C124.62 77.8294 124.431 78.2493 124.054 78.627C123.679 79.0046 123.131 79.1934 122.408 79.1934C121.63 79.1934 121.018 78.9427 120.572 78.4414C120.126 77.9368 119.903 77.2874 119.903 76.4932ZM126.896 74.5449L126.808 76.6543C126.769 77.5137 126.651 78.1436 126.456 78.5439C126.261 78.9411 125.917 79.1396 125.426 79.1396C125.312 79.1396 125.211 79.1315 125.123 79.1152C125.038 79.1022 124.964 79.0811 124.898 79.0518V78.2217C124.954 78.2445 125.011 78.2607 125.069 78.2705C125.131 78.2803 125.198 78.2852 125.27 78.2852C125.517 78.2852 125.683 78.1615 125.768 77.9141C125.855 77.6667 125.914 77.2044 125.943 76.5273L126.061 73.7881H129.84V79.0469H128.888V74.5449H126.896ZM130.987 76.4932V76.3369C130.987 75.5459 131.218 74.8997 131.681 74.3984C132.146 73.8939 132.766 73.6416 133.541 73.6416C134.319 73.6416 134.939 73.8939 135.401 74.3984C135.867 74.8997 136.1 75.5459 136.1 76.3369V76.4932C136.1 77.2874 135.867 77.9368 135.401 78.4414C134.939 78.9427 134.319 79.1934 133.541 79.1934C132.766 79.1934 132.146 78.9427 131.681 78.4414C131.218 77.9368 130.987 77.2874 130.987 76.4932ZM131.959 76.3369V76.4932C131.959 77.0303 132.091 77.4844 132.354 77.8555C132.621 78.2233 133.017 78.4072 133.541 78.4072C134.068 78.4072 134.465 78.2233 134.732 77.8555C134.999 77.4844 135.133 77.0303 135.133 76.4932V76.3369C135.133 75.8063 134.999 75.3571 134.732 74.9893C134.465 74.6182 134.068 74.4326 133.541 74.4326C133.017 74.4326 132.621 74.6182 132.354 74.9893C132.091 75.3571 131.959 75.8063 131.959 76.3369ZM137.242 79.0469V73.7881H139.513C140.095 73.7881 140.556 73.9053 140.895 74.1396C141.236 74.374 141.407 74.7256 141.407 75.1943C141.407 75.4906 141.319 75.738 141.144 75.9365C140.968 76.1351 140.732 76.2653 140.436 76.3271V76.3418C140.8 76.3971 141.083 76.5273 141.285 76.7324C141.487 76.9375 141.588 77.1995 141.588 77.5186C141.588 78.0003 141.41 78.3763 141.056 78.6465C140.701 78.9134 140.235 79.0469 139.659 79.0469H137.242ZM138.189 76H139.513C139.845 76 140.084 75.9333 140.23 75.7998C140.377 75.6663 140.45 75.4808 140.45 75.2432C140.45 75.012 140.377 74.8411 140.23 74.7305C140.084 74.6165 139.845 74.5547 139.513 74.5449H138.189V76ZM138.189 78.29H139.659C139.994 78.29 140.242 78.2217 140.401 78.085C140.561 77.9482 140.641 77.7594 140.641 77.5186C140.641 77.2809 140.562 77.0938 140.406 76.957C140.25 76.8203 140.001 76.752 139.659 76.752H138.189V78.29ZM142.75 79.0469V73.7881H143.692V77.0645C143.692 77.1654 143.691 77.2793 143.688 77.4062C143.688 77.5299 143.686 77.6423 143.683 77.7432H143.727C143.772 77.6585 143.823 77.5674 143.878 77.4697C143.937 77.3721 143.998 77.2712 144.063 77.167L146.207 73.7881H147.169V79.0469H146.227V75.7754C146.227 75.6745 146.227 75.5605 146.227 75.4336C146.23 75.3066 146.235 75.1943 146.241 75.0967H146.188C146.145 75.1781 146.095 75.2692 146.036 75.3701C145.981 75.471 145.921 75.5736 145.855 75.6777L143.712 79.0469H142.75ZM149.322 79.0469H148.263L149.791 76.8301L150.753 76.9131L149.322 79.0469ZM151.676 79.0469V77.1572H150.514L150.426 77.1084C149.801 77.1084 149.319 76.9619 148.98 76.6689C148.642 76.376 148.473 75.9821 148.473 75.4873C148.473 74.973 148.645 74.5612 148.99 74.252C149.339 73.9427 149.832 73.7881 150.47 73.7881H152.623V79.0469H151.676ZM150.47 76.4004H151.676V74.5449H150.47C150.089 74.5449 149.82 74.6344 149.664 74.8135C149.511 74.9925 149.435 75.2171 149.435 75.4873C149.435 75.7542 149.511 75.974 149.664 76.1465C149.82 76.3158 150.089 76.4004 150.47 76.4004Z" fill="black"/>
<path d="M94.3379 95.6875V89.7304H95.1726V92.263H98.3434V89.7304H99.1821V95.6875H98.3434V92.9667H95.1726V95.6875H94.3379ZM100.246 94.3823C100.246 93.9296 100.433 93.5777 100.806 93.3268C101.183 93.0731 101.659 92.9463 102.234 92.9463H103.302V92.5985C103.302 92.353 103.229 92.1539 103.081 92.0011C102.934 91.8457 102.68 91.7679 102.32 91.7679C101.96 91.7679 101.702 91.8375 101.547 91.9766C101.394 92.113 101.318 92.2712 101.318 92.4512V92.4717H100.512V92.4512C100.512 92.0966 100.677 91.7857 101.007 91.5184C101.337 91.2511 101.782 91.1174 102.341 91.1174C102.9 91.1174 103.334 91.2415 103.642 91.4897C103.953 91.7379 104.108 92.1075 104.108 92.5985V94.7056C104.108 94.8829 104.122 95.0506 104.149 95.2088C104.179 95.3643 104.22 95.502 104.272 95.622V95.6875H103.49C103.449 95.6166 103.413 95.5238 103.38 95.4093C103.347 95.2947 103.327 95.1815 103.319 95.0697C103.207 95.2524 103.027 95.4147 102.778 95.5566C102.533 95.6984 102.215 95.7693 101.825 95.7693C101.389 95.7693 101.016 95.6507 100.708 95.4134C100.4 95.1733 100.246 94.8297 100.246 94.3823ZM101.052 94.3414C101.052 94.5869 101.13 94.7792 101.285 94.9183C101.443 95.0547 101.686 95.1229 102.013 95.1229C102.341 95.1229 102.637 95.0192 102.901 94.8119C103.169 94.6019 103.302 94.381 103.302 94.1491V93.5313H102.32C101.903 93.5313 101.587 93.605 101.371 93.7523C101.158 93.8968 101.052 94.0932 101.052 94.3414ZM106.436 91.8907L106.363 93.6827C106.33 94.3946 106.229 94.9197 106.06 95.2579C105.891 95.5934 105.602 95.7611 105.192 95.7611C105.094 95.7611 105.01 95.7543 104.939 95.7407C104.871 95.7298 104.809 95.712 104.755 95.6875V94.9674C104.801 94.9865 104.849 95.0001 104.898 95.0083C104.95 95.0165 105.006 95.0206 105.066 95.0206C105.267 95.0206 105.405 94.9197 105.479 94.7178C105.552 94.516 105.602 94.1355 105.626 93.5763L105.724 91.2401H108.969V95.6875H108.159V91.8907H106.436ZM110.18 95.6875V91.2401H110.986V94.0223C110.986 94.1069 110.984 94.2023 110.982 94.3087C110.982 94.4151 110.98 94.5105 110.978 94.5951H111.01C111.049 94.5242 111.091 94.4478 111.137 94.366C111.186 94.2814 111.24 94.1955 111.297 94.1082L113.13 91.2401H113.952V95.6875H113.146V92.9094C113.146 92.8249 113.146 92.7308 113.146 92.6271C113.149 92.5208 113.152 92.4253 113.154 92.3407H113.122C113.083 92.4116 113.04 92.4894 112.991 92.5739C112.944 92.6558 112.892 92.7403 112.835 92.8276L111.002 95.6875H110.18ZM115.887 92.5248C115.887 92.8794 115.956 93.129 116.092 93.2736C116.228 93.4154 116.453 93.4863 116.767 93.4863C117.059 93.4863 117.315 93.4645 117.536 93.4209C117.757 93.3772 118.007 93.3199 118.285 93.249V93.8996C118.026 93.9568 117.782 94.0114 117.553 94.0632C117.323 94.1123 117.033 94.1369 116.681 94.1369C116.122 94.1369 115.716 94.0005 115.462 93.7277C115.208 93.455 115.081 93.054 115.081 92.5248V91.2401H115.887V92.5248ZM118.69 91.2401V95.6875H117.884V91.2401H118.69ZM119.901 95.6875V91.2401H120.707V94.0223C120.707 94.1069 120.706 94.2023 120.703 94.3087C120.703 94.4151 120.702 94.5105 120.699 94.5951H120.732C120.77 94.5242 120.812 94.4478 120.858 94.366C120.908 94.2814 120.961 94.1955 121.018 94.1082L122.851 91.2401H123.673V95.6875H122.867V92.9094C122.867 92.8249 122.867 92.7308 122.867 92.6271C122.87 92.5208 122.873 92.4253 122.875 92.3407H122.843C122.805 92.4116 122.761 92.4894 122.712 92.5739C122.665 92.6558 122.614 92.7403 122.556 92.8276L120.723 95.6875H119.901ZM124.627 93.5272V93.3963C124.627 92.7281 124.819 92.1812 125.203 91.7557C125.588 91.3302 126.095 91.1174 126.725 91.1174C127.358 91.1174 127.845 91.3165 128.186 91.7147C128.527 92.113 128.698 92.6489 128.698 93.3227V93.6663H125.126V93.0158H127.879V93.024C127.879 92.6694 127.791 92.3748 127.613 92.1403C127.439 91.9057 127.143 91.7884 126.725 91.7884C126.308 91.7884 125.99 91.9439 125.772 92.2548C125.554 92.563 125.445 92.9435 125.445 93.3963V93.5272C125.445 93.98 125.559 94.3632 125.789 94.6769C126.018 94.9879 126.372 95.1433 126.852 95.1433C127.15 95.1433 127.405 95.0833 127.617 94.9633C127.83 94.8433 128.002 94.7001 128.133 94.5337L128.653 94.9715C128.511 95.1788 128.286 95.3711 127.977 95.5484C127.669 95.723 127.294 95.8102 126.852 95.8102C126.135 95.8102 125.584 95.5989 125.199 95.1761C124.818 94.7506 124.627 94.201 124.627 93.5272ZM135.043 96.7922V95.6875H131.766V96.7922H131.013V95.037H135.796V96.7922H135.043ZM132.593 91.8907L132.539 93.1222C132.509 93.7741 132.474 94.2255 132.433 94.4764C132.395 94.7247 132.338 94.9251 132.261 95.0779H131.439C131.553 94.9224 131.635 94.7206 131.684 94.4724C131.736 94.2241 131.776 93.7495 131.803 93.0485L131.881 91.2401H135.162V95.6875H134.352V91.8907H132.593ZM136.23 93.5272V93.3963C136.23 92.7281 136.429 92.1812 136.827 91.7557C137.225 91.3302 137.755 91.1174 138.415 91.1174C139.08 91.1174 139.612 91.3302 140.01 91.7557C140.409 92.1812 140.608 92.7281 140.608 93.3963V93.5272C140.608 94.201 140.409 94.7506 140.01 95.1761C139.612 95.5989 139.08 95.8102 138.415 95.8102C137.755 95.8102 137.225 95.5989 136.827 95.1761C136.429 94.7506 136.23 94.201 136.23 93.5272ZM137.056 93.3963V93.5272C137.056 93.9773 137.169 94.3578 137.396 94.6687C137.625 94.9797 137.965 95.1352 138.415 95.1352C138.867 95.1352 139.208 94.9797 139.437 94.6687C139.667 94.3578 139.781 93.9773 139.781 93.5272V93.3963C139.781 92.949 139.667 92.5698 139.437 92.2589C139.208 91.948 138.867 91.7925 138.415 91.7925C137.965 91.7925 137.625 91.948 137.396 92.2589C137.169 92.5698 137.056 92.949 137.056 93.3963ZM144.454 95.6875L142.727 93.6091L143.238 93.0935L145.472 95.6875H144.454ZM141.966 93.114H142.788L144.323 91.2401H145.243L143.144 93.7604H141.966V93.114ZM142.367 91.2401V95.6875H141.561V91.2401H142.367ZM145.722 97.3895V96.6981C145.796 96.7199 145.879 96.7376 145.971 96.7513C146.064 96.7649 146.154 96.7717 146.241 96.7717C146.449 96.7717 146.619 96.7185 146.753 96.6122C146.889 96.5058 147.052 96.1853 147.24 95.6507V95.6466L145.53 91.2401H146.336L147.42 94.1287C147.461 94.2405 147.498 94.351 147.53 94.4601C147.566 94.5665 147.594 94.6728 147.616 94.7792H147.641C147.66 94.6728 147.687 94.5665 147.723 94.4601C147.758 94.351 147.796 94.2405 147.837 94.1287L148.856 91.2401H149.621L147.751 96.2603C147.607 96.6422 147.413 96.9395 147.17 97.1522C146.93 97.365 146.636 97.4714 146.286 97.4714C146.169 97.4714 146.066 97.4645 145.976 97.4509C145.886 97.4373 145.801 97.4168 145.722 97.3895ZM150.227 95.6875V91.2401H151.376L152.591 94.3087C152.657 94.4724 152.699 94.5855 152.718 94.6483C152.74 94.711 152.758 94.7751 152.771 94.8406H152.812C152.829 94.7751 152.845 94.711 152.861 94.6483C152.88 94.5855 152.924 94.4751 152.992 94.3169L154.212 91.2401H155.337V95.6875H154.551V92.664C154.551 92.4976 154.552 92.3789 154.555 92.308C154.561 92.2344 154.566 92.1689 154.572 92.1116H154.535C154.521 92.1689 154.503 92.2344 154.482 92.308C154.46 92.3789 154.417 92.4935 154.355 92.6517L153.148 95.6875H152.391L151.184 92.6394C151.127 92.4948 151.086 92.3857 151.061 92.3121C151.039 92.2357 151.022 92.1689 151.008 92.1116H150.967C150.973 92.1689 150.978 92.233 150.983 92.3039C150.989 92.3748 150.99 92.4853 150.988 92.6353V95.6875H150.227ZM156.294 93.5272V93.3963C156.294 92.7281 156.486 92.1812 156.871 91.7557C157.256 91.3302 157.763 91.1174 158.393 91.1174C159.026 91.1174 159.513 91.3165 159.854 91.7147C160.195 92.113 160.365 92.6489 160.365 93.3227V93.6663H156.793V93.0158H159.547V93.024C159.547 92.6694 159.458 92.3748 159.281 92.1403C159.106 91.9057 158.81 91.7884 158.393 91.7884C157.976 91.7884 157.658 91.9439 157.44 92.2548C157.221 92.563 157.112 92.9435 157.112 93.3963V93.5272C157.112 93.98 157.227 94.3632 157.456 94.6769C157.685 94.9879 158.04 95.1433 158.52 95.1433C158.817 95.1433 159.072 95.0833 159.285 94.9633C159.498 94.8433 159.669 94.7001 159.8 94.5337L160.32 94.9715C160.178 95.1788 159.953 95.3711 159.645 95.5484C159.337 95.723 158.962 95.8102 158.52 95.8102C157.802 95.8102 157.251 95.5989 156.867 95.1761C156.485 94.7506 156.294 94.201 156.294 93.5272ZM161.2 91.2401H162.006V93.1099H164.121V91.2401H164.927V95.6875H164.121V93.7604H162.006V95.6875H161.2V91.2401ZM165.696 91.8907V91.2401H169.358V91.8907H167.93V95.6875H167.124V91.8907H165.696ZM169.89 94.3823C169.89 93.9296 170.077 93.5777 170.45 93.3268C170.827 93.0731 171.303 92.9463 171.878 92.9463H172.946V92.5985C172.946 92.353 172.872 92.1539 172.725 92.0011C172.578 91.8457 172.324 91.7679 171.964 91.7679C171.604 91.7679 171.346 91.8375 171.191 91.9766C171.038 92.113 170.962 92.2712 170.962 92.4512V92.4717H170.156V92.4512C170.156 92.0966 170.321 91.7857 170.651 91.5184C170.981 91.2511 171.425 91.1174 171.985 91.1174C172.544 91.1174 172.977 91.2415 173.286 91.4897C173.597 91.7379 173.752 92.1075 173.752 92.5985V94.7056C173.752 94.8829 173.766 95.0506 173.793 95.2088C173.823 95.3643 173.864 95.502 173.916 95.622V95.6875H173.134C173.093 95.6166 173.057 95.5238 173.024 95.4093C172.991 95.2947 172.971 95.1815 172.962 95.0697C172.851 95.2524 172.671 95.4147 172.422 95.5566C172.177 95.6984 171.859 95.7693 171.469 95.7693C171.033 95.7693 170.66 95.6507 170.352 95.4134C170.044 95.1733 169.89 94.8297 169.89 94.3823ZM170.696 94.3414C170.696 94.5869 170.774 94.7792 170.929 94.9183C171.087 95.0547 171.33 95.1229 171.657 95.1229C171.985 95.1229 172.281 95.0192 172.545 94.8119C172.812 94.6019 172.946 94.381 172.946 94.1491V93.5313H171.964C171.547 93.5313 171.23 93.605 171.015 93.7523C170.802 93.8968 170.696 94.0932 170.696 94.3414ZM121.865 105.688V101.24H123.784C124.277 101.24 124.669 101.34 124.958 101.539C125.247 101.735 125.392 102.033 125.392 102.431C125.392 102.682 125.318 102.89 125.171 103.057C125.023 103.223 124.824 103.334 124.573 103.388V103.4C124.882 103.447 125.12 103.557 125.289 103.732C125.461 103.904 125.547 104.125 125.547 104.395C125.547 104.801 125.396 105.119 125.093 105.348C124.793 105.574 124.399 105.688 123.911 105.688H121.865ZM122.671 103.11H123.784C124.065 103.11 124.267 103.054 124.389 102.942C124.515 102.83 124.577 102.673 124.577 102.472C124.577 102.275 124.515 102.132 124.389 102.042C124.267 101.952 124.065 101.902 123.784 101.891H122.671V103.11ZM122.671 105.037H123.911C124.194 105.037 124.403 104.981 124.537 104.869C124.67 104.757 124.737 104.599 124.737 104.395C124.737 104.196 124.672 104.039 124.541 103.924C124.41 103.81 124.2 103.752 123.911 103.752H122.671V105.037ZM129.123 103.519V103.65C129.123 104.067 129.238 104.419 129.467 104.706C129.696 104.992 130.035 105.135 130.485 105.135C130.938 105.135 131.278 104.992 131.504 104.706C131.733 104.419 131.848 104.067 131.848 103.65V103.519C131.848 103.102 131.733 102.75 131.504 102.463C131.278 102.177 130.938 102.034 130.485 102.034C130.035 102.034 129.696 102.177 129.467 102.463C129.238 102.75 129.123 103.102 129.123 103.519ZM130.596 101.359C131.188 101.359 131.682 101.559 132.077 101.96C132.475 102.361 132.674 102.881 132.674 103.519V103.65C132.674 104.288 132.475 104.808 132.077 105.209C131.682 105.61 131.151 105.81 130.485 105.81C129.809 105.81 129.274 105.604 128.882 105.192C128.492 104.781 128.297 104.159 128.297 103.327V103.139C128.297 102.154 128.47 101.382 128.816 100.823C129.165 100.261 129.798 99.9091 130.715 99.7672C131.222 99.6881 131.515 99.6254 131.594 99.579C131.673 99.5299 131.72 99.4713 131.733 99.4031H132.425C132.395 99.714 132.278 99.9527 132.073 100.119C131.868 100.283 131.444 100.407 130.801 100.491C130.089 100.584 129.609 100.79 129.36 101.109C129.112 101.426 128.966 101.832 128.923 102.328H128.968C129.101 102.018 129.307 101.779 129.585 101.612C129.864 101.443 130.2 101.359 130.596 101.359ZM133.394 104.382C133.394 103.93 133.581 103.578 133.955 103.327C134.331 103.073 134.807 102.946 135.383 102.946H136.451V102.598C136.451 102.353 136.377 102.154 136.23 102.001C136.083 101.846 135.829 101.768 135.469 101.768C135.109 101.768 134.851 101.837 134.696 101.977C134.543 102.113 134.466 102.271 134.466 102.451V102.472H133.66V102.451C133.66 102.097 133.825 101.786 134.155 101.518C134.486 101.251 134.93 101.117 135.489 101.117C136.048 101.117 136.482 101.242 136.79 101.49C137.101 101.738 137.257 102.108 137.257 102.598V104.706C137.257 104.883 137.27 105.051 137.298 105.209C137.328 105.364 137.369 105.502 137.42 105.622V105.688H136.639C136.598 105.617 136.561 105.524 136.528 105.409C136.496 105.295 136.475 105.182 136.467 105.07C136.355 105.252 136.175 105.415 135.927 105.557C135.682 105.698 135.364 105.769 134.974 105.769C134.537 105.769 134.165 105.651 133.857 105.413C133.549 105.173 133.394 104.83 133.394 104.382ZM134.2 104.341C134.2 104.587 134.278 104.779 134.434 104.918C134.592 105.055 134.835 105.123 135.162 105.123C135.489 105.123 135.785 105.019 136.05 104.812C136.317 104.602 136.451 104.381 136.451 104.149V103.531H135.469C135.051 103.531 134.735 103.605 134.52 103.752C134.307 103.897 134.2 104.093 134.2 104.341ZM139.916 105.81C139.294 105.81 138.822 105.655 138.501 105.344C138.179 105.033 138.018 104.686 138.018 104.305V104.284H138.807V104.305C138.807 104.523 138.895 104.716 139.069 104.886C139.244 105.055 139.526 105.139 139.916 105.139C140.279 105.139 140.548 105.074 140.722 104.943C140.899 104.812 140.988 104.629 140.988 104.395C140.988 104.196 140.917 104.039 140.775 103.924C140.636 103.81 140.388 103.752 140.031 103.752H139.257V103.11H140.035C140.321 103.11 140.527 103.054 140.653 102.942C140.778 102.83 140.841 102.673 140.841 102.472C140.841 102.243 140.77 102.072 140.628 101.96C140.489 101.848 140.267 101.792 139.961 101.792C139.593 101.792 139.324 101.877 139.155 102.046C138.989 102.215 138.906 102.408 138.906 102.623V102.643H138.12V102.623C138.12 102.238 138.276 101.892 138.586 101.584C138.9 101.273 139.358 101.117 139.961 101.117C140.477 101.117 140.889 101.228 141.197 101.449C141.505 101.667 141.659 101.993 141.659 102.427C141.659 102.678 141.584 102.888 141.434 103.057C141.284 103.223 141.081 103.334 140.824 103.388V103.4C141.133 103.447 141.371 103.557 141.54 103.732C141.712 103.904 141.798 104.125 141.798 104.395C141.798 104.842 141.625 105.19 141.279 105.438C140.935 105.686 140.481 105.81 139.916 105.81ZM142.441 103.527V103.396C142.441 102.728 142.633 102.181 143.017 101.756C143.402 101.33 143.909 101.117 144.539 101.117C145.172 101.117 145.659 101.317 146 101.715C146.341 102.113 146.512 102.649 146.512 103.323V103.666H142.94V103.016H145.693V103.024C145.693 102.669 145.605 102.375 145.427 102.14C145.253 101.906 144.957 101.788 144.539 101.788C144.122 101.788 143.804 101.944 143.586 102.255C143.368 102.563 143.259 102.944 143.259 103.396V103.527C143.259 103.98 143.373 104.363 143.603 104.677C143.832 104.988 144.186 105.143 144.666 105.143C144.964 105.143 145.219 105.083 145.431 104.963C145.644 104.843 145.816 104.7 145.947 104.534L146.467 104.972C146.325 105.179 146.1 105.371 145.791 105.548C145.483 105.723 145.108 105.81 144.666 105.81C143.949 105.81 143.398 105.599 143.013 105.176C142.632 104.751 142.441 104.201 142.441 103.527Z" fill="#BCBCCF"/>
<circle cx="6" cy="6" r="5.25" transform="matrix(-1 0 0 1 140 147.688)" fill="white" stroke="#E4E4E4" stroke-width="1.5"/>
<circle cx="6" cy="6" r="5.25" transform="matrix(-1 0 0 1 124 449.688)" fill="white" stroke="#E4E4E4" stroke-width="1.5"/>
<defs>
<filter id="filter0_dddd_2001_1240" x="0" y="446.688" width="237" height="221" filterUnits="userSpaceOnUse" color-interpolation-filters="sRGB">
<feFlood flood-opacity="0" result="BackgroundImageFix"/>
<feColorMatrix in="SourceAlpha" type="matrix" values="0 0 0 0 0 0 0 0 0 0 0 0 0 0 0 0 0 0 127 0" result="hardAlpha"/>
<feOffset dy="7"/>
<feGaussianBlur stdDeviation="8"/>
<feColorMatrix type="matrix" values="0 0 0 0 0.741176 0 0 0 0 0.741176 0 0 0 0 0.741176 0 0 0 0.1 0"/>
<feBlend mode="normal" in2="BackgroundImageFix" result="effect1_dropShadow_2001_1240"/>
<feColorMatrix in="SourceAlpha" type="matrix" values="0 0 0 0 0 0 0 0 0 0 0 0 0 0 0 0 0 0 127 0" result="hardAlpha"/>
<feOffset dy="28"/>
<feGaussianBlur stdDeviation="14"/>
<feColorMatrix type="matrix" values="0 0 0 0 0.741176 0 0 0 0 0.741176 0 0 0 0 0.741176 0 0 0 0.09 0"/>
<feBlend mode="normal" in2="effect1_dropShadow_2001_1240" result="effect2_dropShadow_2001_1240"/>
<feColorMatrix in="SourceAlpha" type="matrix" values="0 0 0 0 0 0 0 0 0 0 0 0 0 0 0 0 0 0 127 0" result="hardAlpha"/>
<feOffset dy="64"/>
<feGaussianBlur stdDeviation="19"/>
<feColorMatrix type="matrix" values="0 0 0 0 0.741176 0 0 0 0 0.741176 0 0 0 0 0.741176 0 0 0 0.05 0"/>
<feBlend mode="normal" in2="effect2_dropShadow_2001_1240" result="effect3_dropShadow_2001_1240"/>
<feColorMatrix in="SourceAlpha" type="matrix" values="0 0 0 0 0 0 0 0 0 0 0 0 0 0 0 0 0 0 127 0" result="hardAlpha"/>
<feOffset dy="113"/>
<feGaussianBlur stdDeviation="22.5"/>
<feColorMatrix type="matrix" values="0 0 0 0 0.741176 0 0 0 0 0.741176 0 0 0 0 0.741176 0 0 0 0.01 0"/>
<feBlend mode="normal" in2="effect3_dropShadow_2001_1240" result="effect4_dropShadow_2001_1240"/>
<feBlend mode="normal" in="SourceGraphic" in2="effect4_dropShadow_2001_1240" result="shape"/>
</filter>
<filter id="filter1_dddd_2001_1240" x="16.3135" y="0" width="235.373" height="312.375" filterUnits="userSpaceOnUse" color-interpolation-filters="sRGB">
<feFlood flood-opacity="0" result="BackgroundImageFix"/>
<feColorMatrix in="SourceAlpha" type="matrix" values="0 0 0 0 0 0 0 0 0 0 0 0 0 0 0 0 0 0 127 0" result="hardAlpha"/>
<feOffset dy="7"/>
<feGaussianBlur stdDeviation="8"/>
<feColorMatrix type="matrix" values="0 0 0 0 0.741176 0 0 0 0 0.741176 0 0 0 0 0.741176 0 0 0 0.1 0"/>
<feBlend mode="normal" in2="BackgroundImageFix" result="effect1_dropShadow_2001_1240"/>
<feColorMatrix in="SourceAlpha" type="matrix" values="0 0 0 0 0 0 0 0 0 0 0 0 0 0 0 0 0 0 127 0" result="hardAlpha"/>
<feOffset dy="28"/>
<feGaussianBlur stdDeviation="14"/>
<feColorMatrix type="matrix" values="0 0 0 0 0.741176 0 0 0 0 0.741176 0 0 0 0 0.741176 0 0 0 0.09 0"/>
<feBlend mode="normal" in2="effect1_dropShadow_2001_1240" result="effect2_dropShadow_2001_1240"/>
<feColorMatrix in="SourceAlpha" type="matrix" values="0 0 0 0 0 0 0 0 0 0 0 0 0 0 0 0 0 0 127 0" result="hardAlpha"/>
<feOffset dy="64"/>
<feGaussianBlur stdDeviation="19"/>
<feColorMatrix type="matrix" values="0 0 0 0 0.741176 0 0 0 0 0.741176 0 0 0 0 0.741176 0 0 0 0.05 0"/>
<feBlend mode="normal" in2="effect2_dropShadow_2001_1240" result="effect3_dropShadow_2001_1240"/>
<feColorMatrix in="SourceAlpha" type="matrix" values="0 0 0 0 0 0 0 0 0 0 0 0 0 0 0 0 0 0 127 0" result="hardAlpha"/>
<feOffset dy="113"/>
<feGaussianBlur stdDeviation="22.5"/>
<feColorMatrix type="matrix" values="0 0 0 0 0.741176 0 0 0 0 0.741176 0 0 0 0 0.741176 0 0 0 0.01 0"/>
<feBlend mode="normal" in2="effect3_dropShadow_2001_1240" result="effect4_dropShadow_2001_1240"/>
<feBlend mode="normal" in="SourceGraphic" in2="effect4_dropShadow_2001_1240" result="shape"/>
</filter>
<filter id="filter2_dddd_2001_1240" x="169" y="210.688" width="228" height="287" filterUnits="userSpaceOnUse" color-interpolation-filters="sRGB">
<feFlood flood-opacity="0" result="BackgroundImageFix"/>
<feColorMatrix in="SourceAlpha" type="matrix" values="0 0 0 0 0 0 0 0 0 0 0 0 0 0 0 0 0 0 127 0" result="hardAlpha"/>
<feOffset dy="7"/>
<feGaussianBlur stdDeviation="8"/>
<feColorMatrix type="matrix" values="0 0 0 0 0.741176 0 0 0 0 0.741176 0 0 0 0 0.741176 0 0 0 0.1 0"/>
<feBlend mode="normal" in2="BackgroundImageFix" result="effect1_dropShadow_2001_1240"/>
<feColorMatrix in="SourceAlpha" type="matrix" values="0 0 0 0 0 0 0 0 0 0 0 0 0 0 0 0 0 0 127 0" result="hardAlpha"/>
<feOffset dy="28"/>
<feGaussianBlur stdDeviation="14"/>
<feColorMatrix type="matrix" values="0 0 0 0 0.741176 0 0 0 0 0.741176 0 0 0 0 0.741176 0 0 0 0.09 0"/>
<feBlend mode="normal" in2="effect1_dropShadow_2001_1240" result="effect2_dropShadow_2001_1240"/>
<feColorMatrix in="SourceAlpha" type="matrix" values="0 0 0 0 0 0 0 0 0 0 0 0 0 0 0 0 0 0 127 0" result="hardAlpha"/>
<feOffset dy="64"/>
<feGaussianBlur stdDeviation="19"/>
<feColorMatrix type="matrix" values="0 0 0 0 0.741176 0 0 0 0 0.741176 0 0 0 0 0.741176 0 0 0 0.05 0"/>
<feBlend mode="normal" in2="effect2_dropShadow_2001_1240" result="effect3_dropShadow_2001_1240"/>
<feColorMatrix in="SourceAlpha" type="matrix" values="0 0 0 0 0 0 0 0 0 0 0 0 0 0 0 0 0 0 127 0" result="hardAlpha"/>
<feOffset dy="113"/>
<feGaussianBlur stdDeviation="22.5"/>
<feColorMatrix type="matrix" values="0 0 0 0 0.741176 0 0 0 0 0.741176 0 0 0 0 0.741176 0 0 0 0.01 0"/>
<feBlend mode="normal" in2="effect3_dropShadow_2001_1240" result="effect4_dropShadow_2001_1240"/>
<feBlend mode="normal" in="SourceGraphic" in2="effect4_dropShadow_2001_1240" result="shape"/>
</filter>
<clipPath id="clip0_2001_1240">
<rect width="9.99994" height="9.99994" fill="white" transform="translate(67 477.688)"/>
</clipPath>
<clipPath id="clip1_2001_1240">
<rect width="8.20221" height="8.20221" fill="white" transform="translate(234.614 246.297)"/>
</clipPath>
<clipPath id="clip2_2001_1240">
<rect width="3.91071" height="3.91071" fill="white" transform="translate(330.786 248.445)"/>
</clipPath>
</defs>
</svg>
