<svg xmlns="http://www.w3.org/2000/svg" width="397" height="668" fill="none" viewBox="0 0 397 668"><g filter="url(#a)"><path fill="#fff" d="M47 465.688a8 8 0 0 1 8-8h127a8 8 0 0 1 8 8v34a8 8 0 0 1-8 8H55a8 8 0 0 1-8-8z"/><path stroke="#f8f8f8" stroke-width="2" d="M182 456.688a9 9 0 0 1 9 9v34a9 9 0 0 1-9 9H55c-4.97-.001-9-4.03-9-9v-34a9 9 0 0 1 9-9z"/><rect width="22" height="22" x="61" y="471.688" fill="#f5f5f7" rx="11"/><g stroke="#000" stroke-linecap="round" stroke-linejoin="round" clip-path="url(#b)"><path d="m74.5 480.195-4.583 4.584-2.084-2.084M76.167 481.852l-3.125 3.125-.625-.625"/></g><path fill="#000" d="M98.445 480.604v-1.416h-5.464v1.416h-.898v-2.232h7.26v2.232zm-4.853-8.526h4.839v7.11h-.977v-6.294h-3.032l-.147 3.081q-.053 1.167-.205 1.713-.15.543-.37.835h-1.031q.307-.312.474-.864.165-.552.23-1.684zm6.313 4.556v-.156q0-1.187.694-1.939.698-.756 1.86-.757 1.167 0 1.86.757.699.752.699 1.939v.156q0 1.19-.699 1.948-.693.752-1.86.752-1.162 0-1.86-.752-.694-.757-.694-1.948m.972-.156v.156q0 .805.395 1.362.4.552 1.187.552.79 0 1.191-.552.4-.557.401-1.362v-.156q0-.796-.401-1.348-.4-.557-1.191-.557-.786 0-1.187.557-.395.552-.395 1.348m8.701 2.71-2.06-2.437.595-.615 2.652 3.052zm-2.944-3.042h.952l1.846-2.217h1.089l-2.51 2.968h-1.377zm.473-2.217v5.259h-.947v-5.259zm3.921 7.29v-.811a2.3 2.3 0 0 0 .611.088q.361 0 .605-.21.25-.21.571-1.133v-.005l-2.006-5.219h.937l1.27 3.427q.072.2.131.386.064.186.098.366h.029q.04-.18.098-.366.063-.185.137-.386l1.191-3.427h.899l-2.193 5.942q-.254.684-.678 1.065-.42.38-1.036.38-.204 0-.366-.024a2 2 0 0 1-.298-.073m5.288-2.031v-5.259h1.333l1.46 3.628q.118.288.152.4.039.112.063.23h.049l.059-.23q.033-.112.151-.391l1.47-3.637h1.308v5.259h-.918v-3.58q0-.292.005-.42.01-.127.02-.229h-.044a4 4 0 0 1-.064.229q-.033.127-.146.406l-1.455 3.594h-.869l-1.455-3.609a4 4 0 0 1-.142-.386 6 6 0 0 1-.064-.234h-.048q.01.102.014.229.01.122.01.386v3.614zm7.183-2.554v-.156q0-1.187.674-1.939.674-.756 1.777-.757 1.113 0 1.709.708.596.703.596 1.9v.4h-4.17v-.762h3.213v-.029q0-.61-.318-1.02-.312-.416-1.015-.416-.742 0-1.123.557-.381.551-.381 1.358v.156q0 .805.4 1.362t1.241.557q.518 0 .888-.215.377-.214.606-.513l.61.508q-.254.371-.796.688-.537.313-1.308.313-1.26 0-1.934-.752-.669-.757-.669-1.948m5.786-2.705h.947v2.212h2.456v-2.212h.948v5.259h-.948v-2.291h-2.456v2.291h-.947zm5.259.757v-.757h4.297v.757h-1.675v4.502h-.947v-4.502zm7.642-.757h.947v2.212h2.456v-2.212h.947v5.259h-.947v-2.291h-2.456v2.291h-.947zm5.517 3.711q0-.801.654-1.245.66-.445 1.665-.445h1.246v-.4q0-.444-.259-.723-.254-.283-.884-.283-.625 0-.894.244a.75.75 0 0 0-.268.566v.025h-.947v-.025q0-.63.576-1.098.576-.474 1.562-.474.977 0 1.519.445.542.444.542 1.323v2.466q0 .316.049.6.053.279.141.493v.079h-.918a1.8 1.8 0 0 1-.127-.328 2 2 0 0 1-.073-.4q-.195.322-.625.576-.43.249-1.108.249-.772 0-1.314-.42-.537-.424-.537-1.225m.947-.049q0 .44.269.688.273.249.85.249.57 0 1.035-.371.464-.375.464-.791v-.737h-1.143q-.728 0-1.104.264a.81.81 0 0 0-.371.698m5 1.597v-5.259h.943v3.276q0 .151-.005.342 0 .186-.005.337h.044l.151-.274.186-.302 2.143-3.379h.962v5.259h-.942v-3.614q.005-.19.015-.337h-.054a7 7 0 0 1-.151.274 7 7 0 0 1-.181.307l-2.144 3.37zm2.212-6.89q.376 0 .611-.195.234-.201.4-.674l.718.425q-.254.62-.703.903-.45.283-1.026.283t-1.025-.278q-.445-.284-.703-.908l.722-.43q.171.488.401.683.234.19.605.191m7.72 8.208v-1.318h-3.862v1.318h-.874v-2.075h5.615v2.075zm-2.871-5.82-.068 1.606q-.045 1.046-.118 1.479-.068.435-.205.723h-.971q.19-.259.283-.703.098-.444.146-1.602l.098-2.26h3.828v5.259h-.952v-4.502zm4.263 1.948v-.156q0-1.187.673-1.939.675-.756 1.778-.757 1.113 0 1.709.708.595.703.595 1.9v.4h-4.169v-.762h3.212v-.029q0-.61-.317-1.02-.312-.416-1.016-.416-.742 0-1.123.557-.38.551-.38 1.358v.156q0 .805.4 1.362t1.24.557q.517 0 .889-.215.375-.214.605-.513l.611.508q-.255.371-.796.688-.538.313-1.309.313-1.26 0-1.933-.752-.669-.757-.669-1.948m5.786-2.705h.947v2.212h2.456v-2.212h.947v5.259h-.947v-2.291h-2.456v2.291h-.947z"/><path fill="#bcbccf" d="M92.241 489.092q0-.883.598-1.432.597-.552 1.51-.552.912 0 1.57.622.66.621.66 2.013v.122q0 1.547-.9 2.492t-2.562.945h-.086v-.704h.086q1.224 0 1.927-.646.708-.651.708-2.046v-.204q0-1.036-.401-1.465a1.3 1.3 0 0 0-1.002-.434q-.61 0-.946.34-.33.34-.331.949 0 .609.331.945.337.336.945.336.561 0 .995-.336t.433-.945h.307q0 .888-.523 1.432-.52.544-1.388.544-.862 0-1.399-.544-.532-.544-.532-1.432m4.91 2.52v-.041h.814v.041q0 .478.344.741.348.261.925.262.573 0 .916-.262t.344-.823q0-.548-.389-.826-.384-.278-1.031-.278h-.52v-.683h.475q.597 0 .925-.262.327-.266.327-.737 0-.474-.286-.708-.283-.233-.761-.233-.48 0-.79.233-.307.234-.307.671v.041h-.814v-.041q0-.662.536-1.129.54-.47 1.375-.47.83 0 1.358.446.528.442.528 1.141 0 .409-.238.782-.233.368-.728.576v.017q.536.13.859.519.328.385.328.95 0 .826-.598 1.301-.597.47-1.51.47-.915 0-1.5-.474a1.52 1.52 0 0 1-.582-1.224m7.68 1.576v-4.755h-.049l-1.907 2.672h3.617v.696h-4.57v-.59l2.921-3.981h.781v5.958zm2.041-4.096q0-.883.598-1.432.597-.552 1.509-.552.913 0 1.571.622.66.621.659 2.013v.122q0 1.547-.9 2.492t-2.561.945h-.086v-.704h.086q1.223 0 1.927-.646.708-.651.708-2.046v-.204q0-1.036-.401-1.465a1.3 1.3 0 0 0-1.003-.434q-.609 0-.945.34-.331.34-.331.949t.331.945q.336.336.945.336.56 0 .995-.336.433-.336.433-.945h.307q0 .888-.524 1.432-.519.544-1.387.544-.863 0-1.399-.544-.532-.544-.532-1.432m5.331 4.096v-5.958h3.908v.696h-3.073v1.984h2.655v.696h-2.655v2.582zm3.13-1.719v-.041h.835v.041q0 .549.311.835.315.286.855.286.544 0 .855-.315.31-.319.311-.908v-4.137h.835v4.137q0 .9-.557 1.424-.552.519-1.444.519t-1.448-.491q-.553-.49-.553-1.35m5.352 1.719v-5.958h.834v5.958zm2.246 0v-5.958h1.882q1.211 0 2.017.766.806.76.806 2.045v.336q0 1.284-.806 2.049-.806.762-2.017.762zm.835-.696h1.047q.904 0 1.44-.561.537-.56.536-1.554v-.336q0-.994-.536-1.555-.535-.56-1.44-.56h-1.047zm4.815-2.115v-.336q0-1.382.745-2.156.749-.777 1.919-.777 1.166 0 1.91.777.75.774.749 2.156v.336q0 1.383-.749 2.16-.744.773-1.91.773-1.17 0-1.919-.773-.745-.777-.745-2.16m.843 0q0 1.035.499 1.624.5.585 1.322.585.817 0 1.317-.585.5-.59.499-1.624v-.336q0-1.035-.499-1.62-.5-.59-1.317-.589-.822 0-1.322.589-.5.585-.499 1.62zm5.176 2.356q0-.228.143-.388.147-.16.417-.16t.413.16a.55.55 0 0 1 .148.388q0 .226-.148.385-.143.16-.413.16t-.417-.16a.55.55 0 0 1-.143-.385m2.381 2.157v-6.15h.732l.037.581h.021q.18-.274.548-.466.372-.197.863-.197.88 0 1.408.634.527.635.527 1.604v.131q0 .974-.527 1.608-.528.634-1.408.634-.49 0-.839-.163a1.5 1.5 0 0 1-.556-.446v2.23zm.806-3.053q.14.295.45.528.315.23.765.229.667 0 .978-.45.31-.454.311-1.117v-.131q0-.658-.311-1.108-.31-.455-.978-.455-.45 0-.765.234a1.4 1.4 0 0 0-.45.523zm4.026-.81v-.131q0-.97.528-1.604.528-.633 1.407-.634.49 0 .839.168.348.163.556.442v-2.365h.806v6.285h-.732l-.037-.581h-.02q-.18.273-.553.47a1.8 1.8 0 0 1-.859.192q-.879 0-1.407-.634-.528-.635-.528-1.608m.826 0q0 .663.311 1.117.312.45.978.45.45 0 .761-.229.316-.233.454-.528v-1.747a1.4 1.4 0 0 0-.454-.523 1.23 1.23 0 0 0-.761-.234q-.666 0-.978.455-.31.45-.311 1.108zm4.775 2.161v-4.841q0-.749.417-1.137.418-.389 1.138-.389a2.4 2.4 0 0 1 .552.066l-.045.658a4 4 0 0 0-.205-.028 2 2 0 0 0-.216-.012q-.398 0-.614.212-.217.208-.217.63v4.841zm-.757-3.814v-.634h2.569v.634z"/></g><path stroke="#e4e4e4" d="M118 457.687c0-92.775 165-21.889 165-117.999"/><g filter="url(#c)"><path fill="#fff" d="M128.343 13.344a8 8 0 0 1 11.314 0l62.686 62.687a8 8 0 0 1 0 11.313l-62.686 62.687a8 8 0 0 1-11.314 0L65.657 87.344a8 8 0 0 1 0-11.313z"/><path stroke="#f8f8f8" stroke-width="2" d="M127.636 12.638a9 9 0 0 1 12.728 0l62.686 62.685a9 9 0 0 1 0 12.729l-62.686 62.685a9 9 0 0 1-12.728 0L64.95 88.052a9 9 0 0 1 0-12.729z"/></g><g filter="url(#d)"><rect width="134" height="103.43" x="216" y="227.688" fill="#fff" rx="8"/><rect width="136" height="105.43" x="215" y="226.688" stroke="#f8f8f8" stroke-width="2" rx="9"/><rect width="17.43" height="17.43" x="230" y="241.688" fill="#f5f5f7" rx="8.715"/><g clip-path="url(#e)"><path stroke="#000" stroke-linecap="round" stroke-linejoin="round" stroke-width=".718" d="m241.79 253.48-1.483-1.483m.8-1.935a2.734 2.734 0 1 1-5.468 0 2.734 2.734 0 0 1 5.468 0"/></g><path fill="#48b925" d="M292.657 252.392a1.7 1.7 0 0 0 .512.069q.386 0 .572-.214.192-.214.367-.592l-2.051-4.075h.894l1.333 2.761q.065.134.118.271.054.135.107.26h.038q.054-.125.107-.26.054-.137.115-.271l1.272-2.761h.844l-2.051 4.212q-.325.669-.68 1.047-.351.378-1.004.378-.196 0-.298-.023a1.3 1.3 0 0 1-.195-.053zm4.609-1.272v-.122q0-.94.535-1.535.539-.596 1.478-.596.871 0 1.322.447.453.447.454.997v.019h-.737v-.019a.77.77 0 0 0-.248-.566q-.245-.248-.791-.248-.637 0-.939.436-.298.435-.298 1.065v.122q0 .634.298 1.07.302.435.939.435.546 0 .791-.244a.79.79 0 0 0 .248-.569v-.02h.737v.02q0 .549-.454.996-.451.447-1.322.447-.94 0-1.478-.596-.534-.595-.535-1.539m4.488-2.138h3.46v4.159h-.756v-3.548h-1.948v3.548h-.756zm4.35 2.138v-.122q0-.94.538-1.535.543-.596 1.429-.596.893 0 1.371.558.48.557.481 1.504v.321h-3.349v-.607h2.581v.011q0-.5-.248-.828-.245-.333-.836-.333-.585 0-.894.436-.306.435-.306 1.069v.122q0 .635.321 1.073.325.436 1.001.436.415 0 .714-.168.302-.168.485-.401l.489.412q-.203.29-.638.539-.432.244-1.05.244-1.013 0-1.551-.596-.538-.595-.538-1.539m4.594 2.021v-4.159h.756v3.548h1.83v-3.548h.756v3.548h1.829v-3.548h.756v4.159zm7.058-4.159h.756v1.749h1.986v-1.749h.756v4.159h-.756v-1.799h-1.986v1.799h-.756zm4.388 2.138v-.122q0-.94.557-1.535.562-.596 1.494-.596.935 0 1.493.596.561.596.561 1.535v.122q0 .944-.561 1.539-.558.596-1.493.596-.932 0-1.494-.596-.557-.595-.557-1.539m.775-.122v.122q0 .63.321 1.066.32.435.955.435.637 0 .958-.435t.321-1.066v-.122q0-.625-.321-1.062-.32-.435-.958-.435-.634 0-.955.435-.321.436-.321 1.062"/><circle cx="332.741" cy="250.4" r="3.259" fill="#48b925"/><g clip-path="url(#f)"><path stroke="#fff" stroke-linecap="round" stroke-linejoin="round" stroke-width=".652" d="m334.045 249.422-1.793 1.792-.814-.814"/></g><path fill="#000" d="M230.83 290.117v-7.109h5.591v7.109h-.982v-6.294h-3.627v6.294zm6.841-2.554v-.156q0-1.187.693-1.938.699-.757 1.861-.757 1.167 0 1.86.757.698.751.698 1.938v.156q0 1.192-.698 1.949-.693.752-1.86.752-1.162 0-1.861-.752-.693-.757-.693-1.949m.972-.156v.156q0 .807.395 1.363.4.552 1.187.552.79 0 1.191-.552.4-.556.4-1.363v-.156q0-.796-.4-1.347-.4-.558-1.191-.557-.786 0-1.187.557-.396.551-.395 1.347m5.283 2.71v-5.259h.942v3.277q0 .151-.005.342 0 .185-.005.336h.044q.068-.126.152-.273.087-.147.185-.303l2.144-3.379h.962v5.259h-.943v-3.613q.005-.19.015-.337h-.054a6 6 0 0 1-.151.273 6 6 0 0 1-.181.308l-2.143 3.369zm5.561-2.554v-.156q0-1.187.669-1.938.669-.757 1.836-.757 1.084 0 1.646.566.566.567.566 1.265v.024h-.923v-.024q0-.415-.307-.728-.303-.317-.982-.317-.791 0-1.162.557-.37.551-.371 1.352v.156q0 .807.371 1.363.371.552 1.162.552.68 0 .982-.313.307-.318.307-.727v-.025h.923v.025q0 .693-.566 1.259-.562.567-1.646.567-1.167 0-1.836-.752-.669-.757-.669-1.949m9.087 2.554-2.06-2.436.595-.616 2.652 3.052zm-2.944-3.042h.952l1.846-2.217h1.089l-2.51 2.969h-1.377zm.474-2.217v5.259h-.948v-5.259zm10.878 6.578v-1.319h-3.862v1.319h-.874v-2.076h5.615v2.076zm-2.871-5.821-.068 1.607q-.043 1.044-.117 1.479-.069.435-.205.723h-.972q.19-.26.283-.703.098-.445.147-1.602l.097-2.261h3.828v5.259h-.952v-4.502zm4.263 1.948v-.156q0-1.187.693-1.938.699-.757 1.861-.757 1.167 0 1.86.757.698.751.698 1.938v.156q0 1.192-.698 1.949-.693.752-1.86.752-1.162 0-1.861-.752-.693-.757-.693-1.949m.972-.156v.156q0 .807.395 1.363.4.552 1.187.552.79 0 1.191-.552.4-.556.401-1.363v-.156q0-.796-.401-1.347-.4-.558-1.191-.557-.786 0-1.187.557-.395.551-.395 1.347m8.701 2.71-2.061-2.436.596-.616 2.651 3.052zm-2.944-3.042h.952l1.845-2.217h1.089l-2.51 2.969h-1.376zm.473-2.217v5.259h-.947v-5.259zm3.921 7.29v-.81q.132.039.293.063.167.025.317.025.362 0 .606-.21.249-.21.571-1.133v-.005l-2.007-5.22h.938l1.269 3.428q.074.2.132.386.064.186.098.366h.029q.04-.18.098-.366.063-.186.137-.386l1.191-3.428h.898l-2.192 5.943q-.254.684-.679 1.064-.42.381-1.035.381-.206 0-.366-.024a2 2 0 0 1-.298-.074m5.288-2.031v-5.259h1.333l1.46 3.628q.118.288.151.401.04.112.064.229h.049l.058-.229q.035-.112.152-.391l1.469-3.638h1.309v5.259h-.918v-3.579q0-.292.005-.42.01-.127.02-.229h-.044a4.3 4.3 0 0 1-.21.634l-1.455 3.594h-.87l-1.455-3.608a5 5 0 0 1-.141-.386 6 6 0 0 1-.064-.234h-.049q.01.102.015.229.01.123.01.386v3.613zm7.183-2.554v-.156q0-1.187.674-1.938.673-.757 1.777-.757 1.113 0 1.709.708.596.704.596 1.899v.401h-4.17v-.762h3.213v-.029q0-.61-.318-1.021-.313-.414-1.015-.415-.743 0-1.123.557-.381.552-.381 1.357v.156q0 .807.4 1.363t1.24.556q.518 0 .889-.214.376-.216.605-.513l.611.508q-.254.371-.796.688-.537.313-1.309.313-1.26 0-1.933-.752-.669-.757-.669-1.949m5.786-2.705h.947v2.212h2.456v-2.212h.947v5.259h-.947v-2.29h-2.456v2.29h-.947zm5.259.757v-.757h4.297v.757h-1.675v4.502h-.947v-4.502zm4.917 2.954q0-.801.654-1.245.659-.444 1.665-.444h1.245v-.401q0-.444-.259-.722-.254-.283-.883-.283-.625 0-.894.244a.75.75 0 0 0-.269.566v.025h-.947v-.025q0-.63.576-1.098.576-.474 1.563-.474.976 0 1.518.444.543.445.542 1.323v2.466q0 .318.049.601.054.278.142.493v.078h-.918a1.7 1.7 0 0 1-.127-.327 2 2 0 0 1-.073-.4q-.196.322-.625.576-.43.249-1.109.249-.771 0-1.313-.42-.537-.425-.537-1.226m.947-.048q0 .438.269.688.273.249.849.249.572 0 1.035-.371.465-.376.464-.791v-.737h-1.142q-.728 0-1.104.263a.81.81 0 0 0-.371.699"/><path fill="#bcbccf" d="M230.696 305.117v-5.957h4.762v5.957h-.839v-5.257h-3.089v5.257zm5.826-1.305q0-.68.56-1.056.566-.38 1.428-.38h1.068v-.348a.83.83 0 0 0-.221-.597q-.22-.233-.761-.233-.54 0-.773.208a.62.62 0 0 0-.229.475v.02h-.806v-.02q0-.533.495-.933t1.333-.401q.84 0 1.302.372.466.373.466 1.109v2.107q0 .267.041.503.045.234.123.414v.065h-.782a1.2 1.2 0 0 1-.11-.278 1.7 1.7 0 0 1-.062-.34q-.167.274-.54.487-.368.213-.953.213-.655 0-1.117-.356-.462-.36-.462-1.031m.806-.041q0 .369.233.577.237.204.728.205.49 0 .888-.311.4-.315.401-.663v-.618h-.982q-.626 0-.949.221a.68.68 0 0 0-.319.589m4.267 3.048v-6.149h.732l.037.581h.021q.18-.274.548-.467.372-.196.863-.196.88 0 1.408.634.527.635.527 1.604v.131q0 .973-.527 1.608-.528.634-1.408.634-.49 0-.839-.164a1.5 1.5 0 0 1-.556-.446v2.23zm.806-3.052q.14.294.45.528.315.23.765.229.667 0 .978-.45.31-.454.311-1.117v-.131q0-.659-.311-1.109-.31-.454-.978-.454-.45 0-.765.233a1.4 1.4 0 0 0-.45.524zm4.046.045q0-.68.561-1.056.564-.38 1.428-.38h1.068v-.348a.83.83 0 0 0-.221-.597q-.22-.233-.761-.233-.54 0-.773.208a.62.62 0 0 0-.23.475v.02h-.806v-.02q0-.533.495-.933t1.334-.401 1.301.372q.467.373.467 1.109v2.107q0 .267.041.503.045.234.122.414v.065h-.781a1.3 1.3 0 0 1-.111-.278 1.7 1.7 0 0 1-.061-.34q-.168.274-.54.487-.368.213-.953.213-.655 0-1.117-.356-.462-.36-.463-1.031m.806-.041q0 .369.234.577.237.204.728.205.49 0 .888-.311.4-.315.401-.663v-.618h-.982q-.627 0-.949.221a.68.68 0 0 0-.32.589m4.268 1.346v-4.447h1.149l1.216 3.068q.097.246.126.34.033.095.054.192h.041l.049-.192a4 4 0 0 1 .131-.331l1.219-3.077h1.125v4.447h-.786v-3.023q0-.25.004-.356l.017-.197h-.037a4 4 0 0 1-.053.197 5 5 0 0 1-.127.343l-1.207 3.036h-.757l-1.207-3.048a8 8 0 0 1-.123-.327q-.032-.115-.053-.201h-.041l.017.193q.008.106.004.331v3.052zm6.067-2.16v-.131q0-1.002.577-1.641.577-.638 1.522-.638.95 0 1.461.597.511.599.511 1.608v.344h-3.572v-.651h2.754v.009q0-.532-.266-.884-.261-.352-.888-.352-.626 0-.953.466-.327.463-.327 1.142v.131q0 .68.343 1.15.344.466 1.064.466.446 0 .765-.18.32-.18.516-.43l.519.438q-.213.311-.675.577-.462.262-1.125.262-1.075 0-1.653-.634-.573-.639-.573-1.649m4.46-1.637v-.65h3.662v.65h-1.428v3.797h-.806v-3.797zm4.431 5.499v-6.149h.732l.037.581h.021q.18-.274.548-.467.372-.196.863-.196.88 0 1.408.634.527.635.527 1.604v.131q0 .973-.527 1.608-.528.634-1.408.634-.49 0-.839-.164a1.5 1.5 0 0 1-.556-.446v2.23zm.806-3.052q.14.294.45.528.315.23.765.229.668 0 .978-.45.31-.454.311-1.117v-.131q0-.659-.311-1.109-.31-.454-.978-.454-.45 0-.765.233a1.4 1.4 0 0 0-.45.524zm4.398.921q0-.213.139-.365.14-.155.397-.155a.503.503 0 0 1 .532.52.53.53 0 0 1-.139.368.5.5 0 0 1-.393.151q-.258 0-.397-.151a.54.54 0 0 1-.139-.368m0-3.568q0-.217.139-.368.14-.156.397-.156a.5.5 0 0 1 .393.156.52.52 0 0 1 .139.368.52.52 0 0 1-.139.364.5.5 0 0 1-.393.151q-.258 0-.397-.151a.52.52 0 0 1-.139-.364m9.32 5.184v-1.187h-4.631v1.187h-.773v-1.886h6.178v1.886zm-4.124-7.144h4.124v5.957h-.834v-5.257h-2.59l-.106 2.569q-.041 1.018-.176 1.461-.135.442-.356.679h-.872q.295-.253.442-.696.147-.446.201-1.452zm5.372 3.797v-.131q0-1.002.598-1.641.597-.638 1.587-.638.999 0 1.596.638.597.639.597 1.641v.131q0 1.01-.597 1.649-.597.634-1.596.634-.99 0-1.587-.634-.598-.639-.598-1.649m.827-.131v.131q0 .675.339 1.141.345.467 1.019.467.68 0 1.023-.467.344-.466.344-1.141v-.131q0-.67-.344-1.137t-1.023-.467q-.674 0-1.019.467-.339.466-.339 1.137m4.504-2.156h2.815v.65h-2.009v3.797h-.806zm3.327 2.287v-.131q0-1.002.597-1.641.597-.638 1.588-.638.998 0 1.595.638.598.639.598 1.641v.131q0 1.01-.598 1.649-.597.634-1.595.634-.991 0-1.588-.634-.597-.639-.597-1.649m.826-.131v.131q0 .675.34 1.141.344.467 1.019.467.678 0 1.022-.467.344-.466.344-1.141v-.131q0-.67-.344-1.137t-1.022-.467q-.675 0-1.019.467-.34.466-.34 1.137m4.505 2.291v-4.447h1.919q.74 0 1.174.299.434.294.434.891a.9.9 0 0 1-.221.626 1.08 1.08 0 0 1-.598.332v.012q.463.07.716.331a.9.9 0 0 1 .258.663q0 .61-.454.954-.45.339-1.182.339zm.806-2.577h1.113q.422 0 .605-.168.188-.168.188-.471 0-.294-.188-.429-.183-.135-.605-.152h-1.113zm0 1.927h1.24q.425 0 .626-.168.2-.168.2-.475a.59.59 0 0 0-.196-.47q-.197-.172-.63-.172h-1.24zm3.559-1.51v-.131q0-1.002.598-1.641.597-.638 1.587-.638.999 0 1.596.638.597.639.597 1.641v.131q0 1.01-.597 1.649-.597.634-1.596.634-.99 0-1.587-.634-.598-.639-.598-1.649m.827-.131v.131q0 .675.339 1.141.345.467 1.019.467.68 0 1.023-.467.344-.466.344-1.141v-.131q0-.67-.344-1.137t-1.023-.467q-.674 0-1.019.467-.339.466-.339 1.137m4.504 3.993v-6.149h.733l.037.581h.02q.18-.274.548-.467.373-.196.864-.196.879 0 1.407.634.528.635.528 1.604v.131q0 .973-.528 1.608-.528.634-1.407.634-.491 0-.839-.164a1.5 1.5 0 0 1-.557-.446v2.23zm.806-3.052q.14.294.451.528.315.23.765.229.666 0 .977-.45.312-.454.311-1.117v-.131q0-.659-.311-1.109-.31-.454-.977-.454-.45 0-.765.233a1.4 1.4 0 0 0-.451.524zm-76.394 11.19v-.131q0-1.002.573-1.641.572-.638 1.571-.638.928 0 1.411.479.483.478.483 1.068v.02h-.786v-.02a.84.84 0 0 0-.261-.606q-.262-.266-.847-.266-.68 0-.999.467-.318.462-.319 1.137v.131q0 .68.319 1.146.32.466.999.466.585 0 .847-.262a.85.85 0 0 0 .261-.61v-.02h.786v.02q0 .586-.483 1.064t-1.411.479q-1 0-1.571-.634-.573-.639-.573-1.649m11.803 2.16h-.838v-4.255q0-.123.008-.274l.016-.278h-.041a3 3 0 0 1-.122.225 6 6 0 0 1-.156.245l-2.876 4.337h-.859v-5.957h.834v4.173q0 .123-.008.336a13 13 0 0 1-.016.331h.041a5 5 0 0 1 .294-.528l2.864-4.312h.859zm1.392 0v-5.957h4.762v5.957h-.839v-5.257h-3.089v5.257zm7.745-4.095q0-.884.597-1.432.597-.553 1.51-.553.912 0 1.571.622.658.623.658 2.013v.123q0 1.547-.9 2.492t-2.561.945h-.086v-.704h.086q1.224 0 1.927-.646.708-.651.708-2.046v-.205q0-1.035-.401-1.464a1.3 1.3 0 0 0-1.002-.434q-.61 0-.945.339-.332.34-.332.95t.332.945q.334.335.945.335.56 0 .994-.335.434-.336.434-.945h.306q0 .888-.523 1.432-.52.543-1.387.544-.863 0-1.4-.544-.531-.544-.531-1.432m7.712 4.095v-4.754h-.049l-1.907 2.672h3.617v.695h-4.57v-.589l2.921-3.981h.782v5.957zm2.156-1.514v-.041h.806v.041a.82.82 0 0 0 .336.692q.34.249.908.249.56 0 .92-.347.365-.352.365-.982t-.365-.962q-.36-.331-.92-.331-.385 0-.683.135-.295.135-.545.38l-.605-.29.303-2.987h3.318v.757h-2.635l-.176 1.637q.213-.131.511-.23.3-.102.655-.102.822 0 1.395.528.577.523.577 1.465 0 .94-.601 1.485-.602.54-1.514.54-.921 0-1.485-.466t-.565-1.171m4.893-.065q0-.532.307-.904.308-.377.786-.557v-.016a1.7 1.7 0 0 1-.634-.536 1.42 1.42 0 0 1-.262-.855q0-.736.544-1.183.545-.45 1.326-.45.777 0 1.321.45.544.447.544 1.183 0 .49-.266.855a1.65 1.65 0 0 1-.63.536v.016q.478.18.786.557.31.372.311.904 0 .81-.602 1.256t-1.464.446q-.868 0-1.469-.446-.598-.446-.598-1.256m.823-.049q0 .47.339.765.344.294.905.294.556 0 .9-.294a.96.96 0 0 0 .343-.765.97.97 0 0 0-.343-.773q-.344-.3-.9-.299-.561 0-.905.299a.97.97 0 0 0-.339.773m.18-2.77q0 .438.294.72.295.282.77.282.47 0 .765-.282a.95.95 0 0 0 .298-.72.93.93 0 0 0-.298-.708q-.296-.282-.765-.282-.475 0-.77.282a.93.93 0 0 0-.294.708m3.903 4.398v-.638l2.275-2.254a6 6 0 0 0 .663-.761 1.26 1.26 0 0 0 .241-.737.93.93 0 0 0-.299-.691q-.294-.295-.814-.295-.536 0-.888.319-.351.315-.352.863v.041h-.83v-.041q0-.817.589-1.35.594-.536 1.481-.536.872 0 1.403.495.536.492.536 1.154 0 .581-.339 1.052a7.5 7.5 0 0 1-.835.953l-1.767 1.718h3.105v.708zm4.717-4.095q0-.884.598-1.432.597-.553 1.509-.553.913 0 1.572.622.658.623.658 2.013v.123q0 1.547-.9 2.492t-2.561.945h-.086v-.704h.086q1.223 0 1.927-.646.708-.651.708-2.046v-.205q0-1.035-.401-1.464a1.3 1.3 0 0 0-1.003-.434q-.609 0-.945.339-.331.34-.331.95t.331.945q.336.335.945.335.561 0 .995-.335.433-.336.433-.945h.307q0 .888-.524 1.432-.519.543-1.386.544-.864 0-1.4-.544-.531-.544-.532-1.432m7.713 4.095v-4.754h-.049l-1.907 2.672h3.617v.695h-4.57v-.589l2.921-3.981h.781v5.957zm2.156-1.514v-.041h.806v.041q0 .438.335.692.34.249.909.249.56 0 .92-.347.364-.352.364-.982t-.364-.962q-.36-.331-.92-.331-.385 0-.684.135-.294.135-.544.38l-.605-.29.302-2.987h3.319v.757h-2.635l-.176 1.637q.213-.131.511-.23.299-.102.655-.102.822 0 1.395.528.577.523.577 1.465 0 .94-.602 1.485-.601.54-1.513.54-.92 0-1.486-.466-.564-.466-.564-1.171m5.752 1.514 2.373-5.241h-3.314v-.716h4.194v.499l-2.389 5.458zm5.908 0v-5.053l-1.587.639v-.806l2.246-.819h.18v6.039z"/><circle cx="6" cy="6" r="5.25" fill="#fff" stroke="#e4e4e4" stroke-width="1.5" transform="matrix(-1 0 0 1 289 219.688)"/><circle cx="6" cy="6" r="5.25" fill="#fff" stroke="#e4e4e4" stroke-width="1.5" transform="matrix(-1 0 0 1 289 327.688)"/></g><path stroke="#e4e4e4" d="M134 159.688c0 45.109 149 9.739 149 61"/><path fill="#000" d="M111.266 69.047v-7.11h5.59v7.11h-.981v-6.294h-3.628v6.294zm7.148 2.031v-7.29h.859l.044.689h.025q.21-.328.639-.557t1.001-.23q1.03 0 1.646.752.62.747.62 1.895v.156q0 1.152-.62 1.904-.615.747-1.646.747-.57 0-.976-.195a1.7 1.7 0 0 1-.645-.522v2.651zm.947-3.618q.162.351.523.625.366.273.888.273.777 0 1.138-.537.366-.537.366-1.328v-.156q0-.78-.366-1.318-.361-.538-1.138-.538-.522 0-.888.274a1.7 1.7 0 0 0-.523.62zm4.722-.967v-.156q0-1.186.693-1.939.699-.756 1.861-.756 1.167 0 1.86.756.698.753.698 1.939v.156q0 1.192-.698 1.948-.693.752-1.86.752-1.162 0-1.861-.752-.693-.757-.693-1.948m.972-.156v.156q0 .805.395 1.363.4.55 1.187.551.79 0 1.191-.551.4-.558.401-1.363v-.156q0-.796-.401-1.348-.4-.556-1.191-.556-.786 0-1.187.556-.395.552-.395 1.348m5.283 2.71v-5.259h2.27q.875 0 1.382.352.513.351.513 1.054 0 .445-.264.742a1.26 1.26 0 0 1-.708.391v.015q.547.083.85.39.303.309.303.787 0 .722-.533 1.127-.531.4-1.396.4zm.947-3.047h1.323q.499 0 .718-.2.22-.201.22-.557 0-.347-.22-.512-.22-.171-.718-.186h-1.323zm0 2.29h1.47q.503 0 .742-.205.24-.206.239-.566 0-.357-.234-.562t-.747-.205h-1.47zm4.253-1.797v-.156q0-1.186.674-1.939.674-.756 1.777-.756 1.113 0 1.709.708.596.703.596 1.899v.4h-4.17v-.761h3.213v-.03q0-.61-.317-1.02-.313-.415-1.016-.415-.742 0-1.123.556-.381.551-.381 1.358v.156q0 .805.4 1.363.4.556 1.241.556.518 0 .888-.215a2 2 0 0 0 .606-.512l.61.507q-.253.372-.796.689-.537.312-1.308.312-1.26 0-1.934-.752-.669-.757-.669-1.948m5.786 4.585v-7.29h.86l.044.689h.024q.21-.328.64-.557t1.001-.23q1.03 0 1.645.752.62.747.62 1.895v.156q0 1.152-.62 1.904-.615.747-1.645.747-.572 0-.977-.195a1.7 1.7 0 0 1-.645-.522v2.651zm.947-3.618q.162.351.523.625.366.273.889.273.775 0 1.137-.537.366-.537.367-1.328v-.156q0-.78-.367-1.318-.362-.538-1.137-.538-.523 0-.889.274a1.7 1.7 0 0 0-.523.62zm8.448 1.587-2.061-2.437.596-.615 2.651 3.052zm-2.945-3.042h.953l1.845-2.217h1.089l-2.51 2.969h-1.377zm.474-2.217v5.259h-.947v-5.259zm4.092 3.711q0-.801.654-1.245.66-.444 1.665-.444h1.245v-.4q0-.445-.258-.724-.254-.282-.884-.283-.626 0-.894.244a.75.75 0 0 0-.268.567v.024h-.948v-.024q0-.63.577-1.099.575-.473 1.562-.473.976 0 1.519.444t.542 1.323v2.466q0 .318.048.6a2.6 2.6 0 0 0 .142.494v.078h-.918a1.7 1.7 0 0 1-.127-.327 2 2 0 0 1-.073-.4q-.195.321-.625.576-.43.248-1.109.248-.771 0-1.313-.42-.537-.424-.537-1.225m.947-.049q0 .44.269.689.273.249.849.249.571 0 1.035-.371.464-.377.464-.791v-.738h-1.142q-.728 0-1.104.264a.81.81 0 0 0-.371.698m-38.364 13.628v-.81a2.2 2.2 0 0 0 .61.088q.361 0 .606-.21.249-.21.571-1.133v-.005l-2.007-5.22h.938l1.269 3.428q.074.2.132.386.063.184.098.366h.029q.04-.18.098-.366.063-.186.136-.386l1.192-3.428h.898l-2.192 5.943q-.254.683-.679 1.064-.42.38-1.035.38-.205 0-.366-.024a2 2 0 0 1-.298-.073m4.98-4.585v-.156q0-1.186.669-1.939.669-.756 1.836-.756 1.084 0 1.646.566.566.567.566 1.265v.024h-.923v-.024q0-.416-.307-.728-.303-.317-.982-.317-.791 0-1.162.556-.37.553-.371 1.353v.156q0 .805.371 1.363.371.55 1.162.551.68 0 .982-.312.307-.317.307-.728v-.024h.923v.024q0 .693-.566 1.26-.562.567-1.646.566-1.167 0-1.836-.752-.669-.757-.669-1.948m6.993-1.948-.088 2.11q-.059 1.289-.352 1.889-.293.596-1.03.596-.171 0-.303-.025a1 1 0 0 1-.225-.063v-.83a1 1 0 0 0 .171.049q.093.014.201.014.37 0 .498-.37.131-.371.175-1.388l.118-2.739h3.779v5.259h-.952v-4.502zm4.091 1.948v-.156q0-1.186.694-1.939.698-.756 1.86-.756 1.167 0 1.86.756.699.753.699 1.939v.156q0 1.192-.699 1.948-.693.752-1.86.752-1.162 0-1.86-.752-.694-.757-.694-1.948m.972-.156v.156q0 .805.395 1.363.4.55 1.187.551.79 0 1.191-.551.4-.558.401-1.363v-.156q0-.796-.401-1.348-.4-.556-1.191-.556-.786 0-1.187.556-.395.552-.395 1.348m5.283 2.71v-5.259h2.271q.873 0 1.382.352.512.351.512 1.054 0 .445-.263.742a1.26 1.26 0 0 1-.708.391v.015q.546.083.849.39.303.309.303.787 0 .722-.532 1.127-.533.4-1.397.4zm.947-3.047h1.324q.498 0 .717-.2.22-.201.22-.557 0-.347-.22-.512-.219-.171-.717-.186h-1.324zm0 2.29h1.47q.503 0 .742-.205.24-.206.24-.566 0-.357-.235-.562t-.747-.205h-1.47zm4.561.757v-5.259h.942v3.276q0 .151-.004.342 0 .186-.005.337h.044q.068-.127.151-.273.088-.147.185-.303l2.144-3.379h.962v5.259h-.942v-3.613q.005-.191.014-.337h-.053a7 7 0 0 1-.152.273q-.082.152-.181.308l-2.143 3.369zm6.572 0h-1.059l1.528-2.217.962.083zm2.354 0v-1.89h-1.162l-.088-.049q-.937 0-1.446-.44-.507-.439-.507-1.18 0-.773.517-1.236.523-.465 1.48-.464h2.153v5.259zM150.47 76.4h1.206v-1.855h-1.206q-.572 0-.806.269a1 1 0 0 0-.229.673q0 .4.229.66.234.253.806.253"/><path fill="#bcbccf" d="M94.338 95.688V89.73h.835v2.533h3.17V89.73h.84v5.957h-.84v-2.72h-3.17v2.72zm5.908-1.306q0-.678.56-1.055.566-.38 1.428-.38h1.068v-.349q0-.368-.221-.597-.22-.233-.761-.233-.54 0-.773.209a.62.62 0 0 0-.229.474v.02h-.806v-.02q0-.531.495-.933.495-.4 1.334-.4t1.301.372q.466.372.466 1.109v2.107q0 .266.041.503.045.233.123.413v.066h-.782a1.65 1.65 0 0 1-.171-.618q-.168.273-.541.487-.368.212-.953.212-.654 0-1.117-.356-.462-.36-.462-1.03m.806-.04q0 .368.233.576.237.205.728.205.492 0 .888-.311.401-.315.401-.663v-.618h-.982q-.625 0-.949.221a.68.68 0 0 0-.319.59m5.384-2.451-.073 1.792q-.05 1.068-.303 1.575-.253.503-.868.503a1.4 1.4 0 0 1-.253-.02.7.7 0 0 1-.184-.053v-.72q.07.028.143.04.078.013.168.013.302 0 .413-.303t.147-1.142l.098-2.336h3.245v4.448h-.81V91.89zm3.744 3.796V91.24h.806v2.782q0 .127-.004.287 0 .159-.004.286h.032l.127-.229a6 6 0 0 1 .16-.258l1.833-2.868h.822v4.448h-.806v-3.061l.008-.286h-.032q-.058.105-.131.233a5 5 0 0 1-.156.254l-1.833 2.86zm5.707-3.162q0 .531.205.749.204.212.675.212.438 0 .769-.065.332-.066.749-.172v.65l-.732.164q-.344.074-.872.074-.838 0-1.219-.41-.381-.408-.381-1.202V91.24h.806zm2.803-1.285v4.448h-.806V91.24zm1.211 4.448V91.24h.806v2.782q0 .127-.004.287 0 .159-.004.286h.033l.126-.229q.075-.127.16-.258l1.833-2.868h.822v4.448h-.806v-3.061l.008-.286h-.032a8 8 0 0 1-.287.487l-1.833 2.86zm4.726-2.16v-.132q0-1.002.576-1.64.577-.639 1.522-.639.95 0 1.461.598.512.597.512 1.608v.343h-3.572v-.65h2.753v.008q0-.533-.266-.884-.261-.351-.888-.352-.626 0-.953.467-.327.462-.327 1.141v.131q0 .68.344 1.15.343.466 1.063.466.447 0 .765-.18a1.7 1.7 0 0 0 .516-.43l.52.439q-.213.311-.676.576-.462.262-1.125.262-1.076 0-1.653-.634-.572-.638-.572-1.649m10.416 3.264v-1.105h-3.277v1.105h-.753v-1.755h4.783v1.755zm-2.45-4.901-.054 1.231q-.045.978-.106 1.354a2 2 0 0 1-.172.602h-.822q.171-.233.245-.606.078-.372.119-1.423l.078-1.809h3.281v4.448h-.81V91.89zm3.637 1.636v-.13q0-1.003.597-1.641t1.588-.639q.998 0 1.595.639.598.638.598 1.64v.131q0 1.011-.598 1.65-.597.633-1.595.633-.99 0-1.588-.634-.597-.638-.597-1.649m.826-.13v.13q0 .675.34 1.142.344.465 1.019.466.678 0 1.022-.466.344-.467.344-1.142v-.13q0-.672-.344-1.138t-1.022-.466q-.675 0-1.019.466-.34.466-.34 1.137m7.398 2.29-1.727-2.078.511-.515 2.234 2.594zm-2.488-2.573h.822l1.535-1.874h.92l-2.099 2.52h-1.178zm.401-1.874v4.448h-.806V91.24zm3.355 6.15v-.692a1.9 1.9 0 0 0 .519.074.8.8 0 0 0 .512-.16q.204-.16.487-.961v-.004l-1.71-4.407h.806l1.084 2.889q.062.167.11.331.053.16.086.32h.025a2 2 0 0 1 .082-.32q.053-.164.114-.331l1.019-2.889h.765l-1.87 5.02q-.216.574-.581.892-.36.32-.884.32a2 2 0 0 1-.31-.021 1.4 1.4 0 0 1-.254-.061m4.505-1.703V91.24h1.149l1.215 3.069q.099.244.127.34.033.093.053.192h.041l.049-.193a4 4 0 0 1 .131-.331l1.22-3.077h1.125v4.448h-.786v-3.024q0-.25.004-.356.008-.112.017-.196h-.037l-.053.196q-.034.105-.127.344l-1.207 3.035h-.757l-1.207-3.048a8 8 0 0 1-.123-.327 5 5 0 0 1-.053-.2h-.041q.009.086.016.192.008.105.005.331v3.052zm6.067-2.16v-.13q0-1.003.577-1.641t1.522-.639q.95 0 1.461.598.511.597.511 1.608v.343h-3.572v-.65h2.754v.008q0-.533-.266-.884-.262-.351-.888-.352-.626 0-.953.467-.328.462-.328 1.141v.131q0 .68.344 1.15.344.466 1.064.466.446 0 .765-.18t.515-.43l.52.439q-.213.311-.675.576-.462.262-1.125.262-1.077 0-1.653-.634-.573-.638-.573-1.649m4.906-2.287h.806v1.87h2.115v-1.87h.806v4.448h-.806V93.76h-2.115v1.927h-.806zm4.496.65v-.65h3.662v.65h-1.428v3.797h-.806v-3.796zm4.194 2.492q0-.678.56-1.055.566-.38 1.428-.38h1.068v-.349a.83.83 0 0 0-.221-.597q-.22-.233-.761-.233-.54 0-.773.209a.62.62 0 0 0-.229.474v.02h-.806v-.02q0-.531.495-.933.495-.4 1.334-.4.838 0 1.301.372.466.372.466 1.109v2.107q0 .266.041.503.045.233.123.413v.066h-.782a1.3 1.3 0 0 1-.11-.279 1.7 1.7 0 0 1-.062-.34q-.167.275-.54.488-.368.212-.953.212-.654 0-1.117-.356-.462-.36-.462-1.03m.806-.04q0 .368.233.576.237.205.728.205.492 0 .888-.311.4-.315.401-.663v-.618h-.982q-.626 0-.949.221a.68.68 0 0 0-.319.59m-48.831 11.346v-4.448h1.919q.74 0 1.174.299.434.294.434.892a.9.9 0 0 1-.221.626 1.08 1.08 0 0 1-.598.331v.012q.463.07.716.332a.9.9 0 0 1 .258.663q0 .61-.454.953-.45.34-1.182.34zm.806-2.578h1.113q.422 0 .605-.168.189-.168.188-.47 0-.295-.188-.43-.183-.135-.605-.151h-1.113zm0 1.927h1.24q.425 0 .626-.168.2-.168.2-.474a.6.6 0 0 0-.196-.471q-.196-.172-.63-.172h-1.24zm6.452-1.518v.131q0 .626.344 1.056.343.429 1.018.429.68 0 1.019-.429.344-.43.344-1.056v-.131q0-.626-.344-1.056-.34-.429-1.019-.429-.675 0-1.018.429-.344.43-.344 1.056m1.473-2.16q.888 0 1.481.601.597.602.597 1.559v.131q0 .957-.597 1.559-.593.601-1.592.601-1.014 0-1.603-.618-.585-.617-.585-1.865v-.188q0-1.478.519-2.316.523-.843 1.899-1.056.76-.119.879-.188.119-.075.139-.176h.692q-.045.467-.352.716-.308.246-1.272.372-1.068.14-1.441.618-.372.475-.437 1.219h.045q.2-.465.617-.716.418-.253 1.011-.253m2.798 3.023a1.2 1.2 0 0 1 .561-1.055q.564-.381 1.428-.381h1.068v-.348a.83.83 0 0 0-.221-.597q-.22-.233-.761-.233-.54 0-.773.209a.62.62 0 0 0-.23.474v.021h-.806v-.021q0-.531.495-.933.496-.4 1.334-.401.839 0 1.301.373.467.372.467 1.108v2.108q0 .266.041.503.045.233.122.413v.066h-.781a1.3 1.3 0 0 1-.111-.279 1.7 1.7 0 0 1-.061-.339q-.168.274-.54.487-.368.212-.953.212-.655 0-1.117-.356-.462-.36-.463-1.031m.806-.041q0 .369.234.577.237.205.728.205.49 0 .888-.311.4-.315.401-.663v-.618h-.982q-.627 0-.949.221a.68.68 0 0 0-.32.589m5.716 1.469q-.933 0-1.415-.466-.483-.467-.483-1.039v-.021h.789v.021q0 .326.262.581.262.253.847.253.545 0 .806-.196a.64.64 0 0 0 .266-.548.57.57 0 0 0-.213-.471q-.208-.172-.744-.172h-.774v-.642h.778q.429 0 .618-.168.188-.168.188-.47 0-.344-.213-.512-.208-.168-.667-.168-.552 0-.806.254a.8.8 0 0 0-.249.577v.02h-.786v-.02q0-.577.466-1.039.47-.467 1.375-.467.774 0 1.236.332.462.327.462.978a.91.91 0 0 1-.225.63 1.1 1.1 0 0 1-.61.331v.012q.463.07.716.332a.9.9 0 0 1 .258.663q0 .67-.519 1.043-.516.372-1.363.372m2.525-2.283v-.131q0-1.002.576-1.64.577-.639 1.522-.639.95 0 1.461.598.512.597.512 1.608v.343h-3.572v-.65h2.753v.008q0-.532-.266-.884-.261-.352-.888-.352-.626 0-.953.467-.327.463-.327 1.141v.131q0 .68.344 1.15.343.466 1.063.466.447 0 .765-.18.32-.18.516-.429l.52.438q-.213.31-.676.576-.462.262-1.125.262-1.076 0-1.653-.634-.572-.638-.572-1.649"/><circle cx="6" cy="6" r="5.25" fill="#fff" stroke="#e4e4e4" stroke-width="1.5" transform="matrix(-1 0 0 1 140 147.688)"/><circle cx="6" cy="6" r="5.25" fill="#fff" stroke="#e4e4e4" stroke-width="1.5" transform="matrix(-1 0 0 1 124 449.688)"/><defs><clipPath id="b"><path fill="#fff" d="M67 477.688h10v10H67z"/></clipPath><clipPath id="e"><path fill="#fff" d="M234.614 246.297h8.202v8.202h-8.202z"/></clipPath><clipPath id="f"><path fill="#fff" d="M330.786 248.445h3.911v3.911h-3.911z"/></clipPath><filter id="a" width="237" height="221" x="0" y="446.688" color-interpolation-filters="sRGB" filterUnits="userSpaceOnUse"><feFlood flood-opacity="0" result="BackgroundImageFix"/><feColorMatrix in="SourceAlpha" result="hardAlpha" values="0 0 0 0 0 0 0 0 0 0 0 0 0 0 0 0 0 0 127 0"/><feOffset dy="7"/><feGaussianBlur stdDeviation="8"/><feColorMatrix values="0 0 0 0 0.741176 0 0 0 0 0.741176 0 0 0 0 0.741176 0 0 0 0.1 0"/><feBlend in2="BackgroundImageFix" result="effect1_dropShadow_2001_1240"/><feColorMatrix in="SourceAlpha" result="hardAlpha" values="0 0 0 0 0 0 0 0 0 0 0 0 0 0 0 0 0 0 127 0"/><feOffset dy="28"/><feGaussianBlur stdDeviation="14"/><feColorMatrix values="0 0 0 0 0.741176 0 0 0 0 0.741176 0 0 0 0 0.741176 0 0 0 0.09 0"/><feBlend in2="effect1_dropShadow_2001_1240" result="effect2_dropShadow_2001_1240"/><feColorMatrix in="SourceAlpha" result="hardAlpha" values="0 0 0 0 0 0 0 0 0 0 0 0 0 0 0 0 0 0 127 0"/><feOffset dy="64"/><feGaussianBlur stdDeviation="19"/><feColorMatrix values="0 0 0 0 0.741176 0 0 0 0 0.741176 0 0 0 0 0.741176 0 0 0 0.05 0"/><feBlend in2="effect2_dropShadow_2001_1240" result="effect3_dropShadow_2001_1240"/><feColorMatrix in="SourceAlpha" result="hardAlpha" values="0 0 0 0 0 0 0 0 0 0 0 0 0 0 0 0 0 0 127 0"/><feOffset dy="113"/><feGaussianBlur stdDeviation="22.5"/><feColorMatrix values="0 0 0 0 0.741176 0 0 0 0 0.741176 0 0 0 0 0.741176 0 0 0 0.01 0"/><feBlend in2="effect3_dropShadow_2001_1240" result="effect4_dropShadow_2001_1240"/><feBlend in="SourceGraphic" in2="effect4_dropShadow_2001_1240" result="shape"/></filter><filter id="c" width="235.373" height="312.375" x="16.314" y="0" color-interpolation-filters="sRGB" filterUnits="userSpaceOnUse"><feFlood flood-opacity="0" result="BackgroundImageFix"/><feColorMatrix in="SourceAlpha" result="hardAlpha" values="0 0 0 0 0 0 0 0 0 0 0 0 0 0 0 0 0 0 127 0"/><feOffset dy="7"/><feGaussianBlur stdDeviation="8"/><feColorMatrix values="0 0 0 0 0.741176 0 0 0 0 0.741176 0 0 0 0 0.741176 0 0 0 0.1 0"/><feBlend in2="BackgroundImageFix" result="effect1_dropShadow_2001_1240"/><feColorMatrix in="SourceAlpha" result="hardAlpha" values="0 0 0 0 0 0 0 0 0 0 0 0 0 0 0 0 0 0 127 0"/><feOffset dy="28"/><feGaussianBlur stdDeviation="14"/><feColorMatrix values="0 0 0 0 0.741176 0 0 0 0 0.741176 0 0 0 0 0.741176 0 0 0 0.09 0"/><feBlend in2="effect1_dropShadow_2001_1240" result="effect2_dropShadow_2001_1240"/><feColorMatrix in="SourceAlpha" result="hardAlpha" values="0 0 0 0 0 0 0 0 0 0 0 0 0 0 0 0 0 0 127 0"/><feOffset dy="64"/><feGaussianBlur stdDeviation="19"/><feColorMatrix values="0 0 0 0 0.741176 0 0 0 0 0.741176 0 0 0 0 0.741176 0 0 0 0.05 0"/><feBlend in2="effect2_dropShadow_2001_1240" result="effect3_dropShadow_2001_1240"/><feColorMatrix in="SourceAlpha" result="hardAlpha" values="0 0 0 0 0 0 0 0 0 0 0 0 0 0 0 0 0 0 127 0"/><feOffset dy="113"/><feGaussianBlur stdDeviation="22.5"/><feColorMatrix values="0 0 0 0 0.741176 0 0 0 0 0.741176 0 0 0 0 0.741176 0 0 0 0.01 0"/><feBlend in2="effect3_dropShadow_2001_1240" result="effect4_dropShadow_2001_1240"/><feBlend in="SourceGraphic" in2="effect4_dropShadow_2001_1240" result="shape"/></filter><filter id="d" width="228" height="287" x="169" y="210.688" color-interpolation-filters="sRGB" filterUnits="userSpaceOnUse"><feFlood flood-opacity="0" result="BackgroundImageFix"/><feColorMatrix in="SourceAlpha" result="hardAlpha" values="0 0 0 0 0 0 0 0 0 0 0 0 0 0 0 0 0 0 127 0"/><feOffset dy="7"/><feGaussianBlur stdDeviation="8"/><feColorMatrix values="0 0 0 0 0.741176 0 0 0 0 0.741176 0 0 0 0 0.741176 0 0 0 0.1 0"/><feBlend in2="BackgroundImageFix" result="effect1_dropShadow_2001_1240"/><feColorMatrix in="SourceAlpha" result="hardAlpha" values="0 0 0 0 0 0 0 0 0 0 0 0 0 0 0 0 0 0 127 0"/><feOffset dy="28"/><feGaussianBlur stdDeviation="14"/><feColorMatrix values="0 0 0 0 0.741176 0 0 0 0 0.741176 0 0 0 0 0.741176 0 0 0 0.09 0"/><feBlend in2="effect1_dropShadow_2001_1240" result="effect2_dropShadow_2001_1240"/><feColorMatrix in="SourceAlpha" result="hardAlpha" values="0 0 0 0 0 0 0 0 0 0 0 0 0 0 0 0 0 0 127 0"/><feOffset dy="64"/><feGaussianBlur stdDeviation="19"/><feColorMatrix values="0 0 0 0 0.741176 0 0 0 0 0.741176 0 0 0 0 0.741176 0 0 0 0.05 0"/><feBlend in2="effect2_dropShadow_2001_1240" result="effect3_dropShadow_2001_1240"/><feColorMatrix in="SourceAlpha" result="hardAlpha" values="0 0 0 0 0 0 0 0 0 0 0 0 0 0 0 0 0 0 127 0"/><feOffset dy="113"/><feGaussianBlur stdDeviation="22.5"/><feColorMatrix values="0 0 0 0 0.741176 0 0 0 0 0.741176 0 0 0 0 0.741176 0 0 0 0.01 0"/><feBlend in2="effect3_dropShadow_2001_1240" result="effect4_dropShadow_2001_1240"/><feBlend in="SourceGraphic" in2="effect4_dropShadow_2001_1240" result="shape"/></filter></defs></svg>