<svg xmlns="http://www.w3.org/2000/svg" width="147" height="38" fill="none" viewBox="0 0 147 38"><path fill="#16183b" d="M10.003 22.947c0 4.359 3.531 7.893 7.887 7.893l-2.998 5.676c-.228.43-.674.7-1.16.7H1.311A1.313 1.313 0 0 1 0 35.902v-7.836c0-.39.173-.759.471-1.009l9.532-7.963zm24.378 3.133a2.19 2.19 0 0 1 .784 1.679v.891c0 1.21-.98 2.19-2.188 2.19H17.89l6.802-12.877zM18.033 12.385l-8.03 6.709V7.534a.875.875 0 0 1 1.437-.672zm6.659 5.578-6.66-5.578L32.669.158c.552-.462 1.337.174 1 .811z"/><path fill="#16183b" d="M10.003 22.947c0 4.359 3.531 7.893 7.887 7.893l-2.998 5.676c-.228.43-.674.7-1.16.7H1.311A1.313 1.313 0 0 1 0 35.902v-7.836c0-.39.173-.759.471-1.009l9.532-7.963zm24.378 3.133a2.19 2.19 0 0 1 .784 1.679v.891c0 1.21-.98 2.19-2.188 2.19H17.89l6.802-12.877zM18.033 12.385l-8.03 6.709V7.534a.875.875 0 0 1 1.437-.672zm6.659 5.578-6.66-5.578L32.669.158c.552-.462 1.337.174 1 .811zM49.343 23.76q0 .86.287 1.48.288.619.878.956.594.336 1.52.336h1.955q.893-.012 1.461-.325a1.94 1.94 0 0 0 .869-.956q.275-.629.275-1.49V15.57c0-.183.149-.332.33-.332h4.435c.182 0 .33.149.33.332v8.483q0 2.205-.968 3.841t-2.714 2.551q-1.712.894-4.005.913h-1.968q-2.33 0-4.078-.913-1.747-.913-2.726-2.55-.975-1.639-.976-3.842V15.57c0-.182.149-.33.33-.33h4.435c.182 0 .33.148.33.33zM63.559 30.648V15.57c0-.183.148-.332.33-.332h6.06c.114 0 .22.06.28.158l5.058 8.34c.173.285.612.161.612-.172V15.57c0-.183.148-.332.33-.332h4.277c.182 0 .33.149.33.332v15.078a.33.33 0 0 1-.33.331h-5.862a.33.33 0 0 1-.281-.16l-5.255-8.673c-.172-.286-.612-.164-.612.17v8.33a.33.33 0 0 1-.33.331H63.89a.33.33 0 0 1-.33-.33zM83.018 15.238h4.435c.182 0 .33.149.33.332v15.078a.33.33 0 0 1-.33.331h-4.435a.33.33 0 0 1-.33-.33v-15.08c0-.182.148-.33.33-.33"/><path fill="url(#a)" d="M117.119 15.238q2.014 0 3.446.704 1.431.702 2.182 1.994.751 1.29.751 3.032T122.747 24q-.75 1.291-2.182 1.994t-3.446.704h-5.08a.33.33 0 0 0-.33.331v3.62a.33.33 0 0 1-.33.33h-4.435a.33.33 0 0 1-.33-.33v-15.08a.33.33 0 0 1 .33-.33zm14.718 0c.14 0 .266.09.311.222l3.145 9.131a.33.33 0 0 0 .624 0l3.128-9.129a.33.33 0 0 1 .31-.224h7.313a.33.33 0 0 1 .33.331H147v15.08a.33.33 0 0 1-.33.33h-4.178a.33.33 0 0 1-.33-.33v-8.851c0-.369-.512-.461-.64-.115l-3.328 9.078a.33.33 0 0 1-.309.217h-4.576a.33.33 0 0 1-.309-.217l-3.328-9.044c-.128-.346-.64-.254-.64.114v8.816a.33.33 0 0 1-.33.33h-4.178a.33.33 0 0 1-.33-.33V15.569c0-.182.148-.33.33-.33zm-31.167 0q2.054 0 3.219 1.018t1.165 2.823q0 1.03-.435 1.93-.435.904-1.402 1.51a4 4 0 0 1-.217.148q.414.106.79.273 1.125.503 1.688 1.395.563.893.563 2.13c0 .824-.182 1.623-.542 2.308q-.543 1.03-1.65 1.616-1.105.587-2.764.587H89.784a.33.33 0 0 1-.323-.265l-.007-.062v-15.08c0-.182.148-.33.33-.33zm-5.912 9.424a.33.33 0 0 0-.33.331v2.068l.002-.002c0 .182.149.33.33.33h4.706q.652.001 1.026-.365.374-.368.375-.998 0-.567-.365-.964-.366-.399-1.078-.4zm17.281-5.204a.33.33 0 0 0-.33.331v2.36l.007.065a.33.33 0 0 0 .323.265h4.745q.75 0 1.164-.399.415-.398.415-1.112c0-.476-.139-.864-.415-1.123q-.414-.389-1.164-.387zm-17.279-.63a.33.33 0 0 0-.33.33v1.647c0 .182.149.33.33.33h3.915q.514.002.86-.336.345-.336.346-.86 0-.482-.316-.797-.315-.316-.89-.315z"/><defs><linearGradient id="a" x1="147" x2="110.472" y1="11.93" y2="63.221" gradientUnits="userSpaceOnUse"><stop offset=".226" stop-color="#9396ff"/><stop offset=".736" stop-color="#6e3aff"/></linearGradient></defs></svg>