<svg width="1339" height="1335" viewBox="0 0 1339 1335" fill="none" xmlns="http://www.w3.org/2000/svg">
<g opacity="0.3">
<path d="M1080.23 176.194H388.16C354.924 176.194 327.98 203.118 327.98 236.329V1021.09C327.98 1054.3 354.924 1081.23 388.16 1081.23H1080.23C1113.46 1081.23 1140.41 1054.3 1140.41 1021.09V236.329C1140.41 203.118 1113.46 176.194 1080.23 176.194Z" fill="#AFA9FF"/>
</g>
<g filter="url(#filter0_d_947_282)">
<path d="M908.816 99.2854L247.734 129.098C214.531 130.596 188.83 158.706 190.328 191.884L225.735 975.849C227.234 1009.03 255.365 1034.71 288.567 1033.21L949.649 1003.4C982.852 1001.9 1008.55 973.792 1007.05 940.614L971.648 156.648C970.149 123.47 942.018 97.7881 908.816 99.2854Z" fill="white"/>
<path d="M908.477 91.7761L247.395 121.589C210.042 123.273 181.128 154.897 182.814 192.222L218.221 976.188C219.907 1013.51 251.554 1042.41 288.907 1040.72L949.989 1010.91C987.342 1009.22 1016.26 977.6 1014.57 940.275L979.163 156.309C977.477 118.984 945.83 90.0916 908.477 91.7761Z" stroke="#D3D4FF" stroke-width="5"/>
<path d="M334.527 450.244L338.258 532.845M338.258 532.845L392.363 530.407M338.258 532.845L341.785 610.943M341.785 610.943L345.312 689.037M341.785 610.943L395.893 608.501M402.877 763.193L372.82 764.549C359.538 765.147 348.284 754.873 347.686 741.604L345.312 689.037M345.312 689.037L399.419 686.599" stroke="#F4F4F4" stroke-width="2"/>
<path d="M467.3 543.525L467.032 537.572L444.675 538.579L444.943 544.533L441.407 544.692L440.992 535.494L470.417 534.168L470.835 543.366L467.3 543.525ZM445.954 508.566L465.515 507.682L466.866 537.578L462.922 537.755L461.718 511.104L449.574 511.654L449.324 524.811C449.264 527.722 449.098 530.013 448.831 531.685C448.563 533.357 448.277 534.652 447.976 535.569L443.806 535.759C444.311 534.776 444.723 533.426 445.042 531.712C445.376 529.995 445.572 527.764 445.626 525.019L445.954 508.566ZM474.223 537.247L473.246 515.647L477.007 515.475L477.609 528.801C477.627 529.213 477.642 529.679 477.651 530.199C477.675 530.708 477.69 531.165 477.693 531.577L477.897 531.568C478.075 531.216 478.271 530.837 478.484 530.431C478.713 530.007 478.948 529.58 479.188 529.144L487.138 515.018L490.959 514.847L491.934 536.447L488.176 536.619L487.574 523.311C487.556 522.902 487.541 522.421 487.529 521.874C487.532 521.327 487.538 520.845 487.547 520.433L487.237 520.446C487.09 520.797 486.9 521.197 486.675 521.645C486.461 522.093 486.235 522.535 485.995 522.971L478.045 537.076L474.223 537.247ZM506.038 536.429C502.875 536.571 500.51 535.903 498.948 534.424C497.399 532.93 496.58 531.225 496.493 529.309L496.487 529.207L500.188 529.039L500.191 529.141C500.242 530.251 500.691 531.246 501.542 532.127C502.391 533.008 503.85 533.402 505.917 533.308C507.617 533.23 508.917 532.83 509.817 532.103C510.716 531.375 511.141 530.419 511.087 529.228C511.044 528.269 510.686 527.517 510.018 526.97C509.347 526.426 508.315 526.182 506.916 526.246L503.116 526.417L502.983 523.461L506.167 523.317C507.578 523.254 508.58 522.926 509.17 522.34C509.76 521.735 510.033 520.948 509.991 519.976C509.94 518.867 509.51 518.031 508.703 517.463C507.909 516.895 506.814 516.642 505.415 516.705C503.633 516.786 502.312 517.264 501.446 518.139C500.591 519.002 500.194 520.076 500.251 521.363L500.257 521.465L496.559 521.63L496.553 521.528C496.451 519.243 497.155 517.379 498.668 515.941C500.197 514.498 502.397 513.713 505.273 513.584C508.014 513.461 510.103 513.936 511.538 515.009C512.985 516.083 513.753 517.577 513.84 519.495C513.888 520.602 513.566 521.627 512.865 522.562C512.167 523.5 511.201 524.126 509.964 524.442L509.967 524.505C511.457 524.655 512.639 525.13 513.512 525.927C514.399 526.712 514.872 527.752 514.929 529.054C515.031 531.3 514.234 533.062 512.534 534.346C510.849 535.615 508.682 536.309 506.038 536.429ZM519.06 528.846C518.961 526.657 519.752 524.914 521.438 523.618C523.123 522.319 525.307 521.609 527.991 521.489L532.884 521.269L532.817 519.79C532.757 518.491 532.375 517.451 531.668 516.675C530.958 515.884 529.781 515.523 528.139 515.599C526.496 515.674 525.331 516.068 524.651 516.783C523.983 517.487 523.667 518.284 523.709 519.174L523.712 519.276L519.912 519.447L519.906 519.345C519.831 517.634 520.523 516.107 521.985 514.766C523.463 513.41 525.5 512.673 528.102 512.556C530.705 512.439 532.748 512.971 534.229 514.152C535.724 515.331 536.528 517.153 536.639 519.619L537.084 529.475C537.123 530.365 537.229 531.204 537.403 531.991C537.575 532.764 537.797 533.447 538.071 534.039L538.086 534.367L534.388 534.532C534.181 534.201 533.982 533.762 533.792 533.224C533.618 532.683 533.498 532.139 533.431 531.595C532.965 532.506 532.18 533.329 531.072 534.066C529.98 534.8 528.545 535.209 526.763 535.29C524.708 535.383 522.936 534.878 521.444 533.78C519.954 532.68 519.157 531.038 519.06 528.846ZM522.873 528.468C522.927 529.7 523.327 530.65 524.07 531.315C524.814 531.982 525.942 532.28 527.446 532.214C528.954 532.145 530.293 531.565 531.466 530.467C532.637 529.373 533.197 528.242 533.145 527.078L533.004 523.978L528.527 524.18C526.607 524.267 525.172 524.697 524.218 525.467C523.264 526.237 522.816 527.238 522.873 528.468ZM543.265 534.132L542.29 512.532L546.051 512.363L546.653 525.689C546.671 526.098 546.683 526.564 546.695 527.087C546.716 527.593 546.731 528.053 546.737 528.462L546.942 528.453C547.116 528.104 547.312 527.725 547.528 527.316C547.757 526.895 547.992 526.465 548.233 526.029L556.179 511.906L560.001 511.735L560.979 533.335L557.217 533.504L556.616 520.199C556.598 519.787 556.582 519.309 556.573 518.762C556.573 518.211 556.579 517.73 556.589 517.319L556.282 517.334C556.131 517.682 555.945 518.082 555.719 518.53C555.505 518.981 555.277 519.423 555.036 519.859L547.086 533.961L543.265 534.132ZM550.874 505.685C551.819 505.643 552.602 505.34 553.221 504.777C553.841 504.215 554.317 503.334 554.648 502.14L557.663 503.713C557.106 505.37 556.236 506.602 555.051 507.411C553.88 508.217 552.532 508.656 551.013 508.725C549.478 508.794 548.097 508.491 546.875 507.82C545.663 507.135 544.685 505.971 543.936 504.332L546.815 502.411C547.27 503.695 547.826 504.573 548.479 505.051C549.132 505.517 549.93 505.727 550.874 505.685ZM566.085 511.458L569.906 511.287L570.316 520.361L579.974 519.928L579.565 510.851L583.387 510.68L584.361 532.28L580.54 532.452L580.11 522.905L570.451 523.341L570.881 532.887L567.06 533.059L566.085 511.458Z" fill="black" fill-opacity="0.4"/>
<path d="M409.607 545.423C419.982 544.954 428.013 536.171 427.544 525.801C427.078 515.433 418.285 507.408 407.91 507.874C397.535 508.343 389.501 517.129 389.971 527.496C390.44 537.864 399.229 545.889 409.607 545.423Z" fill="black" fill-opacity="0.6"/>
<path d="M403.121 526.913L407.048 530.497L414.224 522.649" stroke="white" stroke-width="3.5" stroke-linecap="round" stroke-linejoin="round"/>
<path d="M446.327 605.738L446.239 603.85C446.032 599.249 447.049 595.611 449.287 592.929C451.541 590.25 454.517 588.825 458.218 588.66C461.916 588.491 465 589.643 467.474 592.111C469.959 594.577 471.307 598.11 471.515 602.71L471.599 604.598C471.807 609.199 470.784 612.837 468.53 615.519C466.291 618.198 463.321 619.62 459.623 619.789C455.925 619.954 452.832 618.805 450.347 616.337C447.873 613.871 446.534 610.338 446.327 605.738ZM450.313 605.558C450.47 609.063 451.382 611.779 453.049 613.706C454.728 615.633 456.867 616.538 459.47 616.421C462.073 616.304 464.119 615.209 465.602 613.141C467.101 611.069 467.772 608.282 467.615 604.779L467.528 602.888C467.371 599.385 466.451 596.67 464.772 594.742C463.108 592.815 460.971 591.91 458.368 592.027C455.766 592.144 453.717 593.239 452.218 595.308C450.732 597.379 450.07 600.163 450.226 603.669L450.313 605.558ZM479.967 607.512L479.997 608.17C480.093 610.29 480.701 612.061 481.824 613.477C482.943 614.882 484.544 615.537 486.626 615.444C488.708 615.348 490.246 614.554 491.233 613.053C492.223 611.541 492.668 609.725 492.572 607.602L492.545 606.947C492.448 604.824 491.841 603.062 490.718 601.658C489.599 600.242 487.995 599.58 485.913 599.673C483.831 599.767 482.296 600.569 481.309 602.082C480.319 603.582 479.871 605.392 479.967 607.512ZM486.719 596.51C489.581 596.381 491.883 597.298 493.616 599.264C495.367 601.216 496.309 603.717 496.447 606.769L496.477 607.428C496.619 610.561 495.809 613.171 494.052 615.251C492.292 617.32 489.864 618.424 486.767 618.565C483.563 618.709 481.017 617.822 479.131 615.904C477.247 613.974 476.197 610.666 475.986 605.985L475.962 605.449C475.736 600.413 476.389 596.495 477.924 593.696C479.471 590.897 482.483 589.054 486.96 588.167C489.301 587.704 490.643 587.334 490.986 587.057C491.344 586.78 491.549 586.471 491.603 586.125L494.973 585.975C494.889 587.418 494.356 588.587 493.381 589.48C492.418 590.361 490.474 591.065 487.547 591.597C484.062 592.22 481.748 593.413 480.605 595.181C479.462 596.931 478.836 599.15 478.721 601.829L478.95 601.817C479.591 600.254 480.578 599.003 481.908 598.065C483.238 597.112 484.842 596.594 486.719 596.51ZM499.953 606.86L499.923 606.201C499.775 602.945 500.54 600.242 502.213 598.095C503.901 595.948 506.299 594.802 509.407 594.664C512.284 594.535 514.504 595.214 516.069 596.709C517.631 598.188 518.455 599.887 518.542 601.802L518.548 601.904L514.85 602.073L514.844 601.971C514.793 600.807 514.342 599.797 513.493 598.943C512.645 598.092 511.33 597.704 509.548 597.785C507.466 597.878 505.968 598.72 505.05 600.311C504.135 601.889 503.726 603.796 503.825 606.027L503.855 606.682C503.958 608.913 504.535 610.78 505.592 612.284C506.648 613.772 508.215 614.47 510.298 614.376C512.079 614.295 513.355 613.79 514.122 612.864C514.889 611.938 515.247 610.895 515.196 609.731L515.19 609.629L518.888 609.46L518.894 609.563C518.979 611.481 518.311 613.252 516.89 614.882C515.467 616.493 513.316 617.365 510.439 617.497C507.331 617.636 504.836 616.713 502.965 614.725C501.102 612.738 500.1 610.116 499.953 606.86ZM522.036 624.915L521.891 621.671C522.252 621.764 522.653 621.836 523.095 621.884C523.537 621.932 523.961 621.947 524.374 621.929C525.331 621.887 526.152 621.484 526.832 620.727C527.512 619.984 528.195 618.396 528.881 615.964L528.878 615.943L519.854 594.808L523.552 594.643L529.311 608.621C529.528 609.16 529.721 609.665 529.895 610.137C530.067 610.609 530.217 611.048 530.344 611.454L530.467 611.448C530.572 611.033 530.69 610.582 530.819 610.095C530.96 609.611 531.111 609.088 531.264 608.531L535.39 594.108L539.003 593.946L531.336 618.817C530.738 620.763 529.895 622.296 528.806 623.418C527.729 624.533 526.372 625.132 524.726 625.204C524.178 625.231 523.691 625.219 523.263 625.168C522.836 625.12 522.427 625.035 522.036 624.915ZM556.109 614.818L552.411 614.987L551.437 593.386L555.135 593.218L556.109 614.818ZM564.845 614.425L557.605 605.04L559.961 602.485L569.159 614.232L564.845 614.425ZM553.696 602.376L557.373 602.211L563.232 592.854L567.423 592.665L559.501 605.098L553.832 605.356L553.696 602.376ZM543.679 615.381L539.467 615.57L547.57 603.044L550.001 605.383L543.679 615.381ZM553.696 602.376L553.832 605.356L548.118 605.612L539.109 593.942L543.339 593.75L550.016 602.542L553.696 602.376ZM588.294 618.923L588.044 613.378L572.325 614.088L572.575 619.632L569.12 619.789L568.738 611.267L591.36 610.245L591.745 618.766L588.294 618.923ZM575.695 595.275L575.713 603.441C575.725 605.54 575.662 607.169 575.524 608.327C575.382 609.472 575.147 610.483 574.816 611.364L570.808 611.544C571.221 610.934 571.555 610.008 571.816 608.763C572.075 607.515 572.202 605.603 572.196 603.026L572.168 592.451L587.334 591.766L588.309 613.366L584.487 613.541L583.648 594.917L575.695 595.275ZM593.201 602.653L593.171 601.998C593.024 598.738 593.794 596.035 595.482 593.888C597.182 591.742 599.505 590.599 602.451 590.467C605.397 590.334 607.708 591.197 609.384 593.056C611.06 594.914 611.971 597.487 612.119 600.771L612.191 602.331L595.566 603.08L595.431 600.043L608.21 599.466L608.189 598.973C608.117 597.412 607.611 596.104 606.673 595.049C605.734 593.997 604.428 593.507 602.755 593.582C600.73 593.672 599.249 594.514 598.32 596.107C597.39 597.683 596.975 599.589 597.074 601.82L597.104 602.479C597.206 604.71 597.817 606.574 598.942 608.074C600.068 609.56 601.738 610.251 603.958 610.152C605.328 610.089 606.492 609.734 607.452 609.088C608.409 608.441 609.179 607.692 609.76 606.844L612.311 608.685C611.674 609.743 610.656 610.747 609.257 611.703C607.873 612.657 606.152 613.18 604.1 613.273C600.742 613.423 598.121 612.506 596.231 610.519C594.357 608.534 593.349 605.912 593.201 602.653ZM616.349 590.458L620.171 590.286L620.58 599.361L630.239 598.925L629.83 589.85L633.651 589.679L634.626 611.279L630.805 611.451L630.371 601.901L620.716 602.337L621.146 611.887L617.324 612.058L616.349 590.458ZM640.707 611.003L639.732 589.402L643.494 589.234L644.095 602.56C644.113 602.972 644.128 603.435 644.137 603.958C644.162 604.463 644.174 604.923 644.18 605.332L644.384 605.323C644.562 604.974 644.757 604.595 644.971 604.187C645.2 603.766 645.434 603.336 645.675 602.9L653.625 588.777L657.446 588.606L658.421 610.206L654.66 610.374L654.061 597.07C654.04 596.658 654.025 596.18 654.016 595.632C654.019 595.082 654.025 594.601 654.034 594.189L653.724 594.204C653.577 594.553 653.387 594.953 653.161 595.401C652.948 595.852 652.722 596.294 652.478 596.73L644.532 610.831L640.707 611.003ZM662.736 599.517L662.706 598.862C662.559 595.602 663.329 592.899 665.017 590.752C666.717 588.606 669.04 587.463 671.986 587.331C674.931 587.198 677.242 588.061 678.918 589.919C680.594 591.778 681.506 594.351 681.657 597.635L681.726 599.195L665.101 599.947L664.966 596.907L677.745 596.33L677.724 595.837C677.655 594.276 677.149 592.968 676.207 591.913C675.268 590.861 673.963 590.37 672.293 590.446C670.265 590.536 668.784 591.378 667.854 592.971C666.925 594.547 666.509 596.453 666.612 598.684L666.639 599.343C666.741 601.574 667.355 603.438 668.477 604.938C669.603 606.424 671.273 607.115 673.493 607.016C674.862 606.953 676.027 606.598 676.987 605.951C677.946 605.305 678.714 604.556 679.295 603.708L681.849 605.549C681.208 606.607 680.191 607.611 678.792 608.567C677.408 609.52 675.69 610.044 673.635 610.137C670.277 610.287 667.656 609.37 665.769 607.386C663.894 605.398 662.883 602.776 662.736 599.517Z" fill="black" fill-opacity="0.4"/>
<path d="M413.272 626.533C423.65 626.067 431.681 617.281 431.212 606.914C430.746 596.547 421.953 588.519 411.578 588.988C401.2 589.457 393.169 598.239 393.639 608.607C394.105 618.977 402.897 627.002 413.272 626.533Z" fill="black" fill-opacity="0.6"/>
<path d="M406.789 608.023L410.716 611.61L417.892 603.763" stroke="white" stroke-width="3.5" stroke-linecap="round" stroke-linejoin="round"/>
<path d="M449.86 683.833L449.772 681.941C449.565 677.344 450.582 673.703 452.821 671.024C455.074 668.345 457.984 666.923 461.544 666.763C465.106 666.601 467.938 667.455 470.041 669.322C472.156 671.174 473.276 673.474 473.399 676.228L473.408 676.433L469.463 676.61L469.454 676.406C469.367 674.503 468.681 672.957 467.39 671.766C466.102 670.561 464.204 670.016 461.697 670.131C459.245 670.239 457.265 671.255 455.76 673.174C454.253 675.095 453.588 677.957 453.759 681.764L453.844 683.652C454.003 687.155 454.915 689.873 456.582 691.8C458.261 693.728 460.331 694.633 462.798 694.522C465.154 694.416 466.906 693.701 468.055 692.372C469.202 691.046 469.83 689.446 469.939 687.576L469.951 687.368L473.896 687.191L473.884 687.399C473.733 690.147 472.764 692.543 470.977 694.588C469.186 696.629 466.511 697.73 462.949 697.889C459.389 698.051 456.365 696.897 453.88 694.431C451.406 691.963 450.067 688.43 449.86 683.833ZM477.347 686.13L477.317 685.474C477.169 682.215 477.976 679.512 479.73 677.362C481.487 675.212 483.912 674.067 487.009 673.925C490.105 673.787 492.624 674.71 494.567 676.691C496.508 678.676 497.555 681.298 497.703 684.554L497.73 685.213C497.877 688.469 497.074 691.175 495.317 693.325C493.562 695.475 491.137 696.62 488.041 696.759C484.945 696.9 482.426 695.977 480.482 693.992C478.538 692.011 477.494 689.389 477.347 686.13ZM481.222 685.297L481.253 685.955C481.352 688.186 481.966 690.05 483.088 691.551C484.213 693.036 485.817 693.731 487.899 693.638C489.982 693.544 491.516 692.705 492.5 691.127C493.484 689.53 493.926 687.618 493.827 685.387L493.797 684.732C493.698 682.501 493.084 680.639 491.959 679.154C490.836 677.657 489.232 676.953 487.15 677.046C485.068 677.142 483.533 677.984 482.549 679.581C481.562 681.16 481.12 683.066 481.222 685.297ZM502.018 673.865L516.112 673.231L516.247 676.207L505.971 676.67L506.814 695.294L502.992 695.469L502.018 673.865ZM525.37 675.795L525.388 684.377C525.391 688.12 525.048 690.832 524.353 692.507C523.661 694.173 522.274 695.051 520.192 695.144C519.725 695.165 519.292 695.15 518.892 695.099C518.507 695.063 518.179 694.988 517.914 694.876L517.77 691.674C518.007 691.758 518.248 691.815 518.498 691.846C518.76 691.876 519.042 691.885 519.343 691.87C520.424 691.821 521.119 691.235 521.426 690.111C521.732 688.986 521.88 686.948 521.871 684.001L521.847 672.972L536.804 672.299L537.779 693.899L533.958 694.071L533.118 675.447L525.37 675.795ZM542.443 687.311C542.347 685.119 543.138 683.375 544.823 682.08C546.508 680.784 548.693 680.074 551.377 679.954L556.27 679.731L556.2 678.255C556.143 676.953 555.761 675.916 555.051 675.137C554.344 674.346 553.167 673.988 551.524 674.061C549.879 674.136 548.717 674.533 548.037 675.248C547.366 675.949 547.053 676.746 547.092 677.636L547.098 677.738L543.298 677.909L543.292 677.807C543.214 676.096 543.909 674.569 545.371 673.228C546.848 671.872 548.886 671.135 551.488 671.018C554.091 670.9 556.134 671.433 557.615 672.614C559.11 673.796 559.914 675.618 560.025 678.081L560.47 687.937C560.509 688.827 560.615 689.666 560.789 690.453C560.961 691.229 561.183 691.912 561.457 692.501L561.472 692.829L557.774 692.997C557.567 692.663 557.368 692.227 557.178 691.686C557.004 691.145 556.883 690.604 556.817 690.057C556.351 690.971 555.566 691.794 554.458 692.528C553.366 693.265 551.928 693.671 550.149 693.752C548.094 693.845 546.322 693.343 544.829 692.242C543.34 691.145 542.543 689.5 542.443 687.311ZM546.259 686.932C546.313 688.165 546.713 689.112 547.456 689.78C548.2 690.444 549.325 690.745 550.832 690.676C552.34 690.61 553.679 690.026 554.852 688.932C556.023 687.838 556.583 686.707 556.531 685.543L556.39 682.443L551.913 682.645C549.993 682.732 548.558 683.159 547.604 683.929C546.65 684.698 546.202 685.7 546.259 686.932ZM564.884 682.182L564.854 681.526C564.707 678.267 565.468 675.567 567.144 673.42C568.832 671.273 571.23 670.128 574.339 669.986C577.215 669.857 579.436 670.54 581.001 672.034C582.562 673.513 583.387 675.209 583.474 677.127L583.48 677.23L579.779 677.395L579.776 677.293C579.722 676.129 579.273 675.122 578.425 674.268C577.576 673.414 576.261 673.029 574.48 673.107C572.398 673.204 570.899 674.046 569.982 675.636C569.064 677.215 568.658 679.118 568.757 681.349L568.787 682.007C568.889 684.238 569.467 686.106 570.523 687.606C571.579 689.097 573.147 689.795 575.229 689.699C577.011 689.621 578.283 689.115 579.054 688.189C579.821 687.263 580.179 686.22 580.125 685.056L580.122 684.951L583.82 684.786L583.826 684.888C583.91 686.806 583.242 688.577 581.819 690.204C580.396 691.818 578.247 692.69 575.371 692.82C572.259 692.961 569.768 692.038 567.893 690.05C566.034 688.063 565.029 685.441 564.884 682.182ZM586.829 681.193L586.799 680.537C586.651 677.278 587.455 674.575 589.212 672.425C590.969 670.272 593.395 669.129 596.491 668.988C599.587 668.85 602.106 669.77 604.049 671.754C605.99 673.739 607.034 676.358 607.182 679.617L607.212 680.276C607.359 683.532 606.556 686.235 604.799 688.388C603.044 690.538 600.616 691.683 597.523 691.821C594.427 691.963 591.905 691.04 589.964 689.055C588.02 687.071 586.976 684.452 586.829 681.193ZM590.705 680.36L590.732 681.018C590.834 683.249 591.448 685.113 592.57 686.614C593.695 688.099 595.299 688.794 597.381 688.7C599.464 688.607 600.995 687.768 601.982 686.19C602.966 684.593 603.408 682.681 603.309 680.45L603.279 679.794C603.177 677.563 602.566 675.702 601.441 674.217C600.318 672.72 598.714 672.016 596.632 672.109C594.55 672.202 593.015 673.047 592.031 674.641C591.045 676.222 590.602 678.129 590.705 680.36ZM612.475 690.532L611.497 668.928L620.828 668.51C623.223 668.402 625.13 668.796 626.542 669.692C627.968 670.588 628.726 672.001 628.813 673.931C628.867 675.149 628.546 676.183 627.841 677.04C627.152 677.879 626.205 678.456 624.998 678.772V678.835C626.502 678.986 627.697 679.467 628.585 680.279C629.472 681.075 629.945 682.131 630.005 683.445C630.095 685.429 629.445 687.008 628.058 688.18C626.668 689.341 624.787 689.975 622.419 690.081L612.475 690.532ZM615.733 677.894L621.24 677.645C622.609 677.584 623.584 677.26 624.161 676.67C624.736 676.069 625.004 675.281 624.959 674.31C624.917 673.351 624.583 672.626 623.957 672.133C623.328 671.64 622.332 671.424 620.96 671.487L615.453 671.733L615.733 677.894ZM616.161 687.38L622.284 687.104C623.668 687.041 624.667 686.695 625.284 686.064C625.916 685.417 626.208 684.602 626.162 683.616C626.117 682.645 625.762 681.878 625.091 681.319C624.42 680.76 623.388 680.513 621.989 680.576L615.866 680.85L616.161 687.38ZM634.13 683.174C634.034 680.985 634.825 679.241 636.51 677.945C638.195 676.649 640.38 675.94 643.064 675.82L647.957 675.597L647.887 674.118C647.83 672.819 647.448 671.778 646.738 671.003C646.031 670.212 644.854 669.854 643.211 669.926C641.565 670.001 640.404 670.395 639.724 671.114C639.053 671.814 638.74 672.611 638.779 673.501L638.785 673.604L634.985 673.775L634.979 673.673C634.901 671.962 635.596 670.434 637.058 669.093C638.532 667.737 640.572 667.001 643.175 666.883C645.778 666.766 647.821 667.298 649.302 668.48C650.797 669.662 651.6 671.484 651.712 673.946L652.157 683.802C652.196 684.692 652.301 685.531 652.476 686.319C652.648 687.092 652.87 687.774 653.144 688.367L653.159 688.694L649.461 688.863C649.253 688.529 649.055 688.093 648.865 687.552C648.691 687.011 648.57 686.466 648.504 685.922C648.038 686.833 647.249 687.66 646.145 688.394C645.053 689.13 643.615 689.536 641.836 689.618C639.781 689.711 638.006 689.209 636.516 688.108C635.024 687.011 634.23 685.366 634.13 683.174ZM637.946 682.798C638 684.031 638.4 684.978 639.143 685.646C639.886 686.31 641.012 686.611 642.519 686.542C644.027 686.472 645.366 685.892 646.539 684.798C647.71 683.7 648.269 682.573 648.218 681.409L648.077 678.309L643.6 678.511C641.68 678.598 640.245 679.025 639.291 679.794C638.337 680.564 637.888 681.565 637.946 682.798ZM657.363 666.862L661.184 666.688L661.593 675.765L671.252 675.329L670.84 666.252L674.664 666.081L675.639 687.681L671.818 687.853L671.385 678.306L661.729 678.742L662.159 688.289L658.338 688.463L657.363 666.862ZM681.72 687.408L680.745 665.807L684.507 665.636L685.108 678.962C685.127 679.373 685.142 679.84 685.151 680.36C685.175 680.868 685.187 681.325 685.193 681.737L685.397 681.728C685.575 681.376 685.77 680.997 685.984 680.591C686.213 680.167 686.448 679.74 686.688 679.304L694.635 665.179L698.459 665.007L699.434 686.608L695.673 686.779L695.071 673.471C695.053 673.062 695.038 672.581 695.029 672.034C695.032 671.487 695.038 671.006 695.044 670.594L694.737 670.606C694.59 670.958 694.4 671.358 694.175 671.806C693.961 672.254 693.732 672.695 693.492 673.131L685.542 687.236L681.72 687.408ZM703.749 675.922L703.719 675.263C703.572 672.007 704.342 669.304 706.03 667.157C707.73 665.007 710.053 663.868 712.999 663.735C715.945 663.603 718.256 664.466 719.932 666.324C721.608 668.182 722.519 670.753 722.67 674.04L722.739 675.6L706.114 676.349L705.979 673.309L718.758 672.735L718.737 672.241C718.668 670.681 718.162 669.373 717.22 668.318C716.282 667.262 714.976 666.772 713.306 666.847C711.278 666.941 709.797 667.782 708.867 669.373C707.938 670.952 707.522 672.855 707.622 675.089L707.652 675.744C707.754 677.975 708.365 679.843 709.49 681.34C710.616 682.825 712.286 683.52 714.506 683.418C715.875 683.357 717.04 683.003 718 682.356C718.96 681.71 719.727 680.961 720.308 680.113L722.862 681.95C722.221 683.009 721.204 684.016 719.805 684.969C718.421 685.922 716.703 686.448 714.648 686.539C711.29 686.692 708.669 685.775 706.779 683.787C704.908 681.8 703.897 679.178 703.749 675.922Z" fill="black" fill-opacity="0.4"/>
<mask id="mask0_947_282" style="mask-type:luminance" maskUnits="userSpaceOnUse" x="392" y="662" width="48" height="48">
<path d="M437.48 662.313L392.391 664.346L394.426 709.401L439.514 707.368L437.48 662.313Z" fill="white"/>
</mask>
<g mask="url(#mask0_947_282)">
<path d="M416.8 704.627C427.175 704.158 435.209 695.376 434.739 685.008C434.27 674.638 425.481 666.613 415.106 667.082C404.728 667.548 396.697 676.334 397.166 686.701C397.632 697.068 406.425 705.097 416.8 704.627Z" fill="black" fill-opacity="0.6"/>
<path d="M410.314 686.118L414.241 689.702L421.418 681.854" stroke="white" stroke-width="3.5" stroke-linecap="round" stroke-linejoin="round"/>
</g>
<path d="M455.146 775.89L453.795 745.994L463.7 745.546C466.989 745.399 469.553 746.112 471.394 747.69C473.236 749.251 474.22 751.403 474.343 754.14C474.467 756.879 473.681 759.128 471.99 760.893C470.299 762.643 467.811 763.59 464.522 763.74L458.564 764.008L459.091 775.71L455.146 775.89ZM458.417 760.763L464.374 760.496C466.703 760.391 468.31 759.747 469.189 758.569C470.068 757.378 470.471 755.962 470.398 754.317C470.323 752.675 469.794 751.319 468.813 750.255C467.832 749.172 466.177 748.685 463.848 748.791L457.887 749.058L458.417 760.763ZM477.873 768.485C477.774 766.296 478.568 764.552 480.253 763.256C481.938 761.96 484.122 761.251 486.807 761.13L491.696 760.908L491.63 759.431C491.573 758.13 491.188 757.092 490.481 756.313C489.773 755.523 488.597 755.165 486.951 755.237C485.308 755.312 484.147 755.706 483.464 756.425C482.796 757.125 482.483 757.922 482.522 758.812L482.528 758.914L478.724 759.086L478.721 758.983C478.643 757.273 479.335 755.745 480.801 754.404C482.275 753.048 484.315 752.311 486.918 752.194C489.521 752.077 491.564 752.609 493.044 753.791C494.537 754.972 495.34 756.795 495.451 759.257L495.897 769.113C495.939 770.003 496.044 770.842 496.216 771.63C496.39 772.403 496.613 773.088 496.887 773.677L496.902 774.005L493.201 774.174C492.996 773.84 492.797 773.404 492.608 772.863C492.433 772.321 492.31 771.777 492.247 771.233C491.78 772.147 490.992 772.971 489.888 773.705C488.795 774.441 487.357 774.847 485.576 774.928C483.521 775.022 481.748 774.519 480.259 773.419C478.767 772.321 477.972 770.677 477.873 768.485ZM481.685 768.109C481.742 769.342 482.143 770.289 482.886 770.956C483.629 771.621 484.754 771.922 486.262 771.852C487.769 771.783 489.108 771.203 490.279 770.108C491.452 769.011 492.012 767.883 491.958 766.72L491.819 763.62L487.339 763.821C485.422 763.909 483.987 764.336 483.033 765.105C482.079 765.875 481.631 766.876 481.685 768.109ZM510.099 774.029C506.937 774.171 504.572 773.503 503.01 772.024C501.457 770.529 500.642 768.825 500.555 766.909L500.549 766.804L504.247 766.639L504.253 766.741C504.304 767.85 504.752 768.846 505.604 769.727C506.452 770.605 507.912 770.998 509.979 770.905C511.679 770.83 512.979 770.427 513.878 769.703C514.778 768.975 515.202 768.016 515.148 766.825C515.106 765.869 514.748 765.114 514.08 764.57C513.409 764.023 512.377 763.782 510.978 763.845L507.177 764.017L507.042 761.061L510.228 760.917C511.64 760.854 512.642 760.526 513.231 759.937C513.821 759.335 514.095 758.547 514.053 757.576C514.002 756.467 513.571 755.628 512.765 755.063C511.971 754.494 510.875 754.242 509.476 754.305C507.695 754.386 506.371 754.864 505.507 755.739C504.653 756.599 504.256 757.676 504.313 758.962L504.319 759.065L500.618 759.23L500.615 759.128C500.512 756.843 501.217 754.978 502.73 753.538C504.256 752.098 506.458 751.313 509.335 751.184C512.076 751.061 514.164 751.536 515.597 752.609C517.047 753.683 517.814 755.177 517.901 757.092C517.95 758.202 517.628 759.224 516.927 760.162C516.228 761.097 515.263 761.726 514.026 762.041L514.029 762.101C515.518 762.255 516.701 762.73 517.573 763.527C518.461 764.311 518.933 765.352 518.991 766.654C519.093 768.897 518.293 770.662 516.596 771.946C514.907 773.214 512.744 773.909 510.099 774.029ZM524.985 781.3L523.625 751.157L527.076 751.001L527.368 753.806L527.491 753.8C528 752.886 528.8 752.089 529.895 751.409C531.003 750.727 532.311 750.354 533.819 750.285C536.557 750.162 538.796 751.091 540.532 753.069C542.268 755.048 543.21 757.612 543.351 760.76L543.382 761.416C543.523 764.564 542.819 767.204 541.266 769.33C539.717 771.459 537.571 772.583 534.83 772.706C533.325 772.775 532.026 772.565 530.93 772.081C529.853 771.582 528.978 770.899 528.307 770.039L528.809 781.125L524.985 781.3ZM528.132 766.179C528.601 767.117 529.33 767.941 530.323 768.65C531.315 769.36 532.498 769.685 533.867 769.624C535.922 769.531 537.397 768.716 538.287 767.183C539.178 765.646 539.575 763.782 539.476 761.593L539.446 760.935C539.346 758.746 538.784 756.927 537.758 755.478C536.732 754.028 535.191 753.352 533.136 753.442C531.767 753.505 530.62 753.935 529.694 754.729C528.77 755.526 528.117 756.413 527.735 757.39L528.132 766.179ZM547.161 765.361C547.065 763.172 547.856 761.428 549.541 760.132C551.226 758.833 553.411 758.127 556.095 758.003L560.987 757.784L560.918 756.304C560.861 755.006 560.479 753.965 559.768 753.189C559.061 752.399 557.885 752.038 556.242 752.113C554.596 752.188 553.435 752.582 552.755 753.301C552.084 754.001 551.771 754.798 551.81 755.688L551.816 755.79L548.015 755.962L548.009 755.859C547.931 754.149 548.626 752.621 550.089 751.28C551.563 749.924 553.603 749.187 556.206 749.07C558.809 748.953 560.852 749.485 562.332 750.667C563.828 751.845 564.631 753.671 564.742 756.133L565.188 765.989C565.227 766.879 565.332 767.718 565.507 768.506C565.678 769.279 565.901 769.961 566.175 770.553L566.19 770.881L562.492 771.05C562.284 770.716 562.085 770.277 561.896 769.739C561.721 769.197 561.601 768.653 561.535 768.109C561.068 769.02 560.283 769.844 559.176 770.58C558.083 771.317 556.645 771.723 554.867 771.804C552.812 771.897 551.036 771.392 549.547 770.295C548.054 769.197 547.26 767.553 547.161 765.361ZM550.976 764.985C551.03 766.215 551.431 767.165 552.174 767.829C552.917 768.497 554.042 768.795 555.55 768.728C557.057 768.659 558.396 768.079 559.57 766.984C560.74 765.887 561.3 764.759 561.249 763.596L561.107 760.493L556.63 760.697C554.71 760.782 553.275 761.211 552.321 761.981C551.367 762.751 550.919 763.752 550.976 764.985ZM573.7 759.804L573.727 760.46C573.823 762.583 574.434 764.351 575.554 765.77C576.673 767.171 578.277 767.826 580.359 767.733C582.441 767.64 583.976 766.843 584.966 765.343C585.953 763.83 586.401 762.014 586.305 759.891L586.275 759.236C586.178 757.113 585.571 755.351 584.451 753.947C583.329 752.531 581.728 751.869 579.646 751.963C577.564 752.056 576.029 752.859 575.039 754.371C574.049 755.871 573.604 757.682 573.7 759.804ZM580.449 748.8C583.314 748.67 585.613 749.587 587.349 751.554C589.097 753.505 590.042 756.007 590.177 759.059L590.207 759.717C590.349 762.85 589.542 765.46 587.782 767.541C586.022 769.609 583.594 770.713 580.497 770.854C577.293 770.998 574.747 770.111 572.864 768.193C570.977 766.263 569.93 762.955 569.719 758.274L569.695 757.742C569.466 752.702 570.119 748.785 571.654 745.985C573.204 743.186 576.216 741.343 580.69 740.456C583.031 739.993 584.373 739.626 584.716 739.349C585.074 739.073 585.282 738.76 585.333 738.414L588.703 738.264C588.619 739.707 588.089 740.877 587.111 741.77C586.151 742.651 584.204 743.357 581.277 743.887C577.792 744.509 575.478 745.706 574.335 747.471C573.195 749.224 572.566 751.44 572.454 754.119L572.68 754.109C573.324 752.543 574.311 751.292 575.641 750.354C576.971 749.401 578.572 748.884 580.449 748.8ZM593.683 759.149L593.653 758.49C593.505 755.234 594.312 752.528 596.066 750.378C597.823 748.228 600.248 747.083 603.345 746.944C606.441 746.803 608.959 747.726 610.903 749.711C612.844 751.695 613.891 754.314 614.039 757.573L614.066 758.229C614.213 761.488 613.41 764.191 611.652 766.341C609.898 768.491 607.473 769.636 604.377 769.778C601.28 769.916 598.762 768.996 596.818 767.011C594.874 765.027 593.83 762.405 593.683 759.149ZM597.558 758.316L597.588 758.971C597.688 761.202 598.302 763.07 599.424 764.567C600.549 766.055 602.153 766.75 604.235 766.657C606.318 766.56 607.852 765.725 608.836 764.143C609.82 762.549 610.262 760.637 610.163 758.406L610.133 757.748C610.034 755.517 609.42 753.658 608.294 752.173C607.172 750.673 605.568 749.972 603.486 750.065C601.404 750.159 599.869 751.004 598.885 752.597C597.898 754.179 597.456 756.085 597.558 758.316ZM616.061 749.972L615.928 746.993L633.311 746.211L633.447 749.187L626.664 749.494L627.507 768.118L623.685 768.289L622.843 749.666L616.061 749.972ZM651.958 767.015L642.907 757.606L645.133 754.915L656.643 766.801L651.958 767.015ZM639.29 755.036L642.967 754.867L650.468 745.435L654.949 745.234L644.911 757.766L639.425 758.012L639.29 755.036ZM640.792 745.874L641.766 767.475L637.945 767.646L636.97 746.045L640.792 745.874ZM657.919 760.367C657.819 758.178 658.611 756.434 660.296 755.138C661.981 753.839 664.165 753.129 666.852 753.009L671.742 752.79L671.676 751.31C671.616 750.011 671.233 748.971 670.526 748.195C669.816 747.401 668.64 747.044 666.997 747.119C665.354 747.194 664.189 747.588 663.509 748.303C662.841 749.007 662.525 749.804 662.568 750.694L662.571 750.796L658.77 750.967L658.764 750.865C658.689 749.154 659.381 747.627 660.843 746.286C662.321 744.93 664.361 744.193 666.964 744.076C669.566 743.959 671.607 744.491 673.087 745.673C674.582 746.851 675.386 748.673 675.497 751.139L675.943 760.995C675.982 761.885 676.09 762.724 676.261 763.512C676.433 764.284 676.656 764.967 676.929 765.559L676.945 765.887L673.246 766.052C673.039 765.722 672.84 765.283 672.651 764.744C672.476 764.203 672.356 763.659 672.29 763.115C671.823 764.026 671.038 764.85 669.931 765.586C668.838 766.32 667.403 766.729 665.622 766.81C663.567 766.903 661.794 766.398 660.302 765.301C658.812 764.2 658.018 762.555 657.919 760.367ZM661.731 759.988C661.785 761.22 662.185 762.171 662.929 762.835C663.675 763.503 664.8 763.8 666.305 763.734C667.812 763.665 669.151 763.085 670.325 761.987C671.495 760.893 672.058 759.762 672.004 758.599L671.865 755.499L667.385 755.7C665.465 755.787 664.03 756.217 663.076 756.987C662.122 757.757 661.674 758.758 661.731 759.988Z" fill="black" fill-opacity="0.4"/>
<mask id="mask1_947_282" style="mask-type:luminance" maskUnits="userSpaceOnUse" x="395" y="740" width="49" height="48">
<path d="M441.007 740.407L395.918 742.44L397.953 787.496L443.042 785.463L441.007 740.407Z" fill="white"/>
</mask>
<g mask="url(#mask1_947_282)">
<path d="M420.327 782.722C430.702 782.253 438.736 773.467 438.267 763.1C437.797 752.733 429.008 744.708 418.63 745.174C408.255 745.643 400.224 754.425 400.693 764.796C401.16 775.163 409.952 783.188 420.327 782.722Z" stroke="black" stroke-opacity="0.6" stroke-width="3.5" stroke-linecap="round" stroke-linejoin="round"/>
</g>
<path d="M248.613 216.328L248.506 213.952C248.236 207.968 249.515 203.273 252.344 199.865C255.19 196.456 258.956 194.646 263.641 194.435C268.326 194.223 272.23 195.688 275.355 198.827C278.497 201.965 280.203 206.527 280.473 212.51L280.581 214.886C280.851 220.87 279.563 225.567 276.717 228.975C273.888 232.383 270.131 234.193 265.446 234.404C260.761 234.615 256.847 233.152 253.705 230.013C250.581 226.874 248.884 222.312 248.613 216.328ZM253.554 216.105C253.763 220.734 254.929 224.288 257.053 226.767C259.194 229.228 261.929 230.383 265.258 230.233C268.586 230.083 271.206 228.686 273.116 226.043C275.025 223.382 275.876 219.737 275.667 215.108L275.559 212.732C275.35 208.103 274.175 204.559 272.035 202.098C269.893 199.62 267.158 198.456 263.829 198.606C260.5 198.756 257.881 200.162 255.972 202.822C254.079 205.465 253.237 209.101 253.447 213.729L253.554 216.105ZM284.128 209.013L283.959 205.29L305.995 204.297L306.16 208.019L297.522 208.409L298.594 232.142L293.865 232.355L292.793 208.622L284.128 209.013ZM315.094 211.188C315.196 213.475 315.708 215.048 316.631 215.906C317.549 216.746 319.078 217.119 321.208 217.022C322.794 216.951 324.205 216.773 325.445 216.487C326.702 216.201 328.072 215.84 329.552 215.403L329.72 219.125C328.273 219.526 326.913 219.887 325.64 220.209C324.364 220.513 322.652 220.714 320.504 220.811C317.122 220.963 314.621 220.256 312.996 218.689C311.39 217.121 310.514 214.692 310.364 211.401L310.036 204.114L314.766 203.901L315.094 211.188ZM331.354 203.153L332.597 230.608L327.867 230.822L326.627 203.366L331.354 203.153ZM341.1 195.624C341.067 194.849 341.275 194.188 341.726 193.638C342.178 193.089 342.864 192.793 343.778 192.752C344.693 192.711 345.4 192.943 345.9 193.45C346.399 193.956 346.667 194.597 346.703 195.371C346.736 196.11 346.526 196.755 346.074 197.304C345.623 197.854 344.94 198.149 344.025 198.19C343.107 198.232 342.4 197.999 341.901 197.492C341.401 196.986 341.137 196.363 341.1 195.624ZM352.171 195.125C352.137 194.35 352.345 193.688 352.796 193.139C353.248 192.59 353.931 192.294 354.849 192.253C355.763 192.212 356.47 192.444 356.97 192.951C357.487 193.456 357.764 194.096 357.797 194.871C357.833 195.61 357.614 196.255 357.144 196.805C356.693 197.354 356.01 197.65 355.092 197.691C354.178 197.732 353.47 197.5 352.971 196.993C352.471 196.487 352.204 195.864 352.171 195.125ZM338.019 217.031L337.98 216.187C337.794 212.051 338.768 208.621 340.905 205.897C343.056 203.172 345.993 201.726 349.709 201.558C353.443 201.39 356.359 202.484 358.462 204.84C360.581 207.196 361.733 210.469 361.923 214.657L362.01 216.584L340.926 217.535L340.754 213.734L357.108 212.996L357.081 212.415C356.991 210.409 356.341 208.719 355.131 207.345C353.94 205.97 352.261 205.332 350.094 205.429C347.507 205.546 345.614 206.619 344.416 208.648C343.219 210.66 342.686 213.1 342.816 215.969L342.852 216.813C342.984 219.682 343.769 222.072 345.214 223.982C346.661 225.874 348.791 226.757 351.608 226.63C353.353 226.551 354.833 226.105 356.049 225.292C357.283 224.46 358.27 223.499 359.016 222.407L362.166 224.725C361.378 226.066 360.102 227.34 358.339 228.548C356.576 229.739 354.391 230.393 351.785 230.51C347.558 230.701 344.248 229.545 341.859 227.043C339.485 224.522 338.206 221.185 338.019 217.031ZM364.336 205.396L364.167 201.673L386.202 200.679L386.371 204.402L377.732 204.792L378.803 228.525L374.073 228.738L373.002 205.005L364.336 205.396ZM403.718 199.89L425.304 198.916L426.544 226.372L421.814 226.585L420.742 202.852L408.616 203.398L409.687 227.132L404.957 227.345L403.718 199.89ZM431.966 212.795L431.927 211.95C431.74 207.814 432.76 204.382 434.984 201.654C437.208 198.926 440.283 197.473 444.209 197.296C448.121 197.12 451.308 198.29 453.766 200.807C456.227 203.324 457.551 206.65 457.738 210.786L457.777 211.631C457.964 215.767 456.947 219.199 454.72 221.927C452.496 224.655 449.43 226.107 445.518 226.283C441.592 226.46 438.399 225.29 435.938 222.774C433.476 220.257 432.152 216.931 431.966 212.795ZM436.762 211.732L436.801 212.577C436.931 215.445 437.716 217.835 439.163 219.745C440.608 221.637 442.66 222.524 445.317 222.404C447.995 222.283 449.969 221.215 451.235 219.201C452.502 217.168 453.071 214.717 452.942 211.849L452.905 211.004C452.773 208.135 451.988 205.755 450.543 203.862C449.099 201.952 447.038 201.057 444.36 201.178C441.7 201.298 439.738 202.374 438.468 204.407C437.202 206.421 436.633 208.863 436.762 211.732ZM487.367 224.396C483.387 224.575 480.402 223.731 478.413 221.864C476.439 219.995 475.398 217.82 475.283 215.338L475.277 215.18L479.848 214.974L479.854 215.132C479.92 216.61 480.51 217.907 481.62 219.021C482.746 220.134 484.611 220.631 487.22 220.514C489.368 220.417 491.02 219.91 492.182 218.994C493.337 218.06 493.882 216.819 493.813 215.27C493.755 214.038 493.289 213.071 492.41 212.37C491.55 211.668 490.211 211.358 488.396 211.44L483.615 211.656L483.45 207.96L487.464 207.779C489.278 207.697 490.566 207.278 491.327 206.52C492.104 205.744 492.462 204.732 492.407 203.482C492.341 202.057 491.791 200.979 490.753 200.25C489.729 199.52 488.33 199.195 486.552 199.276C484.298 199.377 482.613 199.991 481.5 201.117C480.402 202.225 479.89 203.606 479.965 205.26L479.971 205.418L475.401 205.624L475.395 205.466C475.265 202.58 476.156 200.221 478.067 198.388C479.977 196.556 482.749 195.558 486.374 195.395C489.793 195.241 492.413 195.846 494.24 197.209C496.084 198.555 497.062 200.45 497.171 202.897C497.237 204.322 496.819 205.629 495.919 206.816C495.037 208.002 493.81 208.789 492.239 209.177L492.245 209.256C494.141 209.453 495.651 210.055 496.773 211.062C497.896 212.07 498.495 213.41 498.57 215.082C498.696 217.915 497.694 220.139 495.561 221.751C493.427 223.364 490.698 224.246 487.367 224.396ZM503.718 214.823C503.595 212.042 504.597 209.828 506.73 208.18C508.861 206.532 511.635 205.631 515.05 205.476L521.288 205.195L521.197 203.242C521.122 201.57 520.632 200.243 519.72 199.261C518.811 198.261 517.31 197.809 515.213 197.904C513.115 197.998 511.623 198.497 510.726 199.402C509.851 200.288 509.438 201.321 509.49 202.5L509.499 202.659L504.795 202.871L504.786 202.686C504.687 200.503 505.563 198.568 507.41 196.88C509.273 195.173 511.852 194.246 515.146 194.097C518.441 193.949 521.02 194.617 522.889 196.103C524.772 197.587 525.786 199.896 525.928 203.029L526.49 215.516C526.544 216.659 526.68 217.738 526.902 218.751C527.122 219.746 527.411 220.624 527.763 221.384L527.781 221.806L523.21 222.012C522.946 221.583 522.69 221.022 522.446 220.327C522.221 219.632 522.067 218.934 521.98 218.232C521.399 219.405 520.406 220.464 519.001 221.409C517.596 222.336 515.757 222.851 513.485 222.954C510.862 223.072 508.608 222.441 506.727 221.063C504.847 219.666 503.845 217.586 503.718 214.823ZM508.436 214.346C508.509 215.93 509.023 217.15 509.98 218.006C510.952 218.844 512.399 219.22 514.319 219.133C516.239 219.047 517.951 218.308 519.461 216.917C520.966 215.509 521.685 214.048 521.619 212.535L521.438 208.575L515.733 208.832C513.248 208.944 511.394 209.495 510.17 210.485C508.942 211.475 508.364 212.762 508.436 214.346ZM555.395 227.677L555.073 220.575L535.021 221.48L535.34 228.581L531.061 228.774L530.573 217.951L559.183 216.66L559.673 227.484L555.395 227.677ZM539.339 197.503V208.058C539.351 210.685 539.266 212.726 539.086 214.18C538.902 215.635 538.61 216.927 538.201 218.056L533.261 218.279C533.772 217.462 534.184 216.271 534.503 214.705C534.819 213.138 534.979 210.768 534.976 207.594L534.97 193.97L554.071 193.109L555.31 220.565L550.58 220.778L549.509 197.045L539.339 197.503ZM561.843 212.202C561.716 209.421 562.718 207.207 564.852 205.559C566.982 203.911 569.757 203.009 573.175 202.855L579.409 202.574L579.322 200.621C579.244 198.949 578.753 197.622 577.845 196.64C576.933 195.64 575.431 195.188 573.334 195.282C571.24 195.377 569.744 195.876 568.848 196.781C567.972 197.667 567.56 198.7 567.611 199.879L567.62 200.037L562.917 200.249L562.908 200.065C562.809 197.882 563.684 195.947 565.532 194.259C567.398 192.552 569.976 191.625 573.268 191.476C576.563 191.328 579.142 191.996 581.01 193.481C582.894 194.966 583.908 197.275 584.049 200.407L584.615 212.894C584.666 214.038 584.801 215.117 585.024 216.13C585.247 217.125 585.533 218.003 585.885 218.763L585.903 219.185L581.332 219.391C581.067 218.962 580.812 218.401 580.568 217.706C580.342 217.011 580.189 216.313 580.104 215.611C579.521 216.783 578.528 217.842 577.123 218.787C575.717 219.715 573.879 220.23 571.607 220.333C568.983 220.451 566.729 219.82 564.852 218.442C562.968 217.045 561.966 214.965 561.843 212.202ZM566.558 211.724C566.63 213.309 567.145 214.529 568.102 215.385C569.073 216.223 570.521 216.598 572.441 216.512C574.36 216.426 576.075 215.687 577.583 214.296C579.09 212.888 579.81 211.427 579.74 209.913L579.563 205.953L573.855 206.211C571.372 206.323 569.516 206.874 568.291 207.864C567.063 208.854 566.489 210.141 566.558 211.724ZM595.667 198.534C595.769 200.822 596.281 202.395 597.205 203.253C598.122 204.093 599.648 204.466 601.781 204.369C603.367 204.298 604.778 204.12 606.018 203.834C607.276 203.549 608.645 203.187 610.125 202.75L610.294 206.472C608.846 206.873 607.486 207.234 606.213 207.556C604.938 207.86 603.225 208.06 601.077 208.158C597.695 208.31 595.195 207.603 593.57 206.036C591.963 204.468 591.087 202.039 590.937 198.748L590.609 191.461L595.336 191.248L595.667 198.534ZM611.928 190.5L613.167 217.955L608.44 218.169L607.2 190.713L611.928 190.5ZM618.592 204.378L618.553 203.534C618.367 199.398 619.342 195.968 621.478 193.244C623.629 190.519 626.566 189.073 630.282 188.905C634.017 188.737 636.932 189.831 639.032 192.187C641.151 194.543 642.306 197.816 642.496 202.004L642.583 203.931L621.499 204.882L621.328 201.081L637.681 200.343L637.654 199.762C637.564 197.756 636.914 196.066 635.705 194.692C634.513 193.317 632.834 192.679 630.667 192.776C628.08 192.893 626.187 193.966 624.99 195.995C623.792 198.007 623.259 200.447 623.389 203.316L623.425 204.16C623.554 207.029 624.343 209.419 625.787 211.329C627.231 213.221 629.365 214.104 632.181 213.977C633.926 213.898 635.407 213.452 636.622 212.639C637.856 211.807 638.843 210.846 639.589 209.754L642.74 212.072C641.951 213.412 640.675 214.687 638.912 215.895C637.149 217.086 634.964 217.74 632.359 217.857C628.131 218.048 624.821 216.892 622.432 214.39C620.058 211.869 618.779 208.532 618.592 204.378Z" fill="black"/>
<path opacity="0.3" d="M251.271 281.445L251.173 279.286C250.935 274.014 252.088 269.855 254.633 266.809C257.178 263.747 260.469 262.125 264.509 261.943C268.548 261.761 271.761 262.729 274.147 264.847C276.533 266.966 277.797 269.597 277.939 272.742L277.95 273L273.536 273.199L273.524 272.941C273.424 270.735 272.638 268.952 271.165 267.592C269.69 266.216 267.529 265.592 264.679 265.721C261.877 265.847 259.616 267.015 257.896 269.225C256.192 271.434 255.438 274.721 255.635 279.085L255.732 281.244C255.915 285.28 256.958 288.408 258.862 290.626C260.766 292.829 263.127 293.867 265.945 293.74C268.638 293.618 270.64 292.799 271.952 291.282C273.264 289.765 273.973 287.923 274.079 285.754L274.091 285.495L278.506 285.296L278.494 285.555C278.338 288.697 277.246 291.435 275.218 293.768C273.189 296.086 270.155 297.336 266.116 297.518C262.061 297.701 258.629 296.39 255.819 293.585C253.025 290.764 251.509 286.718 251.271 281.445ZM282.408 284.156L282.374 283.405C282.206 279.697 283.119 276.631 285.112 274.205C287.104 271.764 289.853 270.464 293.36 270.306C296.867 270.148 299.722 271.195 301.925 273.447C304.13 275.683 305.316 278.656 305.481 282.363L305.514 283.114C305.683 286.822 304.771 289.896 302.779 292.337C300.787 294.779 298.038 296.078 294.531 296.237C291.024 296.395 288.169 295.348 285.965 293.096C283.761 290.844 282.575 287.864 282.408 284.156ZM286.742 283.208L286.776 283.959C286.891 286.509 287.591 288.633 288.876 290.331C290.16 292.029 291.992 292.824 294.372 292.717C296.752 292.609 298.497 291.653 299.607 289.847C300.734 288.04 301.239 285.862 301.124 283.312L301.091 282.561C300.974 280.011 300.275 277.887 298.991 276.189C297.722 274.491 295.897 273.695 293.518 273.803C291.138 273.91 289.385 274.867 288.259 276.673C287.132 278.48 286.627 280.658 286.742 283.208ZM320.526 295.064C316.957 295.225 314.279 294.468 312.495 292.793C310.723 291.101 309.79 289.153 309.688 286.947L309.685 286.829L313.84 286.642L313.846 286.759C313.903 288.058 314.427 289.21 315.414 290.216C316.401 291.206 318.059 291.648 320.391 291.543C322.316 291.456 323.794 290.998 324.823 290.168C325.855 289.337 326.336 288.242 326.276 286.881C326.225 285.785 325.819 284.926 325.055 284.302C324.287 283.678 323.099 283.403 321.486 283.475L317.189 283.669L317.039 280.337L320.631 280.175C322.259 280.101 323.412 279.728 324.086 279.055C324.763 278.366 325.076 277.466 325.025 276.356C324.967 275.089 324.477 274.131 323.553 273.483C322.644 272.834 321.393 272.546 319.795 272.618C317.791 272.708 316.296 273.254 315.306 274.255C314.331 275.239 313.876 276.467 313.942 277.937L313.948 278.078L309.79 278.266L309.784 278.125C309.667 275.528 310.467 273.414 312.182 271.785C313.912 270.155 316.398 269.267 319.638 269.121C322.738 268.981 325.1 269.517 326.725 270.73C328.362 271.941 329.231 273.642 329.33 275.832C329.388 277.084 329.015 278.245 328.217 279.316C327.432 280.37 326.337 281.078 324.925 281.439L324.928 281.51C326.628 281.684 327.979 282.219 328.975 283.114C329.989 284.009 330.531 285.207 330.597 286.709C330.712 289.244 329.806 291.236 327.88 292.687C325.969 294.137 323.517 294.929 320.526 295.064ZM355.77 299.095L355.488 292.782L337.593 293.589L337.876 299.902L334.003 300.076L333.564 290.408L359.21 289.252L359.646 298.92L355.77 299.095ZM341.427 272.183L341.448 281.541C341.46 283.907 341.387 285.745 341.225 287.053C341.066 288.361 340.804 289.517 340.443 290.521L335.932 290.725C336.402 290.014 336.778 288.954 337.061 287.547C337.358 286.138 337.503 283.984 337.497 281.084L337.47 268.999L354.636 268.225L355.746 292.77L351.447 292.964L350.49 271.774L341.427 272.183ZM361.596 285.264C361.484 282.793 362.375 280.816 364.268 279.336C366.179 277.855 368.661 277.045 371.712 276.907L377.303 276.655L377.225 274.942C377.158 273.456 376.719 272.269 375.91 271.38C375.1 270.492 373.758 270.09 371.878 270.175C370 270.259 368.673 270.711 367.894 271.53C367.129 272.333 366.771 273.242 366.816 274.259L366.822 274.4L362.547 274.593L362.541 274.452C362.453 272.512 363.239 270.784 364.897 269.267C366.567 267.733 368.884 266.9 371.841 266.767C374.787 266.634 377.095 267.235 378.771 268.571C380.462 269.89 381.371 271.949 381.497 274.749L382.003 285.943C382.051 286.96 382.171 287.918 382.37 288.819C382.565 289.703 382.821 290.484 383.134 291.159L383.149 291.535L379.018 291.721C378.78 291.34 378.554 290.84 378.338 290.223C378.136 289.605 378.001 288.984 377.926 288.361C377.39 289.404 376.493 290.346 375.23 291.186C373.981 292.027 372.347 292.492 370.325 292.583C367.978 292.689 365.959 292.122 364.271 290.881C362.601 289.624 361.707 287.752 361.596 285.264ZM365.86 284.86C365.923 286.268 366.38 287.353 367.229 288.114C368.08 288.86 369.365 289.194 371.086 289.116C372.81 289.038 374.339 288.373 375.681 287.122C377.02 285.87 377.661 284.579 377.601 283.249L377.441 279.729L372.32 279.96C370.129 280.059 368.489 280.549 367.397 281.428C366.308 282.308 365.796 283.452 365.86 284.86ZM387.912 266.724L392.188 266.531L392.655 276.857L403.692 276.359L403.225 266.033L407.498 265.841L408.608 290.387L404.332 290.579L403.842 279.715L392.805 280.212L393.296 291.077L389.023 291.27L387.912 266.724ZM436.225 289.141L434.898 259.808L426.443 263.811L426.25 259.516L438.346 254.338L439.098 254.305L440.663 288.941L436.225 289.141ZM465.626 287.815L464.518 263.269L470.365 263.006L478.272 279.673C478.688 280.548 478.958 281.163 479.085 281.518C479.208 281.873 479.32 282.236 479.416 282.608L479.651 282.597C479.711 282.219 479.789 281.847 479.882 281.482C479.975 281.117 480.183 280.496 480.505 279.62L486.944 262.258L492.673 262L493.784 286.546L489.697 286.73L488.942 269.998C488.9 269.091 488.879 268.433 488.876 268.026C488.888 267.618 488.903 267.249 488.918 266.919L488.708 266.928C488.644 267.261 488.566 267.632 488.476 268.044C488.386 268.44 488.169 269.084 487.835 269.977L481.477 287.1L477.791 287.267L469.889 270.716C469.525 269.949 469.269 269.357 469.125 268.94C468.984 268.523 468.863 268.152 468.77 267.828L468.559 267.837C468.604 268.164 468.647 268.531 468.68 268.937C468.728 269.326 468.77 269.928 468.809 270.741L469.57 287.637L465.626 287.815ZM500.71 286.233L499.603 261.687L503.807 261.497L504.496 276.751C504.517 277.22 504.532 277.744 504.541 278.324C504.568 278.887 504.583 279.412 504.589 279.897L504.824 279.887C505.025 279.47 505.248 279.029 505.495 278.563C505.738 278.097 506.009 277.615 506.298 277.116L515.358 260.976L519.658 260.783L520.765 285.329L516.538 285.519L515.852 270.313C515.831 269.828 515.813 269.28 515.8 268.669C515.803 268.058 515.813 267.509 515.822 267.022L515.469 267.038C515.298 267.454 515.093 267.918 514.85 268.43C514.606 268.927 514.344 269.425 514.07 269.923L505.007 286.039L500.71 286.233ZM526.561 260.471L530.836 260.279L531.303 270.604L542.34 270.106L541.873 259.781L546.146 259.588L547.256 284.134L542.981 284.327L542.49 273.462L531.453 273.96L531.944 284.824L527.671 285.017L526.561 260.471ZM564.651 258.754L568.927 258.561L569.394 268.886L580.431 268.388L579.964 258.063L584.237 257.87L585.347 282.416L581.071 282.609L580.581 271.744L569.544 272.242L570.034 283.107L565.762 283.299L564.651 258.754ZM590.562 274.939C590.45 272.467 591.341 270.491 593.237 269.01C595.144 267.529 597.627 266.719 600.681 266.582L606.269 266.33L606.191 264.616C606.124 263.13 605.685 261.943 604.879 261.055C604.069 260.166 602.724 259.764 600.847 259.849C598.969 259.934 597.639 260.386 596.86 261.205C596.095 262.007 595.737 262.917 595.782 263.934L595.788 264.075L591.516 264.267L591.51 264.126C591.422 262.187 592.205 260.458 593.863 258.941C595.536 257.408 597.85 256.575 600.81 256.441C603.753 256.308 606.064 256.91 607.74 258.245C609.431 259.564 610.34 261.623 610.466 264.424L610.972 275.617C611.017 276.634 611.137 277.593 611.336 278.493C611.534 279.378 611.787 280.158 612.1 280.833L612.118 281.209L607.984 281.395C607.749 281.014 607.52 280.515 607.304 279.898C607.105 279.279 606.967 278.659 606.892 278.035C606.359 279.078 605.459 280.02 604.196 280.861C602.947 281.701 601.313 282.167 599.294 282.258C596.944 282.363 594.928 281.796 593.24 280.555C591.567 279.298 590.673 277.426 590.562 274.939ZM594.826 274.535C594.889 275.943 595.346 277.027 596.198 277.788C597.046 278.534 598.331 278.868 600.055 278.79C601.776 278.712 603.308 278.048 604.647 276.796C605.986 275.544 606.627 274.253 606.567 272.923L606.407 269.404L601.289 269.634C599.095 269.733 597.455 270.223 596.366 271.103C595.277 271.983 594.762 273.127 594.826 274.535ZM627.037 281.241C623.468 281.402 620.79 280.645 619.006 278.97C617.233 277.278 616.301 275.33 616.201 273.124L616.195 273.007L620.351 272.819L620.357 272.937C620.414 274.235 620.938 275.387 621.924 276.393C622.911 277.383 624.569 277.826 626.901 277.72C628.827 277.634 630.305 277.175 631.337 276.345C632.366 275.515 632.847 274.419 632.787 273.058C632.739 271.963 632.33 271.103 631.565 270.48C630.798 269.856 629.609 269.58 627.997 269.653L623.7 269.847L623.549 266.514L627.142 266.352C628.77 266.279 629.922 265.906 630.599 265.232C631.273 264.544 631.586 263.644 631.535 262.533C631.478 261.266 630.988 260.308 630.064 259.66C629.155 259.011 627.903 258.723 626.306 258.795C624.302 258.885 622.806 259.431 621.816 260.432C620.841 261.416 620.387 262.644 620.453 264.115L620.459 264.255L616.301 264.443L616.295 264.302C616.177 261.705 616.978 259.592 618.693 257.962C620.423 256.332 622.908 255.445 626.149 255.298C629.248 255.159 631.61 255.695 633.235 256.907C634.872 258.118 635.742 259.819 635.841 262.01C635.898 263.261 635.525 264.422 634.728 265.493C633.945 266.547 632.847 267.255 631.436 267.617L631.439 267.687C633.139 267.861 634.49 268.396 635.489 269.291C636.5 270.186 637.042 271.385 637.108 272.886C637.222 275.421 636.316 277.413 634.391 278.864C632.48 280.314 630.028 281.107 627.037 281.241ZM641.757 272.63C641.645 270.158 642.536 268.182 644.432 266.701C646.339 265.22 648.822 264.41 651.873 264.273L657.464 264.021L657.385 262.308C657.319 260.822 656.88 259.634 656.073 258.746C655.264 257.857 653.919 257.455 652.041 257.54C650.161 257.625 648.834 258.077 648.055 258.896C647.29 259.698 646.932 260.608 646.977 261.625L646.983 261.766L642.711 261.958L642.705 261.818C642.617 259.878 643.4 258.149 645.058 256.633C646.731 255.099 649.045 254.266 652.005 254.132C654.948 254 657.259 254.601 658.935 255.936C660.626 257.255 661.535 259.315 661.661 262.115L662.167 273.309C662.212 274.325 662.332 275.284 662.531 276.184C662.726 277.069 662.982 277.849 663.295 278.525L663.313 278.9L659.179 279.087C658.941 278.705 658.715 278.206 658.499 277.589C658.3 276.971 658.162 276.35 658.087 275.726C657.554 276.769 656.654 277.711 655.39 278.552C654.142 279.392 652.508 279.858 650.489 279.949C648.139 280.055 646.123 279.487 644.435 278.247C642.762 276.989 641.868 275.117 641.757 272.63ZM646.02 272.226C646.084 273.634 646.541 274.718 647.393 275.48C648.241 276.225 649.526 276.559 651.25 276.481C652.971 276.404 654.503 275.739 655.842 274.487C657.181 273.236 657.822 271.945 657.762 270.615L657.602 267.095L652.484 267.326C650.29 267.425 648.65 267.914 647.561 268.794C646.472 269.674 645.957 270.818 646.02 272.226ZM688.02 284.111L687.737 277.799L669.84 278.606L670.125 284.918L666.25 285.093L665.814 275.425L691.459 274.268L691.895 283.937L688.02 284.111ZM673.676 257.2L673.697 266.557C673.709 268.924 673.637 270.761 673.474 272.07C673.315 273.378 673.053 274.534 672.692 275.538L668.182 275.741C668.651 275.03 669.027 273.971 669.31 272.563C669.605 271.155 669.752 269 669.746 266.101L669.719 254.015L686.886 253.241L687.993 277.787L683.696 277.981L682.739 256.791L673.676 257.2Z" fill="black"/>
<path d="M836.958 337.289L298.897 361.554C274.825 362.64 256.191 383.019 257.278 407.073C258.364 431.127 278.759 449.747 302.831 448.661L840.892 424.397C864.964 423.311 883.597 402.931 882.511 378.877C881.424 354.823 861.03 336.204 836.958 337.289Z" stroke="#F4F4F4" stroke-width="2"/>
<mask id="mask2_947_282" style="mask-type:luminance" maskUnits="userSpaceOnUse" x="277" y="381" width="48" height="48">
<path d="M322.392 381.563L277.303 383.596L279.338 428.651L324.427 426.618L322.392 381.563Z" fill="white"/>
</mask>
<g mask="url(#mask2_947_282)">
<path d="M301.711 423.877C312.086 423.411 320.12 414.626 319.65 404.258C319.181 393.891 310.392 385.863 300.015 386.332C289.64 386.801 281.608 395.584 282.076 405.951C282.544 416.321 291.335 424.346 301.711 423.877Z" stroke="black" stroke-opacity="0.4" stroke-width="3.5" stroke-linecap="round" stroke-linejoin="round"/>
<path d="M295.227 405.368L299.154 408.955L306.33 401.104" stroke="black" stroke-opacity="0.4" stroke-width="3.5" stroke-linecap="round" stroke-linejoin="round"/>
</g>
<path d="M349.429 410.149L349.42 409.944L353.241 409.77L353.25 409.977C353.326 411.619 353.93 412.867 355.068 413.721C356.205 414.575 357.677 414.962 359.485 414.881C361.293 414.8 362.717 414.283 363.761 413.33C364.802 412.377 365.277 410.942 365.193 409.027C365.106 407.109 364.432 405.693 363.168 404.776C361.904 403.858 360.246 403.447 358.191 403.54L355.826 403.648L355.685 400.485L357.842 400.389C359.732 400.301 361.17 399.778 362.157 398.813C363.144 397.851 363.598 396.549 363.523 394.904C363.451 393.263 362.948 392.057 362.022 391.29C361.095 390.524 359.879 390.172 358.372 390.241C356.783 390.313 355.54 390.773 354.647 391.624C353.75 392.472 353.338 393.651 353.407 395.157L353.416 395.361L349.591 395.533L349.582 395.328C349.483 393.136 350.229 391.233 351.818 389.609C353.404 387.989 355.54 387.117 358.224 386.997C360.827 386.879 362.993 387.523 364.718 388.927C366.442 390.328 367.357 392.195 367.462 394.523C367.522 395.891 367.206 397.223 366.508 398.515C365.813 399.808 364.685 400.834 363.126 401.588L363.129 401.673C364.877 402.03 366.297 402.839 367.399 404.093C368.5 405.347 369.093 406.922 369.177 408.826C369.3 411.577 368.461 413.784 366.655 415.441C364.85 417.1 362.509 417.996 359.632 418.126C356.59 418.261 354.156 417.581 352.333 416.087C350.509 414.593 349.54 412.614 349.429 410.149ZM385.206 416.355L384.231 394.754L387.992 394.583L388.594 407.909C388.612 408.321 388.627 408.787 388.636 409.307C388.66 409.812 388.672 410.272 388.678 410.684L388.883 410.675C389.06 410.323 389.256 409.944 389.47 409.535C389.698 409.114 389.933 408.684 390.174 408.248L398.123 394.126L401.945 393.954L402.92 415.555L399.159 415.726L398.56 402.418C398.539 402.009 398.524 401.528 398.515 400.981C398.518 400.431 398.524 399.953 398.533 399.541L398.223 399.553C398.075 399.905 397.886 400.301 397.66 400.753C397.446 401.201 397.221 401.643 396.977 402.079L389.03 416.18L385.206 416.355ZM417.023 415.537C413.857 415.678 411.495 415.011 409.931 413.531C408.381 412.037 407.563 410.332 407.478 408.417L407.472 408.314L411.17 408.146L411.176 408.248C411.225 409.358 411.676 410.353 412.524 411.234C413.376 412.115 414.835 412.509 416.903 412.416C418.603 412.338 419.902 411.938 420.802 411.21C421.702 410.482 422.126 409.523 422.072 408.333C422.03 407.376 421.672 406.625 421.001 406.077C420.333 405.53 419.298 405.29 417.902 405.353L414.101 405.524L413.966 402.569L417.152 402.424C418.563 402.361 419.562 402.033 420.155 401.444C420.745 400.843 421.019 400.055 420.974 399.084C420.926 397.974 420.495 397.135 419.689 396.57C418.894 396.002 417.796 395.749 416.4 395.812C414.619 395.894 413.295 396.372 412.428 397.247C411.577 398.11 411.179 399.183 411.237 400.47L411.24 400.572L407.542 400.738L407.539 400.635C407.433 398.35 408.14 396.486 409.654 395.046C411.179 393.605 413.382 392.821 416.259 392.691C419 392.568 421.085 393.043 422.52 394.117C423.971 395.19 424.738 396.684 424.825 398.603C424.873 399.709 424.548 400.731 423.85 401.67C423.152 402.608 422.183 403.233 420.95 403.549L420.953 403.612C422.442 403.762 423.625 404.237 424.497 405.034C425.382 405.819 425.854 406.859 425.914 408.161C426.017 410.404 425.216 412.169 423.519 413.453C421.831 414.722 419.668 415.416 417.023 415.537ZM453.633 413.267L453.263 405.097L453.215 404.027L452.568 389.676L452.321 389.688L443.821 403.423L454.217 402.953L455.8 402.884L461.059 402.647L461.207 405.891L439.467 406.871L439.35 404.282L452.448 383.364L455.98 383.205L457.331 413.101L453.633 413.267Z" fill="black" fill-opacity="0.4"/>
<mask id="mask3_947_282" style="mask-type:luminance" maskUnits="userSpaceOnUse" x="500" y="378" width="239" height="26">
<path d="M730.371 378.214L507.932 388.245C503.782 388.432 500.569 391.946 500.756 396.093C500.943 400.24 504.46 403.451 508.61 403.264L731.049 393.232C735.199 393.045 738.412 389.531 738.225 385.384C738.037 381.237 734.521 378.027 730.371 378.214Z" fill="white"/>
</mask>
<g mask="url(#mask3_947_282)">
<path d="M730.371 378.214L507.932 388.245C503.782 388.432 500.569 391.946 500.756 396.093C500.943 400.24 504.46 403.451 508.61 403.264L731.049 393.232C735.199 393.045 738.412 389.531 738.225 385.384C738.037 381.237 734.521 378.027 730.371 378.214Z" fill="#E7E7E7"/>
<path d="M655.222 381.603L507.932 388.245C503.782 388.432 500.569 391.946 500.756 396.093C500.943 400.24 504.46 403.451 508.61 403.264L655.901 396.621C660.051 396.434 663.264 392.92 663.076 388.773C662.889 384.626 659.373 381.416 655.222 381.603Z" fill="#1EAB67"/>
</g>
<path d="M781.014 398.503L791.281 371.398L775.375 372.113L775.225 368.809L795.24 367.904L795.337 370.041L785.043 398.323L781.014 398.503ZM800.443 390.118L800.434 389.913L804.216 389.742L804.225 389.946C804.291 391.453 804.881 392.619 805.989 393.446C807.096 394.261 808.54 394.628 810.321 394.55C812.103 394.468 813.532 393.801 814.615 392.544C815.699 391.275 816.189 389.543 816.09 387.354C815.99 385.165 815.347 383.521 814.158 382.42C812.969 381.323 811.486 380.815 809.705 380.893C808.471 380.95 807.394 381.224 806.467 381.72C805.543 382.201 804.686 382.868 803.903 383.728L801.132 382.577L801.981 367.6L817.513 366.899L817.672 370.39L805.342 370.947L804.818 379.408C805.486 378.966 806.271 378.566 807.174 378.211C808.077 377.853 809.076 377.652 810.174 377.6C812.777 377.483 815.028 378.268 816.929 379.952C818.831 381.621 819.854 384.029 819.995 387.177C820.137 390.328 819.303 392.854 817.495 394.76C815.686 396.651 813.346 397.662 810.466 397.794C807.4 397.932 804.987 397.271 803.232 395.815C801.478 394.345 800.548 392.445 800.443 390.118ZM822.917 375.297L822.821 373.163C822.722 370.974 823.212 369.182 824.286 367.789C825.363 366.394 826.997 365.649 829.191 365.552C831.381 365.453 833.075 366.049 834.273 367.338C835.486 368.628 836.142 370.366 836.238 372.558L836.334 374.693C836.434 376.885 835.94 378.674 834.848 380.069C833.774 381.461 832.137 382.207 829.946 382.306C827.756 382.405 826.058 381.81 824.861 380.52C823.663 379.23 823.016 377.489 822.917 375.297ZM826.287 375.147C826.344 376.38 826.636 377.381 827.166 378.151C827.692 378.923 828.574 379.281 829.808 379.227C831.041 379.17 831.884 378.734 832.341 377.919C832.814 377.101 833.021 376.076 832.964 374.846L832.868 372.708C832.814 371.479 832.516 370.477 831.971 369.705C831.442 368.932 830.563 368.574 829.329 368.631C828.096 368.685 827.25 369.121 826.793 369.939C826.335 370.754 826.137 371.779 826.191 373.012L826.287 375.147ZM850.922 366.196L833.349 397.027L830.701 395.358L848.271 364.527L850.922 366.196ZM845.328 388.689L845.232 386.555C845.133 384.366 845.62 382.574 846.697 381.182C847.774 379.786 849.408 379.041 851.599 378.941C853.792 378.845 855.486 379.441 856.684 380.731C857.894 382.02 858.55 383.758 858.649 385.95L858.745 388.085C858.844 390.274 858.348 392.066 857.259 393.461C856.181 394.853 854.548 395.599 852.357 395.698C850.163 395.797 848.469 395.202 847.272 393.912C846.074 392.619 845.427 390.881 845.328 388.689ZM848.698 388.539C848.752 389.769 849.044 390.773 849.574 391.543C850.103 392.316 850.985 392.673 852.216 392.619C853.449 392.562 854.295 392.126 854.752 391.311C855.225 390.493 855.432 389.468 855.375 388.238L855.279 386.101C855.225 384.871 854.924 383.867 854.382 383.097C853.853 382.324 852.971 381.966 851.737 382.023C850.507 382.078 849.661 382.514 849.204 383.331C848.746 384.146 848.545 385.171 848.602 386.401L848.698 388.539Z" fill="black" fill-opacity="0.4"/>
<path d="M412.816 883.143L310.614 887.752C291.523 888.613 276.744 904.777 277.606 923.854C278.468 942.931 294.643 957.698 313.734 956.837L415.936 952.228C435.027 951.367 449.806 935.204 448.944 916.127C448.082 897.05 431.907 882.282 412.816 883.143Z" fill="#F4F4F4"/>
<path d="M296.385 939.563L307.699 904.58L311.74 904.396L326.162 938.219L321.559 938.427L311.042 912.917C310.829 912.394 310.642 911.901 310.479 911.438C310.317 910.96 310.17 910.458 310.037 909.929L309.802 909.941C309.715 910.476 309.613 910.99 309.496 911.483C309.375 911.958 309.234 912.466 309.068 913.008L300.8 939.362L296.385 939.563ZM301.498 930.348L302.674 926.652L318.667 925.931L320.168 929.506L301.498 930.348ZM334.81 916.595V926.52C334.813 930.705 334.425 933.739 333.646 935.624C332.869 937.51 331.305 938.505 328.958 938.61C328.44 938.634 327.962 938.616 327.519 938.559C327.077 938.514 326.704 938.43 326.4 938.303L326.238 934.689C326.508 934.786 326.788 934.852 327.071 934.885C327.354 934.921 327.67 934.93 328.013 934.915C329.234 934.858 330.014 934.205 330.348 932.951C330.7 931.683 330.871 929.391 330.862 926.084L330.853 913.411L347.785 912.647L348.895 937.194L344.619 937.386L343.663 916.198L334.81 916.595ZM355.87 936.878L354.76 912.334L358.963 912.145L359.652 927.398C359.673 927.867 359.691 928.39 359.701 928.97C359.728 929.533 359.743 930.059 359.749 930.543L359.983 930.534C360.185 930.116 360.408 929.674 360.654 929.211C360.898 928.745 361.166 928.261 361.458 927.762L370.518 911.622L374.815 911.429L375.925 935.976L371.697 936.166L371.011 920.96C370.99 920.473 370.972 919.926 370.96 919.316C370.963 918.705 370.969 918.155 370.981 917.668L370.626 917.686C370.458 918.101 370.25 918.564 370.009 919.075C369.763 919.574 369.504 920.07 369.227 920.57L360.167 936.686L355.87 936.878ZM381.72 911.116L385.993 910.924L386.459 921.249L397.499 920.753L397.033 910.428L401.306 910.235L402.413 934.78L398.14 934.972L397.65 924.109L386.613 924.605L387.103 935.471L382.828 935.664L381.72 911.116ZM407.631 927.302C407.519 924.83 408.41 922.855 410.303 921.375C412.213 919.893 414.696 919.084 417.747 918.946L423.338 918.693L423.259 916.98C423.193 915.494 422.754 914.307 421.944 913.42C421.138 912.53 419.793 912.13 417.915 912.214C416.035 912.298 414.708 912.749 413.928 913.57C413.164 914.373 412.806 915.281 412.851 916.297L412.857 916.438L408.585 916.631L408.578 916.489C408.488 914.55 409.274 912.821 410.932 911.306C412.605 909.772 414.918 908.939 417.879 908.804C420.822 908.672 423.13 909.273 424.806 910.608C426.497 911.928 427.406 913.988 427.532 916.787L428.038 927.981C428.086 928.998 428.206 929.957 428.405 930.856C428.6 931.743 428.856 932.521 429.169 933.198L429.187 933.574L425.053 933.76C424.815 933.378 424.589 932.879 424.373 932.263C424.174 931.643 424.036 931.024 423.96 930.399C423.425 931.442 422.528 932.383 421.264 933.225C420.016 934.064 418.382 934.53 416.363 934.62C414.013 934.728 411.994 934.16 410.309 932.918C408.636 931.661 407.742 929.791 407.631 927.302ZM411.894 926.899C411.958 928.306 412.415 929.391 413.266 930.152C414.115 930.898 415.4 931.232 417.124 931.153C418.845 931.075 420.377 930.411 421.716 929.16C423.055 927.909 423.696 926.616 423.635 925.287L423.476 921.766L418.358 921.998C416.164 922.097 414.524 922.587 413.435 923.468C412.343 924.346 411.831 925.492 411.894 926.899Z" fill="#999999"/>
<path d="M611.208 874.198L506.001 878.943C486.909 879.804 472.131 895.967 472.993 915.044C473.854 934.121 490.03 948.889 509.121 948.028L614.329 943.283C633.42 942.422 648.198 926.259 647.337 907.182C646.475 888.104 630.3 873.337 611.208 874.198Z" fill="#F4F4F4"/>
<path d="M495.715 930.573L494.172 896.404L519.745 895.253L521.289 929.418L516.875 929.617L515.494 899.089L498.773 899.844L500.154 930.372L495.715 930.573ZM527.021 921.92C526.91 919.448 527.8 917.47 529.693 915.99C531.604 914.508 534.086 913.699 537.137 913.561L542.728 913.308L542.65 911.597C542.584 910.109 542.144 908.921 541.335 908.034C540.528 907.147 539.183 906.744 537.306 906.829C535.425 906.913 534.098 907.364 533.319 908.185C532.555 908.988 532.196 909.896 532.242 910.915L532.248 911.053L527.975 911.246L527.969 911.107C527.879 909.165 528.664 907.439 530.322 905.921C531.995 904.387 534.309 903.554 537.27 903.422C540.212 903.287 542.52 903.888 544.196 905.226C545.887 906.543 546.799 908.603 546.926 911.405L547.431 922.596C547.476 923.612 547.596 924.572 547.795 925.474C547.991 926.358 548.246 927.136 548.559 927.813L548.577 928.189L544.443 928.375C544.205 927.993 543.98 927.494 543.763 926.878C543.564 926.258 543.426 925.639 543.351 925.014C542.818 926.057 541.919 927.001 540.655 927.84C539.406 928.682 537.772 929.145 535.753 929.238C533.403 929.343 531.384 928.775 529.699 927.536C528.026 926.279 527.132 924.406 527.021 921.92ZM531.285 921.514C531.348 922.924 531.805 924.006 532.657 924.767C533.505 925.513 534.79 925.846 536.514 925.771C538.236 925.693 539.767 925.029 541.106 923.775C542.445 922.524 543.086 921.234 543.026 919.902L542.866 916.384L537.748 916.616C535.555 916.712 533.915 917.202 532.825 918.083C531.733 918.964 531.222 920.106 531.285 921.514ZM554.448 927.924L553.338 903.377L563.905 902.902C566.616 902.779 568.768 903.23 570.368 904.255C571.981 905.265 572.839 906.865 572.938 909.054C573.001 910.446 572.637 911.624 571.849 912.584C571.064 913.543 569.986 914.204 568.62 914.562L568.626 914.634C570.326 914.809 571.677 915.359 572.676 916.285C573.69 917.196 574.232 918.402 574.298 919.905C574.401 922.142 573.663 923.922 572.093 925.248C570.537 926.571 568.413 927.293 565.72 927.416L554.448 927.924ZM558.083 913.582L564.375 913.296C565.942 913.227 567.056 912.854 567.715 912.184C568.374 911.495 568.677 910.596 568.626 909.484C568.578 908.389 568.196 907.559 567.48 906.997C566.764 906.432 565.623 906.185 564.059 906.257L557.764 906.54L558.083 913.582ZM558.57 924.376L565.569 924.06C567.149 923.988 568.292 923.591 568.996 922.87C569.719 922.148 570.053 921.216 570.001 920.073C569.95 918.964 569.541 918.089 568.777 917.449C568.009 916.808 566.827 916.525 565.232 916.598L558.233 916.913L558.57 924.376ZM578.637 914.911L578.604 914.159C578.436 910.452 579.311 907.388 581.225 904.964C583.154 902.526 585.787 901.233 589.121 901.083C592.454 900.932 595.072 901.913 596.971 904.02C598.87 906.113 599.905 909.03 600.073 912.77L600.151 914.529L581.273 915.38L581.117 911.955L595.677 911.297L595.653 910.758C595.572 908.975 594.994 907.481 593.92 906.275C592.861 905.052 591.368 904.483 589.442 904.571C587.141 904.676 585.459 905.629 584.396 907.433C583.331 909.237 582.859 911.414 582.973 913.964L583.006 914.715C583.121 917.265 583.822 919.388 585.107 921.087C586.391 922.782 588.293 923.576 590.815 923.462C592.379 923.393 593.703 922.996 594.783 922.271C595.882 921.532 596.76 920.678 597.422 919.707L600.29 921.766C599.562 922.975 598.406 924.124 596.824 925.212C595.256 926.288 593.306 926.878 590.974 926.983C587.168 927.154 584.204 926.111 582.08 923.856C579.952 921.601 578.806 918.618 578.637 914.911ZM611.167 904.132V914.057C611.167 918.242 610.779 921.276 610.003 923.161C609.224 925.047 607.662 926.042 605.312 926.147C604.797 926.171 604.316 926.153 603.877 926.096C603.434 926.051 603.061 925.967 602.757 925.84L602.595 922.226C602.866 922.322 603.142 922.389 603.428 922.422C603.711 922.458 604.024 922.467 604.37 922.452C605.592 922.395 606.368 921.742 606.705 920.488C607.054 919.22 607.226 916.928 607.22 913.621L607.211 900.947L624.142 900.184L625.252 924.731L620.977 924.923L620.02 903.735L611.167 904.132Z" fill="#999999"/>
</g>
<defs>
<filter id="filter0_d_947_282" x="152.244" y="61.2061" width="904.896" height="1022.08" filterUnits="userSpaceOnUse" color-interpolation-filters="sRGB">
<feFlood flood-opacity="0" result="BackgroundImageFix"/>
<feColorMatrix in="SourceAlpha" type="matrix" values="0 0 0 0 0 0 0 0 0 0 0 0 0 0 0 0 0 0 127 0" result="hardAlpha"/>
<feOffset dx="6" dy="6"/>
<feGaussianBlur stdDeviation="17"/>
<feComposite in2="hardAlpha" operator="out"/>
<feColorMatrix type="matrix" values="0 0 0 0 0 0 0 0 0 0 0 0 0 0 0 0 0 0 0.15 0"/>
<feBlend mode="normal" in2="BackgroundImageFix" result="effect1_dropShadow_947_282"/>
<feBlend mode="normal" in="SourceGraphic" in2="effect1_dropShadow_947_282" result="shape"/>
</filter>
</defs>
</svg>
