<svg xmlns="http://www.w3.org/2000/svg" width="1339" height="1335" fill="none" viewBox="0 0 1339 1335"><path fill="#afa9ff" d="M1080.23 176.194H388.16c-33.236 0-60.18 26.924-60.18 60.135v784.761c0 33.21 26.944 60.14 60.18 60.14h692.07c33.23 0 60.18-26.93 60.18-60.14V236.329c0-33.211-26.95-60.135-60.18-60.135" opacity=".3"/><g filter="url(#a)"><path fill="#fff" d="m908.816 99.285-661.082 29.813c-33.203 1.498-58.904 29.608-57.406 62.786l35.407 783.965c1.499 33.181 29.63 58.861 62.832 57.361l661.082-29.81c33.203-1.5 58.901-29.608 57.401-62.786l-35.402-783.966c-1.499-33.178-29.63-58.86-62.832-57.363"/><path stroke="#d3d4ff" stroke-width="5" d="M908.477 91.776 247.395 121.59c-37.353 1.684-66.267 33.308-64.581 70.633l35.407 783.966c1.686 37.322 33.333 66.222 70.686 64.532l661.082-29.81c37.353-1.69 66.271-33.31 64.581-70.635l-35.407-783.966c-1.686-37.325-33.333-66.217-70.686-64.533Z"/><path stroke="#f4f4f4" stroke-width="2" d="m334.527 450.244 3.731 82.601m0 0 54.105-2.438m-54.105 2.438 3.527 78.098m0 0 3.527 78.094m-3.527-78.094 54.108-2.442m6.984 154.692-30.057 1.356c-13.282.598-24.536-9.676-25.134-22.945l-2.374-52.567m0 0 54.107-2.438"/><path fill="#000" fill-opacity=".4" d="m467.3 543.525-.268-5.953-22.357 1.007.268 5.954-3.536.159-.415-9.198 29.425-1.326.418 9.198zm-21.346-34.959 19.561-.884 1.351 29.896-3.944.177-1.204-26.651-12.144.55-.25 13.157q-.091 4.366-.493 6.874-.403 2.508-.855 3.884l-4.17.19q.757-1.475 1.236-4.047.502-2.575.584-6.693zm28.269 28.681-.977-21.6 3.761-.172.602 13.326q.028.618.042 1.398.037.762.042 1.378l.204-.009q.267-.528.587-1.137.344-.634.704-1.287l7.95-14.126 3.821-.171.975 21.6-3.758.172-.602-13.308q-.027-.615-.045-1.437a90 90 0 0 1 .018-1.441l-.31.013q-.223.527-.562 1.199-.32.672-.68 1.326l-7.95 14.105zm31.815-.818q-4.746.213-7.09-2.005-2.324-2.241-2.455-5.115l-.006-.102 3.701-.168.003.102q.075 1.665 1.351 2.986 1.274 1.322 4.375 1.181 2.55-.116 3.9-1.205 1.35-1.09 1.27-2.875-.066-1.438-1.069-2.258c-.671-.544-1.703-.788-3.102-.724l-3.8.171-.133-2.956 3.184-.144q2.117-.096 3.003-.977.885-.907.821-2.364-.077-1.662-1.288-2.513-1.19-.852-3.288-.758-2.671.121-3.969 1.434-1.281 1.294-1.195 3.224l.006.102-3.698.165-.006-.102q-.154-3.429 2.115-5.587 2.292-2.164 6.605-2.357 4.112-.184 6.265 1.425 2.171 1.61 2.302 4.486c.048 1.107-.274 2.132-.975 3.067q-1.046 1.406-2.901 1.88l.003.063q2.235.226 3.545 1.422 1.331 1.176 1.417 3.127.154 3.368-2.395 5.292-2.529 1.903-6.496 2.083m13.022-7.583q-.15-3.284 2.378-5.228 2.527-1.949 6.553-2.129l4.893-.22-.067-1.479q-.09-1.95-1.149-3.115-1.066-1.188-3.529-1.076-2.466.112-3.488 1.184-1.004 1.056-.942 2.391l.003.102-3.8.171-.006-.102q-.113-2.567 2.079-4.579 2.216-2.034 6.117-2.21 3.905-.176 6.127 1.596 2.243 1.768 2.41 5.467l.445 9.856q.058 1.335.319 2.516.258 1.16.668 2.048l.015.328-3.698.165c-.207-.331-.406-.77-.596-1.308a9 9 0 0 1-.361-1.629q-.698 1.366-2.359 2.471-1.637 1.102-4.309 1.224-3.082.138-5.319-1.51c-1.49-1.1-2.287-2.742-2.384-4.934m3.813-.378q.082 1.849 1.197 2.847 1.118 1 3.376.899 2.261-.102 4.02-1.747 1.757-1.642 1.679-3.389l-.141-3.1-4.477.202q-2.879.131-4.309 1.287t-1.345 3.001m20.392 5.664-.975-21.6 3.761-.169.602 13.326q.025.614.042 1.398.032.76.042 1.375l.205-.009q.262-.524.586-1.137.343-.632.705-1.287l7.946-14.123 3.822-.171.978 21.6-3.762.169-.601-13.305a53 53 0 0 1-.043-1.437q0-.827.016-1.443l-.307.015q-.225.523-.563 1.196-.321.676-.683 1.329l-7.95 14.102zm7.609-28.447q1.418-.063 2.347-.908.93-.844 1.427-2.637l3.015 1.573q-.835 2.485-2.612 3.698-1.758 1.21-4.038 1.314-2.304.103-4.138-.905-1.817-1.028-2.939-3.488l2.879-1.921q.684 1.925 1.664 2.64.98.698 2.395.634m15.211 5.773 3.821-.171.41 9.074 9.658-.433-.409-9.077 3.822-.171.974 21.6-3.821.172-.43-9.547-9.659.436.43 9.546-3.821.172z"/><path fill="#000" fill-opacity=".6" d="M409.607 545.423c10.375-.469 18.406-9.252 17.937-19.622-.466-10.368-9.259-18.393-19.634-17.927-10.375.469-18.409 9.255-17.939 19.622.469 10.368 9.258 18.393 19.636 17.927"/><path stroke="#fff" stroke-linecap="round" stroke-linejoin="round" stroke-width="3.5" d="m403.121 526.913 3.927 3.584 7.176-7.848"/><path fill="#000" fill-opacity=".4" d="m446.327 605.738-.088-1.888q-.31-6.9 3.048-10.921 3.38-4.02 8.931-4.269 5.546-.252 9.256 3.451 3.728 3.699 4.041 10.599l.084 1.888q.312 6.9-3.069 10.921-3.36 4.018-8.907 4.27-5.548.249-9.276-3.452-3.71-3.699-4.02-10.599m3.986-.18q.236 5.257 2.736 8.148 2.517 2.89 6.421 2.715 3.906-.177 6.132-3.28 2.249-3.108 2.013-8.362l-.087-1.891q-.236-5.254-2.756-8.146-2.498-2.89-6.404-2.715-3.902.177-6.15 3.281c-1.486 2.071-2.148 4.855-1.992 8.361zm29.654 1.954.03.658q.143 3.181 1.827 5.307 1.679 2.107 4.802 1.967c2.082-.096 3.62-.89 4.607-2.391q1.484-2.267 1.339-5.451l-.027-.655q-.144-3.184-1.827-5.289-1.68-2.124-4.805-1.985-3.123.14-4.604 2.409-1.486 2.25-1.342 5.43m6.752-11.002c2.862-.129 5.164.788 6.897 2.754q2.625 2.927 2.831 7.505l.03.659q.212 4.701-2.425 7.823-2.64 3.103-7.285 3.314-4.807.216-7.636-2.661-2.827-2.896-3.145-9.919l-.024-.536q-.34-7.554 1.962-11.753 2.32-4.198 9.036-5.529 3.512-.694 4.026-1.11.536-.414.617-.932l3.37-.15q-.128 2.165-1.592 3.505-1.444 1.32-5.834 2.117-5.227.933-6.942 3.584c-1.143 1.75-1.769 3.969-1.884 6.648l.229-.012q.962-2.345 2.958-3.752 1.995-1.43 4.811-1.555m13.234 10.35-.03-.659q-.22-4.885 2.29-8.106 2.532-3.222 7.194-3.431c2.877-.129 5.097.55 6.662 2.045q2.343 2.22 2.473 5.093l.006.102-3.698.169-.006-.102q-.077-1.746-1.351-3.028-1.272-1.278-3.945-1.158-3.122.14-4.498 2.526-1.373 2.368-1.225 5.716l.03.655q.153 3.346 1.737 5.602 1.583 2.233 4.706 2.092 2.673-.122 3.824-1.512 1.15-1.388 1.074-3.133l-.006-.102 3.698-.169.006.103q.128 2.875-2.004 5.319-2.135 2.417-6.451 2.615c-3.108.139-5.603-.784-7.474-2.772q-2.793-2.98-3.012-7.865m22.083 18.055-.145-3.244q.541.14 1.204.213.661.072 1.279.045 1.437-.065 2.458-1.202 1.02-1.115 2.049-4.763l-.003-.021-9.024-21.135 3.698-.165 5.759 13.978q.324.808.584 1.516.258.708.449 1.317l.123-.006q.158-.622.352-1.353c.141-.484.292-1.007.445-1.564l4.126-14.423 3.613-.162-7.667 24.871q-.897 2.919-2.53 4.601c-1.077 1.115-2.434 1.714-4.08 1.786a9 9 0 0 1-1.463-.036 6.7 6.7 0 0 1-1.227-.253m34.073-10.097-3.698.169-.974-21.601 3.698-.168zm8.736-.393-7.24-9.385 2.356-2.555 9.198 11.747zm-11.149-12.049 3.677-.165 5.859-9.357 4.191-.189-7.922 12.433-5.669.258zm-10.017 13.005-4.212.189 8.103-12.526 2.431 2.339zm10.017-13.005.136 2.98-5.714.256-9.009-11.67 4.23-.192 6.677 8.792zm34.598 16.547-.25-5.545-15.719.71.25 5.544-3.455.157-.382-8.522 22.622-1.022.385 8.521zm-12.599-23.648.018 8.166q.018 3.149-.189 4.886-.212 1.716-.708 3.037l-4.008.18q.618-.914 1.008-2.781.389-1.872.38-5.737l-.028-10.575 15.166-.685.975 21.6-3.822.175-.839-18.624zm17.506 7.378-.03-.655q-.22-4.89 2.311-8.11c1.7-2.146 4.023-3.289 6.969-3.421q4.419-.2 6.933 2.589 2.514 2.788 2.735 7.715l.072 1.56-16.625.749-.135-3.037 12.779-.577-.021-.493q-.108-2.341-1.516-3.924-1.409-1.579-3.918-1.467-3.04.135-4.435 2.525-1.395 2.365-1.246 5.713l.03.659q.152 3.346 1.838 5.595 1.688 2.228 5.016 2.078 2.054-.095 3.494-1.064 1.436-.971 2.308-2.244l2.551 1.841q-.955 1.586-3.054 3.018-2.078 1.43-5.157 1.57-5.036.226-7.869-2.754-2.81-2.977-3.03-7.866m23.148-12.195 3.822-.172.409 9.075 9.659-.436-.409-9.075 3.821-.171.975 21.6-3.821.172-.434-9.55-9.655.436.43 9.55-3.822.171zm24.358 20.545-.975-21.601 3.762-.168.601 13.326c.018.412.033.875.042 1.398q.036.759.043 1.374l.204-.009q.267-.524.587-1.136.343-.632.704-1.287l7.95-14.123 3.821-.171.975 21.6-3.761.168-.599-13.304q-.031-.617-.045-1.438.005-.825.018-1.443l-.31.015a20 20 0 0 1-.563 1.197q-.318.676-.683 1.329l-7.946 14.101zm22.029-11.486-.03-.655q-.22-4.89 2.311-8.11c1.7-2.146 4.023-3.289 6.969-3.421q4.418-.2 6.932 2.588 2.513 2.79 2.739 7.716l.069 1.56-16.625.752-.135-3.04 12.779-.577-.021-.493q-.104-2.341-1.517-3.924-1.409-1.58-3.914-1.467-3.043.135-4.439 2.525-1.395 2.365-1.242 5.713l.027.659q.154 3.346 1.838 5.595 1.688 2.228 5.016 2.078 2.054-.095 3.494-1.065 1.437-.97 2.308-2.243l2.554 1.841q-.96 1.586-3.057 3.018-2.075 1.43-5.157 1.57-5.036.225-7.866-2.751-2.812-2.981-3.033-7.869"/><path fill="#000" fill-opacity=".6" d="M413.272 626.533c10.378-.466 18.409-9.252 17.94-19.619-.466-10.367-9.259-18.395-19.634-17.926-10.378.469-18.409 9.251-17.939 19.619.466 10.37 9.258 18.395 19.633 17.926"/><path stroke="#fff" stroke-linecap="round" stroke-linejoin="round" stroke-width="3.5" d="m406.789 608.023 3.927 3.587 7.176-7.847"/><path fill="#000" fill-opacity=".4" d="m449.86 683.833-.088-1.892q-.31-6.897 3.049-10.917 3.381-4.02 8.723-4.261t8.497 2.559q3.173 2.776 3.358 6.906l.009.205-3.945.177-.009-.204q-.129-2.854-2.064-4.64-1.932-1.808-5.693-1.635-3.679.163-5.937 3.043t-2.001 8.59l.085 1.888q.238 5.256 2.738 8.148 2.517 2.89 6.216 2.722 3.534-.158 5.257-2.15 1.72-1.99 1.884-4.796l.012-.208 3.945-.177-.012.208q-.227 4.122-2.907 7.189-2.686 3.062-8.028 3.301-5.34.242-9.069-3.458-3.71-3.702-4.02-10.598m27.487 2.297-.03-.656q-.22-4.888 2.413-8.112 2.635-3.224 7.279-3.437 4.644-.206 7.558 2.766 2.913 2.978 3.136 7.863l.027.659q.221 4.885-2.413 8.112-2.632 3.225-7.276 3.434-4.643.211-7.559-2.767-2.915-2.973-3.135-7.862m3.875-.833.031.658q.15 3.346 1.835 5.596 1.688 2.227 4.811 2.087 3.125-.142 4.601-2.511 1.476-2.394 1.327-5.74l-.03-.655c-.099-2.231-.713-4.093-1.838-5.578q-1.685-2.246-4.809-2.108c-2.082.096-3.617.938-4.601 2.535q-1.48 2.369-1.327 5.716m20.796-11.432 14.094-.634.135 2.976-10.276.463.843 18.624-3.822.175zm23.352 1.93.018 8.582q.006 5.616-1.035 8.13-1.038 2.498-4.161 2.637-.7.031-1.3-.045a3.3 3.3 0 0 1-.978-.223l-.144-3.202q.354.126.728.172.393.046.845.024 1.622-.073 2.083-1.759.459-1.688.445-6.11l-.024-11.029 14.957-.673.975 21.6-3.821.172-.84-18.624zm17.073 11.516q-.146-3.288 2.38-5.231 2.528-1.945 6.554-2.126l4.893-.223-.07-1.476q-.085-1.951-1.149-3.118-1.061-1.186-3.527-1.076-2.467.114-3.487 1.187-1.005 1.052-.945 2.388l.006.102-3.8.171-.006-.102q-.115-2.567 2.079-4.579 2.215-2.034 6.117-2.21 3.905-.176 6.127 1.596 2.243 1.773 2.41 5.467l.445 9.856q.058 1.335.319 2.516.258 1.164.668 2.048l.015.328-3.698.168q-.31-.5-.596-1.311a8.7 8.7 0 0 1-.361-1.629q-.698 1.37-2.359 2.471-1.64 1.104-4.309 1.224-3.081.14-5.32-1.51-2.235-1.646-2.386-4.931m3.816-.379q.082 1.848 1.197 2.848 1.116.998 3.376.896 2.261-.101 4.02-1.744 1.757-1.642 1.679-3.389l-.141-3.1-4.477.202q-2.879.13-4.309 1.284t-1.345 3.003m18.625-4.75-.03-.656q-.222-4.887 2.29-8.106 2.532-3.22 7.195-3.434 4.314-.193 6.662 2.048 2.342 2.217 2.473 5.093l.006.103-3.701.165-.003-.102q-.08-1.745-1.351-3.025-1.274-1.28-3.945-1.161-3.123.145-4.498 2.529-1.375 2.367-1.225 5.713l.03.658q.152 3.348 1.736 5.599 1.584 2.237 4.706 2.093c1.782-.078 3.054-.584 3.825-1.51q1.151-1.388 1.071-3.133l-.003-.105 3.698-.165.006.102q.127 2.876-2.007 5.316-2.134 2.421-6.448 2.616-4.667.212-7.478-2.77-2.79-2.98-3.009-7.868m21.945-.989-.03-.656q-.222-4.888 2.413-8.112c1.757-2.153 4.183-3.296 7.279-3.437q4.644-.208 7.558 2.766 2.911 2.976 3.133 7.863l.03.659q.222 4.883-2.413 8.112c-1.755 2.15-4.183 3.295-7.276 3.433q-4.646.212-7.559-2.766-2.915-2.975-3.135-7.862m3.876-.833.027.658q.154 3.346 1.838 5.596 1.688 2.227 4.811 2.086t4.601-2.51q1.476-2.394 1.327-5.74l-.03-.656q-.152-3.348-1.838-5.577-1.685-2.246-4.809-2.108-3.124.14-4.601 2.532-1.48 2.372-1.326 5.719m21.77 10.172-.978-21.604 9.331-.418q3.594-.162 5.714 1.182 2.14 1.344 2.271 4.239c.054 1.218-.267 2.252-.972 3.109q-1.033 1.258-2.843 1.732v.063q2.255.226 3.587 1.444 1.33 1.195 1.42 3.166.134 2.977-1.947 4.735-2.086 1.742-5.639 1.901zm3.258-12.638 5.507-.249q2.055-.09 2.921-.975.864-.903.798-2.36-.063-1.438-1.002-2.177c-.629-.493-1.625-.709-2.997-.646l-5.507.246zm.428 9.486 6.123-.276q2.075-.094 3-1.04.947-.97.878-2.448-.066-1.457-1.071-2.297-1.005-.838-3.102-.743l-6.123.274zm17.969-4.206q-.146-3.284 2.38-5.229 2.528-1.945 6.554-2.125l4.893-.223-.07-1.479c-.057-1.299-.439-2.34-1.149-3.115q-1.062-1.186-3.527-1.077-2.468.111-3.487 1.188-1.005 1.051-.945 2.387l.006.103-3.8.171-.006-.102q-.115-2.568 2.079-4.58 2.212-2.034 6.117-2.21t6.127 1.597q2.242 1.773 2.41 5.466l.445 9.856q.058 1.335.319 2.517.258 1.159.668 2.048l.015.327-3.698.169q-.312-.5-.596-1.311a9 9 0 0 1-.361-1.63c-.466.911-1.255 1.738-2.359 2.472q-1.64 1.102-4.309 1.224-3.084.14-5.32-1.51-2.237-1.646-2.386-4.934m3.816-.376q.082 1.848 1.197 2.848 1.115.998 3.376.896 2.261-.104 4.02-1.744 1.756-1.645 1.679-3.389l-.141-3.1-4.477.202q-2.879.13-4.309 1.283-1.431 1.155-1.345 3.004m19.417-15.936 3.821-.174.409 9.077 9.659-.436-.412-9.077 3.824-.171.975 21.6-3.821.172-.433-9.547-9.656.436.43 9.547-3.821.174zm24.357 20.546-.975-21.601 3.762-.171.601 13.326q.029.617.043 1.398.034.76.042 1.377l.204-.009q.267-.528.587-1.137.344-.634.704-1.287l7.947-14.125 3.824-.172.975 21.601-3.761.171-.602-13.308a53 53 0 0 1-.042-1.437q.005-.821.015-1.44l-.307.012q-.223.528-.562 1.2-.322.671-.683 1.325l-7.95 14.105zm22.029-11.486-.03-.659q-.22-4.885 2.311-8.106 2.55-3.224 6.969-3.422t6.933 2.589 2.738 7.716l.069 1.56-16.625.749-.135-3.04 12.779-.574-.021-.494q-.104-2.34-1.517-3.923-1.408-1.584-3.914-1.471-3.043.14-4.439 2.526-1.394 2.367-1.245 5.716l.03.655c.102 2.231.713 4.099 1.838 5.596q1.688 2.23 5.016 2.078 2.054-.092 3.494-1.062 1.438-.97 2.308-2.243l2.554 1.837q-.96 1.589-3.057 3.019-2.075 1.431-5.157 1.57-5.035.23-7.869-2.752-2.807-2.98-3.03-7.865"/><mask id="b" width="48" height="48" x="392" y="662" maskUnits="userSpaceOnUse" style="mask-type:luminance"><path fill="#fff" d="m437.48 662.313-45.089 2.033 2.035 45.055 45.088-2.033z"/></mask><g mask="url(#b)"><path fill="#000" fill-opacity=".6" d="M416.8 704.627c10.375-.469 18.409-9.251 17.939-19.619-.469-10.37-9.258-18.395-19.633-17.926-10.378.466-18.409 9.252-17.94 19.619.466 10.367 9.259 18.396 19.634 17.926"/><path stroke="#fff" stroke-linecap="round" stroke-linejoin="round" stroke-width="3.5" d="m410.314 686.118 3.927 3.584 7.177-7.848"/></g><path fill="#000" fill-opacity=".4" d="m455.146 775.89-1.351-29.896 9.905-.448q4.933-.222 7.694 2.144 2.764 2.343 2.949 6.45t-2.353 6.753q-2.535 2.623-7.468 2.847l-5.958.268.527 11.702zm3.271-15.127 5.957-.267q3.495-.159 4.815-1.927 1.319-1.785 1.209-4.252-.113-2.465-1.585-4.062-1.471-1.624-4.965-1.464l-5.961.267zm19.456 7.722q-.148-3.284 2.38-5.229 2.527-1.944 6.554-2.126l4.889-.222-.066-1.477q-.087-1.95-1.149-3.118-1.062-1.185-3.53-1.076-2.463.111-3.487 1.188-1.001 1.051-.942 2.387l.006.102-3.804.172-.003-.103q-.118-2.566 2.08-4.579 2.212-2.034 6.117-2.21t6.126 1.597q2.24 1.772 2.407 5.466l.446 9.856q.062 1.335.319 2.517c.174.773.397 1.458.671 2.047l.015.328-3.701.169q-.308-.5-.593-1.311a8.5 8.5 0 0 1-.361-1.63q-.702 1.371-2.359 2.472-1.64 1.103-4.312 1.223-3.083.141-5.317-1.509-2.238-1.646-2.386-4.934m3.812-.376q.086 1.848 1.201 2.847 1.114 1 3.376.896 2.26-.102 4.017-1.744 1.76-1.644 1.679-3.388l-.139-3.1-4.48.201q-2.875.131-4.306 1.284-1.43 1.155-1.348 3.004m28.414 5.92q-4.744.213-7.089-2.005c-1.553-1.495-2.368-3.199-2.455-5.115l-.006-.105 3.698-.165.006.102q.075 1.664 1.351 2.986 1.273 1.317 4.375 1.178 2.55-.114 3.899-1.202 1.35-1.092 1.27-2.878c-.042-.956-.4-1.711-1.068-2.255q-1.005-.82-3.102-.725l-3.801.172-.135-2.956 3.186-.144q2.119-.095 3.003-.98.885-.904.822-2.361-.078-1.665-1.288-2.513-1.19-.853-3.289-.758-2.672.121-3.969 1.434c-.854.86-1.251 1.937-1.194 3.223l.006.103-3.701.165-.003-.102q-.155-3.429 2.115-5.59 2.29-2.16 6.605-2.354 4.112-.185 6.262 1.425 2.174 1.61 2.304 4.483.076 1.664-.974 3.07-1.047 1.404-2.901 1.879l.003.06q2.235.23 3.544 1.426 1.332 1.175 1.418 3.127.152 3.365-2.395 5.292c-1.689 1.268-3.852 1.963-6.497 2.083m14.886 7.271-1.36-30.143 3.451-.156.292 2.805.123-.006q.763-1.371 2.404-2.391 1.662-1.022 3.924-1.124 4.108-.184 6.713 2.784t2.819 7.691l.031.656q.212 4.723-2.116 7.914-2.324 3.193-6.436 3.376-2.257.102-3.9-.625-1.616-.75-2.623-2.042l.502 11.086zm3.147-15.121q.702 1.407 2.191 2.471 1.49 1.065 3.544.974 3.084-.14 4.42-2.441 1.337-2.306 1.189-5.59l-.03-.658q-.15-3.284-1.688-5.457c-1.026-1.45-2.567-2.126-4.622-2.036q-2.053.095-3.442 1.287-1.386 1.196-1.959 2.661zm19.029-.818q-.146-3.284 2.38-5.229c1.685-1.299 3.87-2.005 6.554-2.129l4.892-.219-.069-1.48c-.057-1.298-.439-2.339-1.15-3.115q-1.061-1.187-3.526-1.076-2.468.111-3.487 1.188-1.005 1.051-.945 2.387l.006.102-3.801.172-.006-.103q-.116-2.566 2.08-4.579 2.212-2.034 6.117-2.21t6.126 1.597c1.496 1.178 2.299 3.004 2.41 5.466l.446 9.856q.058 1.335.319 2.517.257 1.16.668 2.047l.015.328-3.698.169q-.312-.503-.596-1.311a8.7 8.7 0 0 1-.361-1.63q-.7 1.367-2.359 2.471-1.64 1.104-4.309 1.224c-2.055.093-3.831-.412-5.32-1.509q-2.239-1.646-2.386-4.934m3.815-.376q.082 1.846 1.198 2.844 1.114 1 3.376.899 2.26-.102 4.02-1.744 1.755-1.644 1.679-3.388l-.142-3.103-4.477.204q-2.879.128-4.309 1.284-1.43 1.155-1.345 3.004m22.724-5.181.027.656q.146 3.183 1.827 5.31 1.68 2.102 4.805 1.963 3.122-.14 4.607-2.39 1.482-2.269 1.339-5.452l-.03-.655q-.145-3.184-1.824-5.289-1.683-2.125-4.805-1.984-3.122.14-4.607 2.408-1.484 2.25-1.339 5.433m6.749-11.004q4.297-.196 6.9 2.754 2.624 2.927 2.828 7.505l.03.658q.214 4.701-2.425 7.824-2.64 3.102-7.285 3.313-4.807.216-7.633-2.661-2.83-2.896-3.145-9.919l-.024-.532q-.344-7.559 1.959-11.757 2.325-4.199 9.036-5.529 3.512-.693 4.026-1.107.539-.415.617-.935l3.37-.15q-.125 2.166-1.592 3.506-1.442 1.322-5.834 2.117-5.227.935-6.942 3.584-1.712 2.63-1.881 6.648l.226-.01q.966-2.348 2.961-3.755 1.994-1.429 4.808-1.554m13.234 10.349-.03-.659c-.148-3.256.659-5.962 2.413-8.112q2.635-3.225 7.279-3.434 4.643-.211 7.558 2.767 2.913 2.975 3.136 7.862l.027.656q.222 4.888-2.414 8.112-2.631 3.224-7.275 3.437-4.644.209-7.559-2.767t-3.135-7.862m3.875-.833.03.655c.1 2.231.714 4.099 1.836 5.596q1.688 2.23 4.811 2.09c2.083-.097 3.617-.932 4.601-2.514q1.476-2.39 1.327-5.737l-.03-.658q-.15-3.347-1.839-5.575-1.684-2.249-4.808-2.108t-4.601 2.532q-1.48 2.373-1.327 5.719m18.503-8.344-.133-2.979 17.383-.782.136 2.976-6.783.307.843 18.624-3.822.171-.842-18.623zm35.897 17.043-9.051-9.409 2.226-2.691 11.51 11.886zm-12.668-11.979 3.677-.169 7.501-9.432 4.481-.201-10.038 12.532-5.486.246zm1.502-9.162.974 21.601-3.821.171-.975-21.601zm17.127 14.493q-.15-3.284 2.377-5.229 2.526-1.949 6.556-2.129l4.89-.219-.066-1.48q-.09-1.95-1.15-3.115-1.065-1.19-3.529-1.076-2.466.112-3.488 1.184-1.004 1.056-.941 2.391l.003.102-3.801.171-.006-.102q-.113-2.567 2.079-4.579 2.217-2.034 6.121-2.21 3.903-.176 6.123 1.597 2.243 1.767 2.41 5.466l.446 9.856q.06 1.335.318 2.517.258 1.159.668 2.047l.016.328-3.699.165c-.207-.33-.406-.769-.595-1.308a8.7 8.7 0 0 1-.361-1.629q-.7 1.367-2.359 2.471-1.639 1.102-4.309 1.224-3.082.138-5.32-1.509-2.235-1.652-2.383-4.934m3.812-.379q.082 1.85 1.198 2.847 1.119 1 3.376.899 2.26-.102 4.02-1.747c1.17-1.094 1.733-2.225 1.679-3.388l-.139-3.1-4.48.201q-2.879.131-4.309 1.287t-1.345 3.001"/><mask id="c" width="49" height="48" x="395" y="740" maskUnits="userSpaceOnUse" style="mask-type:luminance"><path fill="#fff" d="m441.007 740.407-45.089 2.033 2.035 45.056 45.089-2.033z"/></mask><g mask="url(#c)"><path stroke="#000" stroke-linecap="round" stroke-linejoin="round" stroke-opacity=".6" stroke-width="3.5" d="M420.327 782.722c10.375-.469 18.409-9.255 17.94-19.622-.47-10.367-9.259-18.392-19.637-17.926-10.375.469-18.406 9.251-17.937 19.622.467 10.367 9.259 18.392 19.634 17.926"/></g><path fill="#000" d="m248.613 216.328-.107-2.376q-.405-8.976 3.838-14.087 4.27-5.113 11.297-5.43t11.714 4.392q4.713 4.708 5.118 13.683l.108 2.376q.405 8.977-3.864 14.089-4.244 5.112-11.271 5.429t-11.741-4.391q-4.686-4.709-5.092-13.685m4.941-.223q.313 6.944 3.499 10.662 3.212 3.691 8.205 3.466 4.992-.225 7.858-4.19 2.864-3.992 2.551-10.935l-.108-2.376q-.314-6.943-3.524-10.634-3.213-3.717-8.206-3.492t-7.857 4.216q-2.84 3.965-2.525 10.907zm30.574-7.092-.169-3.723 22.036-.993.165 3.722-8.638.39 1.072 23.733-4.729.213-1.072-23.733zm30.966 2.175q.153 3.43 1.537 4.718c.918.84 2.447 1.213 4.577 1.116q2.378-.106 4.237-.535a67 67 0 0 0 4.107-1.084l.168 3.722a187 187 0 0 1-4.08 1.084q-1.914.456-5.136.602-5.072.228-7.508-2.122-2.408-2.352-2.632-7.288l-.328-7.287 4.73-.213zm16.26-8.035 1.243 27.455-4.73.214-1.24-27.456zm9.746-7.529q-.05-1.162.626-1.986.68-.824 2.052-.886t2.122.698.803 1.921q.05 1.109-.629 1.933-.677.825-2.049.886-1.376.063-2.124-.698c-.5-.506-.764-1.129-.801-1.868m11.071-.499q-.051-1.163.625-1.986.677-.824 2.053-.886 1.371-.062 2.121.698.776.757.827 1.92a2.67 2.67 0 0 1-.653 1.934q-.676.824-2.052.886-1.372.062-2.121-.698-.75-.76-.8-1.868m-14.152 21.906-.039-.844q-.28-6.204 2.925-10.29 3.228-4.087 8.804-4.339 5.6-.252 8.753 3.282 3.177 3.534 3.461 9.817l.087 1.927-21.084.951-.172-3.801 16.354-.738-.027-.581q-.135-3.009-1.95-5.07-1.787-2.062-5.037-1.916-3.88.175-5.678 3.219-1.795 3.018-1.6 7.321l.036.844q.196 4.304 2.362 7.169 2.17 2.838 6.394 2.648 2.617-.119 4.441-1.338 1.85-1.248 2.967-2.885l3.15 2.318q-1.182 2.011-3.827 3.823-2.645 1.786-6.554 1.962-6.341.286-9.926-3.467-3.56-3.781-3.84-10.012m26.317-11.635-.169-3.723 22.035-.994.169 3.723-8.639.39 1.071 23.733-4.73.213-1.071-23.733zm39.382-5.506 21.586-.974 1.24 27.456-4.73.213-1.072-23.733-12.126.546 1.071 23.734-4.73.213zm28.248 12.905-.039-.845q-.28-6.204 3.057-10.296t9.225-4.358q5.869-.264 9.557 3.511 3.692 3.775 3.972 9.979l.039.845q.282 6.204-3.057 10.296-3.335 4.092-9.202 4.356-5.889.265-9.58-3.509-3.693-3.775-3.972-9.979m4.796-1.063.039.845q.193 4.303 2.362 7.168 2.168 2.839 6.154 2.659 4.018-.182 5.918-3.203 1.9-3.05 1.707-7.352l-.037-.845q-.196-4.303-2.362-7.142-2.166-2.865-6.183-2.684-3.989.18-5.892 3.229-1.9 3.021-1.706 7.325m50.605 12.664q-5.97.268-8.954-2.532-2.96-2.803-3.13-6.526l-.006-.158 4.571-.206.006.158q.1 2.218 1.766 3.889 1.688 1.669 5.6 1.493 3.22-.146 4.962-1.52 1.733-1.4 1.631-3.724-.086-1.848-1.403-2.9-1.29-1.053-4.014-.93l-4.781.216-.165-3.696 4.014-.181q2.721-.123 3.863-1.259 1.164-1.163 1.08-3.038-.098-2.138-1.654-3.232-1.535-1.095-4.201-.974-3.382.152-5.052 1.841-1.647 1.662-1.535 4.143l.006.158-4.57.206-.006-.158q-.195-4.329 2.672-7.078c1.91-1.832 4.682-2.83 8.307-2.993q5.127-.23 7.866 1.814 2.767 2.018 2.931 5.688.099 2.138-1.252 3.919-1.323 1.779-3.68 2.361l.006.079q2.844.296 4.528 1.806 1.685 1.512 1.797 4.02.19 4.25-3.009 6.669-3.2 2.42-8.194 2.645m16.351-9.573q-.186-4.171 3.012-6.643t8.32-2.704l6.238-.281-.091-1.953q-.11-2.508-1.477-3.981-1.362-1.5-4.507-1.357c-2.098.094-3.59.593-4.487 1.498q-1.313 1.33-1.236 3.098l.009.159-4.704.212-.009-.185q-.148-3.274 2.624-5.806 2.795-2.56 7.736-2.783t7.743 2.006q2.825 2.226 3.039 6.926l.562 12.487q.08 1.715.412 3.235.332 1.493.861 2.633l.018.422-4.571.206q-.397-.643-.764-1.685a11.3 11.3 0 0 1-.466-2.095q-.871 1.76-2.979 3.177-2.108 1.39-5.516 1.545-3.936.176-6.758-1.891-2.82-2.095-3.009-6.24m4.718-.477q.109 2.376 1.544 3.66 1.458 1.257 4.339 1.127 2.878-.13 5.142-2.216 2.257-2.112 2.158-4.382l-.181-3.96-5.705.257q-3.727.168-5.563 1.653-1.842 1.485-1.734 3.861m46.959 13.331-.322-7.102-20.052.905.319 7.101-4.279.193-.488-10.823 28.61-1.291.49 10.824zm-16.056-30.174v10.555q.018 3.94-.253 6.122c-.184 1.455-.476 2.747-.885 3.876l-4.94.223q.765-1.225 1.242-3.574.476-2.35.473-7.111l-.006-13.624 19.101-.861 1.239 27.456-4.73.213-1.071-23.733zm22.504 14.699q-.191-4.171 3.009-6.643 3.195-2.473 8.323-2.704l6.234-.281-.087-1.953q-.116-2.508-1.477-3.981-1.367-1.5-4.511-1.358-3.142.142-4.486 1.499-1.314 1.33-1.237 3.098l.009.158-4.703.212-.009-.184q-.148-3.274 2.624-5.806 2.798-2.56 7.736-2.783 4.941-.222 7.742 2.005 2.827 2.228 3.039 6.926l.566 12.487a19 19 0 0 0 .409 3.236q.334 1.493.861 2.633l.018.422-4.571.206q-.398-.643-.764-1.685a11 11 0 0 1-.464-2.095q-.874 1.758-2.981 3.176-2.108 1.392-5.516 1.546-3.938.177-6.755-1.891-2.825-2.096-3.009-6.24m4.715-.478q.108 2.377 1.544 3.661 1.458 1.257 4.339 1.127 2.88-.13 5.142-2.216 2.261-2.112 2.157-4.383l-.177-3.96-5.708.258q-3.726.168-5.564 1.653c-1.228.99-1.802 2.277-1.733 3.86m29.109-13.19q.153 3.432 1.538 4.719 1.376 1.26 4.576 1.116 2.378-.106 4.237-.535a67 67 0 0 0 4.107-1.084l.169 3.722q-2.172.601-4.081 1.084-1.913.456-5.136.602-5.071.228-7.507-2.122-2.41-2.352-2.633-7.288l-.328-7.287 4.727-.213zm16.261-8.034 1.239 27.455-4.727.214-1.24-27.456zm6.664 13.878-.039-.844q-.279-6.204 2.925-10.29 3.228-4.087 8.804-4.339 5.601-.252 8.75 3.282 3.179 3.534 3.464 9.817l.087 1.927-21.084.951-.171-3.801 16.353-.738-.027-.581q-.135-3.009-1.949-5.07-1.788-2.062-5.038-1.916-3.881.175-5.677 3.219-1.796 3.018-1.601 7.321l.036.844q.195 4.304 2.362 7.169c1.444 1.892 3.578 2.775 6.394 2.648q2.618-.119 4.441-1.338 1.85-1.248 2.967-2.885l3.151 2.318q-1.184 2.01-3.828 3.823-2.645 1.787-6.553 1.962-6.343.286-9.927-3.467-3.56-3.781-3.84-10.012"/><path fill="#000" d="m251.271 281.445-.098-2.159q-.357-7.908 3.46-12.477 3.817-4.593 9.876-4.866t9.638 2.904 3.792 7.895l.011.258-4.414.199-.012-.258q-.15-3.309-2.359-5.349-2.212-2.064-6.486-1.871-4.203.189-6.783 3.504-2.556 3.314-2.261 9.86l.097 2.159q.274 6.054 3.13 9.382 2.856 3.304 7.083 3.114 4.04-.183 6.007-2.458 1.968-2.275 2.127-5.528l.012-.259 4.415-.199-.012.259q-.234 4.713-3.276 8.213-3.043 3.477-9.102 3.75-6.082.274-10.297-3.933-4.191-4.231-4.548-12.14m31.137 2.711-.034-.751q-.252-5.562 2.738-9.2 2.988-3.662 8.248-3.899t8.565 3.141q3.308 3.355 3.556 8.916l.033.751q.253 5.562-2.735 9.223t-8.248 3.9q-5.26.237-8.566-3.141t-3.557-8.94m4.334-.948.034.751q.172 3.825 2.1 6.372 1.926 2.547 5.496 2.386t5.235-2.87q1.69-2.71 1.517-6.535l-.033-.751q-.175-3.825-2.1-6.372-1.904-2.547-5.473-2.386-3.57.16-5.259 2.87t-1.517 6.535m33.784 11.856q-5.354.242-8.031-2.271c-1.772-1.692-2.705-3.64-2.807-5.846l-.003-.118 4.155-.187.006.117q.087 1.948 1.568 3.457 1.48 1.485 4.977 1.327 2.888-.13 4.432-1.375c1.032-.831 1.513-1.926 1.453-3.287q-.076-1.643-1.221-2.579-1.15-.936-3.569-.827l-4.297.194-.15-3.332 3.592-.162q2.443-.11 3.455-1.12 1.015-1.034.939-2.699-.087-1.9-1.472-2.873-1.362-.973-3.758-.865-3.005.135-4.489 1.637-1.463 1.476-1.364 3.682l.006.141-4.158.188-.006-.141q-.175-3.896 2.398-6.34 2.596-2.445 7.456-2.664 4.65-.21 7.087 1.609 2.456 1.817 2.605 5.102.086 1.878-1.113 3.484-1.176 1.581-3.292 2.123l.003.071q2.551.261 4.047 1.604 1.522 1.342 1.622 3.595.172 3.802-2.717 5.978-2.867 2.175-7.354 2.377m35.244 4.031-.282-6.313-17.895.807.283 6.313-3.873.174-.439-9.668 25.646-1.156.436 9.668zm-14.343-26.912.021 9.358q.019 3.55-.223 5.512-.24 1.962-.782 3.468l-4.511.204q.705-1.067 1.129-3.178.445-2.113.436-6.463l-.027-12.085 17.166-.774 1.11 24.545-4.299.194-.957-21.19zm20.169 13.081q-.168-3.707 2.672-5.928 2.867-2.222 7.444-2.429l5.591-.252-.078-1.713q-.101-2.229-1.315-3.562t-4.032-1.205q-2.816.126-3.984 1.355-1.146 1.204-1.078 2.729l.006.141-4.275.193-.006-.141q-.132-2.91 2.356-5.185 2.507-2.3 6.944-2.5 4.418-.2 6.93 1.804 2.537 1.978 2.726 6.178l.506 11.194q.07 1.525.367 2.876.293 1.327.764 2.34l.015.376-4.131.186q-.357-.572-.68-1.498a9.7 9.7 0 0 1-.412-1.862q-.803 1.565-2.696 2.825-1.873 1.261-4.905 1.397-3.521.16-6.054-1.702-2.507-1.885-2.675-5.617m4.264-.404q.095 2.112 1.369 3.254 1.276 1.119 3.857 1.002c1.724-.078 3.253-.743 4.595-1.994q2.01-1.878 1.92-3.873l-.16-3.52-5.121.231q-3.286.149-4.923 1.468-1.633 1.32-1.537 3.432m22.052-18.136 4.276-.193.467 10.326 11.037-.498-.467-10.326 4.273-.192 1.11 24.546-4.276.192-.49-10.864-11.037.497.491 10.865-4.273.193zm48.313 22.417-1.327-29.333-8.455 4.003-.193-4.295 12.096-5.178.752-.033 1.565 34.636zm29.401-1.326-1.108-24.546 5.847-.263 7.907 16.667q.623 1.313.813 1.845.186.532.331 1.09l.235-.011q.09-.567.231-1.115.14-.548.623-1.862l6.439-17.362 5.729-.258 1.111 24.546-4.087.184-.755-16.732a56 56 0 0 1-.066-1.972q.019-.612.042-1.107l-.21.009q-.097.499-.232 1.116c-.09.396-.307 1.04-.641 1.933l-6.358 17.123-3.686.167-7.902-16.551q-.547-1.15-.764-1.776a26 26 0 0 1-.355-1.112l-.211.009c.045.327.088.694.121 1.1q.071.584.129 1.804l.761 16.896zm35.084-1.582-1.107-24.546 4.204-.19.689 15.254q.032.703.045 1.573.04.845.048 1.573l.235-.01q.301-.625.671-1.324c.243-.466.514-.948.803-1.447l9.06-16.14 4.3-.193 1.107 24.546-4.227.19-.686-15.206a75 75 0 0 1-.052-1.644q.006-.917.022-1.647l-.353.016q-.255.624-.619 1.392-.368.746-.78 1.493l-9.063 16.116zm25.851-25.762 4.275-.192.467 10.325 11.037-.498-.467-10.325 4.273-.193 1.11 24.546-4.275.193-.491-10.865-11.037.498.491 10.864-4.273.193zm38.09-1.717 4.276-.193.467 10.325 11.037-.498-.467-10.325 4.273-.193 1.11 24.546-4.276.193-.49-10.865-11.037.498.49 10.865-4.272.192zm25.911 16.185q-.168-3.708 2.675-5.929 2.862-2.222 7.444-2.428l5.588-.252-.078-1.714q-.102-2.229-1.312-3.561-1.216-1.334-4.032-1.206-2.818.127-3.987 1.356-1.147 1.203-1.078 2.729l.006.141-4.272.192-.006-.141q-.133-2.909 2.353-5.185 2.508-2.3 6.947-2.5 4.415-.199 6.93 1.804 2.537 1.978 2.726 6.179l.506 11.193q.066 1.526.364 2.876.296 1.328.764 2.34l.018.376-4.134.186q-.354-.572-.68-1.497a10 10 0 0 1-.412-1.863q-.8 1.565-2.696 2.826-1.874 1.26-4.902 1.397-3.523.158-6.054-1.703-2.51-1.886-2.678-5.616m4.264-.404q.094 2.112 1.372 3.253 1.272 1.119 3.857 1.002 2.583-.116 4.592-1.994 2.01-1.878 1.92-3.873l-.16-3.519-5.118.23q-3.29.149-4.923 1.469-1.635 1.32-1.54 3.432m32.211 6.706q-5.354.241-8.031-2.271c-1.773-1.692-2.705-3.64-2.805-5.846l-.006-.117 4.156-.188.006.118q.087 1.947 1.567 3.456 1.48 1.485 4.977 1.327 2.889-.13 4.436-1.375 1.542-1.245 1.45-3.287-.073-1.643-1.222-2.578-1.15-.936-3.568-.827l-4.297.194-.151-3.333 3.593-.162q2.442-.11 3.457-1.12 1.012-1.032.936-2.699-.085-1.9-1.471-2.873-1.363-.973-3.758-.865-3.005.135-4.49 1.637-1.462 1.476-1.363 3.683l.006.14-4.158.188-.006-.141q-.176-3.895 2.398-6.34 2.595-2.444 7.456-2.664 4.649-.209 7.086 1.609 2.456 1.817 2.606 5.103.084 1.876-1.113 3.483-1.175 1.581-3.292 2.124l.003.07q2.55.261 4.05 1.604 1.518 1.343 1.619 3.595.17 3.802-2.717 5.978-2.867 2.175-7.354 2.377m14.72-8.611q-.168-3.708 2.675-5.929 2.862-2.222 7.441-2.428l5.591-.252-.079-1.713q-.1-2.23-1.312-3.562-1.214-1.333-4.032-1.206t-3.986 1.356q-1.146 1.203-1.078 2.729l.006.141-4.272.192-.006-.14q-.133-2.91 2.353-5.185 2.508-2.3 6.947-2.501 4.415-.198 6.93 1.804 2.537 1.979 2.726 6.179l.506 11.194q.067 1.525.364 2.875.293 1.327.764 2.341l.018.375-4.134.187q-.357-.573-.68-1.498a10 10 0 0 1-.412-1.863q-.8 1.565-2.697 2.826-1.872 1.26-4.901 1.397-3.524.158-6.054-1.702-2.51-1.887-2.678-5.617m4.263-.404q.095 2.111 1.373 3.254 1.272 1.118 3.857 1.001 2.582-.116 4.592-1.994t1.92-3.872l-.16-3.52-5.118.231q-3.29.148-4.923 1.468-1.635 1.32-1.541 3.432m42 11.885-.283-6.312-17.897.807.285 6.312-3.875.175-.436-9.668 25.645-1.157.436 9.669zM673.676 257.2l.021 9.357q.02 3.55-.223 5.513-.24 1.962-.782 3.468l-4.51.203q.704-1.066 1.128-3.178.444-2.113.436-6.462l-.027-12.086 17.167-.774 1.107 24.546-4.297.194-.957-21.19z" opacity=".3"/><path stroke="#f4f4f4" stroke-width="2" d="m836.958 337.289-538.061 24.265c-24.072 1.086-42.706 21.465-41.619 45.519 1.086 24.054 21.481 42.674 45.553 41.588l538.061-24.264c24.072-1.086 42.705-21.466 41.619-45.52-1.087-24.054-21.481-42.673-45.553-41.588Z"/><mask id="d" width="48" height="48" x="277" y="381" maskUnits="userSpaceOnUse" style="mask-type:luminance"><path fill="#fff" d="m322.392 381.563-45.089 2.033 2.035 45.055 45.089-2.033z"/></mask><g stroke="#000" stroke-linecap="round" stroke-linejoin="round" stroke-opacity=".4" stroke-width="3.5" mask="url(#d)"><path d="M301.711 423.877c10.375-.466 18.409-9.251 17.939-19.619s-9.258-18.395-19.635-17.926c-10.375.469-18.407 9.252-17.939 19.619.468 10.37 9.259 18.395 19.635 17.926"/><path d="m295.227 405.368 3.927 3.587 7.176-7.851"/></g><path fill="#000" fill-opacity=".4" d="m349.429 410.149-.009-.205 3.821-.174.009.207q.113 2.463 1.818 3.744t4.417 1.16q2.711-.121 4.276-1.551 1.56-1.43 1.432-4.303-.13-2.876-2.025-4.251t-4.977-1.236l-2.365.108-.141-3.163 2.157-.096q2.835-.13 4.315-1.576 1.48-1.442 1.366-3.909c-.072-1.641-.575-2.847-1.501-3.614q-1.39-1.15-3.65-1.049-2.384.107-3.725 1.383-1.344 1.273-1.24 3.533l.009.204-3.825.172-.009-.205c-.099-2.192.647-4.095 2.236-5.719q2.38-2.431 6.406-2.612 3.906-.176 6.494 1.93 2.586 2.103 2.744 5.596.091 2.053-.954 3.992-1.043 1.94-3.382 3.073l.003.085c1.748.357 3.168 1.166 4.27 2.42s1.694 2.829 1.778 4.733q.186 4.128-2.522 6.615-2.707 2.49-7.023 2.685-4.564.202-7.299-2.039-2.737-2.24-2.904-5.938m35.777 6.206-.975-21.601 3.761-.171.602 13.326q.028.618.042 1.398.035.758.042 1.377l.205-.009q.266-.527.587-1.14.342-.632.704-1.287l7.949-14.122 3.822-.172.975 21.601-3.761.171-.599-13.308a42 42 0 0 1-.045-1.437q.005-.824.018-1.44l-.31.012c-.148.352-.337.748-.563 1.2q-.319.672-.683 1.326l-7.947 14.101zm31.817-.818q-4.747.213-7.092-2.006-2.325-2.241-2.453-5.114l-.006-.103 3.698-.168.006.102q.075 1.665 1.348 2.986 1.277 1.321 4.379 1.182 2.55-.115 3.899-1.206 1.35-1.092 1.27-2.877-.064-1.435-1.071-2.256-1.004-.82-3.099-.724l-3.801.171-.135-2.955 3.186-.145q2.115-.095 3.003-.98.886-.903.819-2.36-.074-1.666-1.285-2.514-1.194-.852-3.289-.758-2.672.123-3.972 1.435-1.277 1.293-1.191 3.223l.003.102-3.698.166-.003-.103q-.157-3.428 2.115-5.589 2.288-2.16 6.605-2.355 4.11-.185 6.261 1.426 2.175 1.608 2.305 4.486.072 1.659-.975 3.067-1.049 1.406-2.9 1.879l.003.063q2.235.226 3.544 1.422 1.327 1.176 1.417 3.127.153 3.365-2.395 5.292-2.53 1.903-6.496 2.084m36.61-2.27-.37-8.17-.048-1.07-.647-14.351-.247.012-8.5 13.735 10.396-.47 1.583-.069 5.259-.237.148 3.244-21.74.98-.117-2.589 13.098-20.918 3.532-.159 1.351 29.896z"/><mask id="e" width="239" height="26" x="500" y="378" maskUnits="userSpaceOnUse" style="mask-type:luminance"><path fill="#fff" d="m730.371 378.214-222.439 10.031a7.52 7.52 0 0 0-7.176 7.848 7.52 7.52 0 0 0 7.854 7.171l222.439-10.032a7.52 7.52 0 0 0 7.176-7.848 7.52 7.52 0 0 0-7.854-7.17"/></mask><g mask="url(#e)"><path fill="#e7e7e7" d="m730.371 378.214-222.439 10.031a7.52 7.52 0 0 0-7.176 7.848 7.52 7.52 0 0 0 7.854 7.171l222.439-10.032a7.52 7.52 0 0 0 7.176-7.848 7.52 7.52 0 0 0-7.854-7.17"/><path fill="#1eab67" d="m655.222 381.603-147.29 6.642a7.52 7.52 0 0 0-7.176 7.848 7.52 7.52 0 0 0 7.854 7.171l147.291-6.643a7.52 7.52 0 0 0 7.175-7.848 7.52 7.52 0 0 0-7.854-7.17"/></g><path fill="#000" fill-opacity=".4" d="m781.014 398.503 10.267-27.105-15.906.715-.15-3.304 20.015-.905.097 2.137-10.294 28.282zm19.429-8.385-.009-.205 3.782-.171.009.204q.1 2.26 1.764 3.5 1.66 1.222 4.332 1.104 2.671-.122 4.294-2.006 1.625-1.905 1.475-5.19-.15-3.283-1.932-4.934-1.782-1.645-4.453-1.527-1.85.084-3.238.827-1.388.72-2.564 2.008l-2.771-1.151.849-14.977 15.532-.701.159 3.491-12.33.557-.524 8.461a12.7 12.7 0 0 1 2.356-1.197q1.354-.535 3-.611 3.904-.175 6.755 2.352 2.854 2.503 3.066 7.225.213 4.725-2.5 7.583c-1.809 1.891-4.149 2.902-7.029 3.034q-4.6.206-7.234-1.979-2.631-2.206-2.789-5.697m22.474-14.821-.096-2.134q-.147-3.284 1.465-5.374 1.615-2.092 4.905-2.237 3.285-.148 5.082 1.786 1.82 1.934 1.965 5.22l.096 2.135c.1 2.192-.394 3.981-1.486 5.376-1.074 1.392-2.711 2.138-4.902 2.237-2.19.099-3.888-.496-5.085-1.786q-1.796-1.935-1.944-5.223m3.37-.15q.085 1.85.879 3.004.79 1.157 2.642 1.076 1.848-.086 2.533-1.308.709-1.228.623-3.073l-.096-2.138q-.08-1.844-.897-3.003-.792-1.16-2.642-1.074-1.85.081-2.536 1.308c-.458.815-.656 1.84-.602 3.073zm24.635-8.951-17.573 30.831-2.648-1.669 17.57-30.831zm-5.594 22.493-.096-2.134q-.15-3.284 1.465-5.373 1.615-2.093 4.902-2.241 3.289-.145 5.085 1.79 1.816 1.932 1.965 5.219l.096 2.135q.148 3.284-1.486 5.376-1.616 2.088-4.902 2.237-3.29.149-5.085-1.786c-1.198-1.293-1.845-3.031-1.944-5.223m3.37-.15q.081 1.847.876 3.004.794 1.158 2.642 1.076 1.85-.085 2.536-1.308.709-1.227.623-3.073l-.096-2.137q-.082-1.847-.897-3.004-.794-1.16-2.645-1.074-1.846.082-2.533 1.308-.687 1.224-.602 3.07z"/><path fill="#f4f4f4" d="m412.816 883.143-102.202 4.609c-19.091.861-33.87 17.025-33.008 36.102s17.037 33.844 36.128 32.983l102.202-4.609c19.091-.861 33.87-17.024 33.008-36.101s-17.037-33.845-36.128-32.984"/><path fill="#999" d="m296.385 939.563 11.314-34.983 4.041-.184 14.422 33.823-4.603.208-10.517-25.51q-.319-.784-.563-1.479-.243-.716-.442-1.509l-.235.012a22 22 0 0 1-.306 1.542q-.18.712-.428 1.525l-8.268 26.354zm5.113-9.215 1.176-3.696 15.993-.721 1.501 3.575zm33.312-13.753v9.925q.005 6.277-1.164 9.104-1.167 2.829-4.688 2.986a8.3 8.3 0 0 1-1.439-.051q-.663-.066-1.119-.256l-.162-3.614q.407.146.833.196.426.053.942.03 1.833-.084 2.335-1.964c.352-1.268.523-3.56.514-6.867l-.009-12.673 16.932-.764 1.11 24.547-4.276.192-.956-21.188zm21.06 20.283-1.11-24.544 4.203-.189.689 15.253q.033.703.049 1.572.04.846.048 1.573l.234-.009q.303-.628.671-1.323.366-.7.804-1.449l9.06-16.14 4.297-.193 1.11 24.547-4.228.19-.686-15.206a70 70 0 0 1-.051-1.644q.004-.917.021-1.648l-.355.018q-.254.622-.617 1.389-.368.747-.782 1.495l-9.06 16.116zm25.85-25.762 4.273-.192.466 10.325 11.04-.496-.466-10.325 4.273-.193 1.107 24.545-4.273.192-.49-10.863-11.037.496.49 10.866-4.275.193zm25.911 16.186q-.168-3.707 2.672-5.927 2.866-2.222 7.444-2.429l5.591-.253-.079-1.713q-.1-2.23-1.315-3.56-1.21-1.333-4.029-1.206-2.819.125-3.987 1.356-1.145 1.204-1.077 2.727l.006.141-4.272.193-.007-.142q-.134-2.91 2.354-5.183c1.673-1.534 3.986-2.367 6.947-2.502q4.414-.198 6.927 1.804 2.537 1.98 2.726 6.179l.506 11.194q.07 1.526.367 2.875.293 1.329.764 2.342l.018.376-4.134.186q-.356-.573-.68-1.497a10 10 0 0 1-.413-1.864q-.801 1.564-2.696 2.826-1.872 1.26-4.901 1.395-3.526.161-6.054-1.702-2.51-1.884-2.678-5.616m4.263-.403q.096 2.111 1.372 3.253 1.273 1.12 3.858 1.001 2.582-.117 4.592-1.993 2.01-1.878 1.919-3.873l-.159-3.521-5.118.232q-3.29.149-4.923 1.47-1.637 1.319-1.541 3.431"/><path fill="#f4f4f4" d="m611.208 874.198-105.207 4.745c-19.092.861-33.87 17.024-33.008 36.101s17.037 33.845 36.128 32.984l105.208-4.745c19.091-.861 33.869-17.024 33.008-36.101-.862-19.078-17.037-33.845-36.129-32.984"/><path fill="#999" d="m495.715 930.573-1.543-34.169 25.573-1.151 1.544 34.165-4.414.199-1.381-30.528-16.721.755 1.381 30.528zm31.306-8.653q-.167-3.709 2.672-5.93 2.867-2.223 7.444-2.429l5.591-.253-.078-1.711q-.1-2.232-1.315-3.563-1.212-1.331-4.029-1.205-2.82.125-3.987 1.356-1.146 1.203-1.077 2.73l.006.138-4.273.193-.006-.139c-.09-1.942.695-3.668 2.353-5.186q2.508-2.301 6.948-2.499 4.413-.203 6.926 1.804 2.538 1.976 2.73 6.179l.505 11.191a17 17 0 0 0 .364 2.878q.294 1.325.764 2.339l.018.376-4.134.186q-.356-.573-.68-1.497a10 10 0 0 1-.412-1.864q-.8 1.566-2.696 2.826c-1.249.842-2.883 1.305-4.902 1.398q-3.526.157-6.054-1.702-2.51-1.886-2.678-5.616m4.264-.406q.094 2.113 1.372 3.253 1.271 1.118 3.857 1.004 2.583-.116 4.592-1.996 2.01-1.876 1.92-3.873l-.16-3.518-5.118.232q-3.289.145-4.923 1.467-1.636 1.32-1.54 3.431m23.163 6.41-1.11-24.547 10.567-.475q4.065-.185 6.463 1.353 2.42 1.515 2.57 4.799.094 2.089-1.089 3.53-1.179 1.44-3.229 1.978l.006.072q2.55.262 4.05 1.651 1.522 1.366 1.622 3.62c.103 2.237-.635 4.017-2.205 5.343q-2.334 1.984-6.373 2.168zm3.635-14.342 6.292-.286q2.351-.105 3.34-1.112.988-1.033.911-2.7-.072-1.643-1.146-2.487-1.074-.848-3.421-.74l-6.295.283zm.487 10.794 6.999-.316q2.37-.108 3.427-1.19 1.084-1.083 1.005-2.797-.077-1.664-1.224-2.624-1.152-.961-3.545-.851l-6.999.315zm20.067-9.465-.033-.752q-.251-5.56 2.621-9.195 2.894-3.656 7.896-3.881 5-.225 7.85 2.937 2.85 3.14 3.102 8.75l.078 1.759-18.878.851-.156-3.425 14.56-.658-.024-.539q-.122-2.674-1.733-4.483-1.589-1.835-4.478-1.704-3.452.157-5.046 2.862-1.596 2.706-1.423 6.531l.033.751q.173 3.824 2.101 6.372 1.925 2.544 5.708 2.375 2.347-.103 3.968-1.191 1.647-1.108 2.639-2.564l2.868 2.059q-1.092 1.814-3.466 3.446-2.352 1.614-5.85 1.771-5.709.256-8.894-3.127-3.19-3.384-3.443-8.945m32.53-10.779v9.925q0 6.277-1.164 9.104-1.167 2.829-4.691 2.986a8 8 0 0 1-1.435-.051q-.664-.067-1.12-.256l-.162-3.614q.405.145.833.196.424.053.942.03 1.831-.084 2.335-1.964c.349-1.268.521-3.56.515-6.867l-.009-12.674 16.931-.763 1.11 24.547-4.275.192-.957-21.188z"/></g><defs><filter id="a" width="904.896" height="1022.08" x="152.244" y="61.206" color-interpolation-filters="sRGB" filterUnits="userSpaceOnUse"><feFlood flood-opacity="0" result="BackgroundImageFix"/><feColorMatrix in="SourceAlpha" result="hardAlpha" values="0 0 0 0 0 0 0 0 0 0 0 0 0 0 0 0 0 0 127 0"/><feOffset dx="6" dy="6"/><feGaussianBlur stdDeviation="17"/><feComposite in2="hardAlpha" operator="out"/><feColorMatrix values="0 0 0 0 0 0 0 0 0 0 0 0 0 0 0 0 0 0 0.15 0"/><feBlend in2="BackgroundImageFix" result="effect1_dropShadow_947_282"/><feBlend in="SourceGraphic" in2="effect1_dropShadow_947_282" result="shape"/></filter></defs></svg>