<svg xmlns="http://www.w3.org/2000/svg" width="809" height="285" fill="none" viewBox="0 0 809 285"><g clip-path="url(#a)"><path fill="url(#b)" d="M-.5 24c0-13.255 10.745-24 24-24h762c13.255 0 24 10.745 24 24v237c0 13.255-10.745 24-24 24h-762c-13.255 0-24-10.745-24-24z"/><path fill="url(#c)" d="M-.5 24c0-13.255 10.745-24 24-24h762c13.255 0 24 10.745 24 24v237c0 13.255-10.745 24-24 24h-762c-13.255 0-24-10.745-24-24z"/><path fill="url(#d)" d="M-.5 24c0-13.255 10.745-24 24-24h762c13.255 0 24 10.745 24 24v237c0 13.255-10.745 24-24 24h-762c-13.255 0-24-10.745-24-24z"/><g filter="url(#e)" opacity=".6"><ellipse cx="-38.328" cy="497.319" fill="#ff5e63" rx="221.486" ry="400.48" transform="rotate(26.78 -38.328 497.319)"/></g></g><defs><linearGradient id="b" x1="809.5" x2="99.972" y1="-59.891" y2="1012.15" gradientUnits="userSpaceOnUse"><stop offset=".226" stop-color="#9396ff"/><stop offset="1" stop-color="#6e3aff"/></linearGradient><linearGradient id="c" x1="809.5" x2="755.005" y1="-59.891" y2="391.141" gradientUnits="userSpaceOnUse"><stop stop-color="#2f163b"/><stop offset="1" stop-color="#723aff"/></linearGradient><linearGradient id="d" x1="809.5" x2="99.972" y1="-59.891" y2="1012.15" gradientUnits="userSpaceOnUse"><stop offset=".226" stop-color="#9497ff"/><stop offset="1" stop-color="#6e3aff"/></linearGradient><clipPath id="a"><path fill="#fff" d="M-.5 24c0-13.255 10.745-24 24-24h762c13.255 0 24 10.745 24 24v237c0 13.255-10.745 24-24 24h-762c-13.255 0-24-10.745-24-24z"/></clipPath><filter id="e" width="1263.38" height="1470.57" x="-670.017" y="-237.967" color-interpolation-filters="sRGB" filterUnits="userSpaceOnUse"><feFlood flood-opacity="0" result="BackgroundImageFix"/><feBlend in="SourceGraphic" in2="BackgroundImageFix" result="shape"/><feGaussianBlur result="effect1_foregroundBlur_708_274" stdDeviation="182"/></filter></defs></svg>