<svg width="676" height="193" viewBox="0 0 676 193" fill="none" xmlns="http://www.w3.org/2000/svg">
<g clip-path="url(#clip0_920_492)">
<path opacity="0.06" d="M-2.9922 193V14.1523H62.913C82.224 14.1523 97.1058 17.9171 107.559 25.4466C118.011 32.8875 123.238 44.4918 123.238 60.2594C123.238 70.8007 120.802 79.3046 115.93 85.7711C111.146 92.2376 104.99 96.5339 97.4601 98.6598V99.1913C106.761 101.317 114.291 106.012 120.049 113.276C125.895 120.451 128.818 130.239 128.818 142.641C128.818 158.94 123.238 171.43 112.076 180.111C101.003 188.704 85.8116 193 66.5006 193H-2.9922ZM27.0372 166.558H64.7733C76.5547 166.558 85.0586 164.299 90.285 159.782C95.5999 155.264 98.2574 148.709 98.2574 140.116C98.2574 131.435 95.5999 124.747 90.285 120.052C85.0586 115.269 76.5547 112.877 64.7733 112.877H27.0372V166.558ZM27.0372 88.03H60.7871C72.5685 88.03 80.9395 86.0369 85.9001 82.0507C90.8608 77.9759 93.3411 71.8637 93.3411 63.7141C93.2525 55.8303 90.7722 50.0724 85.9001 46.4406C81.0281 42.7201 72.7457 40.8599 61.0528 40.8599H27.0372V88.03ZM155.127 193V14.1523H222.361C243.089 14.1523 258.813 19.2015 269.531 29.2999C280.338 39.3983 285.742 53.6157 285.742 71.9523C285.742 90.466 280.338 104.905 269.531 115.269C258.813 125.545 243.089 130.682 222.361 130.682H185.688V193H155.127ZM185.688 103.045H219.969C232.725 103.045 241.805 100.343 247.209 94.9394C252.612 89.5359 255.314 81.9178 255.314 72.0852C255.314 62.784 252.612 55.476 247.209 50.161C241.894 44.8461 232.814 42.1443 219.969 42.0557H185.688V103.045ZM307.4 193L307.533 14.1523H349.122L399.482 137.99C400.544 140.471 401.475 142.995 402.272 145.564C403.158 148.044 403.911 150.702 404.531 153.537H405.328C406.037 150.702 406.834 148.044 407.72 145.564C408.605 143.084 409.536 140.559 410.51 137.99L461.002 14.1523H502.857L502.99 193H472.961V77.533C472.961 74.9641 473.093 71.9966 473.359 68.6304C473.625 65.2643 473.891 62.2525 474.156 59.595H472.828C472.296 62.2525 471.499 65.2643 470.436 68.6304C469.462 71.9966 468.487 74.9641 467.513 77.533L420.343 193H391.11L341.947 75.8056C340.973 73.2367 339.954 70.092 338.891 66.3716C337.828 62.6511 337.12 59.8165 336.765 57.8677H335.436C335.614 59.7279 335.835 62.5626 336.101 66.3716C336.455 70.092 336.632 73.2367 336.632 75.8056V193H307.4ZM537.006 193V14.1523H569.161L643.836 131.081C645.342 133.384 646.759 135.997 648.088 138.921C649.416 141.755 650.524 144.368 651.41 146.76L652.605 146.627C652.163 144.058 651.853 141.224 651.675 138.123C651.498 134.934 651.41 132.055 651.41 129.486V14.1523H680.509V193H648.486L573.679 76.0714C572.261 73.8568 570.844 71.3765 569.427 68.6304C568.098 65.7958 566.991 63.1383 566.105 60.658H564.909C565.352 63.3155 565.662 66.2387 565.839 69.4277C566.016 72.5281 566.105 75.3627 566.105 77.9316V193H537.006Z" fill="url(#paint0_linear_920_492)"/>
<path d="M299 62H465" stroke="#4586C5" stroke-width="2" stroke-linecap="round"/>
<path d="M-33 62H133" stroke="#4586C5" stroke-width="2" stroke-linecap="round"/>
<path d="M299 62C451.5 62 380.5 151.5 468 151.5" stroke="#4586C5" stroke-width="2" stroke-linecap="round"/>
<rect x="58" y="29" width="238" height="66" rx="12" fill="white"/>
<rect x="55.5" y="26.5" width="243" height="71" rx="14.5" stroke="white" stroke-opacity="0.3" stroke-width="5"/>
<path d="M112.996 58V49.4688H119.564V58H118.416V50.4238H114.145V58H112.996ZM121.064 54.9766V54.7891C121.064 53.8477 121.336 53.0801 121.879 52.4863C122.422 51.8887 123.146 51.5898 124.053 51.5898C124.959 51.5898 125.684 51.8887 126.227 52.4863C126.77 53.0801 127.041 53.8477 127.041 54.7891V54.9766C127.041 55.918 126.77 56.6875 126.227 57.2852C125.684 57.8789 124.959 58.1758 124.053 58.1758C123.146 58.1758 122.422 57.8789 121.879 57.2852C121.336 56.6875 121.064 55.918 121.064 54.9766ZM122.201 54.7891V54.9766C122.201 55.6133 122.355 56.1523 122.664 56.5938C122.977 57.0352 123.439 57.2559 124.053 57.2559C124.666 57.2559 125.127 57.0352 125.436 56.5938C125.744 56.1523 125.898 55.6133 125.898 54.9766V54.7891C125.898 54.1484 125.744 53.6074 125.436 53.166C125.127 52.7246 124.666 52.5039 124.053 52.5039C123.439 52.5039 122.977 52.7246 122.664 53.166C122.355 53.6074 122.201 54.1484 122.201 54.7891ZM129.982 52.6445L129.871 55.1289C129.828 56.1797 129.691 56.9414 129.461 57.4141C129.234 57.8867 128.826 58.123 128.236 58.123C128.1 58.123 127.977 58.1133 127.867 58.0938C127.762 58.0781 127.672 58.0527 127.598 58.0176V57.0566C127.664 57.084 127.732 57.1035 127.803 57.1152C127.877 57.127 127.957 57.1328 128.043 57.1328C128.344 57.1328 128.545 56.9805 128.646 56.6758C128.752 56.3672 128.822 55.8008 128.857 54.9766L128.992 51.7656H133.393V58H132.279V52.6445H129.982ZM134.582 60.4375V59.4883C134.688 59.5195 134.803 59.5449 134.928 59.5645C135.057 59.584 135.182 59.5938 135.303 59.5938C135.584 59.5938 135.824 59.5 136.023 59.3125C136.223 59.1289 136.443 58.6797 136.686 57.9648V57.959L134.336 51.7656H135.426L136.92 55.8496C136.975 56.0059 137.023 56.1562 137.066 56.3008C137.113 56.4414 137.152 56.5762 137.184 56.7051H137.219C137.25 56.5762 137.289 56.4414 137.336 56.3008C137.387 56.1562 137.438 56.0059 137.488 55.8496L138.883 51.7656H139.938L137.377 58.8203C137.174 59.3672 136.906 59.793 136.574 60.0977C136.246 60.4023 135.842 60.5547 135.361 60.5547C135.201 60.5547 135.059 60.5449 134.934 60.5254C134.812 60.5059 134.695 60.4766 134.582 60.4375ZM141.789 53.4707C141.789 53.9824 141.885 54.3379 142.076 54.5371C142.271 54.7324 142.604 54.8301 143.072 54.8301C143.447 54.8301 143.781 54.8027 144.074 54.748C144.367 54.6934 144.695 54.6211 145.059 54.5312V55.416C144.715 55.4902 144.391 55.5586 144.086 55.6211C143.785 55.6836 143.389 55.7148 142.896 55.7148C142.119 55.7148 141.555 55.5273 141.203 55.1523C140.852 54.7773 140.676 54.2168 140.676 53.4707V51.7656H141.789V53.4707ZM145.615 51.7656V58H144.502V51.7656H145.615ZM147.355 58V51.7656H148.457V55.6328C148.457 55.75 148.455 55.8828 148.451 56.0312C148.451 56.1797 148.449 56.3125 148.445 56.4297H148.498C148.553 56.332 148.613 56.2246 148.68 56.1074C148.75 55.9902 148.824 55.8711 148.902 55.75L151.41 51.7656H152.529V58H151.428V54.1387C151.428 54.0215 151.43 53.8867 151.434 53.7344C151.441 53.5781 151.447 53.4395 151.451 53.3184H151.381C151.33 53.4199 151.27 53.5332 151.199 53.6582C151.133 53.7793 151.061 53.9004 150.982 54.0215L148.475 58H147.355ZM153.596 52.6445V51.7656H158.658V52.6445H156.684V58H155.57V52.6445H153.596ZM160.832 51.7656V53.9102H162.244C163.018 53.9102 163.613 54.0938 164.031 54.4609C164.449 54.8242 164.658 55.3184 164.658 55.9434C164.658 56.5645 164.449 57.0625 164.031 57.4375C163.613 57.8125 163.018 58 162.244 58H159.719V51.7656H160.832ZM162.244 54.7891H160.832V57.1211H162.244C162.721 57.1211 163.055 57.0098 163.246 56.7871C163.441 56.5645 163.539 56.2832 163.539 55.9434C163.539 55.6074 163.441 55.332 163.246 55.1172C163.055 54.8984 162.721 54.7891 162.244 54.7891ZM168.812 51.7656H173.834V58H172.721V52.6445H169.926V58H168.812V51.7656ZM175.574 58V51.7656H176.676V55.6328C176.676 55.75 176.674 55.8828 176.67 56.0312C176.67 56.1797 176.668 56.3125 176.664 56.4297H176.717C176.771 56.332 176.832 56.2246 176.898 56.1074C176.969 55.9902 177.043 55.8711 177.121 55.75L179.629 51.7656H180.748V58H179.646V54.1387C179.646 54.0215 179.648 53.8867 179.652 53.7344C179.66 53.5781 179.666 53.4395 179.67 53.3184H179.6C179.549 53.4199 179.488 53.5332 179.418 53.6582C179.352 53.7793 179.279 53.9004 179.201 54.0215L176.693 58H175.574ZM182.119 54.9766V54.7891C182.119 53.8477 182.379 53.0801 182.898 52.4863C183.418 51.8887 184.135 51.5898 185.049 51.5898C185.893 51.5898 186.533 51.8145 186.971 52.2637C187.408 52.709 187.627 53.207 187.627 53.7578V53.7871H186.549V53.7578C186.549 53.4297 186.43 53.1387 186.191 52.8848C185.953 52.6309 185.572 52.5039 185.049 52.5039C184.436 52.5039 183.982 52.7246 183.689 53.166C183.4 53.6074 183.256 54.1484 183.256 54.7891V54.9766C183.256 55.6172 183.4 56.1582 183.689 56.5996C183.982 57.041 184.436 57.2617 185.049 57.2617C185.572 57.2617 185.953 57.1348 186.191 56.8809C186.43 56.627 186.549 56.334 186.549 56.002V55.9727H187.627V56.002C187.627 56.5566 187.408 57.0586 186.971 57.5078C186.533 57.9531 185.893 58.1758 185.049 58.1758C184.135 58.1758 183.418 57.8789 182.898 57.2852C182.379 56.6875 182.119 55.918 182.119 54.9766ZM189.953 51.7656V53.9102H191.365C192.139 53.9102 192.734 54.0938 193.152 54.4609C193.57 54.8242 193.779 55.3184 193.779 55.9434C193.779 56.5645 193.57 57.0625 193.152 57.4375C192.734 57.8125 192.139 58 191.365 58H188.84V51.7656H189.953ZM191.365 54.7891H189.953V57.1211H191.365C191.842 57.1211 192.176 57.0098 192.367 56.7871C192.562 56.5645 192.66 56.2832 192.66 55.9434C192.66 55.6074 192.562 55.332 192.367 55.1172C192.176 54.8984 191.842 54.7891 191.365 54.7891ZM195.004 58V51.7656H196.551L198.32 56.0605C198.414 56.291 198.475 56.4512 198.502 56.541C198.529 56.627 198.553 56.7188 198.572 56.8164H198.631C198.65 56.7188 198.672 56.627 198.695 56.541C198.723 56.4512 198.785 56.2949 198.883 56.0723L200.664 51.7656H202.176V58H201.109V53.7578C201.109 53.5234 201.111 53.3555 201.115 53.2539C201.123 53.1523 201.131 53.0625 201.139 52.9844H201.086C201.066 53.0625 201.041 53.1523 201.01 53.2539C200.982 53.3516 200.922 53.5137 200.828 53.7402L199.064 58H198.08L196.311 53.7227C196.229 53.5195 196.172 53.3652 196.141 53.2598C196.109 53.1543 196.084 53.0625 196.064 52.9844H196.006C196.014 53.0625 196.021 53.1523 196.029 53.2539C196.037 53.3516 196.039 53.5059 196.035 53.7168V58H195.004ZM203.541 54.9766V54.7891C203.541 53.8477 203.812 53.0801 204.355 52.4863C204.898 51.8887 205.623 51.5898 206.529 51.5898C207.436 51.5898 208.16 51.8887 208.703 52.4863C209.246 53.0801 209.518 53.8477 209.518 54.7891V54.9766C209.518 55.918 209.246 56.6875 208.703 57.2852C208.16 57.8789 207.436 58.1758 206.529 58.1758C205.623 58.1758 204.898 57.8789 204.355 57.2852C203.812 56.6875 203.541 55.918 203.541 54.9766ZM204.678 54.7891V54.9766C204.678 55.6133 204.832 56.1523 205.141 56.5938C205.453 57.0352 205.916 57.2559 206.529 57.2559C207.143 57.2559 207.604 57.0352 207.912 56.5938C208.221 56.1523 208.375 55.6133 208.375 54.9766V54.7891C208.375 54.1484 208.221 53.6074 207.912 53.166C207.604 52.7246 207.143 52.5039 206.529 52.5039C205.916 52.5039 205.453 52.7246 205.141 53.166C204.832 53.6074 204.678 54.1484 204.678 54.7891ZM213.812 58V51.7656H214.914V55.6328C214.914 55.75 214.912 55.8828 214.908 56.0312C214.908 56.1797 214.906 56.3125 214.902 56.4297H214.955C215.01 56.332 215.07 56.2246 215.137 56.1074C215.207 55.9902 215.281 55.8711 215.359 55.75L217.867 51.7656H218.986V58H217.885V54.1387C217.885 54.0215 217.887 53.8867 217.891 53.7344C217.898 53.5781 217.904 53.4395 217.908 53.3184H217.838C217.787 53.4199 217.727 53.5332 217.656 53.6582C217.59 53.7793 217.518 53.9004 217.439 54.0215L214.932 58H213.812ZM222.936 58.1758C222.037 58.1758 221.369 57.9551 220.932 57.5137C220.494 57.0684 220.275 56.5723 220.275 56.0254V55.9961H221.354V56.0254C221.354 56.3379 221.473 56.623 221.711 56.8809C221.949 57.1348 222.357 57.2617 222.936 57.2617C223.432 57.2617 223.811 57.166 224.072 56.9746C224.334 56.7793 224.465 56.5117 224.465 56.1719C224.465 55.8945 224.369 55.6738 224.178 55.5098C223.99 55.3457 223.676 55.2637 223.234 55.2637H222.145V54.3965H223.123C223.529 54.3965 223.82 54.3164 223.996 54.1562C224.176 53.9922 224.266 53.7695 224.266 53.4883C224.266 53.168 224.158 52.9238 223.943 52.7559C223.729 52.5879 223.416 52.5039 223.006 52.5039C222.49 52.5039 222.107 52.623 221.857 52.8613C221.607 53.0996 221.482 53.3926 221.482 53.7402V53.7695H220.404V53.7402C220.404 53.123 220.629 52.6113 221.078 52.2051C221.527 51.7949 222.17 51.5898 223.006 51.5898C223.771 51.5898 224.359 51.75 224.77 52.0703C225.184 52.3906 225.391 52.8379 225.391 53.4121C225.391 53.7402 225.283 54.0312 225.068 54.2852C224.857 54.5352 224.572 54.6992 224.213 54.7773V54.7949C224.643 54.8574 224.979 55.0098 225.221 55.252C225.463 55.4902 225.584 55.7969 225.584 56.1719C225.584 56.8125 225.336 57.3066 224.84 57.6543C224.344 58.002 223.709 58.1758 222.936 58.1758ZM229.58 54.9766V54.7891C229.58 53.8477 229.842 53.0801 230.365 52.4863C230.889 51.8887 231.582 51.5898 232.445 51.5898C233.309 51.5898 233.973 51.8691 234.438 52.4277C234.906 52.9824 235.141 53.7344 235.141 54.6836V55.1406H230.266V54.2559H234.016V54.168C234.016 53.6992 233.889 53.3047 233.635 52.9844C233.381 52.6641 232.994 52.5039 232.475 52.5039C231.893 52.5039 231.453 52.7246 231.156 53.166C230.863 53.6074 230.717 54.1484 230.717 54.7891V54.9766C230.717 55.6172 230.871 56.1582 231.18 56.5996C231.492 57.041 231.975 57.2617 232.627 57.2617C233.029 57.2617 233.375 57.1758 233.664 57.0039C233.953 56.832 234.188 56.6289 234.367 56.3945L235.088 56.9746C234.889 57.2676 234.578 57.541 234.156 57.7949C233.738 58.0488 233.229 58.1758 232.627 58.1758C231.643 58.1758 230.889 57.8789 230.365 57.2852C229.842 56.6875 229.58 55.918 229.58 54.9766ZM236.477 58V51.7656H237.484L237.531 52.5742H237.566C237.793 52.2852 238.066 52.0586 238.387 51.8945C238.707 51.7305 239.064 51.6484 239.459 51.6484C239.885 51.6484 240.252 51.7324 240.561 51.9004C240.869 52.0645 241.104 52.332 241.264 52.7031H241.299C241.564 52.332 241.859 52.0645 242.184 51.9004C242.512 51.7324 242.885 51.6484 243.303 51.6484C243.959 51.6484 244.473 51.8301 244.844 52.1934C245.215 52.5527 245.4 53.1582 245.4 54.0098V58H244.287V53.998C244.287 53.4941 244.178 53.1328 243.959 52.9141C243.74 52.6953 243.43 52.5859 243.027 52.5859C242.68 52.5859 242.375 52.6816 242.113 52.873C241.855 53.0645 241.65 53.3105 241.498 53.6113V58H240.379V53.998C240.379 53.4941 240.27 53.1328 240.051 52.9141C239.832 52.6953 239.523 52.5859 239.125 52.5859C238.777 52.5859 238.473 52.6816 238.211 52.873C237.953 53.0645 237.746 53.3105 237.59 53.6113V58H236.477ZM246.742 56.166C246.742 55.5332 246.996 55.041 247.504 54.6895C248.016 54.334 248.666 54.1562 249.455 54.1562H250.896V53.7109C250.896 53.3438 250.797 53.0469 250.598 52.8203C250.398 52.5898 250.057 52.4746 249.572 52.4746C249.088 52.4746 248.74 52.5723 248.529 52.7676C248.322 52.9629 248.219 53.1895 248.219 53.4473V53.4766H247.111V53.4473C247.111 52.9512 247.336 52.5176 247.785 52.1465C248.234 51.7754 248.84 51.5898 249.602 51.5898C250.367 51.5898 250.959 51.7676 251.377 52.123C251.799 52.4785 252.01 53.0078 252.01 53.7109V56.5938C252.01 56.8477 252.029 57.0879 252.068 57.3145C252.107 57.5371 252.164 57.7344 252.238 57.9062V58H251.16C251.102 57.9023 251.049 57.7734 251.002 57.6133C250.959 57.4531 250.932 57.2949 250.92 57.1387C250.771 57.3965 250.529 57.625 250.193 57.8242C249.861 58.0195 249.432 58.1172 248.904 58.1172C248.307 58.1172 247.797 57.9492 247.375 57.6133C246.953 57.2773 246.742 56.7949 246.742 56.166ZM247.855 56.1074C247.855 56.459 247.961 56.7344 248.172 56.9336C248.383 57.1289 248.709 57.2266 249.15 57.2266C249.596 57.2266 249.998 57.0781 250.357 56.7812C250.717 56.4844 250.896 56.1699 250.896 55.8379V54.9531H249.572C249.01 54.9531 248.582 55.0566 248.289 55.2637C248 55.4707 247.855 55.752 247.855 56.1074ZM253.779 58V51.7656H254.893V58H253.779ZM253.65 49.9141C253.65 49.7305 253.709 49.5762 253.826 49.4512C253.947 49.3223 254.117 49.2578 254.336 49.2578C254.555 49.2578 254.723 49.3223 254.84 49.4512C254.961 49.5762 255.021 49.7305 255.021 49.9141C255.021 50.1016 254.961 50.2598 254.84 50.3887C254.723 50.5137 254.555 50.5762 254.336 50.5762C254.117 50.5762 253.947 50.5137 253.826 50.3887C253.709 50.2598 253.65 50.1016 253.65 49.9141ZM256.727 58V49H257.84V58H256.727Z" fill="black"/>
<path d="M112.996 75V66.4688H119.564V75H118.416V67.4238H114.145V75H112.996ZM121.064 71.9766V71.7891C121.064 70.8477 121.336 70.0801 121.879 69.4863C122.422 68.8887 123.146 68.5898 124.053 68.5898C124.959 68.5898 125.684 68.8887 126.227 69.4863C126.77 70.0801 127.041 70.8477 127.041 71.7891V71.9766C127.041 72.918 126.77 73.6875 126.227 74.2852C125.684 74.8789 124.959 75.1758 124.053 75.1758C123.146 75.1758 122.422 74.8789 121.879 74.2852C121.336 73.6875 121.064 72.918 121.064 71.9766ZM122.201 71.7891V71.9766C122.201 72.6133 122.355 73.1523 122.664 73.5938C122.977 74.0352 123.439 74.2559 124.053 74.2559C124.666 74.2559 125.127 74.0352 125.436 73.5938C125.744 73.1523 125.898 72.6133 125.898 71.9766V71.7891C125.898 71.1484 125.744 70.6074 125.436 70.166C125.127 69.7246 124.666 69.5039 124.053 69.5039C123.439 69.5039 122.977 69.7246 122.664 70.166C122.355 70.6074 122.201 71.1484 122.201 71.7891ZM129.391 70.4707C129.391 70.9824 129.486 71.3379 129.678 71.5371C129.873 71.7324 130.205 71.8301 130.674 71.8301C131.049 71.8301 131.383 71.8027 131.676 71.748C131.969 71.6934 132.297 71.6211 132.66 71.5312V72.416C132.316 72.4902 131.992 72.5586 131.688 72.6211C131.387 72.6836 130.99 72.7148 130.498 72.7148C129.721 72.7148 129.156 72.5273 128.805 72.1523C128.453 71.7773 128.277 71.2168 128.277 70.4707V68.7656H129.391V70.4707ZM133.217 68.7656V75H132.104V68.7656H133.217ZM134.283 69.6445V68.7656H139.346V69.6445H137.371V75H136.258V69.6445H134.283ZM140.066 73.166C140.066 72.5332 140.32 72.041 140.828 71.6895C141.34 71.334 141.99 71.1562 142.779 71.1562H144.221V70.7109C144.221 70.3438 144.121 70.0469 143.922 69.8203C143.723 69.5898 143.381 69.4746 142.896 69.4746C142.412 69.4746 142.064 69.5723 141.854 69.7676C141.646 69.9629 141.543 70.1895 141.543 70.4473V70.4766H140.436V70.4473C140.436 69.9512 140.66 69.5176 141.109 69.1465C141.559 68.7754 142.164 68.5898 142.926 68.5898C143.691 68.5898 144.283 68.7676 144.701 69.123C145.123 69.4785 145.334 70.0078 145.334 70.7109V73.5938C145.334 73.8477 145.354 74.0879 145.393 74.3145C145.432 74.5371 145.488 74.7344 145.562 74.9062V75H144.484C144.426 74.9023 144.373 74.7734 144.326 74.6133C144.283 74.4531 144.256 74.2949 144.244 74.1387C144.096 74.3965 143.854 74.625 143.518 74.8242C143.186 75.0195 142.756 75.1172 142.229 75.1172C141.631 75.1172 141.121 74.9492 140.699 74.6133C140.277 74.2773 140.066 73.7949 140.066 73.166ZM141.18 73.1074C141.18 73.459 141.285 73.7344 141.496 73.9336C141.707 74.1289 142.033 74.2266 142.475 74.2266C142.92 74.2266 143.322 74.0781 143.682 73.7812C144.041 73.4844 144.221 73.1699 144.221 72.8379V71.9531H142.896C142.334 71.9531 141.906 72.0566 141.613 72.2637C141.324 72.4707 141.18 72.752 141.18 73.1074ZM149.98 68.7656H155.002V75H153.889V69.6445H151.094V75H149.98V68.7656ZM156.742 77.4375V68.7656H157.75L157.797 69.5742H157.832C157.992 69.3203 158.238 69.1035 158.57 68.9238C158.906 68.7402 159.297 68.6484 159.742 68.6484C160.543 68.6484 161.184 68.9453 161.664 69.5391C162.145 70.1289 162.385 70.8789 162.385 71.7891V71.9766C162.385 72.8828 162.145 73.6328 161.664 74.2266C161.184 74.8203 160.543 75.1172 159.742 75.1172C159.297 75.1172 158.918 75.0391 158.605 74.8828C158.293 74.7266 158.043 74.5195 157.855 74.2617V77.4375H156.742ZM157.855 73.1367C157.98 73.4102 158.184 73.6562 158.465 73.875C158.75 74.0898 159.094 74.1973 159.496 74.1973C160.102 74.1973 160.545 73.9844 160.826 73.5586C161.107 73.1289 161.248 72.6016 161.248 71.9766V71.7891C161.248 71.1602 161.107 70.6328 160.826 70.207C160.545 69.7773 160.102 69.5625 159.496 69.5625C159.094 69.5625 158.75 69.6719 158.465 69.8906C158.184 70.1055 157.98 70.3516 157.855 70.6289V73.1367ZM163.75 75V68.7656H164.852V72.6328C164.852 72.75 164.85 72.8828 164.846 73.0312C164.846 73.1797 164.844 73.3125 164.84 73.4297H164.893C164.947 73.332 165.008 73.2246 165.074 73.1074C165.145 72.9902 165.219 72.8711 165.297 72.75L167.805 68.7656H168.924V75H167.822V71.1387C167.822 71.0215 167.824 70.8867 167.828 70.7344C167.836 70.5781 167.842 70.4395 167.846 70.3184H167.775C167.725 70.4199 167.664 70.5332 167.594 70.6582C167.527 70.7793 167.455 70.9004 167.377 71.0215L164.869 75H163.75ZM170.664 75V68.7656H173.354C174.045 68.7656 174.59 68.9043 174.988 69.1816C175.391 69.4551 175.592 69.8711 175.592 70.4297C175.592 70.7812 175.486 71.0742 175.275 71.3086C175.068 71.543 174.789 71.6992 174.438 71.7773V71.7949C174.867 71.8574 175.203 72.0098 175.445 72.252C175.691 72.4941 175.814 72.8047 175.814 73.1836C175.814 73.7578 175.605 74.2051 175.188 74.5254C174.77 74.8418 174.219 75 173.535 75H170.664ZM171.777 71.3965H173.354C173.748 71.3965 174.031 71.3164 174.203 71.1562C174.379 70.9922 174.467 70.7695 174.467 70.4883C174.467 70.2109 174.379 70.002 174.203 69.8613C174.031 69.7207 173.748 69.6484 173.354 69.6445H171.777V71.3965ZM171.777 74.1211H173.535C173.934 74.1211 174.227 74.0371 174.414 73.8691C174.602 73.6973 174.695 73.4688 174.695 73.1836C174.695 72.9062 174.602 72.6836 174.414 72.5156C174.23 72.3477 173.938 72.2637 173.535 72.2637H171.777V74.1211ZM178.105 75H176.875L178.744 72.3398L179.869 72.4395L178.105 75ZM180.971 75V72.7441H179.559L179.453 72.6738C178.699 72.6738 178.119 72.502 177.713 72.1582C177.307 71.8145 177.104 71.3496 177.104 70.7637C177.104 70.1582 177.309 69.6738 177.719 69.3105C178.129 68.9473 178.715 68.7656 179.477 68.7656H182.084V75H180.971ZM179.477 71.8652H180.971V69.6445H179.477C179.016 69.6445 178.691 69.75 178.504 69.9609C178.316 70.1719 178.223 70.4395 178.223 70.7637C178.223 71.0879 178.314 71.3535 178.498 71.5605C178.686 71.7637 179.012 71.8652 179.477 71.8652ZM186.033 75.1758C185.135 75.1758 184.467 74.9551 184.029 74.5137C183.592 74.0684 183.373 73.5723 183.373 73.0254V72.9961H184.451V73.0254C184.451 73.3379 184.57 73.623 184.809 73.8809C185.047 74.1348 185.455 74.2617 186.033 74.2617C186.529 74.2617 186.908 74.166 187.17 73.9746C187.432 73.7793 187.562 73.5117 187.562 73.1719C187.562 72.8945 187.467 72.6738 187.275 72.5098C187.088 72.3457 186.773 72.2637 186.332 72.2637H185.242V71.3965H186.221C186.627 71.3965 186.918 71.3164 187.094 71.1562C187.273 70.9922 187.363 70.7695 187.363 70.4883C187.363 70.168 187.256 69.9238 187.041 69.7559C186.826 69.5879 186.514 69.5039 186.104 69.5039C185.588 69.5039 185.205 69.623 184.955 69.8613C184.705 70.0996 184.58 70.3926 184.58 70.7402V70.7695H183.502V70.7402C183.502 70.123 183.727 69.6113 184.176 69.2051C184.625 68.7949 185.268 68.5898 186.104 68.5898C186.869 68.5898 187.457 68.75 187.867 69.0703C188.281 69.3906 188.488 69.8379 188.488 70.4121C188.488 70.7402 188.381 71.0312 188.166 71.2852C187.955 71.5352 187.67 71.6992 187.311 71.7773V71.7949C187.74 71.8574 188.076 72.0098 188.318 72.252C188.561 72.4902 188.682 72.7969 188.682 73.1719C188.682 73.8125 188.434 74.3066 187.938 74.6543C187.441 75.002 186.807 75.1758 186.033 75.1758ZM189.777 73.166C189.777 72.5332 190.031 72.041 190.539 71.6895C191.051 71.334 191.701 71.1562 192.49 71.1562H193.932V70.7109C193.932 70.3438 193.832 70.0469 193.633 69.8203C193.434 69.5898 193.092 69.4746 192.607 69.4746C192.123 69.4746 191.775 69.5723 191.564 69.7676C191.357 69.9629 191.254 70.1895 191.254 70.4473V70.4766H190.146V70.4473C190.146 69.9512 190.371 69.5176 190.82 69.1465C191.27 68.7754 191.875 68.5898 192.637 68.5898C193.402 68.5898 193.994 68.7676 194.412 69.123C194.834 69.4785 195.045 70.0078 195.045 70.7109V73.5938C195.045 73.8477 195.064 74.0879 195.104 74.3145C195.143 74.5371 195.199 74.7344 195.273 74.9062V75H194.195C194.137 74.9023 194.084 74.7734 194.037 74.6133C193.994 74.4531 193.967 74.2949 193.955 74.1387C193.807 74.3965 193.564 74.625 193.229 74.8242C192.896 75.0195 192.467 75.1172 191.939 75.1172C191.342 75.1172 190.832 74.9492 190.41 74.6133C189.988 74.2773 189.777 73.7949 189.777 73.166ZM190.891 73.1074C190.891 73.459 190.996 73.7344 191.207 73.9336C191.418 74.1289 191.744 74.2266 192.186 74.2266C192.631 74.2266 193.033 74.0781 193.393 73.7812C193.752 73.4844 193.932 73.1699 193.932 72.8379V71.9531H192.607C192.045 71.9531 191.617 72.0566 191.324 72.2637C191.035 72.4707 190.891 72.752 190.891 73.1074ZM196.762 68.7656H197.875V71.3848H200.729V68.7656H201.842V75H200.729V72.2637H197.875V75H196.762V68.7656ZM203.242 73.166C203.242 72.5332 203.496 72.041 204.004 71.6895C204.516 71.334 205.166 71.1562 205.955 71.1562H207.396V70.7109C207.396 70.3438 207.297 70.0469 207.098 69.8203C206.898 69.5898 206.557 69.4746 206.072 69.4746C205.588 69.4746 205.24 69.5723 205.029 69.7676C204.822 69.9629 204.719 70.1895 204.719 70.4473V70.4766H203.611V70.4473C203.611 69.9512 203.836 69.5176 204.285 69.1465C204.734 68.7754 205.34 68.5898 206.102 68.5898C206.867 68.5898 207.459 68.7676 207.877 69.123C208.299 69.4785 208.51 70.0078 208.51 70.7109V73.5938C208.51 73.8477 208.529 74.0879 208.568 74.3145C208.607 74.5371 208.664 74.7344 208.738 74.9062V75H207.66C207.602 74.9023 207.549 74.7734 207.502 74.6133C207.459 74.4531 207.432 74.2949 207.42 74.1387C207.271 74.3965 207.029 74.625 206.693 74.8242C206.361 75.0195 205.932 75.1172 205.404 75.1172C204.807 75.1172 204.297 74.9492 203.875 74.6133C203.453 74.2773 203.242 73.7949 203.242 73.166ZM204.355 73.1074C204.355 73.459 204.461 73.7344 204.672 73.9336C204.883 74.1289 205.209 74.2266 205.65 74.2266C206.096 74.2266 206.498 74.0781 206.857 73.7812C207.217 73.4844 207.396 73.1699 207.396 72.8379V71.9531H206.072C205.51 71.9531 205.082 72.0566 204.789 72.2637C204.5 72.4707 204.355 72.752 204.355 73.1074Z" fill="#48B925"/>
<circle cx="219" cy="71" r="5" fill="#48B925"/>
<path d="M221 69.5L218.25 72.25L217 71" stroke="white" stroke-linecap="round" stroke-linejoin="round"/>
<rect x="70" y="45" width="34" height="34" rx="17" fill="#F5F5F7"/>
<path d="M94 58.4984L87.7063 62.5073C87.4927 62.6314 87.2501 62.6967 87.0032 62.6967C86.7562 62.6967 86.5136 62.6314 86.3 62.5073L80 58.4984M81.4 56.3984H92.6C93.3732 56.3984 94 57.0252 94 57.7984V66.1984C94 66.9716 93.3732 67.5984 92.6 67.5984H81.4C80.6268 67.5984 80 66.9716 80 66.1984V57.7984C80 57.0252 80.6268 56.3984 81.4 56.3984Z" stroke="black" stroke-width="1.4" stroke-linecap="round" stroke-linejoin="round"/>
<circle cx="296" cy="62" r="7" fill="white" stroke="#4586C5" stroke-width="2"/>
<g filter="url(#filter0_d_920_492)">
<circle cx="296" cy="62" r="8" fill="white"/>
<circle cx="296" cy="62" r="7" stroke="#4586C5" stroke-width="2"/>
</g>
<g filter="url(#filter1_d_920_492)">
<circle cx="58" cy="62" r="8" fill="white"/>
<circle cx="58" cy="62" r="7" stroke="#4586C5" stroke-width="2"/>
</g>
<rect x="472" y="29" width="238" height="66" rx="12" fill="white"/>
<rect x="469.5" y="26.5" width="243" height="71" rx="14.5" stroke="white" stroke-opacity="0.3" stroke-width="5"/>
<path d="M526.674 53.9922V53.4766C526.674 52.1602 527.018 51.1348 527.705 50.4004C528.393 49.6621 529.254 49.293 530.289 49.293C531.328 49.293 532.135 49.5723 532.709 50.1309C533.283 50.6895 533.584 51.3633 533.611 52.1523V52.2109H532.463V52.1523C532.447 51.6367 532.262 51.1973 531.906 50.834C531.555 50.4668 531.016 50.2832 530.289 50.2832C529.578 50.2832 528.99 50.5527 528.525 51.0918C528.064 51.627 527.834 52.4219 527.834 53.4766V53.9922C527.834 54.9883 528.064 55.7695 528.525 56.3359C528.986 56.9023 529.574 57.1855 530.289 57.1855C530.988 57.1855 531.512 57.002 531.859 56.6348C532.207 56.2637 532.406 55.8242 532.457 55.3164L532.463 55.2578H533.611L533.605 55.3164C533.527 56.1016 533.215 56.7754 532.668 57.3379C532.121 57.8965 531.328 58.1758 530.289 58.1758C529.254 58.1758 528.393 57.8086 527.705 57.0742C527.018 56.3359 526.674 55.3086 526.674 53.9922ZM539.758 59.582V58H535.199V59.582H534.18V57.1211H540.771V59.582H539.758ZM536.395 52.6445L536.301 54.7656C536.27 55.4844 536.227 56.0137 536.172 56.3535C536.117 56.6895 536.037 56.9746 535.932 57.209H534.771C534.912 57.0215 535.023 56.752 535.105 56.4004C535.191 56.0449 535.252 55.4531 535.287 54.625L535.404 51.7656H539.863V58H538.75V52.6445H536.395ZM541.393 54.9766V54.7891C541.393 53.8477 541.654 53.0801 542.178 52.4863C542.701 51.8887 543.395 51.5898 544.258 51.5898C545.121 51.5898 545.785 51.8691 546.25 52.4277C546.719 52.9824 546.953 53.7344 546.953 54.6836V55.1406H542.078V54.2559H545.828V54.168C545.828 53.6992 545.701 53.3047 545.447 52.9844C545.193 52.6641 544.807 52.5039 544.287 52.5039C543.705 52.5039 543.266 52.7246 542.969 53.166C542.676 53.6074 542.529 54.1484 542.529 54.7891V54.9766C542.529 55.6172 542.684 56.1582 542.992 56.5996C543.305 57.041 543.787 57.2617 544.439 57.2617C544.842 57.2617 545.188 57.1758 545.477 57.0039C545.766 56.832 546 56.6289 546.18 56.3945L546.9 56.9746C546.701 57.2676 546.391 57.541 545.969 57.7949C545.551 58.0488 545.041 58.1758 544.439 58.1758C543.455 58.1758 542.701 57.8789 542.178 57.2852C541.654 56.6875 541.393 55.918 541.393 54.9766ZM549.818 52.6445L549.707 55.1289C549.664 56.1797 549.527 56.9414 549.297 57.4141C549.07 57.8867 548.662 58.123 548.072 58.123C547.936 58.123 547.812 58.1133 547.703 58.0938C547.598 58.0781 547.508 58.0527 547.434 58.0176V57.0566C547.5 57.084 547.568 57.1035 547.639 57.1152C547.713 57.127 547.793 57.1328 547.879 57.1328C548.18 57.1328 548.381 56.9805 548.482 56.6758C548.588 56.3672 548.658 55.8008 548.693 54.9766L548.828 51.7656H553.229V58H552.115V52.6445H549.818ZM554.641 56.166C554.641 55.5332 554.895 55.041 555.402 54.6895C555.914 54.334 556.564 54.1562 557.354 54.1562H558.795V53.7109C558.795 53.3438 558.695 53.0469 558.496 52.8203C558.297 52.5898 557.955 52.4746 557.471 52.4746C556.986 52.4746 556.639 52.5723 556.428 52.7676C556.221 52.9629 556.117 53.1895 556.117 53.4473V53.4766H555.01V53.4473C555.01 52.9512 555.234 52.5176 555.684 52.1465C556.133 51.7754 556.738 51.5898 557.5 51.5898C558.266 51.5898 558.857 51.7676 559.275 52.123C559.697 52.4785 559.908 53.0078 559.908 53.7109V56.5938C559.908 56.8477 559.928 57.0879 559.967 57.3145C560.006 57.5371 560.062 57.7344 560.137 57.9062V58H559.059C559 57.9023 558.947 57.7734 558.9 57.6133C558.857 57.4531 558.83 57.2949 558.818 57.1387C558.67 57.3965 558.428 57.625 558.092 57.8242C557.76 58.0195 557.33 58.1172 556.803 58.1172C556.205 58.1172 555.695 57.9492 555.273 57.6133C554.852 57.2773 554.641 56.7949 554.641 56.166ZM555.754 56.1074C555.754 56.459 555.859 56.7344 556.07 56.9336C556.281 57.1289 556.607 57.2266 557.049 57.2266C557.494 57.2266 557.896 57.0781 558.256 56.7812C558.615 56.4844 558.795 56.1699 558.795 55.8379V54.9531H557.471C556.908 54.9531 556.48 55.0566 556.188 55.2637C555.898 55.4707 555.754 55.752 555.754 56.1074ZM560.951 52.6445V51.7656H566.014V52.6445H564.039V58H562.926V52.6445H560.951ZM568.188 51.7656V53.9102H569.6C570.373 53.9102 570.969 54.0938 571.387 54.4609C571.805 54.8242 572.014 55.3184 572.014 55.9434C572.014 56.5645 571.805 57.0625 571.387 57.4375C570.969 57.8125 570.373 58 569.6 58H567.074V51.7656H568.188ZM569.6 54.7891H568.188V57.1211H569.6C570.076 57.1211 570.41 57.0098 570.602 56.7871C570.797 56.5645 570.895 56.2832 570.895 55.9434C570.895 55.6074 570.797 55.332 570.602 55.1172C570.41 54.8984 570.076 54.7891 569.6 54.7891ZM576.168 58V51.7656H578.857C579.549 51.7656 580.094 51.9043 580.492 52.1816C580.895 52.4551 581.096 52.8711 581.096 53.4297C581.096 53.7812 580.99 54.0742 580.779 54.3086C580.572 54.543 580.293 54.6992 579.941 54.7773V54.7949C580.371 54.8574 580.707 55.0098 580.949 55.252C581.195 55.4941 581.318 55.8047 581.318 56.1836C581.318 56.7578 581.109 57.2051 580.691 57.5254C580.273 57.8418 579.723 58 579.039 58H576.168ZM577.281 54.3965H578.857C579.252 54.3965 579.535 54.3164 579.707 54.1562C579.883 53.9922 579.971 53.7695 579.971 53.4883C579.971 53.2109 579.883 53.002 579.707 52.8613C579.535 52.7207 579.252 52.6484 578.857 52.6445H577.281V54.3965ZM577.281 57.1211H579.039C579.438 57.1211 579.73 57.0371 579.918 56.8691C580.105 56.6973 580.199 56.4688 580.199 56.1836C580.199 55.9062 580.105 55.6836 579.918 55.5156C579.734 55.3477 579.441 55.2637 579.039 55.2637H577.281V57.1211ZM583.891 51.7656V53.9102H585.303C586.076 53.9102 586.672 54.0938 587.09 54.4609C587.508 54.8242 587.717 55.3184 587.717 55.9434C587.717 56.5645 587.508 57.0625 587.09 57.4375C586.672 57.8125 586.076 58 585.303 58H582.777V51.7656H583.891ZM585.303 54.7891H583.891V57.1211H585.303C585.779 57.1211 586.113 57.0098 586.305 56.7871C586.5 56.5645 586.598 56.2832 586.598 55.9434C586.598 55.6074 586.5 55.332 586.305 55.1172C586.113 54.8984 585.779 54.7891 585.303 54.7891ZM588.531 58V51.7656H589.645V58H588.531ZM595.334 58H594.244V51.7656H595.334V58ZM597.93 58L595.814 55.1699L596.547 54.4609L599.219 58H597.93ZM594.789 54.3848H595.855L597.777 51.7656H599.002L596.395 55.2637H594.789V54.3848ZM591.643 58H590.383L593.043 54.4727L593.74 55.1875L591.643 58ZM594.789 54.3848V55.2637H593.166L590.57 51.7656H591.812L593.723 54.3848H594.789ZM599.957 58V51.7656H601.059V55.6328C601.059 55.75 601.057 55.8828 601.053 56.0312C601.053 56.1797 601.051 56.3125 601.047 56.4297H601.1C601.154 56.332 601.215 56.2246 601.281 56.1074C601.352 55.9902 601.426 55.8711 601.504 55.75L604.012 51.7656H605.131V58H604.029V54.1387C604.029 54.0215 604.031 53.8867 604.035 53.7344C604.043 53.5781 604.049 53.4395 604.053 53.3184H603.982C603.932 53.4199 603.871 53.5332 603.801 53.6582C603.734 53.7793 603.662 53.9004 603.584 54.0215L601.076 58H599.957ZM606.871 58V51.7656H608.418L610.188 56.0605C610.281 56.291 610.342 56.4512 610.369 56.541C610.396 56.627 610.42 56.7188 610.439 56.8164H610.498C610.518 56.7188 610.539 56.627 610.562 56.541C610.59 56.4512 610.652 56.2949 610.75 56.0723L612.531 51.7656H614.043V58H612.977V53.7578C612.977 53.5234 612.979 53.3555 612.982 53.2539C612.99 53.1523 612.998 53.0625 613.006 52.9844H612.953C612.934 53.0625 612.908 53.1523 612.877 53.2539C612.85 53.3516 612.789 53.5137 612.695 53.7402L610.932 58H609.947L608.178 53.7227C608.096 53.5195 608.039 53.3652 608.008 53.2598C607.977 53.1543 607.951 53.0625 607.932 52.9844H607.873C607.881 53.0625 607.889 53.1523 607.896 53.2539C607.904 53.3516 607.906 53.5059 607.902 53.7168V58H606.871ZM619.826 58L617.365 55.1406L618.057 54.4023L621.203 58H619.826ZM616.334 54.3848H617.43L619.662 51.7656H620.957L617.945 55.2637H616.334V54.3848ZM616.891 51.7656V58H615.777V51.7656H616.891ZM621.461 60.4375V59.4883C621.566 59.5195 621.682 59.5449 621.807 59.5645C621.936 59.584 622.061 59.5938 622.182 59.5938C622.463 59.5938 622.703 59.5 622.902 59.3125C623.102 59.1289 623.322 58.6797 623.564 57.9648V57.959L621.215 51.7656H622.305L623.799 55.8496C623.854 56.0059 623.902 56.1562 623.945 56.3008C623.992 56.4414 624.031 56.5762 624.062 56.7051H624.098C624.129 56.5762 624.168 56.4414 624.215 56.3008C624.266 56.1562 624.316 56.0059 624.367 55.8496L625.762 51.7656H626.816L624.256 58.8203C624.053 59.3672 623.785 59.793 623.453 60.0977C623.125 60.4023 622.721 60.5547 622.24 60.5547C622.08 60.5547 621.938 60.5449 621.812 60.5254C621.691 60.5059 621.574 60.4766 621.461 60.4375Z" fill="black"/>
<path d="M526.996 75V66.4688H528.508L531.039 72.8027C531.086 72.9199 531.131 73.043 531.174 73.1719C531.221 73.2969 531.262 73.418 531.297 73.5352H531.344C531.379 73.418 531.418 73.2969 531.461 73.1719C531.504 73.043 531.549 72.9199 531.596 72.8027L534.109 66.4688H535.645V75H534.525V68.8242C534.525 68.707 534.527 68.5762 534.531 68.4316C534.539 68.2832 534.551 68.1504 534.566 68.0332H534.514C534.482 68.1504 534.441 68.2832 534.391 68.4316C534.344 68.5762 534.297 68.707 534.25 68.8242L531.801 75H530.805L528.338 68.8242C528.291 68.707 528.242 68.5762 528.191 68.4316C528.145 68.2832 528.111 68.1504 528.092 68.0332H528.033C528.049 68.1504 528.059 68.2832 528.062 68.4316C528.07 68.5762 528.074 68.707 528.074 68.8242V75H526.996ZM537.139 71.9766V71.7891C537.139 70.8477 537.41 70.0801 537.953 69.4863C538.496 68.8887 539.221 68.5898 540.127 68.5898C541.033 68.5898 541.758 68.8887 542.301 69.4863C542.844 70.0801 543.115 70.8477 543.115 71.7891V71.9766C543.115 72.918 542.844 73.6875 542.301 74.2852C541.758 74.8789 541.033 75.1758 540.127 75.1758C539.221 75.1758 538.496 74.8789 537.953 74.2852C537.41 73.6875 537.139 72.918 537.139 71.9766ZM538.275 71.7891V71.9766C538.275 72.6133 538.43 73.1523 538.738 73.5938C539.051 74.0352 539.514 74.2559 540.127 74.2559C540.74 74.2559 541.201 74.0352 541.51 73.5938C541.818 73.1523 541.973 72.6133 541.973 71.9766V71.7891C541.973 71.1484 541.818 70.6074 541.51 70.166C541.201 69.7246 540.74 69.5039 540.127 69.5039C539.514 69.5039 539.051 69.7246 538.738 70.166C538.43 70.6074 538.275 71.1484 538.275 71.7891ZM549.25 76.582V75H544.691V76.582H543.672V74.1211H550.264V76.582H549.25ZM545.887 69.6445L545.793 71.7656C545.762 72.4844 545.719 73.0137 545.664 73.3535C545.609 73.6895 545.529 73.9746 545.424 74.209H544.264C544.404 74.0215 544.516 73.752 544.598 73.4004C544.684 73.0449 544.744 72.4531 544.779 71.625L544.896 68.7656H549.355V75H548.242V69.6445H545.887ZM550.885 71.9766V71.7891C550.885 70.8477 551.146 70.0801 551.67 69.4863C552.193 68.8887 552.887 68.5898 553.75 68.5898C554.613 68.5898 555.277 68.8691 555.742 69.4277C556.211 69.9824 556.445 70.7344 556.445 71.6836V72.1406H551.57V71.2559H555.32V71.168C555.32 70.6992 555.193 70.3047 554.939 69.9844C554.686 69.6641 554.299 69.5039 553.779 69.5039C553.197 69.5039 552.758 69.7246 552.461 70.166C552.168 70.6074 552.021 71.1484 552.021 71.7891V71.9766C552.021 72.6172 552.176 73.1582 552.484 73.5996C552.797 74.041 553.279 74.2617 553.932 74.2617C554.334 74.2617 554.68 74.1758 554.969 74.0039C555.258 73.832 555.492 73.6289 555.672 73.3945L556.393 73.9746C556.193 74.2676 555.883 74.541 555.461 74.7949C555.043 75.0488 554.533 75.1758 553.932 75.1758C552.947 75.1758 552.193 74.8789 551.67 74.2852C551.146 73.6875 550.885 72.918 550.885 71.9766ZM559.311 69.6445L559.199 72.1289C559.156 73.1797 559.02 73.9414 558.789 74.4141C558.562 74.8867 558.154 75.123 557.564 75.123C557.428 75.123 557.305 75.1133 557.195 75.0938C557.09 75.0781 557 75.0527 556.926 75.0176V74.0566C556.992 74.084 557.061 74.1035 557.131 74.1152C557.205 74.127 557.285 74.1328 557.371 74.1328C557.672 74.1328 557.873 73.9805 557.975 73.6758C558.08 73.3672 558.15 72.8008 558.186 71.9766L558.32 68.7656H562.721V75H561.607V69.6445H559.311ZM565.586 68.7656V70.9102H566.998C567.771 70.9102 568.367 71.0938 568.785 71.4609C569.203 71.8242 569.412 72.3184 569.412 72.9434C569.412 73.5645 569.203 74.0625 568.785 74.4375C568.367 74.8125 567.771 75 566.998 75H564.473V68.7656H565.586ZM566.998 71.7891H565.586V74.1211H566.998C567.475 74.1211 567.809 74.0098 568 73.7871C568.195 73.5645 568.293 73.2832 568.293 72.9434C568.293 72.6074 568.195 72.332 568 72.1172C567.809 71.8984 567.475 71.7891 566.998 71.7891ZM570.801 74.4141C570.801 74.2188 570.863 74.0508 570.988 73.9102C571.117 73.7695 571.301 73.6992 571.539 73.6992C571.777 73.6992 571.961 73.7695 572.09 73.9102C572.219 74.0508 572.283 74.2188 572.283 74.4141C572.283 74.6094 572.219 74.7773 572.09 74.918C571.961 75.0586 571.777 75.1289 571.539 75.1289C571.301 75.1289 571.117 75.0586 570.988 74.918C570.863 74.7773 570.801 74.6094 570.801 74.4141ZM570.801 69.3809C570.801 69.1855 570.863 69.0176 570.988 68.877C571.117 68.7363 571.301 68.666 571.539 68.666C571.777 68.666 571.961 68.7363 572.09 68.877C572.219 69.0176 572.283 69.1855 572.283 69.3809C572.283 69.5762 572.219 69.7441 572.09 69.8848C571.961 70.0254 571.777 70.0957 571.539 70.0957C571.301 70.0957 571.117 70.0254 570.988 69.8848C570.863 69.7441 570.801 69.5762 570.801 69.3809ZM576.924 70.9922V70.4766C576.924 69.1602 577.268 68.1348 577.955 67.4004C578.643 66.6621 579.504 66.293 580.539 66.293C581.578 66.293 582.385 66.5723 582.959 67.1309C583.533 67.6895 583.834 68.3633 583.861 69.1523V69.2109H582.713V69.1523C582.697 68.6367 582.512 68.1973 582.156 67.834C581.805 67.4668 581.266 67.2832 580.539 67.2832C579.828 67.2832 579.24 67.5527 578.775 68.0918C578.314 68.627 578.084 69.4219 578.084 70.4766V70.9922C578.084 71.9883 578.314 72.7695 578.775 73.3359C579.236 73.9023 579.824 74.1855 580.539 74.1855C581.238 74.1855 581.762 74.002 582.109 73.6348C582.457 73.2637 582.656 72.8242 582.707 72.3164L582.713 72.2578H583.861L583.855 72.3164C583.777 73.1016 583.465 73.7754 582.918 74.3379C582.371 74.8965 581.578 75.1758 580.539 75.1758C579.504 75.1758 578.643 74.8086 577.955 74.0742C577.268 73.3359 576.924 72.3086 576.924 70.9922ZM585.238 75V66H586.352V69.5449C586.578 69.2715 586.861 69.0547 587.201 68.8945C587.541 68.7305 587.916 68.6484 588.326 68.6484C588.932 68.6484 589.424 68.8301 589.803 69.1934C590.186 69.5527 590.377 70.1582 590.377 71.0098V75H589.258V70.998C589.258 70.4941 589.143 70.1328 588.912 69.9141C588.686 69.6953 588.363 69.5859 587.945 69.5859C587.586 69.5859 587.27 69.6816 586.996 69.873C586.723 70.0645 586.508 70.3105 586.352 70.6113V75H585.238ZM591.719 73.166C591.719 72.5332 591.973 72.041 592.48 71.6895C592.992 71.334 593.643 71.1562 594.432 71.1562H595.873V70.7109C595.873 70.3438 595.773 70.0469 595.574 69.8203C595.375 69.5898 595.033 69.4746 594.549 69.4746C594.064 69.4746 593.717 69.5723 593.506 69.7676C593.299 69.9629 593.195 70.1895 593.195 70.4473V70.4766H592.088V70.4473C592.088 69.9512 592.312 69.5176 592.762 69.1465C593.211 68.7754 593.816 68.5898 594.578 68.5898C595.344 68.5898 595.936 68.7676 596.354 69.123C596.775 69.4785 596.986 70.0078 596.986 70.7109V73.5938C596.986 73.8477 597.006 74.0879 597.045 74.3145C597.084 74.5371 597.141 74.7344 597.215 74.9062V75H596.137C596.078 74.9023 596.025 74.7734 595.979 74.6133C595.936 74.4531 595.908 74.2949 595.896 74.1387C595.748 74.3965 595.506 74.625 595.17 74.8242C594.838 75.0195 594.408 75.1172 593.881 75.1172C593.283 75.1172 592.773 74.9492 592.352 74.6133C591.93 74.2773 591.719 73.7949 591.719 73.166ZM592.832 73.1074C592.832 73.459 592.938 73.7344 593.148 73.9336C593.359 74.1289 593.686 74.2266 594.127 74.2266C594.572 74.2266 594.975 74.0781 595.334 73.7812C595.693 73.4844 595.873 73.1699 595.873 72.8379V71.9531H594.549C593.986 71.9531 593.559 72.0566 593.266 72.2637C592.977 72.4707 592.832 72.752 592.832 73.1074ZM597.836 69.6211V68.7656H601.445V69.6211H597.836ZM598.967 73.4531V69.2812V69.1055V67.3125H600.08V73.4531C600.08 73.7266 600.135 73.9219 600.244 74.0391C600.357 74.1562 600.535 74.2148 600.777 74.2148C600.887 74.2148 600.994 74.2031 601.1 74.1797C601.209 74.1562 601.32 74.125 601.434 74.0859V75C601.328 75.0469 601.191 75.0879 601.023 75.123C600.859 75.1582 600.678 75.1758 600.479 75.1758C600.018 75.1758 599.65 75.0371 599.377 74.7598C599.104 74.4824 598.967 74.0469 598.967 73.4531ZM602.412 70.9922V70.4766C602.412 69.1602 602.756 68.1348 603.443 67.4004C604.131 66.6621 605.01 66.293 606.08 66.293C607.084 66.293 607.865 66.5527 608.424 67.0723C608.982 67.5918 609.295 68.2051 609.361 68.9121L609.367 68.9707H608.219V68.9121C608.203 68.5254 608.014 68.1562 607.65 67.8047C607.287 67.4531 606.762 67.2773 606.074 67.2773C605.328 67.2773 604.725 67.5625 604.264 68.1328C603.803 68.6992 603.572 69.4805 603.572 70.4766V70.9922C603.572 71.9883 603.803 72.7715 604.264 73.3418C604.725 73.9082 605.373 74.1914 606.209 74.1914C606.646 74.1914 607.025 74.1465 607.346 74.0566C607.666 73.9668 607.969 73.8242 608.254 73.6289V71.6719H606.092V70.7227H609.367V74.0508C609.098 74.3281 608.693 74.5859 608.154 74.8242C607.615 75.0586 606.967 75.1758 606.209 75.1758C605.053 75.1758 604.131 74.8086 603.443 74.0742C602.756 73.3359 602.412 72.3086 602.412 70.9922ZM611.031 75V66.4688H613.92C614.877 66.4688 615.611 66.7051 616.123 67.1777C616.639 67.6504 616.896 68.2793 616.896 69.0645C616.896 69.8496 616.639 70.4824 616.123 70.9629C615.611 71.4434 614.877 71.6836 613.92 71.6836H612.18V75H611.031ZM612.18 70.7344H613.92C614.596 70.7344 615.068 70.5723 615.338 70.248C615.611 69.9238 615.748 69.5293 615.748 69.0645C615.748 68.5996 615.611 68.209 615.338 67.8926C615.068 67.5762 614.596 67.418 613.92 67.418H612.18V70.7344ZM617.336 67.418V66.4688H624.074V67.418H621.279V75H620.131V67.418H617.336Z" fill="#BCBCCF"/>
<rect x="484" y="45" width="34" height="34" rx="17" fill="#F5F5F7"/>
<g clip-path="url(#clip1_920_492)">
<path d="M506.334 55.3336V58.0003M507.667 56.667H505M500.345 55.8763C500.374 55.7234 500.455 55.5852 500.574 55.4858C500.694 55.3864 500.845 55.332 501 55.332C501.156 55.332 501.307 55.3864 501.426 55.4858C501.546 55.5852 501.627 55.7234 501.656 55.8763L502.356 59.5816C502.406 59.8451 502.534 60.0874 502.724 60.2769C502.913 60.4665 503.156 60.5945 503.419 60.6443L507.124 61.345C507.277 61.3735 507.415 61.4547 507.515 61.5744C507.614 61.694 507.669 61.8447 507.669 62.0003C507.669 62.1559 507.614 62.3065 507.515 62.4262C507.415 62.5459 507.277 62.6271 507.124 62.6556L503.419 63.3563C503.156 63.4061 502.913 63.5341 502.724 63.7236C502.534 63.9132 502.406 64.1555 502.356 64.419L501.656 68.1243C501.627 68.2772 501.546 68.4154 501.426 68.5147C501.307 68.6141 501.156 68.6686 501 68.6686C500.845 68.6686 500.694 68.6141 500.574 68.5147C500.455 68.4154 500.374 68.2772 500.345 68.1243L499.644 64.419C499.595 64.1555 499.467 63.9132 499.277 63.7236C499.087 63.5341 498.845 63.4061 498.582 63.3563L494.876 62.6556C494.723 62.6271 494.585 62.5459 494.486 62.4262C494.386 62.3065 494.332 62.1559 494.332 62.0003C494.332 61.8447 494.386 61.694 494.486 61.5744C494.585 61.4547 494.723 61.3735 494.876 61.345L498.582 60.6443C498.845 60.5945 499.087 60.4665 499.277 60.2769C499.467 60.0874 499.595 59.8451 499.644 59.5816L500.345 55.8763ZM497 67.3336C497 68.07 496.403 68.667 495.667 68.667C494.931 68.667 494.334 68.07 494.334 67.3336C494.334 66.5972 494.931 66.0003 495.667 66.0003C496.403 66.0003 497 66.5972 497 67.3336Z" stroke="black" stroke-width="1.4" stroke-linecap="round" stroke-linejoin="round"/>
</g>
<g filter="url(#filter2_d_920_492)">
<circle cx="472" cy="62" r="8" fill="white"/>
<circle cx="472" cy="62" r="7" stroke="#4586C5" stroke-width="2"/>
</g>
<rect x="472" y="119" width="238" height="66" rx="12" fill="white"/>
<rect x="469.5" y="116.5" width="243" height="71" rx="14.5" stroke="white" stroke-opacity="0.3" stroke-width="5"/>
<path d="M526.996 148V139.469H528.145V143.125H532.533V139.469H533.682V148H532.533V144.074H528.145V148H526.996ZM535.211 146.166C535.211 145.533 535.465 145.041 535.973 144.689C536.484 144.334 537.135 144.156 537.924 144.156H539.365V143.711C539.365 143.344 539.266 143.047 539.066 142.82C538.867 142.59 538.525 142.475 538.041 142.475C537.557 142.475 537.209 142.572 536.998 142.768C536.791 142.963 536.688 143.189 536.688 143.447V143.477H535.58V143.447C535.58 142.951 535.805 142.518 536.254 142.146C536.703 141.775 537.309 141.59 538.07 141.59C538.836 141.59 539.428 141.768 539.846 142.123C540.268 142.479 540.479 143.008 540.479 143.711V146.594C540.479 146.848 540.498 147.088 540.537 147.314C540.576 147.537 540.633 147.734 540.707 147.906V148H539.629C539.57 147.902 539.518 147.773 539.471 147.613C539.428 147.453 539.4 147.295 539.389 147.139C539.24 147.396 538.998 147.625 538.662 147.824C538.33 148.02 537.9 148.117 537.373 148.117C536.775 148.117 536.266 147.949 535.844 147.613C535.422 147.277 535.211 146.795 535.211 146.166ZM536.324 146.107C536.324 146.459 536.43 146.734 536.641 146.934C536.852 147.129 537.178 147.227 537.619 147.227C538.064 147.227 538.467 147.078 538.826 146.781C539.186 146.484 539.365 146.17 539.365 145.838V144.953H538.041C537.479 144.953 537.051 145.057 536.758 145.264C536.469 145.471 536.324 145.752 536.324 146.107ZM542.195 148V141.766H543.297V145.633C543.297 145.75 543.295 145.883 543.291 146.031C543.291 146.18 543.289 146.312 543.285 146.43H543.338C543.393 146.332 543.453 146.225 543.52 146.107C543.59 145.99 543.664 145.871 543.742 145.75L546.25 141.766H547.369V148H546.268V144.139C546.268 144.021 546.27 143.887 546.273 143.734C546.281 143.578 546.287 143.439 546.291 143.318H546.221C546.17 143.42 546.109 143.533 546.039 143.658C545.973 143.779 545.9 143.9 545.822 144.021L543.314 148H542.195ZM544.791 139.867C545.072 139.867 545.305 139.789 545.488 139.633C545.676 139.477 545.832 139.221 545.957 138.865L546.807 139.363C546.615 139.84 546.342 140.189 545.986 140.412C545.635 140.631 545.236 140.74 544.791 140.74C544.338 140.74 543.938 140.633 543.59 140.418C543.246 140.199 542.975 139.848 542.775 139.363L543.625 138.848C543.75 139.227 543.904 139.492 544.088 139.645C544.271 139.793 544.506 139.867 544.791 139.867ZM548.436 142.645V141.766H553.498V142.645H551.523V148H550.41V142.645H548.436ZM554.559 148V141.766H555.66V145.633C555.66 145.75 555.658 145.883 555.654 146.031C555.654 146.18 555.652 146.312 555.648 146.43H555.701C555.756 146.332 555.816 146.225 555.883 146.107C555.953 145.99 556.027 145.871 556.105 145.75L558.613 141.766H559.732V148H558.631V144.139C558.631 144.021 558.633 143.887 558.637 143.734C558.645 143.578 558.65 143.439 558.654 143.318H558.584C558.533 143.42 558.473 143.533 558.402 143.658C558.336 143.779 558.264 143.9 558.186 144.021L555.678 148H554.559ZM564.402 148V141.766H567.092C567.783 141.766 568.328 141.904 568.727 142.182C569.129 142.455 569.33 142.871 569.33 143.43C569.33 143.781 569.225 144.074 569.014 144.309C568.807 144.543 568.527 144.699 568.176 144.777V144.795C568.605 144.857 568.941 145.01 569.184 145.252C569.43 145.494 569.553 145.805 569.553 146.184C569.553 146.758 569.344 147.205 568.926 147.525C568.508 147.842 567.957 148 567.273 148H564.402ZM565.516 144.396H567.092C567.486 144.396 567.77 144.316 567.941 144.156C568.117 143.992 568.205 143.77 568.205 143.488C568.205 143.211 568.117 143.002 567.941 142.861C567.77 142.721 567.486 142.648 567.092 142.645H565.516V144.396ZM565.516 147.121H567.273C567.672 147.121 567.965 147.037 568.152 146.869C568.34 146.697 568.434 146.469 568.434 146.184C568.434 145.906 568.34 145.684 568.152 145.516C567.969 145.348 567.676 145.264 567.273 145.264H565.516V147.121ZM574.762 144.924V145.111C574.762 145.713 574.916 146.221 575.225 146.635C575.533 147.049 575.994 147.256 576.607 147.256C577.221 147.256 577.682 147.049 577.99 146.635C578.303 146.221 578.459 145.713 578.459 145.111V144.924C578.459 144.322 578.303 143.814 577.99 143.4C577.682 142.986 577.221 142.779 576.607 142.779C575.994 142.779 575.533 142.986 575.225 143.4C574.916 143.814 574.762 144.322 574.762 144.924ZM576.836 141.859C577.664 141.859 578.33 142.148 578.834 142.727C579.342 143.305 579.596 144.037 579.596 144.924V145.111C579.596 146.014 579.324 146.75 578.781 147.32C578.238 147.891 577.514 148.176 576.607 148.176C575.674 148.176 574.941 147.887 574.41 147.309C573.883 146.73 573.619 145.799 573.619 144.514V144.32C573.619 142.891 573.861 141.783 574.346 140.998C574.83 140.213 575.719 139.721 577.012 139.521C577.703 139.416 578.102 139.328 578.207 139.258C578.316 139.184 578.381 139.098 578.4 139H579.373C579.33 139.422 579.162 139.754 578.869 139.996C578.58 140.234 578.002 140.41 577.135 140.523C576.127 140.656 575.447 140.961 575.096 141.438C574.748 141.91 574.541 142.52 574.475 143.266H574.539C574.738 142.824 575.035 142.48 575.43 142.234C575.824 141.984 576.293 141.859 576.836 141.859ZM580.621 146.166C580.621 145.533 580.875 145.041 581.383 144.689C581.895 144.334 582.545 144.156 583.334 144.156H584.775V143.711C584.775 143.344 584.676 143.047 584.477 142.82C584.277 142.59 583.936 142.475 583.451 142.475C582.967 142.475 582.619 142.572 582.408 142.768C582.201 142.963 582.098 143.189 582.098 143.447V143.477H580.99V143.447C580.99 142.951 581.215 142.518 581.664 142.146C582.113 141.775 582.719 141.59 583.48 141.59C584.246 141.59 584.838 141.768 585.256 142.123C585.678 142.479 585.889 143.008 585.889 143.711V146.594C585.889 146.848 585.908 147.088 585.947 147.314C585.986 147.537 586.043 147.734 586.117 147.906V148H585.039C584.98 147.902 584.928 147.773 584.881 147.613C584.838 147.453 584.811 147.295 584.799 147.139C584.65 147.396 584.408 147.625 584.072 147.824C583.74 148.02 583.311 148.117 582.783 148.117C582.186 148.117 581.676 147.949 581.254 147.613C580.832 147.277 580.621 146.795 580.621 146.166ZM581.734 146.107C581.734 146.459 581.84 146.734 582.051 146.934C582.262 147.129 582.588 147.227 583.029 147.227C583.475 147.227 583.877 147.078 584.236 146.781C584.596 146.484 584.775 146.17 584.775 145.838V144.953H583.451C582.889 144.953 582.461 145.057 582.168 145.264C581.879 145.471 581.734 145.752 581.734 146.107ZM589.814 148.176C588.916 148.176 588.248 147.955 587.811 147.514C587.373 147.068 587.154 146.572 587.154 146.025V145.996H588.232V146.025C588.232 146.338 588.352 146.623 588.59 146.881C588.828 147.135 589.236 147.262 589.814 147.262C590.311 147.262 590.689 147.166 590.951 146.975C591.213 146.779 591.344 146.512 591.344 146.172C591.344 145.895 591.248 145.674 591.057 145.51C590.869 145.346 590.555 145.264 590.113 145.264H589.023V144.396H590.002C590.408 144.396 590.699 144.316 590.875 144.156C591.055 143.992 591.145 143.77 591.145 143.488C591.145 143.168 591.037 142.924 590.822 142.756C590.607 142.588 590.295 142.504 589.885 142.504C589.369 142.504 588.986 142.623 588.736 142.861C588.486 143.1 588.361 143.393 588.361 143.74V143.77H587.283V143.74C587.283 143.123 587.508 142.611 587.957 142.205C588.406 141.795 589.049 141.59 589.885 141.59C590.65 141.59 591.238 141.75 591.648 142.07C592.062 142.391 592.27 142.838 592.27 143.412C592.27 143.74 592.162 144.031 591.947 144.285C591.736 144.535 591.451 144.699 591.092 144.777V144.795C591.521 144.857 591.857 145.01 592.1 145.252C592.342 145.49 592.463 145.797 592.463 146.172C592.463 146.812 592.215 147.307 591.719 147.654C591.223 148.002 590.588 148.176 589.814 148.176ZM593.529 144.977V144.789C593.529 143.848 593.791 143.08 594.314 142.486C594.838 141.889 595.531 141.59 596.395 141.59C597.258 141.59 597.922 141.869 598.387 142.428C598.855 142.982 599.09 143.734 599.09 144.684V145.141H594.215V144.256H597.965V144.168C597.965 143.699 597.838 143.305 597.584 142.984C597.33 142.664 596.943 142.504 596.424 142.504C595.842 142.504 595.402 142.725 595.105 143.166C594.812 143.607 594.666 144.148 594.666 144.789V144.977C594.666 145.617 594.82 146.158 595.129 146.6C595.441 147.041 595.924 147.262 596.576 147.262C596.979 147.262 597.324 147.176 597.613 147.004C597.902 146.832 598.137 146.629 598.316 146.395L599.037 146.975C598.838 147.268 598.527 147.541 598.105 147.795C597.688 148.049 597.178 148.176 596.576 148.176C595.592 148.176 594.838 147.879 594.314 147.285C593.791 146.688 593.529 145.918 593.529 144.977Z" fill="black"/>
<path d="M526.996 165V156.469H533.564V165H532.416V157.424H528.145V165H526.996ZM535.094 163.166C535.094 162.533 535.348 162.041 535.855 161.689C536.367 161.334 537.018 161.156 537.807 161.156H539.248V160.711C539.248 160.344 539.148 160.047 538.949 159.82C538.75 159.59 538.408 159.475 537.924 159.475C537.439 159.475 537.092 159.572 536.881 159.768C536.674 159.963 536.57 160.189 536.57 160.447V160.477H535.463V160.447C535.463 159.951 535.688 159.518 536.137 159.146C536.586 158.775 537.191 158.59 537.953 158.59C538.719 158.59 539.311 158.768 539.729 159.123C540.15 159.479 540.361 160.008 540.361 160.711V163.594C540.361 163.848 540.381 164.088 540.42 164.314C540.459 164.537 540.516 164.734 540.59 164.906V165H539.512C539.453 164.902 539.4 164.773 539.354 164.613C539.311 164.453 539.283 164.295 539.271 164.139C539.123 164.396 538.881 164.625 538.545 164.824C538.213 165.02 537.783 165.117 537.256 165.117C536.658 165.117 536.148 164.949 535.727 164.613C535.305 164.277 535.094 163.795 535.094 163.166ZM536.207 163.107C536.207 163.459 536.312 163.734 536.523 163.934C536.734 164.129 537.061 164.227 537.502 164.227C537.947 164.227 538.35 164.078 538.709 163.781C539.068 163.484 539.248 163.17 539.248 162.838V161.953H537.924C537.361 161.953 536.934 162.057 536.641 162.264C536.352 162.471 536.207 162.752 536.207 163.107ZM542.078 167.438V158.766H543.086L543.133 159.574H543.168C543.328 159.32 543.574 159.104 543.906 158.924C544.242 158.74 544.633 158.648 545.078 158.648C545.879 158.648 546.52 158.945 547 159.539C547.48 160.129 547.721 160.879 547.721 161.789V161.977C547.721 162.883 547.48 163.633 547 164.227C546.52 164.82 545.879 165.117 545.078 165.117C544.633 165.117 544.254 165.039 543.941 164.883C543.629 164.727 543.379 164.52 543.191 164.262V167.438H542.078ZM543.191 163.137C543.316 163.41 543.52 163.656 543.801 163.875C544.086 164.09 544.43 164.197 544.832 164.197C545.438 164.197 545.881 163.984 546.162 163.559C546.443 163.129 546.584 162.602 546.584 161.977V161.789C546.584 161.16 546.443 160.633 546.162 160.207C545.881 159.777 545.438 159.562 544.832 159.562C544.43 159.562 544.086 159.672 543.801 159.891C543.52 160.105 543.316 160.352 543.191 160.629V163.137ZM548.746 163.166C548.746 162.533 549 162.041 549.508 161.689C550.02 161.334 550.67 161.156 551.459 161.156H552.9V160.711C552.9 160.344 552.801 160.047 552.602 159.82C552.402 159.59 552.061 159.475 551.576 159.475C551.092 159.475 550.744 159.572 550.533 159.768C550.326 159.963 550.223 160.189 550.223 160.447V160.477H549.115V160.447C549.115 159.951 549.34 159.518 549.789 159.146C550.238 158.775 550.844 158.59 551.605 158.59C552.371 158.59 552.963 158.768 553.381 159.123C553.803 159.479 554.014 160.008 554.014 160.711V163.594C554.014 163.848 554.033 164.088 554.072 164.314C554.111 164.537 554.168 164.734 554.242 164.906V165H553.164C553.105 164.902 553.053 164.773 553.006 164.613C552.963 164.453 552.936 164.295 552.924 164.139C552.775 164.396 552.533 164.625 552.197 164.824C551.865 165.02 551.436 165.117 550.908 165.117C550.311 165.117 549.801 164.949 549.379 164.613C548.957 164.277 548.746 163.795 548.746 163.166ZM549.859 163.107C549.859 163.459 549.965 163.734 550.176 163.934C550.387 164.129 550.713 164.227 551.154 164.227C551.6 164.227 552.002 164.078 552.361 163.781C552.721 163.484 552.9 163.17 552.9 162.838V161.953H551.576C551.014 161.953 550.586 162.057 550.293 162.264C550.004 162.471 549.859 162.752 549.859 163.107ZM555.73 165V158.766H557.277L559.047 163.061C559.141 163.291 559.201 163.451 559.229 163.541C559.256 163.627 559.279 163.719 559.299 163.816H559.357C559.377 163.719 559.398 163.627 559.422 163.541C559.449 163.451 559.512 163.295 559.609 163.072L561.391 158.766H562.902V165H561.836V160.758C561.836 160.523 561.838 160.355 561.842 160.254C561.85 160.152 561.857 160.062 561.865 159.984H561.812C561.793 160.062 561.768 160.152 561.736 160.254C561.709 160.352 561.648 160.514 561.555 160.74L559.791 165H558.807L557.037 160.723C556.955 160.52 556.898 160.365 556.867 160.26C556.836 160.154 556.811 160.062 556.791 159.984H556.732C556.74 160.062 556.748 160.152 556.756 160.254C556.764 160.352 556.766 160.506 556.762 160.717V165H555.73ZM564.268 161.977V161.789C564.268 160.848 564.529 160.08 565.053 159.486C565.576 158.889 566.27 158.59 567.133 158.59C567.996 158.59 568.66 158.869 569.125 159.428C569.594 159.982 569.828 160.734 569.828 161.684V162.141H564.953V161.256H568.703V161.168C568.703 160.699 568.576 160.305 568.322 159.984C568.068 159.664 567.682 159.504 567.162 159.504C566.58 159.504 566.141 159.725 565.844 160.166C565.551 160.607 565.404 161.148 565.404 161.789V161.977C565.404 162.617 565.559 163.158 565.867 163.6C566.18 164.041 566.662 164.262 567.314 164.262C567.717 164.262 568.062 164.176 568.352 164.004C568.641 163.832 568.875 163.629 569.055 163.395L569.775 163.975C569.576 164.268 569.266 164.541 568.844 164.795C568.426 165.049 567.916 165.176 567.314 165.176C566.33 165.176 565.576 164.879 565.053 164.285C564.529 163.688 564.268 162.918 564.268 161.977ZM570.443 159.645V158.766H575.506V159.645H573.531V165H572.418V159.645H570.443ZM576.566 167.438V158.766H577.574L577.621 159.574H577.656C577.816 159.32 578.062 159.104 578.395 158.924C578.73 158.74 579.121 158.648 579.566 158.648C580.367 158.648 581.008 158.945 581.488 159.539C581.969 160.129 582.209 160.879 582.209 161.789V161.977C582.209 162.883 581.969 163.633 581.488 164.227C581.008 164.82 580.367 165.117 579.566 165.117C579.121 165.117 578.742 165.039 578.43 164.883C578.117 164.727 577.867 164.52 577.68 164.262V167.438H576.566ZM577.68 163.137C577.805 163.41 578.008 163.656 578.289 163.875C578.574 164.09 578.918 164.197 579.32 164.197C579.926 164.197 580.369 163.984 580.65 163.559C580.932 163.129 581.072 162.602 581.072 161.977V161.789C581.072 161.16 580.932 160.633 580.65 160.207C580.369 159.777 579.926 159.562 579.32 159.562C578.918 159.562 578.574 159.672 578.289 159.891C578.008 160.105 577.805 160.352 577.68 160.629V163.137ZM583.738 164.414C583.738 164.219 583.801 164.051 583.926 163.91C584.055 163.77 584.238 163.699 584.477 163.699C584.715 163.699 584.898 163.77 585.027 163.91C585.156 164.051 585.221 164.219 585.221 164.414C585.221 164.609 585.156 164.777 585.027 164.918C584.898 165.059 584.715 165.129 584.477 165.129C584.238 165.129 584.055 165.059 583.926 164.918C583.801 164.777 583.738 164.609 583.738 164.414ZM583.738 159.381C583.738 159.186 583.801 159.018 583.926 158.877C584.055 158.736 584.238 158.666 584.477 158.666C584.715 158.666 584.898 158.736 585.027 158.877C585.156 159.018 585.221 159.186 585.221 159.381C585.221 159.576 585.156 159.744 585.027 159.885C584.898 160.025 584.715 160.096 584.477 160.096C584.238 160.096 584.055 160.025 583.926 159.885C583.801 159.744 583.738 159.576 583.738 159.381ZM589.686 161.977V161.789C589.686 160.848 589.957 160.08 590.5 159.486C591.043 158.889 591.768 158.59 592.674 158.59C593.58 158.59 594.305 158.889 594.848 159.486C595.391 160.08 595.662 160.848 595.662 161.789V161.977C595.662 162.918 595.391 163.688 594.848 164.285C594.305 164.879 593.58 165.176 592.674 165.176C591.768 165.176 591.043 164.879 590.5 164.285C589.957 163.688 589.686 162.918 589.686 161.977ZM590.822 161.789V161.977C590.822 162.613 590.977 163.152 591.285 163.594C591.598 164.035 592.061 164.256 592.674 164.256C593.287 164.256 593.748 164.035 594.057 163.594C594.365 163.152 594.52 162.613 594.52 161.977V161.789C594.52 161.148 594.365 160.607 594.057 160.166C593.748 159.725 593.287 159.504 592.674 159.504C592.061 159.504 591.598 159.725 591.285 160.166C590.977 160.607 590.822 161.148 590.822 161.789ZM596.354 159.645V158.766H601.416V159.645H599.441V165H598.328V159.645H596.354ZM602.477 158.766H607.498V165H606.385V159.645H603.59V165H602.477V158.766ZM609.238 167.438V158.766H610.246L610.293 159.574H610.328C610.488 159.32 610.734 159.104 611.066 158.924C611.402 158.74 611.793 158.648 612.238 158.648C613.039 158.648 613.68 158.945 614.16 159.539C614.641 160.129 614.881 160.879 614.881 161.789V161.977C614.881 162.883 614.641 163.633 614.16 164.227C613.68 164.82 613.039 165.117 612.238 165.117C611.793 165.117 611.414 165.039 611.102 164.883C610.789 164.727 610.539 164.52 610.352 164.262V167.438H609.238ZM610.352 163.137C610.477 163.41 610.68 163.656 610.961 163.875C611.246 164.09 611.59 164.197 611.992 164.197C612.598 164.197 613.041 163.984 613.322 163.559C613.604 163.129 613.744 162.602 613.744 161.977V161.789C613.744 161.16 613.604 160.633 613.322 160.207C613.041 159.777 612.598 159.562 611.992 159.562C611.59 159.562 611.246 159.672 610.961 159.891C610.68 160.105 610.477 160.352 610.352 160.629V163.137ZM615.906 163.166C615.906 162.533 616.16 162.041 616.668 161.689C617.18 161.334 617.83 161.156 618.619 161.156H620.061V160.711C620.061 160.344 619.961 160.047 619.762 159.82C619.562 159.59 619.221 159.475 618.736 159.475C618.252 159.475 617.904 159.572 617.693 159.768C617.486 159.963 617.383 160.189 617.383 160.447V160.477H616.275V160.447C616.275 159.951 616.5 159.518 616.949 159.146C617.398 158.775 618.004 158.59 618.766 158.59C619.531 158.59 620.123 158.768 620.541 159.123C620.963 159.479 621.174 160.008 621.174 160.711V163.594C621.174 163.848 621.193 164.088 621.232 164.314C621.271 164.537 621.328 164.734 621.402 164.906V165H620.324C620.266 164.902 620.213 164.773 620.166 164.613C620.123 164.453 620.096 164.295 620.084 164.139C619.936 164.396 619.693 164.625 619.357 164.824C619.025 165.02 618.596 165.117 618.068 165.117C617.471 165.117 616.961 164.949 616.539 164.613C616.117 164.277 615.906 163.795 615.906 163.166ZM617.02 163.107C617.02 163.459 617.125 163.734 617.336 163.934C617.547 164.129 617.873 164.227 618.314 164.227C618.76 164.227 619.162 164.078 619.521 163.781C619.881 163.484 620.061 163.17 620.061 162.838V161.953H618.736C618.174 161.953 617.746 162.057 617.453 162.264C617.164 162.471 617.02 162.752 617.02 163.107ZM622.891 165V158.766H625.58C626.271 158.766 626.816 158.904 627.215 159.182C627.617 159.455 627.818 159.871 627.818 160.43C627.818 160.781 627.713 161.074 627.502 161.309C627.295 161.543 627.016 161.699 626.664 161.777V161.795C627.094 161.857 627.43 162.01 627.672 162.252C627.918 162.494 628.041 162.805 628.041 163.184C628.041 163.758 627.832 164.205 627.414 164.525C626.996 164.842 626.445 165 625.762 165H622.891ZM624.004 161.396H625.58C625.975 161.396 626.258 161.316 626.43 161.156C626.605 160.992 626.693 160.77 626.693 160.488C626.693 160.211 626.605 160.002 626.43 159.861C626.258 159.721 625.975 159.648 625.58 159.645H624.004V161.396ZM624.004 164.121H625.762C626.16 164.121 626.453 164.037 626.641 163.869C626.828 163.697 626.922 163.469 626.922 163.184C626.922 162.906 626.828 162.684 626.641 162.516C626.457 162.348 626.164 162.264 625.762 162.264H624.004V164.121ZM629.5 165V158.766H630.602V162.633C630.602 162.75 630.6 162.883 630.596 163.031C630.596 163.18 630.594 163.312 630.59 163.43H630.643C630.697 163.332 630.758 163.225 630.824 163.107C630.895 162.99 630.969 162.871 631.047 162.75L633.555 158.766H634.674V165H633.572V161.139C633.572 161.021 633.574 160.887 633.578 160.734C633.586 160.578 633.592 160.439 633.596 160.318H633.525C633.475 160.42 633.414 160.533 633.344 160.658C633.277 160.779 633.205 160.9 633.127 161.021L630.619 165H629.5ZM635.74 159.645V158.766H640.803V159.645H638.828V165H637.715V159.645H635.74ZM641.494 161.977V161.789C641.494 160.848 641.756 160.08 642.279 159.486C642.803 158.889 643.496 158.59 644.359 158.59C645.223 158.59 645.887 158.869 646.352 159.428C646.82 159.982 647.055 160.734 647.055 161.684V162.141H642.18V161.256H645.93V161.168C645.93 160.699 645.803 160.305 645.549 159.984C645.295 159.664 644.908 159.504 644.389 159.504C643.807 159.504 643.367 159.725 643.07 160.166C642.777 160.607 642.631 161.148 642.631 161.789V161.977C642.631 162.617 642.785 163.158 643.094 163.6C643.406 164.041 643.889 164.262 644.541 164.262C644.943 164.262 645.289 164.176 645.578 164.004C645.867 163.832 646.102 163.629 646.281 163.395L647.002 163.975C646.803 164.268 646.492 164.541 646.07 164.795C645.652 165.049 645.143 165.176 644.541 165.176C643.557 165.176 642.803 164.879 642.279 164.285C641.756 163.688 641.494 162.918 641.494 161.977ZM649.92 159.645L649.809 162.129C649.766 163.18 649.629 163.941 649.398 164.414C649.172 164.887 648.764 165.123 648.174 165.123C648.037 165.123 647.914 165.113 647.805 165.094C647.699 165.078 647.609 165.053 647.535 165.018V164.057C647.602 164.084 647.67 164.104 647.74 164.115C647.814 164.127 647.895 164.133 647.98 164.133C648.281 164.133 648.482 163.98 648.584 163.676C648.689 163.367 648.76 162.801 648.795 161.977L648.93 158.766H653.33V165H652.217V159.645H649.92ZM656.195 158.766V160.91H657.607C658.381 160.91 658.977 161.094 659.395 161.461C659.812 161.824 660.021 162.318 660.021 162.943C660.021 163.564 659.812 164.062 659.395 164.438C658.977 164.812 658.381 165 657.607 165H655.082V158.766H656.195ZM657.607 161.789H656.195V164.121H657.607C658.084 164.121 658.418 164.01 658.609 163.787C658.805 163.564 658.902 163.283 658.902 162.943C658.902 162.607 658.805 162.332 658.609 162.117C658.418 161.898 658.084 161.789 657.607 161.789Z" fill="#BCBCCF"/>
<rect x="484" y="135" width="34" height="34" rx="17" fill="#F5F5F7"/>
<path d="M507 158L504.107 155.107M505.667 151.333C505.667 154.279 503.279 156.667 500.333 156.667C497.388 156.667 495 154.279 495 151.333C495 148.388 497.388 146 500.333 146C503.279 146 505.667 148.388 505.667 151.333Z" stroke="black" stroke-width="1.4" stroke-linecap="round" stroke-linejoin="round"/>
<g filter="url(#filter3_d_920_492)">
<circle cx="472" cy="152" r="8" fill="white"/>
<circle cx="472" cy="152" r="7" stroke="#4586C5" stroke-width="2"/>
</g>
</g>
<defs>
<filter id="filter0_d_920_492" x="281" y="48" width="30" height="30" filterUnits="userSpaceOnUse" color-interpolation-filters="sRGB">
<feFlood flood-opacity="0" result="BackgroundImageFix"/>
<feColorMatrix in="SourceAlpha" type="matrix" values="0 0 0 0 0 0 0 0 0 0 0 0 0 0 0 0 0 0 127 0" result="hardAlpha"/>
<feOffset dy="1"/>
<feGaussianBlur stdDeviation="3.5"/>
<feComposite in2="hardAlpha" operator="out"/>
<feColorMatrix type="matrix" values="0 0 0 0 0 0 0 0 0 0 0 0 0 0 0 0 0 0 0.12 0"/>
<feBlend mode="normal" in2="BackgroundImageFix" result="effect1_dropShadow_920_492"/>
<feBlend mode="normal" in="SourceGraphic" in2="effect1_dropShadow_920_492" result="shape"/>
</filter>
<filter id="filter1_d_920_492" x="43" y="48" width="30" height="30" filterUnits="userSpaceOnUse" color-interpolation-filters="sRGB">
<feFlood flood-opacity="0" result="BackgroundImageFix"/>
<feColorMatrix in="SourceAlpha" type="matrix" values="0 0 0 0 0 0 0 0 0 0 0 0 0 0 0 0 0 0 127 0" result="hardAlpha"/>
<feOffset dy="1"/>
<feGaussianBlur stdDeviation="3.5"/>
<feComposite in2="hardAlpha" operator="out"/>
<feColorMatrix type="matrix" values="0 0 0 0 0 0 0 0 0 0 0 0 0 0 0 0 0 0 0.12 0"/>
<feBlend mode="normal" in2="BackgroundImageFix" result="effect1_dropShadow_920_492"/>
<feBlend mode="normal" in="SourceGraphic" in2="effect1_dropShadow_920_492" result="shape"/>
</filter>
<filter id="filter2_d_920_492" x="457" y="48" width="30" height="30" filterUnits="userSpaceOnUse" color-interpolation-filters="sRGB">
<feFlood flood-opacity="0" result="BackgroundImageFix"/>
<feColorMatrix in="SourceAlpha" type="matrix" values="0 0 0 0 0 0 0 0 0 0 0 0 0 0 0 0 0 0 127 0" result="hardAlpha"/>
<feOffset dy="1"/>
<feGaussianBlur stdDeviation="3.5"/>
<feComposite in2="hardAlpha" operator="out"/>
<feColorMatrix type="matrix" values="0 0 0 0 0 0 0 0 0 0 0 0 0 0 0 0 0 0 0.12 0"/>
<feBlend mode="normal" in2="BackgroundImageFix" result="effect1_dropShadow_920_492"/>
<feBlend mode="normal" in="SourceGraphic" in2="effect1_dropShadow_920_492" result="shape"/>
</filter>
<filter id="filter3_d_920_492" x="457" y="138" width="30" height="30" filterUnits="userSpaceOnUse" color-interpolation-filters="sRGB">
<feFlood flood-opacity="0" result="BackgroundImageFix"/>
<feColorMatrix in="SourceAlpha" type="matrix" values="0 0 0 0 0 0 0 0 0 0 0 0 0 0 0 0 0 0 127 0" result="hardAlpha"/>
<feOffset dy="1"/>
<feGaussianBlur stdDeviation="3.5"/>
<feComposite in2="hardAlpha" operator="out"/>
<feColorMatrix type="matrix" values="0 0 0 0 0 0 0 0 0 0 0 0 0 0 0 0 0 0 0.12 0"/>
<feBlend mode="normal" in2="BackgroundImageFix" result="effect1_dropShadow_920_492"/>
<feBlend mode="normal" in="SourceGraphic" in2="effect1_dropShadow_920_492" result="shape"/>
</filter>
<linearGradient id="paint0_linear_920_492" x1="339" y1="0" x2="339" y2="193" gradientUnits="userSpaceOnUse">
<stop stop-color="#3E80C0"/>
<stop offset="1" stop-color="#B6DBFF"/>
</linearGradient>
<clipPath id="clip0_920_492">
<rect width="676" height="193" fill="white"/>
</clipPath>
<clipPath id="clip1_920_492">
<rect width="16" height="16" fill="white" transform="translate(493 54)"/>
</clipPath>
</defs>
</svg>
