<svg xmlns="http://www.w3.org/2000/svg" width="676" height="193" fill="none" viewBox="0 0 676 193"><g clip-path="url(#a)"><path fill="url(#b)" d="M-2.992 193V14.152h65.905q28.966 0 44.646 11.295 15.679 11.16 15.679 34.812 0 15.813-7.308 25.512-7.175 9.7-18.47 12.889v.531q13.952 3.189 22.589 14.085 8.769 10.762 8.769 29.365 0 24.448-16.742 37.47Q95.467 193.001 66.501 193zm30.03-26.442h37.735q17.673 0 25.512-6.776 7.972-6.777 7.972-19.666 0-13.022-7.972-20.064-7.839-7.175-25.512-7.175H27.037zm0-78.528h33.75q17.671 0 25.112-5.98 7.44-6.111 7.441-18.336-.133-11.826-7.44-17.273-7.309-5.58-24.848-5.581H27.037zM155.126 193V14.152h67.234q31.093 0 47.17 15.148 16.21 15.147 16.211 42.652 0 27.771-16.211 43.317-16.077 15.414-47.17 15.413h-36.673V193zm30.561-89.955h34.281q19.134 0 27.24-8.106t8.105-22.854q0-13.952-8.105-21.924-7.972-7.973-27.24-8.105h-34.281zM307.4 193l.133-178.848h41.589l50.36 123.838a78 78 0 0 1 2.79 7.574 65 65 0 0 1 2.259 7.973h.797a85 85 0 0 1 2.392-7.973q1.328-3.72 2.79-7.574l50.492-123.838h41.855L502.99 193h-30.029V77.533q0-3.853.398-8.903.4-5.049.797-9.035h-1.328q-.798 3.986-2.392 9.035-1.462 5.05-2.923 8.903L420.343 193H391.11L341.947 75.806q-1.461-3.855-3.056-9.434-1.594-5.581-2.126-8.504h-1.329q.267 2.79.665 8.504.531 5.58.531 9.434V193zm229.606 0V14.152h32.155l74.675 116.929q2.259 3.454 4.252 7.84 1.993 4.251 3.322 7.839l1.195-.133q-.663-3.853-.93-8.504a157 157 0 0 1-.265-8.637V14.152h29.099V193h-32.023L573.679 76.071q-2.127-3.322-4.252-7.44-1.993-4.253-3.322-7.973h-1.196q.664 3.985.93 8.77.266 4.65.266 8.504V193z" opacity=".06"/><path stroke="#4586c5" stroke-linecap="round" stroke-width="2" d="M299 62h166M-33 62h166M299 62c152.5 0 81.5 89.5 169 89.5"/><rect width="238" height="66" x="58" y="29" fill="#fff" rx="12"/><rect width="243" height="71" x="55.5" y="26.5" stroke="#fff" stroke-opacity=".3" stroke-width="5" rx="14.5"/><path fill="#000" d="M112.996 58v-8.531h6.568V58h-1.148v-7.576h-4.271V58zm8.068-3.023v-.188q0-1.412.815-2.303.814-.896 2.174-.896t2.174.896q.814.891.814 2.303v.188q0 1.411-.814 2.308-.815.89-2.174.89-1.36 0-2.174-.89-.815-.896-.815-2.308m1.137-.188v.188q0 .954.463 1.617.469.662 1.389.662t1.383-.662q.462-.662.462-1.617v-.188q0-.96-.462-1.623-.463-.662-1.383-.662t-1.389.662q-.463.662-.463 1.623m7.781-2.145-.111 2.485q-.065 1.575-.41 2.285-.34.71-1.225.709-.204 0-.369-.03a1 1 0 0 1-.269-.075v-.961a1 1 0 0 0 .205.058q.111.018.24.018.452 0 .603-.457.159-.463.211-1.7l.135-3.21h4.401V58h-1.114v-5.355zm4.6 7.794v-.95a2.7 2.7 0 0 0 .721.106q.421 0 .72-.282.3-.274.663-1.347v-.006l-2.35-6.193h1.09l1.494 4.084q.082.234.146.45.07.212.118.405h.035q.046-.194.117-.404.077-.217.152-.451l1.395-4.084h1.055l-2.561 7.054q-.305.82-.803 1.278-.492.457-1.213.457-.24 0-.427-.03a2 2 0 0 1-.352-.087m7.207-6.967q0 .767.287 1.066.293.293.996.293.563 0 1.002-.082t.985-.217v.885q-.516.111-.973.205-.451.094-1.19.094-1.165 0-1.693-.563-.527-.562-.527-1.681v-1.705h1.113zm3.826-1.705V58h-1.113v-6.234zm1.74 6.234v-6.234h1.102v3.867q0 .176-.006.398 0 .223-.006.399h.053l.182-.323q.105-.175.222-.357l2.508-3.984h1.119V58h-1.101v-3.861a16 16 0 0 1 .023-.82h-.07a8 8 0 0 1-.182.34 5 5 0 0 1-.217.363L148.475 58zm6.241-5.355v-.88h5.062v.88h-1.974V58h-1.114v-5.355zm7.236-.88v2.145h1.412q1.16 0 1.787.55.627.546.627 1.483 0 .933-.627 1.495-.627.561-1.787.562h-2.525v-6.234zm1.412 3.024h-1.412v2.332h1.412q.715 0 1.002-.334.293-.333.293-.844 0-.504-.293-.826-.287-.328-1.002-.328m6.568-3.023h5.022V58h-1.113v-5.355h-2.795V58h-1.114zM175.574 58v-6.234h1.102v3.867q0 .176-.006.398 0 .223-.006.399h.053l.181-.323q.106-.175.223-.357l2.508-3.984h1.119V58h-1.102v-3.861q0-.175.006-.405.012-.233.018-.416h-.07a9 9 0 0 1-.399.704L176.693 58zm6.545-3.023v-.188q0-1.412.779-2.303.78-.896 2.151-.896 1.266 0 1.922.674.656.667.656 1.494v.03h-1.078v-.03q0-.493-.358-.873-.357-.381-1.142-.381-.92 0-1.36.662-.433.662-.433 1.623v.188q0 .96.433 1.623.44.662 1.36.662.785 0 1.142-.381.358-.381.358-.879v-.03h1.078v.03q0 .832-.656 1.506-.656.668-1.922.668-1.371 0-2.151-.89-.779-.898-.779-2.31m7.834-3.211v2.144h1.412q1.16 0 1.787.55.627.546.627 1.483 0 .933-.627 1.495-.627.561-1.787.562h-2.525v-6.234zm1.412 3.023h-1.412v2.332h1.412q.716 0 1.002-.334.293-.333.293-.844 0-.504-.293-.826-.286-.328-1.002-.328M195.004 58v-6.234h1.547l1.769 4.294q.141.346.182.481.041.13.07.275h.059q.029-.146.064-.275.042-.135.188-.469l1.781-4.306h1.512V58h-1.067v-4.242q0-.353.006-.504.012-.152.024-.27h-.053q-.03.117-.076.27-.041.147-.182.486L199.064 58h-.984l-1.769-4.277a6 6 0 0 1-.17-.463 7 7 0 0 1-.077-.276h-.058q.012.117.023.27.012.147.006.463V58zm8.537-3.023v-.188q0-1.412.814-2.303.815-.896 2.174-.896 1.36 0 2.174.896.815.891.815 2.303v.188q0 1.411-.815 2.308-.814.89-2.174.89t-2.174-.89q-.814-.896-.814-2.308m1.137-.188v.188q0 .954.463 1.617.468.662 1.388.662.921 0 1.383-.662.463-.662.463-1.617v-.188q0-.96-.463-1.623-.462-.662-1.383-.662-.92 0-1.388.662-.463.662-.463 1.623M213.812 58v-6.234h1.102v3.867q0 .176-.006.398 0 .223-.006.399h.053l.182-.323q.105-.175.222-.357l2.508-3.984h1.119V58h-1.101v-3.861a16 16 0 0 1 .023-.82h-.07a8 8 0 0 1-.182.34 5 5 0 0 1-.217.363L214.932 58zm9.124.176q-1.349 0-2.004-.662-.657-.669-.657-1.489v-.029h1.079v.03q0 .468.357.855.357.38 1.225.38.744 0 1.136-.286a.95.95 0 0 0 .393-.803.83.83 0 0 0-.287-.662q-.281-.246-.944-.246h-1.089v-.867h.978q.609 0 .873-.24.27-.247.27-.669 0-.48-.323-.732-.321-.252-.937-.252-.774 0-1.149.357-.375.358-.375.88v.029h-1.078v-.03q0-.926.674-1.535.674-.615 1.928-.615 1.148 0 1.764.48.621.48.621 1.342 0 .493-.323.873-.316.375-.855.492v.018q.645.093 1.008.457.363.357.363.92 0 .96-.744 1.482t-1.904.522m6.644-3.2v-.187q0-1.412.785-2.303.786-.896 2.08-.896 1.296 0 1.993.838.703.831.703 2.256v.457h-4.875v-.885h3.75v-.088q0-.703-.381-1.184-.381-.48-1.16-.48-.873 0-1.319.662-.44.662-.439 1.623v.188q0 .96.463 1.623.469.662 1.447.662.603 0 1.037-.258t.703-.61l.721.58q-.299.44-.932.82-.627.382-1.529.382-1.476 0-2.262-.89-.785-.898-.785-2.31M236.477 58v-6.234h1.007l.047.808h.035q.34-.433.821-.68.48-.245 1.072-.246.639 0 1.102.252.462.247.703.803h.035q.398-.557.885-.803a2.4 2.4 0 0 1 1.119-.252q.984 0 1.541.545.556.54.556 1.817V58h-1.113v-4.002q0-.756-.328-1.084t-.932-.328q-.52 0-.914.287a2.06 2.06 0 0 0-.615.738V58h-1.119v-4.002q0-.756-.328-1.084-.329-.328-.926-.328-.522 0-.914.287a2.1 2.1 0 0 0-.621.738V58zm10.265-1.834q0-.95.762-1.476.768-.534 1.951-.534h1.441v-.445q0-.55-.298-.89-.3-.346-1.026-.346t-1.043.293a.9.9 0 0 0-.31.68v.029h-1.108v-.03q0-.745.674-1.3.674-.557 1.817-.557 1.148 0 1.775.533.633.533.633 1.588v2.883q0 .381.058.72.059.334.17.592V58h-1.078a1.7 1.7 0 0 1-.158-.387 2.6 2.6 0 0 1-.082-.474q-.223.387-.727.685-.497.294-1.289.293-.896 0-1.529-.504t-.633-1.447m1.113-.059q0 .528.317.827.316.293.978.293.669 0 1.207-.446.54-.445.539-.943v-.885h-1.324q-.843 0-1.283.31a.99.99 0 0 0-.434.844M253.779 58v-6.234h1.114V58zm-.129-8.086q0-.276.176-.463.181-.193.51-.193.328 0 .504.193a.64.64 0 0 1 .181.463q0 .282-.181.475-.175.187-.504.187-.328 0-.51-.187a.68.68 0 0 1-.176-.475M256.727 58v-9h1.113v9z"/><path fill="#48b925" d="M112.996 75v-8.531h6.568V75h-1.148v-7.576h-4.271V75zm8.068-3.023v-.188q0-1.412.815-2.303.814-.896 2.174-.896t2.174.896q.814.891.814 2.303v.188q0 1.411-.814 2.308-.815.89-2.174.89-1.36 0-2.174-.89-.815-.896-.815-2.308m1.137-.188v.188q0 .954.463 1.617.469.662 1.389.662t1.383-.662q.462-.662.462-1.617v-.188q0-.96-.462-1.623-.463-.662-1.383-.662t-1.389.662q-.463.661-.463 1.623m7.19-1.318q0 .767.287 1.066.292.293.996.293.563 0 1.002-.082t.984-.217v.885q-.516.111-.972.205-.452.094-1.19.094-1.166 0-1.693-.563t-.528-1.681v-1.705h1.114zm3.826-1.705V75h-1.113v-6.234zm1.066.878v-.878h5.063v.878h-1.975V75h-1.113v-5.356zm5.783 3.522q0-.95.762-1.477.768-.533 1.951-.533h1.442v-.445q0-.55-.299-.89-.298-.346-1.026-.346-.727 0-1.042.293a.9.9 0 0 0-.311.68v.029h-1.107v-.03q0-.745.673-1.3.674-.557 1.817-.557 1.148 0 1.775.533.633.533.633 1.588v2.883q0 .381.059.72.058.334.169.592V75h-1.078a1.7 1.7 0 0 1-.158-.387 2.6 2.6 0 0 1-.082-.474q-.222.387-.726.685-.498.293-1.289.293-.897 0-1.53-.504t-.633-1.447m1.114-.059q0 .528.316.827.316.293.979.293.667 0 1.207-.446.539-.445.539-.943v-.885h-1.325q-.843 0-1.283.31a.98.98 0 0 0-.433.844m8.8-4.341h5.022V75h-1.113v-5.356h-2.795V75h-1.114zm6.762 8.671v-8.671h1.008l.047.808h.035q.24-.38.738-.65.504-.276 1.172-.276 1.202 0 1.922.891.721.885.721 2.25v.188q0 1.359-.721 2.25-.72.89-1.922.89-.668 0-1.137-.234a2.04 2.04 0 0 1-.75-.621v3.175zm1.113-4.3q.188.41.61.738.428.322 1.031.322.909 0 1.33-.638.422-.645.422-1.582v-.188q0-.943-.422-1.582-.421-.645-1.33-.644-.603 0-1.031.328a1.94 1.94 0 0 0-.61.738zM163.75 75v-6.234h1.102v3.867q0 .176-.006.398 0 .223-.006.399h.053l.181-.323q.106-.176.223-.357l2.508-3.984h1.119V75h-1.102v-3.861q0-.175.006-.405.012-.234.018-.416h-.071a8 8 0 0 1-.398.704L164.869 75zm6.914 0v-6.234h2.69q1.037 0 1.634.416.604.41.604 1.248 0 .526-.317.879-.31.351-.837.468v.018q.644.094 1.007.457.369.363.369.932 0 .861-.626 1.341-.627.475-1.653.475zm1.113-3.603h1.577q.591 0 .849-.24.264-.248.264-.669 0-.415-.264-.627-.258-.21-.849-.217h-1.577zm0 2.724h1.758q.599 0 .879-.252.281-.258.281-.685 0-.417-.281-.668-.275-.252-.879-.252h-1.758zm6.328.879h-1.23l1.869-2.66 1.125.1zm2.866 0v-2.256h-1.412l-.106-.07q-1.131 0-1.74-.516t-.609-1.394q0-.909.615-1.453.615-.546 1.758-.545h2.607V75zm-1.494-3.135h1.494v-2.22h-1.494q-.692 0-.973.316-.281.315-.281.803 0 .486.275.797.282.304.979.304m6.556 3.31q-1.347 0-2.004-.661-.656-.669-.656-1.489v-.029h1.078v.03q0 .468.358.855.357.38 1.224.38.744 0 1.137-.286a.95.95 0 0 0 .392-.803q0-.417-.287-.662-.281-.246-.943-.246h-1.09v-.867h.979q.609 0 .873-.24.269-.248.269-.669 0-.48-.322-.732t-.937-.252q-.774 0-1.149.357-.375.358-.375.88v.028h-1.078v-.029q0-.926.674-1.535.674-.615 1.928-.615 1.148 0 1.763.48.621.48.621 1.342 0 .493-.322.873-.317.375-.855.492v.018q.644.094 1.007.457.364.357.364.92 0 .96-.744 1.482-.745.522-1.905.522m3.744-2.009q0-.95.762-1.477.768-.533 1.951-.533h1.442v-.445q0-.55-.299-.89-.298-.346-1.026-.346-.726 0-1.043.293a.9.9 0 0 0-.31.68v.029h-1.108v-.03q0-.745.674-1.3.674-.557 1.817-.557 1.148 0 1.775.533.633.533.633 1.588v2.883q0 .381.059.72.058.334.169.592V75h-1.078a1.7 1.7 0 0 1-.158-.387 2.6 2.6 0 0 1-.082-.474q-.223.387-.726.685-.499.293-1.29.293-.896 0-1.529-.504t-.633-1.447m1.114-.059q0 .528.316.827.316.293.979.293.667 0 1.207-.446.539-.445.539-.943v-.885h-1.325q-.843 0-1.283.31a.98.98 0 0 0-.433.844m5.871-4.341h1.113v2.619h2.854v-2.62h1.113V75h-1.113v-2.736h-2.854V75h-1.113zm6.48 4.4q0-.95.762-1.477.768-.533 1.951-.533h1.441v-.445q0-.55-.298-.89-.3-.346-1.026-.346t-1.043.293a.9.9 0 0 0-.31.68v.029h-1.108v-.03q0-.745.674-1.3.674-.557 1.817-.557 1.148 0 1.775.533.633.533.633 1.588v2.883q0 .381.058.72.059.334.17.592V75h-1.078a1.7 1.7 0 0 1-.158-.387 2.6 2.6 0 0 1-.082-.474q-.223.387-.727.685-.497.293-1.289.293-.896 0-1.529-.504t-.633-1.447m1.113-.059q0 .528.317.827.316.293.978.293.669 0 1.207-.446.54-.445.539-.943v-.885h-1.324q-.843 0-1.283.31a.99.99 0 0 0-.434.844"/><circle cx="219" cy="71" r="5" fill="#48b925"/><path stroke="#fff" stroke-linecap="round" stroke-linejoin="round" d="m221 69.5-2.75 2.75L217 71"/><rect width="34" height="34" x="70" y="45" fill="#f5f5f7" rx="17"/><path stroke="#000" stroke-linecap="round" stroke-linejoin="round" stroke-width="1.4" d="m94 58.498-6.294 4.01a1.4 1.4 0 0 1-1.406 0l-6.3-4.01m1.4-2.1h11.2a1.4 1.4 0 0 1 1.4 1.4v8.4a1.4 1.4 0 0 1-1.4 1.4H81.4a1.4 1.4 0 0 1-1.4-1.4v-8.4a1.4 1.4 0 0 1 1.4-1.4"/><circle cx="296" cy="62" r="7" fill="#fff" stroke="#4586c5" stroke-width="2"/><g filter="url(#c)"><circle cx="296" cy="62" r="8" fill="#fff"/><circle cx="296" cy="62" r="7" stroke="#4586c5" stroke-width="2"/></g><g filter="url(#d)"><circle cx="58" cy="62" r="8" fill="#fff"/><circle cx="58" cy="62" r="7" stroke="#4586c5" stroke-width="2"/></g><rect width="238" height="66" x="472" y="29" fill="#fff" rx="12"/><rect width="243" height="71" x="469.5" y="26.5" stroke="#fff" stroke-opacity=".3" stroke-width="5" rx="14.5"/><path fill="#000" d="M526.674 53.992v-.515q0-1.975 1.031-3.077 1.032-1.107 2.584-1.107 1.559 0 2.42.838t.902 2.021v.059h-1.148v-.059a1.9 1.9 0 0 0-.557-1.318q-.526-.55-1.617-.55a2.23 2.23 0 0 0-1.764.808q-.691.802-.691 2.385v.515q0 1.495.691 2.344.692.85 1.764.85 1.049 0 1.57-.551.522-.556.598-1.319l.006-.058h1.148l-.006.058a3.3 3.3 0 0 1-.937 2.022q-.82.838-2.379.838-1.552 0-2.584-1.102-1.03-1.107-1.031-3.082m13.084 5.59V58h-4.559v1.582h-1.019v-2.46h6.591v2.46zm-3.363-6.937-.094 2.12q-.046 1.08-.129 1.588a3.5 3.5 0 0 1-.24.856h-1.161q.211-.28.334-.809.13-.533.182-1.775l.117-2.86h4.459V58h-1.113v-5.355zm4.998 2.332v-.188q0-1.412.785-2.303.785-.896 2.08-.896t1.992.838q.703.831.703 2.256v.457h-4.875v-.885h3.75v-.088q0-.703-.381-1.184-.38-.48-1.16-.48-.873 0-1.318.662-.44.662-.44 1.623v.188q0 .96.463 1.623.47.662 1.447.662.605 0 1.038-.258t.703-.61l.72.58q-.298.44-.931.82-.627.382-1.53.382-1.476 0-2.261-.89-.785-.898-.785-2.31m8.425-2.332-.111 2.484q-.065 1.575-.41 2.285-.34.71-1.225.709-.205 0-.369-.03a1 1 0 0 1-.269-.075v-.961a1 1 0 0 0 .205.058q.111.018.24.018.452 0 .603-.457.159-.463.211-1.7l.135-3.21h4.401V58h-1.114v-5.355zm4.823 3.521q0-.95.761-1.476.767-.534 1.952-.534h1.441v-.445q0-.55-.299-.89-.299-.346-1.025-.346-.727 0-1.043.293a.9.9 0 0 0-.311.68v.029h-1.107v-.03q0-.745.674-1.3.673-.557 1.816-.557 1.148 0 1.775.533.633.533.633 1.588v2.883q0 .381.059.72.058.334.17.592V58h-1.078a1.7 1.7 0 0 1-.159-.387 2.6 2.6 0 0 1-.082-.474q-.222.387-.726.685-.498.294-1.289.293-.897 0-1.53-.504-.632-.504-.632-1.447m1.113-.059q0 .528.316.827.316.293.979.293.667 0 1.207-.446.539-.445.539-.943v-.885h-1.324q-.845 0-1.283.31a.98.98 0 0 0-.434.844m5.197-3.462v-.88h5.063v.88h-1.975V58h-1.113v-5.355zm7.237-.88v2.145h1.412q1.16 0 1.787.55.627.546.627 1.483 0 .933-.627 1.495-.627.561-1.787.562h-2.526v-6.234zm1.412 3.024h-1.412v2.332h1.412q.714 0 1.002-.334.293-.333.293-.844 0-.504-.293-.826-.288-.328-1.002-.328M576.168 58v-6.234h2.689q1.038 0 1.635.416.604.41.604 1.248 0 .526-.317.879-.31.351-.838.468v.018q.645.093 1.008.457.369.363.369.932 0 .861-.627 1.341-.626.475-1.652.475zm1.113-3.603h1.576q.592 0 .85-.24.264-.247.264-.669 0-.415-.264-.627-.258-.21-.85-.216h-1.576zm0 2.724h1.758q.598 0 .879-.252.28-.258.281-.685 0-.416-.281-.668-.276-.252-.879-.252h-1.758zm6.61-5.355v2.144h1.412q1.16 0 1.787.55.627.546.627 1.483 0 .933-.627 1.495-.627.561-1.787.562h-2.526v-6.234zm1.412 3.023h-1.412v2.332h1.412q.714 0 1.002-.334.293-.333.293-.844 0-.504-.293-.826-.288-.328-1.002-.328M588.531 58v-6.234h1.114V58zm6.803 0h-1.09v-6.234h1.09zm2.596 0-2.116-2.83.733-.71 2.672 3.54zm-3.141-3.615h1.066l1.922-2.62h1.225l-2.607 3.499h-1.606zM591.643 58h-1.26l2.66-3.527.697.715zm3.146-3.615v.879h-1.623l-2.596-3.498h1.242l1.911 2.619zM599.957 58v-6.234h1.102v3.867q0 .176-.006.398 0 .223-.006.399h.053l.181-.323q.106-.175.223-.357l2.508-3.984h1.119V58h-1.102v-3.861q0-.175.006-.405.012-.233.018-.416h-.071a8 8 0 0 1-.398.704L601.076 58zm6.914 0v-6.234h1.547l1.77 4.294q.14.346.181.481.041.13.07.275h.059a5 5 0 0 1 .064-.275q.042-.135.188-.469l1.781-4.306h1.512V58h-1.066v-4.242q0-.353.005-.504.012-.152.024-.27h-.053a5 5 0 0 1-.258.756L610.932 58h-.985l-1.769-4.277a6 6 0 0 1-.17-.463 6 6 0 0 1-.076-.276h-.059q.012.117.023.27.012.147.006.463V58zm12.955 0-2.461-2.86.692-.738L621.203 58zm-3.492-3.615h1.096l2.232-2.62h1.295l-3.012 3.499h-1.611zm.557-2.62V58h-1.114v-6.234zm4.57 8.673v-.95a2.7 2.7 0 0 0 .721.106q.421 0 .72-.282.3-.274.662-1.347v-.006l-2.349-6.193h1.09l1.494 4.084q.082.234.146.45.07.212.117.405h.036q.046-.194.117-.404.076-.217.152-.451l1.395-4.084h1.054l-2.56 7.054q-.305.82-.803 1.278-.492.457-1.213.457-.24 0-.428-.03a2 2 0 0 1-.351-.087"/><path fill="#bcbccf" d="M526.996 75v-8.531h1.512l2.531 6.334q.07.175.135.369.07.188.123.363h.047a9 9 0 0 1 .252-.732l2.513-6.334h1.536V75h-1.12v-6.176q0-.176.006-.392.012-.224.035-.399h-.052a7 7 0 0 1-.123.399 6 6 0 0 1-.141.392L531.801 75h-.996l-2.467-6.176a10 10 0 0 1-.147-.392 3 3 0 0 1-.099-.399h-.059q.024.175.029.399.012.216.012.392V75zm10.143-3.023v-.188q0-1.412.814-2.303.815-.896 2.174-.896 1.36 0 2.174.896.814.891.814 2.303v.188q0 1.411-.814 2.308-.815.89-2.174.89-1.36 0-2.174-.89-.814-.896-.814-2.308m1.136-.188v.188q0 .954.463 1.617.47.662 1.389.662.92 0 1.383-.662t.463-1.617v-.188q0-.96-.463-1.623-.463-.662-1.383-.662t-1.389.662q-.462.661-.463 1.623m10.975 4.793V75h-4.559v1.582h-1.019v-2.46h6.592v2.46zm-3.363-6.937-.094 2.12q-.047 1.08-.129 1.588a3.5 3.5 0 0 1-.24.856h-1.16q.21-.28.334-.809.129-.533.181-1.775l.117-2.86h4.459V75h-1.113v-5.356zm4.998 2.332v-.188q0-1.412.785-2.303.785-.896 2.08-.896t1.992.838q.703.831.703 2.256v.457h-4.875v-.885h3.75v-.088q0-.703-.381-1.184-.38-.48-1.16-.48-.873 0-1.318.662-.44.661-.44 1.623v.188q0 .96.463 1.623.469.662 1.448.662.603 0 1.037-.258t.703-.61l.721.58q-.3.44-.932.82-.627.382-1.529.382-1.478 0-2.262-.89-.785-.898-.785-2.31m8.426-2.333-.112 2.485q-.064 1.575-.41 2.285-.34.71-1.225.709-.204 0-.369-.03a1 1 0 0 1-.269-.075v-.961a1 1 0 0 0 .205.058q.111.018.24.018.451 0 .604-.457.157-.463.211-1.7l.134-3.21h4.401V75h-1.114v-5.356zm6.275-.878v2.144h1.412q1.16 0 1.787.55.627.546.627 1.483 0 .932-.627 1.495-.627.561-1.787.562h-2.525v-6.234zm1.412 3.023h-1.412v2.332h1.412q.716 0 1.002-.334.293-.334.293-.844 0-.504-.293-.826-.286-.328-1.002-.328m3.803 2.625q0-.293.187-.504.194-.21.551-.21t.551.21a.72.72 0 0 1 .193.504.72.72 0 0 1-.193.504q-.194.21-.551.21t-.551-.21a.73.73 0 0 1-.187-.504m0-5.033q0-.292.187-.504.194-.21.551-.211.357 0 .551.211a.72.72 0 0 1 .193.504.72.72 0 0 1-.193.504q-.194.21-.551.21t-.551-.21a.73.73 0 0 1-.187-.504m6.123 1.611v-.515q0-1.975 1.031-3.077 1.032-1.107 2.584-1.107 1.559 0 2.42.838.861.837.902 2.021v.059h-1.148v-.059a1.9 1.9 0 0 0-.557-1.318q-.526-.55-1.617-.55a2.23 2.23 0 0 0-1.764.808q-.691.802-.691 2.385v.515q0 1.494.691 2.344.692.85 1.764.85 1.049 0 1.57-.551.522-.556.598-1.319l.006-.058h1.148l-.006.058a3.3 3.3 0 0 1-.937 2.022q-.82.838-2.379.838-1.552 0-2.584-1.102-1.03-1.107-1.031-3.082M585.238 75v-9h1.114v3.545q.339-.41.849-.65.51-.246 1.125-.247.909 0 1.477.545.574.54.574 1.817V75h-1.119v-4.002q0-.756-.346-1.084-.34-.328-.967-.328-.538 0-.949.287a2 2 0 0 0-.644.738V75zm6.481-1.834q0-.95.761-1.477.768-.533 1.952-.533h1.441v-.445q0-.55-.299-.89-.299-.346-1.025-.346-.727 0-1.043.293a.9.9 0 0 0-.311.68v.029h-1.107v-.03q0-.745.674-1.3.673-.557 1.816-.557 1.149 0 1.776.533.632.533.632 1.588v2.883q0 .381.059.72.059.334.17.592V75h-1.078a1.6 1.6 0 0 1-.158-.387 2.6 2.6 0 0 1-.083-.474q-.222.387-.726.685-.498.293-1.289.293-.897 0-1.529-.504-.633-.504-.633-1.447m1.113-.059q0 .528.316.827.317.293.979.293.668 0 1.207-.446.539-.445.539-.943v-.885h-1.324q-.844 0-1.283.31a.99.99 0 0 0-.434.844m5.004-3.486v-.855h3.609v.855zm1.131 3.832v-6.14h1.113v6.14q0 .41.164.586.17.176.533.176.164 0 .323-.035.163-.036.334-.094V75a2.594 2.594 0 0 1-.955.176q-.692 0-1.102-.416t-.41-1.307m3.445-2.46v-.516q0-1.975 1.031-3.077 1.032-1.107 2.637-1.107 1.506 0 2.344.78.837.778.937 1.84l.006.058h-1.148v-.059q-.024-.58-.569-1.107-.544-.528-1.576-.528-1.119 0-1.81.856-.692.85-.692 2.344v.515q0 1.494.692 2.35.691.85 1.945.85.655 0 1.137-.135.48-.135.908-.428v-1.957h-2.162v-.95h3.275v3.329q-.404.416-1.213.773-.808.352-1.945.352-1.734 0-2.766-1.102-1.03-1.107-1.031-3.082M611.031 75v-8.531h2.889q1.435 0 2.203.709.773.708.773 1.886t-.773 1.899q-.768.72-2.203.72h-1.74V75zm1.149-4.266h1.74q1.014 0 1.418-.486.41-.486.41-1.184 0-.697-.41-1.171-.404-.475-1.418-.475h-1.74zm5.156-3.316v-.95h6.738v.95h-2.795V75h-1.148v-7.582z"/><rect width="34" height="34" x="484" y="45" fill="#f5f5f7" rx="17"/><g clip-path="url(#e)"><path stroke="#000" stroke-linecap="round" stroke-linejoin="round" stroke-width="1.4" d="M506.334 55.334V58m1.333-1.333H505m-4.655-.79a.669.669 0 0 1 1.311 0l.7 3.705a1.33 1.33 0 0 0 1.063 1.062l3.705.701a.67.67 0 0 1 .545.655.67.67 0 0 1-.545.656l-3.705.7a1.33 1.33 0 0 0-1.063 1.063l-.7 3.705a.668.668 0 0 1-1.311 0l-.701-3.705a1.336 1.336 0 0 0-1.062-1.063l-3.706-.7a.664.664 0 0 1-.544-.656.66.66 0 0 1 .544-.655l3.706-.7a1.34 1.34 0 0 0 1.062-1.063zM497 67.333a1.333 1.333 0 1 1-2.667 0 1.333 1.333 0 0 1 2.667 0"/></g><g filter="url(#f)"><circle cx="472" cy="62" r="8" fill="#fff"/><circle cx="472" cy="62" r="7" stroke="#4586c5" stroke-width="2"/></g><rect width="238" height="66" x="472" y="119" fill="#fff" rx="12"/><rect width="243" height="71" x="469.5" y="116.5" stroke="#fff" stroke-opacity=".3" stroke-width="5" rx="14.5"/><path fill="#000" d="M526.996 148v-8.531h1.149v3.656h4.388v-3.656h1.149V148h-1.149v-3.926h-4.388V148zm8.215-1.834q0-.95.762-1.477.767-.533 1.951-.533h1.441v-.445q0-.55-.299-.891-.299-.345-1.025-.345t-1.043.293a.9.9 0 0 0-.31.679v.03h-1.108v-.03q0-.744.674-1.301t1.816-.556q1.149 0 1.776.533.633.534.633 1.588v2.883q0 .381.058.72.059.334.17.592V148h-1.078a1.7 1.7 0 0 1-.158-.387 2.5 2.5 0 0 1-.082-.474q-.223.386-.727.685-.498.293-1.289.293-.896 0-1.529-.504t-.633-1.447m1.113-.059q0 .528.317.827.317.293.978.293.668 0 1.207-.446.54-.445.539-.943v-.885h-1.324q-.843 0-1.283.311a.98.98 0 0 0-.434.843m5.871 1.893v-6.234h1.102v3.867q0 .176-.006.398 0 .223-.006.399h.053l.182-.323q.105-.175.222-.357l2.508-3.984h1.119V148h-1.101v-3.861q0-.176.005-.405.012-.234.018-.416h-.07a8 8 0 0 1-.399.703L543.314 148zm2.596-8.133q.422 0 .697-.234.282-.234.469-.768l.85.498q-.288.715-.821 1.049-.527.328-1.195.328-.68 0-1.201-.322-.516-.328-.815-1.055l.85-.515q.187.568.463.797.275.222.703.222m3.645 2.778v-.879h5.062v.879h-1.975V148h-1.113v-5.355zm6.123 5.355v-6.234h1.101v3.867q0 .176-.006.398 0 .223-.006.399h.053l.182-.323q.105-.175.222-.357l2.508-3.984h1.119V148h-1.101v-3.861a16 16 0 0 1 .023-.821h-.07a7 7 0 0 1-.182.34 6 6 0 0 1-.216.363L555.678 148zm9.843 0v-6.234h2.69q1.037 0 1.635.416.603.41.603 1.248 0 .526-.316.879-.311.351-.838.468v.018q.644.094 1.008.457.369.363.369.932 0 .861-.627 1.341-.627.475-1.653.475zm1.114-3.604h1.576q.592 0 .849-.24.264-.245.264-.668 0-.415-.264-.627-.257-.21-.849-.216h-1.576zm0 2.725h1.757q.598 0 .879-.252.282-.258.282-.685 0-.416-.282-.668-.274-.252-.879-.252h-1.757zm9.246-2.197v.187q0 .903.463 1.524.462.621 1.382.621.921 0 1.383-.621.47-.621.469-1.524v-.187q0-.903-.469-1.524-.462-.621-1.383-.621-.92 0-1.382.621-.463.621-.463 1.524m2.074-3.065q1.242 0 1.998.868.762.867.762 2.197v.187q0 1.354-.815 2.209-.814.856-2.174.856-1.4 0-2.197-.867-.79-.868-.791-2.795v-.194q0-2.144.727-3.322.726-1.177 2.666-1.477 1.037-.158 1.195-.263.164-.111.193-.258h.973q-.064.633-.504.996-.433.357-1.734.527-1.512.2-2.039.915-.522.709-.621 1.828h.064q.299-.663.891-1.032.591-.375 1.406-.375m3.785 4.307q0-.95.762-1.477.768-.533 1.951-.533h1.441v-.445q0-.55-.298-.891-.3-.345-1.026-.345t-1.043.293a.9.9 0 0 0-.31.679v.03h-1.108v-.03q0-.744.674-1.301t1.816-.556q1.149 0 1.776.533.633.534.633 1.588v2.883q0 .381.058.72.059.334.17.592V148h-1.078a1.7 1.7 0 0 1-.158-.387 2.6 2.6 0 0 1-.082-.474q-.223.386-.727.685-.497.293-1.289.293-.896 0-1.529-.504t-.633-1.447m1.113-.059q0 .528.317.827.317.293.978.293.669 0 1.207-.446.54-.445.539-.943v-.885h-1.324q-.843 0-1.283.311a.98.98 0 0 0-.434.843m8.08 2.069q-1.347 0-2.003-.662-.657-.669-.657-1.489v-.029h1.078v.029q0 .47.358.856.357.381 1.224.381.745 0 1.137-.287a.95.95 0 0 0 .393-.803.83.83 0 0 0-.287-.662q-.282-.246-.944-.246h-1.09v-.868h.979q.609 0 .873-.24.27-.245.27-.668 0-.48-.323-.732-.322-.252-.937-.252-.774 0-1.149.357-.375.358-.375.879v.03h-1.078v-.03q0-.926.674-1.535.674-.615 1.928-.615 1.148 0 1.763.48.621.481.622 1.342 0 .492-.323.873-.317.375-.855.492v.018q.644.094 1.008.457.363.357.363.92 0 .96-.744 1.482t-1.905.522m3.715-3.199v-.188q0-1.412.785-2.303.785-.896 2.081-.896t1.992.838q.702.831.703 2.256v.457h-4.875v-.885h3.75v-.088q0-.703-.381-1.184-.381-.48-1.16-.48-.873 0-1.319.662-.44.661-.439 1.623v.188q0 .96.463 1.623.468.662 1.447.662.604 0 1.037-.258.434-.258.703-.609l.721.58q-.299.44-.932.82-.626.381-1.529.381-1.476 0-2.262-.891-.785-.896-.785-2.308"/><path fill="#bcbccf" d="M526.996 165v-8.531h6.568V165h-1.148v-7.576h-4.271V165zm8.098-1.834q0-.95.761-1.477.768-.533 1.952-.533h1.441v-.445q0-.55-.299-.891-.299-.345-1.025-.345-.727 0-1.043.293a.9.9 0 0 0-.311.679v.03h-1.107v-.03q0-.744.674-1.301.673-.556 1.816-.556 1.149 0 1.776.533.632.534.632 1.588v2.883q0 .381.059.72.059.334.17.592V165h-1.078a1.6 1.6 0 0 1-.158-.387 2.6 2.6 0 0 1-.083-.474q-.222.386-.726.685-.498.293-1.289.293-.897 0-1.529-.504-.633-.504-.633-1.447m1.113-.059q0 .528.316.827.317.293.979.293.668 0 1.207-.446.539-.445.539-.943v-.885h-1.324q-.844 0-1.283.311a.98.98 0 0 0-.434.843m5.871 4.331v-8.672h1.008l.047.808h.035q.24-.38.738-.65.504-.276 1.172-.276 1.202 0 1.922.891.72.885.721 2.25v.188q0 1.359-.721 2.25-.72.89-1.922.89-.668 0-1.137-.234a2.03 2.03 0 0 1-.75-.621v3.176zm1.113-4.301q.188.41.61.738.428.322 1.031.322.909 0 1.33-.638.422-.645.422-1.582v-.188q0-.943-.422-1.582-.421-.645-1.33-.645-.603 0-1.031.329a1.93 1.93 0 0 0-.61.738zm5.555.029q0-.95.762-1.477.768-.533 1.951-.533h1.441v-.445q0-.55-.298-.891-.3-.345-1.026-.345t-1.043.293a.9.9 0 0 0-.31.679v.03h-1.108v-.03q0-.744.674-1.301t1.816-.556q1.149 0 1.776.533.633.534.633 1.588v2.883q0 .381.058.72.059.334.17.592V165h-1.078a1.7 1.7 0 0 1-.158-.387 2.6 2.6 0 0 1-.082-.474q-.223.386-.727.685-.497.293-1.289.293-.896 0-1.529-.504t-.633-1.447m1.113-.059q0 .528.317.827.317.293.978.293.669 0 1.207-.446.54-.445.539-.943v-.885h-1.324q-.843 0-1.283.311a.98.98 0 0 0-.434.843M555.73 165v-6.234h1.547l1.77 4.295q.14.345.182.48.04.13.07.275h.058q.03-.146.065-.275.041-.135.187-.469l1.782-4.306h1.511V165h-1.066v-4.242q0-.353.006-.504.011-.153.023-.27h-.053a5 5 0 0 1-.257.756l-1.764 4.26h-.984l-1.77-4.277a6 6 0 0 1-.17-.463 9 9 0 0 1-.076-.276h-.059q.012.117.024.27.012.147.006.463V165zm8.538-3.023v-.188q0-1.412.785-2.303.785-.896 2.08-.896t1.992.838q.703.831.703 2.256v.457h-4.875v-.885h3.75v-.088q0-.703-.381-1.184-.38-.48-1.16-.48-.873 0-1.318.662-.44.661-.44 1.623v.188q0 .96.463 1.623.47.662 1.447.662.604 0 1.038-.258.433-.258.703-.609l.72.58q-.298.44-.931.82-.627.381-1.53.381-1.476 0-2.261-.891-.785-.896-.785-2.308m6.175-2.332v-.879h5.063v.879h-1.975V165h-1.113v-5.355zm6.123 7.793v-8.672h1.008l.047.808h.035q.24-.38.739-.65.503-.276 1.171-.276 1.202 0 1.922.891.721.885.721 2.25v.188q0 1.359-.721 2.25-.72.89-1.922.89-.668 0-1.136-.234a2 2 0 0 1-.75-.621v3.176zm1.114-4.301q.188.41.609.738.428.322 1.031.322.909 0 1.33-.638.423-.645.422-1.582v-.188q0-.943-.422-1.582-.421-.645-1.33-.645-.603 0-1.031.329a1.9 1.9 0 0 0-.609.738zm6.058 1.277q0-.293.188-.504.193-.21.551-.211.357 0 .55.211a.72.72 0 0 1 .194.504.72.72 0 0 1-.194.504q-.193.211-.55.211t-.551-.211a.74.74 0 0 1-.188-.504m0-5.033q0-.292.188-.504.193-.211.551-.211.357 0 .55.211a.72.72 0 0 1 .194.504.72.72 0 0 1-.194.504q-.193.21-.55.211-.358 0-.551-.211a.74.74 0 0 1-.188-.504m5.948 2.596v-.188q0-1.412.814-2.303.815-.896 2.174-.896 1.36 0 2.174.896.814.891.814 2.303v.188q0 1.412-.814 2.308-.815.891-2.174.891-1.36 0-2.174-.891-.814-.896-.814-2.308m1.136-.188v.188q0 .954.463 1.617.47.662 1.389.662.92 0 1.383-.662.462-.663.463-1.617v-.188q0-.962-.463-1.623-.463-.662-1.383-.662t-1.389.662q-.462.661-.463 1.623m5.532-2.144v-.879h5.062v.879h-1.975V165h-1.113v-5.355zm6.123-.879h5.021V165h-1.113v-5.355h-2.795V165h-1.113zm6.761 8.672v-8.672h1.008l.047.808h.035q.24-.38.738-.65.504-.276 1.172-.276 1.202 0 1.922.891.721.885.721 2.25v.188q0 1.359-.721 2.25-.72.89-1.922.89-.668 0-1.136-.234a2 2 0 0 1-.75-.621v3.176zm1.114-4.301q.188.41.609.738.428.322 1.031.322.909 0 1.33-.638.423-.645.422-1.582v-.188q0-.943-.422-1.582-.421-.645-1.33-.645-.603 0-1.031.329a1.9 1.9 0 0 0-.609.738zm5.554.029q0-.95.762-1.477.768-.533 1.951-.533h1.442v-.445q0-.55-.299-.891-.3-.345-1.026-.345t-1.043.293a.9.9 0 0 0-.31.679v.03h-1.108v-.03q0-.744.674-1.301t1.817-.556q1.148 0 1.775.533.633.534.633 1.588v2.883q0 .381.058.72.059.334.17.592V165h-1.078a1.7 1.7 0 0 1-.158-.387 2.6 2.6 0 0 1-.082-.474q-.222.386-.727.685-.497.293-1.289.293-.896 0-1.529-.504t-.633-1.447m1.114-.059q0 .528.316.827.317.293.978.293.669 0 1.207-.446.54-.445.54-.943v-.885h-1.325q-.843 0-1.283.311a.98.98 0 0 0-.433.843m5.871 1.893v-6.234h2.689q1.037 0 1.635.416.603.41.603 1.248 0 .526-.316.879-.31.351-.838.468v.018q.645.094 1.008.457.369.363.369.932 0 .861-.627 1.341-.627.475-1.652.475zm1.113-3.604h1.576q.592 0 .85-.24.263-.245.263-.668 0-.415-.263-.627-.258-.21-.85-.216h-1.576zm0 2.725h1.758q.597 0 .879-.252.28-.258.281-.685 0-.416-.281-.668-.276-.252-.879-.252h-1.758zm5.496.879v-6.234h1.102v3.867q0 .176-.006.398 0 .223-.006.399h.053l.181-.323q.106-.175.223-.357l2.508-3.984h1.119V165h-1.102v-3.861q0-.176.006-.405.012-.234.018-.416h-.071a7 7 0 0 1-.181.34 6 6 0 0 1-.217.363L630.619 165zm6.24-5.355v-.879h5.063v.879h-1.975V165h-1.113v-5.355zm5.754 2.332v-.188q0-1.412.785-2.303.786-.896 2.08-.896 1.296 0 1.993.838.702.831.703 2.256v.457h-4.875v-.885h3.75v-.088q0-.703-.381-1.184-.381-.48-1.16-.48-.873 0-1.319.662-.44.661-.439 1.623v.188q0 .96.463 1.623.468.662 1.447.662.603 0 1.037-.258t.703-.609l.721.58q-.299.44-.932.82-.627.381-1.529.381-1.476 0-2.262-.891-.785-.896-.785-2.308m8.426-2.332-.111 2.484q-.064 1.576-.411 2.285-.339.71-1.224.709-.206 0-.369-.029a1 1 0 0 1-.27-.076v-.961a1 1 0 0 0 .205.058q.112.018.24.018.451 0 .604-.457.158-.463.211-1.699l.135-3.211h4.4V165h-1.113v-5.355zm6.275-.879v2.144h1.412q1.161 0 1.788.551.626.545.626 1.482 0 .931-.626 1.495-.627.561-1.788.562h-2.525v-6.234zm1.412 3.023h-1.412v2.332h1.412q.716 0 1.002-.334.293-.334.293-.844 0-.504-.293-.826-.287-.328-1.002-.328"/><rect width="34" height="34" x="484" y="135" fill="#f5f5f7" rx="17"/><path stroke="#000" stroke-linecap="round" stroke-linejoin="round" stroke-width="1.4" d="m507 158-2.893-2.893m1.56-3.774a5.334 5.334 0 1 1-10.668 0 5.334 5.334 0 0 1 10.668 0"/><g filter="url(#g)"><circle cx="472" cy="152" r="8" fill="#fff"/><circle cx="472" cy="152" r="7" stroke="#4586c5" stroke-width="2"/></g></g><defs><filter id="c" width="30" height="30" x="281" y="48" color-interpolation-filters="sRGB" filterUnits="userSpaceOnUse"><feFlood flood-opacity="0" result="BackgroundImageFix"/><feColorMatrix in="SourceAlpha" result="hardAlpha" values="0 0 0 0 0 0 0 0 0 0 0 0 0 0 0 0 0 0 127 0"/><feOffset dy="1"/><feGaussianBlur stdDeviation="3.5"/><feComposite in2="hardAlpha" operator="out"/><feColorMatrix values="0 0 0 0 0 0 0 0 0 0 0 0 0 0 0 0 0 0 0.12 0"/><feBlend in2="BackgroundImageFix" result="effect1_dropShadow_920_492"/><feBlend in="SourceGraphic" in2="effect1_dropShadow_920_492" result="shape"/></filter><filter id="d" width="30" height="30" x="43" y="48" color-interpolation-filters="sRGB" filterUnits="userSpaceOnUse"><feFlood flood-opacity="0" result="BackgroundImageFix"/><feColorMatrix in="SourceAlpha" result="hardAlpha" values="0 0 0 0 0 0 0 0 0 0 0 0 0 0 0 0 0 0 127 0"/><feOffset dy="1"/><feGaussianBlur stdDeviation="3.5"/><feComposite in2="hardAlpha" operator="out"/><feColorMatrix values="0 0 0 0 0 0 0 0 0 0 0 0 0 0 0 0 0 0 0.12 0"/><feBlend in2="BackgroundImageFix" result="effect1_dropShadow_920_492"/><feBlend in="SourceGraphic" in2="effect1_dropShadow_920_492" result="shape"/></filter><filter id="f" width="30" height="30" x="457" y="48" color-interpolation-filters="sRGB" filterUnits="userSpaceOnUse"><feFlood flood-opacity="0" result="BackgroundImageFix"/><feColorMatrix in="SourceAlpha" result="hardAlpha" values="0 0 0 0 0 0 0 0 0 0 0 0 0 0 0 0 0 0 127 0"/><feOffset dy="1"/><feGaussianBlur stdDeviation="3.5"/><feComposite in2="hardAlpha" operator="out"/><feColorMatrix values="0 0 0 0 0 0 0 0 0 0 0 0 0 0 0 0 0 0 0.12 0"/><feBlend in2="BackgroundImageFix" result="effect1_dropShadow_920_492"/><feBlend in="SourceGraphic" in2="effect1_dropShadow_920_492" result="shape"/></filter><filter id="g" width="30" height="30" x="457" y="138" color-interpolation-filters="sRGB" filterUnits="userSpaceOnUse"><feFlood flood-opacity="0" result="BackgroundImageFix"/><feColorMatrix in="SourceAlpha" result="hardAlpha" values="0 0 0 0 0 0 0 0 0 0 0 0 0 0 0 0 0 0 127 0"/><feOffset dy="1"/><feGaussianBlur stdDeviation="3.5"/><feComposite in2="hardAlpha" operator="out"/><feColorMatrix values="0 0 0 0 0 0 0 0 0 0 0 0 0 0 0 0 0 0 0.12 0"/><feBlend in2="BackgroundImageFix" result="effect1_dropShadow_920_492"/><feBlend in="SourceGraphic" in2="effect1_dropShadow_920_492" result="shape"/></filter><clipPath id="a"><path fill="#fff" d="M0 0h676v193H0z"/></clipPath><clipPath id="e"><path fill="#fff" d="M493 54h16v16h-16z"/></clipPath><linearGradient id="b" x1="339" x2="339" y1="0" y2="193" gradientUnits="userSpaceOnUse"><stop stop-color="#3e80c0"/><stop offset="1" stop-color="#b6dbff"/></linearGradient></defs></svg>