<svg width="272" height="193" viewBox="0 0 272 193" fill="none" xmlns="http://www.w3.org/2000/svg">
<g clip-path="url(#clip0_920_476)">
<circle cx="136" cy="136" r="136" fill="#6FADEE"/>
<circle cx="136" cy="136" r="136" fill="url(#paint0_linear_920_476)"/>
<circle cx="136" cy="136" r="139" stroke="white" stroke-opacity="0.2" stroke-width="6"/>
<path d="M72.8063 256.427C98.1625 269.732 127.072 274.695 155.414 270.607C183.756 266.52 210.084 253.59 230.647 233.662C251.21 213.734 264.959 187.823 269.933 159.623C274.907 131.423 270.853 102.373 258.348 76.6121L136 136L72.8063 256.427Z" fill="#D2E7FD"/>
<path d="M262.097 85.0535C253.195 63.0201 238.675 43.7038 219.983 29.029C201.292 14.3543 179.082 4.83331 155.565 1.41466L136 136L262.097 85.0535Z" fill="url(#paint1_linear_920_476)"/>
<path d="M155.562 1.41423C140.705 -0.745167 125.594 -0.429804 110.84 2.34753L136 136L155.562 1.41423Z" fill="url(#paint2_linear_920_476)"/>
<path d="M113.438 1.88451C84.9453 6.67777 58.7194 20.4209 38.5624 41.1216C18.4055 61.8222 5.36504 88.4045 1.33165 117.015C-2.70175 145.625 2.4815 174.777 16.13 200.243C29.7785 225.71 51.1828 246.167 77.2401 258.651L136 136L113.438 1.88451Z" fill="url(#paint3_linear_920_476)"/>
</g>
<defs>
<linearGradient id="paint0_linear_920_476" x1="-55.5" y1="11.5" x2="290" y2="220.5" gradientUnits="userSpaceOnUse">
<stop stop-color="white"/>
<stop offset="1" stop-color="white" stop-opacity="0.6"/>
</linearGradient>
<linearGradient id="paint1_linear_920_476" x1="142.634" y1="0.694407" x2="121.366" y2="139.806" gradientUnits="userSpaceOnUse">
<stop stop-color="#D2E7FD"/>
<stop offset="1" stop-color="#BDDBFB"/>
</linearGradient>
<linearGradient id="paint2_linear_920_476" x1="139" y1="118.5" x2="143" y2="-8" gradientUnits="userSpaceOnUse">
<stop stop-color="#AED6FF"/>
<stop offset="1" stop-color="#D2E7FD"/>
</linearGradient>
<linearGradient id="paint3_linear_920_476" x1="143.557" y1="130.573" x2="24" y2="49" gradientUnits="userSpaceOnUse">
<stop stop-color="#98CAFF"/>
<stop offset="1" stop-color="#D2E7FD"/>
</linearGradient>
<clipPath id="clip0_920_476">
<rect width="272" height="193" fill="white"/>
</clipPath>
</defs>
</svg>
