<svg xmlns="http://www.w3.org/2000/svg" width="284" height="246" fill="none" viewBox="0 0 284 246"><g clip-path="url(#a)"><circle cx="142.002" cy="142" r="136" fill="#6fadee"/><circle cx="142.002" cy="142" r="136" fill="url(#b)"/><circle cx="142.002" cy="142" r="139" stroke="#fff" stroke-opacity=".2" stroke-width="6"/><path fill="#d2e7fd" d="M78.808 262.427a136.002 136.002 0 0 0 197.127-96.804c4.974-28.2.919-57.25-11.585-83.01L142.002 142z"/><path fill="url(#c)" d="M268.099 91.054a136 136 0 0 0-106.532-83.64L142.002 142z"/><path fill="url(#d)" d="M161.564 7.414a136 136 0 0 0-44.722.934L142.002 142z"/><path fill="url(#e)" d="M119.44 7.885A136 136 0 0 0 83.242 264.65L142.002 142z"/></g><defs><linearGradient id="b" x1="-49.498" x2="296.002" y1="17.5" y2="226.5" gradientUnits="userSpaceOnUse"><stop stop-color="#fff"/><stop offset="1" stop-color="#fff" stop-opacity=".6"/></linearGradient><linearGradient id="c" x1="148.636" x2="127.368" y1="6.694" y2="145.806" gradientUnits="userSpaceOnUse"><stop stop-color="#d2e7fd"/><stop offset="1" stop-color="#bddbfb"/></linearGradient><linearGradient id="d" x1="145.002" x2="149.002" y1="124.5" y2="-2" gradientUnits="userSpaceOnUse"><stop stop-color="#aed6ff"/><stop offset="1" stop-color="#d2e7fd"/></linearGradient><linearGradient id="e" x1="149.559" x2="30.002" y1="136.573" y2="55" gradientUnits="userSpaceOnUse"><stop stop-color="#98caff"/><stop offset="1" stop-color="#d2e7fd"/></linearGradient><clipPath id="a"><path fill="#fff" d="M0 0h284v246H0z"/></clipPath></defs></svg>