<svg width="284" height="246" viewBox="0 0 284 246" fill="none" xmlns="http://www.w3.org/2000/svg">
<g clip-path="url(#clip0_2002_283)">
<circle cx="142.002" cy="142" r="136" fill="#6FADEE"/>
<circle cx="142.002" cy="142" r="136" fill="url(#paint0_linear_2002_283)"/>
<circle cx="142.002" cy="142" r="139" stroke="white" stroke-opacity="0.2" stroke-width="6"/>
<path d="M78.8082 262.427C104.164 275.732 133.074 280.695 161.416 276.607C189.758 272.52 216.086 259.59 236.649 239.662C257.212 219.734 270.961 193.823 275.935 165.623C280.909 137.423 276.854 108.373 264.35 82.6121L142.002 142L78.8082 262.427Z" fill="#D2E7FD"/>
<path d="M268.099 91.0535C259.197 69.0201 244.677 49.7038 225.985 35.029C207.294 20.3543 185.084 10.8333 161.567 7.41466L142.002 142L268.099 91.0535Z" fill="url(#paint1_linear_2002_283)"/>
<path d="M161.564 7.41423C146.707 5.25483 131.596 5.5702 116.842 8.34753L142.002 142L161.564 7.41423Z" fill="url(#paint2_linear_2002_283)"/>
<path d="M119.44 7.88451C90.9473 12.6778 64.7213 26.4209 44.5644 47.1216C24.4074 67.8222 11.367 94.4045 7.3336 123.015C3.3002 151.625 8.48345 180.777 22.1319 206.243C35.7804 231.71 57.1848 252.167 83.242 264.651L142.002 142L119.44 7.88451Z" fill="url(#paint3_linear_2002_283)"/>
</g>
<defs>
<linearGradient id="paint0_linear_2002_283" x1="-49.498" y1="17.5" x2="296.002" y2="226.5" gradientUnits="userSpaceOnUse">
<stop stop-color="white"/>
<stop offset="1" stop-color="white" stop-opacity="0.6"/>
</linearGradient>
<linearGradient id="paint1_linear_2002_283" x1="148.636" y1="6.69441" x2="127.368" y2="145.806" gradientUnits="userSpaceOnUse">
<stop stop-color="#D2E7FD"/>
<stop offset="1" stop-color="#BDDBFB"/>
</linearGradient>
<linearGradient id="paint2_linear_2002_283" x1="145.002" y1="124.5" x2="149.002" y2="-2" gradientUnits="userSpaceOnUse">
<stop stop-color="#AED6FF"/>
<stop offset="1" stop-color="#D2E7FD"/>
</linearGradient>
<linearGradient id="paint3_linear_2002_283" x1="149.559" y1="136.573" x2="30.0019" y2="55" gradientUnits="userSpaceOnUse">
<stop stop-color="#98CAFF"/>
<stop offset="1" stop-color="#D2E7FD"/>
</linearGradient>
<clipPath id="clip0_2002_283">
<rect width="284" height="246" fill="white"/>
</clipPath>
</defs>
</svg>
