<svg xmlns="http://www.w3.org/2000/svg" width="1824" height="1852" fill="none" viewBox="0 0 1824 1852"><g clip-path="url(#a)"><mask id="b" width="1824" height="1853" x="0" y="0" maskUnits="userSpaceOnUse" style="mask-type:luminance"><path fill="#fff" d="M1824 0H0v1852h1824z"/></mask><g mask="url(#b)"><path fill="url(#c)" d="M3008.05 3169.51 633.682 1280.66 2324.6-226.348z" opacity=".55"/><path fill="url(#d)" d="M3096.84 2734.92 633.682 1280.67 2432.17 196.684z" opacity=".55"/><path fill="url(#e)" d="M2530.14 1728.54 633.699 1280.65 2530.13 644.076z" opacity=".55"/><path fill="url(#f)" d="m-16.49 1232.6 540.58 59.59-544.705 45.36z" opacity=".55"/><g filter="url(#g)"><path fill="url(#h)" d="M590.828 1135.89H459.072c-45.479 0-82.347 36.86-82.347 82.31v131.7c0 45.46 36.868 82.31 82.347 82.31h131.756c45.48 0 82.348-36.85 82.348-82.31v-131.7c0-45.45-36.868-82.31-82.348-82.31"/><path stroke="#7e50ff" stroke-opacity=".1" stroke-width="2.118" d="M590.829 1131.54H459.072c-47.887 0-86.707 38.8-86.707 86.66v131.7c0 47.87 38.82 86.67 86.707 86.67h131.757c47.887 0 86.707-38.8 86.707-86.67v-131.7c0-47.86-38.82-86.66-86.707-86.66Z"/><path fill="#fff" d="M485.728 1301.25c0 19 15.395 34.4 34.385 34.4l-13.069 24.73a5.72 5.72 0 0 1-5.06 3.05h-54.14a5.72 5.72 0 0 1-5.723-5.72v-34.15c0-1.7.754-3.31 2.055-4.39l41.552-34.71zm106.278 13.66a9.53 9.53 0 0 1 3.418 7.31v3.89c0 5.27-4.27 9.54-9.54 9.54h-65.771l29.653-56.12zm-71.272-59.68-35.006 29.23v-50.37c0-3.24 3.78-5.01 6.267-2.93zm29.032 24.3-29.032-24.3 63.803-53.28c2.409-2.01 5.83.76 4.365 3.53z"/></g></g></g><defs><linearGradient id="c" x1="3159.1" x2="986.214" y1="1207.97" y2="2099.63" gradientUnits="userSpaceOnUse"><stop stop-color="#fff" stop-opacity=".1"/><stop offset="1" stop-color="#fff"/></linearGradient><linearGradient id="d" x1="3114.47" x2="729.497" y1="1147.97" y2="1698.01" gradientUnits="userSpaceOnUse"><stop stop-color="#fff" stop-opacity=".1"/><stop offset="1" stop-color="#fff"/></linearGradient><linearGradient id="e" x1="2888.16" x2="632.382" y1="1232.22" y2="1275.14" gradientUnits="userSpaceOnUse"><stop stop-color="#fff" stop-opacity=".1"/><stop offset="1" stop-color="#fff"/></linearGradient><linearGradient id="f" x1="-16.493" x2="498.179" y1="1284.05" y2="1284.05" gradientUnits="userSpaceOnUse"><stop stop-color="#fff" stop-opacity="0"/><stop offset="1" stop-color="#fff"/></linearGradient><linearGradient id="h" x1="413.781" x2="524.864" y1="1135.89" y2="1432.25" gradientUnits="userSpaceOnUse"><stop stop-color="#916aff"/><stop offset="1" stop-color="#703dff"/></linearGradient><clipPath id="a"><path fill="#fff" d="M0 0h1824v1852H0z"/></clipPath><filter id="g" width="388.287" height="416.153" x="361.307" y="1123.48" color-interpolation-filters="sRGB" filterUnits="userSpaceOnUse"><feFlood flood-opacity="0" result="BackgroundImageFix"/><feColorMatrix in="SourceAlpha" result="hardAlpha" values="0 0 0 0 0 0 0 0 0 0 0 0 0 0 0 0 0 0 127 0"/><feOffset dx="2" dy="4"/><feGaussianBlur stdDeviation="5.5"/><feColorMatrix values="0 0 0 0 0.329412 0 0 0 0 0.337255 0 0 0 0 0.372549 0 0 0 0.12 0"/><feBlend in2="BackgroundImageFix" result="effect1_dropShadow_931_1841"/><feColorMatrix in="SourceAlpha" result="hardAlpha" values="0 0 0 0 0 0 0 0 0 0 0 0 0 0 0 0 0 0 127 0"/><feOffset dx="10" dy="17"/><feGaussianBlur stdDeviation="10"/><feColorMatrix values="0 0 0 0 0.329412 0 0 0 0 0.337255 0 0 0 0 0.372549 0 0 0 0.1 0"/><feBlend in2="effect1_dropShadow_931_1841" result="effect2_dropShadow_931_1841"/><feColorMatrix in="SourceAlpha" result="hardAlpha" values="0 0 0 0 0 0 0 0 0 0 0 0 0 0 0 0 0 0 127 0"/><feOffset dx="22" dy="39"/><feGaussianBlur stdDeviation="13.5"/><feColorMatrix values="0 0 0 0 0.329412 0 0 0 0 0.337255 0 0 0 0 0.372549 0 0 0 0.06 0"/><feBlend in2="effect2_dropShadow_931_1841" result="effect3_dropShadow_931_1841"/><feColorMatrix in="SourceAlpha" result="hardAlpha" values="0 0 0 0 0 0 0 0 0 0 0 0 0 0 0 0 0 0 127 0"/><feOffset dx="39" dy="70"/><feGaussianBlur stdDeviation="16"/><feColorMatrix values="0 0 0 0 0.329412 0 0 0 0 0.337255 0 0 0 0 0.372549 0 0 0 0.02 0"/><feBlend in2="effect3_dropShadow_931_1841" result="effect4_dropShadow_931_1841"/><feBlend in="SourceGraphic" in2="effect4_dropShadow_931_1841" result="shape"/></filter></defs></svg>