<svg width="48" height="48" viewBox="0 0 48 48" fill="none" xmlns="http://www.w3.org/2000/svg">
<rect width="48" height="48" rx="24" fill="#FBFBFB"/>
<path fill-rule="evenodd" clip-rule="evenodd" d="M9.92485 22.3318C17.441 18.9449 22.453 16.712 24.9607 15.6332C32.1209 12.5529 33.6087 12.0179 34.5784 12.0002C34.7917 11.9963 35.2686 12.051 35.5775 12.3102C35.8383 12.5291 35.9101 12.8248 35.9444 13.0324C35.9788 13.2399 36.0215 13.7127 35.9876 14.0822C35.5995 18.2988 33.9206 28.5315 33.0665 33.2541C32.7051 35.2525 31.9934 35.9225 31.3045 35.9881C29.8072 36.1306 28.6703 34.9647 27.2201 33.9815C24.9509 32.443 23.669 31.4853 21.4663 29.984C18.9207 28.249 20.5709 27.2954 22.0216 25.737C22.4013 25.3291 28.9982 19.123 29.1259 18.56C29.1419 18.4896 29.1567 18.2271 29.0059 18.0886C28.8552 17.95 28.6327 17.9974 28.4721 18.0351C28.2445 18.0885 24.6194 20.5667 17.5968 25.4697C16.5678 26.2005 15.6358 26.5565 14.8008 26.5379C13.8802 26.5173 12.1094 25.9995 10.793 25.5569C9.17832 25.0141 7.89504 24.7271 8.00678 23.8051C8.06499 23.3249 8.70434 22.8338 9.92485 22.3318Z" fill="url(#paint0_linear_583_2009)"/>
<defs>
<linearGradient id="paint0_linear_583_2009" x1="32.8927" y1="12" x2="32.8927" y2="35.437" gradientUnits="userSpaceOnUse">
<stop stop-color="#8559FE"/>
<stop offset="1" stop-color="#8559FE" stop-opacity="0.42"/>
</linearGradient>
</defs>
</svg>
