<svg xmlns="http://www.w3.org/2000/svg" width="48" height="48" fill="none" viewBox="0 0 48 48"><rect width="48" height="48" fill="#f6f6f6" rx="24"/><path fill="#000" fill-rule="evenodd" d="M15.375 22.818q8.054-3.598 10.74-4.745c5.114-2.181 6.177-2.56 6.87-2.573.152-.003.493.036.713.22.187.155.238.364.262.511s.055.482.031.744c-.277 2.987-1.476 10.235-2.086 13.58-.259 1.416-.767 1.89-1.259 1.937-1.07.1-1.881-.725-2.917-1.422-1.621-1.09-2.537-1.768-4.11-2.831-1.819-1.23-.64-1.905.396-3.009.272-.288 4.984-4.684 5.075-5.083.011-.05.022-.236-.086-.334s-.266-.065-.381-.038q-.244.057-7.768 5.266-1.102.777-1.997.757c-.658-.015-1.923-.382-2.863-.695-1.153-.385-2.07-.588-1.99-1.241q.062-.51 1.37-1.044" clip-rule="evenodd"/></svg>