<svg width="48" height="48" viewBox="0 0 48 48" fill="none" xmlns="http://www.w3.org/2000/svg">
<rect width="48" height="48" rx="24" fill="#FBFBFB"/>
<path d="M35.7002 28.7911C35.0606 28.4593 31.9127 26.8591 31.3266 26.6361C30.7388 26.4149 30.3112 26.3061 29.8837 26.9697C29.4596 27.6316 28.2322 29.1229 27.8581 29.5654C27.4857 30.0096 27.1099 30.0631 26.4704 29.7331C24.4879 28.9017 22.7846 27.7939 21.3038 26.4292L21.321 26.4453C19.9436 25.1252 18.7628 23.6142 17.8094 21.948L17.7612 21.8552C17.3888 21.1934 17.7215 20.8348 18.0404 20.5048C18.3283 20.2086 18.6817 19.7306 19.0007 19.3452C19.2524 19.0259 19.4678 18.6602 19.6316 18.2677L19.642 18.2374C19.7161 18.0822 19.7592 17.902 19.7592 17.7094C19.7592 17.4757 19.6954 17.258 19.5851 17.0725L19.5885 17.0779C19.4265 16.746 18.1473 13.485 17.6146 12.1578C17.094 10.8662 16.5648 11.0428 16.1735 11.0214C15.8011 11.0036 15.3736 11 14.946 11C14.2651 11.0178 13.66 11.3354 13.2428 11.826L13.2411 11.8295C11.8585 13.1871 11 15.1013 11 17.2223C11 17.2687 11 17.3169 11.0017 17.3633V17.3561C11.2276 19.9732 12.1757 22.3226 13.6341 24.2368L13.6134 24.21C16.3786 28.454 20.0643 31.8488 24.3896 34.1358L24.5517 34.2125C25.4964 34.6549 26.7065 35.1277 27.9443 35.5326L28.2012 35.6058C28.9631 35.8555 29.8406 36 30.7508 36C31.2732 36 31.7869 35.9518 32.2834 35.8609L32.2299 35.868C34.0728 35.4702 35.6019 34.3195 36.5345 32.7479L36.5501 32.7176C36.8345 32.0646 37 31.3029 37 30.5019C37 30.1719 36.9724 29.849 36.919 29.535L36.9242 29.5689C36.7656 29.2924 36.338 29.1283 35.6967 28.7947L35.7002 28.7911Z" fill="url(#paint0_linear_583_2011)"/>
<defs>
<linearGradient id="paint0_linear_583_2011" x1="34.1146" y1="11" x2="34.1146" y2="35.4136" gradientUnits="userSpaceOnUse">
<stop stop-color="#8559FE"/>
<stop offset="1" stop-color="#8559FE" stop-opacity="0.42"/>
</linearGradient>
</defs>
</svg>
