<svg width="48" height="48" viewBox="0 0 48 48" fill="none" xmlns="http://www.w3.org/2000/svg">
<rect width="48" height="48" rx="24" fill="#FBFBFB"/>
<path d="M21.1239 28.1804V19.8207L28.473 24.001L21.1239 28.1804ZM37.4702 17.1891C37.1383 15.9695 36.2008 15.0263 35.0092 14.6926L34.9839 14.687C31.9905 14.3063 28.5283 14.0888 25.0145 14.0888C24.6573 14.0888 24.3011 14.0907 23.9458 14.0954L24.0002 14.0945C23.6983 14.0907 23.343 14.0879 22.9858 14.0879C19.472 14.0879 16.008 14.3054 12.6077 14.7263L13.0145 14.6851C11.7986 15.0254 10.8611 15.9676 10.5358 17.1629L10.5302 17.1873C10.1552 19.1645 9.94141 21.4398 9.94141 23.7648C9.94141 23.8473 9.94141 23.9298 9.94234 24.0113V23.9982C9.94234 24.0676 9.94141 24.1501 9.94141 24.2326C9.94141 26.5576 10.1561 28.832 10.5658 31.0379L10.5302 30.8091C10.862 32.0288 11.7995 32.972 12.9911 33.3057L13.0164 33.3113C16.0098 33.692 19.472 33.9095 22.9858 33.9095C23.342 33.9095 23.6983 33.9076 24.0545 33.9029L24.0002 33.9038C24.302 33.9076 24.6583 33.9104 25.0145 33.9104C28.5292 33.9104 31.9923 33.6929 35.3927 33.272L34.9858 33.3132C36.2027 32.9738 37.1402 32.0307 37.4664 30.8354L37.472 30.811C37.8461 28.8338 38.0598 26.5585 38.0598 24.2345C38.0598 24.152 38.0598 24.0695 38.0589 23.9879V24.0001C38.0589 23.9307 38.0598 23.8482 38.0598 23.7657C38.0598 21.4407 37.8452 19.1663 37.4355 16.9604L37.4702 17.1891Z" fill="url(#paint0_linear_583_2013)"/>
<defs>
<linearGradient id="paint0_linear_583_2013" x1="34.9394" y1="14.0879" x2="34.9394" y2="33.4454" gradientUnits="userSpaceOnUse">
<stop stop-color="#8559FE"/>
<stop offset="1" stop-color="#8559FE" stop-opacity="0.42"/>
</linearGradient>
</defs>
</svg>
