<svg xmlns="http://www.w3.org/2000/svg" width="48" height="48" fill="none" viewBox="0 0 48 48"><rect width="48" height="48" fill="#f6f6f6" rx="24"/><path fill="#000" d="M21.954 26.953V21.05L27.18 24zM33.58 19.19a2.52 2.52 0 0 0-1.75-1.763l-.019-.004a58 58 0 0 0-7.851-.418H24a60.49 60.49 0 0 0-8.103.446l.289-.03a2.52 2.52 0 0 0-1.763 1.75l-.004.018a25.2 25.2 0 0 0-.418 4.82v-.01l-.001.166c0 1.642.153 3.248.444 4.806l-.025-.161a2.52 2.52 0 0 0 1.75 1.763l.018.004a58 58 0 0 0 7.851.418H24a60.48 60.48 0 0 0 8.103-.446l-.29.03a2.52 2.52 0 0 0 1.765-1.75l.004-.018c.266-1.396.418-3.003.418-4.645v-.174.009-.166c0-1.642-.153-3.248-.444-4.806z"/></svg>