<svg xmlns="http://www.w3.org/2000/svg" width="1275" height="201" fill="none" viewBox="0 0 1275 201"><path fill="url(#a)" d="M63.223 105.737c0 7.12 1.187 13.235 3.561 18.37 2.374 5.112 6.006 9.08 10.894 11.858 4.912 2.777 11.197 4.178 18.855 4.178h24.256c7.402-.117 13.431-1.447 18.133-4.038 4.912-2.685 8.496-6.629 10.778-11.858q3.421-7.808 3.421-18.486V4.108A4.11 4.11 0 0 1 157.218 0h55.029a4.11 4.11 0 0 1 4.097 4.108V109.38c0 18.229-4.004 34.125-12.011 47.663s-19.228 24.089-33.683 31.651c-14.177 7.4-30.727 11.181-49.698 11.321H96.533c-19.274 0-36.127-3.781-50.606-11.321-14.455-7.562-25.722-18.089-33.822-31.651C4.05 143.481 0 127.608 0 109.379V4.109A4.11 4.11 0 0 1 4.097 0h55.029a4.11 4.11 0 0 1 4.096 4.108z"/><path fill="url(#b)" d="M239.617 191.214V4.108A4.11 4.11 0 0 1 243.714 0h75.187a4.11 4.11 0 0 1 3.492 1.96l62.757 103.474c2.142 3.548 7.589 2.007 7.589-2.124V4.108A4.11 4.11 0 0 1 396.836 0h53.073a4.11 4.11 0 0 1 4.097 4.108v187.106a4.11 4.11 0 0 1-4.097 4.108h-72.743a4.08 4.08 0 0 1-3.492-1.984L308.473 85.71c-2.142-3.548-7.589-2.03-7.589 2.124v103.357a4.11 4.11 0 0 1-4.097 4.108h-53.073a4.11 4.11 0 0 1-4.097-4.108z"/><path fill="url(#c)" d="M481.078 0h55.029a4.11 4.11 0 0 1 4.097 4.108v187.106a4.11 4.11 0 0 1-4.097 4.108h-55.029a4.11 4.11 0 0 1-4.097-4.108V4.108A4.11 4.11 0 0 1 481.078 0"/><path fill="url(#d)" d="M560.933 191.214V4.108c0-2.264 1.838-4.108 4.096-4.108h135.082c16.992 0 30.307 4.201 39.944 12.628s14.456 20.097 14.456 35.036c0 8.52-1.793 16.502-5.401 23.948-3.584 7.47-9.404 13.725-17.388 18.743-.978.7-1.886 1.307-2.7 1.82a60.7 60.7 0 0 1 9.8 3.385c9.311 4.179 16.294 9.944 20.95 17.32s6.983 16.199 6.983 26.423-2.258 20.143-6.727 28.64c-4.493 8.519-11.313 15.195-20.461 20.05-9.149 4.855-20.578 7.283-34.312 7.283H565.029c-2.258 0-4.096-1.844-4.096-4.108zm61.756-122.146a4.11 4.11 0 0 0 4.097 4.108h48.58c4.237 0 7.798-1.377 10.662-4.178 2.863-2.778 4.283-6.326 4.283-10.667 0-3.992-1.304-7.283-3.911-9.897s-6.285-3.898-11.034-3.898h-48.58a4.11 4.11 0 0 0-4.097 4.108zm0 77.61c0 2.265 1.839 4.109 4.097 4.109h58.38c5.401 0 9.637-1.518 12.733-4.552s4.656-7.166 4.656-12.371q0-7.038-4.539-11.974c-3.027-3.291-7.473-4.949-13.362-4.949h-57.892a4.11 4.11 0 0 0-4.097 4.108v25.653z"/><path fill="url(#e)" d="M904.221 0c16.667 0 30.913 2.918 42.761 8.73s20.857 14.051 27.072 24.742c6.215 10.667 9.312 23.225 9.312 37.627 0 14.401-3.097 26.959-9.312 37.626s-15.223 18.93-27.072 24.742-26.094 8.73-42.761 8.73h-63.036a4.11 4.11 0 0 0-4.097 4.108v44.909a4.11 4.11 0 0 1-4.097 4.108h-55.029a4.11 4.11 0 0 1-4.097-4.108V4.108A4.11 4.11 0 0 1 777.962 0zm-67.133 85.734a4.11 4.11 0 0 0 4.097 4.108h58.869c6.215 0 11.034-1.657 14.456-4.949 3.421-3.29 5.144-7.89 5.144-13.794 0-5.906-1.723-10.714-5.144-13.936-3.422-3.22-8.241-4.808-14.456-4.808h-58.869a4.11 4.11 0 0 0-4.097 4.108v29.294z"/><path fill="url(#f)" d="M1275 4.108v187.106a4.11 4.11 0 0 1-4.1 4.108h-51.84c-2.25 0-4.09-1.844-4.09-4.108V81.392c0-4.575-6.36-5.719-7.94-1.424l-41.3 112.647a4.07 4.07 0 0 1-3.84 2.684h-56.77a4.1 4.1 0 0 1-3.84-2.684l-41.3-112.227c-1.58-4.294-7.93-3.15-7.93 1.424v109.379a4.11 4.11 0 0 1-4.1 4.108h-51.841a4.11 4.11 0 0 1-4.097-4.108V4.108A4.11 4.11 0 0 1 996.109 0h90.741c1.74 0 3.3 1.12 3.86 2.754l39.01 113.3c1.28 3.688 6.47 3.688 7.75 0l38.81-113.276A4.09 4.09 0 0 1 1180.14 0h90.74a4.11 4.11 0 0 1 4.1 4.108z"/><defs><linearGradient id="a" x1="1133.51" x2="1133.51" y1="0" y2="195.322" gradientUnits="userSpaceOnUse"><stop stop-color="#8559fe" stop-opacity=".09"/><stop offset="1" stop-color="#8559fe" stop-opacity=".02"/></linearGradient><linearGradient id="b" x1="1133.51" x2="1133.51" y1="0" y2="195.322" gradientUnits="userSpaceOnUse"><stop stop-color="#8559fe" stop-opacity=".09"/><stop offset="1" stop-color="#8559fe" stop-opacity=".02"/></linearGradient><linearGradient id="c" x1="1133.51" x2="1133.51" y1="0" y2="195.322" gradientUnits="userSpaceOnUse"><stop stop-color="#8559fe" stop-opacity=".09"/><stop offset="1" stop-color="#8559fe" stop-opacity=".02"/></linearGradient><linearGradient id="d" x1="1133.51" x2="1133.51" y1="0" y2="195.322" gradientUnits="userSpaceOnUse"><stop stop-color="#8559fe" stop-opacity=".09"/><stop offset="1" stop-color="#8559fe" stop-opacity=".02"/></linearGradient><linearGradient id="e" x1="1133.51" x2="1133.51" y1="0" y2="195.322" gradientUnits="userSpaceOnUse"><stop stop-color="#8559fe" stop-opacity=".09"/><stop offset="1" stop-color="#8559fe" stop-opacity=".02"/></linearGradient><linearGradient id="f" x1="1133.51" x2="1133.51" y1="0" y2="195.322" gradientUnits="userSpaceOnUse"><stop stop-color="#8559fe" stop-opacity=".09"/><stop offset="1" stop-color="#8559fe" stop-opacity=".02"/></linearGradient></defs></svg>