<svg width="445" height="444" viewBox="0 0 445 444" fill="none" xmlns="http://www.w3.org/2000/svg">
<g opacity="0.3">
<rect x="109" y="58.5995" width="270" height="301" rx="20" fill="#AFA9FF"/>
</g>
<g filter="url(#filter0_d_935_1884)">
<rect x="62.3516" y="43.8378" width="259.926" height="301" rx="20" transform="rotate(-2.58403 62.3516 43.8378)" fill="white"/>
<rect x="59.7414" y="41.453" width="264.926" height="306" rx="22.5" transform="rotate(-2.58403 59.7414 41.453)" stroke="#D3D4FF" stroke-width="5"/>
<path d="M111.176 149.744L112.416 177.216M133.891 253.826L123.902 254.277C119.488 254.476 115.748 251.059 115.549 246.646L114.76 229.163M112.416 177.216L130.397 176.405M112.416 177.216L113.588 203.19M113.588 203.19L131.57 202.378M113.588 203.19L114.76 229.163M114.76 229.163L132.742 228.352" stroke="#F4F4F4" stroke-width="2"/>
<path d="M155.301 180.768L155.212 178.788L147.782 179.123L147.871 181.103L146.696 181.156L146.558 178.097L156.337 177.656L156.476 180.715L155.301 180.768ZM148.207 169.141L154.708 168.847L155.157 178.79L153.846 178.849L153.446 169.985L149.41 170.168L149.327 174.544C149.307 175.512 149.252 176.274 149.163 176.83C149.074 177.386 148.979 177.817 148.879 178.122L147.493 178.185C147.661 177.858 147.798 177.409 147.904 176.839C148.015 176.268 148.08 175.526 148.098 174.613L148.207 169.141ZM157.602 178.68L157.277 171.496L158.527 171.439L158.727 175.871C158.733 176.008 158.738 176.163 158.741 176.336C158.749 176.505 158.754 176.657 158.755 176.794L158.823 176.791C158.882 176.674 158.947 176.548 159.018 176.413C159.094 176.272 159.172 176.13 159.252 175.985L161.894 171.287L163.164 171.23L163.488 178.414L162.239 178.471L162.039 174.045C162.033 173.909 162.028 173.749 162.024 173.567C162.025 173.385 162.027 173.225 162.03 173.088L161.927 173.092C161.878 173.209 161.815 173.342 161.74 173.491C161.669 173.64 161.594 173.787 161.514 173.932L158.872 178.623L157.602 178.68ZM168.175 178.408C167.124 178.455 166.338 178.233 165.819 177.741C165.304 177.244 165.032 176.677 165.003 176.04L165.001 176.006L166.231 175.95L166.232 175.984C166.249 176.353 166.398 176.684 166.681 176.977C166.963 177.27 167.448 177.401 168.135 177.37C168.7 177.344 169.132 177.211 169.431 176.969C169.73 176.727 169.871 176.409 169.853 176.013C169.839 175.694 169.72 175.444 169.498 175.262C169.275 175.081 168.932 175 168.467 175.021L167.204 175.078L167.16 174.095L168.218 174.047C168.687 174.026 169.02 173.917 169.216 173.722C169.412 173.521 169.503 173.259 169.489 172.936C169.472 172.567 169.329 172.289 169.061 172.1C168.797 171.911 168.433 171.827 167.968 171.848C167.376 171.875 166.937 172.034 166.649 172.325C166.365 172.612 166.233 172.969 166.252 173.397L166.254 173.431L165.025 173.486L165.023 173.452C164.989 172.692 165.223 172.072 165.726 171.594C166.234 171.114 166.965 170.853 167.921 170.81C168.832 170.769 169.526 170.927 170.003 171.284C170.484 171.641 170.739 172.138 170.768 172.776C170.784 173.144 170.677 173.485 170.444 173.796C170.212 174.108 169.891 174.316 169.48 174.421L169.481 174.442C169.976 174.492 170.369 174.65 170.659 174.915C170.954 175.176 171.111 175.522 171.13 175.955C171.164 176.702 170.899 177.288 170.334 177.715C169.774 178.137 169.054 178.368 168.175 178.408ZM172.503 175.886C172.47 175.158 172.733 174.578 173.293 174.147C173.853 173.715 174.579 173.479 175.471 173.439L177.097 173.366L177.075 172.874C177.055 172.442 176.928 172.096 176.693 171.838C176.457 171.575 176.066 171.455 175.52 171.48C174.974 171.505 174.587 171.636 174.361 171.874C174.139 172.108 174.034 172.373 174.048 172.669L174.049 172.703L172.786 172.76L172.784 172.726C172.759 172.157 172.989 171.649 173.475 171.203C173.966 170.752 174.643 170.507 175.508 170.468C176.373 170.429 177.052 170.606 177.544 170.999C178.041 171.391 178.308 171.997 178.345 172.817L178.493 176.095C178.506 176.391 178.541 176.67 178.599 176.932C178.656 177.189 178.73 177.416 178.821 177.613L178.826 177.722L177.597 177.777C177.528 177.667 177.462 177.521 177.399 177.342C177.341 177.162 177.301 176.981 177.279 176.8C177.124 177.103 176.863 177.377 176.495 177.622C176.132 177.866 175.655 178.002 175.063 178.029C174.38 178.06 173.791 177.892 173.295 177.527C172.8 177.161 172.535 176.615 172.503 175.886ZM173.77 175.76C173.788 176.17 173.921 176.486 174.168 176.707C174.415 176.929 174.79 177.028 175.29 177.006C175.791 176.983 176.236 176.79 176.626 176.425C177.015 176.061 177.201 175.685 177.184 175.298L177.137 174.267L175.649 174.334C175.011 174.363 174.534 174.506 174.217 174.762C173.9 175.018 173.751 175.351 173.77 175.76ZM180.547 177.644L180.223 170.46L181.473 170.404L181.673 174.836C181.679 174.972 181.683 175.127 181.687 175.301C181.694 175.469 181.699 175.622 181.701 175.758L181.769 175.755C181.827 175.639 181.892 175.513 181.964 175.377C182.04 175.237 182.118 175.094 182.198 174.949L184.839 170.252L186.109 170.195L186.434 177.379L185.184 177.435L184.984 173.01C184.978 172.873 184.973 172.714 184.97 172.532C184.97 172.349 184.972 172.189 184.975 172.052L184.873 172.057C184.823 172.173 184.761 172.306 184.686 172.455C184.615 172.605 184.539 172.752 184.459 172.897L181.817 177.587L180.547 177.644ZM183.076 168.183C183.39 168.169 183.65 168.068 183.856 167.881C184.062 167.694 184.22 167.401 184.33 167.004L185.332 167.527C185.147 168.078 184.858 168.488 184.464 168.757C184.075 169.025 183.627 169.171 183.122 169.194C182.612 169.217 182.153 169.116 181.747 168.893C181.344 168.665 181.019 168.278 180.77 167.733L181.727 167.094C181.878 167.521 182.063 167.813 182.28 167.972C182.497 168.127 182.762 168.197 183.076 168.183ZM188.131 170.103L189.401 170.046L189.537 173.064L192.747 172.92L192.611 169.901L193.881 169.844L194.205 177.028L192.935 177.085L192.792 173.91L189.582 174.055L189.725 177.23L188.455 177.287L188.131 170.103Z" fill="black" fill-opacity="0.4"/>
<path d="M136.128 181.399C139.576 181.243 142.245 178.322 142.089 174.873C141.934 171.425 139.012 168.756 135.564 168.911C132.116 169.067 129.446 171.989 129.602 175.437C129.758 178.885 132.679 181.554 136.128 181.399Z" fill="black" fill-opacity="0.6"/>
<path d="M133.972 175.243L135.277 176.435L137.662 173.825" stroke="white" stroke-width="1.5" stroke-linecap="round" stroke-linejoin="round"/>
<path d="M148.331 201.459L148.302 200.831C148.233 199.301 148.571 198.091 149.315 197.199C150.064 196.308 151.053 195.834 152.283 195.779C153.512 195.723 154.537 196.106 155.359 196.927C156.185 197.747 156.633 198.922 156.702 200.452L156.73 201.08C156.799 202.61 156.459 203.82 155.71 204.712C154.966 205.603 153.979 206.076 152.75 206.132C151.521 206.187 150.493 205.805 149.667 204.984C148.845 204.164 148.4 202.989 148.331 201.459ZM149.656 201.399C149.708 202.565 150.011 203.468 150.565 204.109C151.123 204.75 151.834 205.051 152.699 205.012C153.564 204.973 154.244 204.609 154.737 203.921C155.235 203.232 155.458 202.305 155.406 201.14L155.377 200.511C155.325 199.346 155.019 198.443 154.461 197.802C153.908 197.161 153.198 196.86 152.333 196.899C151.468 196.938 150.787 197.302 150.289 197.99C149.795 198.679 149.575 199.605 149.627 200.771L149.656 201.399ZM159.511 202.049L159.521 202.268C159.553 202.973 159.755 203.562 160.128 204.033C160.5 204.5 161.032 204.718 161.724 204.687C162.416 204.655 162.927 204.391 163.255 203.892C163.584 203.389 163.732 202.785 163.7 202.079L163.691 201.861C163.659 201.155 163.457 200.569 163.084 200.102C162.712 199.631 162.179 199.411 161.487 199.442C160.795 199.473 160.285 199.74 159.957 200.243C159.628 200.742 159.479 201.344 159.511 202.049ZM161.755 198.39C162.706 198.347 163.471 198.652 164.047 199.306C164.629 199.955 164.942 200.787 164.988 201.802L164.998 202.021C165.045 203.063 164.776 203.931 164.192 204.623C163.607 205.311 162.8 205.678 161.771 205.725C160.706 205.773 159.86 205.478 159.233 204.84C158.607 204.198 158.258 203.098 158.188 201.541L158.18 201.363C158.105 199.688 158.322 198.385 158.832 197.454C159.346 196.523 160.347 195.91 161.835 195.615C162.613 195.461 163.059 195.338 163.173 195.246C163.292 195.154 163.36 195.051 163.378 194.936L164.498 194.886C164.47 195.366 164.293 195.755 163.969 196.052C163.649 196.345 163.003 196.579 162.03 196.756C160.872 196.963 160.103 197.36 159.723 197.948C159.343 198.53 159.135 199.268 159.097 200.159L159.173 200.155C159.386 199.635 159.714 199.219 160.156 198.907C160.598 198.59 161.131 198.418 161.755 198.39ZM166.153 201.832L166.143 201.613C166.094 200.53 166.348 199.631 166.904 198.917C167.465 198.203 168.262 197.822 169.295 197.776C170.251 197.733 170.989 197.959 171.509 198.456C172.028 198.948 172.302 199.513 172.331 200.15L172.333 200.184L171.104 200.24L171.102 200.206C171.085 199.819 170.935 199.483 170.653 199.199C170.371 198.916 169.934 198.787 169.342 198.814C168.65 198.845 168.152 199.125 167.847 199.654C167.543 200.179 167.407 200.813 167.44 201.555L167.45 201.773C167.484 202.515 167.676 203.136 168.027 203.636C168.378 204.131 168.899 204.363 169.591 204.332C170.183 204.305 170.607 204.137 170.862 203.829C171.117 203.521 171.236 203.174 171.219 202.787L171.217 202.753L172.446 202.697L172.448 202.731C172.476 203.369 172.254 203.958 171.782 204.5C171.309 205.036 170.594 205.326 169.638 205.37C168.605 205.416 167.776 205.109 167.154 204.448C166.535 203.787 166.202 202.915 166.153 201.832ZM173.492 207.837L173.444 206.758C173.564 206.789 173.697 206.813 173.844 206.829C173.991 206.845 174.132 206.85 174.269 206.844C174.587 206.83 174.86 206.696 175.086 206.444C175.312 206.197 175.539 205.669 175.767 204.86L175.766 204.853L172.767 197.824L173.996 197.769L175.91 202.418C175.982 202.597 176.046 202.765 176.104 202.922C176.161 203.079 176.211 203.225 176.253 203.36L176.294 203.358C176.329 203.22 176.368 203.07 176.411 202.908C176.458 202.747 176.508 202.573 176.559 202.388L177.93 197.591L179.131 197.537L176.583 205.809C176.384 206.456 176.104 206.966 175.742 207.339C175.384 207.71 174.933 207.909 174.386 207.933C174.204 207.942 174.042 207.938 173.9 207.921C173.758 207.905 173.622 207.877 173.492 207.837ZM184.816 204.479L183.587 204.535L183.263 197.351L184.492 197.295L184.816 204.479ZM187.719 204.348L185.313 201.227L186.096 200.377L189.153 204.284L187.719 204.348ZM184.014 200.341L185.236 200.286L187.183 197.174L188.576 197.111L185.943 201.246L184.059 201.332L184.014 200.341ZM180.685 204.666L179.285 204.729L181.978 200.563L182.786 201.341L180.685 204.666ZM184.014 200.341L184.059 201.332L182.16 201.417L179.166 197.536L180.572 197.472L182.791 200.396L184.014 200.341ZM195.512 205.844L195.429 204L190.205 204.236L190.288 206.08L189.14 206.132L189.013 203.298L196.531 202.958L196.659 205.792L195.512 205.844ZM191.325 197.979L191.331 200.695C191.335 201.393 191.314 201.935 191.268 202.32C191.221 202.701 191.143 203.037 191.033 203.33L189.701 203.39C189.838 203.187 189.949 202.879 190.036 202.465C190.122 202.05 190.164 201.414 190.162 200.557L190.153 197.04L195.193 196.812L195.517 203.996L194.247 204.054L193.968 197.86L191.325 197.979ZM197.143 200.433L197.133 200.215C197.084 199.131 197.34 198.232 197.901 197.518C198.466 196.804 199.238 196.424 200.217 196.38C201.196 196.336 201.964 196.623 202.521 197.241C203.078 197.859 203.381 198.715 203.43 199.807L203.454 200.326L197.929 200.575L197.884 199.565L202.131 199.373L202.124 199.209C202.1 198.69 201.932 198.255 201.62 197.904C201.308 197.554 200.874 197.391 200.318 197.416C199.645 197.446 199.153 197.726 198.844 198.256C198.535 198.78 198.397 199.414 198.43 200.156L198.44 200.375C198.474 201.117 198.677 201.737 199.051 202.236C199.425 202.73 199.98 202.96 200.718 202.927C201.173 202.906 201.56 202.788 201.879 202.573C202.197 202.358 202.453 202.109 202.646 201.827L203.494 202.439C203.282 202.791 202.944 203.125 202.479 203.443C202.019 203.76 201.447 203.934 200.765 203.965C199.649 204.015 198.778 203.71 198.15 203.049C197.527 202.389 197.192 201.517 197.143 200.433ZM204.836 196.377L206.106 196.32L206.242 199.338L209.452 199.193L209.316 196.175L210.586 196.118L210.91 203.302L209.64 203.359L209.496 200.183L206.287 200.328L206.43 203.504L205.16 203.561L204.836 196.377ZM212.931 203.21L212.607 196.026L213.857 195.97L214.057 200.402C214.063 200.539 214.068 200.693 214.071 200.867C214.079 201.035 214.083 201.188 214.085 201.324L214.153 201.321C214.212 201.205 214.277 201.079 214.348 200.943C214.424 200.803 214.502 200.66 214.582 200.515L217.224 195.818L218.494 195.761L218.818 202.945L217.568 203.001L217.369 198.576C217.362 198.439 217.357 198.28 217.354 198.098C217.355 197.915 217.357 197.755 217.36 197.618L217.257 197.623C217.208 197.739 217.145 197.872 217.07 198.021C216.999 198.171 216.924 198.318 216.843 198.463L214.202 203.153L212.931 203.21ZM220.252 199.39L220.242 199.172C220.193 198.088 220.449 197.189 221.01 196.475C221.575 195.761 222.347 195.381 223.326 195.337C224.305 195.293 225.073 195.58 225.63 196.198C226.187 196.816 226.49 197.672 226.54 198.764L226.563 199.283L221.038 199.533L220.993 198.522L225.24 198.33L225.233 198.166C225.21 197.647 225.042 197.212 224.729 196.861C224.417 196.511 223.983 196.348 223.428 196.373C222.754 196.403 222.262 196.683 221.953 197.213C221.644 197.737 221.506 198.371 221.54 199.113L221.549 199.332C221.583 200.074 221.787 200.694 222.16 201.193C222.534 201.687 223.089 201.917 223.827 201.884C224.282 201.863 224.669 201.745 224.988 201.53C225.307 201.315 225.562 201.066 225.755 200.784L226.604 201.396C226.391 201.748 226.053 202.082 225.588 202.4C225.128 202.717 224.557 202.891 223.874 202.922C222.758 202.972 221.887 202.667 221.26 202.007C220.637 201.346 220.301 200.474 220.252 199.39Z" fill="black" fill-opacity="0.4"/>
<path d="M137.346 208.375C140.795 208.22 143.464 205.298 143.308 201.85C143.153 198.402 140.231 195.732 136.783 195.888C133.334 196.044 130.665 198.965 130.821 202.413C130.976 205.862 133.898 208.531 137.346 208.375Z" fill="black" fill-opacity="0.6"/>
<path d="M135.191 202.219L136.496 203.412L138.881 200.802" stroke="white" stroke-width="1.5" stroke-linecap="round" stroke-linejoin="round"/>
<path d="M149.505 227.432L149.476 226.803C149.407 225.274 149.745 224.063 150.489 223.172C151.238 222.281 152.205 221.808 153.388 221.755C154.572 221.701 155.513 221.985 156.212 222.606C156.915 223.222 157.287 223.987 157.328 224.903L157.331 224.971L156.02 225.03L156.017 224.962C155.988 224.329 155.76 223.815 155.331 223.419C154.903 223.018 154.272 222.837 153.439 222.875C152.624 222.911 151.966 223.249 151.466 223.887C150.965 224.526 150.744 225.478 150.801 226.744L150.829 227.372C150.882 228.537 151.185 229.441 151.739 230.082C152.297 230.723 152.985 231.024 153.805 230.987C154.588 230.952 155.17 230.714 155.552 230.272C155.933 229.831 156.142 229.299 156.178 228.677L156.182 228.608L157.493 228.549L157.489 228.618C157.439 229.532 157.117 230.329 156.523 231.009C155.928 231.688 155.039 232.054 153.855 232.107C152.672 232.161 151.667 231.777 150.841 230.957C150.019 230.136 149.574 228.961 149.505 227.432ZM158.64 228.196L158.63 227.978C158.581 226.894 158.849 225.995 159.432 225.28C160.016 224.565 160.822 224.184 161.851 224.137C162.88 224.091 163.717 224.398 164.363 225.057C165.008 225.717 165.356 226.589 165.405 227.672L165.414 227.891C165.463 228.974 165.196 229.874 164.612 230.589C164.029 231.304 163.223 231.685 162.194 231.731C161.165 231.778 160.328 231.471 159.682 230.811C159.036 230.152 158.689 229.28 158.64 228.196ZM159.928 227.919L159.938 228.138C159.971 228.88 160.175 229.5 160.548 229.999C160.922 230.493 161.455 230.724 162.147 230.693C162.839 230.662 163.349 230.383 163.676 229.858C164.003 229.327 164.15 228.691 164.117 227.949L164.107 227.731C164.074 226.989 163.87 226.37 163.496 225.876C163.123 225.378 162.59 225.144 161.898 225.175C161.206 225.207 160.696 225.487 160.369 226.018C160.041 226.543 159.894 227.177 159.928 227.919ZM166.839 224.117L171.523 223.906L171.568 224.896L168.153 225.05L168.433 231.244L167.163 231.302L166.839 224.117ZM174.6 224.759L174.606 227.613C174.607 228.858 174.493 229.76 174.262 230.317C174.032 230.871 173.571 231.163 172.879 231.194C172.724 231.201 172.58 231.196 172.447 231.179C172.319 231.167 172.21 231.142 172.122 231.105L172.074 230.04C172.153 230.068 172.233 230.087 172.316 230.097C172.403 230.107 172.497 230.11 172.597 230.105C172.956 230.089 173.187 229.894 173.289 229.52C173.391 229.146 173.44 228.468 173.437 227.488L173.429 223.82L178.4 223.596L178.724 230.78L177.454 230.837L177.175 224.643L174.6 224.759ZM180.274 228.589C180.242 227.86 180.505 227.28 181.065 226.849C181.625 226.418 182.351 226.182 183.243 226.142L184.869 226.068L184.846 225.577C184.827 225.144 184.7 224.799 184.464 224.54C184.229 224.277 183.838 224.158 183.292 224.182C182.745 224.207 182.359 224.339 182.133 224.577C181.91 224.81 181.806 225.075 181.819 225.371L181.821 225.405L180.558 225.462L180.556 225.428C180.53 224.859 180.761 224.351 181.247 223.905C181.738 223.454 182.415 223.209 183.28 223.17C184.145 223.131 184.824 223.308 185.316 223.701C185.813 224.094 186.08 224.7 186.117 225.519L186.265 228.797C186.278 229.093 186.313 229.372 186.371 229.634C186.428 229.892 186.502 230.119 186.593 230.315L186.598 230.424L185.369 230.48C185.3 230.369 185.234 230.224 185.171 230.044C185.113 229.864 185.073 229.684 185.051 229.502C184.896 229.806 184.635 230.08 184.267 230.324C183.904 230.569 183.426 230.704 182.835 230.731C182.152 230.762 181.563 230.595 181.067 230.229C180.572 229.864 180.307 229.317 180.274 228.589ZM181.542 228.463C181.56 228.873 181.693 229.188 181.94 229.41C182.187 229.631 182.561 229.731 183.062 229.708C183.563 229.686 184.008 229.492 184.398 229.128C184.787 228.764 184.973 228.388 184.956 228.001L184.909 226.97L183.421 227.037C182.783 227.066 182.306 227.208 181.989 227.464C181.672 227.72 181.523 228.053 181.542 228.463ZM187.732 226.883L187.722 226.665C187.673 225.581 187.926 224.683 188.483 223.969C189.044 223.255 189.841 222.874 190.874 222.827C191.83 222.784 192.568 223.011 193.088 223.508C193.607 224 193.881 224.564 193.91 225.202L193.912 225.236L192.682 225.291L192.681 225.257C192.663 224.87 192.514 224.535 192.232 224.251C191.95 223.967 191.513 223.839 190.921 223.865C190.229 223.897 189.731 224.177 189.426 224.706C189.121 225.231 188.986 225.864 189.019 226.606L189.029 226.825C189.063 227.567 189.255 228.188 189.606 228.687C189.957 229.183 190.478 229.415 191.17 229.383C191.762 229.357 192.185 229.189 192.441 228.881C192.696 228.573 192.815 228.226 192.797 227.839L192.796 227.804L194.025 227.749L194.027 227.783C194.055 228.421 193.833 229.01 193.36 229.551C192.887 230.088 192.173 230.378 191.217 230.421C190.183 230.468 189.355 230.161 188.732 229.5C188.114 228.839 187.78 227.967 187.732 226.883ZM195.025 226.554L195.015 226.336C194.966 225.252 195.233 224.353 195.817 223.638C196.401 222.922 197.207 222.542 198.236 222.495C199.265 222.449 200.102 222.755 200.748 223.415C201.393 224.075 201.74 224.946 201.789 226.03L201.799 226.249C201.848 227.332 201.581 228.231 200.997 228.947C200.414 229.662 199.607 230.043 198.579 230.089C197.55 230.136 196.712 229.829 196.067 229.169C195.421 228.509 195.074 227.638 195.025 226.554ZM196.313 226.277L196.322 226.496C196.356 227.238 196.56 227.858 196.933 228.357C197.307 228.851 197.84 229.082 198.532 229.051C199.224 229.02 199.733 228.741 200.061 228.216C200.388 227.685 200.535 227.049 200.502 226.307L200.492 226.089C200.458 225.347 200.255 224.728 199.881 224.234C199.508 223.736 198.975 223.502 198.283 223.533C197.591 223.564 197.081 223.845 196.754 224.375C196.426 224.901 196.279 225.535 196.313 226.277ZM203.548 229.66L203.223 222.475L206.324 222.336C207.12 222.3 207.754 222.431 208.223 222.729C208.697 223.027 208.949 223.497 208.978 224.139C208.996 224.544 208.889 224.888 208.655 225.173C208.426 225.452 208.111 225.644 207.71 225.749L207.71 225.77C208.21 225.82 208.607 225.98 208.902 226.25C209.197 226.515 209.354 226.866 209.374 227.303C209.404 227.963 209.188 228.488 208.727 228.878C208.265 229.264 207.64 229.475 206.853 229.51L203.548 229.66ZM204.631 225.457L206.461 225.374C206.916 225.354 207.24 225.246 207.432 225.05C207.623 224.85 207.712 224.588 207.697 224.265C207.683 223.946 207.572 223.705 207.364 223.541C207.155 223.377 206.824 223.305 206.368 223.326L204.538 223.408L204.631 225.457ZM204.773 228.612L206.808 228.52C207.268 228.499 207.6 228.384 207.805 228.174C208.015 227.959 208.112 227.688 208.097 227.36C208.082 227.037 207.964 226.782 207.741 226.596C207.518 226.41 207.175 226.328 206.71 226.349L204.675 226.44L204.773 228.612ZM210.745 227.213C210.713 226.485 210.976 225.905 211.536 225.474C212.096 225.043 212.822 224.807 213.714 224.767L215.34 224.693L215.317 224.201C215.298 223.769 215.171 223.423 214.935 223.165C214.7 222.902 214.309 222.783 213.763 222.807C213.216 222.832 212.83 222.963 212.604 223.202C212.381 223.435 212.277 223.7 212.29 223.996L212.292 224.03L211.029 224.087L211.027 224.053C211.001 223.484 211.232 222.976 211.718 222.53C212.208 222.079 212.886 221.834 213.751 221.795C214.616 221.756 215.295 221.933 215.787 222.326C216.284 222.719 216.551 223.325 216.588 224.144L216.736 227.422C216.749 227.718 216.784 227.997 216.842 228.259C216.899 228.516 216.973 228.743 217.064 228.94L217.069 229.049L215.84 229.105C215.771 228.994 215.705 228.849 215.642 228.669C215.584 228.489 215.544 228.308 215.522 228.127C215.367 228.43 215.105 228.705 214.738 228.949C214.375 229.194 213.897 229.329 213.306 229.356C212.623 229.387 212.033 229.22 211.538 228.854C211.042 228.489 210.778 227.942 210.745 227.213ZM212.013 227.088C212.031 227.498 212.164 227.813 212.411 228.035C212.658 228.256 213.032 228.356 213.533 228.333C214.034 228.31 214.479 228.117 214.869 227.753C215.258 227.388 215.444 227.013 215.427 226.626L215.38 225.595L213.892 225.662C213.254 225.691 212.777 225.833 212.46 226.089C212.143 226.345 211.994 226.678 212.013 227.088ZM218.466 221.788L219.736 221.73L219.872 224.749L223.082 224.604L222.945 221.585L224.216 221.528L224.54 228.712L223.27 228.769L223.126 225.594L219.917 225.739L220.06 228.914L218.79 228.972L218.466 221.788ZM226.561 228.621L226.237 221.437L227.487 221.38L227.687 225.812C227.693 225.949 227.698 226.104 227.701 226.277C227.709 226.446 227.713 226.598 227.715 226.735L227.783 226.732C227.842 226.615 227.907 226.489 227.978 226.354C228.054 226.213 228.132 226.071 228.212 225.926L230.853 221.228L232.124 221.171L232.448 228.355L231.198 228.412L230.998 223.986C230.992 223.85 230.987 223.69 230.984 223.508C230.985 223.326 230.987 223.166 230.989 223.029L230.887 223.033C230.838 223.15 230.775 223.283 230.7 223.432C230.629 223.581 230.553 223.728 230.473 223.873L227.831 228.564L226.561 228.621ZM233.882 224.801L233.872 224.582C233.823 223.499 234.079 222.6 234.64 221.886C235.205 221.171 235.977 220.792 236.956 220.748C237.935 220.704 238.703 220.991 239.26 221.609C239.817 222.227 240.12 223.082 240.17 224.175L240.193 224.694L234.668 224.943L234.623 223.932L238.87 223.741L238.863 223.577C238.84 223.058 238.672 222.623 238.359 222.272C238.047 221.921 237.613 221.758 237.058 221.783C236.384 221.814 235.892 222.094 235.583 222.623C235.274 223.148 235.136 223.781 235.169 224.524L235.179 224.742C235.213 225.484 235.416 226.105 235.79 226.603C236.164 227.097 236.719 227.328 237.457 227.294C237.912 227.274 238.299 227.156 238.618 226.941C238.937 226.726 239.192 226.477 239.385 226.195L240.234 226.806C240.021 227.158 239.683 227.493 239.218 227.81C238.758 228.127 238.187 228.302 237.504 228.332C236.388 228.383 235.517 228.078 234.889 227.417C234.267 226.756 233.931 225.884 233.882 224.801Z" fill="black" fill-opacity="0.4"/>
<g clip-path="url(#clip0_935_1884)">
<path d="M138.518 234.348C141.966 234.192 144.636 231.271 144.48 227.823C144.324 224.374 141.403 221.705 137.955 221.861C134.506 222.016 131.837 224.938 131.993 228.386C132.148 231.834 135.07 234.504 138.518 234.348Z" fill="black" fill-opacity="0.6"/>
<path d="M136.363 228.192L137.668 229.384L140.053 226.774" stroke="white" stroke-width="1.5" stroke-linecap="round" stroke-linejoin="round"/>
</g>
<path d="M151.262 258.049L150.813 248.106L154.105 247.957C155.198 247.908 156.05 248.145 156.662 248.67C157.274 249.189 157.601 249.905 157.642 250.815C157.683 251.726 157.422 252.474 156.86 253.061C156.298 253.643 155.471 253.958 154.378 254.008L152.398 254.097L152.573 257.989L151.262 258.049ZM152.349 253.018L154.329 252.929C155.103 252.894 155.637 252.68 155.929 252.288C156.221 251.892 156.355 251.421 156.331 250.874C156.306 250.328 156.13 249.877 155.804 249.523C155.478 249.163 154.928 249.001 154.154 249.036L152.173 249.125L152.349 253.018ZM158.815 255.586C158.782 254.858 159.046 254.278 159.606 253.847C160.166 253.416 160.892 253.18 161.784 253.14L163.409 253.066L163.387 252.575C163.368 252.142 163.24 251.797 163.005 251.538C162.77 251.275 162.379 251.156 161.832 251.18C161.286 251.205 160.9 251.336 160.673 251.575C160.451 251.808 160.347 252.073 160.36 252.369L160.362 252.403L159.098 252.46L159.097 252.426C159.071 251.857 159.301 251.349 159.788 250.903C160.278 250.452 160.956 250.207 161.821 250.168C162.686 250.129 163.365 250.306 163.857 250.699C164.353 251.092 164.62 251.698 164.657 252.517L164.805 255.795C164.819 256.091 164.854 256.37 164.911 256.632C164.969 256.889 165.043 257.117 165.134 257.313L165.139 257.422L163.909 257.478C163.841 257.367 163.775 257.222 163.712 257.042C163.654 256.862 163.613 256.681 163.592 256.5C163.437 256.804 163.175 257.078 162.808 257.322C162.445 257.567 161.967 257.702 161.375 257.729C160.692 257.76 160.103 257.593 159.608 257.227C159.112 256.862 158.848 256.315 158.815 255.586ZM160.082 255.461C160.101 255.871 160.234 256.186 160.481 256.408C160.728 256.629 161.102 256.729 161.603 256.706C162.104 256.683 162.549 256.49 162.938 256.126C163.328 255.761 163.514 255.386 163.496 254.999L163.45 253.968L161.961 254.035C161.324 254.064 160.847 254.206 160.53 254.462C160.213 254.718 160.064 255.051 160.082 255.461ZM169.525 257.43C168.474 257.477 167.688 257.255 167.169 256.763C166.653 256.266 166.382 255.699 166.353 255.062L166.351 255.027L167.58 254.972L167.582 255.006C167.599 255.375 167.748 255.706 168.031 255.999C168.313 256.291 168.798 256.422 169.485 256.391C170.05 256.366 170.482 256.232 170.781 255.991C171.08 255.749 171.221 255.43 171.203 255.034C171.189 254.716 171.07 254.465 170.848 254.284C170.625 254.102 170.282 254.022 169.817 254.043L168.554 254.1L168.509 253.117L169.568 253.069C170.037 253.048 170.37 252.939 170.566 252.743C170.762 252.543 170.853 252.281 170.839 251.958C170.822 251.589 170.679 251.31 170.411 251.122C170.147 250.933 169.783 250.849 169.318 250.87C168.726 250.897 168.286 251.056 167.999 251.347C167.715 251.633 167.583 251.991 167.602 252.419L167.604 252.453L166.374 252.508L166.373 252.474C166.339 251.714 166.573 251.094 167.076 250.615C167.583 250.136 168.315 249.875 169.271 249.832C170.182 249.791 170.876 249.949 171.352 250.306C171.834 250.663 172.089 251.16 172.118 251.797C172.134 252.166 172.027 252.506 171.794 252.818C171.562 253.129 171.241 253.338 170.83 253.443L170.831 253.463C171.326 253.514 171.719 253.672 172.009 253.937C172.304 254.198 172.461 254.544 172.48 254.977C172.514 255.723 172.248 256.31 171.684 256.737C171.123 257.159 170.404 257.39 169.525 257.43ZM174.472 259.848L174.02 249.823L175.167 249.771L175.264 250.704L175.305 250.702C175.474 250.398 175.74 250.133 176.104 249.907C176.472 249.68 176.907 249.556 177.408 249.533C178.318 249.492 179.062 249.801 179.639 250.459C180.216 251.117 180.529 251.97 180.576 253.017L180.586 253.235C180.633 254.282 180.399 255.16 179.883 255.867C179.368 256.575 178.655 256.949 177.744 256.99C177.244 257.013 176.812 256.943 176.448 256.782C176.09 256.616 175.799 256.389 175.576 256.103L175.743 259.79L174.472 259.848ZM175.518 254.819C175.674 255.131 175.916 255.405 176.246 255.641C176.576 255.877 176.969 255.985 177.424 255.965C178.107 255.934 178.597 255.663 178.893 255.153C179.189 254.642 179.321 254.022 179.288 253.294L179.278 253.075C179.245 252.347 179.058 251.742 178.717 251.26C178.376 250.778 177.864 250.553 177.181 250.583C176.726 250.604 176.345 250.747 176.037 251.011C175.73 251.276 175.513 251.571 175.386 251.896L175.518 254.819ZM181.842 254.547C181.81 253.819 182.073 253.239 182.633 252.808C183.193 252.376 183.919 252.141 184.811 252.1L186.437 252.027L186.414 251.535C186.395 251.103 186.268 250.757 186.032 250.499C185.797 250.236 185.406 250.116 184.86 250.141C184.313 250.166 183.927 250.297 183.701 250.536C183.478 250.769 183.374 251.034 183.387 251.33L183.389 251.364L182.126 251.421L182.124 251.387C182.098 250.818 182.329 250.31 182.815 249.864C183.305 249.413 183.983 249.168 184.848 249.129C185.713 249.09 186.392 249.267 186.884 249.66C187.381 250.052 187.648 250.659 187.685 251.478L187.833 254.756C187.846 255.052 187.881 255.331 187.939 255.593C187.996 255.85 188.07 256.077 188.161 256.274L188.166 256.383L186.937 256.439C186.868 256.328 186.802 256.182 186.739 256.003C186.681 255.823 186.641 255.642 186.619 255.461C186.464 255.764 186.203 256.038 185.835 256.283C185.472 256.528 184.994 256.663 184.403 256.69C183.72 256.721 183.13 256.553 182.635 256.188C182.139 255.823 181.875 255.276 181.842 254.547ZM183.11 254.422C183.128 254.831 183.261 255.147 183.508 255.368C183.755 255.59 184.129 255.689 184.63 255.667C185.131 255.644 185.576 255.451 185.966 255.087C186.355 254.722 186.541 254.347 186.524 253.96L186.477 252.928L184.989 252.996C184.351 253.024 183.874 253.167 183.557 253.423C183.24 253.679 183.091 254.012 183.11 254.422ZM190.662 252.699L190.671 252.917C190.703 253.623 190.906 254.211 191.278 254.683C191.65 255.149 192.183 255.367 192.875 255.336C193.567 255.305 194.077 255.04 194.406 254.541C194.734 254.038 194.883 253.434 194.851 252.728L194.841 252.51C194.809 251.804 194.607 251.218 194.235 250.751C193.862 250.28 193.33 250.06 192.638 250.091C191.946 250.122 191.436 250.389 191.107 250.892C190.778 251.391 190.63 251.993 190.662 252.699ZM192.905 249.039C193.857 248.996 194.621 249.301 195.198 249.955C195.779 250.604 196.093 251.436 196.138 252.451L196.148 252.67C196.195 253.712 195.927 254.58 195.342 255.272C194.757 255.96 193.95 256.327 192.921 256.374C191.856 256.422 191.01 256.127 190.384 255.489C189.757 254.847 189.409 253.747 189.339 252.19L189.331 252.013C189.255 250.337 189.472 249.034 189.982 248.103C190.497 247.172 191.498 246.559 192.985 246.264C193.763 246.11 194.209 245.988 194.323 245.896C194.442 245.804 194.511 245.7 194.528 245.585L195.648 245.535C195.62 246.015 195.444 246.404 195.119 246.701C194.8 246.994 194.153 247.229 193.18 247.405C192.022 247.612 191.253 248.01 190.873 248.597C190.494 249.18 190.285 249.917 190.248 250.808L190.323 250.805C190.537 250.284 190.865 249.868 191.307 249.556C191.749 249.239 192.281 249.067 192.905 249.039ZM197.303 252.481L197.293 252.262C197.244 251.179 197.512 250.279 198.095 249.564C198.679 248.849 199.485 248.468 200.514 248.422C201.543 248.375 202.38 248.682 203.026 249.342C203.671 250.002 204.019 250.873 204.068 251.957L204.077 252.175C204.126 253.259 203.859 254.158 203.275 254.873C202.692 255.588 201.886 255.969 200.857 256.016C199.828 256.062 198.991 255.756 198.345 255.096C197.699 254.436 197.352 253.564 197.303 252.481ZM198.591 252.204L198.601 252.422C198.634 253.164 198.838 253.785 199.211 254.283C199.585 254.778 200.118 255.009 200.81 254.978C201.502 254.946 202.012 254.668 202.339 254.142C202.666 253.612 202.813 252.976 202.78 252.234L202.77 252.015C202.737 251.273 202.533 250.655 202.159 250.161C201.786 249.662 201.253 249.429 200.561 249.46C199.869 249.491 199.359 249.772 199.032 250.302C198.704 250.828 198.557 251.462 198.591 252.204ZM204.74 249.429L204.696 248.438L210.473 248.178L210.518 249.168L208.264 249.27L208.544 255.464L207.274 255.521L206.994 249.327L204.74 249.429ZM216.67 255.097L213.662 251.968L214.402 251.073L218.227 255.026L216.67 255.097ZM212.46 251.113L213.682 251.057L216.175 247.92L217.664 247.853L214.328 252.021L212.505 252.103L212.46 251.113ZM212.959 248.066L213.283 255.25L212.013 255.307L211.689 248.123L212.959 248.066ZM218.651 252.886C218.618 252.158 218.881 251.578 219.441 251.147C220.001 250.715 220.727 250.479 221.62 250.439L223.245 250.366L223.223 249.874C223.203 249.442 223.076 249.096 222.841 248.838C222.605 248.574 222.214 248.455 221.668 248.48C221.122 248.505 220.735 248.636 220.509 248.874C220.287 249.108 220.182 249.373 220.196 249.669L220.197 249.703L218.934 249.76L218.932 249.726C218.907 249.157 219.137 248.649 219.623 248.203C220.114 247.752 220.792 247.507 221.657 247.468C222.522 247.429 223.2 247.606 223.692 247.999C224.189 248.391 224.456 248.997 224.493 249.817L224.641 253.095C224.654 253.391 224.69 253.67 224.747 253.932C224.804 254.189 224.878 254.416 224.969 254.613L224.974 254.722L223.745 254.777C223.676 254.667 223.61 254.521 223.547 254.342C223.489 254.162 223.449 253.981 223.427 253.8C223.272 254.103 223.011 254.377 222.643 254.622C222.28 254.866 221.803 255.002 221.211 255.029C220.528 255.06 219.939 254.892 219.443 254.527C218.948 254.161 218.684 253.614 218.651 252.886ZM219.918 252.76C219.936 253.17 220.069 253.486 220.316 253.707C220.564 253.929 220.938 254.028 221.438 254.006C221.939 253.983 222.384 253.79 222.774 253.425C223.163 253.061 223.35 252.685 223.332 252.298L223.286 251.267L221.797 251.334C221.159 251.363 220.682 251.506 220.365 251.762C220.048 252.018 219.899 252.351 219.918 252.76Z" fill="black" fill-opacity="0.4"/>
<g clip-path="url(#clip1_935_1884)">
<path d="M139.69 260.321C143.138 260.165 145.808 257.243 145.652 253.795C145.496 250.347 142.575 247.678 139.126 247.833C135.678 247.989 133.009 250.91 133.165 254.359C133.32 257.807 136.242 260.476 139.69 260.321Z" stroke="black" stroke-opacity="0.6" stroke-width="1.5" stroke-linecap="round" stroke-linejoin="round"/>
</g>
<path d="M82.6231 71.9474L82.5874 71.1572C82.4976 69.167 82.9227 67.6053 83.8628 66.4719C84.8087 65.3382 86.0602 64.7363 87.6172 64.666C89.1742 64.5957 90.4719 65.0827 91.5103 66.1267C92.5545 67.1706 93.1215 68.6876 93.2113 70.6777L93.247 71.4679C93.3368 73.4581 92.9088 75.02 91.9628 76.1537C91.0227 77.287 89.7742 77.8889 88.2172 77.9591C86.6602 78.0294 85.3595 77.5426 84.3153 76.4988C83.277 75.4547 82.7129 73.9376 82.6231 71.9474ZM84.2649 71.8733C84.3344 73.4128 84.7221 74.5947 85.4279 75.4192C86.1394 76.2376 87.0483 76.6218 88.1546 76.5719C89.2608 76.5219 90.1314 76.0574 90.7663 75.1783C91.4008 74.2933 91.6834 73.0811 91.6139 71.5416L91.5782 70.7514C91.5088 69.212 91.1183 68.0331 90.4069 67.2147C89.6951 66.3905 88.7861 66.0033 87.6798 66.0533C86.5735 66.1032 85.7031 66.5707 85.0685 67.4556C84.4396 68.3345 84.1598 69.5436 84.2293 71.0831L84.2649 71.8733ZM94.4258 69.5144L94.3699 68.2764L101.693 67.9459L101.748 69.1839L98.8773 69.3135L99.2335 77.2068L97.6619 77.2777L97.3056 69.3844L94.4258 69.5144ZM104.717 70.2377C104.751 70.9986 104.921 71.5217 105.228 71.8071C105.533 72.0865 106.041 72.2103 106.749 72.1783C107.276 72.1545 107.745 72.0952 108.157 72.0004C108.575 71.9052 109.03 71.785 109.522 71.6396L109.578 72.8776C109.097 73.0108 108.645 73.1309 108.222 73.238C107.798 73.3392 107.229 73.4059 106.515 73.4382C105.391 73.4889 104.56 73.2537 104.02 72.7326C103.486 72.2112 103.195 71.4032 103.145 70.3086L103.036 67.8853L104.608 67.8143L104.717 70.2377ZM110.121 67.5655L110.534 76.6968L108.962 76.7678L108.55 67.6364L110.121 67.5655ZM113.36 65.0615C113.349 64.8039 113.418 64.5838 113.568 64.401C113.718 64.2183 113.946 64.1201 114.25 64.1063C114.554 64.0926 114.789 64.17 114.955 64.3384C115.121 64.5069 115.21 64.7199 115.222 64.9775C115.233 65.2233 115.163 65.4376 115.013 65.6203C114.863 65.8031 114.636 65.9013 114.332 65.915C114.027 65.9288 113.792 65.8514 113.626 65.6829C113.46 65.5145 113.372 65.3073 113.36 65.0615ZM117.039 64.8954C117.028 64.6379 117.097 64.4177 117.247 64.235C117.397 64.0523 117.624 63.954 117.929 63.9403C118.233 63.9266 118.468 64.0039 118.634 64.1724C118.806 64.3406 118.898 64.5535 118.909 64.811C118.921 65.0569 118.848 65.2713 118.692 65.4543C118.542 65.637 118.315 65.7353 118.01 65.749C117.706 65.7627 117.471 65.6854 117.305 65.5169C117.139 65.3484 117.05 65.1413 117.039 64.8954ZM112.336 72.1813L112.323 71.9003C112.261 70.5248 112.585 69.384 113.295 68.4781C114.01 67.5718 114.986 67.0908 116.221 67.0351C117.462 66.9791 118.431 67.343 119.13 68.1267C119.834 68.9103 120.217 69.9986 120.28 71.3917L120.309 72.0326L113.302 72.3488L113.245 71.0845L118.68 70.8392L118.671 70.6461C118.641 69.9788 118.425 69.4166 118.023 68.9597C117.627 68.5025 117.069 68.2901 116.349 68.3226C115.489 68.3614 114.86 68.7183 114.462 69.3931C114.064 70.0622 113.887 70.8737 113.93 71.8278L113.942 72.1088C113.986 73.0629 114.247 73.8576 114.727 74.4928C115.208 75.1222 115.916 75.4158 116.852 75.3735C117.432 75.3473 117.924 75.199 118.328 74.9286C118.738 74.652 119.066 74.3322 119.314 73.9691L120.361 74.7401C120.099 75.1859 119.675 75.6097 119.089 76.0116C118.503 76.4075 117.777 76.6251 116.911 76.6642C115.506 76.7276 114.406 76.3432 113.612 75.5109C112.823 74.6726 112.398 73.5627 112.336 72.1813ZM121.082 68.3114L121.026 67.0734L128.349 66.7429L128.405 67.9809L125.534 68.1105L125.89 76.0038L124.318 76.0747L123.962 68.1814L121.082 68.3114ZM134.17 66.4802L141.344 66.1564L141.756 75.2878L140.184 75.3587L139.828 67.4654L135.798 67.6472L136.154 75.5406L134.582 75.6115L134.17 66.4802ZM143.558 70.7722L143.545 70.4913C143.483 69.1157 143.822 67.9743 144.561 67.067C145.3 66.1597 146.322 65.6766 147.627 65.6177C148.927 65.5591 149.986 65.9482 150.803 66.7853C151.621 67.6223 152.061 68.7286 152.123 70.1041L152.136 70.3851C152.198 71.7607 151.86 72.9021 151.12 73.8094C150.381 74.7167 149.362 75.1996 148.062 75.2583C146.757 75.3172 145.696 74.9281 144.878 74.0911C144.06 73.2541 143.62 72.1478 143.558 70.7722ZM145.152 70.4188L145.165 70.6997C145.208 71.6538 145.469 72.4485 145.95 73.0837C146.43 73.7131 147.112 74.0079 147.995 73.968C148.885 73.9278 149.541 73.5727 149.962 72.9027C150.383 72.2267 150.572 71.4117 150.529 70.4576L150.517 70.1766C150.473 69.2225 150.212 68.4308 149.732 67.8014C149.252 67.1662 148.567 66.8686 147.677 66.9088C146.793 66.9487 146.141 67.3066 145.719 67.9825C145.298 68.6526 145.109 69.4646 145.152 70.4188ZM161.97 74.6306C160.647 74.6903 159.655 74.4096 158.994 73.7884C158.338 73.1669 157.992 72.4435 157.954 71.6182L157.952 71.5655L159.471 71.4969L159.473 71.5496C159.495 72.0413 159.691 72.4724 160.06 72.8429C160.434 73.2131 161.054 73.3786 161.921 73.3395C162.635 73.3073 163.184 73.1388 163.57 72.834C163.954 72.5234 164.135 72.1105 164.112 71.5954C164.093 71.1857 163.938 70.8642 163.646 70.6311C163.36 70.3976 162.915 70.2945 162.312 70.3217L160.723 70.3935L160.668 69.1642L162.002 69.104C162.605 69.0768 163.033 68.9373 163.286 68.6854C163.544 68.4274 163.663 68.0906 163.645 67.675C163.623 67.2009 163.44 66.8426 163.095 66.6001C162.755 66.3573 162.29 66.2493 161.699 66.276C160.95 66.3098 160.39 66.5139 160.02 66.8884C159.655 67.2568 159.485 67.7161 159.51 68.2663L159.512 68.319L157.993 68.3875L157.991 68.3349C157.948 67.3749 158.244 66.5903 158.879 65.9809C159.514 65.3716 160.435 65.0397 161.64 64.9853C162.776 64.934 163.647 65.1352 164.254 65.5888C164.867 66.0362 165.192 66.6667 165.228 67.4804C165.25 67.9545 165.111 68.3889 164.812 68.7837C164.519 69.1781 164.111 69.4399 163.589 69.5691L163.591 69.5954C164.221 69.6608 164.723 69.861 165.096 70.1961C165.469 70.5312 165.668 70.9768 165.693 71.5329C165.735 72.4753 165.402 73.2147 164.693 73.7511C163.984 74.2875 163.077 74.5807 161.97 74.6306ZM167.404 71.4468C167.363 70.522 167.696 69.7855 168.405 69.2374C169.113 68.6893 170.035 68.3896 171.17 68.3383L173.243 68.2448L173.213 67.5951C173.188 67.039 173.025 66.5977 172.722 66.2711C172.42 65.9387 171.921 65.7882 171.224 65.8197C170.527 65.8511 170.031 66.0172 169.733 66.3181C169.442 66.6128 169.305 66.9562 169.322 67.3484L169.325 67.4011L167.762 67.4716L167.759 67.4101C167.726 66.6843 168.017 66.0407 168.631 65.4792C169.25 64.9116 170.107 64.6032 171.202 64.5538C172.297 64.5044 173.154 64.7267 173.775 65.2207C174.401 65.7144 174.738 66.4822 174.785 67.5242L174.972 71.6772C174.99 72.0576 175.035 72.4163 175.109 72.7531C175.182 73.0842 175.278 73.3761 175.395 73.6288L175.401 73.7693L173.882 73.8379C173.794 73.6952 173.709 73.5084 173.628 73.2775C173.553 73.0462 173.502 72.814 173.473 72.5806C173.28 72.9706 172.95 73.3228 172.483 73.6371C172.016 73.9456 171.405 74.1168 170.65 74.1509C169.778 74.1903 169.029 73.9806 168.404 73.522C167.779 73.0575 167.446 72.3658 167.404 71.4468ZM168.972 71.2881C168.996 71.8149 169.167 72.2207 169.485 72.5055C169.808 72.7842 170.289 72.9091 170.927 72.8803C171.565 72.8515 172.134 72.6059 172.636 72.1433C173.136 71.675 173.375 71.1891 173.353 70.6857L173.293 69.3687L171.397 69.4543C170.571 69.4915 169.955 69.6748 169.548 70.004C169.14 70.3333 168.948 70.7613 168.972 71.2881ZM184.578 75.7219L184.471 73.36L177.807 73.6608L177.913 76.0226L176.491 76.0868L176.329 72.487L185.837 72.0578L186 75.6577L184.578 75.7219ZM179.242 65.6866L179.242 69.197C179.246 70.0707 179.218 70.7494 179.158 71.2331C179.097 71.7168 179 72.1465 178.864 72.5221L177.222 72.5962C177.392 72.3246 177.529 71.9283 177.635 71.4074C177.74 70.8865 177.793 70.0982 177.792 69.0425L177.79 64.5116L184.138 64.2251L184.55 73.3564L182.978 73.4274L182.622 65.534L179.242 65.6866ZM186.721 70.5751C186.679 69.6502 187.012 68.9138 187.721 68.3656C188.429 67.8175 189.351 67.5178 190.487 67.4666L192.559 67.3731L192.53 66.7233C192.504 66.1673 192.341 65.7259 192.039 65.3994C191.736 65.067 191.237 64.9165 190.54 64.9479C189.844 64.9794 189.347 65.1455 189.049 65.4463C188.758 65.741 188.621 66.0845 188.638 66.4766L188.641 66.5293L187.078 66.5998L187.075 66.5384C187.042 65.8126 187.333 65.1689 187.947 64.6075C188.567 64.0399 189.424 63.7314 190.518 63.682C191.613 63.6326 192.47 63.8549 193.091 64.3489C193.717 64.8427 194.054 65.6105 194.101 66.6524L194.289 70.8054C194.306 71.1859 194.351 71.5445 194.425 71.8814C194.499 72.2124 194.594 72.5043 194.711 72.7571L194.717 72.8976L193.198 72.9661C193.11 72.8235 193.025 72.6367 192.944 72.4057C192.869 72.1745 192.818 71.9422 192.79 71.7089C192.596 72.0988 192.266 72.451 191.799 72.7653C191.332 73.0738 190.721 73.2451 189.966 73.2792C189.094 73.3185 188.345 73.1089 187.721 72.6503C187.095 72.1858 186.762 71.4941 186.721 70.5751ZM188.288 70.4163C188.312 70.9432 188.483 71.3489 188.801 71.6337C189.124 71.9124 189.605 72.0373 190.243 72.0086C190.881 71.9798 191.451 71.7341 191.952 71.2716C192.453 70.8032 192.692 70.3173 192.669 69.8139L192.61 68.4969L190.713 68.5825C189.888 68.6198 189.271 68.803 188.864 69.1323C188.456 69.4615 188.265 69.8895 188.288 70.4163ZM197.962 66.0295C197.996 66.7904 198.166 67.3135 198.473 67.5989C198.778 67.8783 199.285 68.0021 199.994 67.9701C200.521 67.9463 200.99 67.887 201.402 67.7922C201.82 67.6971 202.275 67.5768 202.767 67.4314L202.823 68.6694C202.342 68.8026 201.89 68.9227 201.467 69.0298C201.043 69.131 200.474 69.1977 199.76 69.23C198.636 69.2807 197.805 69.0455 197.265 68.5244C196.731 68.003 196.44 67.195 196.39 66.1004L196.281 63.6771L197.852 63.6062L197.962 66.0295ZM203.366 63.3573L203.778 72.4886L202.207 72.5596L201.795 63.4282L203.366 63.3573ZM205.581 67.9731L205.568 67.6922C205.506 66.3166 205.83 65.1758 206.54 64.2699C207.255 63.3636 208.231 62.8826 209.466 62.8269C210.707 62.7709 211.676 63.1348 212.374 63.9186C213.078 64.7021 213.462 65.7904 213.525 67.1835L213.554 67.8244L206.547 68.1406L206.49 66.8763L211.925 66.631L211.916 66.4379C211.886 65.7706 211.67 65.2085 211.268 64.7515C210.872 64.2943 210.314 64.0819 209.594 64.1144C208.734 64.1532 208.105 64.5101 207.707 65.185C207.309 65.854 207.132 66.6655 207.175 67.6196L207.187 67.9006C207.23 68.8547 207.492 69.6494 207.972 70.2846C208.452 70.914 209.161 71.2076 210.097 71.1653C210.677 71.1392 211.169 70.9909 211.573 70.7204C211.983 70.4438 212.311 70.124 212.559 69.7609L213.606 70.5319C213.344 70.9777 212.92 71.4016 212.334 71.8034C211.748 72.1994 211.022 72.4169 210.156 72.456C208.751 72.5194 207.651 72.135 206.857 71.3027C206.068 70.4644 205.643 69.3545 205.581 67.9731Z" fill="black"/>
<path opacity="0.3" d="M83.5068 93.6043L83.4744 92.8863C83.3952 91.1329 83.7786 89.7496 84.6244 88.7365C85.4699 87.7182 86.5639 87.1787 87.9063 87.1182C89.2487 87.0576 90.3164 87.3796 91.1094 88.0841C91.9024 88.7886 92.3224 89.6638 92.3696 90.7096L92.3735 90.7955L90.9063 90.8617L90.9024 90.7759C90.8693 90.0422 90.6079 89.4492 90.1183 88.9969C89.6284 88.5394 88.91 88.3319 87.963 88.3747C87.0317 88.4167 86.2802 88.8052 85.7086 89.54C85.1422 90.2746 84.8917 91.3678 84.9572 92.8194L84.9896 93.5374C85.0502 94.8798 85.3969 95.9199 86.0298 96.6578C86.6624 97.3904 87.447 97.7356 88.3836 97.6933C89.2785 97.6529 89.944 97.3805 90.38 96.8759C90.816 96.3714 91.0517 95.7586 91.0869 95.0375L91.0908 94.9513L92.5581 94.8851L92.5542 94.9713C92.5023 96.0163 92.1393 96.9269 91.4653 97.7028C90.791 98.4736 89.7827 98.8893 88.4403 98.9499C87.0927 99.0107 85.9521 98.5747 85.0185 97.6419C84.0898 96.7036 83.5859 95.3578 83.5068 93.6043ZM93.8548 94.5059L93.8435 94.2562C93.7879 93.023 94.0912 92.0031 94.7534 91.1964C95.4154 90.3845 96.3291 89.9522 97.4946 89.8996C98.6601 89.847 99.609 90.1952 100.341 90.9442C101.074 91.688 101.468 92.6765 101.523 93.9096L101.534 94.1593C101.59 95.3924 101.287 96.415 100.625 97.2269C99.963 98.0388 99.0493 98.4711 97.8838 98.5237C96.7183 98.5763 95.7694 98.2281 95.0369 97.4791C94.3045 96.7301 93.9105 95.739 93.8548 94.5059ZM95.2952 94.1907L95.3065 94.4404C95.3447 95.2885 95.5773 95.9949 96.0043 96.5595C96.4312 97.1242 97.0401 97.3887 97.831 97.353C98.6218 97.3173 99.2018 96.9992 99.5709 96.3986C99.9453 95.7977 100.113 95.0733 100.075 94.2252L100.064 93.9754C100.025 93.1274 99.7929 92.421 99.366 91.8563C98.9442 91.2914 98.3379 91.0268 97.5471 91.0625C96.7562 91.0982 96.1736 91.4165 95.7993 92.0173C95.4249 92.6181 95.2569 93.3426 95.2952 94.1907ZM106.523 98.1338C105.337 98.1873 104.447 97.9355 103.854 97.3783C103.265 96.8158 102.955 96.1677 102.921 95.434L102.92 95.395L104.301 95.3327L104.303 95.3717C104.322 95.8035 104.496 96.1867 104.824 96.5212C105.152 96.8505 105.703 96.9977 106.478 96.9627C107.118 96.9338 107.609 96.7813 107.951 96.5052C108.294 96.2291 108.454 95.8647 108.434 95.412C108.417 95.0478 108.282 94.762 108.028 94.5545C107.773 94.347 107.378 94.2553 106.842 94.2795L105.414 94.344L105.364 93.2357L106.558 93.1818C107.099 93.1574 107.482 93.0333 107.706 92.8094C107.931 92.5803 108.035 92.281 108.018 91.9116C107.999 91.4902 107.836 91.1717 107.529 90.9561C107.227 90.7403 106.811 90.6444 106.28 90.6684C105.614 90.6984 105.117 90.8799 104.788 91.2128C104.464 91.5402 104.313 91.9485 104.335 92.4376L104.337 92.4844L102.955 92.5468L102.953 92.4999C102.914 91.6362 103.18 90.9334 103.75 90.3916C104.325 89.8495 105.151 89.5541 106.228 89.5055C107.258 89.459 108.043 89.6373 108.583 90.0405C109.127 90.4434 109.416 91.0091 109.449 91.7375C109.468 92.1538 109.344 92.5399 109.079 92.896C108.818 93.2467 108.454 93.4821 107.985 93.6023L107.986 93.6257C108.551 93.6836 109 93.8615 109.331 94.1594C109.668 94.457 109.848 94.8555 109.87 95.355C109.908 96.1979 109.607 96.8606 108.967 97.3431C108.332 97.8254 107.517 98.0889 106.523 98.1338ZM118.236 99.4742L118.142 97.3748L112.195 97.6432L112.289 99.7426L111.002 99.8007L110.856 96.5853L119.379 96.2006L119.524 99.4161L118.236 99.4742ZM113.469 90.5238L113.476 93.636C113.48 94.4231 113.456 95.0342 113.402 95.4693C113.349 95.9045 113.262 96.289 113.142 96.6229L111.643 96.6905C111.799 96.4541 111.924 96.1017 112.018 95.6335C112.117 95.165 112.165 94.4486 112.163 93.4841L112.154 89.4648L117.859 89.2074L118.228 97.3709L116.799 97.4354L116.481 90.3879L113.469 90.5238ZM120.172 94.8745C120.135 94.0524 120.431 93.3952 121.06 92.9027C121.695 92.4101 122.52 92.1409 123.534 92.0951L125.392 92.0112L125.366 91.4415C125.344 90.9472 125.198 90.5523 124.929 90.2569C124.66 89.9614 124.214 89.8277 123.589 89.8559C122.965 89.8841 122.524 90.0344 122.265 90.3067C122.011 90.5737 121.892 90.8762 121.907 91.2144L121.909 91.2612L120.488 91.3253L120.486 91.2785C120.457 90.6333 120.718 90.0585 121.269 89.554C121.824 89.044 122.594 88.7669 123.577 88.7225C124.556 88.6784 125.323 88.8783 125.88 89.3224C126.442 89.7611 126.744 90.4461 126.786 91.3774L126.954 95.1002C126.97 95.4384 127.01 95.7572 127.076 96.0566C127.141 96.3508 127.226 96.6103 127.33 96.835L127.335 96.9599L125.962 97.0219C125.883 96.8951 125.808 96.729 125.736 96.5237C125.669 96.3182 125.624 96.1117 125.599 95.9043C125.421 96.2512 125.123 96.5645 124.703 96.8441C124.288 97.1235 123.745 97.2784 123.073 97.3086C122.293 97.3439 121.622 97.1552 121.061 96.7425C120.506 96.3245 120.209 95.7018 120.172 94.8745ZM121.589 94.7401C121.61 95.2084 121.762 95.5691 122.044 95.8223C122.327 96.0702 122.754 96.1813 123.326 96.1554C123.899 96.1296 124.407 95.9085 124.853 95.4922C125.298 95.0759 125.511 94.6466 125.491 94.2043L125.438 93.0336L123.736 93.1104C123.008 93.1433 122.463 93.3061 122.1 93.5987C121.738 93.8914 121.568 94.2719 121.589 94.7401ZM128.918 88.7083L130.339 88.6442L130.494 92.0782L134.162 91.9126L134.007 88.4786L135.427 88.4145L135.796 96.5781L134.375 96.6422L134.212 93.0287L130.544 93.1942L130.707 96.8077L129.287 96.8718L128.918 88.7083ZM144.974 96.1639L144.533 86.4082L141.723 87.7393L141.659 86.3111L145.679 84.589L145.929 84.5778L146.449 96.0973L144.974 96.1639ZM154.745 95.7229L154.377 87.5593L156.32 87.4716L158.948 93.015C159.086 93.306 159.176 93.5105 159.218 93.6285C159.259 93.7465 159.296 93.8674 159.328 93.9911L159.406 93.9875C159.426 93.8615 159.452 93.7378 159.483 93.6165C159.514 93.4952 159.583 93.2887 159.69 92.9972L161.83 87.2229L163.734 87.137L164.103 95.3006L162.745 95.3618L162.494 89.7972C162.48 89.4954 162.473 89.2768 162.472 89.1413C162.476 89.0055 162.481 88.8828 162.486 88.773L162.416 88.7762C162.395 88.8867 162.369 89.0103 162.339 89.1473C162.309 89.279 162.237 89.4933 162.126 89.7903L160.013 95.4851L158.788 95.5404L156.162 90.036C156.041 89.7808 155.956 89.5839 155.908 89.4453C155.861 89.3067 155.821 89.1833 155.79 89.0753L155.72 89.0784C155.735 89.1872 155.749 89.3091 155.76 89.4442C155.776 89.5738 155.79 89.7739 155.803 90.0444L156.056 95.6637L154.745 95.7229ZM166.405 95.1967L166.037 87.0331L167.434 86.97L167.663 92.043C167.67 92.1991 167.675 92.3735 167.678 92.5663C167.687 92.7536 167.692 92.928 167.694 93.0895L167.772 93.086C167.839 92.9474 167.913 92.8007 167.995 92.6458C168.076 92.4909 168.166 92.3305 168.262 92.1645L171.273 86.7967L172.702 86.7323L173.07 94.8959L171.665 94.9593L171.437 89.9019C171.43 89.7406 171.424 89.5584 171.42 89.3552C171.421 89.1518 171.424 88.9693 171.427 88.8075L171.31 88.8128C171.253 88.9509 171.185 89.1052 171.104 89.2757C171.023 89.441 170.936 89.6065 170.845 89.7722L167.833 95.1322L166.405 95.1967ZM174.996 86.6287L176.417 86.5646L176.572 89.9986L180.24 89.8331L180.085 86.3991L181.505 86.335L181.874 94.4986L180.453 94.5627L180.29 90.9491L176.622 91.1147L176.785 94.7282L175.365 94.7923L174.996 86.6287ZM187.655 86.0574L189.076 85.9933L189.231 89.4273L192.899 89.2618L192.744 85.8278L194.164 85.7637L194.533 93.9272L193.112 93.9913L192.949 90.3778L189.281 90.5434L189.444 94.1569L188.024 94.221L187.655 86.0574ZM196.266 91.4403C196.229 90.6182 196.525 89.961 197.155 89.4686C197.789 88.9759 198.614 88.7067 199.629 88.6609L201.486 88.5771L201.46 88.0073C201.438 87.513 201.292 87.1182 201.024 86.8227C200.755 86.5272 200.308 86.3936 199.684 86.4217C199.06 86.4499 198.618 86.6002 198.359 86.8726C198.105 87.1395 197.986 87.442 198.001 87.7802L198.003 87.8271L196.583 87.8912L196.581 87.8443C196.552 87.1992 196.812 86.6243 197.363 86.1198C197.919 85.6099 198.688 85.3327 199.672 85.2883C200.65 85.2442 201.418 85.4442 201.975 85.8882C202.537 86.3269 202.839 87.0119 202.881 87.9432L203.049 91.666C203.064 92.0042 203.104 92.323 203.17 92.6224C203.236 92.9167 203.32 93.1761 203.424 93.4008L203.43 93.5257L202.056 93.5877C201.978 93.4609 201.902 93.2949 201.83 93.0896C201.764 92.884 201.718 92.6775 201.693 92.4701C201.516 92.817 201.217 93.1303 200.797 93.4099C200.382 93.6893 199.839 93.8442 199.168 93.8745C198.387 93.9097 197.717 93.721 197.156 93.3083C196.6 92.8903 196.303 92.2676 196.266 91.4403ZM197.683 91.306C197.704 91.7742 197.856 92.135 198.139 92.3881C198.421 92.636 198.848 92.7471 199.421 92.7213C199.993 92.6954 200.502 92.4744 200.947 92.058C201.392 91.6417 201.605 91.2124 201.585 90.7701L201.532 89.5995L199.831 89.6762C199.102 89.7091 198.557 89.8719 198.195 90.1646C197.833 90.4572 197.662 90.8377 197.683 91.306ZM208.388 93.5365C207.202 93.5901 206.312 93.3383 205.719 92.7811C205.13 92.2185 204.82 91.5704 204.787 90.8368L204.785 90.7978L206.166 90.7354L206.168 90.7745C206.187 91.2063 206.361 91.5895 206.689 91.924C207.017 92.2533 207.568 92.4005 208.343 92.3655C208.983 92.3366 209.474 92.1841 209.817 91.908C210.159 91.6319 210.319 91.2675 210.299 90.8148C210.283 90.4506 210.147 90.1648 209.893 89.9573C209.638 89.7498 209.243 89.6581 208.707 89.6823L207.279 89.7468L207.229 88.6385L208.423 88.5846C208.964 88.5602 209.347 88.4361 209.572 88.2122C209.796 87.9831 209.9 87.6838 209.883 87.3144C209.864 86.893 209.701 86.5745 209.394 86.3589C209.092 86.1431 208.676 86.0472 208.145 86.0712C207.479 86.1012 206.982 86.2827 206.653 86.6156C206.329 86.943 206.178 87.3513 206.2 87.8404L206.202 87.8872L204.82 87.9495L204.818 87.9027C204.779 87.039 205.045 86.3362 205.615 85.7943C206.19 85.2522 207.016 84.9569 208.093 84.9083C209.123 84.8618 209.908 85.0401 210.448 85.4433C210.992 85.8462 211.281 86.4119 211.314 87.1403C211.333 87.5566 211.209 87.9427 210.944 88.2988C210.684 88.6495 210.319 88.8849 209.85 89.0051L209.851 89.0285C210.416 89.0864 210.865 89.2643 211.197 89.5621C211.533 89.8598 211.713 90.2583 211.735 90.7578C211.773 91.6007 211.472 92.2634 210.832 92.7459C210.197 93.2281 209.382 93.4917 208.388 93.5365ZM213.28 90.6725C213.243 89.8504 213.539 89.1931 214.169 88.7007C214.803 88.2081 215.628 87.9388 216.642 87.893L218.5 87.8092L218.474 87.2395C218.452 86.7452 218.306 86.3503 218.038 86.0548C217.769 85.7594 217.322 85.6257 216.698 85.6539C216.073 85.6821 215.632 85.8323 215.373 86.1047C215.119 86.3716 215 86.6742 215.015 87.0124L215.017 87.0592L213.597 87.1233L213.595 87.0765C213.566 86.4313 213.826 85.8565 214.377 85.352C214.933 84.842 215.702 84.5649 216.686 84.5205C217.664 84.4763 218.432 84.6763 218.989 85.1204C219.551 85.559 219.853 86.244 219.895 87.1754L220.063 90.8982C220.078 91.2364 220.118 91.5552 220.184 91.8546C220.249 92.1488 220.334 92.4083 220.438 92.633L220.444 92.7579L219.07 92.8199C218.991 92.6931 218.916 92.527 218.844 92.3217C218.778 92.1162 218.732 91.9097 218.707 91.7023C218.53 92.0492 218.231 92.3624 217.811 92.6421C217.396 92.9215 216.853 93.0763 216.182 93.1066C215.401 93.1418 214.731 92.9531 214.17 92.5405C213.614 92.1224 213.317 91.4998 213.28 90.6725ZM214.697 90.5381C214.718 91.0064 214.87 91.3671 215.153 91.6203C215.435 91.8682 215.862 91.9792 216.435 91.9534C217.007 91.9276 217.516 91.7065 217.961 91.2902C218.406 90.8739 218.619 90.4446 218.599 90.0023L218.546 88.8316L216.845 88.9084C216.116 88.9413 215.571 89.104 215.209 89.3967C214.847 89.6894 214.676 90.0699 214.697 90.5381ZM228.655 94.491L228.561 92.3916L222.613 92.6599L222.708 94.7594L221.42 94.8175L221.275 91.602L229.798 91.2174L229.943 94.4329L228.655 94.491ZM223.888 85.5406L223.895 88.6528C223.899 89.4398 223.875 90.0509 223.821 90.4861C223.768 90.9212 223.681 91.3057 223.561 91.6396L222.062 91.7073C222.218 91.4708 222.343 91.1185 222.437 90.6502C222.535 90.1818 222.584 89.4653 222.582 88.5009L222.573 84.4816L228.278 84.2241L228.646 92.3877L227.218 92.4521L226.9 85.4046L223.888 85.5406Z" fill="black"/>
<rect x="84.8488" y="120.901" width="208" height="29" rx="14.5" transform="rotate(-2.58403 84.8488 120.901)" stroke="#F4F4F4" stroke-width="2"/>
<g clip-path="url(#clip2_935_1884)">
<path d="M100.27 140.975C103.718 140.82 106.388 137.898 106.232 134.45C106.076 131.002 103.155 128.332 99.7065 128.488C96.2583 128.644 93.589 131.565 93.7447 135.013C93.9003 138.462 96.8218 141.131 100.27 140.975Z" stroke="black" stroke-opacity="0.4" stroke-width="1.5" stroke-linecap="round" stroke-linejoin="round"/>
<path d="M98.1149 134.819L99.42 136.012L101.805 133.401" stroke="black" stroke-opacity="0.4" stroke-width="1.5" stroke-linecap="round" stroke-linejoin="round"/>
</g>
<path d="M116.128 136.409L116.125 136.341L117.395 136.283L117.398 136.352C117.423 136.898 117.624 137.313 118.002 137.597C118.38 137.881 118.869 138.01 119.47 137.983C120.071 137.956 120.544 137.784 120.891 137.467C121.237 137.15 121.395 136.673 121.367 136.036C121.338 135.398 121.114 134.927 120.694 134.622C120.274 134.317 119.723 134.18 119.04 134.211L118.254 134.247L118.207 133.195L118.924 133.163C119.552 133.134 120.03 132.96 120.358 132.639C120.686 132.319 120.837 131.886 120.812 131.339C120.788 130.793 120.621 130.392 120.313 130.137C120.005 129.882 119.601 129.765 119.1 129.788C118.572 129.812 118.159 129.965 117.862 130.248C117.564 130.53 117.427 130.922 117.45 131.423L117.453 131.491L116.182 131.548L116.179 131.48C116.146 130.751 116.394 130.118 116.922 129.578C117.449 129.039 118.159 128.749 119.051 128.709C119.916 128.67 120.636 128.884 121.209 129.351C121.782 129.817 122.086 130.438 122.121 131.212C122.141 131.667 122.036 132.11 121.804 132.54C121.573 132.97 121.198 133.311 120.68 133.562L120.681 133.59C121.262 133.709 121.734 133.978 122.1 134.395C122.466 134.812 122.663 135.336 122.691 135.969C122.732 136.884 122.453 137.618 121.853 138.169C121.253 138.721 120.475 139.019 119.519 139.062C118.508 139.107 117.699 138.881 117.093 138.384C116.487 137.887 116.165 137.229 116.128 136.409ZM128.018 138.473L127.694 131.289L128.944 131.232L129.144 135.664C129.15 135.801 129.155 135.956 129.158 136.129C129.166 136.297 129.17 136.45 129.172 136.587L129.24 136.584C129.299 136.467 129.364 136.341 129.435 136.205C129.511 136.065 129.589 135.922 129.669 135.777L132.311 131.08L133.581 131.023L133.905 138.207L132.655 138.264L132.456 133.838C132.449 133.702 132.444 133.542 132.441 133.36C132.442 133.177 132.444 133.018 132.447 132.881L132.344 132.885C132.295 133.002 132.232 133.134 132.157 133.284C132.086 133.433 132.011 133.58 131.93 133.725L129.289 138.415L128.018 138.473ZM138.592 138.201C137.54 138.248 136.755 138.026 136.235 137.534C135.72 137.037 135.448 136.47 135.42 135.833L135.418 135.799L136.647 135.743L136.649 135.777C136.665 136.146 136.815 136.477 137.097 136.77C137.38 137.063 137.865 137.194 138.552 137.163C139.117 137.137 139.549 137.004 139.848 136.762C140.147 136.52 140.288 136.201 140.27 135.805C140.256 135.487 140.137 135.237 139.914 135.055C139.692 134.873 139.348 134.793 138.884 134.814L137.621 134.871L137.576 133.888L138.635 133.84C139.104 133.819 139.436 133.71 139.633 133.514C139.829 133.314 139.92 133.052 139.905 132.729C139.889 132.36 139.746 132.081 139.478 131.893C139.214 131.704 138.849 131.62 138.385 131.641C137.793 131.668 137.353 131.827 137.065 132.118C136.782 132.405 136.65 132.762 136.669 133.19L136.67 133.224L135.441 133.279L135.44 133.245C135.405 132.485 135.64 131.865 136.143 131.386C136.65 130.907 137.382 130.646 138.338 130.603C139.249 130.562 139.942 130.72 140.419 131.077C140.901 131.434 141.156 131.931 141.185 132.569C141.201 132.937 141.093 133.277 140.861 133.589C140.629 133.901 140.307 134.109 139.897 134.214L139.898 134.235C140.393 134.285 140.786 134.443 141.076 134.708C141.37 134.969 141.527 135.315 141.547 135.748C141.581 136.494 141.315 137.081 140.751 137.508C140.19 137.93 139.471 138.161 138.592 138.201ZM150.759 137.446L150.636 134.729L150.62 134.373L150.405 129.6L150.323 129.604L147.498 134.172L150.953 134.016L151.479 133.993L153.227 133.914L153.276 134.993L146.051 135.319L146.012 134.458L150.365 127.501L151.539 127.448L151.988 137.391L150.759 137.446Z" fill="black" fill-opacity="0.4"/>
<g clip-path="url(#clip3_935_1884)">
<rect x="166.307" y="129.237" width="79" height="5" rx="2.5" transform="rotate(-2.58403 166.307 129.237)" fill="#E7E7E7"/>
<rect x="166.307" y="129.237" width="54" height="5" rx="2.5" transform="rotate(-2.58403 166.307 129.237)" fill="#1EAB67"/>
</g>
<path d="M259.56 132.536L262.972 123.521L257.686 123.759L257.636 122.66L264.288 122.359L264.32 123.07L260.899 132.476L259.56 132.536ZM266.017 129.747L266.014 129.679L267.271 129.622L267.274 129.69C267.296 130.191 267.492 130.579 267.86 130.854C268.228 131.125 268.708 131.247 269.3 131.221C269.892 131.194 270.367 130.972 270.727 130.554C271.087 130.132 271.25 129.556 271.217 128.828C271.184 128.1 270.97 127.553 270.575 127.187C270.18 126.822 269.687 126.653 269.095 126.679C268.685 126.698 268.327 126.789 268.019 126.954C267.712 127.114 267.427 127.336 267.167 127.622L266.246 127.239L266.528 122.258L271.69 122.025L271.743 123.186L267.645 123.371L267.471 126.185C267.693 126.038 267.954 125.905 268.254 125.787C268.554 125.668 268.886 125.601 269.251 125.584C270.116 125.545 270.864 125.806 271.496 126.366C272.128 126.921 272.468 127.722 272.515 128.769C272.562 129.817 272.285 130.657 271.684 131.291C271.083 131.92 270.305 132.256 269.348 132.3C268.329 132.346 267.527 132.126 266.944 131.642C266.361 131.153 266.052 130.521 266.017 129.747ZM273.486 124.818L273.454 124.108C273.421 123.38 273.584 122.784 273.941 122.321C274.299 121.857 274.842 121.609 275.571 121.577C276.299 121.544 276.862 121.742 277.26 122.171C277.663 122.6 277.881 123.178 277.913 123.907L277.945 124.617C277.978 125.346 277.814 125.941 277.451 126.405C277.094 126.868 276.55 127.116 275.822 127.149C275.094 127.182 274.53 126.984 274.132 126.555C273.734 126.126 273.519 125.547 273.486 124.818ZM274.606 124.768C274.625 125.178 274.722 125.511 274.898 125.767C275.073 126.024 275.366 126.143 275.776 126.125C276.186 126.106 276.466 125.961 276.618 125.69C276.775 125.418 276.844 125.077 276.825 124.668L276.793 123.957C276.775 123.548 276.676 123.215 276.495 122.958C276.319 122.701 276.027 122.582 275.617 122.601C275.207 122.619 274.926 122.764 274.774 123.036C274.622 123.307 274.556 123.648 274.574 124.058L274.606 124.768ZM282.793 121.791L276.953 132.045L276.073 131.49L281.912 121.236L282.793 121.791ZM280.934 129.272L280.902 128.562C280.869 127.834 281.031 127.238 281.389 126.775C281.747 126.311 282.29 126.063 283.018 126.03C283.747 125.998 284.31 126.196 284.708 126.625C285.11 127.054 285.328 127.632 285.361 128.361L285.393 129.071C285.426 129.799 285.261 130.395 284.899 130.859C284.541 131.322 283.998 131.57 283.27 131.603C282.541 131.636 281.978 131.438 281.58 131.009C281.182 130.579 280.967 130.001 280.934 129.272ZM282.054 129.222C282.072 129.631 282.169 129.965 282.345 130.221C282.521 130.478 282.814 130.597 283.223 130.579C283.633 130.56 283.914 130.415 284.066 130.144C284.223 129.872 284.292 129.531 284.273 129.122L284.241 128.411C284.223 128.002 284.123 127.668 283.943 127.412C283.767 127.155 283.474 127.036 283.064 127.055C282.655 127.073 282.374 127.218 282.222 127.49C282.07 127.761 282.003 128.102 282.022 128.511L282.054 129.222Z" fill="black" fill-opacity="0.4"/>
<rect x="91.7402" y="295.771" width="57" height="23" rx="11.5" transform="rotate(-2.58403 91.7402 295.771)" fill="#F4F4F4"/>
<path d="M98.4998 312.484L102.26 300.849L103.603 300.788L108.396 312.037L106.866 312.106L103.371 303.622C103.3 303.448 103.238 303.284 103.184 303.13C103.13 302.971 103.081 302.804 103.037 302.628L102.959 302.632C102.93 302.81 102.896 302.981 102.857 303.145C102.817 303.303 102.77 303.472 102.715 303.652L99.9671 312.417L98.4998 312.484ZM100.199 309.419L100.59 308.19L105.905 307.95L106.404 309.139L100.199 309.419ZM111.27 304.845L111.27 308.146C111.271 309.538 111.142 310.547 110.883 311.174C110.625 311.801 110.105 312.132 109.325 312.167C109.153 312.175 108.994 312.169 108.847 312.15C108.7 312.135 108.576 312.107 108.475 312.065L108.421 310.863C108.511 310.895 108.604 310.917 108.698 310.928C108.792 310.94 108.897 310.943 109.011 310.938C109.417 310.919 109.676 310.702 109.787 310.285C109.904 309.863 109.961 309.101 109.958 308.001L109.955 303.786L115.582 303.532L115.951 311.696L114.53 311.76L114.212 304.713L111.27 304.845ZM118.269 311.591L117.9 303.428L119.297 303.365L119.526 308.438C119.533 308.594 119.539 308.768 119.542 308.961C119.551 309.148 119.556 309.323 119.558 309.484L119.636 309.481C119.703 309.342 119.777 309.195 119.859 309.041C119.94 308.886 120.029 308.725 120.126 308.559L123.137 303.191L124.565 303.127L124.934 311.291L123.529 311.354L123.301 306.297C123.294 306.135 123.288 305.953 123.284 305.75C123.285 305.547 123.287 305.364 123.291 305.202L123.173 305.208C123.117 305.346 123.048 305.5 122.968 305.67C122.886 305.836 122.8 306.001 122.708 306.167L119.697 311.527L118.269 311.591ZM126.86 303.023L128.28 302.959L128.435 306.393L132.104 306.228L131.949 302.794L133.369 302.73L133.737 310.893L132.317 310.957L132.154 307.344L128.486 307.509L128.649 311.123L127.228 311.187L126.86 303.023ZM135.471 308.406C135.434 307.584 135.73 306.927 136.359 306.435C136.994 305.942 137.819 305.673 138.833 305.627L140.691 305.543L140.665 304.973C140.643 304.479 140.497 304.084 140.228 303.789C139.96 303.493 139.513 303.36 138.889 303.388C138.264 303.416 137.823 303.566 137.564 303.839C137.31 304.106 137.191 304.408 137.206 304.746L137.208 304.793L135.788 304.857L135.786 304.81C135.756 304.165 136.017 303.59 136.568 303.086C137.124 302.576 137.893 302.299 138.877 302.254C139.855 302.21 140.622 302.41 141.179 302.854C141.741 303.293 142.043 303.978 142.085 304.909L142.253 308.632C142.269 308.97 142.309 309.289 142.375 309.588C142.44 309.883 142.525 310.142 142.629 310.367L142.635 310.492L141.261 310.554C141.182 310.427 141.107 310.261 141.035 310.056C140.969 309.85 140.923 309.644 140.898 309.436C140.72 309.783 140.422 310.096 140.002 310.376C139.587 310.655 139.044 310.81 138.373 310.84C137.592 310.876 136.921 310.687 136.361 310.274C135.805 309.856 135.508 309.234 135.471 308.406ZM136.888 308.272C136.909 308.74 137.061 309.101 137.344 309.354C137.626 309.602 138.053 309.713 138.626 309.687C139.198 309.661 139.707 309.44 140.152 309.024C140.597 308.608 140.81 308.178 140.79 307.736L140.737 306.565L139.036 306.642C138.307 306.675 137.762 306.838 137.4 307.131C137.037 307.423 136.867 307.804 136.888 308.272Z" fill="#999999"/>
<rect x="156.674" y="292.841" width="58" height="23" rx="11.5" transform="rotate(-2.58403 156.674 292.841)" fill="#F4F4F4"/>
<path d="M164.745 309.494L164.232 298.13L172.731 297.747L173.244 309.11L171.777 309.176L171.318 299.023L165.761 299.274L166.22 309.427L164.745 309.494ZM175.149 306.616C175.112 305.794 175.408 305.136 176.037 304.644C176.672 304.151 177.497 303.882 178.511 303.836L180.369 303.752L180.343 303.183C180.321 302.688 180.175 302.293 179.906 301.998C179.638 301.703 179.191 301.569 178.567 301.597C177.942 301.625 177.501 301.775 177.242 302.048C176.988 302.315 176.869 302.617 176.884 302.956L176.886 303.002L175.466 303.066L175.464 303.02C175.434 302.374 175.695 301.8 176.246 301.295C176.802 300.785 177.571 300.508 178.555 300.464C179.533 300.419 180.3 300.619 180.857 301.064C181.419 301.502 181.722 302.187 181.764 303.119L181.932 306.841C181.947 307.179 181.987 307.498 182.053 307.798C182.118 308.092 182.203 308.351 182.307 308.576L182.313 308.701L180.939 308.763C180.86 308.636 180.785 308.47 180.713 308.265C180.647 308.059 180.601 307.853 180.576 307.645C180.399 307.992 180.1 308.306 179.68 308.585C179.265 308.865 178.722 309.019 178.051 309.05C177.27 309.085 176.599 308.896 176.039 308.484C175.483 308.066 175.186 307.443 175.149 306.616ZM176.566 306.481C176.587 306.95 176.739 307.31 177.022 307.563C177.304 307.811 177.731 307.922 178.304 307.897C178.876 307.871 179.385 307.65 179.83 307.233C180.275 306.817 180.488 306.388 180.468 305.945L180.415 304.775L178.714 304.852C177.985 304.884 177.44 305.047 177.078 305.34C176.715 305.633 176.545 306.013 176.566 306.481ZM184.264 308.613L183.895 300.449L187.407 300.291C188.308 300.25 189.023 300.4 189.555 300.741C190.091 301.077 190.376 301.609 190.409 302.337C190.43 302.8 190.309 303.192 190.047 303.511C189.786 303.83 189.428 304.05 188.974 304.169L188.976 304.193C189.541 304.251 189.99 304.434 190.322 304.742C190.659 305.045 190.839 305.446 190.861 305.946C190.895 306.69 190.65 307.282 190.128 307.723C189.611 308.163 188.905 308.403 188.01 308.444L184.264 308.613ZM185.472 303.843L187.563 303.748C188.084 303.725 188.454 303.601 188.673 303.378C188.892 303.149 188.993 302.85 188.976 302.48C188.96 302.116 188.833 301.84 188.595 301.653C188.357 301.465 187.978 301.383 187.458 301.407L185.366 301.501L185.472 303.843ZM185.634 307.433L187.96 307.328C188.485 307.304 188.865 307.172 189.099 306.932C189.339 306.692 189.45 306.382 189.433 306.002C189.416 305.633 189.28 305.342 189.026 305.129C188.771 304.916 188.378 304.822 187.848 304.846L185.522 304.951L185.634 307.433ZM192.303 304.285L192.292 304.035C192.236 302.802 192.527 301.783 193.163 300.977C193.804 300.166 194.679 299.736 195.787 299.686C196.895 299.636 197.765 299.962 198.396 300.663C199.027 301.359 199.371 302.329 199.427 303.573L199.453 304.158L193.179 304.441L193.127 303.302L197.966 303.083L197.958 302.904C197.931 302.311 197.739 301.814 197.382 301.413C197.03 301.006 196.534 300.817 195.894 300.846C195.129 300.881 194.57 301.198 194.217 301.798C193.863 302.398 193.706 303.122 193.744 303.97L193.755 304.22C193.793 305.068 194.026 305.774 194.453 306.339C194.88 306.903 195.512 307.167 196.35 307.129C196.87 307.106 197.31 306.974 197.669 306.733C198.034 306.487 198.326 306.203 198.546 305.88L199.499 306.565C199.257 306.967 198.873 307.349 198.347 307.711C197.826 308.069 197.178 308.265 196.403 308.3C195.138 308.357 194.153 308.01 193.447 307.26C192.74 306.51 192.359 305.518 192.303 304.285ZM203.114 300.7L203.114 304.001C203.114 305.393 202.985 306.402 202.727 307.029C202.468 307.656 201.949 307.987 201.168 308.022C200.997 308.03 200.837 308.024 200.691 308.005C200.544 307.99 200.42 307.962 200.319 307.92L200.265 306.718C200.355 306.75 200.447 306.772 200.542 306.783C200.636 306.795 200.74 306.798 200.855 306.793C201.261 306.774 201.519 306.557 201.631 306.14C201.747 305.718 201.804 304.956 201.802 303.856L201.799 299.641L207.426 299.387L207.795 307.551L206.374 307.615L206.056 300.568L203.114 300.7Z" fill="#999999"/>
</g>
<defs>
<filter id="filter0_d_935_1884" x="30.2324" y="0" width="349.471" height="388.651" filterUnits="userSpaceOnUse" color-interpolation-filters="sRGB">
<feFlood flood-opacity="0" result="BackgroundImageFix"/>
<feColorMatrix in="SourceAlpha" type="matrix" values="0 0 0 0 0 0 0 0 0 0 0 0 0 0 0 0 0 0 127 0" result="hardAlpha"/>
<feOffset dx="6" dy="6"/>
<feGaussianBlur stdDeviation="17"/>
<feComposite in2="hardAlpha" operator="out"/>
<feColorMatrix type="matrix" values="0 0 0 0 0 0 0 0 0 0 0 0 0 0 0 0 0 0 0.15 0"/>
<feBlend mode="normal" in2="BackgroundImageFix" result="effect1_dropShadow_935_1884"/>
<feBlend mode="normal" in="SourceGraphic" in2="effect1_dropShadow_935_1884" result="shape"/>
</filter>
<clipPath id="clip0_935_1884">
<rect width="15" height="15" fill="white" transform="translate(130.406 220.951) rotate(-2.58403)"/>
</clipPath>
<clipPath id="clip1_935_1884">
<rect width="15" height="15" fill="white" transform="translate(131.578 246.924) rotate(-2.58403)"/>
</clipPath>
<clipPath id="clip2_935_1884">
<rect width="15" height="15" fill="white" transform="translate(92.1582 127.578) rotate(-2.58403)"/>
</clipPath>
<clipPath id="clip3_935_1884">
<rect x="166.307" y="129.237" width="79" height="5" rx="2.5" transform="rotate(-2.58403 166.307 129.237)" fill="white"/>
</clipPath>
</defs>
</svg>
