<svg width="1377" height="1105" viewBox="0 0 1377 1105" fill="none" xmlns="http://www.w3.org/2000/svg">
<g clip-path="url(#clip0_2013_328)">
<g clip-path="url(#clip1_2013_328)">
<rect x="-1" y="3" width="1376" height="1102" rx="48" fill="url(#paint0_linear_2013_328)"/>
<path opacity="0.2" d="M-378.571 982.03C-378.571 1320.59 -104.125 1595.04 234.422 1595.04L1.38428 2035.86C-16.2889 2069.29 -51.002 2090.2 -88.8164 2090.2H-1053.97C-1110.32 2090.2 -1156 2044.52 -1156 1988.17V1379.6C-1156 1349.35 -1142.58 1320.66 -1119.36 1301.28L-378.571 682.825V982.03ZM1516.1 1225.36C1554.7 1257.67 1577 1305.42 1577 1355.76V1424.98C1577 1518.9 1500.87 1595.04 1406.95 1595.04H234.422L763.053 595.008L1516.1 1225.36ZM245.515 161.802L-378.571 682.825V-214.943C-378.571 -272.683 -311.168 -304.164 -266.892 -267.103L245.515 161.802ZM763.053 595.008L245.515 161.802L1382.93 -787.745C1425.87 -823.589 1486.87 -774.186 1460.73 -724.738L1111.89 -64.865L763.053 595.008Z" fill="url(#paint1_radial_2013_328)" fill-opacity="0.5"/>
<g filter="url(#filter0_f_2013_328)">
<g filter="url(#filter1_f_2013_328)">
<path d="M316.437 -89.5158C432.348 -19.3481 527.505 -64.4392 618.515 -72.9971C693.414 -98.269 962.225 -110.925 1034.33 -111.841C1148.8 -112.707 1075.13 -231.75 1012.46 -379.734C897.156 -566.95 751.103 -677.679 637.656 -657.698C533.852 -650.558 444.781 -487.708 396.575 -382.06C328.901 -269.639 319.549 -184.856 316.437 -89.5158Z" fill="#04BAEC"/>
</g>
<path d="M584.501 -310.318C629.425 -219.409 637.358 -172.071 675.361 -168.9C707.832 -173.578 911.749 -233.041 941.473 -228.183C988.627 -220.237 930.164 -334.895 914.081 -398.599C878.914 -481.802 826.085 -536.653 778.102 -536.883C734.928 -541.548 698.321 -516.765 671.564 -478.018C636.353 -437.974 558.943 -342.039 584.501 -310.318Z" fill="#21FFF4"/>
</g>
</g>
</g>
<defs>
<filter id="filter0_f_2013_328" x="166.186" y="-810.265" width="1078.32" height="909.664" filterUnits="userSpaceOnUse" color-interpolation-filters="sRGB">
<feFlood flood-opacity="0" result="BackgroundImageFix"/>
<feBlend mode="normal" in="SourceGraphic" in2="BackgroundImageFix" result="shape"/>
<feGaussianBlur stdDeviation="75.1258" result="effect1_foregroundBlur_2013_328"/>
</filter>
<filter id="filter1_f_2013_328" x="220.709" y="-755.742" width="969.272" height="800.617" filterUnits="userSpaceOnUse" color-interpolation-filters="sRGB">
<feFlood flood-opacity="0" result="BackgroundImageFix"/>
<feBlend mode="normal" in="SourceGraphic" in2="BackgroundImageFix" result="shape"/>
<feGaussianBlur stdDeviation="47.864" result="effect1_foregroundBlur_2013_328"/>
</filter>
<linearGradient id="paint0_linear_2013_328" x1="1375" y1="3" x2="-193.292" y2="599.068" gradientUnits="userSpaceOnUse">
<stop stop-color="#9396FF"/>
<stop offset="1" stop-color="#6E3AFF"/>
</linearGradient>
<radialGradient id="paint1_radial_2013_328" cx="0" cy="0" r="1" gradientTransform="matrix(1932.29 -368.175 435.026 2192.33 210.973 792.639)" gradientUnits="userSpaceOnUse">
<stop stop-color="white" stop-opacity="0.2"/>
<stop offset="1" stop-color="white" stop-opacity="0.6"/>
</radialGradient>
<clipPath id="clip0_2013_328">
<rect width="1377" height="1105" fill="white"/>
</clipPath>
<clipPath id="clip1_2013_328">
<rect x="-1" y="3" width="1376" height="1102" rx="48" fill="white"/>
</clipPath>
</defs>
</svg>
