<svg xmlns="http://www.w3.org/2000/svg" width="1377" height="1105" fill="none" viewBox="0 0 1377 1105"><g clip-path="url(#a)"><g clip-path="url(#b)"><rect width="1376" height="1102" x="-1" y="3" fill="url(#c)" rx="48"/><path fill="url(#d)" fill-opacity=".5" d="M-378.571 982.03c0 338.56 274.446 613.01 612.993 613.01L1.384 2035.86c-17.673 33.43-52.386 54.34-90.2 54.34h-965.154c-56.35 0-102.03-45.68-102.03-102.03V1379.6c0-30.25 13.42-58.94 36.64-78.32l740.789-618.455zM1516.1 1225.36c38.6 32.31 60.9 80.06 60.9 130.4v69.22c0 93.92-76.13 170.06-170.05 170.06H234.422L763.053 595.008zM245.515 161.802l-624.086 521.023v-897.768c0-57.74 67.403-89.221 111.679-52.16zm517.538 433.206L245.515 161.802 1382.93-787.745c42.94-35.844 103.94 13.559 77.8 63.007L1111.89-64.865z" opacity=".2"/><g filter="url(#e)"><g filter="url(#f)"><path fill="#04baec" d="M316.437-89.516c115.911 70.168 211.068 25.077 302.078 16.519 74.899-25.272 343.71-37.928 415.815-38.844 114.47-.866 40.8-119.909-21.87-267.893C897.156-566.95 751.103-677.679 637.656-657.698c-103.804 7.14-192.875 169.99-241.081 275.638-67.674 112.421-77.026 197.204-80.138 292.544"/></g><path fill="#21fff4" d="M584.501-310.318c44.924 90.909 52.857 138.247 90.86 141.418 32.471-4.678 236.388-64.141 266.112-59.283 47.154 7.946-11.309-106.712-27.392-170.416-35.167-83.203-87.996-138.054-135.979-138.284-43.174-4.665-79.781 20.118-106.538 58.865-35.211 40.044-112.621 135.979-87.063 167.7"/></g></g></g><defs><clipPath id="a"><path fill="#fff" d="M0 0h1377v1105H0z"/></clipPath><clipPath id="b"><rect width="1376" height="1102" x="-1" y="3" fill="#fff" rx="48"/></clipPath><filter id="e" width="1078.32" height="909.664" x="166.186" y="-810.265" color-interpolation-filters="sRGB" filterUnits="userSpaceOnUse"><feFlood flood-opacity="0" result="BackgroundImageFix"/><feBlend in="SourceGraphic" in2="BackgroundImageFix" result="shape"/><feGaussianBlur result="effect1_foregroundBlur_2013_328" stdDeviation="75.126"/></filter><filter id="f" width="969.272" height="800.617" x="220.709" y="-755.742" color-interpolation-filters="sRGB" filterUnits="userSpaceOnUse"><feFlood flood-opacity="0" result="BackgroundImageFix"/><feBlend in="SourceGraphic" in2="BackgroundImageFix" result="shape"/><feGaussianBlur result="effect1_foregroundBlur_2013_328" stdDeviation="47.864"/></filter><radialGradient id="d" cx="0" cy="0" r="1" gradientTransform="matrix(1932.29 -368.175 435.026 2192.33 210.973 792.639)" gradientUnits="userSpaceOnUse"><stop stop-color="#fff" stop-opacity=".2"/><stop offset="1" stop-color="#fff" stop-opacity=".6"/></radialGradient><linearGradient id="c" x1="1375" x2="-193.292" y1="3" y2="599.068" gradientUnits="userSpaceOnUse"><stop stop-color="#9396ff"/><stop offset="1" stop-color="#6e3aff"/></linearGradient></defs></svg>