<svg width="1367" height="1168" viewBox="0 0 1367 1168" fill="none" xmlns="http://www.w3.org/2000/svg">
<g clip-path="url(#clip0_2040_61)">
<path opacity="0.2" d="M-384.571 978.03C-384.571 1316.59 -110.125 1591.04 228.422 1591.04L-4.61572 2031.86C-22.2889 2065.29 -57.0021 2086.2 -94.8164 2086.2H-1059.97C-1116.32 2086.2 -1162 2040.52 -1162 1984.17V1375.6C-1162 1345.35 -1148.58 1316.66 -1125.36 1297.28L-384.571 678.825V978.03ZM1510.1 1221.36C1548.7 1253.67 1571 1301.42 1571 1351.76V1420.98C1571 1514.9 1494.87 1591.04 1400.95 1591.04H228.422L757.053 591.008L1510.1 1221.36ZM239.515 157.802L-384.571 678.825V-218.943C-384.571 -276.683 -317.168 -308.164 -272.892 -271.103L239.515 157.802ZM757.053 591.008L239.515 157.802L1376.93 -791.745C1419.87 -827.589 1480.87 -778.186 1454.73 -728.738L1105.89 -68.865L757.053 591.008Z" fill="url(#paint0_radial_2040_61)" fill-opacity="0.5"/>
</g>
<defs>
<radialGradient id="paint0_radial_2040_61" cx="0" cy="0" r="1" gradientTransform="matrix(1932.29 -368.175 435.026 2192.33 204.973 788.639)" gradientUnits="userSpaceOnUse">
<stop stop-color="white" stop-opacity="0.2"/>
<stop offset="1" stop-color="white" stop-opacity="0.6"/>
</radialGradient>
<clipPath id="clip0_2040_61">
<rect width="1367" height="1168" fill="white"/>
</clipPath>
</defs>
</svg>
