<svg xmlns="http://www.w3.org/2000/svg" width="1367" height="1168" fill="none" viewBox="0 0 1367 1168"><g clip-path="url(#a)"><path fill="url(#b)" fill-opacity=".5" d="M-384.571 978.03c0 338.56 274.446 613.01 612.993 613.01L-4.616 2031.86c-17.673 33.43-52.386 54.34-90.2 54.34h-965.154c-56.35 0-102.03-45.68-102.03-102.03V1375.6c0-30.25 13.42-58.94 36.64-78.32l740.789-618.455zM1510.1 1221.36c38.6 32.31 60.9 80.06 60.9 130.4v69.22c0 93.92-76.13 170.06-170.05 170.06H228.422L757.053 591.008zM239.515 157.802l-624.086 521.023v-897.768c0-57.74 67.403-89.221 111.679-52.16zm517.538 433.206L239.515 157.802 1376.93-791.745c42.94-35.844 103.94 13.559 77.8 63.007L1105.89-68.865z" opacity=".2"/></g><defs><radialGradient id="b" cx="0" cy="0" r="1" gradientTransform="matrix(1932.29 -368.175 435.026 2192.33 204.973 788.639)" gradientUnits="userSpaceOnUse"><stop stop-color="#fff" stop-opacity=".2"/><stop offset="1" stop-color="#fff" stop-opacity=".6"/></radialGradient><clipPath id="a"><path fill="#fff" d="M0 0h1367v1168H0z"/></clipPath></defs></svg>