<svg width="232" height="309" viewBox="0 0 232 309" fill="none" xmlns="http://www.w3.org/2000/svg">
<path opacity="0.2" d="M19.3711 308.229V271.575L124.127 153.698C133.846 141.757 143.079 129.609 151.826 117.252C160.573 104.756 164.947 92.8157 164.947 81.4307C164.947 68.5184 160.92 59.1466 152.867 53.3152C144.953 47.345 133.152 44.3599 117.463 44.3599C100.941 44.3599 88.4449 48.1087 79.9755 55.6061C71.645 62.9647 67.4798 75.044 67.4798 91.8438V99.7578H19.5794V89.9695C19.5794 62.6176 28.4652 40.8195 46.237 24.575C64.1476 8.19167 88.0978 0 118.088 0C148.077 0 171.472 7.01151 188.272 21.0345C205.211 35.0575 213.68 53.8012 213.68 77.2654C213.68 96.981 208.682 114.197 198.685 128.915C188.827 143.632 175.638 160.293 159.115 178.898L87.6813 262.411H220.761V308.229H19.3711Z" fill="#B1ABFF"/>
<ellipse cx="120.422" cy="174.973" rx="72.2895" ry="24.8158" transform="rotate(-24.167 120.422 174.973)" stroke="#B1ABFF" stroke-width="10"/>
<path d="M118.816 116C113.548 116 112.231 118.951 112.231 120.427L112.231 144.592C112.231 146.989 111.287 149.289 109.606 150.984C107.926 152.679 105.645 153.631 103.268 153.631L82.5991 153.631C77.3312 153.631 76.0142 157.32 76.0142 159.165L76.0142 218.6C76.0143 221.624 77.1993 224.523 79.3088 226.661C81.4185 228.799 84.28 230 87.2634 230L154.759 230C157.742 230 160.604 228.799 162.713 226.661C164.823 224.523 166.008 221.624 166.008 218.6L166.008 127.4C166.008 124.376 164.823 121.477 162.713 119.339C160.604 117.201 157.742 116 154.759 116L118.816 116Z" fill="url(#paint0_linear_760_2008)"/>
<path d="M76.0078 146.99L76.0142 146.99L76.0142 146.975C76.012 146.98 76.01 146.985 76.0078 146.99Z" fill="url(#paint1_linear_760_2008)"/>
<path d="M105.646 143.67L105.646 125.23C105.646 122.257 102.069 120.782 100.004 122.904L82.058 141.344C80.0137 143.445 81.4893 146.99 84.4078 146.99L102.354 146.99C104.172 146.99 105.646 145.504 105.646 143.67Z" fill="url(#paint2_linear_760_2008)"/>
<path d="M51.0262 138.054C51.2357 136.975 52.7799 136.975 52.9895 138.054L54.9692 148.248C55.047 148.648 55.36 148.961 55.7602 149.039L65.9535 151.018C67.0326 151.228 67.0326 152.772 65.9535 152.982L55.7602 154.961C55.36 155.039 55.047 155.352 54.9692 155.752L52.9895 165.946C52.7799 167.025 51.2357 167.025 51.0262 165.946L49.0464 155.752C48.9687 155.352 48.6557 155.039 48.2554 154.961L38.0621 152.982C36.983 152.772 36.983 151.228 38.0621 151.018L48.2554 149.039C48.6557 148.961 48.9687 148.648 49.0464 148.248L51.0262 138.054Z" fill="#B1ABFF"/>
<path d="M180.526 112.054C180.736 110.975 182.28 110.975 182.489 112.054L183.412 116.805C183.49 117.205 183.803 117.518 184.203 117.596L188.954 118.518C190.033 118.728 190.033 120.272 188.954 120.482L184.203 121.404C183.803 121.482 183.49 121.795 183.412 122.195L182.489 126.946C182.28 128.025 180.736 128.025 180.526 126.946L179.604 122.195C179.526 121.795 179.213 121.482 178.813 121.404L174.062 120.482C172.983 120.272 172.983 118.728 174.062 118.518L178.813 117.596C179.213 117.518 179.526 117.205 179.604 116.805L180.526 112.054Z" fill="#B1ABFF"/>
<path d="M186.376 145.378C191.987 157.883 167.007 181.27 130.582 197.614C94.1568 213.959 60.0797 217.073 54.4688 204.569" stroke="#B1ABFF" stroke-width="10"/>
<path d="M179.526 185.054C179.736 183.975 181.28 183.975 181.489 185.054L182.412 189.805C182.49 190.205 182.803 190.518 183.203 190.596L187.954 191.518C189.033 191.728 189.033 193.272 187.954 193.482L183.203 194.404C182.803 194.482 182.49 194.795 182.412 195.195L181.489 199.946C181.28 201.025 179.736 201.025 179.526 199.946L178.604 195.195C178.526 194.795 178.213 194.482 177.813 194.404L173.062 193.482C171.983 193.272 171.983 191.728 173.062 191.518L177.813 190.596C178.213 190.518 178.526 190.205 178.604 189.805L179.526 185.054Z" fill="#B1ABFF"/>
<defs>
<linearGradient id="paint0_linear_760_2008" x1="121.008" y1="116" x2="121.008" y2="230" gradientUnits="userSpaceOnUse">
<stop stop-color="#9396FF"/>
<stop offset="1" stop-color="#6E3AFF"/>
</linearGradient>
<linearGradient id="paint1_linear_760_2008" x1="121.008" y1="116" x2="121.008" y2="230" gradientUnits="userSpaceOnUse">
<stop stop-color="#9396FF"/>
<stop offset="1" stop-color="#6E3AFF"/>
</linearGradient>
<linearGradient id="paint2_linear_760_2008" x1="121.008" y1="116" x2="121.008" y2="230" gradientUnits="userSpaceOnUse">
<stop stop-color="#9396FF"/>
<stop offset="1" stop-color="#6E3AFF"/>
</linearGradient>
</defs>
</svg>
