<svg width="232" height="314" viewBox="0 0 232 314" fill="none" xmlns="http://www.w3.org/2000/svg">
<path opacity="0.2" d="M12.4961 226.798V217.843H59.98V226.59C59.98 241.029 65.0477 251.928 75.1832 259.287C85.3186 266.507 98.9945 270.117 116.211 270.117C133.983 270.117 147.45 266.299 156.614 258.662C165.916 251.026 170.567 238.183 170.567 220.134C170.567 202.778 165.153 190.283 154.323 182.646C143.493 175.01 128.151 171.192 108.297 171.192H78.3071V129.748H106.214C124.403 129.886 138.078 126.346 147.242 119.126C156.544 111.768 161.196 100.174 161.196 84.3464C161.196 69.768 157.377 59.2854 149.741 52.8987C142.244 46.512 130.928 43.3186 115.794 43.3186C100.799 43.3186 88.9285 46.7203 80.1815 53.5235C71.5733 60.1879 67.2692 69.9763 67.2692 82.8885V90.386H19.9935V82.2638C19.9935 57.6888 29.0877 37.8344 47.276 22.7006C65.4642 7.56688 88.512 0 116.419 0C145.437 0 168.207 7.08093 184.729 21.2428C201.251 35.4047 209.513 54.9119 209.513 79.7646C209.513 96.7033 205.486 110.865 197.433 122.25C189.381 133.496 177.51 142.174 161.82 148.283V149.116C178.62 153.004 192.435 161.126 203.265 173.483C214.094 185.701 219.509 202.223 219.509 223.049C219.509 251.234 210.276 273.31 191.81 289.277C173.344 305.244 148.075 313.227 116.003 313.227C85.4575 313.227 60.5353 305.382 41.2363 289.693C22.0762 274.004 12.4961 253.039 12.4961 226.798Z" fill="#B1ABFF"/>
<path d="M98.5183 103.054C98.7279 101.975 100.272 101.975 100.482 103.054L102.217 111.992C102.295 112.392 102.608 112.705 103.008 112.783L111.946 114.518C113.025 114.728 113.025 116.272 111.946 116.482L103.008 118.217C102.608 118.295 102.295 118.608 102.217 119.008L100.482 127.946C100.272 129.025 98.7279 129.025 98.5183 127.946L96.7825 119.008C96.7048 118.608 96.3918 118.295 95.9915 118.217L87.0543 116.482C85.9752 116.272 85.9752 114.728 87.0543 114.518L95.9915 112.783C96.3918 112.705 96.7048 112.392 96.7825 111.992L98.5183 103.054Z" fill="#B1ABFF"/>
<path d="M126.518 116.054C126.728 114.975 128.272 114.975 128.482 116.054L129.242 119.967C129.319 120.368 129.632 120.681 130.033 120.758L133.946 121.518C135.025 121.728 135.025 123.272 133.946 123.482L130.033 124.242C129.632 124.319 129.319 124.632 129.242 125.033L128.482 128.946C128.272 130.025 126.728 130.025 126.518 128.946L125.758 125.033C125.681 124.632 125.368 124.319 124.967 124.242L121.054 123.482C119.975 123.272 119.975 121.728 121.054 121.518L124.967 120.758C125.368 120.681 125.681 120.368 125.758 119.967L126.518 116.054Z" fill="#B1ABFF"/>
<path d="M111.518 131.054C111.728 129.975 113.272 129.975 113.482 131.054L114.242 134.967C114.319 135.368 114.632 135.681 115.033 135.758L118.946 136.518C120.025 136.728 120.025 138.272 118.946 138.482L115.033 139.242C114.632 139.319 114.319 139.632 114.242 140.033L113.482 143.946C113.272 145.025 111.728 145.025 111.518 143.946L110.758 140.033C110.681 139.632 110.368 139.319 109.967 139.242L106.054 138.482C104.975 138.272 104.975 136.728 106.054 136.518L109.967 135.758C110.368 135.681 110.681 135.368 110.758 134.967L111.518 131.054Z" fill="#B1ABFF"/>
<path d="M221 215V200.667C221 193.064 218.05 185.772 212.799 180.396C207.548 175.02 200.426 172 193 172H151C143.574 172 136.452 175.02 131.201 180.396C125.95 185.772 123 193.064 123 200.667V215" fill="url(#paint0_linear_760_2020)"/>
<path d="M172 163C188.016 163 201 150.464 201 135C201 119.536 188.016 107 172 107C155.984 107 143 119.536 143 135C143 150.464 155.984 163 172 163Z" fill="url(#paint1_linear_760_2020)"/>
<path d="M123 215H221C221 217.761 218.761 220 216 220H128C125.239 220 123 217.761 123 215Z" fill="url(#paint2_linear_760_2020)"/>
<path d="M102 215V200.667C102 193.064 99.05 185.772 93.799 180.396C88.548 175.02 81.4261 172 74 172H32C24.5739 172 17.452 175.02 12.201 180.396C6.94999 185.772 4 193.064 4 200.667V215" fill="#B1ABFF"/>
<path d="M53 163C69.0163 163 82 150.464 82 135C82 119.536 69.0163 107 53 107C36.9837 107 24 119.536 24 135C24 150.464 36.9837 163 53 163Z" fill="#B1ABFF"/>
<path d="M4 215H102C102 217.761 99.7614 220 97 220H9C6.23857 220 4 217.761 4 215Z" fill="#B1ABFF"/>
<defs>
<linearGradient id="paint0_linear_760_2020" x1="172" y1="107" x2="172" y2="220" gradientUnits="userSpaceOnUse">
<stop stop-color="#9396FF"/>
<stop offset="1" stop-color="#6E3AFF"/>
</linearGradient>
<linearGradient id="paint1_linear_760_2020" x1="172" y1="107" x2="172" y2="220" gradientUnits="userSpaceOnUse">
<stop stop-color="#9396FF"/>
<stop offset="1" stop-color="#6E3AFF"/>
</linearGradient>
<linearGradient id="paint2_linear_760_2020" x1="172" y1="107" x2="172" y2="220" gradientUnits="userSpaceOnUse">
<stop stop-color="#9396FF"/>
<stop offset="1" stop-color="#6E3AFF"/>
</linearGradient>
</defs>
</svg>
