<svg width="297" height="307" viewBox="0 0 297 307" fill="none" xmlns="http://www.w3.org/2000/svg">
<path d="M138.134 306.563V54.5648L57.9531 82.0555V34.7799L159.585 0H186.451V306.563H138.134Z" fill="#3B3A4B"/>
<g clip-path="url(#clip0_918_338)">
<path d="M144.922 105.354C148.391 105.354 151.736 106.648 154.303 108.982C156.869 111.317 158.473 114.524 158.802 117.978C158.999 120.209 159.732 122.36 160.937 124.248C162.141 126.136 163.783 127.707 165.723 128.826C167.663 129.945 169.844 130.581 172.081 130.679C174.319 130.777 176.548 130.333 178.578 129.388C181.731 127.957 185.303 127.749 188.6 128.807C191.896 129.864 194.682 132.111 196.414 135.108C198.146 138.106 198.7 141.642 197.97 145.026C197.239 148.41 195.275 151.402 192.461 153.418C190.628 154.704 189.132 156.413 188.099 158.399C187.066 160.386 186.526 162.592 186.526 164.831C186.526 167.07 187.066 169.276 188.099 171.263C189.132 173.249 190.628 174.958 192.461 176.244C195.275 178.26 197.239 181.252 197.97 184.636C198.7 188.02 198.146 191.556 196.414 194.554C194.682 197.552 191.896 199.798 188.6 200.855C185.303 201.913 181.731 201.706 178.578 200.274C176.548 199.329 174.319 198.886 172.081 198.983C169.844 199.081 167.663 199.717 165.723 200.836C163.783 201.955 162.141 203.526 160.937 205.414C159.732 207.302 158.999 209.453 158.802 211.685C158.473 215.138 156.869 218.345 154.303 220.68C151.736 223.014 148.391 224.308 144.922 224.308C141.453 224.308 138.108 223.014 135.541 220.68C132.975 218.345 131.37 215.138 131.042 211.685C130.845 209.453 130.113 207.301 128.908 205.412C127.703 203.523 126.061 201.953 124.12 200.833C122.179 199.714 119.997 199.078 117.759 198.98C115.52 198.883 113.291 199.327 111.261 200.274C108.108 201.706 104.535 201.913 101.238 200.855C97.9415 199.798 95.1558 197.552 93.4238 194.554C91.6918 191.556 91.1374 188.02 91.8682 184.636C92.599 181.252 94.5633 178.26 97.3779 176.244C99.2107 174.958 100.706 173.249 101.739 171.263C102.772 169.276 103.312 167.07 103.312 164.831C103.312 162.592 102.772 160.386 101.739 158.399C100.706 156.413 99.2107 154.704 97.3779 153.418C94.5672 151.401 92.6069 148.41 91.8779 145.028C91.1489 141.646 91.7034 138.114 93.4336 135.118C95.1638 132.122 97.9457 129.876 101.239 128.817C104.533 127.758 108.103 127.961 111.255 129.388C113.285 130.333 115.513 130.777 117.751 130.679C119.989 130.581 122.17 129.946 124.11 128.826C126.05 127.707 127.692 126.136 128.896 124.248C130.101 122.36 130.833 120.209 131.03 117.978L131.077 117.654C131.472 114.324 133.055 111.244 135.541 108.982C138.108 106.648 141.453 105.355 144.922 105.354ZM144.92 146.959C135.048 146.959 127.045 154.962 127.045 164.834C127.045 174.706 135.048 182.709 144.92 182.709C154.792 182.709 162.795 174.706 162.795 164.834C162.795 154.962 154.792 146.959 144.92 146.959Z" fill="url(#paint0_linear_918_338)"/>
</g>
<g clip-path="url(#clip1_918_338)">
<path d="M267.564 141.928C269.417 143.781 270.512 146.259 270.636 148.877C270.761 151.495 269.904 154.066 268.235 156.086C267.148 157.384 266.39 158.924 266.025 160.576C265.66 162.229 265.698 163.945 266.136 165.579C266.575 167.214 267.401 168.719 268.544 169.966C269.687 171.214 271.114 172.167 272.704 172.746C275.153 173.666 277.172 175.464 278.368 177.791C279.565 180.117 279.852 182.805 279.176 185.331C278.5 187.858 276.908 190.044 274.709 191.461C272.511 192.879 269.864 193.428 267.283 193.001C265.617 192.709 263.904 192.822 262.291 193.332C260.678 193.841 259.212 194.732 258.015 195.928C256.819 197.124 255.929 198.591 255.419 200.204C254.91 201.817 254.796 203.53 255.088 205.196C255.515 207.777 254.966 210.424 253.548 212.622C252.131 214.82 249.946 216.412 247.419 217.088C244.892 217.765 242.204 217.477 239.878 216.281C237.552 215.085 235.754 213.065 234.834 210.616C234.255 209.026 233.301 207.6 232.053 206.457C230.806 205.314 229.301 204.487 227.667 204.049C226.032 203.61 224.316 203.572 222.664 203.938C221.011 204.303 219.471 205.061 218.174 206.147C216.153 207.817 213.583 208.673 210.965 208.549C208.346 208.425 205.869 207.329 204.016 205.476C202.162 203.622 201.066 201.144 200.941 198.526C200.817 195.908 201.674 193.338 203.344 191.318C204.431 190.02 205.189 188.479 205.555 186.826C205.92 185.173 205.882 183.456 205.443 181.821C205.004 180.187 204.178 178.681 203.034 177.434C201.891 176.186 200.463 175.232 198.872 174.654C196.423 173.734 194.403 171.936 193.207 169.61C192.01 167.284 191.723 164.595 192.4 162.069C193.076 159.542 194.668 157.357 196.866 155.939C199.064 154.522 201.711 153.973 204.292 154.399C205.958 154.692 207.671 154.578 209.284 154.069C210.897 153.559 212.363 152.668 213.56 151.472C214.756 150.276 215.647 148.81 216.156 147.197C216.665 145.583 216.779 143.871 216.487 142.205C216.063 139.626 216.613 136.981 218.03 134.785C219.447 132.589 221.632 130.998 224.157 130.321C226.681 129.645 229.367 129.932 231.692 131.126C234.017 132.32 235.816 134.335 236.738 136.781C237.317 138.37 238.271 139.798 239.519 140.941C240.767 142.084 242.271 142.91 243.906 143.349C245.54 143.787 247.256 143.825 248.909 143.46C250.561 143.095 252.101 142.337 253.399 141.25L253.79 140.953C255.747 139.483 258.159 138.738 260.613 138.854C263.231 138.978 265.71 140.074 267.564 141.928ZM245.336 164.153C240.062 158.879 231.511 158.879 226.237 164.153C220.964 169.426 220.964 177.977 226.238 183.251C231.512 188.525 240.062 188.525 245.336 183.251C250.61 177.977 250.61 169.427 245.336 164.153Z" fill="#B1ABFF"/>
</g>
<g clip-path="url(#clip2_918_338)">
<path d="M97.773 161.598C98.5375 164.105 98.3395 166.808 97.2181 169.177C96.0968 171.546 94.1326 173.412 91.7091 174.411C90.1403 175.045 88.7469 176.047 87.6477 177.333C86.5486 178.62 85.7752 180.153 85.3938 181.801C85.0123 183.45 85.0341 185.167 85.4565 186.805C85.8788 188.444 86.6902 189.957 87.8211 191.215C89.55 193.178 90.4863 195.714 90.4487 198.33C90.411 200.945 89.4017 203.454 87.6169 205.366C85.832 207.278 83.3992 208.458 80.7924 208.676C78.1857 208.893 75.5912 208.133 73.514 206.543C72.1808 205.502 70.6162 204.797 68.953 204.489C67.2898 204.18 65.5764 204.276 63.9583 204.769C62.3402 205.263 60.8648 206.139 59.6568 207.323C58.4488 208.507 57.5432 209.965 57.0177 211.573C56.1808 214.051 54.4523 216.13 52.1676 217.404C49.8829 218.677 47.2055 219.055 44.6573 218.464C42.1093 217.873 39.8721 216.355 38.3816 214.205C36.8911 212.056 36.2541 209.428 36.5938 206.835C36.8299 205.159 36.6583 203.451 36.0945 201.856C35.5308 200.26 34.5911 198.824 33.3547 197.668C32.1183 196.513 30.6214 195.672 28.9914 195.218C27.3614 194.764 25.6458 194.709 23.9901 195.058C21.4219 195.582 18.7506 195.129 16.4982 193.789C14.2458 192.448 12.5735 190.316 11.809 187.808C11.0447 185.301 11.2429 182.599 12.3642 180.23C13.4855 177.861 15.4496 175.995 17.8732 174.997C19.4427 174.362 20.8366 173.359 21.9362 172.072C23.0357 170.785 23.8094 169.252 24.1908 167.603C24.5721 165.954 24.5495 164.237 24.1266 162.598C23.7036 160.959 22.8925 159.445 21.7607 158.187C20.0318 156.224 19.0946 153.688 19.1322 151.073C19.1699 148.457 20.1792 145.949 21.964 144.037C23.7489 142.124 26.1818 140.944 28.7885 140.727C31.3953 140.509 33.9896 141.27 36.0669 142.86C37.4001 143.901 38.9647 144.605 40.6279 144.914C42.2911 145.222 44.0045 145.127 45.6226 144.633C47.2407 144.14 48.7161 143.263 49.9241 142.079C51.1321 140.895 52.0377 139.438 52.5632 137.83C53.4016 135.354 55.1304 133.279 57.4137 132.007C59.697 130.735 62.3719 130.357 64.9181 130.947C67.4644 131.537 69.7008 133.053 71.1919 135.199C72.6829 137.346 73.3231 139.971 72.9869 142.563C72.7509 144.239 72.9213 145.946 73.4849 147.542C74.0487 149.137 74.9885 150.574 76.2248 151.73C77.4612 152.885 78.9581 153.725 80.5881 154.18C82.2181 154.634 83.9338 154.689 85.5896 154.34L86.0751 154.262C88.4929 153.885 90.9725 154.362 93.0841 155.618C95.3364 156.959 97.0085 159.091 97.773 161.598ZM67.7063 170.763C65.5311 163.629 57.9841 159.609 50.8499 161.784C43.7157 163.959 39.6956 171.506 41.8708 178.64C44.0461 185.775 51.593 189.795 58.7273 187.62C65.8615 185.444 69.8816 177.897 67.7063 170.763Z" fill="#B1ABFF"/>
</g>
<defs>
<linearGradient id="paint0_linear_918_338" x1="144.92" y1="105.354" x2="144.92" y2="224.308" gradientUnits="userSpaceOnUse">
<stop stop-color="#9396FF"/>
<stop offset="1" stop-color="#6E3AFF"/>
</linearGradient>
<clipPath id="clip0_918_338">
<rect width="107" height="119" fill="white" transform="translate(91.4199 105.334)"/>
</clipPath>
<clipPath id="clip1_918_338">
<rect width="80.8399" height="89.9061" fill="white" transform="translate(238.992 113.334) rotate(45)"/>
</clipPath>
<clipPath id="clip2_918_338">
<rect width="80.8399" height="89.9061" fill="white" transform="translate(85.998 122.929) rotate(73.0433)"/>
</clipPath>
</defs>
</svg>
