<svg xmlns="http://www.w3.org/2000/svg" width="274" height="314" fill="none" viewBox="0 0 274 314"><path fill="#efeeff" d="M33.496 226.798v-8.955H80.98v8.747q0 21.658 15.203 32.697 15.204 10.83 41.028 10.83 26.657 0 40.403-11.455 13.953-11.454 13.953-38.528 0-26.033-16.244-37.488-16.245-11.454-46.026-11.454h-29.99v-41.444h27.907q27.283.208 41.028-10.622 13.953-11.037 13.954-34.78 0-21.867-11.455-31.447-11.246-9.58-33.947-9.58-22.492 0-35.613 10.204-12.912 9.997-12.912 29.365v7.498H40.993v-8.122q0-36.863 27.283-59.563Q95.558 0 137.419 0q43.527 0 68.31 21.243t24.784 58.522q0 25.407-12.08 42.485-12.078 16.87-35.613 26.033v.833q25.2 5.832 41.445 24.367 16.244 18.327 16.244 49.566 0 42.278-27.699 66.228t-75.807 23.95q-45.819 0-74.767-23.534-28.74-23.534-28.74-62.895"/><path fill="#b1abff" d="M119.518 103.054c.21-1.079 1.754-1.079 1.964 0l1.735 8.938c.078.4.391.713.791.791l8.938 1.735c1.079.21 1.079 1.754 0 1.964l-8.938 1.735c-.4.078-.713.391-.791.791l-1.735 8.938c-.21 1.079-1.754 1.079-1.964 0l-1.735-8.938a1 1 0 0 0-.791-.791l-8.938-1.735c-1.079-.21-1.079-1.754 0-1.964l8.938-1.735c.4-.078.713-.391.791-.791zM147.518 116.054c.21-1.079 1.754-1.079 1.964 0l.76 3.913c.077.401.39.714.791.791l3.913.76c1.079.21 1.079 1.754 0 1.964l-3.913.76a1 1 0 0 0-.791.791l-.76 3.913c-.21 1.079-1.754 1.079-1.964 0l-.76-3.913a1 1 0 0 0-.791-.791l-3.913-.76c-1.079-.21-1.079-1.754 0-1.964l3.913-.76a1 1 0 0 0 .791-.791zM132.518 131.054c.21-1.079 1.754-1.079 1.964 0l.76 3.913c.077.401.39.714.791.791l3.913.76c1.079.21 1.079 1.754 0 1.964l-3.913.76a1 1 0 0 0-.791.791l-.76 3.913c-.21 1.079-1.754 1.079-1.964 0l-.76-3.913a1 1 0 0 0-.791-.791l-3.913-.76c-1.079-.21-1.079-1.754 0-1.964l3.913-.76a1 1 0 0 0 .791-.791z"/><path fill="url(#a)" d="M242 215v-14.333c0-7.603-2.95-14.895-8.201-20.271S221.426 172 214 172h-42c-7.426 0-14.548 3.02-19.799 8.396S144 193.064 144 200.667V215"/><path fill="url(#b)" d="M193 163c16.016 0 29-12.536 29-28s-12.984-28-29-28-29 12.536-29 28 12.984 28 29 28"/><path fill="url(#c)" d="M144 215h98a5 5 0 0 1-5 5h-88a5 5 0 0 1-5-5"/><path fill="#b1abff" d="M123 215v-14.333c0-7.603-2.95-14.895-8.201-20.271S102.426 172 95 172H53c-7.426 0-14.548 3.02-19.799 8.396S25 193.064 25 200.667V215M74 163c16.016 0 29-12.536 29-28s-12.984-28-29-28-29 12.536-29 28 12.984 28 29 28M25 215h98a5 5 0 0 1-5 5H30a5 5 0 0 1-5-5"/><defs><linearGradient id="a" x1="193" x2="193" y1="107" y2="220" gradientUnits="userSpaceOnUse"><stop stop-color="#9396ff"/><stop offset="1" stop-color="#6e3aff"/></linearGradient><linearGradient id="b" x1="193" x2="193" y1="107" y2="220" gradientUnits="userSpaceOnUse"><stop stop-color="#9396ff"/><stop offset="1" stop-color="#6e3aff"/></linearGradient><linearGradient id="c" x1="193" x2="193" y1="107" y2="220" gradientUnits="userSpaceOnUse"><stop stop-color="#9396ff"/><stop offset="1" stop-color="#6e3aff"/></linearGradient></defs></svg>