<svg xmlns="http://www.w3.org/2000/svg" width="297" height="307" fill="none" viewBox="0 0 297 307"><path fill="#efeeff" d="M138.134 306.563V54.565l-80.18 27.49V34.78L159.584 0h26.866v306.563z"/><g clip-path="url(#a)"><path fill="url(#b)" d="M144.922 105.354a13.946 13.946 0 0 1 13.88 12.624c.197 2.231.93 4.382 2.135 6.27a13.94 13.94 0 0 0 11.144 6.431 13.95 13.95 0 0 0 6.497-1.291 13.941 13.941 0 0 1 13.883 24.03 13.946 13.946 0 0 0-4.362 17.845 13.95 13.95 0 0 0 4.362 4.981 13.947 13.947 0 0 1 3.953 18.31 13.94 13.94 0 0 1-17.836 5.72 13.948 13.948 0 0 0-19.776 11.411 13.946 13.946 0 0 1-23.261 8.995 13.95 13.95 0 0 1-4.499-8.995 13.944 13.944 0 0 0-19.781-11.411 13.94 13.94 0 0 1-17.837-5.72 13.944 13.944 0 0 1 3.954-18.31 13.945 13.945 0 0 0 0-22.826 13.943 13.943 0 0 1 13.877-24.03 13.95 13.95 0 0 0 12.855-.562 13.94 13.94 0 0 0 6.92-10.848l.047-.324a13.946 13.946 0 0 1 13.845-12.3m-.002 41.605c-9.872 0-17.875 8.003-17.875 17.875s8.003 17.875 17.875 17.875 17.875-8.003 17.875-17.875-8.003-17.875-17.875-17.875"/></g><g clip-path="url(#c)"><path fill="#b1abff" d="M267.564 141.928a10.53 10.53 0 0 1 .671 14.158 10.532 10.532 0 0 0 4.469 16.66 10.53 10.53 0 0 1 6.472 12.585 10.53 10.53 0 0 1-11.893 7.67 10.53 10.53 0 0 0-11.864 7.203 10.54 10.54 0 0 0-.331 4.992 10.53 10.53 0 0 1-7.669 11.892 10.53 10.53 0 0 1-12.585-6.472 10.5 10.5 0 0 0-2.781-4.159 10.53 10.53 0 0 0-9.389-2.519 10.5 10.5 0 0 0-4.49 2.209 10.534 10.534 0 0 1-14.83-14.829 10.539 10.539 0 0 0-.31-13.884 10.5 10.5 0 0 0-4.162-2.78 10.536 10.536 0 0 1-6.472-12.585 10.535 10.535 0 0 1 11.892-7.67 10.53 10.53 0 0 0 12.195-12.194 10.534 10.534 0 0 1 20.251-5.424 10.53 10.53 0 0 0 12.171 6.679 10.5 10.5 0 0 0 4.49-2.21l.391-.297a10.53 10.53 0 0 1 13.774.975m-22.228 22.225c-5.274-5.274-13.825-5.274-19.099 0-5.273 5.273-5.273 13.824.001 19.098s13.824 5.274 19.098 0 5.274-13.824 0-19.098"/></g><g clip-path="url(#d)"><path fill="#b1abff" d="M97.773 161.598a10.535 10.535 0 0 1-6.064 12.813 10.54 10.54 0 0 0-6.315 7.39 10.53 10.53 0 0 0 2.427 9.414 10.535 10.535 0 0 1-14.307 15.328 10.535 10.535 0 0 0-13.857.78 10.53 10.53 0 0 0-2.64 4.25 10.54 10.54 0 0 1-4.85 5.831 10.54 10.54 0 0 1-13.785-3.199 10.53 10.53 0 0 1-1.788-7.37 10.53 10.53 0 0 0-3.24-9.167 10.53 10.53 0 0 0-9.364-2.61 10.535 10.535 0 0 1-6.117-20.061 10.55 10.55 0 0 0 6.318-7.394 10.53 10.53 0 0 0-2.43-9.416 10.535 10.535 0 0 1 7.028-17.46 10.53 10.53 0 0 1 7.278 2.133 10.54 10.54 0 0 0 13.857-.781 10.5 10.5 0 0 0 2.64-4.249 10.53 10.53 0 0 1 12.354-6.883 10.537 10.537 0 0 1 8.069 11.616 10.54 10.54 0 0 0 3.238 9.167 10.54 10.54 0 0 0 9.365 2.61l.485-.078a10.54 10.54 0 0 1 11.698 7.336m-30.067 9.165c-2.175-7.134-9.722-11.154-16.856-8.979s-11.154 9.722-8.98 16.856c2.176 7.135 9.723 11.155 16.857 8.98 7.135-2.176 11.155-9.723 8.98-16.857"/></g><defs><clipPath id="a"><path fill="#fff" d="M91.42 105.334h107v119h-107z"/></clipPath><clipPath id="c"><path fill="#fff" d="m238.992 113.334 57.163 57.163-63.574 63.573-57.162-57.163z"/></clipPath><clipPath id="d"><path fill="#fff" d="m85.998 122.929 23.577 77.326-85.997 26.22L0 149.15z"/></clipPath><linearGradient id="b" x1="144.92" x2="144.92" y1="105.354" y2="224.308" gradientUnits="userSpaceOnUse"><stop stop-color="#9396ff"/><stop offset="1" stop-color="#6e3aff"/></linearGradient></defs></svg>