<svg width="274" height="309" viewBox="0 0 274 309" fill="none" xmlns="http://www.w3.org/2000/svg">
<path d="M35 223.013V214.208H81.5634V222.809C81.5634 237.007 86.5329 247.724 96.4719 254.96C106.411 262.06 119.822 265.609 136.704 265.609C154.132 265.609 167.338 261.855 176.324 254.346C185.446 246.837 190.007 234.208 190.007 216.461C190.007 199.394 184.698 187.108 174.078 179.598C163.458 172.09 148.413 168.335 128.944 168.335H99.5353V127.583H126.901C144.738 127.719 158.148 124.238 167.134 117.138C176.256 109.903 180.817 98.5023 180.817 82.9389C180.817 68.6037 177.072 58.2961 169.584 52.0159C162.233 45.7358 151.136 42.5957 136.295 42.5957C121.591 42.5957 109.95 45.9407 101.373 52.6303C92.932 59.1835 88.7113 68.8086 88.7113 81.5053V88.8777H42.3521V80.891C42.3521 56.7261 51.27 37.203 69.1057 22.3218C86.9413 7.44061 109.542 0 136.908 0C165.364 0 187.692 6.96277 203.894 20.8883C220.096 34.8139 228.198 53.9956 228.198 78.4335C228.198 95.0896 224.249 109.015 216.352 120.21C208.456 131.268 196.815 139.801 181.429 145.809V146.628C197.904 150.451 211.451 158.437 222.071 170.588C232.69 182.602 238 198.848 238 219.327C238 247.042 228.946 268.749 210.838 284.45C192.73 300.15 167.951 308 136.5 308C106.547 308 82.108 300.286 63.1831 284.859C44.3944 269.432 35 248.816 35 223.013Z" fill="#EFEEFF"/>
<path d="M119.018 100.054C119.228 98.975 120.772 98.975 120.982 100.054L122.717 108.992C122.795 109.392 123.108 109.705 123.508 109.783L132.446 111.518C133.525 111.728 133.525 113.272 132.446 113.482L123.508 115.217C123.108 115.295 122.795 115.608 122.717 116.008L120.982 124.946C120.772 126.025 119.228 126.025 119.018 124.946L117.283 116.008C117.205 115.608 116.892 115.295 116.492 115.217L107.554 113.482C106.475 113.272 106.475 111.728 107.554 111.518L116.492 109.783C116.892 109.705 117.205 109.392 117.283 108.992L119.018 100.054Z" fill="#B1ABFF"/>
<path d="M147.018 113.054C147.228 111.975 148.772 111.975 148.982 113.054L149.742 116.967C149.819 117.368 150.132 117.681 150.533 117.758L154.446 118.518C155.525 118.728 155.525 120.272 154.446 120.482L150.533 121.242C150.132 121.319 149.819 121.632 149.742 122.033L148.982 125.946C148.772 127.025 147.228 127.025 147.018 125.946L146.258 122.033C146.181 121.632 145.868 121.319 145.467 121.242L141.554 120.482C140.475 120.272 140.475 118.728 141.554 118.518L145.467 117.758C145.868 117.681 146.181 117.368 146.258 116.967L147.018 113.054Z" fill="#B1ABFF"/>
<path d="M132.018 128.054C132.228 126.975 133.772 126.975 133.982 128.054L134.742 131.967C134.819 132.368 135.132 132.681 135.533 132.758L139.446 133.518C140.525 133.728 140.525 135.272 139.446 135.482L135.533 136.242C135.132 136.319 134.819 136.632 134.742 137.033L133.982 140.946C133.772 142.025 132.228 142.025 132.018 140.946L131.258 137.033C131.181 136.632 130.868 136.319 130.467 136.242L126.554 135.482C125.475 135.272 125.475 133.728 126.554 133.518L130.467 132.758C130.868 132.681 131.181 132.368 131.258 131.967L132.018 128.054Z" fill="#B1ABFF"/>
<path d="M241.5 212V197.667C241.5 190.064 238.55 182.772 233.299 177.396C228.048 172.02 220.926 169 213.5 169H171.5C164.074 169 156.952 172.02 151.701 177.396C146.45 182.772 143.5 190.064 143.5 197.667V212" fill="url(#paint0_linear_1_56)"/>
<path d="M192.5 160C208.516 160 221.5 147.464 221.5 132C221.5 116.536 208.516 104 192.5 104C176.484 104 163.5 116.536 163.5 132C163.5 147.464 176.484 160 192.5 160Z" fill="url(#paint1_linear_1_56)"/>
<path d="M143.5 212H241.5C241.5 214.761 239.261 217 236.5 217H148.5C145.739 217 143.5 214.761 143.5 212Z" fill="url(#paint2_linear_1_56)"/>
<path d="M122.5 212V197.667C122.5 190.064 119.55 182.772 114.299 177.396C109.048 172.02 101.926 169 94.5 169H52.5C45.0739 169 37.952 172.02 32.701 177.396C27.45 182.772 24.5 190.064 24.5 197.667V212" fill="#B1ABFF"/>
<path d="M73.5 160C89.5163 160 102.5 147.464 102.5 132C102.5 116.536 89.5163 104 73.5 104C57.4837 104 44.5 116.536 44.5 132C44.5 147.464 57.4837 160 73.5 160Z" fill="#B1ABFF"/>
<path d="M24.5 212H122.5C122.5 214.761 120.261 217 117.5 217H29.5C26.7386 217 24.5 214.761 24.5 212Z" fill="#B1ABFF"/>
<defs>
<linearGradient id="paint0_linear_1_56" x1="192.5" y1="104" x2="192.5" y2="217" gradientUnits="userSpaceOnUse">
<stop stop-color="#9396FF"/>
<stop offset="1" stop-color="#6E3AFF"/>
</linearGradient>
<linearGradient id="paint1_linear_1_56" x1="192.5" y1="104" x2="192.5" y2="217" gradientUnits="userSpaceOnUse">
<stop stop-color="#9396FF"/>
<stop offset="1" stop-color="#6E3AFF"/>
</linearGradient>
<linearGradient id="paint2_linear_1_56" x1="192.5" y1="104" x2="192.5" y2="217" gradientUnits="userSpaceOnUse">
<stop stop-color="#9396FF"/>
<stop offset="1" stop-color="#6E3AFF"/>
</linearGradient>
</defs>
</svg>
