<svg xmlns="http://www.w3.org/2000/svg" width="274" height="309" fill="none" viewBox="0 0 274 309"><path fill="#efeeff" d="M40.371 308.229v-36.654l104.756-117.877a681 681 0 0 0 27.699-36.446q13.12-18.744 13.121-35.821 0-19.369-12.08-28.116-11.87-8.955-35.404-8.955-24.783 0-37.487 11.246Q88.48 66.644 88.48 91.844v7.914h-47.9V89.97q0-41.028 26.657-65.395Q94.102 0 139.088 0q44.984 0 70.184 21.035 25.408 21.033 25.408 56.23 0 29.573-14.995 51.65-14.786 22.076-39.57 49.983l-71.434 83.513h133.08v45.818z"/><path stroke="#b1abff" stroke-width="10" d="M157.743 142.596c14.711-4.193 27.719-5.753 36.878-4.422s13.924 5.473 13.507 11.743-5.988 14.295-15.796 22.751-23.27 16.837-38.162 23.764c-14.893 6.926-30.328 11.983-43.762 14.336-13.434 2.354-24.064 1.865-30.137-1.387-6.074-3.253-7.229-9.074-3.274-16.504 3.955-7.429 12.783-16.025 25.028-24.368"/><path fill="url(#a)" d="M139.816 116c-5.268 0-6.585 2.951-6.585 4.427v24.165a9.08 9.08 0 0 1-2.625 6.392 8.92 8.92 0 0 1-6.338 2.647h-20.669c-5.268 0-6.585 3.689-6.585 5.534V218.6c0 3.024 1.185 5.923 3.295 8.061a11.17 11.17 0 0 0 7.954 3.339h67.496c2.983 0 5.845-1.201 7.954-3.339a11.48 11.48 0 0 0 3.295-8.061v-91.2c0-3.024-1.185-5.923-3.295-8.061a11.17 11.17 0 0 0-7.954-3.339z"/><path fill="url(#b)" d="M97.008 146.99h.006v-.015z"/><path fill="url(#c)" d="M126.646 143.67v-18.44c0-2.973-3.577-4.448-5.642-2.326l-17.946 18.44c-2.044 2.101-.569 5.646 2.35 5.646h17.946c1.818 0 3.292-1.486 3.292-3.32"/><path fill="#b1abff" d="M72.026 138.054c.21-1.079 1.754-1.079 1.964 0l1.98 10.194a1 1 0 0 0 .79.791l10.194 1.979c1.079.21 1.079 1.754 0 1.964l-10.194 1.979a1 1 0 0 0-.79.791l-1.98 10.194c-.21 1.079-1.754 1.079-1.964 0l-1.98-10.194a1 1 0 0 0-.79-.791l-10.194-1.979c-1.079-.21-1.079-1.754 0-1.964l10.193-1.979a1 1 0 0 0 .791-.791zM201.526 112.054c.21-1.079 1.754-1.079 1.963 0l.923 4.751c.078.4.391.713.791.791l4.751.922c1.079.21 1.079 1.754 0 1.964l-4.751.922c-.4.078-.713.391-.791.791l-.923 4.751c-.209 1.079-1.753 1.079-1.963 0l-.922-4.751a1 1 0 0 0-.791-.791l-4.751-.922c-1.079-.21-1.079-1.754 0-1.964l4.751-.922c.4-.078.713-.391.791-.791z"/><path stroke="#b1abff" stroke-width="10" d="M207.376 145.378c5.611 12.505-19.369 35.892-55.794 52.236-36.425 16.345-70.502 19.459-76.113 6.955"/><path fill="#b1abff" d="M200.526 185.054c.21-1.079 1.754-1.079 1.963 0l.923 4.751c.078.4.391.713.791.791l4.751.922c1.079.21 1.079 1.754 0 1.964l-4.751.922c-.4.078-.713.391-.791.791l-.923 4.751c-.209 1.079-1.753 1.079-1.963 0l-.922-4.751a1 1 0 0 0-.791-.791l-4.751-.922c-1.079-.21-1.079-1.754 0-1.964l4.751-.922c.4-.078.713-.391.791-.791z"/><defs><linearGradient id="a" x1="142.008" x2="142.008" y1="116" y2="230" gradientUnits="userSpaceOnUse"><stop stop-color="#9396ff"/><stop offset="1" stop-color="#6e3aff"/></linearGradient><linearGradient id="b" x1="142.008" x2="142.008" y1="116" y2="230" gradientUnits="userSpaceOnUse"><stop stop-color="#9396ff"/><stop offset="1" stop-color="#6e3aff"/></linearGradient><linearGradient id="c" x1="142.008" x2="142.008" y1="116" y2="230" gradientUnits="userSpaceOnUse"><stop stop-color="#9396ff"/><stop offset="1" stop-color="#6e3aff"/></linearGradient></defs></svg>