<svg xmlns="http://www.w3.org/2000/svg" width="387" height="646" fill="none" viewBox="0 0 387 646"><g filter="url(#a)"><path fill="#fff" d="M157 19a8 8 0 0 1 8-8h137a8 8 0 0 1 8 8v34a8 8 0 0 1-8 8H165a8 8 0 0 1-8-8z"/><path stroke="#f8f8f8" stroke-width="2" d="M302 10a9 9 0 0 1 9 9v34a9 9 0 0 1-9 9H165a9 9 0 0 1-9-9V19a9 9 0 0 1 9-9z"/><rect width="22" height="22" x="171" y="25" fill="#f5f5f7" rx="11"/><path stroke="#000" stroke-linecap="round" stroke-linejoin="round" stroke-width=".718" d="m185.152 39.152-1.484-1.484m.8-1.934a2.734 2.734 0 1 1-5.468 0 2.734 2.734 0 0 1 5.468 0"/><path fill="#000" d="M202.83 32.5v-7.11h5.591v7.11h-.982v-6.294h-3.627V32.5zm6.841-2.554v-.156q0-1.187.693-1.938.699-.757 1.861-.757 1.167 0 1.86.757.698.75.698 1.938v.156q0 1.192-.698 1.948-.693.753-1.86.753-1.162 0-1.861-.752-.693-.757-.693-1.949m.972-.156v.156q0 .805.395 1.363.4.55 1.187.551.79 0 1.191-.551.4-.558.4-1.363v-.156q0-.796-.4-1.348-.4-.556-1.191-.556-.786 0-1.187.556-.396.552-.395 1.348m5.283 2.71v-5.259h.942v3.277q0 .15-.005.341 0 .186-.005.337h.044q.068-.127.152-.273.087-.147.185-.303l2.144-3.379h.962V32.5h-.943v-3.613q.005-.191.015-.337h-.054a6 6 0 0 1-.151.273 6 6 0 0 1-.181.308l-2.143 3.369zm5.561-2.554v-.156q0-1.187.669-1.938.669-.757 1.836-.757 1.084 0 1.646.566.566.567.566 1.265v.024h-.923v-.024q0-.416-.307-.728-.303-.317-.982-.317-.791 0-1.162.556-.37.553-.371 1.353v.156q0 .805.371 1.363.371.55 1.162.551.68 0 .982-.312.307-.317.307-.728v-.024h.923v.024q0 .695-.566 1.26-.562.567-1.646.567-1.167 0-1.836-.752-.669-.757-.669-1.949m9.087 2.554-2.06-2.436.595-.616 2.652 3.052zm-2.944-3.042h.952l1.846-2.217h1.089l-2.51 2.969h-1.377zm.474-2.217V32.5h-.948v-5.259zm6.816 5.259v-5.259h.942v3.277q0 .15-.005.341 0 .186-.004.337h.043l.152-.273q.087-.147.185-.303l2.144-3.379h.962V32.5h-.943v-3.613q.006-.191.015-.337h-.054a6 6 0 0 1-.151.273 6 6 0 0 1-.181.308l-2.143 3.369zm5.561-2.554v-.156q0-1.187.669-1.938.669-.757 1.836-.757 1.084 0 1.646.566.566.567.566 1.265v.024h-.923v-.024q0-.416-.307-.728-.303-.317-.982-.317-.79 0-1.162.556-.37.553-.371 1.353v.156q0 .805.371 1.363.372.55 1.162.551.68 0 .982-.312.307-.317.307-.728v-.024h.923v.024q0 .695-.566 1.26-.562.567-1.646.567-1.167 0-1.836-.752-.669-.757-.669-1.949m5.669-2.705h4.302V32.5h-.947v-4.502h-2.407V32.5h-.948zm5.445 2.705v-.156q0-1.187.693-1.938.699-.757 1.86-.757 1.167 0 1.861.757.698.75.698 1.938v.156q0 1.192-.698 1.948-.694.753-1.861.753-1.161 0-1.86-.752-.693-.757-.693-1.949m.971-.156v.156q0 .805.396 1.363.4.55 1.186.551.792 0 1.192-.551.4-.558.4-1.363v-.156q0-.796-.4-1.348-.4-.556-1.192-.556-.786 0-1.186.556-.396.552-.396 1.348m6.607-1.792-.088 2.11q-.058 1.289-.352 1.89-.292.595-1.03.595-.171 0-.303-.025a.9.9 0 0 1-.224-.063v-.83q.083.034.171.049.092.015.2.014.37 0 .498-.37.132-.372.176-1.387l.117-2.74h3.779V32.5h-.952v-4.502zm4.399-.757h.948v2.212h2.456v-2.212h.947V32.5h-.947v-2.29h-2.456v2.29h-.948zm5.801 5.259v-5.259h.942v3.277q0 .15-.004.341 0 .186-.005.337h.044q.068-.127.151-.273.088-.147.186-.303l2.143-3.379h.962V32.5h-.942v-3.613q.005-.191.014-.337h-.053a7 7 0 0 1-.152.273 6 6 0 0 1-.18.308l-2.144 3.369zm5.327-4.502v-.757h4.297v.757h-1.675V32.5h-.947v-4.502zm4.893 1.948v-.156q0-1.187.674-1.938.673-.757 1.777-.757 1.113 0 1.709.708.596.703.596 1.9v.4h-4.17v-.762h3.213v-.03q0-.61-.318-1.02-.313-.415-1.015-.415-.743 0-1.123.557-.381.551-.381 1.357v.156q0 .805.4 1.363.4.556 1.24.556.518 0 .889-.215.376-.215.605-.512l.611.507q-.254.371-.796.689-.537.313-1.309.313-1.26 0-1.933-.752-.669-.757-.669-1.949m7.109-1.948-.088 2.11q-.059 1.289-.351 1.89-.293.595-1.031.595-.17 0-.302-.025a.9.9 0 0 1-.225-.063v-.83q.083.034.171.049.093.015.2.014.372 0 .498-.37.132-.372.176-1.387l.117-2.74h3.779V32.5h-.952v-4.502zm5.103 4.502h-1.06l1.528-2.217.962.083zm2.353 0v-1.89h-1.162l-.088-.049q-.938 0-1.445-.439-.508-.44-.508-1.182 0-.771.518-1.235.522-.464 1.479-.464h2.153V32.5zm-1.206-2.646h1.206v-1.856h-1.206q-.571 0-.806.269a1 1 0 0 0-.229.673q0 .4.229.66.235.253.806.253"/><path fill="#bcbccf" d="M202.696 46.5v-5.957h4.762V46.5h-.839v-5.257h-3.089V46.5zm5.826-1.305q0-.68.56-1.056.566-.38 1.428-.38h1.068v-.348a.83.83 0 0 0-.221-.597q-.22-.234-.761-.234-.54 0-.773.21a.62.62 0 0 0-.229.474v.02h-.806v-.02q0-.532.495-.933.495-.4 1.333-.401.84 0 1.302.372.466.372.466 1.109v2.107q0 .266.041.503.045.234.123.413v.066h-.782a1.2 1.2 0 0 1-.11-.278 1.7 1.7 0 0 1-.062-.34q-.167.274-.54.487-.368.213-.953.213-.655 0-1.117-.356-.462-.36-.462-1.031m.806-.041q0 .368.233.577.237.204.728.204.49 0 .888-.31.4-.315.401-.663v-.618h-.982q-.626 0-.949.22a.68.68 0 0 0-.319.59m4.267 3.048v-6.15h.732l.037.582h.021a1.4 1.4 0 0 1 .548-.467q.372-.196.863-.196.88 0 1.408.634t.527 1.604v.13q0 .975-.527 1.609-.528.633-1.408.634a2 2 0 0 1-.839-.164 1.5 1.5 0 0 1-.556-.446v2.23zm.806-3.052q.14.294.45.528.315.228.765.229.667 0 .978-.45.31-.454.311-1.117v-.131q0-.66-.311-1.109-.31-.454-.978-.454-.45 0-.765.233a1.4 1.4 0 0 0-.45.524zm4.046.045a1.2 1.2 0 0 1 .561-1.056q.564-.38 1.428-.38h1.068v-.348a.83.83 0 0 0-.221-.597q-.22-.234-.761-.234-.54 0-.773.21a.62.62 0 0 0-.23.474v.02h-.806v-.02q0-.532.495-.933.495-.4 1.334-.401.839 0 1.301.372.467.372.467 1.109v2.107q0 .266.041.503.045.234.122.413v.066h-.781a1.3 1.3 0 0 1-.111-.278 1.7 1.7 0 0 1-.061-.34q-.168.274-.54.487-.368.213-.953.213-.655 0-1.117-.356-.462-.36-.463-1.031m.806-.041q0 .368.234.577.237.204.728.204.49 0 .888-.31.4-.315.401-.663v-.618h-.982q-.627 0-.949.22a.68.68 0 0 0-.32.59m4.268 1.346v-4.447h1.149l1.216 3.068q.097.246.126.34.033.095.054.192h.041q.024-.098.049-.192.028-.094.131-.332l1.219-3.076h1.125V46.5h-.786v-3.023q0-.25.004-.356.008-.111.017-.197h-.037a4 4 0 0 1-.053.197q-.033.106-.127.343l-1.207 3.036h-.757l-1.207-3.048a8 8 0 0 1-.123-.327l-.053-.2h-.041q.008.084.017.191.008.107.004.332V46.5zm6.067-2.16v-.131q0-1.002.577-1.64.577-.64 1.522-.64.95 0 1.461.598.511.597.511 1.608v.344h-3.572v-.65h2.754v.008q0-.533-.266-.884-.261-.352-.888-.352-.626 0-.953.466-.327.463-.327 1.142v.13q0 .68.343 1.15.344.467 1.064.467.446 0 .765-.18a1.7 1.7 0 0 0 .516-.43l.519.438q-.213.311-.675.577-.462.262-1.125.262-1.076 0-1.653-.634-.573-.638-.573-1.65m4.46-1.637v-.65h3.662v.65h-1.428V46.5h-.806v-3.797zm4.431 5.499v-6.15h.732l.037.582h.021a1.4 1.4 0 0 1 .548-.467q.372-.196.863-.196.88 0 1.408.634t.527 1.604v.13q0 .975-.527 1.609-.528.633-1.408.634a2 2 0 0 1-.839-.164 1.5 1.5 0 0 1-.556-.446v2.23zm.806-3.052q.14.294.45.528.315.228.765.229.668 0 .978-.45.31-.454.311-1.117v-.131q0-.66-.311-1.109-.31-.454-.978-.454-.45 0-.765.233a1.4 1.4 0 0 0-.45.524zm4.398.92q0-.212.139-.364.14-.155.397-.155a.5.5 0 0 1 .532.52.53.53 0 0 1-.139.368.5.5 0 0 1-.393.151q-.258 0-.397-.151a.54.54 0 0 1-.139-.369m0-3.567q0-.218.139-.368.14-.156.397-.156a.5.5 0 0 1 .532.524.52.52 0 0 1-.139.364.5.5 0 0 1-.393.151q-.258 0-.397-.151a.52.52 0 0 1-.139-.364m7.909 5.102V46.5h-3.277v1.105h-.753V45.85h4.783v1.755zm-2.451-4.902-.053 1.232q-.045.978-.106 1.354a2.1 2.1 0 0 1-.172.601h-.823q.173-.233.246-.605.077-.372.119-1.424l.077-1.808h3.282V46.5h-.811v-3.797zm3.895 3.797v-4.447h.806v2.782q0 .127-.004.286 0 .16-.004.287h.033q.057-.107.127-.23.073-.126.159-.257l1.833-2.868h.822V46.5h-.806v-3.06l.009-.287h-.033a8 8 0 0 1-.286.487l-1.833 2.86zm6.432.123q-.933 0-1.416-.467-.483-.465-.483-1.039v-.02h.79v.02q0 .327.262.581t.847.254q.544 0 .806-.197a.64.64 0 0 0 .266-.548q0-.299-.213-.47-.208-.172-.745-.172h-.773v-.643h.778q.43 0 .617-.167.189-.168.189-.47 0-.344-.213-.512-.209-.168-.667-.168-.552 0-.806.254a.8.8 0 0 0-.25.576v.021h-.785v-.02q0-.577.466-1.04.47-.465 1.375-.466.773 0 1.235.331.463.327.463.978a.92.92 0 0 1-.225.63q-.225.25-.61.332v.012q.462.07.716.331a.9.9 0 0 1 .258.663q0 .67-.52 1.043-.515.373-1.362.373m2.545-1.428q0-.68.56-1.056.566-.38 1.428-.38h1.068v-.348a.83.83 0 0 0-.221-.597q-.22-.234-.761-.234-.54 0-.773.21a.62.62 0 0 0-.229.474v.02h-.806v-.02q0-.532.495-.933.495-.4 1.334-.401.838 0 1.301.372.466.372.466 1.109v2.107q0 .266.041.503.045.234.123.413v.066h-.782a1.2 1.2 0 0 1-.11-.278 1.7 1.7 0 0 1-.062-.34q-.166.274-.54.487-.368.213-.953.213-.654 0-1.117-.356-.462-.36-.462-1.031m.806-.041q0 .368.233.577.237.204.728.204t.888-.31q.4-.315.401-.663v-.618h-.982q-.626 0-.949.22a.68.68 0 0 0-.319.59m4.267 1.346v-4.447h.806v2.782q0 .127-.004.286 0 .16-.004.287h.033l.126-.23q.075-.126.16-.257l1.833-2.868h.822V46.5h-.806v-3.06l.009-.287h-.033a8 8 0 0 1-.287.487l-1.833 2.86zm1.89-5.847q.328 0 .524-.167.2-.168.352-.581l.609.36q-.225.528-.609.773-.381.24-.876.241-.495 0-.875-.241-.381-.242-.606-.773l.61-.364q.151.417.348.585.2.167.523.167m3.093 1.4h.806v1.87h2.116v-1.87h.806V46.5h-.806v-1.927h-2.116V46.5h-.806zm4.685 2.287v-.131q0-1.002.577-1.64.577-.64 1.522-.64.95 0 1.461.598.511.597.511 1.608v.344h-3.572v-.65h2.754v.008q0-.533-.266-.884-.263-.352-.888-.352-.626 0-.953.466-.328.463-.328 1.142v.13q0 .68.344 1.15.344.467 1.064.467.446 0 .765-.18t.515-.43l.52.438q-.213.311-.675.577-.462.262-1.125.262-1.077 0-1.653-.634-.573-.638-.573-1.65m4.906 3.862v-6.15h.732l.037.582h.02q.18-.275.549-.467.372-.196.863-.196.879 0 1.407.634t.528 1.604v.13q0 .975-.528 1.609-.528.633-1.407.634a2 2 0 0 1-.839-.164 1.5 1.5 0 0 1-.556-.446v2.23zm.806-3.052q.138.294.45.528.315.228.765.229.666 0 .978-.45.31-.454.311-1.117v-.131q0-.66-.311-1.109-.312-.454-.978-.454-.45 0-.765.233a1.4 1.4 0 0 0-.45.524z"/></g><g filter="url(#b)"><path fill="#fff" d="M181 444a8 8 0 0 1 8-8h143a8 8 0 0 1 8 8v34a8 8 0 0 1-8 8H189a8 8 0 0 1-8-8z"/><path stroke="#f8f8f8" stroke-width="2" d="M332 435a9 9 0 0 1 9 9v34a9 9 0 0 1-9 9H189a9 9 0 0 1-9-9v-34a9 9 0 0 1 9-9z"/><rect width="22" height="22" x="195" y="450" fill="#f5f5f7" rx="11"/><g stroke="#000" stroke-linecap="round" stroke-linejoin="round" clip-path="url(#c)"><path d="m208.667 458-4.584 4.583L202 460.5M210.333 459.656l-3.125 3.125-.625-.625"/></g><path fill="#000" d="M232.567 457.5h-.981v-5.107q0-.147.005-.328.01-.185.019-.332h-.044a5 5 0 0 1-.151.269l-.181.293-3.383 5.205h-1.021v-7.109h.982v5.039q0 .145-.01.381a8 8 0 0 1-.015.376h.044a6 6 0 0 1 .347-.611l3.369-5.185h1.02zm1.25-2.554v-.156q0-1.187.669-1.938.669-.757 1.836-.757 1.084 0 1.646.566.566.566.566 1.265v.024h-.923v-.024q0-.415-.307-.728-.303-.317-.982-.317-.79 0-1.162.557-.37.55-.371 1.352v.156q0 .806.371 1.363.372.55 1.162.551.68 0 .982-.312.307-.317.307-.728v-.024h.923v.024q0 .694-.566 1.26-.562.566-1.646.566-1.167 0-1.836-.751-.669-.757-.669-1.949m5.669-2.705h4.302v5.259h-.947v-4.502h-2.407v4.502h-.948zm5.445 2.705v-.156q0-1.187.693-1.938.699-.757 1.86-.757 1.167 0 1.861.757.698.751.698 1.938v.156q0 1.192-.698 1.949-.694.751-1.861.751-1.161 0-1.86-.751-.693-.757-.693-1.949m.971-.156v.156q0 .806.396 1.363.4.55 1.186.551.792 0 1.192-.551.4-.557.4-1.363v-.156q0-.796-.4-1.348-.4-.556-1.192-.556-.786 0-1.186.556-.396.552-.396 1.348m6.607-1.792-.088 2.109q-.058 1.29-.352 1.89-.292.596-1.03.596-.171 0-.303-.025a1 1 0 0 1-.224-.063v-.83a.8.8 0 0 0 .171.049q.092.014.2.014.37 0 .498-.371.131-.37.176-1.387l.117-2.739h3.779v5.259h-.952v-4.502zm4.399-.757h.947v2.212h2.457v-2.212h.947v5.259h-.947v-2.29h-2.457v2.29h-.947zm5.801 5.259v-5.259h.942v3.277q0 .15-.005.341 0 .186-.004.337h.044q.068-.126.151-.273.088-.147.185-.303l2.144-3.379h.962v5.259h-.942v-3.613a9 9 0 0 1 .014-.337h-.054a6 6 0 0 1-.151.273 5 5 0 0 1-.181.308l-2.143 3.369zm5.327-4.502v-.757h4.297v.757h-1.675v4.502h-.947v-4.502zm4.893 1.948v-.156q0-1.187.674-1.938.673-.757 1.777-.757 1.113 0 1.709.708.596.703.596 1.899v.401h-4.17v-.762h3.213v-.029q0-.611-.318-1.021-.313-.415-1.015-.415-.743 0-1.124.557-.38.551-.38 1.357v.156q0 .806.4 1.363t1.24.556q.518 0 .889-.215.376-.215.605-.512l.611.508q-.255.37-.796.688-.537.312-1.309.312-1.26 0-1.933-.751-.669-.757-.669-1.949m7.109-1.948-.088 2.109q-.059 1.29-.351 1.89-.293.596-1.031.596-.17 0-.302-.025a1 1 0 0 1-.225-.063v-.83a.8.8 0 0 0 .171.049q.092.014.2.014.372 0 .498-.371.132-.37.176-1.387l.117-2.739h3.779v5.259h-.952v-4.502zm5.347-.757v1.817h1.177q.966 0 1.489.463.522.465.522 1.246 0 .786-.522 1.259-.523.474-1.489.474h-2.124v-5.259zm1.177 2.573h-1.177v1.929h1.177q.58 0 .815-.278.234-.279.234-.698 0-.416-.234-.684t-.815-.269m5.473-2.573h.947v2.212h2.456v-2.212h.948v5.259h-.948v-2.29h-2.456v2.29h-.947zm5.518 3.711q0-.801.654-1.245.659-.444 1.665-.444h1.245v-.401q0-.444-.259-.722-.253-.284-.883-.284-.625 0-.894.245a.74.74 0 0 0-.269.566v.024h-.947v-.024q0-.63.576-1.099.577-.473 1.563-.473.976 0 1.518.444.543.444.542 1.323v2.466q0 .318.049.601.054.278.142.493v.078h-.918a1.7 1.7 0 0 1-.127-.327 2 2 0 0 1-.073-.401q-.195.322-.625.577-.43.249-1.109.249-.771 0-1.313-.42-.537-.425-.537-1.226m.947-.049q0 .44.269.689.273.249.849.249.571 0 1.035-.371.465-.377.464-.791v-.738h-1.142q-.728 0-1.104.264a.81.81 0 0 0-.371.698m5 1.597v-5.259h.942v3.277q0 .15-.004.341 0 .186-.005.337h.044q.068-.126.151-.273.088-.147.185-.303l2.144-3.379h.962v5.259h-.942v-3.613a9 9 0 0 1 .014-.337h-.053a8 8 0 0 1-.152.273 5 5 0 0 1-.181.308l-2.143 3.369zm2.212-6.89q.376 0 .61-.195.235-.2.401-.674l.717.425q-.253.62-.703.903a1.9 1.9 0 0 1-1.025.284 1.9 1.9 0 0 1-1.025-.279q-.445-.283-.704-.908l.723-.43q.17.489.4.684.236.19.606.19m7.72 8.208V457.5h-3.863v1.318h-.874v-2.075h5.616v2.075zm-2.871-5.82-.069 1.606q-.043 1.045-.117 1.48-.069.435-.205.723h-.972q.191-.26.283-.703.098-.446.147-1.602l.098-2.261h3.828v5.259h-.952v-4.502zm4.262 1.948v-.156q0-1.187.674-1.938.674-.757 1.777-.757 1.114 0 1.709.708.597.703.596 1.899v.401h-4.17v-.762h3.213v-.029q0-.611-.317-1.021-.313-.415-1.016-.415-.742 0-1.123.557-.381.551-.381 1.357v.156q0 .806.401 1.363.4.556 1.24.556.518 0 .888-.215a2 2 0 0 0 .606-.512l.61.508q-.253.37-.796.688-.537.312-1.308.312-1.26 0-1.934-.751-.669-.757-.669-1.949m5.786-2.705h.948v2.212h2.456v-2.212h.947v5.259h-.947v-2.29h-2.456v2.29h-.948z"/><path fill="#bcbccf" d="M226.696 471.5v-5.957h3.956v.695h-3.122v1.837h2.737v.704h-2.737v2.025h3.167v.696zm4.885-4.447h2.815v.65h-2.009v3.797h-.806zm3.326 2.287v-.131q0-1.002.597-1.641.598-.638 1.588-.638.998 0 1.595.638.598.639.598 1.641v.131q0 1.01-.598 1.649-.597.633-1.595.634-.99 0-1.588-.634-.597-.64-.597-1.649m.826-.131v.131q0 .675.34 1.141.344.467 1.019.467.68 0 1.023-.467.343-.466.343-1.141v-.131q0-.672-.343-1.138t-1.023-.466q-.675 0-1.019.466-.34.466-.34 1.138m4.505 3.993v-6.149h.732l.037.581h.021q.18-.275.548-.467.372-.196.863-.196.88 0 1.408.634t.528 1.604v.131q0 .974-.528 1.608t-1.408.634q-.491 0-.838-.164a1.5 1.5 0 0 1-.557-.446v2.23zm.806-3.052q.14.294.45.528.315.229.765.229.667 0 .978-.45.31-.454.311-1.117v-.131q0-.659-.311-1.109-.31-.454-.978-.454-.45 0-.765.233a1.4 1.4 0 0 0-.45.524zm6.42 1.35v-5.957h4.762v5.957h-.839v-5.257h-3.089v5.257zm5.826-1.305q0-.68.56-1.056.566-.38 1.428-.38h1.068v-.348a.83.83 0 0 0-.221-.597q-.22-.234-.761-.234-.54 0-.773.209a.62.62 0 0 0-.229.475v.02h-.806v-.02q0-.533.495-.933t1.333-.401q.84 0 1.302.372.465.372.466 1.109v2.107q0 .266.041.503.045.234.123.414v.065h-.782a1.2 1.2 0 0 1-.11-.278 1.7 1.7 0 0 1-.062-.34q-.168.274-.54.487-.368.213-.953.213-.655 0-1.117-.356-.462-.36-.462-1.031m.806-.041q0 .368.233.577.237.204.728.204.49 0 .888-.311.4-.315.401-.662v-.618h-.982q-.626 0-.949.221a.68.68 0 0 0-.319.589m3.821-2.451v-.65h3.662v.65h-1.428v3.797h-.806v-3.797zm4.431 5.499v-6.149h.732l.037.581h.021q.18-.275.548-.467.372-.196.863-.196.88 0 1.408.634t.527 1.604v.131q0 .974-.527 1.608-.528.634-1.408.634-.49 0-.839-.164a1.5 1.5 0 0 1-.556-.446v2.23zm.806-3.052q.14.294.45.528.315.229.765.229.668 0 .978-.45.31-.454.311-1.117v-.131q0-.659-.311-1.109-.31-.454-.978-.454-.45 0-.765.233a1.4 1.4 0 0 0-.45.524zm4.284 1.35v-4.447h.806v2.782q0 .127-.004.286 0 .16-.004.287h.032q.058-.107.127-.23.073-.126.16-.257l1.833-2.868h.822v4.447h-.806v-3.06l.008-.287h-.033a7 7 0 0 1-.286.487l-1.833 2.86zm7.876 0-1.727-2.078.512-.516 2.233 2.594zm-2.488-2.573h.823l1.534-1.874h.92l-2.099 2.52h-1.178zm.401-1.874v4.447h-.806v-4.447zm3.47 2.287v-.131q0-1.002.576-1.641.577-.638 1.522-.638.95 0 1.461.597t.512 1.608v.344h-3.572v-.651h2.753v.008q0-.531-.266-.883-.261-.352-.888-.352-.626 0-.953.466-.327.463-.327 1.142v.131q0 .68.344 1.149.343.467 1.063.467.447 0 .765-.18.32-.18.516-.43l.52.438q-.213.311-.676.577-.462.261-1.125.262-1.075 0-1.653-.634-.572-.64-.572-1.649m4.647 0v-.131q0-1.002.577-1.641.577-.638 1.522-.638.95 0 1.461.597t.511 1.608v.344h-3.571v-.651h2.753v.008q0-.531-.266-.883-.261-.352-.888-.352-.626 0-.953.466-.327.463-.327 1.142v.131q0 .68.343 1.149.345.467 1.064.467.446 0 .765-.18.32-.18.516-.43l.519.438q-.212.311-.675.577-.462.261-1.125.262-1.075 0-1.653-.634-.573-.64-.573-1.649m4.906 2.16v-4.447h1.919q.74 0 1.174.298.434.295.434.892a.9.9 0 0 1-.221.626 1.08 1.08 0 0 1-.597.332v.012q.461.07.716.331a.9.9 0 0 1 .257.663q0 .61-.454.953-.45.34-1.182.34zm.806-2.578h1.113q.422 0 .605-.167.189-.168.189-.471 0-.294-.189-.429-.183-.135-.605-.152h-1.113zm0 1.927h1.24q.425 0 .626-.167.2-.168.2-.475a.59.59 0 0 0-.196-.47q-.197-.172-.63-.172h-1.24z"/><circle cx="6" cy="6" r="5.25" fill="#fff" stroke="#e4e4e4" stroke-width="1.5" transform="matrix(-1 0 0 1 266 428)"/></g><g filter="url(#d)"><path fill="#fff" d="M47 194a8 8 0 0 1 8-8h143a8 8 0 0 1 8 8v70a8 8 0 0 1-8 8H55a8 8 0 0 1-8-8z"/><path stroke="#f8f8f8" stroke-width="2" d="M198 185a9 9 0 0 1 9 9v70a9 9 0 0 1-9 9H55a9 9 0 0 1-9-9v-70a9 9 0 0 1 9-9z"/><path fill="#000" d="M64.33 207v-7.109h2.446q1.124 0 1.768.454.645.453.645 1.43 0 .586-.308.953a1.7 1.7 0 0 1-.757.522v.02q.552.156.898.576.352.42.352 1.103 0 .977-.669 1.514t-1.777.537zm.962-.806h1.636q.766 0 1.123-.337.356-.34.356-.918 0-.57-.356-.908-.357-.336-1.123-.337h-1.636zm0-3.291h1.484q.767 0 1.104-.293.337-.297.337-.825 0-.522-.337-.806-.337-.282-1.104-.283h-1.484zm6.245-1.162v1.817h1.177q.966 0 1.49.463.521.465.522 1.246 0 .786-.523 1.259-.522.474-1.49.474H70.59v-5.259zm1.177 2.573h-1.177v1.929h1.177q.58 0 .815-.278.235-.279.235-.698 0-.415-.235-.684t-.815-.269m2.69 2.686v-5.259h.948V207zm3.086-2.578v.156q0 .752.4 1.27.401.512 1.187.512.792 0 1.187-.512.4-.518.4-1.27v-.156q0-.747-.4-1.26-.396-.517-1.187-.517-.787 0-1.186.517-.4.513-.4 1.26m1.748-2.564q1.05 0 1.724.723.675.718.674 1.841v.156q0 1.138-.698 1.856-.695.712-1.86.712-1.192 0-1.876-.732-.678-.732-.679-2.27v-.196q0-1.772.61-2.768.616-.996 2.247-1.245.888-.137 1.025-.225.137-.089.161-.21h.82q-.052.547-.42.845-.36.292-1.484.444-1.264.166-1.709.747-.444.576-.522 1.485h.054a1.85 1.85 0 0 1 .737-.86q.498-.303 1.196-.303m3.228 2.588v-.156q0-1.186.693-1.938.699-.757 1.86-.757 1.168 0 1.86.757.7.751.7 1.938v.156q0 1.192-.7 1.949-.692.751-1.86.751-1.161 0-1.86-.751-.693-.757-.693-1.949m.972-.156v.156q0 .806.395 1.363.4.55 1.186.551.792 0 1.192-.551.4-.557.4-1.363v-.156q0-.796-.4-1.348-.4-.556-1.192-.556-.786 0-1.186.556-.395.552-.395 1.348m5.283 4.741v-7.29h.86l.043.689h.024q.21-.327.64-.557t1.001-.229q1.03 0 1.646.752.62.747.62 1.894v.156q0 1.153-.62 1.905-.616.747-1.646.747-.57 0-.977-.196a1.7 1.7 0 0 1-.644-.522v2.651zm.947-3.618q.16.352.522.625.366.273.89.274.776 0 1.137-.538.366-.536.366-1.328v-.156q0-.781-.366-1.318-.361-.537-1.138-.537-.522 0-.889.273-.36.273-.522.62zm7.47 1.587v-5.259h.943v3.277q0 .15-.005.341 0 .186-.005.337h.044q.069-.126.152-.273.087-.147.185-.303l2.144-3.379h.962V207h-.943v-3.613q.004-.191.015-.337h-.054a8 8 0 0 1-.151.273 7 7 0 0 1-.181.308L99.101 207zm7.647.146q-1.118 0-1.68-.556-.561-.557-.561-1.24v-.025h.923v.025q0 .395.303.703.307.307 1.02.307.635 0 .952-.234a.78.78 0 0 0 .322-.659.68.68 0 0 0-.249-.557q-.243-.205-.839-.205h-.918v-.752h.879q.507 0 .732-.2t.225-.557q0-.405-.259-.61-.26-.205-.796-.205-.65 0-.957.303a.97.97 0 0 0-.303.708v.024h-.923v-.024q0-.727.562-1.26.56-.537 1.621-.537.943 0 1.474.395.538.395.538 1.148 0 .434-.269.742a1.24 1.24 0 0 1-.718.4v.015q.542.082.845.391.303.302.303.781 0 .8-.62 1.24-.616.44-1.607.439m5.493-2.7v-.156q0-1.186.669-1.938.669-.757 1.836-.757 1.084 0 1.646.566.566.566.566 1.265v.024h-.923v-.024q0-.415-.307-.728-.303-.317-.982-.317-.791 0-1.162.557-.37.55-.371 1.352v.156q0 .806.371 1.363.371.55 1.162.551.68 0 .982-.312.307-.317.307-.728v-.024h.923v.024q0 .694-.566 1.26-.562.566-1.646.566-1.167 0-1.836-.751-.669-.757-.669-1.949m5.669-2.705h4.302V207h-.947v-4.502h-2.407V207h-.948zm5.752 5.259v-5.259h.943v3.277q0 .15-.005.341 0 .186-.005.337h.044q.068-.126.151-.273l.186-.303 2.143-3.379h.962V207h-.942v-3.613a9 9 0 0 1 .014-.337h-.053a8 8 0 0 1-.152.273 6 6 0 0 1-.18.308L123.661 207zm5.562-2.554v-.156q0-1.186.669-1.938.669-.757 1.836-.757 1.083 0 1.645.566.567.566.567 1.265v.024h-.923v-.024q0-.415-.308-.728-.303-.317-.981-.317-.792 0-1.162.557-.372.55-.372 1.352v.156q0 .806.372 1.363.37.55 1.162.551.678 0 .981-.312.308-.317.308-.728v-.024h.923v.024q0 .694-.567 1.26-.562.566-1.645.566-1.167 0-1.836-.751-.669-.757-.669-1.949m9.087 2.554-2.061-2.437.596-.615 2.651 3.052zm-2.945-3.042h.952l1.846-2.217h1.089l-2.51 2.969h-1.377zm.474-2.217V207h-.947v-5.259zm4.092 3.711q0-.801.654-1.245.66-.444 1.665-.444h1.245v-.401q0-.444-.259-.722-.253-.284-.883-.284-.626 0-.894.245a.74.74 0 0 0-.268.566v.024h-.948v-.024q0-.63.576-1.099.577-.473 1.563-.473.977 0 1.518.444.542.444.542 1.323v2.466q0 .318.049.601.054.278.142.493V207h-.918a1.7 1.7 0 0 1-.127-.327 2 2 0 0 1-.073-.401q-.195.322-.625.577-.43.249-1.109.249-.771 0-1.313-.42-.537-.425-.537-1.226m.947-.049q0 .44.269.689.273.249.849.249.572 0 1.035-.371.464-.377.464-.791v-.738h-1.142q-.727 0-1.104.264a.81.81 0 0 0-.371.698"/><path fill="#bcbccf" d="M64.195 221v-5.957h2.087q.957 0 1.506.38.548.381.548 1.199 0 .491-.262.798a1.4 1.4 0 0 1-.638.438v.016q.465.13.76.483.3.352.3.925 0 .818-.573 1.268-.57.45-1.514.45zm.819-.687h1.395q.651 0 .957-.283.307-.282.307-.761 0-.474-.307-.752-.306-.279-.957-.279h-1.395zm0-2.754h1.268q.65 0 .937-.241.29-.246.29-.684 0-.434-.29-.666-.285-.238-.937-.238h-1.268zm5.306-1.006v1.542h.982q.81 0 1.248.393.438.388.438 1.051 0 .66-.438 1.06t-1.248.401h-1.788v-4.447zm.982 2.193h-.982v1.603h.982q.48 0 .671-.229a.88.88 0 0 0 .193-.581.83.83 0 0 0-.193-.568q-.193-.225-.67-.225M73.557 221v-4.447h.806V221zm2.61-2.168v.13q0 .627.344 1.056t1.018.43q.68 0 1.02-.43.343-.429.343-1.056v-.13q0-.627-.344-1.056-.34-.43-1.019-.43-.675 0-1.018.43-.344.429-.344 1.056m1.473-2.161q.887 0 1.481.602.597.601.597 1.559v.13q0 .958-.597 1.559-.593.602-1.592.602-1.014 0-1.603-.618-.585-.618-.585-1.866v-.188q0-1.478.52-2.316.522-.843 1.897-1.055.762-.119.88-.188.12-.075.14-.176h.69q-.045.466-.351.716-.307.244-1.273.372-1.067.14-1.44.618-.372.475-.437 1.219h.044q.201-.467.618-.716.417-.254 1.01-.254m3.036 6.031v-6.149h.732l.037.581h.02a1.4 1.4 0 0 1 .549-.467q.372-.196.863-.196.88 0 1.407.634.528.634.528 1.604v.131q0 .974-.528 1.608-.527.633-1.407.634-.49 0-.839-.164a1.5 1.5 0 0 1-.556-.446v2.23zm.806-3.052q.14.294.45.528.315.228.765.229.666 0 .978-.45.31-.454.31-1.117v-.131q0-.659-.31-1.109-.312-.454-.978-.454-.45 0-.765.233a1.4 1.4 0 0 0-.45.524zm4.046.045q0-.68.56-1.056.565-.38 1.429-.38h1.067v-.348a.82.82 0 0 0-.22-.597q-.221-.234-.761-.234t-.774.209a.62.62 0 0 0-.229.475v.02h-.806v-.02q0-.532.495-.933.495-.4 1.334-.401.84 0 1.301.372.465.372.466 1.109v2.107q0 .266.041.503.045.234.123.414V221h-.781a1.3 1.3 0 0 1-.11-.278 1.7 1.7 0 0 1-.062-.34q-.168.274-.54.487-.369.213-.954.213-.654 0-1.117-.356-.462-.36-.462-1.031m.806-.041q0 .368.233.577.238.204.729.204a1.4 1.4 0 0 0 .887-.311q.401-.315.401-.662v-.618h-.981q-.627 0-.95.221a.68.68 0 0 0-.319.589m4.267-3.101h.806v1.869h2.116v-1.869h.806V221h-.806v-1.927h-2.115V221h-.806zm4.943 0h.806v1.869h2.115v-1.869h.806V221h-.806v-1.927H96.35V221h-.806zm5.748 0v1.542h.982q.81 0 1.248.393.438.388.438 1.051 0 .66-.438 1.06t-1.248.401h-1.788v-4.447zm.982 2.193h-.982v1.603h.982q.479 0 .671-.229a.88.88 0 0 0 .193-.581.84.84 0 0 0-.193-.568q-.192-.225-.671-.225m2.255 2.254v-4.447h.806V221zm2.021 0v-4.447h.806v2.782q0 .127-.004.286 0 .16-.004.287h.032l.127-.23q.073-.126.16-.257l1.833-2.868h.822V221h-.806v-3.06l.008-.287h-.033a7 7 0 0 1-.286.487l-1.833 2.86zm1.89-5.847q.327 0 .524-.167.2-.168.352-.581l.609.36q-.225.528-.609.773a1.6 1.6 0 0 1-.876.241 1.6 1.6 0 0 1-.876-.241q-.38-.242-.605-.773l.61-.364q.15.417.347.585a.8.8 0 0 0 .524.167m4.881 3.687v-.131q0-1.002.573-1.641.573-.638 1.571-.638.929 0 1.411.479.483.479.483 1.067v.021h-.785v-.021a.83.83 0 0 0-.262-.605q-.262-.266-.847-.266-.68 0-.998.466-.32.463-.319 1.138v.131q0 .679.319 1.145.318.467.998.467.585 0 .847-.262a.85.85 0 0 0 .262-.61v-.02h.785v.02q0 .585-.483 1.064-.482.479-1.411.479-.998 0-1.571-.634-.573-.64-.573-1.649m4.799-2.287h3.687V221h-.806v-3.797h-2.075V221h-.806zm4.902 4.447v-4.447h.806v2.782q0 .127-.004.286 0 .16-.004.287h.032l.127-.23q.073-.126.16-.257l1.833-2.868h.822V221h-.806v-3.06l.008-.287h-.033a7 7 0 0 1-.286.487l-1.833 2.86zm4.725-2.16v-.131q0-1.002.573-1.641.573-.638 1.571-.638.929 0 1.412.479t.483 1.067v.021H131v-.021a.83.83 0 0 0-.262-.605q-.262-.266-.847-.266-.679 0-.998.466-.32.463-.319 1.138v.131q0 .679.319 1.145.319.467.998.467.585 0 .847-.262a.84.84 0 0 0 .262-.61v-.02h.786v.02q0 .585-.483 1.064t-1.412.479q-.998 0-1.571-.634-.573-.64-.573-1.649m4.542 0v-.131q0-1.002.597-1.641.597-.638 1.588-.638.998 0 1.595.638.597.639.598 1.641v.131q0 1.01-.598 1.649-.597.633-1.595.634-.99 0-1.588-.634-.597-.64-.597-1.649m.826-.131v.131q0 .675.34 1.141.344.467 1.019.467.678 0 1.022-.467.344-.466.344-1.141v-.131q0-.672-.344-1.138t-1.022-.466q-.675 0-1.019.466-.34.466-.34 1.138m7.398 2.291-1.727-2.078.511-.516 2.234 2.594zm-2.488-2.573h.822l1.535-1.874h.92l-2.099 2.52h-1.178zm.401-1.874V221h-.806v-4.447zm3.842 4.017a.52.52 0 0 1 .139-.364q.14-.155.397-.155.254 0 .392.155a.52.52 0 0 1 .14.364.54.54 0 0 1-.14.369q-.138.151-.392.151-.258 0-.397-.151a.54.54 0 0 1-.139-.369m0-3.567q0-.218.139-.369.14-.155.397-.155.254 0 .392.155.14.151.14.369a.52.52 0 0 1-.14.364q-.138.151-.392.151-.258 0-.397-.151a.52.52 0 0 1-.139-.364m7.336 3.997-1.727-2.078.511-.516 2.234 2.594zm-2.488-2.573h.822l1.535-1.874h.92l-2.099 2.52h-1.178zm.401-1.874V221h-.806v-4.447zm3.47 2.287v-.131q0-1.002.597-1.641.597-.638 1.587-.638.999 0 1.596.638.597.639.597 1.641v.131q0 1.01-.597 1.649-.597.633-1.596.634-.99 0-1.587-.634-.597-.64-.597-1.649m.826-.131v.131q0 .675.34 1.141.343.467 1.018.467.68 0 1.023-.467.344-.466.344-1.141v-.131q0-.672-.344-1.138t-1.023-.466q-.675 0-1.018.466-.34.466-.34 1.138m4.505 2.291v-4.447h1.149l1.215 3.068q.099.246.127.34.033.095.053.192h.041l.049-.192q.03-.094.131-.332l1.22-3.076h1.125V221h-.786v-3.024q0-.25.004-.356.008-.11.017-.196h-.037a4 4 0 0 1-.053.196 5 5 0 0 1-.127.344L159.239 221h-.757l-1.207-3.048a9 9 0 0 1-.123-.327l-.053-.201h-.041l.017.192q.007.107.004.332V221zm6.088-1.305a1.2 1.2 0 0 1 .56-1.056q.566-.38 1.428-.38h1.068v-.348a.83.83 0 0 0-.221-.597q-.22-.234-.761-.234-.54 0-.773.209a.62.62 0 0 0-.229.475v.02h-.806v-.02q0-.532.495-.933.495-.4 1.333-.401.84 0 1.301.372.467.372.467 1.109v2.107q0 .266.041.503.045.234.123.414V221h-.782a1.66 1.66 0 0 1-.172-.618q-.168.274-.54.487-.368.213-.953.213-.655 0-1.117-.356-.462-.36-.462-1.031m.806-.041q0 .368.233.577.237.204.728.204.49 0 .888-.311.4-.315.401-.662v-.618h-.982q-.626 0-.949.221a.68.68 0 0 0-.319.589m4.267-3.101h.806v1.869h2.115v-1.869h.806V221h-.806v-1.927h-2.115V221h-.806zm8.408 5.552V221h-3.277v1.105h-.753v-1.756h4.783v1.756zm-2.451-4.902-.053 1.232q-.045.978-.107 1.354a2 2 0 0 1-.171.601h-.823a1.5 1.5 0 0 0 .246-.605q.078-.372.118-1.424l.078-1.808h3.281V221h-.81v-3.797zm3.658 2.492q0-.68.56-1.056.566-.38 1.428-.38h1.068v-.348a.83.83 0 0 0-.221-.597q-.22-.234-.761-.234-.54 0-.773.209a.62.62 0 0 0-.229.475v.02h-.806v-.02q0-.532.495-.933.495-.4 1.334-.401.838 0 1.301.372.466.372.466 1.109v2.107q0 .266.041.503.045.234.123.414V221h-.782a1.3 1.3 0 0 1-.11-.278 1.7 1.7 0 0 1-.062-.34q-.166.274-.54.487-.368.213-.953.213-.655 0-1.117-.356-.462-.36-.462-1.031m.806-.041q0 .368.233.577.237.204.728.204.492 0 .888-.311.4-.315.401-.662v-.618h-.982q-.626 0-.949.221a.68.68 0 0 0-.319.589"/><rect width="139" height="28" x="57" y="230" fill="#d9d9d9" opacity=".1" rx="5"/><path fill="#bcbccf" d="M128.355 237.879v-.254q0-1.043.565-1.627.565-.587 1.418-.587.855 0 1.306.448.453.445.515 1.072l.003.031h-.633l-.003-.031a1.13 1.13 0 0 0-.318-.664q-.28-.306-.87-.306-.588 0-.967.445-.377.442-.377 1.219v.254q0 .778.377 1.222.38.442.967.442.59 0 .87-.303.282-.305.318-.667l.003-.03h.633l-.003.03a1.7 1.7 0 0 1-.515 1.075q-.451.445-1.306.445-.853 0-1.418-.584-.565-.587-.565-1.63m4.561 0v-.254q0-1.043.565-1.627.565-.587 1.451-.587.884 0 1.448.587.568.584.568 1.627v.254q0 1.043-.568 1.63-.564.584-1.448.584-.886 0-1.451-.584-.565-.587-.565-1.63m.639 0q0 .778.377 1.222.38.442 1 .442t.997-.442q.38-.445.38-1.222v-.254q0-.778-.38-1.219-.376-.445-.997-.445-.62 0-1 .445-.377.442-.377 1.219zm4.4 2.121v-4.496h1.581q.726 0 1.139.287.417.288.417.905 0 .37-.197.602-.195.232-.485.331v.012q.355.099.577.364.226.266.226.698 0 .618-.433.957-.432.34-1.148.34zm.621-.522h1.056q.494 0 .725-.21.232-.213.232-.574 0-.358-.232-.568-.231-.21-.725-.21h-1.056zm0-2.075h.96q.494 0 .71-.182.219-.185.219-.516 0-.327-.219-.503-.216-.176-.71-.176h-.96zm3.6 2.597v-4.496h3.607V240h-.633v-3.965h-2.341V240zm4.258 0 1.779-4.524h.605l1.778 4.524h-.667l-1.272-3.35a3 3 0 0 1-.08-.22 6 6 0 0 1-.059-.216h-.034a2 2 0 0 1-.058.216q-.034.106-.078.22l-1.284 3.35zm.763-1.146.197-.531 2.227.006.197.532zm7.679 2.041V240h-3.505v.895h-.586v-1.426h4.678v1.426zm-3.122-5.391h3.122V240h-.633v-3.965h-1.961l-.077 1.936q-.031.779-.136 1.109-.101.33-.275.506h-.66q.228-.187.339-.519.114-.333.155-1.102zM156.21 240v-4.496h2.998v.528h-2.365v1.383h2.072v.532h-2.072v1.525h2.399V240zm3.894 0v-4.496h.633v1.911h2.402v-1.911h.633V240h-.633v-2.053h-2.402V240zm8.528 0h-.633v-3.205q0-.093.006-.207.006-.117.013-.21h-.031a2 2 0 0 1-.093.17 5 5 0 0 1-.117.185l-2.18 3.267h-.649v-4.496h.633v3.14q0 .093-.006.257l-.012.253h.031a4 4 0 0 1 .222-.401l2.168-3.249h.648zm4.187 0h-.633v-1.794h-1.204l-.105-.028q-.59-.086-.908-.444-.318-.359-.318-.89 0-.608.417-.972.42-.368 1.189-.368h1.562zm-.633-2.319v-1.652h-.929q-.547 0-.76.235a.83.83 0 0 0-.213.58q0 .349.213.593t.76.244zM170.105 240h-.689l1.167-2.075h.68zM63.525 240v-4.496h3.607V240h-.633v-3.965h-2.341V240zm4.258 0 1.779-4.524h.605L71.945 240h-.667l-1.272-3.35a3 3 0 0 1-.08-.22q-.03-.105-.059-.216h-.034a2 2 0 0 1-.058.216q-.034.106-.078.22L68.413 240zm.763-1.146.197-.531 2.227.006.197.532zm4.05 1.146v-4.496h1.588q.79 0 1.213.377.423.376.423 1.003t-.422 1.01-1.214.383h-.954V240zm.634-2.251h.954q.56 0 .781-.25a.9.9 0 0 0 .226-.615.86.86 0 0 0-.226-.605q-.222-.247-.781-.247h-.954zM76.1 240l1.779-4.524h.605L80.264 240h-.667l-1.272-3.35a3 3 0 0 1-.08-.22 5 5 0 0 1-.06-.216h-.033a2 2 0 0 1-.059.216q-.034.106-.077.22L76.73 240zm.763-1.146.198-.531 2.226.006.198.532zM80.915 240v-4.496h.859l1.334 3.249.15.385h.029l.068-.191.077-.194 1.306-3.249h.892V240h-.614v-3.279q0-.093.003-.207.006-.117.018-.21h-.034q-.03.093-.074.21a5 5 0 0 1-.077.207L83.534 240h-.55l-1.346-3.279a6 6 0 0 1-.077-.207 2 2 0 0 1-.053-.21h-.037l.019.21q.009.114.009.207V240zm5.895 0v-4.496h2.998v.528h-2.365v1.383h2.072v.532h-2.072v1.525h2.4V240zm3.443-3.968v-.528h3.686v.528h-1.528V240h-.63v-3.968zM94.665 240v-4.496h1.587q.79 0 1.214.377.423.376.423 1.003t-.423 1.01-1.214.383h-.954V240zm.633-2.251h.954q.559 0 .782-.25a.9.9 0 0 0 .225-.615.86.86 0 0 0-.225-.605q-.224-.247-.782-.247h-.954zm3.397-2.245h.633v1.692h.954q.79 0 1.213.389.423.386.423 1.019t-.423 1.016q-.423.38-1.213.38h-1.587zm.633 2.22v1.748h.954q.559 0 .781-.25a.9.9 0 0 0 .225-.618.9.9 0 0 0-.225-.623q-.222-.257-.781-.257zm3.118 2.276h.633v-4.496h-.633z"/><path fill="#2887ec" d="m129.232 252 2.373-5.241h-3.315v-.716h4.194v.499L130.095 252zm6.722 0v-4.754h-.049l-1.907 2.671h3.617v.696h-4.57v-.589l2.921-3.981h.781V252zm4.451 1.702v-6.149h.733l.036.581h.021q.18-.275.548-.467.372-.196.863-.196.88 0 1.408.634t.528 1.604v.131q0 .974-.528 1.608-.528.633-1.408.634-.491 0-.838-.164a1.5 1.5 0 0 1-.557-.446v2.23zm.806-3.052q.14.294.45.528.315.228.765.229.667 0 .978-.45.31-.454.311-1.117v-.131q0-.659-.311-1.109-.31-.454-.978-.454-.45 0-.765.233a1.4 1.4 0 0 0-.45.524zm4.026-.81v-.131q0-1.002.577-1.641.577-.638 1.522-.638.95 0 1.461.597t.511 1.608v.344h-3.572v-.651h2.754v.008q0-.531-.266-.883-.262-.352-.888-.352t-.953.466q-.328.463-.328 1.142v.131q0 .68.344 1.149.344.467 1.064.467.446 0 .765-.18t.515-.43l.52.438q-.213.311-.675.577-.462.262-1.125.262-1.077 0-1.653-.634-.573-.64-.573-1.649m6.354 2.283q-.933 0-1.416-.467-.482-.466-.482-1.039v-.02h.789v.02a.8.8 0 0 0 .262.581q.262.254.847.254.544 0 .806-.197a.64.64 0 0 0 .266-.548.57.57 0 0 0-.213-.47q-.209-.172-.744-.172h-.774v-.643h.778q.43 0 .617-.167.189-.168.189-.471 0-.343-.213-.511-.208-.168-.667-.168-.552 0-.806.254a.8.8 0 0 0-.25.577v.02h-.785v-.02q0-.577.466-1.04.47-.466 1.375-.466.773 0 1.236.331.462.328.462.978a.91.91 0 0 1-.225.63q-.225.25-.61.332v.012q.463.07.716.331a.9.9 0 0 1 .258.663q0 .67-.52 1.043-.514.373-1.362.373m2.41 1.579v-.691a2 2 0 0 0 .519.073.8.8 0 0 0 .512-.159q.204-.16.487-.962v-.004l-1.71-4.406h.806l1.084 2.888q.062.167.11.332.053.159.086.319h.025q.028-.16.082-.319.053-.165.114-.332l1.019-2.888h.765l-1.87 5.02q-.216.573-.581.892-.36.318-.884.319-.175 0-.31-.021a1.4 1.4 0 0 1-.254-.061m5.621-5.499-.073 1.792q-.05 1.068-.303 1.575-.254.504-.867.504-.148 0-.254-.021a.7.7 0 0 1-.184-.053v-.72a.7.7 0 0 0 .143.041q.078.012.168.012.303 0 .413-.303.111-.303.147-1.141l.099-2.336h3.244V252h-.81v-3.797zm4.55-.65v1.542h.982q.81 0 1.248.393.438.388.438 1.051 0 .66-.438 1.06t-1.248.401h-1.788v-4.447zm.982 2.193h-.982v1.603h.982q.479 0 .671-.229a.88.88 0 0 0 .192-.581.84.84 0 0 0-.192-.568q-.192-.225-.671-.225m2.095-1.543v-.65h3.662v.65h-1.428V252h-.806v-3.797zm4.194 2.492a1.2 1.2 0 0 1 .56-1.056q.564-.38 1.428-.38h1.068v-.348a.83.83 0 0 0-.221-.597q-.22-.234-.761-.234-.54 0-.773.209a.62.62 0 0 0-.23.475v.02h-.806v-.02q0-.532.496-.933.495-.4 1.333-.401.839 0 1.301.372.467.372.467 1.109v2.107q0 .266.041.503.045.234.122.414V252h-.781a1.66 1.66 0 0 1-.172-.618q-.168.274-.54.487-.368.213-.953.213-.655 0-1.117-.356-.462-.36-.462-1.031m.806-.041q0 .368.233.577.237.204.728.204.49 0 .888-.311.4-.315.401-.662v-.618h-.982q-.626 0-.949.221a.68.68 0 0 0-.319.589m3.821-2.451v-.65h3.662v.65h-1.428V252h-.806v-3.797zm4.173 1.637v-.131q0-1.002.598-1.641.597-.638 1.587-.638.998 0 1.596.638.597.639.597 1.641v.131q0 1.01-.597 1.649-.598.633-1.596.634-.99 0-1.587-.634-.598-.64-.598-1.649m.827-.131v.131q0 .675.339 1.141.344.467 1.019.467.68 0 1.023-.467.343-.466.343-1.141v-.131q0-.672-.343-1.138t-1.023-.466q-.675 0-1.019.466-.339.466-.339 1.138m4.504 2.291v-4.447h1.919q.74 0 1.174.298.434.295.434.892a.9.9 0 0 1-.221.626 1.07 1.07 0 0 1-.597.332v.012q.462.07.716.331a.9.9 0 0 1 .258.663q0 .61-.455.953-.45.34-1.182.34zm.806-2.578h1.113q.422 0 .606-.167.188-.168.188-.471 0-.294-.188-.429-.184-.135-.606-.152h-1.113zm0 1.927h1.24q.425 0 .626-.167.2-.168.2-.475a.59.59 0 0 0-.196-.47q-.197-.172-.63-.172h-1.24z"/><path fill="#000" d="M63.47 249.189v-.335q0-1.383.745-2.156.75-.778 1.919-.778 1.166 0 1.91.778.75.773.75 2.156v.335q0 1.383-.75 2.16-.744.774-1.91.774-1.17 0-1.919-.774-.744-.777-.745-2.16m.843 0q0 1.035.5 1.624.498.586 1.321.586.819 0 1.317-.586.5-.589.5-1.624v-.335q0-1.035-.5-1.62-.498-.59-1.317-.59-.822 0-1.322.59-.498.585-.499 1.62zm5.56-1.636h3.687V252h-.806v-3.797H70.68V252h-.806zm5.708 0v1.542h.982q.81 0 1.248.393.438.388.438 1.051 0 .66-.438 1.06t-1.248.401h-1.788v-4.447zm.982 2.193h-.982v1.603h.982q.48 0 .671-.229a.88.88 0 0 0 .192-.581.83.83 0 0 0-.192-.568q-.192-.225-.671-.225M78.817 252v-4.447h.806V252zm1.576-3.797v-.65h3.661v.65h-1.428V252h-.806v-3.797zm4.267 4.705q.2-.27.307-.552.11-.282.11-.663v-.654h.773v.654q0 .47-.2.859a2.2 2.2 0 0 1-.536.68zm4.623-5.355h2.815v.65H90.09V252h-.806zm3.584 6.149v-6.149h.733l.036.581h.02q.18-.275.55-.467.371-.196.862-.196.88 0 1.408.634t.528 1.604v.131q0 .974-.528 1.608-.528.633-1.408.634-.49 0-.838-.164a1.5 1.5 0 0 1-.557-.446v2.23zm.806-3.052q.14.294.45.528.315.228.765.229.668 0 .978-.45.311-.454.311-1.117v-.131q0-.659-.31-1.109-.312-.454-.979-.454-.45 0-.765.233a1.4 1.4 0 0 0-.45.524zm4.026-.81v-.131q0-1.002.577-1.641.577-.638 1.522-.638.95 0 1.461.597t.511 1.608v.344h-3.572v-.651h2.754v.008q0-.531-.266-.883-.263-.352-.888-.352-.626 0-.953.466-.328.463-.328 1.142v.131q0 .68.344 1.149.345.467 1.064.467.445 0 .765-.18t.516-.43l.519.438q-.213.311-.675.577-.462.262-1.125.262-1.075 0-1.653-.634-.573-.64-.573-1.649m4.906 2.16v-4.447h.806v2.782q0 .127-.004.286 0 .16-.004.287h.032l.127-.23q.073-.126.16-.257l1.833-2.868h.822V252h-.806v-3.06l.008-.287h-.032q-.058.107-.131.233a5 5 0 0 1-.156.254l-1.833 2.86zm1.89-5.847q.327 0 .524-.167.2-.168.352-.581l.609.36q-.225.528-.609.773a1.6 1.6 0 0 1-.876.241 1.6 1.6 0 0 1-.876-.241q-.38-.242-.605-.773l.61-.364q.15.417.347.585a.8.8 0 0 0 .524.167m6.559 6.952V252h-3.278v1.105h-.752v-1.756h4.782v1.756zm-2.451-4.902-.053 1.232q-.045.978-.107 1.354a2 2 0 0 1-.172.601h-.822q.172-.233.246-.605.077-.372.118-1.424l.078-1.808h3.281V252h-.81v-3.797z"/></g><circle cx="6" cy="6" r="5.25" fill="#fff" stroke="#e4e4e4" stroke-width="1.5" transform="matrix(-1 0 0 1 133 178)"/><path stroke="#e4e4e4" d="M260 429c0-117.935-133-27.826-133-150"/><path stroke="url(#e)" d="M202 357.5c-16-3.5-30.5-6.5-45.5-13.5"/><path stroke="#e4e4e4" d="M234 68c0 86.486-107 20.406-107 110"/><g filter="url(#f)"><circle cx="201.54" cy="357.537" r="1" fill="#3297fb" transform="rotate(16.238 201.54 357.537)"/></g><defs><filter id="a" width="247" height="221" x="110" y="0" color-interpolation-filters="sRGB" filterUnits="userSpaceOnUse"><feFlood flood-opacity="0" result="BackgroundImageFix"/><feColorMatrix in="SourceAlpha" result="hardAlpha" values="0 0 0 0 0 0 0 0 0 0 0 0 0 0 0 0 0 0 127 0"/><feOffset dy="7"/><feGaussianBlur stdDeviation="8"/><feColorMatrix values="0 0 0 0 0.741176 0 0 0 0 0.741176 0 0 0 0 0.741176 0 0 0 0.1 0"/><feBlend in2="BackgroundImageFix" result="effect1_dropShadow_2004_1241"/><feColorMatrix in="SourceAlpha" result="hardAlpha" values="0 0 0 0 0 0 0 0 0 0 0 0 0 0 0 0 0 0 127 0"/><feOffset dy="28"/><feGaussianBlur stdDeviation="14"/><feColorMatrix values="0 0 0 0 0.741176 0 0 0 0 0.741176 0 0 0 0 0.741176 0 0 0 0.09 0"/><feBlend in2="effect1_dropShadow_2004_1241" result="effect2_dropShadow_2004_1241"/><feColorMatrix in="SourceAlpha" result="hardAlpha" values="0 0 0 0 0 0 0 0 0 0 0 0 0 0 0 0 0 0 127 0"/><feOffset dy="64"/><feGaussianBlur stdDeviation="19"/><feColorMatrix values="0 0 0 0 0.741176 0 0 0 0 0.741176 0 0 0 0 0.741176 0 0 0 0.05 0"/><feBlend in2="effect2_dropShadow_2004_1241" result="effect3_dropShadow_2004_1241"/><feColorMatrix in="SourceAlpha" result="hardAlpha" values="0 0 0 0 0 0 0 0 0 0 0 0 0 0 0 0 0 0 127 0"/><feOffset dy="113"/><feGaussianBlur stdDeviation="22.5"/><feColorMatrix values="0 0 0 0 0.741176 0 0 0 0 0.741176 0 0 0 0 0.741176 0 0 0 0.01 0"/><feBlend in2="effect3_dropShadow_2004_1241" result="effect4_dropShadow_2004_1241"/><feBlend in="SourceGraphic" in2="effect4_dropShadow_2004_1241" result="shape"/></filter><filter id="b" width="253" height="227" x="134" y="419" color-interpolation-filters="sRGB" filterUnits="userSpaceOnUse"><feFlood flood-opacity="0" result="BackgroundImageFix"/><feColorMatrix in="SourceAlpha" result="hardAlpha" values="0 0 0 0 0 0 0 0 0 0 0 0 0 0 0 0 0 0 127 0"/><feOffset dy="7"/><feGaussianBlur stdDeviation="8"/><feColorMatrix values="0 0 0 0 0.741176 0 0 0 0 0.741176 0 0 0 0 0.741176 0 0 0 0.1 0"/><feBlend in2="BackgroundImageFix" result="effect1_dropShadow_2004_1241"/><feColorMatrix in="SourceAlpha" result="hardAlpha" values="0 0 0 0 0 0 0 0 0 0 0 0 0 0 0 0 0 0 127 0"/><feOffset dy="28"/><feGaussianBlur stdDeviation="14"/><feColorMatrix values="0 0 0 0 0.741176 0 0 0 0 0.741176 0 0 0 0 0.741176 0 0 0 0.09 0"/><feBlend in2="effect1_dropShadow_2004_1241" result="effect2_dropShadow_2004_1241"/><feColorMatrix in="SourceAlpha" result="hardAlpha" values="0 0 0 0 0 0 0 0 0 0 0 0 0 0 0 0 0 0 127 0"/><feOffset dy="64"/><feGaussianBlur stdDeviation="19"/><feColorMatrix values="0 0 0 0 0.741176 0 0 0 0 0.741176 0 0 0 0 0.741176 0 0 0 0.05 0"/><feBlend in2="effect2_dropShadow_2004_1241" result="effect3_dropShadow_2004_1241"/><feColorMatrix in="SourceAlpha" result="hardAlpha" values="0 0 0 0 0 0 0 0 0 0 0 0 0 0 0 0 0 0 127 0"/><feOffset dy="113"/><feGaussianBlur stdDeviation="22.5"/><feColorMatrix values="0 0 0 0 0.741176 0 0 0 0 0.741176 0 0 0 0 0.741176 0 0 0 0.01 0"/><feBlend in2="effect3_dropShadow_2004_1241" result="effect4_dropShadow_2004_1241"/><feBlend in="SourceGraphic" in2="effect4_dropShadow_2004_1241" result="shape"/></filter><filter id="d" width="253" height="257" x="0" y="175" color-interpolation-filters="sRGB" filterUnits="userSpaceOnUse"><feFlood flood-opacity="0" result="BackgroundImageFix"/><feColorMatrix in="SourceAlpha" result="hardAlpha" values="0 0 0 0 0 0 0 0 0 0 0 0 0 0 0 0 0 0 127 0"/><feOffset dy="7"/><feGaussianBlur stdDeviation="8"/><feColorMatrix values="0 0 0 0 0.741176 0 0 0 0 0.741176 0 0 0 0 0.741176 0 0 0 0.1 0"/><feBlend in2="BackgroundImageFix" result="effect1_dropShadow_2004_1241"/><feColorMatrix in="SourceAlpha" result="hardAlpha" values="0 0 0 0 0 0 0 0 0 0 0 0 0 0 0 0 0 0 127 0"/><feOffset dy="28"/><feGaussianBlur stdDeviation="14"/><feColorMatrix values="0 0 0 0 0.741176 0 0 0 0 0.741176 0 0 0 0 0.741176 0 0 0 0.09 0"/><feBlend in2="effect1_dropShadow_2004_1241" result="effect2_dropShadow_2004_1241"/><feColorMatrix in="SourceAlpha" result="hardAlpha" values="0 0 0 0 0 0 0 0 0 0 0 0 0 0 0 0 0 0 127 0"/><feOffset dy="64"/><feGaussianBlur stdDeviation="19"/><feColorMatrix values="0 0 0 0 0.741176 0 0 0 0 0.741176 0 0 0 0 0.741176 0 0 0 0.05 0"/><feBlend in2="effect2_dropShadow_2004_1241" result="effect3_dropShadow_2004_1241"/><feColorMatrix in="SourceAlpha" result="hardAlpha" values="0 0 0 0 0 0 0 0 0 0 0 0 0 0 0 0 0 0 127 0"/><feOffset dy="113"/><feGaussianBlur stdDeviation="22.5"/><feColorMatrix values="0 0 0 0 0.741176 0 0 0 0 0.741176 0 0 0 0 0.741176 0 0 0 0.01 0"/><feBlend in2="effect3_dropShadow_2004_1241" result="effect4_dropShadow_2004_1241"/><feBlend in="SourceGraphic" in2="effect4_dropShadow_2004_1241" result="shape"/></filter><filter id="f" width="19.806" height="19.805" x="191.637" y="347.636" color-interpolation-filters="sRGB" filterUnits="userSpaceOnUse"><feFlood flood-opacity="0" result="BackgroundImageFix"/><feColorMatrix in="SourceAlpha" result="hardAlpha" values="0 0 0 0 0 0 0 0 0 0 0 0 0 0 0 0 0 0 127 0"/><feOffset/><feGaussianBlur stdDeviation=".106"/><feColorMatrix values="0 0 0 0 0.235294 0 0 0 0 0.607843 0 0 0 0 0.976471 0 0 0 1 0"/><feBlend in2="BackgroundImageFix" result="effect1_dropShadow_2004_1241"/><feColorMatrix in="SourceAlpha" result="hardAlpha" values="0 0 0 0 0 0 0 0 0 0 0 0 0 0 0 0 0 0 127 0"/><feOffset/><feGaussianBlur stdDeviation=".212"/><feColorMatrix values="0 0 0 0 0.235294 0 0 0 0 0.607843 0 0 0 0 0.976471 0 0 0 1 0"/><feBlend in2="effect1_dropShadow_2004_1241" result="effect2_dropShadow_2004_1241"/><feColorMatrix in="SourceAlpha" result="hardAlpha" values="0 0 0 0 0 0 0 0 0 0 0 0 0 0 0 0 0 0 127 0"/><feOffset/><feGaussianBlur stdDeviation=".742"/><feColorMatrix values="0 0 0 0 0.235294 0 0 0 0 0.607843 0 0 0 0 0.976471 0 0 0 1 0"/><feBlend in2="effect2_dropShadow_2004_1241" result="effect3_dropShadow_2004_1241"/><feColorMatrix in="SourceAlpha" result="hardAlpha" values="0 0 0 0 0 0 0 0 0 0 0 0 0 0 0 0 0 0 127 0"/><feOffset/><feGaussianBlur stdDeviation="1.484"/><feColorMatrix values="0 0 0 0 0.235294 0 0 0 0 0.607843 0 0 0 0 0.976471 0 0 0 1 0"/><feBlend in2="effect3_dropShadow_2004_1241" result="effect4_dropShadow_2004_1241"/><feColorMatrix in="SourceAlpha" result="hardAlpha" values="0 0 0 0 0 0 0 0 0 0 0 0 0 0 0 0 0 0 127 0"/><feOffset/><feGaussianBlur stdDeviation="2.544"/><feColorMatrix values="0 0 0 0 0.235294 0 0 0 0 0.607843 0 0 0 0 0.976471 0 0 0 1 0"/><feBlend in2="effect4_dropShadow_2004_1241" result="effect5_dropShadow_2004_1241"/><feColorMatrix in="SourceAlpha" result="hardAlpha" values="0 0 0 0 0 0 0 0 0 0 0 0 0 0 0 0 0 0 127 0"/><feOffset/><feGaussianBlur stdDeviation="4.451"/><feColorMatrix values="0 0 0 0 0.235294 0 0 0 0 0.607843 0 0 0 0 0.976471 0 0 0 1 0"/><feBlend in2="effect5_dropShadow_2004_1241" result="effect6_dropShadow_2004_1241"/><feBlend in="SourceGraphic" in2="effect6_dropShadow_2004_1241" result="shape"/></filter><linearGradient id="e" x1="161.5" x2="201" y1="345.5" y2="357" gradientUnits="userSpaceOnUse"><stop stop-color="#1a8eff" stop-opacity="0"/><stop offset="1" stop-color="#1a8eff"/></linearGradient><clipPath id="c"><path fill="#fff" d="M201 456h10v10h-10z"/></clipPath></defs></svg>