<svg width="387" height="646" viewBox="0 0 387 646" fill="none" xmlns="http://www.w3.org/2000/svg">
<g filter="url(#filter0_dddd_2004_1241)">
<path d="M157 19C157 14.5817 160.582 11 165 11H302C306.418 11 310 14.5817 310 19V53C310 57.4183 306.418 61 302 61H165C160.582 61 157 57.4183 157 53V19Z" fill="white"/>
<path d="M302 10C306.971 10 311 14.0294 311 19V53C311 57.9706 306.971 62 302 62H165C160.029 62 156 57.9706 156 53V19C156 14.0294 160.029 10 165 10H302Z" stroke="#F8F8F8" stroke-width="2"/>
<rect x="171" y="25" width="22" height="22" rx="11" fill="#F5F5F7"/>
<path d="M185.152 39.1517L183.668 37.6684M184.468 35.7341C184.468 37.2441 183.244 38.4681 181.734 38.4681C180.224 38.4681 179 37.2441 179 35.7341C179 34.2241 180.224 33 181.734 33C183.244 33 184.468 34.2241 184.468 35.7341Z" stroke="black" stroke-width="0.717693" stroke-linecap="round" stroke-linejoin="round"/>
<path d="M202.83 32.5V25.3906H208.421V32.5H207.439V26.2061H203.812V32.5H202.83ZM209.671 29.9463V29.79C209.671 28.999 209.902 28.3529 210.364 27.8516C210.83 27.347 211.45 27.0947 212.225 27.0947C213.003 27.0947 213.623 27.347 214.085 27.8516C214.55 28.3529 214.783 28.999 214.783 29.79V29.9463C214.783 30.7406 214.55 31.39 214.085 31.8945C213.623 32.3958 213.003 32.6465 212.225 32.6465C211.45 32.6465 210.83 32.3958 210.364 31.8945C209.902 31.39 209.671 30.7406 209.671 29.9463ZM210.643 29.79V29.9463C210.643 30.4834 210.774 30.9375 211.038 31.3086C211.305 31.6764 211.701 31.8604 212.225 31.8604C212.752 31.8604 213.149 31.6764 213.416 31.3086C213.683 30.9375 213.816 30.4834 213.816 29.9463V29.79C213.816 29.2594 213.683 28.8102 213.416 28.4424C213.149 28.0713 212.752 27.8857 212.225 27.8857C211.701 27.8857 211.305 28.0713 211.038 28.4424C210.774 28.8102 210.643 29.2594 210.643 29.79ZM215.926 32.5V27.2412H216.868V30.5176C216.868 30.6185 216.867 30.7324 216.863 30.8594C216.863 30.9831 216.862 31.0954 216.858 31.1963H216.902C216.948 31.1117 216.998 31.0205 217.054 30.9229C217.112 30.8252 217.174 30.7243 217.239 30.6201L219.383 27.2412H220.345V32.5H219.402V29.2285C219.402 29.1276 219.402 29.0137 219.402 28.8867C219.406 28.7598 219.41 28.6475 219.417 28.5498H219.363C219.321 28.6312 219.271 28.7223 219.212 28.8232C219.157 28.9242 219.096 29.0267 219.031 29.1309L216.888 32.5H215.926ZM221.487 29.9463V29.79C221.487 28.999 221.71 28.3529 222.156 27.8516C222.602 27.347 223.214 27.0947 223.992 27.0947C224.715 27.0947 225.263 27.2835 225.638 27.6611C226.015 28.0387 226.204 28.4603 226.204 28.9258V28.9502H225.281V28.9258C225.281 28.6491 225.179 28.4066 224.974 28.1982C224.772 27.9867 224.445 27.8809 223.992 27.8809C223.465 27.8809 223.077 28.0664 222.83 28.4375C222.583 28.8053 222.459 29.2562 222.459 29.79V29.9463C222.459 30.4834 222.583 30.9375 222.83 31.3086C223.077 31.6764 223.465 31.8604 223.992 31.8604C224.445 31.8604 224.772 31.7562 224.974 31.5479C225.179 31.3363 225.281 31.0938 225.281 30.8203V30.7959H226.204V30.8203C226.204 31.2826 226.015 31.7025 225.638 32.0801C225.263 32.4577 224.715 32.6465 223.992 32.6465C223.214 32.6465 222.602 32.3958 222.156 31.8945C221.71 31.39 221.487 30.7406 221.487 29.9463ZM230.574 32.5L228.514 30.0635L229.109 29.4482L231.761 32.5H230.574ZM227.63 29.458H228.582L230.428 27.2412H231.517L229.007 30.21H227.63V29.458ZM228.104 27.2412V32.5H227.156V27.2412H228.104ZM234.92 32.5V27.2412H235.862V30.5176C235.862 30.6185 235.861 30.7324 235.857 30.8594C235.857 30.9831 235.856 31.0954 235.853 31.1963H235.896C235.942 31.1117 235.993 31.0205 236.048 30.9229C236.106 30.8252 236.168 30.7243 236.233 30.6201L238.377 27.2412H239.339V32.5H238.396V29.2285C238.396 29.1276 238.396 29.0137 238.396 28.8867C238.4 28.7598 238.405 28.6475 238.411 28.5498H238.357C238.315 28.6312 238.265 28.7223 238.206 28.8232C238.151 28.9242 238.09 29.0267 238.025 29.1309L235.882 32.5H234.92ZM240.481 29.9463V29.79C240.481 28.999 240.704 28.3529 241.15 27.8516C241.596 27.347 242.208 27.0947 242.986 27.0947C243.709 27.0947 244.257 27.2835 244.632 27.6611C245.009 28.0387 245.198 28.4603 245.198 28.9258V28.9502H244.275V28.9258C244.275 28.6491 244.173 28.4066 243.968 28.1982C243.766 27.9867 243.439 27.8809 242.986 27.8809C242.459 27.8809 242.072 28.0664 241.824 28.4375C241.577 28.8053 241.453 29.2562 241.453 29.79V29.9463C241.453 30.4834 241.577 30.9375 241.824 31.3086C242.072 31.6764 242.459 31.8604 242.986 31.8604C243.439 31.8604 243.766 31.7562 243.968 31.5479C244.173 31.3363 244.275 31.0938 244.275 30.8203V30.7959H245.198V30.8203C245.198 31.2826 245.009 31.7025 244.632 32.0801C244.257 32.4577 243.709 32.6465 242.986 32.6465C242.208 32.6465 241.596 32.3958 241.15 31.8945C240.704 31.39 240.481 30.7406 240.481 29.9463ZM246.15 27.2412H250.452V32.5H249.505V27.998H247.098V32.5H246.15V27.2412ZM251.595 29.9463V29.79C251.595 28.999 251.826 28.3529 252.288 27.8516C252.754 27.347 253.374 27.0947 254.148 27.0947C254.926 27.0947 255.547 27.347 256.009 27.8516C256.474 28.3529 256.707 28.999 256.707 29.79V29.9463C256.707 30.7406 256.474 31.39 256.009 31.8945C255.547 32.3958 254.926 32.6465 254.148 32.6465C253.374 32.6465 252.754 32.3958 252.288 31.8945C251.826 31.39 251.595 30.7406 251.595 29.9463ZM252.566 29.79V29.9463C252.566 30.4834 252.698 30.9375 252.962 31.3086C253.229 31.6764 253.624 31.8604 254.148 31.8604C254.676 31.8604 255.073 31.6764 255.34 31.3086C255.607 30.9375 255.74 30.4834 255.74 29.9463V29.79C255.74 29.2594 255.607 28.8102 255.34 28.4424C255.073 28.0713 254.676 27.8857 254.148 27.8857C253.624 27.8857 253.229 28.0713 252.962 28.4424C252.698 28.8102 252.566 29.2594 252.566 29.79ZM259.173 27.998L259.085 30.1074C259.046 30.9668 258.929 31.5967 258.733 31.9971C258.538 32.3942 258.195 32.5928 257.703 32.5928C257.589 32.5928 257.488 32.5846 257.4 32.5684C257.316 32.5553 257.241 32.5342 257.176 32.5049V31.6748C257.231 31.6976 257.288 31.7139 257.347 31.7236C257.409 31.7334 257.475 31.7383 257.547 31.7383C257.794 31.7383 257.96 31.6146 258.045 31.3672C258.133 31.1198 258.191 30.6576 258.221 29.9805L258.338 27.2412H262.117V32.5H261.165V27.998H259.173ZM263.572 27.2412H264.52V29.4531H266.976V27.2412H267.923V32.5H266.976V30.21H264.52V32.5H263.572V27.2412ZM269.373 32.5V27.2412H270.315V30.5176C270.315 30.6185 270.314 30.7324 270.311 30.8594C270.311 30.9831 270.309 31.0954 270.306 31.1963H270.35C270.395 31.1117 270.446 31.0205 270.501 30.9229C270.56 30.8252 270.621 30.7243 270.687 30.6201L272.83 27.2412H273.792V32.5H272.85V29.2285C272.85 29.1276 272.85 29.0137 272.85 28.8867C272.853 28.7598 272.858 28.6475 272.864 28.5498H272.811C272.768 28.6312 272.718 28.7223 272.659 28.8232C272.604 28.9242 272.544 29.0267 272.479 29.1309L270.335 32.5H269.373ZM274.7 27.998V27.2412H278.997V27.998H277.322V32.5H276.375V27.998H274.7ZM279.593 29.9463V29.79C279.593 28.999 279.817 28.3529 280.267 27.8516C280.716 27.347 281.308 27.0947 282.044 27.0947C282.786 27.0947 283.356 27.3307 283.753 27.8027C284.15 28.2715 284.349 28.9046 284.349 29.7021V30.1025H280.179V29.3408H283.392V29.3115C283.392 28.9046 283.286 28.5645 283.074 28.291C282.866 28.0143 282.527 27.876 282.059 27.876C281.564 27.876 281.189 28.0615 280.936 28.4326C280.682 28.8005 280.555 29.2529 280.555 29.79V29.9463C280.555 30.4834 280.688 30.9375 280.955 31.3086C281.222 31.6797 281.635 31.8652 282.195 31.8652C282.54 31.8652 282.837 31.7936 283.084 31.6504C283.335 31.5072 283.536 31.3363 283.689 31.1377L284.3 31.6455C284.131 31.8929 283.865 32.1224 283.504 32.334C283.146 32.5423 282.71 32.6465 282.195 32.6465C281.355 32.6465 280.711 32.3958 280.262 31.8945C279.816 31.39 279.593 30.7406 279.593 29.9463ZM286.702 27.998L286.614 30.1074C286.575 30.9668 286.458 31.5967 286.263 31.9971C286.067 32.3942 285.724 32.5928 285.232 32.5928C285.118 32.5928 285.018 32.5846 284.93 32.5684C284.845 32.5553 284.77 32.5342 284.705 32.5049V31.6748C284.76 31.6976 284.817 31.7139 284.876 31.7236C284.938 31.7334 285.005 31.7383 285.076 31.7383C285.324 31.7383 285.49 31.6146 285.574 31.3672C285.662 31.1198 285.721 30.6576 285.75 29.9805L285.867 27.2412H289.646V32.5H288.694V27.998H286.702ZM291.805 32.5H290.745L292.273 30.2832L293.235 30.3662L291.805 32.5ZM294.158 32.5V30.6104H292.996L292.908 30.5615C292.283 30.5615 291.801 30.415 291.463 30.1221C291.124 29.8291 290.955 29.4352 290.955 28.9404C290.955 28.4261 291.128 28.0143 291.473 27.7051C291.821 27.3958 292.314 27.2412 292.952 27.2412H295.105V32.5H294.158ZM292.952 29.8535H294.158V27.998H292.952C292.571 27.998 292.303 28.0876 292.146 28.2666C291.993 28.4456 291.917 28.6702 291.917 28.9404C291.917 29.2074 291.993 29.4271 292.146 29.5996C292.303 29.7689 292.571 29.8535 292.952 29.8535Z" fill="black"/>
<path d="M202.696 46.5V40.5429H207.458V46.5H206.619V41.2425H203.53V46.5H202.696ZM208.522 45.1948C208.522 44.7421 208.709 44.3902 209.082 44.1393C209.459 43.8856 209.935 43.7588 210.51 43.7588H211.578V43.411C211.578 43.1655 211.504 42.9664 211.357 42.8136C211.21 42.6582 210.956 42.5804 210.596 42.5804C210.236 42.5804 209.978 42.65 209.823 42.7891C209.67 42.9255 209.594 43.0837 209.594 43.2637V43.2842H208.788V43.2637C208.788 42.9091 208.953 42.5982 209.283 42.3309C209.613 42.0636 210.057 41.9299 210.616 41.9299C211.176 41.9299 211.609 42.054 211.918 42.3022C212.229 42.5504 212.384 42.92 212.384 43.411V45.5181C212.384 45.6954 212.398 45.8631 212.425 46.0213C212.455 46.1768 212.496 46.3145 212.548 46.4345V46.5H211.766C211.725 46.4291 211.688 46.3363 211.656 46.2218C211.623 46.1072 211.603 45.994 211.594 45.8822C211.483 46.0649 211.302 46.2272 211.054 46.3691C210.809 46.5109 210.491 46.5818 210.101 46.5818C209.665 46.5818 209.292 46.4632 208.984 46.2259C208.676 45.9858 208.522 45.6422 208.522 45.1948ZM209.328 45.1539C209.328 45.3994 209.405 45.5917 209.561 45.7308C209.719 45.8672 209.962 45.9354 210.289 45.9354C210.616 45.9354 210.912 45.8317 211.177 45.6244C211.444 45.4144 211.578 45.1935 211.578 44.9616V44.3438H210.596C210.179 44.3438 209.862 44.4175 209.647 44.5648C209.434 44.7093 209.328 44.9057 209.328 45.1539ZM213.595 48.202V42.0526H214.327L214.364 42.6336H214.385C214.505 42.4509 214.687 42.2954 214.933 42.1672C215.181 42.0363 215.469 41.9708 215.796 41.9708C216.383 41.9708 216.852 42.1822 217.204 42.605C217.556 43.0278 217.731 43.5624 217.731 44.2088V44.3397C217.731 44.9889 217.556 45.5249 217.204 45.9477C216.852 46.3704 216.383 46.5818 215.796 46.5818C215.469 46.5818 215.189 46.5273 214.957 46.4182C214.726 46.3063 214.54 46.1577 214.401 45.9722V48.202H213.595ZM214.401 45.1498C214.494 45.3462 214.644 45.5222 214.851 45.6776C215.061 45.8304 215.316 45.9067 215.616 45.9067C216.061 45.9067 216.387 45.7567 216.594 45.4567C216.801 45.1539 216.905 44.7816 216.905 44.3397V44.2088C216.905 43.7697 216.801 43.4001 216.594 43.1C216.387 42.7973 216.061 42.6459 215.616 42.6459C215.316 42.6459 215.061 42.7236 214.851 42.8791C214.644 43.0319 214.494 43.2064 214.401 43.4028V45.1498ZM218.447 45.1948C218.447 44.7421 218.634 44.3902 219.008 44.1393C219.384 43.8856 219.86 43.7588 220.436 43.7588H221.504V43.411C221.504 43.1655 221.43 42.9664 221.283 42.8136C221.136 42.6582 220.882 42.5804 220.522 42.5804C220.162 42.5804 219.904 42.65 219.749 42.7891C219.596 42.9255 219.519 43.0837 219.519 43.2637V43.2842H218.713V43.2637C218.713 42.9091 218.878 42.5982 219.208 42.3309C219.538 42.0636 219.983 41.9299 220.542 41.9299C221.101 41.9299 221.535 42.054 221.843 42.3022C222.154 42.5504 222.31 42.92 222.31 43.411V45.5181C222.31 45.6954 222.323 45.8631 222.351 46.0213C222.381 46.1768 222.422 46.3145 222.473 46.4345V46.5H221.692C221.651 46.4291 221.614 46.3363 221.581 46.2218C221.549 46.1072 221.528 45.994 221.52 45.8822C221.408 46.0649 221.228 46.2272 220.98 46.3691C220.735 46.5109 220.417 46.5818 220.027 46.5818C219.59 46.5818 219.218 46.4632 218.91 46.2259C218.602 45.9858 218.447 45.6422 218.447 45.1948ZM219.253 45.1539C219.253 45.3994 219.331 45.5917 219.487 45.7308C219.645 45.8672 219.888 45.9354 220.215 45.9354C220.542 45.9354 220.838 45.8317 221.103 45.6244C221.37 45.4144 221.504 45.1935 221.504 44.9616V44.3438H220.522C220.104 44.3438 219.788 44.4175 219.573 44.5648C219.36 44.7093 219.253 44.9057 219.253 45.1539ZM223.521 46.5V42.0526H224.67L225.886 45.1212C225.951 45.2849 225.993 45.398 226.012 45.4608C226.034 45.5235 226.052 45.5876 226.066 45.6531H226.107C226.123 45.5876 226.139 45.5235 226.156 45.4608C226.175 45.398 226.218 45.2876 226.287 45.1294L227.506 42.0526H228.631V46.5H227.845V43.4765C227.845 43.3101 227.847 43.1914 227.849 43.1205C227.855 43.0469 227.86 42.9814 227.866 42.9241H227.829C227.815 42.9814 227.798 43.0469 227.776 43.1205C227.754 43.1914 227.712 43.306 227.649 43.4642L226.442 46.5H225.685L224.478 43.4519C224.421 43.3073 224.38 43.1982 224.355 43.1246C224.334 43.0482 224.316 42.9814 224.302 42.9241H224.261C224.267 42.9814 224.272 43.0455 224.278 43.1164C224.283 43.1873 224.285 43.2978 224.282 43.4478V46.5H223.521ZM229.588 44.3397V44.2088C229.588 43.5406 229.781 42.9937 230.165 42.5682C230.55 42.1427 231.057 41.9299 231.687 41.9299C232.32 41.9299 232.807 42.129 233.148 42.5272C233.489 42.9255 233.659 43.4614 233.659 44.1352V44.4788H230.087V43.8283H232.841V43.8365C232.841 43.4819 232.752 43.1873 232.575 42.9528C232.401 42.7182 232.105 42.6009 231.687 42.6009C231.27 42.6009 230.952 42.7564 230.734 43.0673C230.516 43.3755 230.407 43.756 230.407 44.2088V44.3397C230.407 44.7925 230.521 45.1757 230.75 45.4894C230.979 45.8004 231.334 45.9558 231.814 45.9558C232.111 45.9558 232.366 45.8958 232.579 45.7758C232.792 45.6558 232.964 45.5126 233.095 45.3462L233.614 45.784C233.472 45.9913 233.247 46.1836 232.939 46.3609C232.631 46.5355 232.256 46.6227 231.814 46.6227C231.097 46.6227 230.546 46.4114 230.161 45.9886C229.779 45.5631 229.588 45.0135 229.588 44.3397ZM234.048 42.7032V42.0526H237.71V42.7032H236.282V46.5H235.476V42.7032H234.048ZM238.479 48.202V42.0526H239.211L239.248 42.6336H239.269C239.389 42.4509 239.571 42.2954 239.817 42.1672C240.065 42.0363 240.353 41.9708 240.68 41.9708C241.267 41.9708 241.736 42.1822 242.088 42.605C242.439 43.0278 242.615 43.5624 242.615 44.2088V44.3397C242.615 44.9889 242.439 45.5249 242.088 45.9477C241.736 46.3704 241.267 46.5818 240.68 46.5818C240.353 46.5818 240.073 46.5273 239.841 46.4182C239.61 46.3063 239.424 46.1577 239.285 45.9722V48.202H238.479ZM239.285 45.1498C239.378 45.3462 239.528 45.5222 239.735 45.6776C239.945 45.8304 240.2 45.9067 240.5 45.9067C240.945 45.9067 241.271 45.7567 241.478 45.4567C241.685 45.1539 241.789 44.7816 241.789 44.3397V44.2088C241.789 43.7697 241.685 43.4001 241.478 43.1C241.271 42.7973 240.945 42.6459 240.5 42.6459C240.2 42.6459 239.945 42.7236 239.735 42.8791C239.528 43.0319 239.378 43.2064 239.285 43.4028V45.1498ZM243.683 46.0704C243.683 45.9286 243.73 45.8072 243.822 45.7063C243.915 45.6026 244.047 45.5508 244.219 45.5508C244.388 45.5508 244.519 45.6026 244.612 45.7063C244.705 45.8072 244.751 45.9286 244.751 46.0704C244.751 46.2122 244.705 46.335 244.612 46.4386C244.519 46.5396 244.388 46.59 244.219 46.59C244.047 46.59 243.915 46.5396 243.822 46.4386C243.73 46.335 243.683 46.2122 243.683 46.0704ZM243.683 42.5027C243.683 42.3581 243.73 42.2354 243.822 42.1345C243.915 42.0308 244.047 41.979 244.219 41.979C244.388 41.979 244.519 42.0308 244.612 42.1345C244.705 42.2354 244.751 42.3581 244.751 42.5027C244.751 42.6445 244.705 42.7659 244.612 42.8668C244.519 42.9678 244.388 43.0182 244.219 43.0182C244.047 43.0182 243.915 42.9678 243.822 42.8668C243.73 42.7659 243.683 42.6445 243.683 42.5027ZM251.592 47.6047V46.5H248.315V47.6047H247.562V45.8495H252.345V47.6047H251.592ZM249.141 42.7032L249.088 43.9347C249.058 44.5866 249.023 45.038 248.982 45.2889C248.943 45.5372 248.886 45.7376 248.81 45.8904H247.987C248.102 45.7349 248.184 45.5331 248.233 45.2849C248.285 45.0366 248.324 44.562 248.352 43.861L248.429 42.0526H251.711V46.5H250.9V42.7032H249.141ZM253.036 46.5V42.0526H253.842V44.8348C253.842 44.9194 253.841 45.0148 253.838 45.1212C253.838 45.2276 253.837 45.323 253.834 45.4076H253.867C253.905 45.3367 253.947 45.2603 253.994 45.1785C254.043 45.0939 254.096 45.008 254.153 44.9207L255.986 42.0526H256.808V46.5H256.002V43.7219C256.002 43.6374 256.002 43.5433 256.002 43.4396C256.005 43.3333 256.008 43.2378 256.011 43.1532H255.978C255.94 43.2241 255.896 43.3019 255.847 43.3864C255.801 43.4683 255.749 43.5528 255.692 43.6401L253.859 46.5H253.036ZM259.468 46.6227C258.846 46.6227 258.374 46.4673 258.052 46.1563C257.73 45.8454 257.569 45.499 257.569 45.1171V45.0966H258.359V45.1171C258.359 45.3353 258.446 45.529 258.621 45.6981C258.796 45.8672 259.078 45.9518 259.468 45.9518C259.831 45.9518 260.099 45.8863 260.274 45.7554C260.451 45.6244 260.54 45.4417 260.54 45.2071C260.54 45.008 260.469 44.8512 260.327 44.7366C260.188 44.622 259.94 44.5648 259.582 44.5648H258.809V43.9224H259.587C259.873 43.9224 260.079 43.8665 260.204 43.7547C260.33 43.6428 260.393 43.486 260.393 43.2842C260.393 43.055 260.322 42.8846 260.18 42.7727C260.041 42.6609 259.818 42.605 259.513 42.605C259.145 42.605 258.876 42.6895 258.707 42.8586C258.54 43.0278 258.457 43.2201 258.457 43.4355V43.456H257.672V43.4355C257.672 43.0509 257.827 42.7045 258.138 42.3963C258.452 42.0854 258.91 41.9299 259.513 41.9299C260.028 41.9299 260.44 42.0404 260.748 42.2613C261.057 42.4795 261.211 42.8055 261.211 43.2391C261.211 43.4901 261.136 43.7001 260.986 43.8692C260.836 44.0356 260.633 44.1461 260.376 44.2006V44.2129C260.684 44.2593 260.923 44.3697 261.092 44.5443C261.264 44.7161 261.35 44.9371 261.35 45.2071C261.35 45.6544 261.177 46.0022 260.83 46.2504C260.487 46.4986 260.032 46.6227 259.468 46.6227ZM262.013 45.1948C262.013 44.7421 262.2 44.3902 262.573 44.1393C262.95 43.8856 263.426 43.7588 264.001 43.7588H265.069V43.411C265.069 43.1655 264.995 42.9664 264.848 42.8136C264.701 42.6582 264.447 42.5804 264.087 42.5804C263.727 42.5804 263.469 42.65 263.314 42.7891C263.161 42.9255 263.085 43.0837 263.085 43.2637V43.2842H262.279V43.2637C262.279 42.9091 262.444 42.5982 262.774 42.3309C263.104 42.0636 263.548 41.9299 264.108 41.9299C264.667 41.9299 265.1 42.054 265.409 42.3022C265.72 42.5504 265.875 42.92 265.875 43.411V45.5181C265.875 45.6954 265.889 45.8631 265.916 46.0213C265.946 46.1768 265.987 46.3145 266.039 46.4345V46.5H265.257C265.216 46.4291 265.179 46.3363 265.147 46.2218C265.114 46.1072 265.094 45.994 265.085 45.8822C264.974 46.0649 264.794 46.2272 264.545 46.3691C264.3 46.5109 263.982 46.5818 263.592 46.5818C263.156 46.5818 262.783 46.4632 262.475 46.2259C262.167 45.9858 262.013 45.6422 262.013 45.1948ZM262.819 45.1539C262.819 45.3994 262.896 45.5917 263.052 45.7308C263.21 45.8672 263.453 45.9354 263.78 45.9354C264.108 45.9354 264.403 45.8317 264.668 45.6244C264.935 45.4144 265.069 45.1935 265.069 44.9616V44.3438H264.087C263.67 44.3438 263.353 44.4175 263.138 44.5648C262.925 44.7093 262.819 44.9057 262.819 45.1539ZM267.086 46.5V42.0526H267.892V44.8348C267.892 44.9194 267.891 45.0148 267.888 45.1212C267.888 45.2276 267.887 45.323 267.884 45.4076H267.917C267.955 45.3367 267.997 45.2603 268.043 45.1785C268.093 45.0939 268.146 45.008 268.203 44.9207L270.036 42.0526H270.858V46.5H270.052V43.7219C270.052 43.6374 270.052 43.5433 270.052 43.4396C270.055 43.3333 270.058 43.2378 270.061 43.1532H270.028C269.99 43.2241 269.946 43.3019 269.897 43.3864C269.85 43.4683 269.799 43.5528 269.741 43.6401L267.908 46.5H267.086ZM268.976 40.6534C269.195 40.6534 269.369 40.5975 269.5 40.4856C269.634 40.3738 269.751 40.1801 269.852 39.9047L270.461 40.2647C270.311 40.6166 270.108 40.8743 269.852 41.038C269.598 41.1989 269.306 41.2794 268.976 41.2794C268.646 41.2794 268.354 41.1989 268.101 41.038C267.847 40.877 267.645 40.6193 267.495 40.2647L268.105 39.9006C268.206 40.1788 268.322 40.3738 268.453 40.4856C268.586 40.5975 268.761 40.6534 268.976 40.6534ZM272.069 42.0526H272.875V43.9224H274.991V42.0526H275.797V46.5H274.991V44.5729H272.875V46.5H272.069V42.0526ZM276.754 44.3397V44.2088C276.754 43.5406 276.946 42.9937 277.331 42.5682C277.716 42.1427 278.223 41.9299 278.853 41.9299C279.486 41.9299 279.973 42.129 280.314 42.5272C280.655 42.9255 280.825 43.4614 280.825 44.1352V44.4788H277.253V43.8283H280.007V43.8365C280.007 43.4819 279.918 43.1873 279.741 42.9528C279.566 42.7182 279.27 42.6009 278.853 42.6009C278.436 42.6009 278.118 42.7564 277.9 43.0673C277.681 43.3755 277.572 43.756 277.572 44.2088V44.3397C277.572 44.7925 277.687 45.1757 277.916 45.4894C278.145 45.8004 278.5 45.9558 278.98 45.9558C279.277 45.9558 279.532 45.8958 279.745 45.7758C279.958 45.6558 280.129 45.5126 280.26 45.3462L280.78 45.784C280.638 45.9913 280.413 46.1836 280.105 46.3609C279.797 46.5355 279.422 46.6227 278.98 46.6227C278.262 46.6227 277.711 46.4114 277.327 45.9886C276.945 45.5631 276.754 45.0135 276.754 44.3397ZM281.66 48.202V42.0526H282.392L282.429 42.6336H282.449C282.569 42.4509 282.752 42.2954 282.998 42.1672C283.246 42.0363 283.534 41.9708 283.861 41.9708C284.447 41.9708 284.916 42.1822 285.268 42.605C285.62 43.0278 285.796 43.5624 285.796 44.2088V44.3397C285.796 44.9889 285.62 45.5249 285.268 45.9477C284.916 46.3704 284.447 46.5818 283.861 46.5818C283.534 46.5818 283.254 46.5273 283.022 46.4182C282.79 46.3063 282.605 46.1577 282.466 45.9722V48.202H281.66ZM282.466 45.1498C282.558 45.3462 282.708 45.5222 282.916 45.6776C283.126 45.8304 283.381 45.9067 283.681 45.9067C284.125 45.9067 284.451 45.7567 284.659 45.4567C284.866 45.1539 284.97 44.7816 284.97 44.3397V44.2088C284.97 43.7697 284.866 43.4001 284.659 43.1C284.451 42.7973 284.125 42.6459 283.681 42.6459C283.381 42.6459 283.126 42.7236 282.916 42.8791C282.708 43.0319 282.558 43.2064 282.466 43.4028V45.1498Z" fill="#BCBCCF"/>
</g>
<g filter="url(#filter1_dddd_2004_1241)">
<path d="M181 444C181 439.582 184.582 436 189 436H332C336.418 436 340 439.582 340 444V478C340 482.418 336.418 486 332 486H189C184.582 486 181 482.418 181 478V444Z" fill="white"/>
<path d="M332 435C336.971 435 341 439.029 341 444V478C341 482.971 336.971 487 332 487H189C184.029 487 180 482.971 180 478V444C180 439.029 184.029 435 189 435H332Z" stroke="#F8F8F8" stroke-width="2"/>
<rect x="195" y="450" width="22" height="22" rx="11" fill="#F5F5F7"/>
<g clip-path="url(#clip0_2004_1241)">
<path d="M208.667 458L204.083 462.583L202 460.5" stroke="black" stroke-linecap="round" stroke-linejoin="round"/>
<path d="M210.333 459.656L207.208 462.781L206.583 462.156" stroke="black" stroke-linecap="round" stroke-linejoin="round"/>
</g>
<path d="M232.567 457.5H231.586V452.393C231.586 452.295 231.588 452.186 231.591 452.065C231.597 451.942 231.604 451.831 231.61 451.733H231.566C231.524 451.815 231.474 451.904 231.415 452.002C231.356 452.096 231.296 452.194 231.234 452.295L227.851 457.5H226.83V450.391H227.812V455.43C227.812 455.527 227.808 455.654 227.802 455.811C227.799 455.964 227.794 456.089 227.787 456.187H227.831C227.87 456.105 227.921 456.009 227.982 455.898C228.048 455.785 228.113 455.677 228.178 455.576L231.547 450.391H232.567V457.5ZM233.817 454.946V454.79C233.817 453.999 234.04 453.353 234.486 452.852C234.932 452.347 235.544 452.095 236.322 452.095C237.045 452.095 237.593 452.284 237.968 452.661C238.345 453.039 238.534 453.46 238.534 453.926V453.95H237.611V453.926C237.611 453.649 237.509 453.407 237.304 453.198C237.102 452.987 236.775 452.881 236.322 452.881C235.795 452.881 235.408 453.066 235.16 453.438C234.913 453.805 234.789 454.256 234.789 454.79V454.946C234.789 455.483 234.913 455.938 235.16 456.309C235.408 456.676 235.795 456.86 236.322 456.86C236.775 456.86 237.102 456.756 237.304 456.548C237.509 456.336 237.611 456.094 237.611 455.82V455.796H238.534V455.82C238.534 456.283 238.345 456.702 237.968 457.08C237.593 457.458 237.045 457.646 236.322 457.646C235.544 457.646 234.932 457.396 234.486 456.895C234.04 456.39 233.817 455.741 233.817 454.946ZM239.486 452.241H243.788V457.5H242.841V452.998H240.434V457.5H239.486V452.241ZM244.931 454.946V454.79C244.931 453.999 245.162 453.353 245.624 452.852C246.09 452.347 246.71 452.095 247.484 452.095C248.262 452.095 248.882 452.347 249.345 452.852C249.81 453.353 250.043 453.999 250.043 454.79V454.946C250.043 455.741 249.81 456.39 249.345 456.895C248.882 457.396 248.262 457.646 247.484 457.646C246.71 457.646 246.09 457.396 245.624 456.895C245.162 456.39 244.931 455.741 244.931 454.946ZM245.902 454.79V454.946C245.902 455.483 246.034 455.938 246.298 456.309C246.565 456.676 246.96 456.86 247.484 456.86C248.012 456.86 248.409 456.676 248.676 456.309C248.943 455.938 249.076 455.483 249.076 454.946V454.79C249.076 454.259 248.943 453.81 248.676 453.442C248.409 453.071 248.012 452.886 247.484 452.886C246.96 452.886 246.565 453.071 246.298 453.442C246.034 453.81 245.902 454.259 245.902 454.79ZM252.509 452.998L252.421 455.107C252.382 455.967 252.265 456.597 252.069 456.997C251.874 457.394 251.531 457.593 251.039 457.593C250.925 457.593 250.824 457.585 250.736 457.568C250.652 457.555 250.577 457.534 250.512 457.505V456.675C250.567 456.698 250.624 456.714 250.683 456.724C250.744 456.733 250.811 456.738 250.883 456.738C251.13 456.738 251.296 456.615 251.381 456.367C251.469 456.12 251.527 455.658 251.557 454.98L251.674 452.241H255.453V457.5H254.501V452.998H252.509ZM256.908 452.241H257.855V454.453H260.312V452.241H261.259V457.5H260.312V455.21H257.855V457.5H256.908V452.241ZM262.709 457.5V452.241H263.651V455.518C263.651 455.618 263.65 455.732 263.646 455.859C263.646 455.983 263.645 456.095 263.642 456.196H263.686C263.731 456.112 263.782 456.021 263.837 455.923C263.896 455.825 263.957 455.724 264.022 455.62L266.166 452.241H267.128V457.5H266.186V454.229C266.186 454.128 266.186 454.014 266.186 453.887C266.189 453.76 266.194 453.647 266.2 453.55H266.146C266.104 453.631 266.054 453.722 265.995 453.823C265.94 453.924 265.88 454.027 265.814 454.131L263.671 457.5H262.709ZM268.036 452.998V452.241H272.333V452.998H270.658V457.5H269.711V452.998H268.036ZM272.929 454.946V454.79C272.929 453.999 273.153 453.353 273.603 452.852C274.052 452.347 274.644 452.095 275.38 452.095C276.122 452.095 276.692 452.331 277.089 452.803C277.486 453.271 277.685 453.905 277.685 454.702V455.103H273.515V454.341H276.728V454.312C276.728 453.905 276.622 453.564 276.41 453.291C276.202 453.014 275.863 452.876 275.395 452.876C274.9 452.876 274.525 453.062 274.271 453.433C274.018 453.8 273.891 454.253 273.891 454.79V454.946C273.891 455.483 274.024 455.938 274.291 456.309C274.558 456.68 274.971 456.865 275.531 456.865C275.876 456.865 276.173 456.794 276.42 456.65C276.671 456.507 276.872 456.336 277.025 456.138L277.636 456.646C277.466 456.893 277.201 457.122 276.84 457.334C276.482 457.542 276.046 457.646 275.531 457.646C274.691 457.646 274.047 457.396 273.598 456.895C273.152 456.39 272.929 455.741 272.929 454.946ZM280.038 452.998L279.95 455.107C279.911 455.967 279.794 456.597 279.599 456.997C279.403 457.394 279.06 457.593 278.568 457.593C278.454 457.593 278.354 457.585 278.266 457.568C278.181 457.555 278.106 457.534 278.041 457.505V456.675C278.096 456.698 278.153 456.714 278.212 456.724C278.274 456.733 278.34 456.738 278.412 456.738C278.66 456.738 278.826 456.615 278.91 456.367C278.998 456.12 279.057 455.658 279.086 454.98L279.203 452.241H282.982V457.5H282.03V452.998H280.038ZM285.385 452.241V454.058H286.562C287.206 454.058 287.702 454.212 288.051 454.521C288.399 454.831 288.573 455.246 288.573 455.767C288.573 456.291 288.399 456.711 288.051 457.026C287.702 457.342 287.206 457.5 286.562 457.5H284.438V452.241H285.385ZM286.562 454.814H285.385V456.743H286.562C286.949 456.743 287.221 456.65 287.377 456.465C287.533 456.279 287.611 456.047 287.611 455.767C287.611 455.49 287.533 455.262 287.377 455.083C287.221 454.904 286.949 454.814 286.562 454.814ZM292.035 452.241H292.982V454.453H295.438V452.241H296.386V457.5H295.438V455.21H292.982V457.5H292.035V452.241ZM297.553 455.952C297.553 455.418 297.771 455.003 298.207 454.707C298.646 454.411 299.201 454.263 299.872 454.263H301.117V453.862C301.117 453.566 301.031 453.325 300.858 453.14C300.689 452.951 300.395 452.856 299.975 452.856C299.558 452.856 299.26 452.938 299.081 453.101C298.902 453.263 298.812 453.452 298.812 453.667V453.691H297.865V453.667C297.865 453.247 298.057 452.881 298.441 452.568C298.826 452.253 299.346 452.095 300.004 452.095C300.655 452.095 301.161 452.243 301.522 452.539C301.884 452.835 302.064 453.276 302.064 453.862V456.328C302.064 456.54 302.081 456.74 302.113 456.929C302.149 457.114 302.196 457.279 302.255 457.422V457.5H301.337C301.291 457.415 301.249 457.306 301.21 457.173C301.171 457.039 301.146 456.906 301.137 456.772C301.007 456.987 300.798 457.179 300.512 457.349C300.225 457.515 299.856 457.598 299.403 457.598C298.889 457.598 298.451 457.458 298.09 457.178C297.732 456.895 297.553 456.486 297.553 455.952ZM298.5 455.903C298.5 456.196 298.59 456.426 298.769 456.592C298.951 456.758 299.234 456.841 299.618 456.841C299.999 456.841 300.344 456.717 300.653 456.47C300.963 456.219 301.117 455.955 301.117 455.679V454.941H299.975C299.49 454.941 299.122 455.029 298.871 455.205C298.624 455.378 298.5 455.61 298.5 455.903ZM303.5 457.5V452.241H304.442V455.518C304.442 455.618 304.441 455.732 304.438 455.859C304.438 455.983 304.436 456.095 304.433 456.196H304.477C304.522 456.112 304.573 456.021 304.628 455.923C304.687 455.825 304.748 455.724 304.813 455.62L306.957 452.241H307.919V457.5H306.977V454.229C306.977 454.128 306.977 454.014 306.977 453.887C306.98 453.76 306.985 453.647 306.991 453.55H306.938C306.895 453.631 306.845 453.722 306.786 453.823C306.731 453.924 306.671 454.027 306.605 454.131L304.462 457.5H303.5ZM305.712 450.61C305.963 450.61 306.166 450.545 306.322 450.415C306.479 450.282 306.612 450.057 306.723 449.741L307.44 450.166C307.271 450.579 307.037 450.881 306.737 451.069C306.438 451.258 306.096 451.353 305.712 451.353C305.328 451.353 304.986 451.26 304.687 451.074C304.39 450.885 304.156 450.583 303.983 450.166L304.706 449.736C304.82 450.062 304.953 450.29 305.106 450.42C305.263 450.547 305.465 450.61 305.712 450.61ZM313.432 458.818V457.5H309.569V458.818H308.695V456.743H314.311V458.818H313.432ZM310.561 452.998L310.492 454.604C310.463 455.301 310.424 455.794 310.375 456.084C310.329 456.374 310.261 456.615 310.17 456.807H309.198C309.325 456.634 309.42 456.4 309.481 456.104C309.547 455.807 309.595 455.273 309.628 454.502L309.726 452.241H313.554V457.5H312.602V452.998H310.561ZM314.823 454.946V454.79C314.823 453.999 315.048 453.353 315.497 452.852C315.946 452.347 316.539 452.095 317.274 452.095C318.017 452.095 318.586 452.331 318.983 452.803C319.381 453.271 319.579 453.905 319.579 454.702V455.103H315.409V454.341H318.622V454.312C318.622 453.905 318.516 453.564 318.305 453.291C318.096 453.014 317.758 452.876 317.289 452.876C316.794 452.876 316.42 453.062 316.166 453.433C315.912 453.8 315.785 454.253 315.785 454.79V454.946C315.785 455.483 315.919 455.938 316.186 456.309C316.452 456.68 316.866 456.865 317.426 456.865C317.771 456.865 318.067 456.794 318.314 456.65C318.565 456.507 318.767 456.336 318.92 456.138L319.53 456.646C319.361 456.893 319.096 457.122 318.734 457.334C318.376 457.542 317.94 457.646 317.426 457.646C316.586 457.646 315.941 457.396 315.492 456.895C315.046 456.39 314.823 455.741 314.823 454.946ZM320.609 452.241H321.557V454.453H324.013V452.241H324.96V457.5H324.013V455.21H321.557V457.5H320.609V452.241Z" fill="black"/>
<path d="M226.696 471.5V465.543H230.652V466.238H227.53V468.075H230.267V468.779H227.53V470.804H230.697V471.5H226.696ZM231.581 467.053H234.396V467.703H232.387V471.5H231.581V467.053ZM234.907 469.34V469.209C234.907 468.541 235.106 467.994 235.504 467.568C235.903 467.143 236.432 466.93 237.092 466.93C237.757 466.93 238.289 467.143 238.687 467.568C239.086 467.994 239.285 468.541 239.285 469.209V469.34C239.285 470.013 239.086 470.563 238.687 470.989C238.289 471.411 237.757 471.623 237.092 471.623C236.432 471.623 235.903 471.411 235.504 470.989C235.106 470.563 234.907 470.013 234.907 469.34ZM235.733 469.209V469.34C235.733 469.79 235.847 470.17 236.073 470.481C236.302 470.792 236.642 470.948 237.092 470.948C237.545 470.948 237.886 470.792 238.115 470.481C238.344 470.17 238.458 469.79 238.458 469.34V469.209C238.458 468.761 238.344 468.382 238.115 468.071C237.886 467.76 237.545 467.605 237.092 467.605C236.642 467.605 236.302 467.76 236.073 468.071C235.847 468.382 235.733 468.761 235.733 469.209ZM240.238 473.202V467.053H240.97L241.007 467.634H241.028C241.148 467.451 241.33 467.295 241.576 467.167C241.824 467.036 242.112 466.971 242.439 466.971C243.026 466.971 243.495 467.182 243.847 467.605C244.199 468.028 244.375 468.562 244.375 469.209V469.34C244.375 469.989 244.199 470.525 243.847 470.948C243.495 471.37 243.026 471.582 242.439 471.582C242.112 471.582 241.832 471.527 241.601 471.418C241.369 471.306 241.183 471.158 241.044 470.972V473.202H240.238ZM241.044 470.15C241.137 470.346 241.287 470.522 241.494 470.678C241.704 470.83 241.959 470.907 242.259 470.907C242.704 470.907 243.03 470.757 243.237 470.457C243.444 470.154 243.548 469.782 243.548 469.34V469.209C243.548 468.77 243.444 468.4 243.237 468.1C243.03 467.797 242.704 467.646 242.259 467.646C241.959 467.646 241.704 467.724 241.494 467.879C241.287 468.032 241.137 468.206 241.044 468.403V470.15ZM247.464 471.5V465.543H252.226V471.5H251.387V466.243H248.298V471.5H247.464ZM253.29 470.195C253.29 469.742 253.477 469.39 253.85 469.139C254.227 468.886 254.703 468.759 255.278 468.759H256.346V468.411C256.346 468.166 256.272 467.966 256.125 467.814C255.978 467.658 255.724 467.58 255.364 467.58C255.004 467.58 254.746 467.65 254.591 467.789C254.438 467.925 254.362 468.084 254.362 468.264V468.284H253.556V468.264C253.556 467.909 253.721 467.598 254.051 467.331C254.381 467.064 254.825 466.93 255.384 466.93C255.944 466.93 256.377 467.054 256.686 467.302C256.996 467.55 257.152 467.92 257.152 468.411V470.518C257.152 470.695 257.166 470.863 257.193 471.021C257.223 471.177 257.264 471.315 257.316 471.435V471.5H256.534C256.493 471.429 256.456 471.336 256.424 471.222C256.391 471.107 256.371 470.994 256.362 470.882C256.25 471.065 256.07 471.227 255.822 471.369C255.577 471.511 255.259 471.582 254.869 471.582C254.433 471.582 254.06 471.463 253.752 471.226C253.444 470.986 253.29 470.642 253.29 470.195ZM254.096 470.154C254.096 470.399 254.173 470.592 254.329 470.731C254.487 470.867 254.73 470.935 255.057 470.935C255.384 470.935 255.68 470.832 255.945 470.624C256.212 470.414 256.346 470.193 256.346 469.962V469.344H255.364C254.947 469.344 254.63 469.417 254.415 469.565C254.202 469.709 254.096 469.906 254.096 470.154ZM257.917 467.703V467.053H261.579V467.703H260.151V471.5H259.345V467.703H257.917ZM262.348 473.202V467.053H263.08L263.117 467.634H263.138C263.258 467.451 263.44 467.295 263.686 467.167C263.934 467.036 264.222 466.971 264.549 466.971C265.136 466.971 265.605 467.182 265.957 467.605C266.309 468.028 266.484 468.562 266.484 469.209V469.34C266.484 469.989 266.309 470.525 265.957 470.948C265.605 471.37 265.136 471.582 264.549 471.582C264.222 471.582 263.942 471.527 263.71 471.418C263.479 471.306 263.293 471.158 263.154 470.972V473.202H262.348ZM263.154 470.15C263.247 470.346 263.397 470.522 263.604 470.678C263.814 470.83 264.069 470.907 264.369 470.907C264.814 470.907 265.14 470.757 265.347 470.457C265.554 470.154 265.658 469.782 265.658 469.34V469.209C265.658 468.77 265.554 468.4 265.347 468.1C265.14 467.797 264.814 467.646 264.369 467.646C264.069 467.646 263.814 467.724 263.604 467.879C263.397 468.032 263.247 468.206 263.154 468.403V470.15ZM267.438 471.5V467.053H268.244V469.835C268.244 469.919 268.242 470.015 268.24 470.121C268.24 470.228 268.238 470.323 268.236 470.408H268.268C268.306 470.337 268.349 470.26 268.395 470.178C268.444 470.094 268.497 470.008 268.555 469.921L270.388 467.053H271.21V471.5H270.404V468.722C270.404 468.637 270.404 468.543 270.404 468.44C270.407 468.333 270.409 468.238 270.412 468.153H270.379C270.341 468.224 270.298 468.302 270.249 468.386C270.202 468.468 270.15 468.553 270.093 468.64L268.26 471.5H267.438ZM275.314 471.5L273.587 469.422L274.099 468.906L276.332 471.5H275.314ZM272.826 468.927H273.649L275.183 467.053H276.103L274.004 469.573H272.826V468.927ZM273.227 467.053V471.5H272.421V467.053H273.227ZM276.697 469.34V469.209C276.697 468.541 276.889 467.994 277.273 467.568C277.658 467.143 278.165 466.93 278.795 466.93C279.428 466.93 279.915 467.129 280.256 467.527C280.597 467.925 280.768 468.461 280.768 469.135V469.479H277.196V468.828H279.949V468.836C279.949 468.482 279.861 468.187 279.683 467.953C279.509 467.718 279.213 467.601 278.795 467.601C278.378 467.601 278.06 467.756 277.842 468.067C277.624 468.376 277.515 468.756 277.515 469.209V469.34C277.515 469.793 277.629 470.176 277.859 470.489C278.088 470.8 278.442 470.956 278.922 470.956C279.22 470.956 279.475 470.896 279.687 470.776C279.9 470.656 280.072 470.513 280.203 470.346L280.723 470.784C280.581 470.991 280.356 471.184 280.047 471.361C279.739 471.535 279.364 471.623 278.922 471.623C278.205 471.623 277.654 471.411 277.269 470.989C276.888 470.563 276.697 470.013 276.697 469.34ZM281.344 469.34V469.209C281.344 468.541 281.537 467.994 281.921 467.568C282.306 467.143 282.813 466.93 283.443 466.93C284.076 466.93 284.563 467.129 284.904 467.527C285.245 467.925 285.415 468.461 285.415 469.135V469.479H281.844V468.828H284.597V468.836C284.597 468.482 284.508 468.187 284.331 467.953C284.157 467.718 283.861 467.601 283.443 467.601C283.026 467.601 282.708 467.756 282.49 468.067C282.272 468.376 282.163 468.756 282.163 469.209V469.34C282.163 469.793 282.277 470.176 282.506 470.489C282.736 470.8 283.09 470.956 283.57 470.956C283.867 470.956 284.123 470.896 284.335 470.776C284.548 470.656 284.72 470.513 284.851 470.346L285.37 470.784C285.229 470.991 285.004 471.184 284.695 471.361C284.387 471.535 284.012 471.623 283.57 471.623C282.853 471.623 282.302 471.411 281.917 470.989C281.535 470.563 281.344 470.013 281.344 469.34ZM286.25 471.5V467.053H288.169C288.663 467.053 289.054 467.152 289.343 467.351C289.632 467.548 289.777 467.845 289.777 468.243C289.777 468.494 289.703 468.703 289.556 468.869C289.409 469.036 289.209 469.146 288.959 469.201V469.213C289.267 469.259 289.505 469.37 289.675 469.544C289.846 469.716 289.932 469.937 289.932 470.207C289.932 470.614 289.781 470.931 289.478 471.16C289.178 471.387 288.784 471.5 288.296 471.5H286.25ZM287.056 468.922H288.169C288.45 468.922 288.652 468.866 288.774 468.755C288.9 468.643 288.963 468.486 288.963 468.284C288.963 468.088 288.9 467.945 288.774 467.855C288.652 467.765 288.45 467.714 288.169 467.703H287.056V468.922ZM287.056 470.849H288.296C288.579 470.849 288.788 470.794 288.922 470.682C289.055 470.57 289.122 470.412 289.122 470.207C289.122 470.008 289.057 469.851 288.926 469.737C288.795 469.622 288.585 469.565 288.296 469.565H287.056V470.849Z" fill="#BCBCCF"/>
<circle cx="6" cy="6" r="5.25" transform="matrix(-1 0 0 1 266 428)" fill="white" stroke="#E4E4E4" stroke-width="1.5"/>
</g>
<g filter="url(#filter2_dddd_2004_1241)">
<path d="M47 194C47 189.582 50.5817 186 55 186H198C202.418 186 206 189.582 206 194V264C206 268.418 202.418 272 198 272H55C50.5817 272 47 268.418 47 264V194Z" fill="white"/>
<path d="M198 185C202.971 185 207 189.029 207 194V264C207 268.971 202.971 273 198 273H55C50.0294 273 46 268.971 46 264V194C46 189.029 50.0294 185 55 185H198Z" stroke="#F8F8F8" stroke-width="2"/>
<path d="M64.3301 207V199.891H66.7764C67.5251 199.891 68.1143 200.042 68.5439 200.345C68.9736 200.647 69.1885 201.124 69.1885 201.775C69.1885 202.166 69.0859 202.483 68.8809 202.728C68.6758 202.972 68.4235 203.146 68.124 203.25V203.27C68.4919 203.374 68.7913 203.566 69.0225 203.846C69.2568 204.126 69.374 204.493 69.374 204.949C69.374 205.6 69.151 206.105 68.7051 206.463C68.2591 206.821 67.6667 207 66.9277 207H64.3301ZM65.292 206.194H66.9277C67.4388 206.194 67.8132 206.082 68.0508 205.857C68.2884 205.63 68.4072 205.324 68.4072 204.939C68.4072 204.559 68.2884 204.256 68.0508 204.031C67.8132 203.807 67.4388 203.694 66.9277 203.694H65.292V206.194ZM65.292 202.903H66.7764C67.2874 202.903 67.6553 202.806 67.8799 202.61C68.1045 202.412 68.2168 202.137 68.2168 201.785C68.2168 201.437 68.1045 201.168 67.8799 200.979C67.6553 200.791 67.2874 200.696 66.7764 200.696H65.292V202.903ZM71.5371 201.741V203.558H72.7139C73.3584 203.558 73.8548 203.712 74.2031 204.021C74.5514 204.331 74.7256 204.746 74.7256 205.267C74.7256 205.791 74.5514 206.211 74.2031 206.526C73.8548 206.842 73.3584 207 72.7139 207H70.5898V201.741H71.5371ZM72.7139 204.314H71.5371V206.243H72.7139C73.1012 206.243 73.373 206.15 73.5293 205.965C73.6855 205.779 73.7637 205.547 73.7637 205.267C73.7637 204.99 73.6855 204.762 73.5293 204.583C73.373 204.404 73.1012 204.314 72.7139 204.314ZM75.4043 207V201.741H76.3516V207H75.4043ZM78.4902 204.422V204.578C78.4902 205.079 78.6237 205.503 78.8906 205.848C79.1576 206.189 79.5531 206.36 80.0771 206.36C80.6045 206.36 81 206.189 81.2637 205.848C81.5306 205.503 81.6641 205.079 81.6641 204.578V204.422C81.6641 203.924 81.5306 203.504 81.2637 203.162C81 202.817 80.6045 202.645 80.0771 202.645C79.5531 202.645 79.1576 202.817 78.8906 203.162C78.6237 203.504 78.4902 203.924 78.4902 204.422ZM80.2383 201.858C80.9382 201.858 81.5127 202.099 81.9619 202.581C82.4111 203.06 82.6357 203.673 82.6357 204.422V204.578C82.6357 205.337 82.403 205.955 81.9375 206.434C81.4753 206.909 80.8551 207.146 80.0771 207.146C79.2829 207.146 78.6579 206.902 78.2021 206.414C77.7497 205.926 77.5234 205.169 77.5234 204.144V203.948C77.5234 202.767 77.7269 201.844 78.1338 201.18C78.5439 200.516 79.2926 200.101 80.3799 199.935C80.9723 199.843 81.3141 199.769 81.4053 199.71C81.4964 199.651 81.5501 199.581 81.5664 199.5H82.3867C82.3509 199.865 82.2109 200.146 81.9668 200.345C81.7259 200.54 81.2311 200.688 80.4824 200.789C79.6393 200.9 79.0697 201.149 78.7734 201.536C78.4772 201.92 78.3031 202.415 78.251 203.021H78.3047C78.4674 202.649 78.7132 202.363 79.042 202.161C79.374 201.959 79.7728 201.858 80.2383 201.858ZM83.4658 204.446V204.29C83.4658 203.499 83.6969 202.853 84.1592 202.352C84.6247 201.847 85.2448 201.595 86.0195 201.595C86.7975 201.595 87.4176 201.847 87.8799 202.352C88.3454 202.853 88.5781 203.499 88.5781 204.29V204.446C88.5781 205.241 88.3454 205.89 87.8799 206.395C87.4176 206.896 86.7975 207.146 86.0195 207.146C85.2448 207.146 84.6247 206.896 84.1592 206.395C83.6969 205.89 83.4658 205.241 83.4658 204.446ZM84.4375 204.29V204.446C84.4375 204.983 84.5693 205.438 84.833 205.809C85.0999 206.176 85.4954 206.36 86.0195 206.36C86.5469 206.36 86.944 206.176 87.2109 205.809C87.4779 205.438 87.6113 204.983 87.6113 204.446V204.29C87.6113 203.759 87.4779 203.31 87.2109 202.942C86.944 202.571 86.5469 202.386 86.0195 202.386C85.4954 202.386 85.0999 202.571 84.833 202.942C84.5693 203.31 84.4375 203.759 84.4375 204.29ZM89.7207 209.031V201.741H90.5801L90.624 202.43H90.6484C90.7884 202.212 91.0016 202.026 91.2881 201.873C91.5745 201.72 91.9082 201.644 92.2891 201.644C92.9759 201.644 93.5244 201.894 93.9346 202.396C94.348 202.894 94.5547 203.525 94.5547 204.29V204.446C94.5547 205.215 94.348 205.849 93.9346 206.351C93.5244 206.849 92.9759 207.098 92.2891 207.098C91.9082 207.098 91.5827 207.033 91.3125 206.902C91.0423 206.772 90.8275 206.598 90.668 206.38V209.031H89.7207ZM90.668 205.413C90.7754 205.647 90.9495 205.856 91.1904 206.038C91.4346 206.22 91.7308 206.312 92.0791 206.312C92.5967 206.312 92.9759 206.132 93.2168 205.774C93.4609 205.416 93.583 204.974 93.583 204.446V204.29C93.583 203.769 93.4609 203.33 93.2168 202.972C92.9759 202.614 92.5967 202.435 92.0791 202.435C91.7308 202.435 91.4346 202.526 91.1904 202.708C90.9495 202.89 90.7754 203.097 90.668 203.328V205.413ZM98.1387 207V201.741H99.0811V205.018C99.0811 205.118 99.0794 205.232 99.0762 205.359C99.0762 205.483 99.0745 205.595 99.0713 205.696H99.1152C99.1608 205.612 99.2113 205.521 99.2666 205.423C99.3252 205.325 99.387 205.224 99.4521 205.12L101.596 201.741H102.558V207H101.615V203.729C101.615 203.628 101.615 203.514 101.615 203.387C101.618 203.26 101.623 203.147 101.63 203.05H101.576C101.534 203.131 101.483 203.222 101.425 203.323C101.369 203.424 101.309 203.527 101.244 203.631L99.1006 207H98.1387ZM105.785 207.146C105.04 207.146 104.48 206.961 104.105 206.59C103.731 206.219 103.544 205.805 103.544 205.35V205.325H104.467V205.35C104.467 205.613 104.568 205.848 104.77 206.053C104.975 206.258 105.315 206.36 105.79 206.36C106.213 206.36 106.531 206.282 106.742 206.126C106.957 205.966 107.064 205.747 107.064 205.467C107.064 205.232 106.981 205.047 106.815 204.91C106.653 204.773 106.373 204.705 105.976 204.705H105.058V203.953H105.937C106.275 203.953 106.519 203.886 106.669 203.753C106.819 203.619 106.894 203.434 106.894 203.196C106.894 202.926 106.807 202.723 106.635 202.586C106.462 202.449 106.197 202.381 105.839 202.381C105.406 202.381 105.087 202.482 104.882 202.684C104.68 202.885 104.579 203.121 104.579 203.392V203.416H103.656V203.392C103.656 202.907 103.843 202.487 104.218 202.132C104.592 201.774 105.132 201.595 105.839 201.595C106.467 201.595 106.959 201.727 107.313 201.99C107.672 202.254 107.851 202.636 107.851 203.138C107.851 203.427 107.761 203.675 107.582 203.88C107.406 204.085 107.167 204.218 106.864 204.28V204.295C107.226 204.35 107.507 204.48 107.709 204.686C107.911 204.887 108.012 205.148 108.012 205.467C108.012 206.001 107.805 206.414 107.392 206.707C106.981 207 106.446 207.146 105.785 207.146ZM111.278 204.446V204.29C111.278 203.499 111.501 202.853 111.947 202.352C112.393 201.847 113.005 201.595 113.783 201.595C114.506 201.595 115.054 201.784 115.429 202.161C115.806 202.539 115.995 202.96 115.995 203.426V203.45H115.072V203.426C115.072 203.149 114.97 202.907 114.765 202.698C114.563 202.487 114.236 202.381 113.783 202.381C113.256 202.381 112.868 202.566 112.621 202.938C112.374 203.305 112.25 203.756 112.25 204.29V204.446C112.25 204.983 112.374 205.438 112.621 205.809C112.868 206.176 113.256 206.36 113.783 206.36C114.236 206.36 114.563 206.256 114.765 206.048C114.97 205.836 115.072 205.594 115.072 205.32V205.296H115.995V205.32C115.995 205.783 115.806 206.202 115.429 206.58C115.054 206.958 114.506 207.146 113.783 207.146C113.005 207.146 112.393 206.896 111.947 206.395C111.501 205.89 111.278 205.241 111.278 204.446ZM116.947 201.741H121.249V207H120.302V202.498H117.895V207H116.947V201.741ZM122.699 207V201.741H123.642V205.018C123.642 205.118 123.64 205.232 123.637 205.359C123.637 205.483 123.635 205.595 123.632 205.696H123.676C123.721 205.612 123.772 205.521 123.827 205.423C123.886 205.325 123.948 205.224 124.013 205.12L126.156 201.741H127.118V207H126.176V203.729C126.176 203.628 126.176 203.514 126.176 203.387C126.179 203.26 126.184 203.147 126.19 203.05H126.137C126.094 203.131 126.044 203.222 125.985 203.323C125.93 203.424 125.87 203.527 125.805 203.631L123.661 207H122.699ZM128.261 204.446V204.29C128.261 203.499 128.484 202.853 128.93 202.352C129.376 201.847 129.988 201.595 130.766 201.595C131.488 201.595 132.037 201.784 132.411 202.161C132.789 202.539 132.978 202.96 132.978 203.426V203.45H132.055V203.426C132.055 203.149 131.952 202.907 131.747 202.698C131.545 202.487 131.218 202.381 130.766 202.381C130.238 202.381 129.851 202.566 129.604 202.938C129.356 203.305 129.232 203.756 129.232 204.29V204.446C129.232 204.983 129.356 205.438 129.604 205.809C129.851 206.176 130.238 206.36 130.766 206.36C131.218 206.36 131.545 206.256 131.747 206.048C131.952 205.836 132.055 205.594 132.055 205.32V205.296H132.978V205.32C132.978 205.783 132.789 206.202 132.411 206.58C132.037 206.958 131.488 207.146 130.766 207.146C129.988 207.146 129.376 206.896 128.93 206.395C128.484 205.89 128.261 205.241 128.261 204.446ZM137.348 207L135.287 204.563L135.883 203.948L138.534 207H137.348ZM134.403 203.958H135.355L137.201 201.741H138.29L135.78 204.71H134.403V203.958ZM134.877 201.741V207H133.93V201.741H134.877ZM138.969 205.452C138.969 204.918 139.187 204.503 139.623 204.207C140.062 203.911 140.618 203.763 141.288 203.763H142.533V203.362C142.533 203.066 142.447 202.825 142.274 202.64C142.105 202.451 141.811 202.356 141.391 202.356C140.974 202.356 140.676 202.438 140.497 202.601C140.318 202.763 140.229 202.952 140.229 203.167V203.191H139.281V203.167C139.281 202.747 139.473 202.381 139.857 202.068C140.242 201.753 140.762 201.595 141.42 201.595C142.071 201.595 142.577 201.743 142.938 202.039C143.3 202.335 143.48 202.776 143.48 203.362V205.828C143.48 206.04 143.497 206.24 143.529 206.429C143.565 206.614 143.612 206.779 143.671 206.922V207H142.753C142.707 206.915 142.665 206.806 142.626 206.673C142.587 206.539 142.562 206.406 142.553 206.272C142.423 206.487 142.214 206.679 141.928 206.849C141.641 207.015 141.272 207.098 140.819 207.098C140.305 207.098 139.867 206.958 139.506 206.678C139.148 206.395 138.969 205.986 138.969 205.452ZM139.916 205.403C139.916 205.696 140.006 205.926 140.185 206.092C140.367 206.258 140.65 206.341 141.034 206.341C141.415 206.341 141.76 206.217 142.069 205.97C142.379 205.719 142.533 205.455 142.533 205.179V204.441H141.391C140.906 204.441 140.538 204.529 140.287 204.705C140.04 204.878 139.916 205.11 139.916 205.403Z" fill="black"/>
<path d="M64.1955 221V215.043H66.2822C66.9204 215.043 67.4223 215.17 67.7878 215.423C68.1533 215.677 68.336 216.077 68.336 216.622C68.336 216.95 68.2488 217.215 68.0742 217.42C67.9024 217.625 67.6896 217.771 67.4359 217.858V217.874C67.7469 217.961 68.0005 218.122 68.1969 218.357C68.396 218.592 68.4956 218.9 68.4956 219.282C68.4956 219.827 68.3047 220.25 67.9228 220.55C67.5437 220.85 67.0391 221 66.409 221H64.1955ZM65.0138 220.313H66.409C66.8427 220.313 67.1618 220.219 67.3664 220.03C67.5709 219.842 67.6732 219.588 67.6732 219.269C67.6732 218.953 67.5709 218.702 67.3664 218.517C67.1618 218.331 66.8427 218.238 66.409 218.238H65.0138V220.313ZM65.0138 217.559H66.2822C66.7158 217.559 67.0282 217.479 67.2191 217.318C67.4127 217.154 67.5096 216.926 67.5096 216.634C67.5096 216.345 67.4127 216.123 67.2191 215.968C67.0282 215.809 66.7158 215.73 66.2822 215.73H65.0138V217.559ZM70.3204 216.553V218.095H71.3023C71.8424 218.095 72.2583 218.226 72.5502 218.488C72.842 218.747 72.988 219.097 72.988 219.539C72.988 219.979 72.842 220.332 72.5502 220.599C72.2583 220.866 71.8424 221 71.3023 221H69.5144V216.553H70.3204ZM71.3023 218.746H70.3204V220.349H71.3023C71.6214 220.349 71.8451 220.273 71.9733 220.12C72.1015 219.965 72.1656 219.771 72.1656 219.539C72.1656 219.308 72.1015 219.118 71.9733 218.971C71.8451 218.821 71.6214 218.746 71.3023 218.746ZM73.5567 221V216.553H74.3627V221H73.5567ZM76.167 218.832V218.962C76.167 219.38 76.2816 219.732 76.5107 220.018C76.7398 220.304 77.0794 220.448 77.5294 220.448C77.9822 220.448 78.3218 220.304 78.5482 220.018C78.7773 219.732 78.8919 219.38 78.8919 218.962V218.832C78.8919 218.414 78.7773 218.062 78.5482 217.776C78.3218 217.49 77.9822 217.346 77.5294 217.346C77.0794 217.346 76.7398 217.49 76.5107 217.776C76.2816 218.062 76.167 218.414 76.167 218.832ZM77.6399 216.671C78.2318 216.671 78.7255 216.872 79.121 217.273C79.5192 217.674 79.7183 218.193 79.7183 218.832V218.962C79.7183 219.601 79.5192 220.12 79.121 220.521C78.7255 220.922 78.195 221.123 77.5294 221.123C76.853 221.123 76.3184 220.917 75.9256 220.505C75.5356 220.093 75.3405 219.471 75.3405 218.639V218.451C75.3405 217.466 75.5137 216.694 75.8601 216.135C76.2093 215.573 76.8421 215.222 77.7585 215.08C78.2659 215.001 78.5591 214.938 78.6382 214.892C78.7173 214.842 78.7637 214.784 78.7773 214.716H79.4688C79.4388 215.027 79.3215 215.265 79.1169 215.432C78.9123 215.595 78.4882 215.719 77.8445 215.804C77.1326 215.897 76.6525 216.103 76.4043 216.422C76.1561 216.738 76.0102 217.145 75.9665 217.641H76.0115C76.1452 217.33 76.3511 217.091 76.6293 216.925C76.9075 216.756 77.2444 216.671 77.6399 216.671ZM80.6757 222.702V216.553H81.4081L81.4449 217.134H81.4654C81.5854 216.951 81.7681 216.795 82.0136 216.667C82.2618 216.536 82.5496 216.471 82.8769 216.471C83.4633 216.471 83.9325 216.682 84.2843 217.105C84.6362 217.528 84.8121 218.062 84.8121 218.709V218.84C84.8121 219.489 84.6362 220.025 84.2843 220.448C83.9325 220.87 83.4633 221.082 82.8769 221.082C82.5496 221.082 82.27 221.027 82.0382 220.918C81.8063 220.806 81.6208 220.658 81.4817 220.472V222.702H80.6757ZM81.4817 219.65C81.5745 219.846 81.7245 220.022 81.9318 220.178C82.1418 220.33 82.3968 220.407 82.6969 220.407C83.1415 220.407 83.4674 220.257 83.6747 219.957C83.882 219.654 83.9857 219.282 83.9857 218.84V218.709C83.9857 218.27 83.882 217.9 83.6747 217.6C83.4674 217.297 83.1415 217.146 82.6969 217.146C82.3968 217.146 82.1418 217.224 81.9318 217.379C81.7245 217.532 81.5745 217.706 81.4817 217.903V219.65ZM85.5281 219.695C85.5281 219.242 85.715 218.89 86.0886 218.639C86.4651 218.386 86.941 218.259 87.5166 218.259H88.5844V217.911C88.5844 217.666 88.5108 217.466 88.3635 217.314C88.2162 217.158 87.9625 217.08 87.6025 217.08C87.2424 217.08 86.9847 217.15 86.8292 217.289C86.6764 217.425 86.6001 217.584 86.6001 217.764V217.784H85.7941V217.764C85.7941 217.409 85.9591 217.098 86.2891 216.831C86.6192 216.564 87.0638 216.43 87.6229 216.43C88.1821 216.43 88.6158 216.554 88.924 216.802C89.2349 217.05 89.3904 217.42 89.3904 217.911V220.018C89.3904 220.195 89.4041 220.363 89.4313 220.521C89.4613 220.677 89.5022 220.815 89.5541 220.935V221H88.7726C88.7317 220.929 88.6949 220.836 88.6621 220.722C88.6294 220.607 88.609 220.494 88.6008 220.382C88.4889 220.565 88.3089 220.727 88.0607 220.869C87.8152 221.011 87.4975 221.082 87.1074 221.082C86.671 221.082 86.2987 220.963 85.9905 220.726C85.6822 220.486 85.5281 220.142 85.5281 219.695ZM86.3341 219.654C86.3341 219.899 86.4119 220.092 86.5673 220.231C86.7255 220.367 86.9683 220.435 87.2956 220.435C87.6229 220.435 87.9189 220.332 88.1834 220.124C88.4508 219.914 88.5844 219.693 88.5844 219.462V218.844H87.6025C87.1851 218.844 86.8687 218.917 86.6533 219.065C86.4405 219.209 86.3341 219.406 86.3341 219.654ZM90.6015 216.553H91.4075V218.422H93.5227V216.553H94.3287V221H93.5227V219.073H91.4075V221H90.6015V216.553ZM95.5439 216.553H96.3499V218.422H98.4651V216.553H99.2712V221H98.4651V219.073H96.3499V221H95.5439V216.553ZM101.292 216.553V218.095H102.274C102.814 218.095 103.23 218.226 103.522 218.488C103.814 218.747 103.96 219.097 103.96 219.539C103.96 219.979 103.814 220.332 103.522 220.599C103.23 220.866 102.814 221 102.274 221H100.486V216.553H101.292ZM102.274 218.746H101.292V220.349H102.274C102.593 220.349 102.817 220.273 102.945 220.12C103.073 219.965 103.138 219.771 103.138 219.539C103.138 219.308 103.073 219.118 102.945 218.971C102.817 218.821 102.593 218.746 102.274 218.746ZM104.529 221V216.553H105.335V221H104.529ZM106.55 221V216.553H107.356V219.335C107.356 219.419 107.354 219.515 107.352 219.621C107.352 219.728 107.35 219.823 107.348 219.908H107.38C107.419 219.837 107.461 219.76 107.507 219.678C107.556 219.594 107.609 219.508 107.667 219.421L109.5 216.553H110.322V221H109.516V218.222C109.516 218.137 109.516 218.043 109.516 217.94C109.519 217.833 109.521 217.738 109.524 217.653H109.491C109.453 217.724 109.41 217.802 109.361 217.886C109.314 217.968 109.262 218.053 109.205 218.14L107.372 221H106.55ZM108.44 215.153C108.658 215.153 108.833 215.097 108.964 214.986C109.097 214.874 109.215 214.68 109.316 214.405L109.925 214.765C109.775 215.117 109.572 215.374 109.316 215.538C109.062 215.699 108.77 215.779 108.44 215.779C108.11 215.779 107.818 215.699 107.564 215.538C107.311 215.377 107.109 215.119 106.959 214.765L107.569 214.401C107.669 214.679 107.785 214.874 107.916 214.986C108.05 215.097 108.225 215.153 108.44 215.153ZM113.321 218.84V218.709C113.321 218.041 113.512 217.494 113.894 217.068C114.276 216.643 114.799 216.43 115.465 216.43C116.084 216.43 116.555 216.589 116.876 216.909C117.198 217.228 117.359 217.584 117.359 217.976V217.997H116.574V217.976C116.574 217.747 116.486 217.545 116.312 217.371C116.137 217.194 115.855 217.105 115.465 217.105C115.012 217.105 114.679 217.26 114.467 217.571C114.254 217.88 114.148 218.259 114.148 218.709V218.84C114.148 219.293 114.254 219.674 114.467 219.985C114.679 220.296 115.012 220.452 115.465 220.452C115.855 220.452 116.137 220.364 116.312 220.19C116.486 220.013 116.574 219.809 116.574 219.58V219.56H117.359V219.58C117.359 219.97 117.198 220.325 116.876 220.644C116.555 220.963 116.084 221.123 115.465 221.123C114.799 221.123 114.276 220.911 113.894 220.489C113.512 220.063 113.321 219.513 113.321 218.84ZM118.12 216.553H121.807V221H121.001V217.203H118.926V221H118.12V216.553ZM123.022 221V216.553H123.828V219.335C123.828 219.419 123.826 219.515 123.824 219.621C123.824 219.728 123.822 219.823 123.82 219.908H123.852C123.891 219.837 123.933 219.76 123.979 219.678C124.028 219.594 124.081 219.508 124.139 219.421L125.972 216.553H126.794V221H125.988V218.222C125.988 218.137 125.988 218.043 125.988 217.94C125.991 217.833 125.993 217.738 125.996 217.653H125.963C125.925 217.724 125.882 217.802 125.833 217.886C125.786 217.968 125.734 218.053 125.677 218.14L123.844 221H123.022ZM127.747 218.84V218.709C127.747 218.041 127.938 217.494 128.32 217.068C128.702 216.643 129.226 216.43 129.891 216.43C130.51 216.43 130.981 216.589 131.303 216.909C131.625 217.228 131.786 217.584 131.786 217.976V217.997H131V217.976C131 217.747 130.913 217.545 130.738 217.371C130.564 217.194 130.281 217.105 129.891 217.105C129.438 217.105 129.106 217.26 128.893 217.571C128.68 217.88 128.574 218.259 128.574 218.709V218.84C128.574 219.293 128.68 219.674 128.893 219.985C129.106 220.296 129.438 220.452 129.891 220.452C130.281 220.452 130.564 220.364 130.738 220.19C130.913 220.013 131 219.809 131 219.58V219.56H131.786V219.58C131.786 219.97 131.625 220.325 131.303 220.644C130.981 220.963 130.51 221.123 129.891 221.123C129.226 221.123 128.702 220.911 128.32 220.489C127.938 220.063 127.747 219.513 127.747 218.84ZM132.289 218.84V218.709C132.289 218.041 132.488 217.494 132.886 217.068C133.284 216.643 133.814 216.43 134.474 216.43C135.139 216.43 135.671 216.643 136.069 217.068C136.467 217.494 136.667 218.041 136.667 218.709V218.84C136.667 219.513 136.467 220.063 136.069 220.489C135.671 220.911 135.139 221.123 134.474 221.123C133.814 221.123 133.284 220.911 132.886 220.489C132.488 220.063 132.289 219.513 132.289 218.84ZM133.115 218.709V218.84C133.115 219.29 133.228 219.67 133.455 219.981C133.684 220.292 134.024 220.448 134.474 220.448C134.926 220.448 135.267 220.292 135.496 219.981C135.726 219.67 135.84 219.29 135.84 218.84V218.709C135.84 218.261 135.726 217.882 135.496 217.571C135.267 217.26 134.926 217.105 134.474 217.105C134.024 217.105 133.684 217.26 133.455 217.571C133.228 217.882 133.115 218.261 133.115 218.709ZM140.513 221L138.786 218.922L139.297 218.406L141.531 221H140.513ZM138.025 218.427H138.847L140.382 216.553H141.302L139.203 219.073H138.025V218.427ZM138.426 216.553V221H137.62V216.553H138.426ZM142.268 220.57C142.268 220.429 142.314 220.307 142.407 220.206C142.5 220.103 142.632 220.051 142.804 220.051C142.973 220.051 143.104 220.103 143.196 220.206C143.289 220.307 143.336 220.429 143.336 220.57C143.336 220.712 143.289 220.835 143.196 220.939C143.104 221.04 142.973 221.09 142.804 221.09C142.632 221.09 142.5 221.04 142.407 220.939C142.314 220.835 142.268 220.712 142.268 220.57ZM142.268 217.003C142.268 216.858 142.314 216.735 142.407 216.634C142.5 216.531 142.632 216.479 142.804 216.479C142.973 216.479 143.104 216.531 143.196 216.634C143.289 216.735 143.336 216.858 143.336 217.003C143.336 217.145 143.289 217.266 143.196 217.367C143.104 217.468 142.973 217.518 142.804 217.518C142.632 217.518 142.5 217.468 142.407 217.367C142.314 217.266 142.268 217.145 142.268 217.003ZM149.604 221L147.877 218.922L148.388 218.406L150.622 221H149.604ZM147.116 218.427H147.938L149.473 216.553H150.393L148.294 219.073H147.116V218.427ZM147.517 216.553V221H146.711V216.553H147.517ZM150.987 218.84V218.709C150.987 218.041 151.186 217.494 151.584 217.068C151.982 216.643 152.511 216.43 153.171 216.43C153.837 216.43 154.369 216.643 154.767 217.068C155.165 217.494 155.364 218.041 155.364 218.709V218.84C155.364 219.513 155.165 220.063 154.767 220.489C154.369 220.911 153.837 221.123 153.171 221.123C152.511 221.123 151.982 220.911 151.584 220.489C151.186 220.063 150.987 219.513 150.987 218.84ZM151.813 218.709V218.84C151.813 219.29 151.926 219.67 152.153 219.981C152.382 220.292 152.721 220.448 153.171 220.448C153.624 220.448 153.965 220.292 154.194 219.981C154.423 219.67 154.538 219.29 154.538 218.84V218.709C154.538 218.261 154.423 217.882 154.194 217.571C153.965 217.26 153.624 217.105 153.171 217.105C152.721 217.105 152.382 217.26 152.153 217.571C151.926 217.882 151.813 218.261 151.813 218.709ZM156.318 221V216.553H157.467L158.682 219.621C158.748 219.785 158.79 219.898 158.809 219.961C158.831 220.024 158.849 220.088 158.862 220.153H158.903C158.92 220.088 158.936 220.024 158.952 219.961C158.972 219.898 159.015 219.788 159.083 219.629L160.303 216.553H161.428V221H160.642V217.976C160.642 217.81 160.644 217.691 160.646 217.62C160.652 217.547 160.657 217.481 160.663 217.424H160.626C160.612 217.481 160.595 217.547 160.573 217.62C160.551 217.691 160.509 217.806 160.446 217.964L159.239 221H158.482L157.275 217.952C157.218 217.807 157.177 217.698 157.152 217.625C157.13 217.548 157.113 217.481 157.099 217.424H157.058C157.064 217.481 157.069 217.545 157.075 217.616C157.08 217.687 157.081 217.798 157.079 217.948V221H156.318ZM162.406 219.695C162.406 219.242 162.592 218.89 162.966 218.639C163.343 218.386 163.819 218.259 164.394 218.259H165.462V217.911C165.462 217.666 165.388 217.466 165.241 217.314C165.094 217.158 164.84 217.08 164.48 217.08C164.12 217.08 163.862 217.15 163.707 217.289C163.554 217.425 163.478 217.584 163.478 217.764V217.784H162.672V217.764C162.672 217.409 162.837 217.098 163.167 216.831C163.497 216.564 163.941 216.43 164.5 216.43C165.06 216.43 165.493 216.554 165.801 216.802C166.112 217.05 166.268 217.42 166.268 217.911V220.018C166.268 220.195 166.282 220.363 166.309 220.521C166.339 220.677 166.38 220.815 166.432 220.935V221H165.65C165.609 220.929 165.572 220.836 165.54 220.722C165.507 220.607 165.486 220.494 165.478 220.382C165.366 220.565 165.186 220.727 164.938 220.869C164.693 221.011 164.375 221.082 163.985 221.082C163.548 221.082 163.176 220.963 162.868 220.726C162.56 220.486 162.406 220.142 162.406 219.695ZM163.212 219.654C163.212 219.899 163.289 220.092 163.445 220.231C163.603 220.367 163.846 220.435 164.173 220.435C164.5 220.435 164.796 220.332 165.061 220.124C165.328 219.914 165.462 219.693 165.462 219.462V218.844H164.48C164.063 218.844 163.746 218.917 163.531 219.065C163.318 219.209 163.212 219.406 163.212 219.654ZM167.479 216.553H168.285V218.422H170.4V216.553H171.206V221H170.4V219.073H168.285V221H167.479V216.553ZM175.887 222.105V221H172.61V222.105H171.857V220.349H176.64V222.105H175.887ZM173.436 217.203L173.383 218.435C173.353 219.087 173.317 219.538 173.276 219.789C173.238 220.037 173.181 220.238 173.105 220.39H172.282C172.397 220.235 172.479 220.033 172.528 219.785C172.58 219.537 172.619 219.062 172.646 218.361L172.724 216.553H176.005V221H175.195V217.203H173.436ZM177.094 219.695C177.094 219.242 177.281 218.89 177.654 218.639C178.031 218.386 178.507 218.259 179.082 218.259H180.15V217.911C180.15 217.666 180.076 217.466 179.929 217.314C179.782 217.158 179.528 217.08 179.168 217.08C178.808 217.08 178.55 217.15 178.395 217.289C178.242 217.425 178.166 217.584 178.166 217.764V217.784H177.36V217.764C177.36 217.409 177.525 217.098 177.855 216.831C178.185 216.564 178.629 216.43 179.189 216.43C179.748 216.43 180.181 216.554 180.49 216.802C180.801 217.05 180.956 217.42 180.956 217.911V220.018C180.956 220.195 180.97 220.363 180.997 220.521C181.027 220.677 181.068 220.815 181.12 220.935V221H180.338C180.297 220.929 180.261 220.836 180.228 220.722C180.195 220.607 180.175 220.494 180.166 220.382C180.055 220.565 179.875 220.727 179.626 220.869C179.381 221.011 179.063 221.082 178.673 221.082C178.237 221.082 177.864 220.963 177.556 220.726C177.248 220.486 177.094 220.142 177.094 219.695ZM177.9 219.654C177.9 219.899 177.978 220.092 178.133 220.231C178.291 220.367 178.534 220.435 178.861 220.435C179.189 220.435 179.485 220.332 179.749 220.124C180.016 219.914 180.15 219.693 180.15 219.462V218.844H179.168C178.751 218.844 178.434 218.917 178.219 219.065C178.006 219.209 177.9 219.406 177.9 219.654Z" fill="#BCBCCF"/>
<rect opacity="0.1" x="57" y="230" width="139" height="28" rx="5" fill="#D9D9D9"/>
<path d="M128.355 237.879V237.625C128.355 236.93 128.543 236.387 128.92 235.998C129.297 235.607 129.769 235.411 130.338 235.411C130.908 235.411 131.343 235.561 131.644 235.859C131.946 236.156 132.118 236.513 132.159 236.931L132.162 236.962H131.529L131.526 236.931C131.502 236.69 131.396 236.469 131.208 236.267C131.021 236.063 130.731 235.961 130.338 235.961C129.946 235.961 129.624 236.109 129.371 236.406C129.12 236.7 128.994 237.107 128.994 237.625V237.879C128.994 238.397 129.12 238.805 129.371 239.101C129.624 239.396 129.946 239.543 130.338 239.543C130.731 239.543 131.021 239.442 131.208 239.24C131.396 239.037 131.502 238.814 131.526 238.573L131.529 238.543H132.162L132.159 238.573C132.118 238.991 131.946 239.349 131.644 239.648C131.343 239.944 130.908 240.093 130.338 240.093C129.769 240.093 129.297 239.898 128.92 239.509C128.543 239.118 128.355 238.574 128.355 237.879ZM132.916 237.879V237.625C132.916 236.93 133.104 236.387 133.481 235.998C133.858 235.607 134.341 235.411 134.932 235.411C135.521 235.411 136.004 235.607 136.38 235.998C136.759 236.387 136.948 236.93 136.948 237.625V237.879C136.948 238.574 136.759 239.118 136.38 239.509C136.004 239.898 135.521 240.093 134.932 240.093C134.341 240.093 133.858 239.898 133.481 239.509C133.104 239.118 132.916 238.574 132.916 237.879ZM133.555 237.879C133.555 238.397 133.68 238.805 133.932 239.101C134.185 239.396 134.518 239.543 134.932 239.543C135.346 239.543 135.678 239.396 135.929 239.101C136.183 238.805 136.309 238.397 136.309 237.879V237.625C136.309 237.107 136.183 236.7 135.929 236.406C135.678 236.109 135.346 235.961 134.932 235.961C134.518 235.961 134.185 236.109 133.932 236.406C133.68 236.7 133.555 237.107 133.555 237.625V237.879ZM137.955 240V235.504H139.536C140.02 235.504 140.4 235.6 140.675 235.791C140.953 235.983 141.092 236.284 141.092 236.696C141.092 236.943 141.026 237.144 140.895 237.298C140.765 237.453 140.603 237.563 140.41 237.629V237.641C140.647 237.707 140.839 237.828 140.987 238.005C141.138 238.182 141.213 238.415 141.213 238.703C141.213 239.115 141.069 239.434 140.78 239.66C140.492 239.887 140.109 240 139.632 240H137.955ZM138.576 239.478H139.632C139.961 239.478 140.203 239.408 140.357 239.268C140.512 239.126 140.589 238.935 140.589 238.694C140.589 238.455 140.512 238.266 140.357 238.126C140.203 237.986 139.961 237.916 139.632 237.916H138.576V239.478ZM138.576 237.403H139.536C139.865 237.403 140.102 237.342 140.246 237.221C140.392 237.097 140.465 236.926 140.465 236.705C140.465 236.487 140.392 236.319 140.246 236.202C140.102 236.085 139.865 236.026 139.536 236.026H138.576V237.403ZM142.176 240V235.504H145.783V240H145.15V236.035H142.809V240H142.176ZM146.434 240L148.213 235.476H148.818L150.596 240H149.929L148.657 236.65C148.626 236.574 148.6 236.5 148.577 236.43C148.556 236.36 148.537 236.288 148.518 236.214H148.484C148.468 236.288 148.448 236.36 148.426 236.43C148.403 236.5 148.377 236.574 148.348 236.65L147.064 240H146.434ZM147.197 238.854L147.394 238.323L149.621 238.329L149.818 238.861L147.197 238.854ZM154.876 240.895V240H151.371V240.895H150.785V239.469H155.463V240.895H154.876ZM151.754 235.504H154.876V240H154.243V236.035H152.282L152.205 237.971C152.184 238.49 152.139 238.86 152.069 239.08C152.001 239.3 151.91 239.469 151.794 239.586H151.134C151.286 239.461 151.399 239.288 151.473 239.067C151.549 238.845 151.601 238.478 151.628 237.965L151.754 235.504ZM156.21 240V235.504H159.208V236.032H156.843V237.415H158.915V237.947H156.843V239.472H159.242V240H156.21ZM160.104 240V235.504H160.737V237.415H163.139V235.504H163.772V240H163.139V237.947H160.737V240H160.104ZM168.632 240H167.999V236.795C167.999 236.733 168.001 236.664 168.005 236.588C168.009 236.51 168.013 236.44 168.018 236.378H167.987C167.962 236.429 167.931 236.486 167.894 236.548C167.857 236.61 167.818 236.671 167.777 236.733L165.597 240H164.948V235.504H165.581V238.644C165.581 238.706 165.579 238.792 165.575 238.901C165.571 239.008 165.567 239.092 165.563 239.154H165.594C165.618 239.102 165.651 239.039 165.692 238.962C165.734 238.884 165.775 238.814 165.816 238.753L167.984 235.504H168.632V240ZM172.819 240H172.186V238.206H170.982L170.877 238.178C170.484 238.121 170.181 237.972 169.969 237.734C169.757 237.495 169.651 237.198 169.651 236.844C169.651 236.439 169.79 236.114 170.068 235.872C170.348 235.627 170.744 235.504 171.257 235.504H172.819V240ZM172.186 237.681V236.029H171.257C170.892 236.029 170.639 236.107 170.497 236.264C170.355 236.42 170.284 236.614 170.284 236.844C170.284 237.077 170.355 237.274 170.497 237.437C170.639 237.6 170.892 237.681 171.257 237.681H172.186ZM170.105 240H169.416L170.583 237.925H171.263L170.105 240Z" fill="#BCBCCF"/>
<path d="M63.5249 240V235.504H67.1315V240H66.4985V236.035H64.1579V240H63.5249ZM67.783 240L69.5616 235.476H70.1668L71.9454 240H71.2784L70.0062 236.65C69.9753 236.574 69.9486 236.5 69.9259 236.43C69.9053 236.36 69.8858 236.288 69.8673 236.214H69.8333C69.8168 236.288 69.7973 236.36 69.7746 236.43C69.752 236.5 69.7262 236.574 69.6974 236.65L68.4129 240H67.783ZM68.5457 238.854L68.7433 238.323L70.9696 238.329L71.1672 238.861L68.5457 238.854ZM72.5968 240V235.504H74.184C74.711 235.504 75.1155 235.63 75.3975 235.881C75.6795 236.132 75.8205 236.466 75.8205 236.884C75.8205 237.302 75.6795 237.639 75.3975 237.894C75.1155 238.149 74.711 238.277 74.184 238.277H73.2298V240H72.5968ZM73.2298 237.749H74.184C74.5566 237.749 74.817 237.666 74.9652 237.499C75.1155 237.33 75.1906 237.125 75.1906 236.884C75.1906 236.644 75.1155 236.442 74.9652 236.279C74.817 236.114 74.5566 236.032 74.184 236.032H73.2298V237.749ZM76.1014 240L77.88 235.476H78.4852L80.2638 240H79.5968L78.3246 236.65C78.2938 236.574 78.267 236.5 78.2444 236.43C78.2238 236.36 78.2042 236.288 78.1857 236.214H78.1517C78.1353 236.288 78.1157 236.36 78.0931 236.43C78.0704 236.5 78.0447 236.574 78.0159 236.65L76.7313 240H76.1014ZM76.8641 238.854L77.0617 238.323L79.2881 238.329L79.4857 238.861L76.8641 238.854ZM80.9152 240V235.504H81.7737L83.1076 238.753C83.1323 238.814 83.158 238.879 83.1848 238.947C83.2116 239.015 83.2363 239.079 83.2589 239.138H83.2867C83.3073 239.079 83.3299 239.015 83.3546 238.947C83.3814 238.879 83.4071 238.814 83.4318 238.753L84.738 235.504H85.6304V240H85.0159V236.721C85.0159 236.659 85.0169 236.59 85.019 236.514C85.0231 236.436 85.0293 236.366 85.0375 236.304H85.0035C84.983 236.366 84.9583 236.436 84.9294 236.514C84.9027 236.59 84.8769 236.659 84.8522 236.721L83.5337 240H82.9841L81.6378 236.721C81.6131 236.659 81.5874 236.59 81.5606 236.514C81.5359 236.436 81.5184 236.366 81.5081 236.304H81.471C81.4772 236.366 81.4834 236.436 81.4896 236.514C81.4957 236.59 81.4988 236.659 81.4988 236.721V240H80.9152ZM86.8098 240V235.504H89.8081V236.032H87.4428V237.415H89.5148V237.947H87.4428V239.472H89.8421V240H86.8098ZM90.2526 236.032V235.504H93.9395V236.032H92.4111V240H91.7811V236.032H90.2526ZM94.6651 240V235.504H96.2522C96.7792 235.504 97.1837 235.63 97.4658 235.881C97.7478 236.132 97.8888 236.466 97.8888 236.884C97.8888 237.302 97.7478 237.639 97.4658 237.894C97.1837 238.149 96.7792 238.277 96.2522 238.277H95.2981V240H94.6651ZM95.2981 237.749H96.2522C96.6248 237.749 96.8852 237.666 97.0335 237.499C97.1837 237.33 97.2589 237.125 97.2589 236.884C97.2589 236.644 97.1837 236.442 97.0335 236.279C96.8852 236.114 96.6248 236.032 96.2522 236.032H95.2981V237.749ZM98.6946 235.504H99.3276V237.196H100.282C100.809 237.196 101.213 237.326 101.495 237.585C101.777 237.843 101.918 238.182 101.918 238.604C101.918 239.026 101.777 239.365 101.495 239.62C101.213 239.873 100.809 240 100.282 240H98.6946V235.504ZM99.3276 237.724V239.472H100.282C100.654 239.472 100.915 239.389 101.063 239.222C101.213 239.055 101.288 238.849 101.288 238.604C101.288 238.359 101.213 238.151 101.063 237.981C100.915 237.81 100.654 237.724 100.282 237.724H99.3276ZM102.446 240H103.079V235.504H102.446V240Z" fill="#BCBCCF"/>
<path d="M129.232 252L131.605 246.759H128.29V246.043H132.484V246.542L130.095 252H129.232ZM135.954 252V250.372V250.159V247.246H135.905L133.998 249.917H136.142H136.469H137.615V250.613H133.045V250.024L135.966 246.043H136.747V252H135.954ZM140.405 253.702V247.553H141.138L141.174 248.134H141.195C141.315 247.951 141.498 247.795 141.743 247.667C141.991 247.536 142.279 247.471 142.606 247.471C143.193 247.471 143.662 247.682 144.014 248.105C144.366 248.528 144.542 249.062 144.542 249.709V249.84C144.542 250.489 144.366 251.025 144.014 251.448C143.662 251.87 143.193 252.082 142.606 252.082C142.279 252.082 141.999 252.027 141.768 251.918C141.536 251.806 141.35 251.658 141.211 251.472V253.702H140.405ZM141.211 250.65C141.304 250.846 141.454 251.022 141.661 251.178C141.871 251.33 142.126 251.407 142.426 251.407C142.871 251.407 143.197 251.257 143.404 250.957C143.611 250.654 143.715 250.282 143.715 249.84V249.709C143.715 249.27 143.611 248.9 143.404 248.6C143.197 248.297 142.871 248.146 142.426 248.146C142.126 248.146 141.871 248.224 141.661 248.379C141.454 248.532 141.304 248.706 141.211 248.903V250.65ZM145.237 249.84V249.709C145.237 249.041 145.429 248.494 145.814 248.068C146.199 247.643 146.706 247.43 147.336 247.43C147.969 247.43 148.456 247.629 148.797 248.027C149.138 248.425 149.308 248.961 149.308 249.635V249.979H145.736V249.328H148.49V249.336C148.49 248.982 148.401 248.687 148.224 248.453C148.049 248.218 147.753 248.101 147.336 248.101C146.919 248.101 146.601 248.256 146.383 248.567C146.164 248.876 146.055 249.256 146.055 249.709V249.84C146.055 250.293 146.17 250.676 146.399 250.989C146.628 251.3 146.983 251.456 147.463 251.456C147.76 251.456 148.015 251.396 148.228 251.276C148.441 251.156 148.612 251.013 148.743 250.846L149.263 251.284C149.121 251.491 148.896 251.684 148.588 251.861C148.28 252.035 147.905 252.123 147.463 252.123C146.745 252.123 146.194 251.911 145.81 251.489C145.428 251.063 145.237 250.513 145.237 249.84ZM151.591 252.123C150.969 252.123 150.497 251.967 150.175 251.656C149.854 251.345 149.693 250.999 149.693 250.617V250.597H150.482V250.617C150.482 250.835 150.57 251.029 150.744 251.198C150.919 251.367 151.201 251.452 151.591 251.452C151.954 251.452 152.222 251.386 152.397 251.255C152.574 251.124 152.663 250.942 152.663 250.707C152.663 250.508 152.592 250.351 152.45 250.237C152.311 250.122 152.063 250.065 151.706 250.065H150.932V249.422H151.71C151.996 249.422 152.202 249.366 152.327 249.255C152.453 249.143 152.516 248.986 152.516 248.784C152.516 248.555 152.445 248.385 152.303 248.273C152.164 248.161 151.942 248.105 151.636 248.105C151.268 248.105 150.999 248.19 150.83 248.359C150.664 248.528 150.58 248.72 150.58 248.936V248.956H149.795V248.936C149.795 248.551 149.95 248.205 150.261 247.896C150.575 247.585 151.033 247.43 151.636 247.43C152.152 247.43 152.563 247.54 152.872 247.761C153.18 247.98 153.334 248.305 153.334 248.739C153.334 248.99 153.259 249.2 153.109 249.369C152.959 249.536 152.756 249.646 152.499 249.701V249.713C152.808 249.759 153.046 249.87 153.215 250.044C153.387 250.216 153.473 250.437 153.473 250.707C153.473 251.154 153.3 251.502 152.953 251.75C152.61 251.999 152.156 252.123 151.591 252.123ZM154.001 253.702V253.011C154.075 253.032 154.158 253.05 154.25 253.064C154.343 253.077 154.433 253.084 154.52 253.084C154.728 253.084 154.898 253.031 155.032 252.925C155.168 252.818 155.331 252.498 155.519 251.963V251.959L153.809 247.553H154.615L155.699 250.441C155.74 250.553 155.777 250.663 155.809 250.773C155.845 250.879 155.873 250.985 155.895 251.092H155.92C155.939 250.985 155.966 250.879 156.002 250.773C156.037 250.663 156.075 250.553 156.116 250.441L157.135 247.553H157.9L156.03 252.573C155.886 252.955 155.692 253.252 155.449 253.465C155.209 253.677 154.915 253.784 154.565 253.784C154.448 253.784 154.345 253.777 154.255 253.763C154.165 253.75 154.08 253.729 154.001 253.702ZM159.622 248.203L159.549 249.995C159.516 250.707 159.415 251.232 159.246 251.57C159.077 251.906 158.788 252.074 158.379 252.074C158.28 252.074 158.196 252.067 158.125 252.053C158.057 252.042 157.995 252.025 157.941 252V251.28C157.987 251.299 158.035 251.313 158.084 251.321C158.136 251.329 158.192 251.333 158.252 251.333C158.454 251.333 158.591 251.232 158.665 251.03C158.739 250.828 158.788 250.448 158.812 249.889L158.911 247.553H162.155V252H161.345V248.203H159.622ZM164.172 247.553V249.095H165.154C165.694 249.095 166.11 249.226 166.402 249.488C166.694 249.747 166.84 250.097 166.84 250.539C166.84 250.979 166.694 251.332 166.402 251.599C166.11 251.866 165.694 252 165.154 252H163.366V247.553H164.172ZM165.154 249.746H164.172V251.349H165.154C165.473 251.349 165.697 251.273 165.825 251.12C165.953 250.965 166.017 250.771 166.017 250.539C166.017 250.308 165.953 250.118 165.825 249.971C165.697 249.821 165.473 249.746 165.154 249.746ZM167.249 248.203V247.553H170.911V248.203H169.483V252H168.677V248.203H167.249ZM171.443 250.695C171.443 250.242 171.629 249.89 172.003 249.639C172.379 249.386 172.855 249.259 173.431 249.259H174.499V248.911C174.499 248.666 174.425 248.466 174.278 248.314C174.131 248.158 173.877 248.08 173.517 248.08C173.157 248.08 172.899 248.15 172.744 248.289C172.591 248.425 172.514 248.584 172.514 248.764V248.784H171.708V248.764C171.708 248.409 171.874 248.098 172.204 247.831C172.534 247.564 172.978 247.43 173.537 247.43C174.096 247.43 174.53 247.554 174.838 247.802C175.149 248.05 175.305 248.42 175.305 248.911V251.018C175.305 251.195 175.318 251.363 175.346 251.521C175.376 251.677 175.417 251.815 175.468 251.935V252H174.687C174.646 251.929 174.609 251.836 174.577 251.722C174.544 251.607 174.523 251.494 174.515 251.382C174.403 251.565 174.223 251.727 173.975 251.869C173.73 252.011 173.412 252.082 173.022 252.082C172.585 252.082 172.213 251.963 171.905 251.726C171.597 251.486 171.443 251.142 171.443 250.695ZM172.249 250.654C172.249 250.899 172.326 251.092 172.482 251.231C172.64 251.367 172.883 251.435 173.21 251.435C173.537 251.435 173.833 251.332 174.098 251.124C174.365 250.914 174.499 250.693 174.499 250.462V249.844H173.517C173.1 249.844 172.783 249.917 172.568 250.065C172.355 250.209 172.249 250.406 172.249 250.654ZM176.07 248.203V247.553H179.732V248.203H178.304V252H177.498V248.203H176.07ZM180.243 249.84V249.709C180.243 249.041 180.442 248.494 180.841 248.068C181.239 247.643 181.768 247.43 182.428 247.43C183.094 247.43 183.625 247.643 184.024 248.068C184.422 248.494 184.621 249.041 184.621 249.709V249.84C184.621 250.513 184.422 251.063 184.024 251.489C183.625 251.911 183.094 252.123 182.428 252.123C181.768 252.123 181.239 251.911 180.841 251.489C180.442 251.063 180.243 250.513 180.243 249.84ZM181.07 249.709V249.84C181.07 250.29 181.183 250.67 181.409 250.981C181.638 251.292 181.978 251.448 182.428 251.448C182.881 251.448 183.222 251.292 183.451 250.981C183.68 250.67 183.794 250.29 183.794 249.84V249.709C183.794 249.261 183.68 248.882 183.451 248.571C183.222 248.26 182.881 248.105 182.428 248.105C181.978 248.105 181.638 248.26 181.409 248.571C181.183 248.882 181.07 249.261 181.07 249.709ZM185.574 252V247.553H187.493C187.987 247.553 188.378 247.652 188.667 247.851C188.956 248.048 189.101 248.345 189.101 248.743C189.101 248.994 189.027 249.203 188.88 249.369C188.733 249.536 188.534 249.646 188.283 249.701V249.713C188.591 249.759 188.83 249.87 188.999 250.044C189.171 250.216 189.257 250.437 189.257 250.707C189.257 251.114 189.105 251.431 188.802 251.66C188.502 251.887 188.108 252 187.62 252H185.574ZM186.38 249.422H187.493C187.774 249.422 187.976 249.366 188.099 249.255C188.224 249.143 188.287 248.986 188.287 248.784C188.287 248.588 188.224 248.445 188.099 248.355C187.976 248.265 187.774 248.214 187.493 248.203H186.38V249.422ZM186.38 251.349H187.62C187.904 251.349 188.112 251.294 188.246 251.182C188.38 251.07 188.446 250.912 188.446 250.707C188.446 250.508 188.381 250.351 188.25 250.237C188.119 250.122 187.909 250.065 187.62 250.065H186.38V251.349Z" fill="#2887EC"/>
<path d="M63.4705 249.189V248.854C63.4705 247.932 63.7187 247.213 64.2151 246.698C64.7143 246.179 65.3539 245.92 66.134 245.92C66.9114 245.92 67.5483 246.179 68.0447 246.698C68.5439 247.213 68.7934 247.932 68.7934 248.854V249.189C68.7934 250.111 68.5439 250.831 68.0447 251.349C67.5483 251.865 66.9114 252.123 66.134 252.123C65.3539 252.123 64.7143 251.865 64.2151 251.349C63.7187 250.831 63.4705 250.111 63.4705 249.189ZM64.3133 249.189C64.3133 249.879 64.4797 250.421 64.8125 250.813C65.1453 251.204 65.5858 251.399 66.134 251.399C66.6795 251.399 67.1187 251.204 67.4514 250.813C67.7842 250.421 67.9506 249.879 67.9506 249.189V248.854C67.9506 248.164 67.7842 247.624 67.4514 247.234C67.1187 246.841 66.6795 246.644 66.134 246.644C65.5858 246.644 65.1453 246.841 64.8125 247.234C64.4797 247.624 64.3133 248.164 64.3133 248.854V249.189ZM69.8736 247.553H73.5599V252H72.7539V248.203H70.6796V252H69.8736V247.553ZM75.5811 247.553V249.095H76.563C77.1031 249.095 77.519 249.226 77.8109 249.488C78.1027 249.747 78.2487 250.097 78.2487 250.539C78.2487 250.979 78.1027 251.332 77.8109 251.599C77.519 251.866 77.1031 252 76.563 252H74.7751V247.553H75.5811ZM76.563 249.746H75.5811V251.349H76.563C76.8821 251.349 77.1058 251.273 77.234 251.12C77.3622 250.965 77.4263 250.771 77.4263 250.539C77.4263 250.308 77.3622 250.118 77.234 249.971C77.1058 249.821 76.8821 249.746 76.563 249.746ZM78.8174 252V247.553H79.6234V252H78.8174ZM80.3926 248.203V247.553H84.0544V248.203H82.6265V252H81.8205V248.203H80.3926ZM84.6599 252.908C84.7936 252.728 84.8958 252.544 84.9668 252.356C85.0404 252.168 85.0772 251.947 85.0772 251.693V251.039H85.8505V251.693C85.8505 252.007 85.7837 252.293 85.65 252.552C85.5164 252.814 85.3377 253.041 85.114 253.232L84.6599 252.908ZM89.2832 247.553H92.0981V248.203H90.0892V252H89.2832V247.553ZM92.8673 253.702V247.553H93.5996L93.6364 248.134H93.6569C93.7769 247.951 93.9597 247.795 94.2051 247.667C94.4534 247.536 94.7411 247.471 95.0684 247.471C95.6549 247.471 96.124 247.682 96.4759 248.105C96.8277 248.528 97.0037 249.062 97.0037 249.709V249.84C97.0037 250.489 96.8277 251.025 96.4759 251.448C96.124 251.87 95.6549 252.082 95.0684 252.082C94.7411 252.082 94.4615 252.027 94.2297 251.918C93.9978 251.806 93.8124 251.658 93.6733 251.472V253.702H92.8673ZM93.6733 250.65C93.766 250.846 93.916 251.022 94.1233 251.178C94.3333 251.33 94.5884 251.407 94.8884 251.407C95.333 251.407 95.659 251.257 95.8663 250.957C96.0736 250.654 96.1772 250.282 96.1772 249.84V249.709C96.1772 249.27 96.0736 248.9 95.8663 248.6C95.659 248.297 95.333 248.146 94.8884 248.146C94.5884 248.146 94.3333 248.224 94.1233 248.379C93.916 248.532 93.766 248.706 93.6733 248.903V250.65ZM97.6992 249.84V249.709C97.6992 249.041 97.8915 248.494 98.2761 248.068C98.6607 247.643 99.168 247.43 99.7981 247.43C100.431 247.43 100.918 247.629 101.259 248.027C101.6 248.425 101.77 248.961 101.77 249.635V249.979H98.1984V249.328H100.952V249.336C100.952 248.982 100.863 248.687 100.686 248.453C100.511 248.218 100.215 248.101 99.7981 248.101C99.3808 248.101 99.063 248.256 98.8448 248.567C98.6266 248.876 98.5175 249.256 98.5175 249.709V249.84C98.5175 250.293 98.6321 250.676 98.8612 250.989C99.0903 251.3 99.4449 251.456 99.9249 251.456C100.222 251.456 100.477 251.396 100.69 251.276C100.903 251.156 101.075 251.013 101.206 250.846L101.725 251.284C101.583 251.491 101.358 251.684 101.05 251.861C100.742 252.035 100.367 252.123 99.9249 252.123C99.2076 252.123 98.6566 251.911 98.272 251.489C97.8901 251.063 97.6992 250.513 97.6992 249.84ZM102.605 252V247.553H103.411V250.335C103.411 250.419 103.409 250.515 103.407 250.621C103.407 250.728 103.405 250.823 103.403 250.908H103.435C103.474 250.837 103.516 250.76 103.562 250.678C103.611 250.594 103.664 250.508 103.722 250.421L105.555 247.553H106.377V252H105.571V249.222C105.571 249.137 105.571 249.043 105.571 248.94C105.574 248.833 105.577 248.738 105.579 248.653H105.547C105.508 248.724 105.465 248.802 105.416 248.886C105.369 248.968 105.317 249.053 105.26 249.14L103.427 252H102.605ZM104.495 246.153C104.713 246.153 104.888 246.097 105.019 245.986C105.152 245.874 105.27 245.68 105.371 245.405L105.98 245.765C105.83 246.117 105.627 246.374 105.371 246.538C105.117 246.699 104.825 246.779 104.495 246.779C104.165 246.779 103.873 246.699 103.619 246.538C103.366 246.377 103.164 246.119 103.014 245.765L103.624 245.401C103.724 245.679 103.84 245.874 103.971 245.986C104.105 246.097 104.28 246.153 104.495 246.153ZM111.054 253.105V252H107.776V253.105H107.024V251.349H111.806V253.105H111.054ZM108.603 248.203L108.55 249.435C108.52 250.087 108.484 250.538 108.443 250.789C108.405 251.037 108.348 251.238 108.271 251.39H107.449C107.564 251.235 107.645 251.033 107.695 250.785C107.746 250.537 107.786 250.062 107.813 249.361L107.891 247.553H111.172V252H110.362V248.203H108.603Z" fill="black"/>
</g>
<circle cx="6" cy="6" r="5.25" transform="matrix(-1 0 0 1 133 178)" fill="white" stroke="#E4E4E4" stroke-width="1.5"/>
<path d="M260 429C260 311.065 127 401.174 127 279" stroke="#E4E4E4"/>
<path d="M202 357.5C186 354 171.5 351 156.5 344" stroke="url(#paint0_linear_2004_1241)"/>
<path d="M234 68C234 154.486 127 88.4058 127 178" stroke="#E4E4E4"/>
<g filter="url(#filter3_dddddd_2004_1241)">
<circle cx="201.54" cy="357.537" r="1" transform="rotate(16.238 201.54 357.537)" fill="#3297FB"/>
</g>
<defs>
<filter id="filter0_dddd_2004_1241" x="110" y="0" width="247" height="221" filterUnits="userSpaceOnUse" color-interpolation-filters="sRGB">
<feFlood flood-opacity="0" result="BackgroundImageFix"/>
<feColorMatrix in="SourceAlpha" type="matrix" values="0 0 0 0 0 0 0 0 0 0 0 0 0 0 0 0 0 0 127 0" result="hardAlpha"/>
<feOffset dy="7"/>
<feGaussianBlur stdDeviation="8"/>
<feColorMatrix type="matrix" values="0 0 0 0 0.741176 0 0 0 0 0.741176 0 0 0 0 0.741176 0 0 0 0.1 0"/>
<feBlend mode="normal" in2="BackgroundImageFix" result="effect1_dropShadow_2004_1241"/>
<feColorMatrix in="SourceAlpha" type="matrix" values="0 0 0 0 0 0 0 0 0 0 0 0 0 0 0 0 0 0 127 0" result="hardAlpha"/>
<feOffset dy="28"/>
<feGaussianBlur stdDeviation="14"/>
<feColorMatrix type="matrix" values="0 0 0 0 0.741176 0 0 0 0 0.741176 0 0 0 0 0.741176 0 0 0 0.09 0"/>
<feBlend mode="normal" in2="effect1_dropShadow_2004_1241" result="effect2_dropShadow_2004_1241"/>
<feColorMatrix in="SourceAlpha" type="matrix" values="0 0 0 0 0 0 0 0 0 0 0 0 0 0 0 0 0 0 127 0" result="hardAlpha"/>
<feOffset dy="64"/>
<feGaussianBlur stdDeviation="19"/>
<feColorMatrix type="matrix" values="0 0 0 0 0.741176 0 0 0 0 0.741176 0 0 0 0 0.741176 0 0 0 0.05 0"/>
<feBlend mode="normal" in2="effect2_dropShadow_2004_1241" result="effect3_dropShadow_2004_1241"/>
<feColorMatrix in="SourceAlpha" type="matrix" values="0 0 0 0 0 0 0 0 0 0 0 0 0 0 0 0 0 0 127 0" result="hardAlpha"/>
<feOffset dy="113"/>
<feGaussianBlur stdDeviation="22.5"/>
<feColorMatrix type="matrix" values="0 0 0 0 0.741176 0 0 0 0 0.741176 0 0 0 0 0.741176 0 0 0 0.01 0"/>
<feBlend mode="normal" in2="effect3_dropShadow_2004_1241" result="effect4_dropShadow_2004_1241"/>
<feBlend mode="normal" in="SourceGraphic" in2="effect4_dropShadow_2004_1241" result="shape"/>
</filter>
<filter id="filter1_dddd_2004_1241" x="134" y="419" width="253" height="227" filterUnits="userSpaceOnUse" color-interpolation-filters="sRGB">
<feFlood flood-opacity="0" result="BackgroundImageFix"/>
<feColorMatrix in="SourceAlpha" type="matrix" values="0 0 0 0 0 0 0 0 0 0 0 0 0 0 0 0 0 0 127 0" result="hardAlpha"/>
<feOffset dy="7"/>
<feGaussianBlur stdDeviation="8"/>
<feColorMatrix type="matrix" values="0 0 0 0 0.741176 0 0 0 0 0.741176 0 0 0 0 0.741176 0 0 0 0.1 0"/>
<feBlend mode="normal" in2="BackgroundImageFix" result="effect1_dropShadow_2004_1241"/>
<feColorMatrix in="SourceAlpha" type="matrix" values="0 0 0 0 0 0 0 0 0 0 0 0 0 0 0 0 0 0 127 0" result="hardAlpha"/>
<feOffset dy="28"/>
<feGaussianBlur stdDeviation="14"/>
<feColorMatrix type="matrix" values="0 0 0 0 0.741176 0 0 0 0 0.741176 0 0 0 0 0.741176 0 0 0 0.09 0"/>
<feBlend mode="normal" in2="effect1_dropShadow_2004_1241" result="effect2_dropShadow_2004_1241"/>
<feColorMatrix in="SourceAlpha" type="matrix" values="0 0 0 0 0 0 0 0 0 0 0 0 0 0 0 0 0 0 127 0" result="hardAlpha"/>
<feOffset dy="64"/>
<feGaussianBlur stdDeviation="19"/>
<feColorMatrix type="matrix" values="0 0 0 0 0.741176 0 0 0 0 0.741176 0 0 0 0 0.741176 0 0 0 0.05 0"/>
<feBlend mode="normal" in2="effect2_dropShadow_2004_1241" result="effect3_dropShadow_2004_1241"/>
<feColorMatrix in="SourceAlpha" type="matrix" values="0 0 0 0 0 0 0 0 0 0 0 0 0 0 0 0 0 0 127 0" result="hardAlpha"/>
<feOffset dy="113"/>
<feGaussianBlur stdDeviation="22.5"/>
<feColorMatrix type="matrix" values="0 0 0 0 0.741176 0 0 0 0 0.741176 0 0 0 0 0.741176 0 0 0 0.01 0"/>
<feBlend mode="normal" in2="effect3_dropShadow_2004_1241" result="effect4_dropShadow_2004_1241"/>
<feBlend mode="normal" in="SourceGraphic" in2="effect4_dropShadow_2004_1241" result="shape"/>
</filter>
<filter id="filter2_dddd_2004_1241" x="0" y="175" width="253" height="257" filterUnits="userSpaceOnUse" color-interpolation-filters="sRGB">
<feFlood flood-opacity="0" result="BackgroundImageFix"/>
<feColorMatrix in="SourceAlpha" type="matrix" values="0 0 0 0 0 0 0 0 0 0 0 0 0 0 0 0 0 0 127 0" result="hardAlpha"/>
<feOffset dy="7"/>
<feGaussianBlur stdDeviation="8"/>
<feColorMatrix type="matrix" values="0 0 0 0 0.741176 0 0 0 0 0.741176 0 0 0 0 0.741176 0 0 0 0.1 0"/>
<feBlend mode="normal" in2="BackgroundImageFix" result="effect1_dropShadow_2004_1241"/>
<feColorMatrix in="SourceAlpha" type="matrix" values="0 0 0 0 0 0 0 0 0 0 0 0 0 0 0 0 0 0 127 0" result="hardAlpha"/>
<feOffset dy="28"/>
<feGaussianBlur stdDeviation="14"/>
<feColorMatrix type="matrix" values="0 0 0 0 0.741176 0 0 0 0 0.741176 0 0 0 0 0.741176 0 0 0 0.09 0"/>
<feBlend mode="normal" in2="effect1_dropShadow_2004_1241" result="effect2_dropShadow_2004_1241"/>
<feColorMatrix in="SourceAlpha" type="matrix" values="0 0 0 0 0 0 0 0 0 0 0 0 0 0 0 0 0 0 127 0" result="hardAlpha"/>
<feOffset dy="64"/>
<feGaussianBlur stdDeviation="19"/>
<feColorMatrix type="matrix" values="0 0 0 0 0.741176 0 0 0 0 0.741176 0 0 0 0 0.741176 0 0 0 0.05 0"/>
<feBlend mode="normal" in2="effect2_dropShadow_2004_1241" result="effect3_dropShadow_2004_1241"/>
<feColorMatrix in="SourceAlpha" type="matrix" values="0 0 0 0 0 0 0 0 0 0 0 0 0 0 0 0 0 0 127 0" result="hardAlpha"/>
<feOffset dy="113"/>
<feGaussianBlur stdDeviation="22.5"/>
<feColorMatrix type="matrix" values="0 0 0 0 0.741176 0 0 0 0 0.741176 0 0 0 0 0.741176 0 0 0 0.01 0"/>
<feBlend mode="normal" in2="effect3_dropShadow_2004_1241" result="effect4_dropShadow_2004_1241"/>
<feBlend mode="normal" in="SourceGraphic" in2="effect4_dropShadow_2004_1241" result="shape"/>
</filter>
<filter id="filter3_dddddd_2004_1241" x="191.637" y="347.636" width="19.8059" height="19.8054" filterUnits="userSpaceOnUse" color-interpolation-filters="sRGB">
<feFlood flood-opacity="0" result="BackgroundImageFix"/>
<feColorMatrix in="SourceAlpha" type="matrix" values="0 0 0 0 0 0 0 0 0 0 0 0 0 0 0 0 0 0 127 0" result="hardAlpha"/>
<feOffset/>
<feGaussianBlur stdDeviation="0.105984"/>
<feColorMatrix type="matrix" values="0 0 0 0 0.235294 0 0 0 0 0.607843 0 0 0 0 0.976471 0 0 0 1 0"/>
<feBlend mode="normal" in2="BackgroundImageFix" result="effect1_dropShadow_2004_1241"/>
<feColorMatrix in="SourceAlpha" type="matrix" values="0 0 0 0 0 0 0 0 0 0 0 0 0 0 0 0 0 0 127 0" result="hardAlpha"/>
<feOffset/>
<feGaussianBlur stdDeviation="0.211969"/>
<feColorMatrix type="matrix" values="0 0 0 0 0.235294 0 0 0 0 0.607843 0 0 0 0 0.976471 0 0 0 1 0"/>
<feBlend mode="normal" in2="effect1_dropShadow_2004_1241" result="effect2_dropShadow_2004_1241"/>
<feColorMatrix in="SourceAlpha" type="matrix" values="0 0 0 0 0 0 0 0 0 0 0 0 0 0 0 0 0 0 127 0" result="hardAlpha"/>
<feOffset/>
<feGaussianBlur stdDeviation="0.741891"/>
<feColorMatrix type="matrix" values="0 0 0 0 0.235294 0 0 0 0 0.607843 0 0 0 0 0.976471 0 0 0 1 0"/>
<feBlend mode="normal" in2="effect2_dropShadow_2004_1241" result="effect3_dropShadow_2004_1241"/>
<feColorMatrix in="SourceAlpha" type="matrix" values="0 0 0 0 0 0 0 0 0 0 0 0 0 0 0 0 0 0 127 0" result="hardAlpha"/>
<feOffset/>
<feGaussianBlur stdDeviation="1.48378"/>
<feColorMatrix type="matrix" values="0 0 0 0 0.235294 0 0 0 0 0.607843 0 0 0 0 0.976471 0 0 0 1 0"/>
<feBlend mode="normal" in2="effect3_dropShadow_2004_1241" result="effect4_dropShadow_2004_1241"/>
<feColorMatrix in="SourceAlpha" type="matrix" values="0 0 0 0 0 0 0 0 0 0 0 0 0 0 0 0 0 0 127 0" result="hardAlpha"/>
<feOffset/>
<feGaussianBlur stdDeviation="2.54363"/>
<feColorMatrix type="matrix" values="0 0 0 0 0.235294 0 0 0 0 0.607843 0 0 0 0 0.976471 0 0 0 1 0"/>
<feBlend mode="normal" in2="effect4_dropShadow_2004_1241" result="effect5_dropShadow_2004_1241"/>
<feColorMatrix in="SourceAlpha" type="matrix" values="0 0 0 0 0 0 0 0 0 0 0 0 0 0 0 0 0 0 127 0" result="hardAlpha"/>
<feOffset/>
<feGaussianBlur stdDeviation="4.45134"/>
<feColorMatrix type="matrix" values="0 0 0 0 0.235294 0 0 0 0 0.607843 0 0 0 0 0.976471 0 0 0 1 0"/>
<feBlend mode="normal" in2="effect5_dropShadow_2004_1241" result="effect6_dropShadow_2004_1241"/>
<feBlend mode="normal" in="SourceGraphic" in2="effect6_dropShadow_2004_1241" result="shape"/>
</filter>
<linearGradient id="paint0_linear_2004_1241" x1="161.5" y1="345.5" x2="201" y2="357" gradientUnits="userSpaceOnUse">
<stop stop-color="#1A8EFF" stop-opacity="0"/>
<stop offset="1" stop-color="#1A8EFF"/>
</linearGradient>
<clipPath id="clip0_2004_1241">
<rect width="9.99994" height="9.99994" fill="white" transform="translate(201 456)"/>
</clipPath>
</defs>
</svg>
