<svg width="247" height="221" viewBox="0 0 247 221" fill="none" xmlns="http://www.w3.org/2000/svg">
<g filter="url(#filter0_dddd_509_1288)">
<path d="M47 19C47 14.5817 50.5817 11 55 11H192C196.418 11 200 14.5817 200 19V53C200 57.4183 196.418 61 192 61H55C50.5817 61 47 57.4183 47 53V19Z" fill="white"/>
<path d="M192 10C196.971 10 201 14.0294 201 19V53C201 57.9706 196.971 62 192 62H55C50.0294 62 46 57.9706 46 53V19C46 14.0294 50.0294 10 55 10H192Z" stroke="#F8F8F8" stroke-width="2"/>
<rect x="61" y="25" width="22" height="22" rx="11" fill="#F5F5F7"/>
<path d="M75.1517 39.1517L73.6684 37.6684M74.4681 35.7341C74.4681 37.2441 73.2441 38.4681 71.7341 38.4681C70.2241 38.4681 69 37.2441 69 35.7341C69 34.2241 70.2241 33 71.7341 33C73.2441 33 74.4681 34.2241 74.4681 35.7341Z" stroke="black" stroke-width="0.717693" stroke-linecap="round" stroke-linejoin="round"/>
<path d="M92.8301 32.5V25.3906H98.4209V32.5H97.4395V26.2061H93.8115V32.5H92.8301ZM99.6709 29.9463V29.79C99.6709 28.999 99.902 28.3529 100.364 27.8516C100.83 27.347 101.45 27.0947 102.225 27.0947C103.003 27.0947 103.623 27.347 104.085 27.8516C104.55 28.3529 104.783 28.999 104.783 29.79V29.9463C104.783 30.7406 104.55 31.39 104.085 31.8945C103.623 32.3958 103.003 32.6465 102.225 32.6465C101.45 32.6465 100.83 32.3958 100.364 31.8945C99.902 31.39 99.6709 30.7406 99.6709 29.9463ZM100.643 29.79V29.9463C100.643 30.4834 100.774 30.9375 101.038 31.3086C101.305 31.6764 101.701 31.8604 102.225 31.8604C102.752 31.8604 103.149 31.6764 103.416 31.3086C103.683 30.9375 103.816 30.4834 103.816 29.9463V29.79C103.816 29.2594 103.683 28.8102 103.416 28.4424C103.149 28.0713 102.752 27.8857 102.225 27.8857C101.701 27.8857 101.305 28.0713 101.038 28.4424C100.774 28.8102 100.643 29.2594 100.643 29.79ZM105.926 32.5V27.2412H106.868V30.5176C106.868 30.6185 106.867 30.7324 106.863 30.8594C106.863 30.9831 106.862 31.0954 106.858 31.1963H106.902C106.948 31.1117 106.998 31.0205 107.054 30.9229C107.112 30.8252 107.174 30.7243 107.239 30.6201L109.383 27.2412H110.345V32.5H109.402V29.2285C109.402 29.1276 109.402 29.0137 109.402 28.8867C109.406 28.7598 109.41 28.6475 109.417 28.5498H109.363C109.321 28.6312 109.271 28.7223 109.212 28.8232C109.157 28.9242 109.096 29.0267 109.031 29.1309L106.888 32.5H105.926ZM111.487 29.9463V29.79C111.487 28.999 111.71 28.3529 112.156 27.8516C112.602 27.347 113.214 27.0947 113.992 27.0947C114.715 27.0947 115.263 27.2835 115.638 27.6611C116.015 28.0387 116.204 28.4603 116.204 28.9258V28.9502H115.281V28.9258C115.281 28.6491 115.179 28.4066 114.974 28.1982C114.772 27.9867 114.445 27.8809 113.992 27.8809C113.465 27.8809 113.077 28.0664 112.83 28.4375C112.583 28.8053 112.459 29.2562 112.459 29.79V29.9463C112.459 30.4834 112.583 30.9375 112.83 31.3086C113.077 31.6764 113.465 31.8604 113.992 31.8604C114.445 31.8604 114.772 31.7562 114.974 31.5479C115.179 31.3363 115.281 31.0938 115.281 30.8203V30.7959H116.204V30.8203C116.204 31.2826 116.015 31.7025 115.638 32.0801C115.263 32.4577 114.715 32.6465 113.992 32.6465C113.214 32.6465 112.602 32.3958 112.156 31.8945C111.71 31.39 111.487 30.7406 111.487 29.9463ZM120.574 32.5L118.514 30.0635L119.109 29.4482L121.761 32.5H120.574ZM117.63 29.458H118.582L120.428 27.2412H121.517L119.007 30.21H117.63V29.458ZM118.104 27.2412V32.5H117.156V27.2412H118.104ZM124.92 32.5V27.2412H125.862V30.5176C125.862 30.6185 125.861 30.7324 125.857 30.8594C125.857 30.9831 125.856 31.0954 125.853 31.1963H125.896C125.942 31.1117 125.993 31.0205 126.048 30.9229C126.106 30.8252 126.168 30.7243 126.233 30.6201L128.377 27.2412H129.339V32.5H128.396V29.2285C128.396 29.1276 128.396 29.0137 128.396 28.8867C128.4 28.7598 128.405 28.6475 128.411 28.5498H128.357C128.315 28.6312 128.265 28.7223 128.206 28.8232C128.151 28.9242 128.09 29.0267 128.025 29.1309L125.882 32.5H124.92ZM130.481 29.9463V29.79C130.481 28.999 130.704 28.3529 131.15 27.8516C131.596 27.347 132.208 27.0947 132.986 27.0947C133.709 27.0947 134.257 27.2835 134.632 27.6611C135.009 28.0387 135.198 28.4603 135.198 28.9258V28.9502H134.275V28.9258C134.275 28.6491 134.173 28.4066 133.968 28.1982C133.766 27.9867 133.439 27.8809 132.986 27.8809C132.459 27.8809 132.072 28.0664 131.824 28.4375C131.577 28.8053 131.453 29.2562 131.453 29.79V29.9463C131.453 30.4834 131.577 30.9375 131.824 31.3086C132.072 31.6764 132.459 31.8604 132.986 31.8604C133.439 31.8604 133.766 31.7562 133.968 31.5479C134.173 31.3363 134.275 31.0938 134.275 30.8203V30.7959H135.198V30.8203C135.198 31.2826 135.009 31.7025 134.632 32.0801C134.257 32.4577 133.709 32.6465 132.986 32.6465C132.208 32.6465 131.596 32.3958 131.15 31.8945C130.704 31.39 130.481 30.7406 130.481 29.9463ZM136.15 27.2412H140.452V32.5H139.505V27.998H137.098V32.5H136.15V27.2412ZM141.595 29.9463V29.79C141.595 28.999 141.826 28.3529 142.288 27.8516C142.754 27.347 143.374 27.0947 144.148 27.0947C144.926 27.0947 145.547 27.347 146.009 27.8516C146.474 28.3529 146.707 28.999 146.707 29.79V29.9463C146.707 30.7406 146.474 31.39 146.009 31.8945C145.547 32.3958 144.926 32.6465 144.148 32.6465C143.374 32.6465 142.754 32.3958 142.288 31.8945C141.826 31.39 141.595 30.7406 141.595 29.9463ZM142.566 29.79V29.9463C142.566 30.4834 142.698 30.9375 142.962 31.3086C143.229 31.6764 143.624 31.8604 144.148 31.8604C144.676 31.8604 145.073 31.6764 145.34 31.3086C145.607 30.9375 145.74 30.4834 145.74 29.9463V29.79C145.74 29.2594 145.607 28.8102 145.34 28.4424C145.073 28.0713 144.676 27.8857 144.148 27.8857C143.624 27.8857 143.229 28.0713 142.962 28.4424C142.698 28.8102 142.566 29.2594 142.566 29.79ZM149.173 27.998L149.085 30.1074C149.046 30.9668 148.929 31.5967 148.733 31.9971C148.538 32.3942 148.195 32.5928 147.703 32.5928C147.589 32.5928 147.488 32.5846 147.4 32.5684C147.316 32.5553 147.241 32.5342 147.176 32.5049V31.6748C147.231 31.6976 147.288 31.7139 147.347 31.7236C147.409 31.7334 147.475 31.7383 147.547 31.7383C147.794 31.7383 147.96 31.6146 148.045 31.3672C148.133 31.1198 148.191 30.6576 148.221 29.9805L148.338 27.2412H152.117V32.5H151.165V27.998H149.173ZM153.572 27.2412H154.52V29.4531H156.976V27.2412H157.923V32.5H156.976V30.21H154.52V32.5H153.572V27.2412ZM159.373 32.5V27.2412H160.315V30.5176C160.315 30.6185 160.314 30.7324 160.311 30.8594C160.311 30.9831 160.309 31.0954 160.306 31.1963H160.35C160.395 31.1117 160.446 31.0205 160.501 30.9229C160.56 30.8252 160.621 30.7243 160.687 30.6201L162.83 27.2412H163.792V32.5H162.85V29.2285C162.85 29.1276 162.85 29.0137 162.85 28.8867C162.853 28.7598 162.858 28.6475 162.864 28.5498H162.811C162.768 28.6312 162.718 28.7223 162.659 28.8232C162.604 28.9242 162.544 29.0267 162.479 29.1309L160.335 32.5H159.373ZM164.7 27.998V27.2412H168.997V27.998H167.322V32.5H166.375V27.998H164.7ZM169.593 29.9463V29.79C169.593 28.999 169.817 28.3529 170.267 27.8516C170.716 27.347 171.308 27.0947 172.044 27.0947C172.786 27.0947 173.356 27.3307 173.753 27.8027C174.15 28.2715 174.349 28.9046 174.349 29.7021V30.1025H170.179V29.3408H173.392V29.3115C173.392 28.9046 173.286 28.5645 173.074 28.291C172.866 28.0143 172.527 27.876 172.059 27.876C171.564 27.876 171.189 28.0615 170.936 28.4326C170.682 28.8005 170.555 29.2529 170.555 29.79V29.9463C170.555 30.4834 170.688 30.9375 170.955 31.3086C171.222 31.6797 171.635 31.8652 172.195 31.8652C172.54 31.8652 172.837 31.7936 173.084 31.6504C173.335 31.5072 173.536 31.3363 173.689 31.1377L174.3 31.6455C174.131 31.8929 173.865 32.1224 173.504 32.334C173.146 32.5423 172.71 32.6465 172.195 32.6465C171.355 32.6465 170.711 32.3958 170.262 31.8945C169.816 31.39 169.593 30.7406 169.593 29.9463ZM176.702 27.998L176.614 30.1074C176.575 30.9668 176.458 31.5967 176.263 31.9971C176.067 32.3942 175.724 32.5928 175.232 32.5928C175.118 32.5928 175.018 32.5846 174.93 32.5684C174.845 32.5553 174.77 32.5342 174.705 32.5049V31.6748C174.76 31.6976 174.817 31.7139 174.876 31.7236C174.938 31.7334 175.005 31.7383 175.076 31.7383C175.324 31.7383 175.49 31.6146 175.574 31.3672C175.662 31.1198 175.721 30.6576 175.75 29.9805L175.867 27.2412H179.646V32.5H178.694V27.998H176.702ZM181.805 32.5H180.745L182.273 30.2832L183.235 30.3662L181.805 32.5ZM184.158 32.5V30.6104H182.996L182.908 30.5615C182.283 30.5615 181.801 30.415 181.463 30.1221C181.124 29.8291 180.955 29.4352 180.955 28.9404C180.955 28.4261 181.128 28.0143 181.473 27.7051C181.821 27.3958 182.314 27.2412 182.952 27.2412H185.105V32.5H184.158ZM182.952 29.8535H184.158V27.998H182.952C182.571 27.998 182.303 28.0876 182.146 28.2666C181.993 28.4456 181.917 28.6702 181.917 28.9404C181.917 29.2074 181.993 29.4271 182.146 29.5996C182.303 29.7689 182.571 29.8535 182.952 29.8535Z" fill="black"/>
<path d="M92.6955 46.5V40.5429H97.4579V46.5H96.6192V41.2425H93.5302V46.5H92.6955ZM98.5217 45.1948C98.5217 44.7421 98.7085 44.3902 99.0822 44.1393C99.4586 43.8856 99.9346 43.7588 100.51 43.7588H101.578V43.411C101.578 43.1655 101.504 42.9664 101.357 42.8136C101.21 42.6582 100.956 42.5804 100.596 42.5804C100.236 42.5804 99.9782 42.65 99.8228 42.7891C99.67 42.9255 99.5936 43.0837 99.5936 43.2637V43.2842H98.7876V43.2637C98.7876 42.9091 98.9527 42.5982 99.2827 42.3309C99.6127 42.0636 100.057 41.9299 100.616 41.9299C101.176 41.9299 101.609 42.054 101.918 42.3022C102.229 42.5504 102.384 42.92 102.384 43.411V45.5181C102.384 45.6954 102.398 45.8631 102.425 46.0213C102.455 46.1768 102.496 46.3145 102.548 46.4345V46.5H101.766C101.725 46.4291 101.688 46.3363 101.656 46.2218C101.623 46.1072 101.603 45.994 101.594 45.8822C101.483 46.0649 101.302 46.2272 101.054 46.3691C100.809 46.5109 100.491 46.5818 100.101 46.5818C99.6646 46.5818 99.2922 46.4632 98.984 46.2259C98.6758 45.9858 98.5217 45.6422 98.5217 45.1948ZM99.3277 45.1539C99.3277 45.3994 99.4054 45.5917 99.5609 45.7308C99.7191 45.8672 99.9619 45.9354 100.289 45.9354C100.616 45.9354 100.912 45.8317 101.177 45.6244C101.444 45.4144 101.578 45.1935 101.578 44.9616V44.3438H100.596C100.179 44.3438 99.8623 44.4175 99.6468 44.5648C99.4341 44.7093 99.3277 44.9057 99.3277 45.1539ZM103.595 48.202V42.0526H104.327L104.364 42.6336H104.385C104.505 42.4509 104.687 42.2954 104.933 42.1672C105.181 42.0363 105.469 41.9708 105.796 41.9708C106.383 41.9708 106.852 42.1822 107.204 42.605C107.556 43.0278 107.731 43.5624 107.731 44.2088V44.3397C107.731 44.9889 107.556 45.5249 107.204 45.9477C106.852 46.3704 106.383 46.5818 105.796 46.5818C105.469 46.5818 105.189 46.5273 104.957 46.4182C104.726 46.3063 104.54 46.1577 104.401 45.9722V48.202H103.595ZM104.401 45.1498C104.494 45.3462 104.644 45.5222 104.851 45.6776C105.061 45.8304 105.316 45.9067 105.616 45.9067C106.061 45.9067 106.387 45.7567 106.594 45.4567C106.801 45.1539 106.905 44.7816 106.905 44.3397V44.2088C106.905 43.7697 106.801 43.4001 106.594 43.1C106.387 42.7973 106.061 42.6459 105.616 42.6459C105.316 42.6459 105.061 42.7236 104.851 42.8791C104.644 43.0319 104.494 43.2064 104.401 43.4028V45.1498ZM108.447 45.1948C108.447 44.7421 108.634 44.3902 109.008 44.1393C109.384 43.8856 109.86 43.7588 110.436 43.7588H111.504V43.411C111.504 43.1655 111.43 42.9664 111.283 42.8136C111.136 42.6582 110.882 42.5804 110.522 42.5804C110.162 42.5804 109.904 42.65 109.749 42.7891C109.596 42.9255 109.519 43.0837 109.519 43.2637V43.2842H108.713V43.2637C108.713 42.9091 108.878 42.5982 109.208 42.3309C109.538 42.0636 109.983 41.9299 110.542 41.9299C111.101 41.9299 111.535 42.054 111.843 42.3022C112.154 42.5504 112.31 42.92 112.31 43.411V45.5181C112.31 45.6954 112.323 45.8631 112.351 46.0213C112.381 46.1768 112.422 46.3145 112.473 46.4345V46.5H111.692C111.651 46.4291 111.614 46.3363 111.581 46.2218C111.549 46.1072 111.528 45.994 111.52 45.8822C111.408 46.0649 111.228 46.2272 110.98 46.3691C110.735 46.5109 110.417 46.5818 110.027 46.5818C109.59 46.5818 109.218 46.4632 108.91 46.2259C108.602 45.9858 108.447 45.6422 108.447 45.1948ZM109.253 45.1539C109.253 45.3994 109.331 45.5917 109.487 45.7308C109.645 45.8672 109.888 45.9354 110.215 45.9354C110.542 45.9354 110.838 45.8317 111.103 45.6244C111.37 45.4144 111.504 45.1935 111.504 44.9616V44.3438H110.522C110.104 44.3438 109.788 44.4175 109.573 44.5648C109.36 44.7093 109.253 44.9057 109.253 45.1539ZM113.521 46.5V42.0526H114.67L115.886 45.1212C115.951 45.2849 115.993 45.398 116.012 45.4608C116.034 45.5235 116.052 45.5876 116.066 45.6531H116.107C116.123 45.5876 116.139 45.5235 116.156 45.4608C116.175 45.398 116.218 45.2876 116.287 45.1294L117.506 42.0526H118.631V46.5H117.845V43.4765C117.845 43.3101 117.847 43.1914 117.849 43.1205C117.855 43.0469 117.86 42.9814 117.866 42.9241H117.829C117.815 42.9814 117.798 43.0469 117.776 43.1205C117.754 43.1914 117.712 43.306 117.649 43.4642L116.442 46.5H115.685L114.478 43.4519C114.421 43.3073 114.38 43.1982 114.355 43.1246C114.334 43.0482 114.316 42.9814 114.302 42.9241H114.261C114.267 42.9814 114.272 43.0455 114.278 43.1164C114.283 43.1873 114.285 43.2978 114.282 43.4478V46.5H113.521ZM119.588 44.3397V44.2088C119.588 43.5406 119.781 42.9937 120.165 42.5682C120.55 42.1427 121.057 41.9299 121.687 41.9299C122.32 41.9299 122.807 42.129 123.148 42.5272C123.489 42.9255 123.659 43.4614 123.659 44.1352V44.4788H120.087V43.8283H122.841V43.8365C122.841 43.4819 122.752 43.1873 122.575 42.9528C122.401 42.7182 122.105 42.6009 121.687 42.6009C121.27 42.6009 120.952 42.7564 120.734 43.0673C120.516 43.3755 120.407 43.756 120.407 44.2088V44.3397C120.407 44.7925 120.521 45.1757 120.75 45.4894C120.979 45.8004 121.334 45.9558 121.814 45.9558C122.111 45.9558 122.366 45.8958 122.579 45.7758C122.792 45.6558 122.964 45.5126 123.095 45.3462L123.614 45.784C123.472 45.9913 123.247 46.1836 122.939 46.3609C122.631 46.5355 122.256 46.6227 121.814 46.6227C121.097 46.6227 120.546 46.4114 120.161 45.9886C119.779 45.5631 119.588 45.0135 119.588 44.3397ZM124.048 42.7032V42.0526H127.71V42.7032H126.282V46.5H125.476V42.7032H124.048ZM128.479 48.202V42.0526H129.211L129.248 42.6336H129.269C129.389 42.4509 129.571 42.2954 129.817 42.1672C130.065 42.0363 130.353 41.9708 130.68 41.9708C131.267 41.9708 131.736 42.1822 132.088 42.605C132.439 43.0278 132.615 43.5624 132.615 44.2088V44.3397C132.615 44.9889 132.439 45.5249 132.088 45.9477C131.736 46.3704 131.267 46.5818 130.68 46.5818C130.353 46.5818 130.073 46.5273 129.841 46.4182C129.61 46.3063 129.424 46.1577 129.285 45.9722V48.202H128.479ZM129.285 45.1498C129.378 45.3462 129.528 45.5222 129.735 45.6776C129.945 45.8304 130.2 45.9067 130.5 45.9067C130.945 45.9067 131.271 45.7567 131.478 45.4567C131.685 45.1539 131.789 44.7816 131.789 44.3397V44.2088C131.789 43.7697 131.685 43.4001 131.478 43.1C131.271 42.7973 130.945 42.6459 130.5 42.6459C130.2 42.6459 129.945 42.7236 129.735 42.8791C129.528 43.0319 129.378 43.2064 129.285 43.4028V45.1498ZM133.683 46.0704C133.683 45.9286 133.73 45.8072 133.822 45.7063C133.915 45.6026 134.047 45.5508 134.219 45.5508C134.388 45.5508 134.519 45.6026 134.612 45.7063C134.705 45.8072 134.751 45.9286 134.751 46.0704C134.751 46.2122 134.705 46.335 134.612 46.4386C134.519 46.5396 134.388 46.59 134.219 46.59C134.047 46.59 133.915 46.5396 133.822 46.4386C133.73 46.335 133.683 46.2122 133.683 46.0704ZM133.683 42.5027C133.683 42.3581 133.73 42.2354 133.822 42.1345C133.915 42.0308 134.047 41.979 134.219 41.979C134.388 41.979 134.519 42.0308 134.612 42.1345C134.705 42.2354 134.751 42.3581 134.751 42.5027C134.751 42.6445 134.705 42.7659 134.612 42.8668C134.519 42.9678 134.388 43.0182 134.219 43.0182C134.047 43.0182 133.915 42.9678 133.822 42.8668C133.73 42.7659 133.683 42.6445 133.683 42.5027ZM141.592 47.6047V46.5H138.315V47.6047H137.562V45.8495H142.345V47.6047H141.592ZM139.141 42.7032L139.088 43.9347C139.058 44.5866 139.023 45.038 138.982 45.2889C138.943 45.5372 138.886 45.7376 138.81 45.8904H137.987C138.102 45.7349 138.184 45.5331 138.233 45.2849C138.285 45.0366 138.324 44.562 138.352 43.861L138.429 42.0526H141.711V46.5H140.9V42.7032H139.141ZM143.036 46.5V42.0526H143.842V44.8348C143.842 44.9194 143.841 45.0148 143.838 45.1212C143.838 45.2276 143.837 45.323 143.834 45.4076H143.867C143.905 45.3367 143.947 45.2603 143.994 45.1785C144.043 45.0939 144.096 45.008 144.153 44.9207L145.986 42.0526H146.808V46.5H146.002V43.7219C146.002 43.6374 146.002 43.5433 146.002 43.4396C146.005 43.3333 146.008 43.2378 146.011 43.1532H145.978C145.94 43.2241 145.896 43.3019 145.847 43.3864C145.801 43.4683 145.749 43.5528 145.692 43.6401L143.859 46.5H143.036ZM149.468 46.6227C148.846 46.6227 148.374 46.4673 148.052 46.1563C147.73 45.8454 147.569 45.499 147.569 45.1171V45.0966H148.359V45.1171C148.359 45.3353 148.446 45.529 148.621 45.6981C148.796 45.8672 149.078 45.9518 149.468 45.9518C149.831 45.9518 150.099 45.8863 150.274 45.7554C150.451 45.6244 150.54 45.4417 150.54 45.2071C150.54 45.008 150.469 44.8512 150.327 44.7366C150.188 44.622 149.94 44.5648 149.582 44.5648H148.809V43.9224H149.587C149.873 43.9224 150.079 43.8665 150.204 43.7547C150.33 43.6428 150.393 43.486 150.393 43.2842C150.393 43.055 150.322 42.8846 150.18 42.7727C150.041 42.6609 149.818 42.605 149.513 42.605C149.145 42.605 148.876 42.6895 148.707 42.8586C148.54 43.0278 148.457 43.2201 148.457 43.4355V43.456H147.672V43.4355C147.672 43.0509 147.827 42.7045 148.138 42.3963C148.452 42.0854 148.91 41.9299 149.513 41.9299C150.028 41.9299 150.44 42.0404 150.748 42.2613C151.057 42.4795 151.211 42.8055 151.211 43.2391C151.211 43.4901 151.136 43.7001 150.986 43.8692C150.836 44.0356 150.633 44.1461 150.376 44.2006V44.2129C150.684 44.2593 150.923 44.3697 151.092 44.5443C151.264 44.7161 151.35 44.9371 151.35 45.2071C151.35 45.6544 151.177 46.0022 150.83 46.2504C150.487 46.4986 150.032 46.6227 149.468 46.6227ZM152.013 45.1948C152.013 44.7421 152.2 44.3902 152.573 44.1393C152.95 43.8856 153.426 43.7588 154.001 43.7588H155.069V43.411C155.069 43.1655 154.995 42.9664 154.848 42.8136C154.701 42.6582 154.447 42.5804 154.087 42.5804C153.727 42.5804 153.469 42.65 153.314 42.7891C153.161 42.9255 153.085 43.0837 153.085 43.2637V43.2842H152.279V43.2637C152.279 42.9091 152.444 42.5982 152.774 42.3309C153.104 42.0636 153.548 41.9299 154.108 41.9299C154.667 41.9299 155.1 42.054 155.409 42.3022C155.72 42.5504 155.875 42.92 155.875 43.411V45.5181C155.875 45.6954 155.889 45.8631 155.916 46.0213C155.946 46.1768 155.987 46.3145 156.039 46.4345V46.5H155.257C155.216 46.4291 155.179 46.3363 155.147 46.2218C155.114 46.1072 155.094 45.994 155.085 45.8822C154.974 46.0649 154.794 46.2272 154.545 46.3691C154.3 46.5109 153.982 46.5818 153.592 46.5818C153.156 46.5818 152.783 46.4632 152.475 46.2259C152.167 45.9858 152.013 45.6422 152.013 45.1948ZM152.819 45.1539C152.819 45.3994 152.896 45.5917 153.052 45.7308C153.21 45.8672 153.453 45.9354 153.78 45.9354C154.108 45.9354 154.403 45.8317 154.668 45.6244C154.935 45.4144 155.069 45.1935 155.069 44.9616V44.3438H154.087C153.67 44.3438 153.353 44.4175 153.138 44.5648C152.925 44.7093 152.819 44.9057 152.819 45.1539ZM157.086 46.5V42.0526H157.892V44.8348C157.892 44.9194 157.891 45.0148 157.888 45.1212C157.888 45.2276 157.887 45.323 157.884 45.4076H157.917C157.955 45.3367 157.997 45.2603 158.043 45.1785C158.093 45.0939 158.146 45.008 158.203 44.9207L160.036 42.0526H160.858V46.5H160.052V43.7219C160.052 43.6374 160.052 43.5433 160.052 43.4396C160.055 43.3333 160.058 43.2378 160.061 43.1532H160.028C159.99 43.2241 159.946 43.3019 159.897 43.3864C159.85 43.4683 159.799 43.5528 159.741 43.6401L157.908 46.5H157.086ZM158.976 40.6534C159.195 40.6534 159.369 40.5975 159.5 40.4856C159.634 40.3738 159.751 40.1801 159.852 39.9047L160.461 40.2647C160.311 40.6166 160.108 40.8743 159.852 41.038C159.598 41.1989 159.306 41.2794 158.976 41.2794C158.646 41.2794 158.354 41.1989 158.101 41.038C157.847 40.877 157.645 40.6193 157.495 40.2647L158.105 39.9006C158.206 40.1788 158.322 40.3738 158.453 40.4856C158.586 40.5975 158.761 40.6534 158.976 40.6534ZM162.069 42.0526H162.875V43.9224H164.991V42.0526H165.797V46.5H164.991V44.5729H162.875V46.5H162.069V42.0526ZM166.754 44.3397V44.2088C166.754 43.5406 166.946 42.9937 167.331 42.5682C167.716 42.1427 168.223 41.9299 168.853 41.9299C169.486 41.9299 169.973 42.129 170.314 42.5272C170.655 42.9255 170.825 43.4614 170.825 44.1352V44.4788H167.253V43.8283H170.007V43.8365C170.007 43.4819 169.918 43.1873 169.741 42.9528C169.566 42.7182 169.27 42.6009 168.853 42.6009C168.436 42.6009 168.118 42.7564 167.9 43.0673C167.681 43.3755 167.572 43.756 167.572 44.2088V44.3397C167.572 44.7925 167.687 45.1757 167.916 45.4894C168.145 45.8004 168.5 45.9558 168.98 45.9558C169.277 45.9558 169.532 45.8958 169.745 45.7758C169.958 45.6558 170.129 45.5126 170.26 45.3462L170.78 45.784C170.638 45.9913 170.413 46.1836 170.105 46.3609C169.797 46.5355 169.422 46.6227 168.98 46.6227C168.262 46.6227 167.711 46.4114 167.327 45.9886C166.945 45.5631 166.754 45.0135 166.754 44.3397ZM171.66 48.202V42.0526H172.392L172.429 42.6336H172.449C172.569 42.4509 172.752 42.2954 172.998 42.1672C173.246 42.0363 173.534 41.9708 173.861 41.9708C174.447 41.9708 174.916 42.1822 175.268 42.605C175.62 43.0278 175.796 43.5624 175.796 44.2088V44.3397C175.796 44.9889 175.62 45.5249 175.268 45.9477C174.916 46.3704 174.447 46.5818 173.861 46.5818C173.534 46.5818 173.254 46.5273 173.022 46.4182C172.79 46.3063 172.605 46.1577 172.466 45.9722V48.202H171.66ZM172.466 45.1498C172.558 45.3462 172.708 45.5222 172.916 45.6776C173.126 45.8304 173.381 45.9067 173.681 45.9067C174.125 45.9067 174.451 45.7567 174.659 45.4567C174.866 45.1539 174.97 44.7816 174.97 44.3397V44.2088C174.97 43.7697 174.866 43.4001 174.659 43.1C174.451 42.7973 174.125 42.6459 173.681 42.6459C173.381 42.6459 173.126 42.7236 172.916 42.8791C172.708 43.0319 172.558 43.2064 172.466 43.4028V45.1498Z" fill="#BCBCCF"/>
</g>
<defs>
<filter id="filter0_dddd_509_1288" x="0" y="0" width="247" height="221" filterUnits="userSpaceOnUse" color-interpolation-filters="sRGB">
<feFlood flood-opacity="0" result="BackgroundImageFix"/>
<feColorMatrix in="SourceAlpha" type="matrix" values="0 0 0 0 0 0 0 0 0 0 0 0 0 0 0 0 0 0 127 0" result="hardAlpha"/>
<feOffset dy="7"/>
<feGaussianBlur stdDeviation="8"/>
<feColorMatrix type="matrix" values="0 0 0 0 0.741176 0 0 0 0 0.741176 0 0 0 0 0.741176 0 0 0 0.1 0"/>
<feBlend mode="normal" in2="BackgroundImageFix" result="effect1_dropShadow_509_1288"/>
<feColorMatrix in="SourceAlpha" type="matrix" values="0 0 0 0 0 0 0 0 0 0 0 0 0 0 0 0 0 0 127 0" result="hardAlpha"/>
<feOffset dy="28"/>
<feGaussianBlur stdDeviation="14"/>
<feColorMatrix type="matrix" values="0 0 0 0 0.741176 0 0 0 0 0.741176 0 0 0 0 0.741176 0 0 0 0.09 0"/>
<feBlend mode="normal" in2="effect1_dropShadow_509_1288" result="effect2_dropShadow_509_1288"/>
<feColorMatrix in="SourceAlpha" type="matrix" values="0 0 0 0 0 0 0 0 0 0 0 0 0 0 0 0 0 0 127 0" result="hardAlpha"/>
<feOffset dy="64"/>
<feGaussianBlur stdDeviation="19"/>
<feColorMatrix type="matrix" values="0 0 0 0 0.741176 0 0 0 0 0.741176 0 0 0 0 0.741176 0 0 0 0.05 0"/>
<feBlend mode="normal" in2="effect2_dropShadow_509_1288" result="effect3_dropShadow_509_1288"/>
<feColorMatrix in="SourceAlpha" type="matrix" values="0 0 0 0 0 0 0 0 0 0 0 0 0 0 0 0 0 0 127 0" result="hardAlpha"/>
<feOffset dy="113"/>
<feGaussianBlur stdDeviation="22.5"/>
<feColorMatrix type="matrix" values="0 0 0 0 0.741176 0 0 0 0 0.741176 0 0 0 0 0.741176 0 0 0 0.01 0"/>
<feBlend mode="normal" in2="effect3_dropShadow_509_1288" result="effect4_dropShadow_509_1288"/>
<feBlend mode="normal" in="SourceGraphic" in2="effect4_dropShadow_509_1288" result="shape"/>
</filter>
</defs>
</svg>
