<svg xmlns="http://www.w3.org/2000/svg" width="247" height="221" fill="none" viewBox="0 0 247 221"><g filter="url(#a)"><path fill="#fff" d="M47 19a8 8 0 0 1 8-8h137a8 8 0 0 1 8 8v34a8 8 0 0 1-8 8H55a8 8 0 0 1-8-8z"/><path stroke="#f8f8f8" stroke-width="2" d="M192 10a9 9 0 0 1 9 9v34a9 9 0 0 1-9 9H55a9 9 0 0 1-9-9V19a9 9 0 0 1 9-9z"/><rect width="22" height="22" x="61" y="25" fill="#f5f5f7" rx="11"/><path stroke="#000" stroke-linecap="round" stroke-linejoin="round" stroke-width=".718" d="m75.152 39.152-1.484-1.484m.8-1.934a2.734 2.734 0 1 1-5.468 0 2.734 2.734 0 0 1 5.468 0"/><path fill="#000" d="M92.83 32.5v-7.11h5.59v7.11h-.98v-6.294H93.81V32.5zm6.84-2.554v-.156q0-1.187.694-1.938.699-.757 1.861-.757 1.167 0 1.86.757.698.75.698 1.938v.156q0 1.192-.698 1.948-.693.753-1.86.753-1.162 0-1.861-.752-.693-.757-.693-1.949m.973-.156v.156q0 .805.395 1.363.4.55 1.187.551.79 0 1.191-.551.4-.558.4-1.363v-.156q0-.796-.4-1.348-.4-.556-1.191-.556-.786 0-1.187.556-.396.552-.395 1.348m5.283 2.71v-5.259h.942v3.277q0 .15-.005.341 0 .186-.005.337h.044q.069-.127.152-.273.087-.147.185-.303l2.144-3.379h.962V32.5h-.943v-3.613q.005-.191.015-.337h-.054a6 6 0 0 1-.151.273 6 6 0 0 1-.181.308l-2.143 3.369zm5.561-2.554v-.156q0-1.187.669-1.938.669-.757 1.836-.757 1.084 0 1.646.566.566.567.566 1.265v.024h-.923v-.024q0-.416-.307-.728-.303-.317-.982-.317-.791 0-1.162.556-.37.553-.371 1.353v.156q0 .805.371 1.363.371.55 1.162.551.68 0 .982-.312.307-.317.307-.728v-.024h.923v.024q0 .695-.566 1.26-.562.567-1.646.567-1.167 0-1.836-.752-.669-.757-.669-1.949m9.087 2.554-2.06-2.436.595-.616 2.652 3.052zm-2.944-3.042h.952l1.846-2.217h1.089l-2.51 2.969h-1.377zm.474-2.217V32.5h-.948v-5.259zm6.816 5.259v-5.259h.942v3.277q0 .15-.005.341 0 .186-.004.337h.043l.152-.273q.087-.147.185-.303l2.144-3.379h.962V32.5h-.943v-3.613q.006-.191.015-.337h-.054a6 6 0 0 1-.151.273 6 6 0 0 1-.181.308l-2.143 3.369zm5.561-2.554v-.156q0-1.187.669-1.938.669-.757 1.836-.757 1.084 0 1.646.566.566.567.566 1.265v.024h-.923v-.024q0-.416-.307-.728-.303-.317-.982-.317-.79 0-1.162.556-.37.553-.371 1.353v.156q0 .805.371 1.363.372.55 1.162.551.68 0 .982-.312.307-.317.307-.728v-.024h.923v.024q0 .695-.566 1.26-.562.567-1.646.567-1.167 0-1.836-.752-.669-.757-.669-1.949m5.669-2.705h4.302V32.5h-.947v-4.502h-2.407V32.5h-.948zm5.445 2.705v-.156q0-1.187.693-1.938.699-.757 1.86-.757 1.167 0 1.861.757.698.75.698 1.938v.156q0 1.192-.698 1.948-.694.753-1.861.753-1.161 0-1.86-.752-.693-.757-.693-1.949m.971-.156v.156q0 .805.396 1.363.4.55 1.186.551.792 0 1.192-.551.4-.558.4-1.363v-.156q0-.796-.4-1.348-.4-.556-1.192-.556-.786 0-1.186.556-.396.552-.396 1.348m6.607-1.792-.088 2.11q-.058 1.289-.352 1.89-.292.595-1.03.595-.171 0-.303-.025a.9.9 0 0 1-.224-.063v-.83q.082.034.171.049.093.015.2.014.37 0 .498-.37.131-.372.176-1.387l.117-2.74h3.779V32.5h-.952v-4.502zm4.399-.757h.948v2.212h2.456v-2.212h.947V32.5h-.947v-2.29h-2.456v2.29h-.948zm5.801 5.259v-5.259h.942v3.277q0 .15-.004.341 0 .186-.005.337h.044q.068-.127.151-.273.088-.147.186-.303l2.143-3.379h.962V32.5h-.942v-3.613q.005-.191.014-.337h-.053a7 7 0 0 1-.152.273 6 6 0 0 1-.18.308l-2.144 3.369zm5.327-4.502v-.757h4.297v.757h-1.675V32.5h-.947v-4.502zm4.893 1.948v-.156q0-1.187.674-1.938.673-.757 1.777-.757 1.113 0 1.709.708.596.703.596 1.9v.4h-4.17v-.762h3.213v-.03q0-.61-.318-1.02-.312-.415-1.015-.415-.743 0-1.123.557-.381.551-.381 1.357v.156q0 .805.4 1.363.4.556 1.24.556.518 0 .889-.215.376-.215.605-.512l.611.507q-.254.371-.796.689-.537.313-1.309.313-1.26 0-1.933-.752-.669-.757-.669-1.949m7.109-1.948-.088 2.11q-.059 1.289-.351 1.89-.293.595-1.031.595-.17 0-.302-.025a.9.9 0 0 1-.225-.063v-.83q.083.034.171.049.093.015.2.014.372 0 .498-.37.132-.372.176-1.387l.117-2.74h3.779V32.5h-.952v-4.502zm5.103 4.502h-1.06l1.528-2.217.962.083zm2.353 0v-1.89h-1.162l-.088-.049q-.938 0-1.445-.439-.508-.44-.508-1.182 0-.771.518-1.235.522-.464 1.479-.464h2.153V32.5zm-1.206-2.646h1.206v-1.856h-1.206q-.571 0-.806.269a1 1 0 0 0-.229.673q0 .4.229.66.235.253.806.253"/><path fill="#bcbccf" d="M92.696 46.5v-5.957h4.762V46.5h-.839v-5.257H93.53V46.5zm5.826-1.305a1.2 1.2 0 0 1 .56-1.056q.565-.38 1.428-.38h1.068v-.348a.83.83 0 0 0-.221-.597q-.22-.234-.761-.234-.54 0-.773.21a.62.62 0 0 0-.23.474v.02h-.805v-.02q0-.532.495-.933.495-.4 1.333-.401.84 0 1.302.372.466.372.466 1.109v2.107q0 .266.041.503.045.234.123.413v.066h-.782a1.2 1.2 0 0 1-.11-.278 1.7 1.7 0 0 1-.062-.34q-.167.274-.54.487-.368.213-.953.213-.654 0-1.117-.356-.462-.36-.462-1.031m.806-.041q0 .368.233.577.236.204.728.204.49 0 .888-.31.4-.315.401-.663v-.618h-.982q-.626 0-.95.22a.68.68 0 0 0-.318.59m4.267 3.048v-6.15h.732l.037.582h.021a1.4 1.4 0 0 1 .548-.467q.372-.196.863-.196.88 0 1.408.634t.527 1.604v.13q0 .975-.527 1.609-.528.633-1.408.634a2 2 0 0 1-.839-.164 1.5 1.5 0 0 1-.556-.446v2.23zm.806-3.052q.14.294.45.528.315.228.765.229.668 0 .978-.45.31-.454.311-1.117v-.131q0-.66-.311-1.109-.31-.454-.978-.454-.45 0-.765.233a1.4 1.4 0 0 0-.45.524zm4.046.045a1.2 1.2 0 0 1 .561-1.056q.564-.38 1.428-.38h1.068v-.348a.83.83 0 0 0-.221-.597q-.22-.234-.761-.234-.54 0-.773.21a.62.62 0 0 0-.23.474v.02h-.806v-.02q0-.532.495-.933.495-.4 1.334-.401.839 0 1.301.372.467.372.467 1.109v2.107q0 .266.041.503.045.234.122.413v.066h-.781a1.3 1.3 0 0 1-.111-.278 1.7 1.7 0 0 1-.061-.34q-.168.274-.54.487-.368.213-.953.213-.655 0-1.117-.356-.463-.36-.463-1.031m.806-.041q0 .368.234.577.237.204.728.204.49 0 .888-.31.4-.315.401-.663v-.618h-.982q-.627 0-.949.22a.68.68 0 0 0-.32.59m4.268 1.346v-4.447h1.149l1.216 3.068q.097.246.126.34.033.095.054.192h.041q.024-.098.049-.192.028-.094.131-.332l1.219-3.076h1.125V46.5h-.786v-3.023q0-.25.004-.356.008-.111.017-.197h-.037a4 4 0 0 1-.053.197q-.033.106-.127.343l-1.207 3.036h-.757l-1.207-3.048a8 8 0 0 1-.123-.327l-.053-.2h-.041q.008.084.017.191.008.107.004.332V46.5zm6.067-2.16v-.131q0-1.002.577-1.64.577-.64 1.522-.64.95 0 1.461.598.511.597.511 1.608v.344h-3.572v-.65h2.754v.008q0-.533-.266-.884-.261-.352-.888-.352-.626 0-.953.466-.327.463-.327 1.142v.13q0 .68.343 1.15.344.467 1.064.467.446 0 .765-.18a1.7 1.7 0 0 0 .516-.43l.519.438q-.213.311-.675.577-.462.262-1.125.262-1.076 0-1.653-.634-.573-.638-.573-1.65m4.46-1.637v-.65h3.662v.65h-1.428V46.5h-.806v-3.797zm4.431 5.499v-6.15h.732l.037.582h.021a1.4 1.4 0 0 1 .548-.467q.372-.196.863-.196.88 0 1.408.634t.527 1.604v.13q0 .975-.527 1.609-.528.633-1.408.634a2 2 0 0 1-.839-.164 1.5 1.5 0 0 1-.556-.446v2.23zm.806-3.052q.14.294.45.528.315.228.765.229.667 0 .978-.45.31-.454.311-1.117v-.131q0-.66-.311-1.109-.31-.454-.978-.454-.45 0-.765.233a1.4 1.4 0 0 0-.45.524zm4.398.92q0-.212.139-.364.14-.155.397-.155a.5.5 0 0 1 .532.52.53.53 0 0 1-.139.368.5.5 0 0 1-.393.151q-.258 0-.397-.151a.54.54 0 0 1-.139-.369m0-3.567q0-.218.139-.368.14-.156.397-.156a.5.5 0 0 1 .532.524.52.52 0 0 1-.139.364.5.5 0 0 1-.393.151q-.258 0-.397-.151a.52.52 0 0 1-.139-.364m7.909 5.102V46.5h-3.277v1.105h-.753V45.85h4.783v1.755zm-2.451-4.902-.053 1.232q-.045.978-.106 1.354a2.1 2.1 0 0 1-.172.601h-.823q.173-.233.246-.605.077-.372.119-1.424l.077-1.808h3.282V46.5h-.811v-3.797zm3.895 3.797v-4.447h.806v2.782q0 .127-.004.286 0 .16-.004.287h.033q.057-.107.127-.23.073-.126.159-.257l1.833-2.868h.822V46.5h-.806v-3.06l.009-.287h-.033a8 8 0 0 1-.286.487l-1.833 2.86zm6.432.123q-.933 0-1.416-.467-.483-.465-.483-1.039v-.02h.79v.02q0 .327.262.581t.847.254q.544 0 .806-.197a.64.64 0 0 0 .266-.548q0-.299-.213-.47-.208-.172-.745-.172h-.773v-.643h.778q.43 0 .617-.167.189-.168.189-.47 0-.344-.213-.512-.209-.168-.667-.168-.552 0-.806.254a.8.8 0 0 0-.25.576v.021h-.785v-.02q0-.577.466-1.04.47-.465 1.375-.466.773 0 1.235.331.463.327.463.978a.92.92 0 0 1-.225.63q-.225.25-.61.332v.012q.462.07.716.331a.9.9 0 0 1 .258.663q0 .67-.52 1.043-.515.373-1.362.373m2.545-1.428q0-.68.56-1.056.566-.38 1.428-.38h1.068v-.348a.83.83 0 0 0-.221-.597q-.22-.234-.761-.234-.54 0-.773.21a.62.62 0 0 0-.229.474v.02h-.806v-.02q0-.532.495-.933.495-.4 1.334-.401.838 0 1.301.372.466.372.466 1.109v2.107q0 .266.041.503.045.234.123.413v.066h-.782a1.2 1.2 0 0 1-.11-.278 1.7 1.7 0 0 1-.062-.34q-.167.274-.54.487-.368.213-.953.213-.655 0-1.117-.356-.462-.36-.462-1.031m.806-.041q0 .368.233.577.237.204.728.204t.888-.31q.4-.315.401-.663v-.618h-.982q-.626 0-.949.22a.68.68 0 0 0-.319.59m4.267 1.346v-4.447h.806v2.782q0 .127-.004.286 0 .16-.004.287h.033l.126-.23q.075-.126.16-.257l1.833-2.868h.822V46.5h-.806v-3.06l.009-.287h-.033a8 8 0 0 1-.287.487l-1.833 2.86zm1.89-5.847q.328 0 .524-.167.2-.168.352-.581l.609.36q-.225.528-.609.773-.381.24-.876.241-.495 0-.875-.241-.381-.242-.606-.773l.61-.364q.151.417.348.585.2.167.523.167m3.093 1.4h.806v1.87h2.116v-1.87h.806V46.5h-.806v-1.927h-2.116V46.5h-.806zm4.685 2.287v-.131q0-1.002.577-1.64.577-.64 1.522-.64.95 0 1.461.598.511.597.511 1.608v.344h-3.572v-.65h2.754v.008q0-.533-.266-.884-.263-.352-.888-.352-.626 0-.953.466-.328.463-.328 1.142v.13q0 .68.344 1.15.344.467 1.064.467.446 0 .765-.18t.515-.43l.52.438q-.213.311-.675.577-.462.262-1.125.262-1.077 0-1.653-.634-.573-.638-.573-1.65m4.906 3.862v-6.15h.732l.037.582h.02q.18-.275.549-.467.372-.196.863-.196.879 0 1.407.634t.528 1.604v.13q0 .975-.528 1.609-.528.633-1.407.634a2 2 0 0 1-.839-.164 1.5 1.5 0 0 1-.556-.446v2.23zm.806-3.052q.138.294.45.528.315.228.765.229.666 0 .978-.45.31-.454.311-1.117v-.131q0-.66-.311-1.109-.312-.454-.978-.454-.45 0-.765.233a1.4 1.4 0 0 0-.45.524z"/></g><defs><filter id="a" width="247" height="221" x="0" y="0" color-interpolation-filters="sRGB" filterUnits="userSpaceOnUse"><feFlood flood-opacity="0" result="BackgroundImageFix"/><feColorMatrix in="SourceAlpha" result="hardAlpha" values="0 0 0 0 0 0 0 0 0 0 0 0 0 0 0 0 0 0 127 0"/><feOffset dy="7"/><feGaussianBlur stdDeviation="8"/><feColorMatrix values="0 0 0 0 0.741176 0 0 0 0 0.741176 0 0 0 0 0.741176 0 0 0 0.1 0"/><feBlend in2="BackgroundImageFix" result="effect1_dropShadow_509_1288"/><feColorMatrix in="SourceAlpha" result="hardAlpha" values="0 0 0 0 0 0 0 0 0 0 0 0 0 0 0 0 0 0 127 0"/><feOffset dy="28"/><feGaussianBlur stdDeviation="14"/><feColorMatrix values="0 0 0 0 0.741176 0 0 0 0 0.741176 0 0 0 0 0.741176 0 0 0 0.09 0"/><feBlend in2="effect1_dropShadow_509_1288" result="effect2_dropShadow_509_1288"/><feColorMatrix in="SourceAlpha" result="hardAlpha" values="0 0 0 0 0 0 0 0 0 0 0 0 0 0 0 0 0 0 127 0"/><feOffset dy="64"/><feGaussianBlur stdDeviation="19"/><feColorMatrix values="0 0 0 0 0.741176 0 0 0 0 0.741176 0 0 0 0 0.741176 0 0 0 0.05 0"/><feBlend in2="effect2_dropShadow_509_1288" result="effect3_dropShadow_509_1288"/><feColorMatrix in="SourceAlpha" result="hardAlpha" values="0 0 0 0 0 0 0 0 0 0 0 0 0 0 0 0 0 0 127 0"/><feOffset dy="113"/><feGaussianBlur stdDeviation="22.5"/><feColorMatrix values="0 0 0 0 0.741176 0 0 0 0 0.741176 0 0 0 0 0.741176 0 0 0 0.01 0"/><feBlend in2="effect3_dropShadow_509_1288" result="effect4_dropShadow_509_1288"/><feBlend in="SourceGraphic" in2="effect4_dropShadow_509_1288" result="shape"/></filter></defs></svg>